<?xml version="1.0" encoding="utf-8" standalone="no"?>
<!DOCTYPE svg PUBLIC "-//W3C//DTD SVG 1.1//EN"
  "http://www.w3.org/Graphics/SVG/1.1/DTD/svg11.dtd">
<!-- Created with matplotlib (https://matplotlib.org/) -->
<svg height="220.493533pt" version="1.1" viewBox="0 0 333.734499 220.493533" width="333.734499pt" xmlns="http://www.w3.org/2000/svg" xmlns:xlink="http://www.w3.org/1999/xlink">
 <metadata>
  <rdf:RDF xmlns:cc="http://creativecommons.org/ns#" xmlns:dc="http://purl.org/dc/elements/1.1/" xmlns:rdf="http://www.w3.org/1999/02/22-rdf-syntax-ns#">
   <cc:Work>
    <dc:type rdf:resource="http://purl.org/dc/dcmitype/StillImage"/>
    <dc:date>2021-12-02T18:02:31.204780</dc:date>
    <dc:format>image/svg+xml</dc:format>
    <dc:creator>
     <cc:Agent>
      <dc:title>Matplotlib v3.3.3, https://matplotlib.org/</dc:title>
     </cc:Agent>
    </dc:creator>
   </cc:Work>
  </rdf:RDF>
 </metadata>
 <defs>
  <style type="text/css">*{stroke-linecap:butt;stroke-linejoin:round;}</style>
 </defs>
 <g id="figure_1">
  <g id="patch_1">
   <path d="M 0 220.493533 
L 333.734499 220.493533 
L 333.734499 0 
L 0 0 
z
" style="fill:none;"/>
  </g>
  <g id="axes_1">
   <g id="patch_2">
    <path d="M 47.534499 184.58218 
L 326.534499 184.58218 
L 326.534499 21.50218 
L 47.534499 21.50218 
z
" style="fill:#ffffff;"/>
   </g>
   <g id="matplotlib.axis_1">
    <g id="xtick_1">
     <g id="line2d_1">
      <defs>
       <path d="M 0 0 
L 0 3.5 
" id="md039e05780" style="stroke:#000000;stroke-width:0.8;"/>
      </defs>
      <g>
       <use style="stroke:#000000;stroke-width:0.8;" x="60.216318" xlink:href="#md039e05780" y="184.58218"/>
      </g>
     </g>
     <g id="text_1">
      <!-- $\mathdefault{0.0}$ -->
      <g transform="translate(53.851278 198.500678)scale(0.1 -0.1)">
       <defs>
        <path d="M 42 31.640625 
C 42 37.75 41.90625 48.125 37.703125 56.109375 
C 34 63.109375 28.09375 65.59375 22.90625 65.59375 
C 18.09375 65.59375 12 63.40625 8.203125 56.203125 
C 4.203125 48.71875 3.796875 39.4375 3.796875 31.640625 
C 3.796875 25.953125 3.90625 17.28125 7 9.671875 
C 11.296875 -0.609375 19 -2 22.90625 -2 
C 27.5 -2 34.5 -0.109375 38.59375 9.375 
C 41.59375 16.28125 42 24.359375 42 31.640625 
z
M 22.90625 -0.40625 
C 16.5 -0.40625 12.703125 5.078125 11.296875 12.6875 
C 10.203125 18.5625 10.203125 27.15625 10.203125 32.75 
C 10.203125 40.4375 10.203125 46.828125 11.5 52.921875 
C 13.40625 61.390625 19 64 22.90625 64 
C 27 64 32.296875 61.296875 34.203125 53.125 
C 35.5 47.4375 35.59375 40.734375 35.59375 32.75 
C 35.59375 26.25 35.59375 18.265625 34.40625 12.375 
C 32.296875 1.484375 26.40625 -0.40625 22.90625 -0.40625 
z
" id="CMR17-48"/>
        <path d="M 18.40625 4.796875 
C 18.40625 7.6875 16 9.671875 13.59375 9.671875 
C 10.703125 9.671875 8.703125 7.28125 8.703125 4.890625 
C 8.703125 2 11.09375 0 13.5 0 
C 16.40625 0 18.40625 2.390625 18.40625 4.796875 
z
" id="CMMI12-58"/>
       </defs>
       <use transform="scale(0.996264)" xlink:href="#CMR17-48"/>
       <use transform="translate(45.690477 0)scale(0.996264)" xlink:href="#CMMI12-58"/>
       <use transform="translate(72.787654 0)scale(0.996264)" xlink:href="#CMR17-48"/>
      </g>
     </g>
    </g>
    <g id="xtick_2">
     <g id="line2d_2">
      <g>
       <use style="stroke:#000000;stroke-width:0.8;" x="110.94359" xlink:href="#md039e05780" y="184.58218"/>
      </g>
     </g>
     <g id="text_2">
      <!-- $\mathdefault{0.2}$ -->
      <g transform="translate(104.578551 198.500678)scale(0.1 -0.1)">
       <defs>
        <path d="M 41.703125 15.453125 
L 39.90625 15.453125 
C 38.90625 8.375 38.09375 7.171875 37.703125 6.5625 
C 37.203125 5.765625 30 5.765625 28.59375 5.765625 
L 9.40625 5.765625 
C 13 9.671875 20 16.75 28.5 24.953125 
C 34.59375 30.734375 41.703125 37.53125 41.703125 47.421875 
C 41.703125 59.21875 32.296875 66 21.796875 66 
C 10.796875 66 4.09375 56.3125 4.09375 47.34375 
C 4.09375 43.4375 7 42.9375 8.203125 42.9375 
C 9.203125 42.9375 12.203125 43.546875 12.203125 47.03125 
C 12.203125 50.109375 9.59375 51 8.203125 51 
C 7.59375 51 7 50.90625 6.59375 50.703125 
C 8.5 59.21875 14.296875 63.40625 20.40625 63.40625 
C 29.09375 63.40625 34.796875 56.515625 34.796875 47.421875 
C 34.796875 38.734375 29.703125 31.25 24 24.75 
L 4.09375 2.28125 
L 4.09375 0 
L 39.296875 0 
z
" id="CMR17-50"/>
       </defs>
       <use transform="scale(0.996264)" xlink:href="#CMR17-48"/>
       <use transform="translate(45.690477 0)scale(0.996264)" xlink:href="#CMMI12-58"/>
       <use transform="translate(72.787654 0)scale(0.996264)" xlink:href="#CMR17-50"/>
      </g>
     </g>
    </g>
    <g id="xtick_3">
     <g id="line2d_3">
      <g>
       <use style="stroke:#000000;stroke-width:0.8;" x="161.670863" xlink:href="#md039e05780" y="184.58218"/>
      </g>
     </g>
     <g id="text_3">
      <!-- $\mathdefault{0.4}$ -->
      <g transform="translate(155.305824 198.500678)scale(0.1 -0.1)">
       <defs>
        <path d="M 33.59375 64.40625 
C 33.59375 66.5 33.5 66.5 31.703125 66.5 
L 2 19.59375 
L 2 17 
L 27.796875 17 
L 27.796875 7.140625 
C 27.796875 3.5 27.59375 2.5 20.59375 2.5 
L 18.703125 2.5 
L 18.703125 0 
C 21.90625 0 27.296875 0 30.703125 0 
C 34.09375 0 39.5 0 42.703125 0 
L 42.703125 2.5 
L 40.796875 2.5 
C 33.796875 2.5 33.59375 3.5 33.59375 7.140625 
L 33.59375 17 
L 43.796875 17 
L 43.796875 19.59375 
L 33.59375 19.59375 
z
M 28.09375 57.859375 
L 28.09375 19.59375 
L 4 19.59375 
z
" id="CMR17-52"/>
       </defs>
       <use transform="scale(0.996264)" xlink:href="#CMR17-48"/>
       <use transform="translate(45.690477 0)scale(0.996264)" xlink:href="#CMMI12-58"/>
       <use transform="translate(72.787654 0)scale(0.996264)" xlink:href="#CMR17-52"/>
      </g>
     </g>
    </g>
    <g id="xtick_4">
     <g id="line2d_4">
      <g>
       <use style="stroke:#000000;stroke-width:0.8;" x="212.398136" xlink:href="#md039e05780" y="184.58218"/>
      </g>
     </g>
     <g id="text_4">
      <!-- $\mathdefault{0.6}$ -->
      <g transform="translate(206.033096 198.500678)scale(0.1 -0.1)">
       <defs>
        <path d="M 10.59375 34 
C 10.59375 57.65625 21.796875 63 28.296875 63 
C 30.40625 63 35.5 62.640625 37.5 59 
C 35.90625 59 32.90625 59 32.90625 55.515625 
C 32.90625 52.828125 35.09375 51.921875 36.5 51.921875 
C 37.40625 51.921875 40.09375 52.3125 40.09375 55.625 
C 40.09375 61.78125 35.09375 65.296875 28.203125 65.296875 
C 16.296875 65.296875 3.796875 52.96875 3.796875 31 
C 3.796875 3.953125 15.09375 -2 23.09375 -2 
C 32.796875 -2 42 6.671875 42 20.046875 
C 42 32.515625 33.90625 41.59375 23.703125 41.59375 
C 17.59375 41.59375 13.09375 37.609375 10.59375 30.625 
z
M 23.09375 0.390625 
C 10.796875 0.390625 10.796875 18.75 10.796875 22.4375 
C 10.796875 29.625 14.203125 40 23.5 40 
C 25.203125 40 30.09375 40 33.40625 33.125 
C 35.203125 29.21875 35.203125 25.140625 35.203125 20.140625 
C 35.203125 14.75 35.203125 10.78125 33.09375 6.78125 
C 30.90625 2.671875 27.703125 0.390625 23.09375 0.390625 
z
" id="CMR17-54"/>
       </defs>
       <use transform="scale(0.996264)" xlink:href="#CMR17-48"/>
       <use transform="translate(45.690477 0)scale(0.996264)" xlink:href="#CMMI12-58"/>
       <use transform="translate(72.787654 0)scale(0.996264)" xlink:href="#CMR17-54"/>
      </g>
     </g>
    </g>
    <g id="xtick_5">
     <g id="line2d_5">
      <g>
       <use style="stroke:#000000;stroke-width:0.8;" x="263.125409" xlink:href="#md039e05780" y="184.58218"/>
      </g>
     </g>
     <g id="text_5">
      <!-- $\mathdefault{0.8}$ -->
      <g transform="translate(256.760369 198.500678)scale(0.1 -0.1)">
       <defs>
        <path d="M 27.203125 35.375 
C 33.5 38.546875 39.90625 43.328125 39.90625 50.984375 
C 39.90625 60.015625 31.09375 65.296875 23 65.296875 
C 13.90625 65.296875 5.90625 58.734375 5.90625 49.6875 
C 5.90625 47.203125 6.5 42.921875 10.40625 39.140625 
C 11.40625 38.15625 15.59375 35.171875 18.296875 33.28125 
C 13.796875 30.984375 3.296875 25.53125 3.296875 14.59375 
C 3.296875 4.359375 13.09375 -2 22.796875 -2 
C 33.5 -2 42.5 5.65625 42.5 15.78125 
C 42.5 24.84375 36.40625 29.015625 32.40625 31.703125 
z
M 14.09375 44.09375 
C 13.296875 44.59375 9.296875 47.671875 9.296875 52.359375 
C 9.296875 58.421875 15.59375 63 22.796875 63 
C 30.703125 63 36.5 57.4375 36.5 50.96875 
C 36.5 41.703125 26.09375 36.421875 25.59375 36.421875 
C 25.5 36.421875 25.40625 36.421875 24.59375 37.03125 
z
M 32.5 23.734375 
C 34 22.640625 38.796875 19.375 38.796875 13.296875 
C 38.796875 5.953125 31.40625 0.390625 23 0.390625 
C 13.90625 0.390625 7 6.84375 7 14.6875 
C 7 22.546875 13.09375 29.09375 20 32.1875 
z
" id="CMR17-56"/>
       </defs>
       <use transform="scale(0.996264)" xlink:href="#CMR17-48"/>
       <use transform="translate(45.690477 0)scale(0.996264)" xlink:href="#CMMI12-58"/>
       <use transform="translate(72.787654 0)scale(0.996264)" xlink:href="#CMR17-56"/>
      </g>
     </g>
    </g>
    <g id="xtick_6">
     <g id="line2d_6">
      <g>
       <use style="stroke:#000000;stroke-width:0.8;" x="313.852681" xlink:href="#md039e05780" y="184.58218"/>
      </g>
     </g>
     <g id="text_6">
      <!-- $\mathdefault{1.0}$ -->
      <g transform="translate(307.487642 198.500678)scale(0.1 -0.1)">
       <defs>
        <path d="M 26.59375 63.40625 
C 26.59375 65.5 26.5 65.5 25.09375 65.5 
C 21.203125 61.1875 15.296875 59.796875 9.703125 59.796875 
C 9.40625 59.796875 8.90625 59.796875 8.796875 59.5 
C 8.703125 59.296875 8.703125 59.09375 8.703125 57 
C 11.796875 57 17 57.59375 21 59.984375 
L 21 7.203125 
C 21 3.6875 20.796875 2.5 12.203125 2.5 
L 9.203125 2.5 
L 9.203125 0 
C 14 0 19 0 23.796875 0 
C 28.59375 0 33.59375 0 38.40625 0 
L 38.40625 2.5 
L 35.40625 2.5 
C 26.796875 2.5 26.59375 3.59375 26.59375 7.15625 
z
" id="CMR17-49"/>
       </defs>
       <use transform="scale(0.996264)" xlink:href="#CMR17-49"/>
       <use transform="translate(45.690477 0)scale(0.996264)" xlink:href="#CMMI12-58"/>
       <use transform="translate(72.787654 0)scale(0.996264)" xlink:href="#CMR17-48"/>
      </g>
     </g>
    </g>
    <g id="text_7">
     <!-- $\tilde{x}$ -->
     <g transform="translate(184.18754 211.356355)scale(0.1 -0.1)">
      <defs>
       <path d="M 37.5 65.375 
C 34.09375 62.1875 32.203125 60.390625 29.09375 60.390625 
C 26.90625 60.390625 25.40625 61.4375 23.296875 62.875 
C 21.296875 64.234375 19.703125 65.375 17.5 65.375 
C 13.90625 65.375 11.40625 62.5625 7.203125 58.09375 
L 8.296875 57 
C 11.703125 60.15625 13.59375 62 16.703125 62 
C 18.90625 62 20.40625 60.9375 22.5 59.5 
C 24.5 58.15625 26.09375 57 28.296875 57 
C 31.90625 57 34.40625 59.8125 38.59375 64.28125 
z
" id="CMR17-126"/>
       <path d="M 47.40625 40.71875 
C 44.203125 40.109375 43 37.71875 43 35.828125 
C 43 33.421875 44.90625 32.625 46.296875 32.625 
C 49.296875 32.625 51.40625 35.21875 51.40625 37.921875 
C 51.40625 42.109375 46.59375 44 42.40625 44 
C 36.296875 44 32.90625 38.015625 32 36.125 
C 29.703125 44 23.5 44 21.703125 44 
C 11.5 44 6.09375 30.9375 6.09375 28.734375 
C 6.09375 28.34375 6.5 27.84375 7.203125 27.84375 
C 8 27.84375 8.203125 28.4375 8.40625 28.84375 
C 11.796875 39.921875 18.5 42.015625 21.40625 42.015625 
C 25.90625 42.015625 26.796875 37.8125 26.796875 35.421875 
C 26.796875 33.234375 26.203125 30.9375 25 26.140625 
L 21.59375 12.46875 
C 20.09375 6.484375 17.203125 1 11.90625 1 
C 11.40625 1 8.90625 1 6.796875 2.296875 
C 10.40625 3 11.203125 5.984375 11.203125 7.1875 
C 11.203125 9.1875 9.703125 10.375 7.796875 10.375 
C 5.40625 10.375 2.796875 8.28125 2.796875 5.09375 
C 2.796875 0.890625 7.5 -1 11.796875 -1 
C 16.59375 -1 20 2.796875 22.09375 6.890625 
C 23.703125 1 28.703125 -1 32.40625 -1 
C 42.59375 -1 48 12.078125 48 14.265625 
C 48 14.765625 47.59375 15.171875 47 15.171875 
C 46.09375 15.171875 46 14.671875 45.703125 13.875 
C 43 5.09375 37.203125 1 32.703125 1 
C 29.203125 1 27.296875 3.59375 27.296875 7.6875 
C 27.296875 9.875 27.703125 11.46875 29.296875 18.0625 
L 32.796875 31.625 
C 34.296875 37.625 37.703125 42.015625 42.296875 42.015625 
C 42.5 42.015625 45.296875 42.015625 47.40625 40.71875 
z
" id="CMMI12-120"/>
      </defs>
      <use transform="translate(7.581509 0.006461)scale(0.996264)" xlink:href="#CMR17-126"/>
      <use transform="scale(0.996264)" xlink:href="#CMMI12-120"/>
     </g>
    </g>
   </g>
   <g id="matplotlib.axis_2">
    <g id="ytick_1">
     <g id="line2d_7">
      <defs>
       <path d="M 0 0 
L -3.5 0 
" id="m256596fb79" style="stroke:#000000;stroke-width:0.8;"/>
      </defs>
      <g>
       <use style="stroke:#000000;stroke-width:0.8;" x="47.534499" xlink:href="#m256596fb79" y="43.045823"/>
      </g>
     </g>
     <g id="text_8">
      <!-- $\mathdefault{−1.0}$ -->
      <g transform="translate(20.055677 46.505073)scale(0.1 -0.1)">
       <defs>
        <path d="M 65.90625 23 
C 67.59375 23 69.40625 23 69.40625 25 
C 69.40625 27 67.59375 27 65.90625 27 
L 11.796875 27 
C 10.09375 27 8.296875 27 8.296875 25 
C 8.296875 23 10.09375 23 11.796875 23 
z
" id="CMSY10-0"/>
       </defs>
       <use transform="scale(0.996264)" xlink:href="#CMSY10-0"/>
       <use transform="translate(77.487468 0)scale(0.996264)" xlink:href="#CMR17-49"/>
       <use transform="translate(123.177945 0)scale(0.996264)" xlink:href="#CMMI12-58"/>
       <use transform="translate(150.275122 0)scale(0.996264)" xlink:href="#CMR17-48"/>
      </g>
     </g>
    </g>
    <g id="ytick_2">
     <g id="line2d_8">
      <g>
       <use style="stroke:#000000;stroke-width:0.8;" x="47.534499" xlink:href="#m256596fb79" y="74.588047"/>
      </g>
     </g>
     <g id="text_9">
      <!-- $\mathdefault{−0.5}$ -->
      <g transform="translate(20.055677 78.047296)scale(0.1 -0.1)">
       <defs>
        <path d="M 11.40625 57.6875 
C 12.40625 57.28125 16.5 56 20.703125 56 
C 30 56 35.09375 61.109375 38 64.0625 
C 38 64.953125 38 65.5 37.40625 65.5 
C 37.296875 65.5 37.09375 65.5 36.296875 65.046875 
C 32.796875 63.40625 28.703125 62.078125 23.703125 62.078125 
C 20.703125 62.078125 16.203125 62.484375 11.296875 64.671875 
C 10.203125 65.171875 10 65.171875 9.90625 65.171875 
C 9.40625 65.171875 9.296875 65.0625 9.296875 63.078125 
L 9.296875 34.421875 
C 9.296875 32.640625 9.296875 32.140625 10.296875 32.140625 
C 10.796875 32.140625 11 32.34375 11.5 33.03125 
C 14.703125 37.515625 19.09375 39.40625 24.09375 39.40625 
C 27.59375 39.40625 35.09375 37.21875 35.09375 20.140625 
C 35.09375 16.953125 35.09375 11.171875 32.09375 6.578125 
C 29.59375 2.484375 25.703125 0.390625 21.40625 0.390625 
C 14.796875 0.390625 8.09375 5 6.296875 12.71875 
C 6.703125 12.609375 7.5 12.421875 7.90625 12.421875 
C 9.203125 12.421875 11.703125 13.125 11.703125 16.21875 
C 11.703125 18.90625 9.796875 20 7.90625 20 
C 5.59375 20 4.09375 18.59375 4.09375 15.796875 
C 4.09375 7.09375 11 -2 21.59375 -2 
C 31.90625 -2 41.703125 6.875 41.703125 19.75 
C 41.703125 31.71875 33.90625 41 24.203125 41 
C 19.09375 41 14.796875 39.109375 11.40625 35.53125 
z
" id="CMR17-53"/>
       </defs>
       <use transform="scale(0.996264)" xlink:href="#CMSY10-0"/>
       <use transform="translate(77.487468 0)scale(0.996264)" xlink:href="#CMR17-48"/>
       <use transform="translate(123.177945 0)scale(0.996264)" xlink:href="#CMMI12-58"/>
       <use transform="translate(150.275122 0)scale(0.996264)" xlink:href="#CMR17-53"/>
      </g>
     </g>
    </g>
    <g id="ytick_3">
     <g id="line2d_9">
      <g>
       <use style="stroke:#000000;stroke-width:0.8;" x="47.534499" xlink:href="#m256596fb79" y="106.130271"/>
      </g>
     </g>
     <g id="text_10">
      <!-- $\mathdefault{0.0}$ -->
      <g transform="translate(27.80442 109.58952)scale(0.1 -0.1)">
       <use transform="scale(0.996264)" xlink:href="#CMR17-48"/>
       <use transform="translate(45.690477 0)scale(0.996264)" xlink:href="#CMMI12-58"/>
       <use transform="translate(72.787654 0)scale(0.996264)" xlink:href="#CMR17-48"/>
      </g>
     </g>
    </g>
    <g id="ytick_4">
     <g id="line2d_10">
      <g>
       <use style="stroke:#000000;stroke-width:0.8;" x="47.534499" xlink:href="#m256596fb79" y="137.672495"/>
      </g>
     </g>
     <g id="text_11">
      <!-- $\mathdefault{0.5}$ -->
      <g transform="translate(27.80442 141.131744)scale(0.1 -0.1)">
       <use transform="scale(0.996264)" xlink:href="#CMR17-48"/>
       <use transform="translate(45.690477 0)scale(0.996264)" xlink:href="#CMMI12-58"/>
       <use transform="translate(72.787654 0)scale(0.996264)" xlink:href="#CMR17-53"/>
      </g>
     </g>
    </g>
    <g id="ytick_5">
     <g id="line2d_11">
      <g>
       <use style="stroke:#000000;stroke-width:0.8;" x="47.534499" xlink:href="#m256596fb79" y="169.214719"/>
      </g>
     </g>
     <g id="text_12">
      <!-- $\mathdefault{1.0}$ -->
      <g transform="translate(27.80442 172.673968)scale(0.1 -0.1)">
       <use transform="scale(0.996264)" xlink:href="#CMR17-49"/>
       <use transform="translate(45.690477 0)scale(0.996264)" xlink:href="#CMMI12-58"/>
       <use transform="translate(72.787654 0)scale(0.996264)" xlink:href="#CMR17-48"/>
      </g>
     </g>
    </g>
    <g id="text_13">
     <!-- $c_p$ -->
     <g transform="translate(13.205282 107.251348)rotate(-90)scale(0.1 -0.1)">
      <defs>
       <path d="M 39.09375 37.984375 
C 37.203125 37.984375 36.296875 37.984375 34.90625 36.796875 
C 34.296875 36.296875 33.203125 34.796875 33.203125 33.203125 
C 33.203125 31.203125 34.703125 30 36.59375 30 
C 39 30 41.703125 31.9375 41.703125 35.8125 
C 41.703125 40.4375 37.09375 44 30.203125 44 
C 17.09375 44 4 29.734375 4 15.5625 
C 4 6.890625 9.40625 -1 19.59375 -1 
C 33.203125 -1 41.796875 9.71875 41.796875 11.03125 
C 41.796875 11.625 41.203125 12.125 40.796875 12.125 
C 40.5 12.125 40.40625 12.03125 39.5 11.140625 
C 33.09375 2.53125 23.59375 1 19.796875 1 
C 12.90625 1 10.703125 6.96875 10.703125 11.9375 
C 10.703125 15.4375 12.40625 25.078125 16 31.859375 
C 18.59375 36.53125 24 41.90625 30.296875 41.90625 
C 31.59375 41.90625 37.09375 41.90625 39.09375 37.984375 
z
" id="CMMI12-99"/>
       <path d="M 4.296875 -12.328125 
C 3.59375 -15.3125 3.203125 -16.109375 -0.90625 -16.109375 
C -2.09375 -16.109375 -3.09375 -16.109375 -3.09375 -18 
C -3.09375 -18.203125 -3 -19 -1.90625 -19 
C -0.59375 -19 0.796875 -19 2.09375 -19 
L 6.40625 -19 
C 8.5 -19 13.59375 -19 15.703125 -19 
C 16.296875 -19 17.5 -19 17.5 -17.203125 
C 17.5 -16.109375 16.796875 -16.109375 15.09375 -16.109375 
C 10.5 -16.109375 10.203125 -15.421875 10.203125 -14.640625 
C 10.203125 -13.453125 14.703125 3.421875 15.296875 5.6875 
C 16.40625 2.890625 19.09375 -1 24.296875 -1 
C 35.59375 -1 47.796875 13.671875 47.796875 28.34375 
C 47.796875 37.515625 42.59375 44 35.09375 44 
C 28.703125 44 23.296875 37.8125 22.203125 36.421875 
C 21.40625 41.40625 17.5 44 13.5 44 
C 10.59375 44 8.296875 42.609375 6.40625 38.8125 
C 4.59375 35.21875 3.203125 29.140625 3.203125 28.734375 
C 3.203125 28.34375 3.59375 27.84375 4.296875 27.84375 
C 5.09375 27.84375 5.203125 27.9375 5.796875 30.234375 
C 7.296875 36.125 9.203125 42.015625 13.203125 42.015625 
C 15.5 42.015625 16.296875 40.421875 16.296875 37.453125 
C 16.296875 35.078125 16 34.078125 15.59375 32.296875 
z
M 21.59375 31.140625 
C 22.296875 33.921875 25.09375 36.828125 26.703125 38.21875 
C 27.796875 39.21875 31.09375 42.015625 34.90625 42.015625 
C 39.296875 42.015625 41.296875 37.625 41.296875 32.4375 
C 41.296875 27.640625 38.5 16.359375 36 11.171875 
C 33.5 5.78125 28.90625 1 24.296875 1 
C 17.5 1 16.40625 9.578125 16.40625 9.984375 
C 16.40625 10.28125 16.59375 11.078125 16.703125 11.578125 
z
" id="CMMI12-112"/>
      </defs>
      <use transform="scale(0.996264)" xlink:href="#CMMI12-99"/>
      <use transform="translate(41.983234 -14.943915)scale(0.697382)" xlink:href="#CMMI12-112"/>
     </g>
    </g>
   </g>
   <g id="line2d_12">
    <path clip-path="url(#p5f1d2908f0)" d="M 60.221099 171.039184 
L 60.37128 155.764409 
L 60.762958 136.002966 
L 61.367778 117.028575 
L 61.869786 106.43654 
L 62.746506 94.660563 
L 63.399639 87.486233 
L 64.854045 77.498856 
L 66.485318 70.209283 
L 67.363089 67.342396 
L 67.817628 65.862346 
L 68.756676 63.495857 
L 69.736745 61.349233 
L 70.757522 59.204516 
L 71.819449 57.400548 
L 72.36637 56.518276 
L 72.923549 55.910331 
L 73.491344 54.876632 
L 74.070273 54.079743 
L 74.65972 53.544507 
L 75.260192 52.682148 
L 77.128951 50.696808 
L 81.180936 47.268121 
L 81.898762 46.842817 
L 83.372591 45.724856 
L 84.128766 45.346647 
L 85.680923 44.328862 
L 86.477114 43.940991 
L 87.287075 43.414179 
L 93.358779 40.598352 
L 102.291007 37.391357 
L 105.578211 36.441971 
L 111.432425 34.988984 
L 113.912464 34.532345 
L 116.475356 33.932619 
L 120.480762 33.283212 
L 123.262425 32.778495 
L 133.745487 31.504709 
L 143.95678 30.75086 
L 146.782955 30.600703 
L 151.021835 30.513893 
L 152.434663 30.786639 
L 153.847431 31.979838 
L 155.260129 35.909803 
L 156.67274 43.64585 
L 158.08527 52.873021 
L 159.497731 60.801575 
L 160.910106 66.45848 
L 162.322376 70.305828 
L 163.734565 73.214013 
L 165.146672 75.470407 
L 166.558678 77.273378 
L 167.970578 78.775286 
L 169.382396 80.033322 
L 170.794116 81.073864 
L 172.205719 81.955079 
L 175.028646 83.330106 
L 177.851141 84.335543 
L 180.673247 85.102255 
L 184.905579 86.031984 
L 196.187064 88.111012 
L 211.687847 91.13813 
L 225.768293 94.146179 
L 246.86929 98.982632 
L 259.518417 102.094367 
L 270.694317 105.063795 
L 280.821252 108.020149 
L 288.918501 110.639711 
L 295.999834 113.190778 
L 302.066368 115.619971 
L 307.119363 117.855367 
L 312.169795 120.202511 
L 313.179558 120.332612 
L 313.852681 119.568762 
L 313.852681 117.811496 
L 313.852681 120.004991 
L 313.852681 119.168942 
" style="fill:none;stroke:#1f77b4;stroke-linecap:square;stroke-width:1.5;"/>
   </g>
   <g id="line2d_13">
    <path clip-path="url(#p5f1d2908f0)" d="M 60.244244 175.676111 
L 60.37128 177.169453 
L 60.60669 174.454554 
L 61.869786 155.009769 
L 62.746506 145.382967 
L 63.399639 139.375622 
L 64.854045 129.605659 
L 66.485318 121.904804 
L 68.282194 115.696483 
L 69.241672 112.82294 
L 71.819449 106.984902 
L 73.491344 103.919813 
L 75.871961 100.483938 
L 78.431972 97.425314 
L 79.782259 96.076175 
L 81.180936 94.729879 
L 84.898114 91.824347 
L 89.801405 88.976417 
L 95.229209 86.698691 
L 99.163437 85.521126 
L 106.71076 84.025322 
L 109.032655 83.742006 
L 111.432425 83.512414 
L 121.860213 83.192829 
L 130.627309 83.623161 
L 141.130437 84.681081 
L 162.322376 87.644016 
L 177.851141 90.132712 
L 246.86929 101.421998 
L 259.518417 103.693265 
L 270.694317 105.911872 
L 279.808793 107.961608 
L 286.894591 109.788264 
L 292.965411 111.582281 
L 298.022362 113.307365 
L 302.066368 114.897768 
L 306.108953 116.747837 
L 309.139853 118.374995 
L 312.169795 120.168911 
L 313.179558 120.347888 
L 313.852681 119.402734 
L 313.852681 116.773593 
L 313.852681 120.018747 
L 313.852681 118.735763 
" style="fill:none;stroke:#1f77b4;stroke-dasharray:5.55,2.4;stroke-dashoffset:0;stroke-width:1.5;"/>
   </g>
   <g id="line2d_14">
    <path clip-path="url(#p5f1d2908f0)" d="M 60.221099 171.041219 
L 60.37128 155.778093 
L 60.762958 135.987082 
L 61.367778 117.177701 
L 61.869786 106.591325 
L 62.746506 94.747378 
L 63.399639 87.541908 
L 64.854045 77.59485 
L 66.485318 70.281113 
L 68.756676 63.557581 
L 69.241672 62.298246 
L 72.36637 56.558077 
L 72.923549 55.896794 
L 74.070273 54.077757 
L 74.65972 53.545525 
L 75.260192 52.675146 
L 77.128951 50.703471 
L 78.431972 49.553576 
L 79.101193 48.927768 
L 79.782259 48.480848 
L 81.180936 47.305397 
L 81.898762 46.86391 
L 83.372591 45.782475 
L 84.898114 44.828718 
L 88.111044 43.05886 
L 88.949028 42.695414 
L 90.668401 41.825904 
L 91.55007 41.474745 
L 92.446779 40.987351 
L 101.23109 37.82547 
L 103.36867 37.166017 
L 104.464292 36.903879 
L 106.71076 36.199567 
L 107.862142 35.993125 
L 111.432425 35.058611 
L 115.183378 34.282704 
L 116.475356 33.98113 
L 119.12371 33.606847 
L 123.262425 32.846012 
L 130.627309 31.869736 
L 141.130437 30.962164 
L 149.608936 30.623377 
L 151.021835 30.654005 
L 152.434663 31.137521 
L 153.847431 33.108371 
L 155.260129 38.321187 
L 158.08527 55.381351 
L 159.497731 62.27774 
L 160.910106 67.210348 
L 162.322376 70.723953 
L 163.734565 73.414946 
L 165.146672 75.523938 
L 166.558678 77.236206 
L 167.970578 78.678845 
L 169.382396 79.898662 
L 170.794116 80.915907 
L 173.617229 82.52662 
L 176.439949 83.689403 
L 179.262248 84.590524 
L 183.494899 85.625498 
L 191.957313 87.275771 
L 208.8705 90.551794 
L 224.360732 93.854399 
L 242.650976 98.014848 
L 258.113395 101.770258 
L 269.681357 104.808293 
L 279.808793 107.716503 
L 287.906602 110.281233 
L 294.988441 112.75313 
L 301.055501 115.082612 
L 307.119363 117.642285 
L 312.169795 119.86551 
L 313.179558 119.996525 
L 313.852681 119.281323 
L 313.852681 117.696907 
L 313.852681 119.698807 
L 313.852681 118.921632 
" style="fill:none;stroke:#ff7f0e;stroke-linecap:square;stroke-width:1.5;"/>
   </g>
   <g id="line2d_15">
    <path clip-path="url(#p5f1d2908f0)" d="M 60.244244 175.685699 
L 60.37128 177.164169 
L 60.60669 174.443616 
L 61.869786 154.982819 
L 62.746506 145.363451 
L 63.399639 139.359358 
L 64.854045 129.616526 
L 66.485318 121.89872 
L 68.282194 115.690896 
L 69.241672 112.820525 
L 71.819449 106.977012 
L 73.491344 103.910743 
L 75.871961 100.473866 
L 78.431972 97.420358 
L 79.782259 96.066059 
L 81.180936 94.723252 
L 84.898114 91.820683 
L 88.949028 89.458505 
L 90.668401 88.59306 
L 94.286136 87.089842 
L 96.188302 86.403138 
L 102.291007 84.778959 
L 109.032655 83.742596 
L 111.432425 83.510808 
L 121.860213 83.193587 
L 130.627309 83.62241 
L 141.130437 84.677047 
L 162.322376 87.636674 
L 179.262248 90.352638 
L 190.547192 92.184869 
L 211.687847 95.620252 
L 244.057178 100.908957 
L 259.518417 103.652456 
L 270.694317 105.865116 
L 279.808793 107.904886 
L 286.894591 109.718501 
L 292.965411 111.494276 
L 298.022362 113.195518 
L 302.066368 114.755086 
L 306.108953 116.558132 
L 309.139853 118.12891 
L 312.169795 119.835241 
L 313.179558 120.009785 
L 313.852681 119.270503 
L 313.852681 119.319716 
L 313.852681 116.742406 
L 313.852681 119.711113 
L 313.852681 118.494714 
" style="fill:none;stroke:#ff7f0e;stroke-dasharray:5.55,2.4;stroke-dashoffset:0;stroke-width:1.5;"/>
   </g>
   <g id="line2d_16">
    <path clip-path="url(#p5f1d2908f0)" d="M 60.221099 171.054024 
L 60.37128 155.828251 
L 60.762958 136.019868 
L 61.367778 117.18502 
L 61.869786 106.596269 
L 62.746506 94.788806 
L 63.399639 87.552398 
L 64.854045 77.601768 
L 66.485318 70.290481 
L 68.756676 63.587077 
L 69.241672 62.324117 
L 72.36637 56.598052 
L 72.923549 55.924876 
L 74.070273 54.113296 
L 74.65972 53.574714 
L 75.260192 52.705793 
L 77.128951 50.717734 
L 78.431972 49.568837 
L 79.101193 48.931469 
L 79.782259 48.481006 
L 81.180936 47.302275 
L 81.898762 46.860511 
L 82.629182 46.247747 
L 85.680923 44.368169 
L 88.949028 42.677272 
L 90.668401 41.808146 
L 91.55007 41.456771 
L 92.446779 40.968394 
L 101.23109 37.80811 
L 103.36867 37.150507 
L 104.464292 36.888848 
L 106.71076 36.185605 
L 109.032655 35.65759 
L 111.432425 35.042302 
L 115.183378 34.268601 
L 116.475356 33.971225 
L 119.12371 33.592008 
L 123.262425 32.833099 
L 132.173709 31.711799 
L 139.717228 31.062255 
L 143.95678 30.816089 
L 148.195973 30.661103 
L 151.021835 30.675585 
L 152.434663 31.233929 
L 153.847431 33.458572 
L 155.260129 39.018384 
L 158.08527 56.025922 
L 159.497731 62.670485 
L 160.910106 67.420421 
L 162.322376 70.844894 
L 163.734565 73.476466 
L 165.146672 75.543166 
L 166.558678 77.227849 
L 167.970578 78.651437 
L 169.382396 79.858597 
L 170.794116 80.868582 
L 173.617229 82.470572 
L 176.439949 83.634167 
L 179.262248 84.540837 
L 183.494899 85.585427 
L 191.957313 87.257372 
L 210.279225 90.841652 
L 229.990388 95.104796 
L 249.680957 99.682617 
L 264.615659 103.440017 
L 275.758512 106.51168 
L 283.858246 108.94842 
L 291.953775 111.628453 
L 299.033499 114.2202 
L 305.098456 116.663769 
L 312.169795 119.698101 
L 313.179558 119.8341 
L 313.852681 119.153921 
L 313.852681 117.616395 
L 313.852681 119.55443 
L 313.852681 118.788777 
" style="fill:none;stroke:#2ca02c;stroke-linecap:square;stroke-width:1.5;"/>
   </g>
   <g id="line2d_17">
    <path clip-path="url(#p5f1d2908f0)" d="M 60.244244 175.673401 
L 60.37128 177.159936 
L 60.60669 174.443387 
L 61.869786 155.00808 
L 62.746506 145.40005 
L 63.399639 139.39917 
L 64.854045 129.643825 
L 66.485318 121.918853 
L 68.282194 115.713703 
L 69.241672 112.847926 
L 71.819449 107.004794 
L 73.491344 103.938325 
L 75.871961 100.499706 
L 78.431972 97.446738 
L 79.782259 96.088351 
L 81.180936 94.744608 
L 84.898114 91.843151 
L 88.949028 89.481781 
L 90.668401 88.614065 
L 94.286136 87.112697 
L 96.188302 86.425896 
L 102.291007 84.803279 
L 109.032655 83.769356 
L 111.432425 83.536573 
L 121.860213 83.221194 
L 130.627309 83.647787 
L 141.130437 84.697494 
L 162.322376 87.64905 
L 179.262248 90.359788 
L 190.547192 92.188567 
L 213.096378 95.848849 
L 234.211524 99.270825 
L 249.680957 101.87795 
L 264.615659 104.627513 
L 275.758512 106.964983 
L 283.858246 108.900789 
L 290.942065 110.852774 
L 295.999834 112.452416 
L 301.055501 114.292371 
L 305.098456 116.001212 
L 308.129652 117.473521 
L 312.169795 119.667432 
L 313.179558 119.847727 
L 313.852681 118.993141 
L 313.852681 116.700757 
L 313.852681 119.565944 
L 313.852681 118.371873 
" style="fill:none;stroke:#2ca02c;stroke-dasharray:5.55,2.4;stroke-dashoffset:0;stroke-width:1.5;"/>
   </g>
   <g id="patch_3">
    <path d="M 47.534499 184.58218 
L 47.534499 21.50218 
" style="fill:none;stroke:#000000;stroke-linecap:square;stroke-linejoin:miter;stroke-width:0.8;"/>
   </g>
   <g id="patch_4">
    <path d="M 326.534499 184.58218 
L 326.534499 21.50218 
" style="fill:none;stroke:#000000;stroke-linecap:square;stroke-linejoin:miter;stroke-width:0.8;"/>
   </g>
   <g id="patch_5">
    <path d="M 47.534499 184.58218 
L 326.534499 184.58218 
" style="fill:none;stroke:#000000;stroke-linecap:square;stroke-linejoin:miter;stroke-width:0.8;"/>
   </g>
   <g id="patch_6">
    <path d="M 47.534499 21.50218 
L 326.534499 21.50218 
" style="fill:none;stroke:#000000;stroke-linecap:square;stroke-linejoin:miter;stroke-width:0.8;"/>
   </g>
   <g id="text_14">
    <!-- $\alpha = 2^\circ$, SA-IDDES model -->
    <g transform="translate(124.062317 15.50218)scale(0.12 -0.12)">
     <defs>
      <path d="M 46.296875 25.25 
C 46.296875 34.921875 40.796875 43.984375 30.203125 43.984375 
C 17.09375 43.984375 4 29.71875 4 15.5625 
C 4 6.890625 9.40625 -1 19.59375 -1 
C 25.796875 -1 33.203125 1.390625 40.296875 7.375 
C 41.703125 1.796875 44.796875 -1 49.09375 -1 
C 54.5 -1 57.203125 4.59375 57.203125 5.890625 
C 57.203125 6.78125 56.5 6.78125 56.203125 6.78125 
C 55.40625 6.78125 55.296875 6.484375 55 5.6875 
C 54.09375 3.1875 51.796875 1 49.40625 1 
C 46.296875 1 46.296875 7.375 46.296875 13.46875 
C 56.5 25.640625 58.90625 38.21875 58.90625 38.3125 
C 58.90625 39.21875 58.09375 39.21875 57.796875 39.21875 
C 56.90625 39.21875 56.796875 38.921875 56.40625 37.125 
C 55.09375 32.734375 52.5 24.953125 46.296875 16.765625 
z
M 40 9.78125 
C 31.203125 1.890625 23.296875 1 19.796875 1 
C 12.703125 1 10.703125 7.28125 10.703125 11.96875 
C 10.703125 16.25 12.90625 26.4375 16 31.9375 
C 20.09375 38.921875 25.703125 42 30.203125 42 
C 39.90625 42 39.90625 29.328125 39.90625 20.953125 
C 39.90625 18.46875 39.796875 15.875 39.796875 13.375 
C 39.796875 11.375 39.90625 10.875 40 9.78125 
z
" id="CMMI12-11"/>
      <path d="M 64.296875 31.515625 
C 65.796875 31.515625 67.296875 31.515625 67.296875 33.203125 
C 67.296875 35 65.59375 35 63.90625 35 
L 8 35 
C 6.296875 35 4.59375 35 4.59375 33.203125 
C 4.59375 31.515625 6.09375 31.515625 7.59375 31.515625 
z
M 63.90625 14 
C 65.59375 14 67.296875 14 67.296875 15.796875 
C 67.296875 17.484375 65.796875 17.484375 64.296875 17.484375 
L 7.59375 17.484375 
C 6.09375 17.484375 4.59375 17.484375 4.59375 15.796875 
C 4.59375 14 6.296875 14 8 14 
z
" id="CMR17-61"/>
      <path d="M 44.40625 25 
C 44.40625 35.578125 35.5 44.1875 25 44.1875 
C 14.203125 44.1875 5.5 35.375 5.5 25 
C 5.5 14.53125 14.203125 5.8125 25 5.8125 
C 35.5 5.8125 44.40625 14.421875 44.40625 25 
z
M 25 9.8125 
C 16.296875 9.8125 9.5 16.71875 9.5 25 
C 9.5 33.28125 16.40625 40.1875 25 40.1875 
C 33.296875 40.1875 40.40625 33.46875 40.40625 25 
C 40.40625 16.53125 33.296875 9.8125 25 9.8125 
z
" id="CMSY10-14"/>
      <path d="M 17 0.09375 
L 17 7.96875 
L 9 7.96875 
L 9 0 
L 11.5 0 
L 8.90625 -12.5 
L 12.90625 -12.5 
z
" id="CMSS17-44"/>
      <path d="M 43.703125 65.140625 
C 39.296875 67.71875 34.5 70 26.40625 70 
C 13.5 70 5.203125 60.609375 5.203125 51.03125 
C 5.203125 47.265625 6.296875 43.015625 10.203125 38.671875 
C 14.09375 34.3125 18.5 33.140625 24.09375 31.765625 
C 26.40625 31.15625 30.296875 30.0625 31 29.78125 
C 36.59375 27.609375 39.296875 22.5625 39.296875 17.8125 
C 39.296875 11.59375 34.40625 4.96875 25.703125 4.96875 
C 22.703125 4.96875 13.90625 4.96875 5.59375 12.796875 
L 4.203125 4.96875 
C 12.40625 -1 21.296875 -2 25.796875 -2 
C 38.09375 -2 46.90625 7.625 46.90625 18.53125 
C 46.90625 22.5 45.703125 27.546875 41.5 32.203125 
C 37.40625 36.671875 33.796875 37.65625 25.59375 39.828125 
C 20.90625 41.03125 17.90625 41.828125 15.40625 44.890625 
C 13.703125 47.078125 12.796875 49.15625 12.796875 51.828125 
C 12.796875 57.390625 17.59375 63.4375 26.40625 63.4375 
C 30.796875 63.4375 36.5 62.53125 42.296875 57.1875 
z
" id="CMSS17-83"/>
      <path d="M 35.5 69 
L 26.90625 69 
L 2.59375 0 
L 10.203125 0 
L 17.203125 20 
L 44 20 
L 51.09375 0 
L 59.796875 0 
z
M 42.09375 25.578125 
L 19.09375 25.578125 
C 23.90625 39.5 29.90625 56.84375 30.59375 61.328125 
L 30.703125 61.328125 
C 31.40625 57.234375 33.40625 51.265625 35.09375 46.1875 
z
" id="CMSS17-65"/>
      <path d="M 26 19 
L 26 24.765625 
L 1 24.765625 
L 1 19 
z
" id="CMSS17-45"/>
      <path d="M 17.09375 69 
L 8.703125 69 
L 8.703125 0 
L 17.09375 0 
z
" id="CMSS17-73"/>
      <path d="M 8.90625 69 
L 8.90625 0 
L 33.5 0 
C 49.90625 0 62.5 15.3125 62.5 33.90625 
C 62.5 53.09375 49.90625 69 33.5 69 
z
M 17.09375 5.578125 
L 17.09375 63.421875 
L 31.296875 63.421875 
C 44.703125 63.421875 54.296875 51.203125 54.296875 33.90625 
C 54.296875 17.296875 44.796875 5.578125 31.296875 5.578125 
z
" id="CMSS17-68"/>
      <path d="M 30.59375 6.765625 
C 22.59375 6.765625 19 6.765625 17.203125 6.765625 
L 17.203125 32.921875 
L 48.203125 32.921875 
L 48.203125 39 
L 17.203125 39 
L 17.203125 62.640625 
L 30.09375 62.640625 
C 31.296875 62.640625 32.5 62.640625 33.703125 62.640625 
L 50.796875 62.640625 
L 50.796875 69 
L 8.796875 69 
L 8.796875 0 
L 52.09375 0 
L 52.09375 6.765625 
z
" id="CMSS17-69"/>
      <path d="M 67 29.328125 
C 67 36.0625 65.296875 44 54.09375 44 
C 46.59375 44 42.09375 39.3125 40.09375 36.421875 
C 38.296875 41.71875 34.09375 44 28.09375 44 
C 21.296875 44 17 40.125 14.703125 37.328125 
L 14.703125 43.09375 
L 7.40625 43.09375 
L 7.40625 0 
L 15 0 
L 15 24.359375 
C 15 30.296875 17.203125 37.9375 24.296875 37.9375 
C 33.40625 37.9375 33.40625 31.5 33.40625 28.578125 
L 33.40625 0 
L 41 0 
L 41 24.359375 
C 41 30.296875 43.203125 37.9375 50.296875 37.9375 
C 59.40625 37.9375 59.40625 31.5 59.40625 28.578125 
L 59.40625 0 
L 67 0 
z
" id="CMSS17-109"/>
      <path d="M 44.203125 21.1875 
C 44.203125 34 34.703125 44 23.5 44 
C 12 44 2.703125 33.703125 2.703125 21.1875 
C 2.703125 8.5 12.296875 -1 23.40625 -1 
C 34.796875 -1 44.203125 8.796875 44.203125 21.1875 
z
M 23.5 5.265625 
C 16.40625 5.265625 10.296875 11.078125 10.296875 22 
C 10.296875 33.609375 17.40625 37.921875 23.40625 37.921875 
C 29.90625 37.921875 36.59375 33.21875 36.59375 22 
C 36.59375 10.671875 30.09375 5.265625 23.5 5.265625 
z
" id="CMSS17-111"/>
      <path d="M 40.796875 69 
L 33.40625 69 
L 33.40625 38.09375 
C 30.296875 40.671875 25.203125 43.0625 19.59375 43.0625 
C 10.5 43.0625 3.296875 33.296875 3.296875 21.046875 
C 3.296875 8.78125 10.40625 -1 19.296875 -1 
C 26.203125 -1 30.796875 2.6875 33.203125 4.78125 
L 33.203125 -0.203125 
L 40.796875 -0.203125 
z
M 33.203125 13.0625 
C 33.203125 11.671875 33.203125 10.203125 30.09375 7.53125 
C 28.09375 5.859375 25.703125 5.078125 23.40625 5.078125 
C 18 5.078125 10.90625 9 10.90625 20.9375 
C 10.90625 33.34375 18.90625 37 24.40625 37 
C 28.09375 37 31.09375 35.21875 33.203125 32.265625 
z
" id="CMSS17-100"/>
      <path d="M 39.09375 21.515625 
C 39.09375 24.84375 38.90625 31.296875 35.703125 36.640625 
C 32.203125 42.390625 26.5 44 22.203125 44 
C 11.796875 44 3 34.1875 3 21.484375 
C 3 9.09375 12.09375 -1 23.59375 -1 
C 28.09375 -1 33.59375 0.296875 38.59375 3.875 
C 38.59375 4.28125 38.40625 6.46875 38.296875 6.5625 
C 38.296875 6.765625 38 9.84375 38 10.25 
C 33.203125 6.359375 27.703125 5.078125 23.703125 5.078125 
C 17.296875 5.078125 10.40625 10.421875 10.09375 21.515625 
z
M 10.90625 27 
C 12.203125 32.5625 16.59375 37.828125 22.203125 37.828125 
C 23.703125 37.828125 30.703125 37.828125 32.5 27 
z
" id="CMSS17-101"/>
      <path d="M 14.796875 69 
L 7.40625 69 
L 7.40625 0 
L 14.796875 0 
z
" id="CMSS17-108"/>
     </defs>
     <use transform="scale(0.996264)" xlink:href="#CMMI12-11"/>
     <use transform="translate(90.355032 0)scale(0.996264)" xlink:href="#CMR17-61"/>
     <use transform="translate(189.743829 0)scale(0.996264)" xlink:href="#CMR17-50"/>
     <use transform="translate(235.434306 36.153639)scale(0.697382)" xlink:href="#CMSY10-14"/>
     <use transform="translate(270.801648 0)scale(0.996264)" xlink:href="#CMSS17-44"/>
     <use transform="translate(328.054965 0)scale(0.996264)" xlink:href="#CMSS17-83"/>
     <use transform="translate(380.103482 0)scale(0.996264)" xlink:href="#CMSS17-65"/>
     <use transform="translate(442.321336 0)scale(0.996264)" xlink:href="#CMSS17-45"/>
     <use transform="translate(473.550449 0)scale(0.996264)" xlink:href="#CMSS17-73"/>
     <use transform="translate(499.334375 0)scale(0.996264)" xlink:href="#CMSS17-68"/>
     <use transform="translate(566.877216 0)scale(0.996264)" xlink:href="#CMSS17-68"/>
     <use transform="translate(634.420058 0)scale(0.996264)" xlink:href="#CMSS17-69"/>
     <use transform="translate(690.312071 0)scale(0.996264)" xlink:href="#CMSS17-83"/>
     <use transform="translate(773.5897 0)scale(0.996264)" xlink:href="#CMSS17-109"/>
     <use transform="translate(847.818955 0)scale(0.996264)" xlink:href="#CMSS17-111"/>
     <use transform="translate(897.265017 0)scale(0.996264)" xlink:href="#CMSS17-100"/>
     <use transform="translate(945.46996 0)scale(0.996264)" xlink:href="#CMSS17-101"/>
     <use transform="translate(987.108782 0)scale(0.996264)" xlink:href="#CMSS17-108"/>
    </g>
   </g>
   <g id="legend_1">
    <g id="patch_7">
     <path d="M 117.04966 179.58218 
L 257.019339 179.58218 
Q 259.019339 179.58218 259.019339 177.58218 
L 259.019339 134.690314 
Q 259.019339 132.690314 257.019339 132.690314 
L 117.04966 132.690314 
Q 115.04966 132.690314 115.04966 134.690314 
L 115.04966 177.58218 
Q 115.04966 179.58218 117.04966 179.58218 
z
" style="fill:#ffffff;opacity:0.8;stroke:#cccccc;stroke-linejoin:miter;"/>
    </g>
    <g id="line2d_18">
     <path d="M 119.04966 140.788751 
L 139.04966 140.788751 
" style="fill:none;stroke:#1f77b4;stroke-linecap:square;stroke-width:1.5;"/>
    </g>
    <g id="line2d_19"/>
    <g id="text_15">
     <!-- ref. 0 -->
     <g transform="translate(147.04966 144.288751)scale(0.1 -0.1)">
      <defs>
       <path d="M 14.90625 21.296875 
C 14.90625 30.703125 21.796875 37 30.59375 37 
L 30.59375 43.578125 
C 24.203125 43.578125 18.203125 40.390625 14.59375 35.203125 
L 14.59375 43.09375 
L 7.5 43.09375 
L 7.5 0 
L 14.90625 0 
z
" id="CMSS17-114"/>
       <path d="M 16.796875 37 
L 26.90625 37 
L 26.90625 42.765625 
L 16.59375 42.765625 
L 16.59375 55.609375 
C 16.59375 62.71875 22 63.9375 25.09375 63.9375 
C 26.09375 63.9375 28.90625 63.9375 32.5 62.640625 
L 32.5 69.203125 
C 30.203125 69.703125 27.40625 70 25.203125 70 
C 15.90625 70 9.40625 62.390625 9.40625 52.484375 
L 9.40625 42.765625 
L 2.5 42.765625 
L 2.5 37 
L 9.40625 37 
L 9.40625 0 
L 16.796875 0 
z
" id="CMSS17-102"/>
       <path d="M 17 7.96875 
L 9 7.96875 
L 9 0 
L 17 0 
z
" id="CMSS17-46"/>
       <path d="M 43.09375 31.9375 
C 43.09375 37.578125 43 48.078125 38.90625 56.1875 
C 34.796875 64 28.203125 66.078125 23.5 66.078125 
C 16.703125 66.078125 10.90625 62.109375 7.90625 55.78125 
C 4.703125 49.15625 3.796875 42.328125 3.796875 31.9375 
C 3.796875 24.828125 4.09375 16.109375 7.703125 8.484375 
C 11.796875 0.078125 18.703125 -2 23.40625 -2 
C 29.59375 -2 35.59375 1.265625 39 8.09375 
C 42.5 15.21875 43.09375 23.03125 43.09375 31.9375 
z
M 23.40625 4.078125 
C 15.796875 4.078125 13.5 12.671875 12.796875 15.546875 
C 11.59375 20.46875 11.40625 25.21875 11.40625 33.03125 
C 11.40625 39.15625 11.40625 46.0625 13.296875 51.515625 
C 15.59375 57.828125 19.59375 60 23.40625 60 
C 30.796875 60 33.203125 52.6875 34 50.125 
C 35.5 44.890625 35.5 38.765625 35.5 33.03125 
C 35.5 23.84375 35.5 4.078125 23.40625 4.078125 
z
" id="CMSS17-48"/>
      </defs>
      <use transform="scale(0.996264)" xlink:href="#CMSS17-114"/>
      <use transform="translate(31.909773 0)scale(0.996264)" xlink:href="#CMSS17-101"/>
      <use transform="translate(73.548595 0)scale(0.996264)" xlink:href="#CMSS17-102"/>
      <use transform="translate(102.175253 0)scale(0.996264)" xlink:href="#CMSS17-46"/>
      <use transform="translate(169.838265 0)scale(0.996264)" xlink:href="#CMSS17-48"/>
     </g>
    </g>
    <g id="line2d_20">
     <path d="M 119.04966 155.466876 
L 139.04966 155.466876 
" style="fill:none;stroke:#ff7f0e;stroke-linecap:square;stroke-width:1.5;"/>
    </g>
    <g id="line2d_21"/>
    <g id="text_16">
     <!-- ref. 1 -->
     <g transform="translate(147.04966 158.966876)scale(0.1 -0.1)">
      <defs>
       <path d="M 28.40625 67 
L 26.5 67 
C 21.09375 61.5625 14.796875 60.78125 8.40625 60.78125 
L 8.40625 55 
C 11.296875 55 16 55 20.703125 57.296875 
L 20.703125 5.765625 
L 8.90625 5.765625 
L 8.90625 0 
L 40.203125 0 
L 40.203125 5.765625 
L 28.40625 5.765625 
z
" id="CMSS17-49"/>
      </defs>
      <use transform="scale(0.996264)" xlink:href="#CMSS17-114"/>
      <use transform="translate(31.909773 0)scale(0.996264)" xlink:href="#CMSS17-101"/>
      <use transform="translate(73.548595 0)scale(0.996264)" xlink:href="#CMSS17-102"/>
      <use transform="translate(102.175253 0)scale(0.996264)" xlink:href="#CMSS17-46"/>
      <use transform="translate(169.838265 0)scale(0.996264)" xlink:href="#CMSS17-49"/>
     </g>
    </g>
    <g id="line2d_22">
     <path d="M 119.04966 170.145001 
L 139.04966 170.145001 
" style="fill:none;stroke:#2ca02c;stroke-linecap:square;stroke-width:1.5;"/>
    </g>
    <g id="line2d_23"/>
    <g id="text_17">
     <!-- ref. 2 -->
     <g transform="translate(147.04966 173.645001)scale(0.1 -0.1)">
      <defs>
       <path d="M 25.796875 21.203125 
C 28.59375 24.078125 32.796875 27.5625 35.703125 31.046875 
C 38.5 34.4375 42.203125 39.234375 42.203125 46.203125 
C 42.203125 57.140625 34.796875 67 22.203125 67 
C 12.296875 67 6.59375 60.828125 3.90625 51.15625 
L 7.796875 45.765625 
C 10 54.84375 13.09375 60.625 20.90625 60.625 
C 29.5 60.625 34.296875 53.640625 34.296875 45.96875 
C 34.296875 36.796875 27.296875 29.703125 22 24.421875 
C 16.09375 18.546875 10.296875 12.5625 4.703125 6.375 
L 4.703125 0 
L 42.203125 0 
L 42.203125 6.765625 
L 25.203125 6.765625 
C 24 6.765625 22.796875 6.765625 21.59375 6.765625 
L 11.59375 6.765625 
L 11.59375 6.859375 
z
" id="CMSS17-50"/>
      </defs>
      <use transform="scale(0.996264)" xlink:href="#CMSS17-114"/>
      <use transform="translate(31.909773 0)scale(0.996264)" xlink:href="#CMSS17-101"/>
      <use transform="translate(73.548595 0)scale(0.996264)" xlink:href="#CMSS17-102"/>
      <use transform="translate(102.175253 0)scale(0.996264)" xlink:href="#CMSS17-46"/>
      <use transform="translate(169.838265 0)scale(0.996264)" xlink:href="#CMSS17-50"/>
     </g>
    </g>
    <g id="PathCollection_1">
     <path d="M 200.10216 143.600243 
C 200.615723 143.600243 201.108322 143.396202 201.471466 143.033058 
C 201.834611 142.669914 202.038651 142.177315 202.038651 141.663751 
C 202.038651 141.150188 201.834611 140.657589 201.471466 140.294445 
C 201.108322 139.931301 200.615723 139.72726 200.10216 139.72726 
C 199.588596 139.72726 199.095998 139.931301 198.732853 140.294445 
C 198.369709 140.657589 198.165668 141.150188 198.165668 141.663751 
C 198.165668 142.177315 198.369709 142.669914 198.732853 143.033058 
C 199.095998 143.396202 199.588596 143.600243 200.10216 143.600243 
z
" style="fill:none;stroke:#000000;stroke-width:1.5;"/>
    </g>
    <g id="text_18">
     <!-- exp., up -->
     <g transform="translate(218.10216 144.288751)scale(0.1 -0.1)">
      <defs>
       <path d="M 24.796875 22.09375 
L 41.5 42.796875 
L 32.796875 42.796875 
L 21.296875 27.765625 
L 9.40625 42.796875 
L 0.5 42.796875 
L 17.796875 22.09375 
L 0 0 
L 8.796875 0 
L 21.296875 17.515625 
L 34.296875 0 
L 43.09375 0 
z
" id="CMSS17-120"/>
       <path d="M 15.09375 5.203125 
C 18.40625 2.015625 22.90625 -0.078125 27.703125 -0.078125 
C 37 -0.078125 45 9.421875 45 22.0625 
C 45 33.734375 39 44 30.40625 44 
C 25.40625 44 19.40625 42.21875 14.90625 38.625 
L 14.90625 43.203125 
L 7.5 43.203125 
L 7.5 -19 
L 15.09375 -19 
z
M 15.09375 32.8125 
C 15.90625 34 19.296875 37.734375 24.796875 37.734375 
C 31.796875 37.734375 37.40625 30.625 37.40625 22.0625 
C 37.40625 12.296875 30.59375 6 23.90625 6 
C 21.90625 6 19.796875 6.484375 17.796875 8.171875 
C 15.09375 10.53125 15.09375 12 15.09375 13.390625 
z
" id="CMSS17-112"/>
       <path d="M 40.90625 42.796875 
L 33.296875 42.796875 
L 33.296875 15.1875 
C 33.296875 7.78125 27.90625 4.78125 22.203125 4.78125 
C 15.59375 4.78125 15 6.984375 15 11.078125 
L 15 42.796875 
L 7.40625 42.796875 
L 7.40625 10.59375 
C 7.40625 2.796875 10.09375 -1 17 -1 
C 20.40625 -1 28.09375 -0.203125 33.5 4.78125 
L 33.5 0 
L 40.90625 0 
z
" id="CMSS17-117"/>
      </defs>
      <use transform="scale(0.996264)" xlink:href="#CMSS17-101"/>
      <use transform="translate(41.638822 0)scale(0.996264)" xlink:href="#CMSS17-120"/>
      <use transform="translate(84.638964 0)scale(0.996264)" xlink:href="#CMSS17-112"/>
      <use transform="translate(132.843907 0)scale(0.996264)" xlink:href="#CMSS17-46"/>
      <use transform="translate(158.868112 0)scale(0.996264)" xlink:href="#CMSS17-44"/>
      <use transform="translate(216.121429 0)scale(0.996264)" xlink:href="#CMSS17-117"/>
      <use transform="translate(264.326373 0)scale(0.996264)" xlink:href="#CMSS17-112"/>
     </g>
    </g>
    <g id="PathCollection_2">
     <defs>
      <path d="M -1.936492 1.936492 
L 1.936492 -1.936492 
M -1.936492 -1.936492 
L 1.936492 1.936492 
" id="me48d20d8e3" style="stroke:#000000;stroke-width:1.5;"/>
     </defs>
     <g>
      <use style="stroke:#000000;stroke-width:1.5;" x="200.10216" xlink:href="#me48d20d8e3" y="156.341876"/>
     </g>
    </g>
    <g id="text_19">
     <!-- exp., low -->
     <g transform="translate(218.10216 158.966876)scale(0.1 -0.1)">
      <defs>
       <path d="M 62.703125 43 
L 55.09375 43 
L 49.796875 25.015625 
C 48.703125 21.21875 45.59375 10.703125 45.203125 5.796875 
L 45.09375 5.796875 
C 44.90625 8.8125 43.203125 16 40.40625 25.515625 
L 35.296875 43 
L 28.40625 43 
L 23.40625 25.90625 
C 20.90625 17.203125 19 9.796875 18.796875 5.796875 
L 18.703125 5.796875 
C 18.296875 11.703125 14.203125 25.515625 13.59375 27.703125 
L 9.09375 43 
L 1.296875 43 
L 14.296875 0 
L 21.90625 0 
C 27.09375 17.125 31.09375 30.359375 31.40625 37.03125 
C 31.59375 33.75 33.296875 26.671875 34.296875 23.1875 
L 40.90625 0 
L 49.703125 0 
z
" id="CMSS17-119"/>
      </defs>
      <use transform="scale(0.996264)" xlink:href="#CMSS17-101"/>
      <use transform="translate(41.638822 0)scale(0.996264)" xlink:href="#CMSS17-120"/>
      <use transform="translate(84.638964 0)scale(0.996264)" xlink:href="#CMSS17-112"/>
      <use transform="translate(132.843907 0)scale(0.996264)" xlink:href="#CMSS17-46"/>
      <use transform="translate(158.868112 0)scale(0.996264)" xlink:href="#CMSS17-44"/>
      <use transform="translate(216.121429 0)scale(0.996264)" xlink:href="#CMSS17-108"/>
      <use transform="translate(238.302152 0)scale(0.996264)" xlink:href="#CMSS17-111"/>
      <use transform="translate(282.543322 0)scale(0.996264)" xlink:href="#CMSS17-119"/>
     </g>
    </g>
   </g>
   <g id="PathCollection_3">
    <defs>
     <path d="M 0 1.936492 
C 0.513564 1.936492 1.006162 1.732451 1.369306 1.369306 
C 1.732451 1.006162 1.936492 0.513564 1.936492 -0 
C 1.936492 -0.513564 1.732451 -1.006162 1.369306 -1.369306 
C 1.006162 -1.732451 0.513564 -1.936492 0 -1.936492 
C -0.513564 -1.936492 -1.006162 -1.732451 -1.369306 -1.369306 
C -1.732451 -1.006162 -1.936492 -0.513564 -1.936492 0 
C -1.936492 0.513564 -1.732451 1.006162 -1.369306 1.369306 
C -1.006162 1.732451 -0.513564 1.936492 0 1.936492 
z
" id="C0_0_c7d5c274d3"/>
    </defs>
    <g clip-path="url(#p5f1d2908f0)">
     <use style="fill:none;stroke:#000000;stroke-width:1.5;" x="60.216318" xlink:href="#C0_0_c7d5c274d3" y="172.999786"/>
    </g>
    <g clip-path="url(#p5f1d2908f0)">
     <use style="fill:none;stroke:#000000;stroke-width:1.5;" x="66.557227" xlink:href="#C0_0_c7d5c274d3" y="72.569345"/>
    </g>
    <g clip-path="url(#p5f1d2908f0)">
     <use style="fill:none;stroke:#000000;stroke-width:1.5;" x="72.898136" xlink:href="#C0_0_c7d5c274d3" y="59.510864"/>
    </g>
    <g clip-path="url(#p5f1d2908f0)">
     <use style="fill:none;stroke:#000000;stroke-width:1.5;" x="79.239045" xlink:href="#C0_0_c7d5c274d3" y="49.10193"/>
    </g>
    <g clip-path="url(#p5f1d2908f0)">
     <use style="fill:none;stroke:#000000;stroke-width:1.5;" x="85.579954" xlink:href="#C0_0_c7d5c274d3" y="44.938357"/>
    </g>
    <g clip-path="url(#p5f1d2908f0)">
     <use style="fill:none;stroke:#000000;stroke-width:1.5;" x="98.261772" xlink:href="#C0_0_c7d5c274d3" y="39.45001"/>
    </g>
    <g clip-path="url(#p5f1d2908f0)">
     <use style="fill:none;stroke:#000000;stroke-width:1.5;" x="110.94359" xlink:href="#C0_0_c7d5c274d3" y="34.655592"/>
    </g>
    <g clip-path="url(#p5f1d2908f0)">
     <use style="fill:none;stroke:#000000;stroke-width:1.5;" x="123.625409" xlink:href="#C0_0_c7d5c274d3" y="33.078481"/>
    </g>
    <g clip-path="url(#p5f1d2908f0)">
     <use style="fill:none;stroke:#000000;stroke-width:1.5;" x="136.307227" xlink:href="#C0_0_c7d5c274d3" y="30.428934"/>
    </g>
    <g clip-path="url(#p5f1d2908f0)">
     <use style="fill:none;stroke:#000000;stroke-width:1.5;" x="148.989045" xlink:href="#C0_0_c7d5c274d3" y="28.914907"/>
    </g>
    <g clip-path="url(#p5f1d2908f0)">
     <use style="fill:none;stroke:#000000;stroke-width:1.5;" x="161.670863" xlink:href="#C0_0_c7d5c274d3" y="37.620561"/>
    </g>
    <g clip-path="url(#p5f1d2908f0)">
     <use style="fill:none;stroke:#000000;stroke-width:1.5;" x="174.352681" xlink:href="#C0_0_c7d5c274d3" y="71.244572"/>
    </g>
    <g clip-path="url(#p5f1d2908f0)">
     <use style="fill:none;stroke:#000000;stroke-width:1.5;" x="187.034499" xlink:href="#C0_0_c7d5c274d3" y="81.653505"/>
    </g>
    <g clip-path="url(#p5f1d2908f0)">
     <use style="fill:none;stroke:#000000;stroke-width:1.5;" x="199.716318" xlink:href="#C0_0_c7d5c274d3" y="88.52971"/>
    </g>
    <g clip-path="url(#p5f1d2908f0)">
     <use style="fill:none;stroke:#000000;stroke-width:1.5;" x="212.398136" xlink:href="#C0_0_c7d5c274d3" y="91.93627"/>
    </g>
    <g clip-path="url(#p5f1d2908f0)">
     <use style="fill:none;stroke:#000000;stroke-width:1.5;" x="225.079954" xlink:href="#C0_0_c7d5c274d3" y="94.522733"/>
    </g>
    <g clip-path="url(#p5f1d2908f0)">
     <use style="fill:none;stroke:#000000;stroke-width:1.5;" x="237.761772" xlink:href="#C0_0_c7d5c274d3" y="97.361533"/>
    </g>
    <g clip-path="url(#p5f1d2908f0)">
     <use style="fill:none;stroke:#000000;stroke-width:1.5;" x="250.44359" xlink:href="#C0_0_c7d5c274d3" y="100.200333"/>
    </g>
    <g clip-path="url(#p5f1d2908f0)">
     <use style="fill:none;stroke:#000000;stroke-width:1.5;" x="263.125409" xlink:href="#C0_0_c7d5c274d3" y="103.480724"/>
    </g>
    <g clip-path="url(#p5f1d2908f0)">
     <use style="fill:none;stroke:#000000;stroke-width:1.5;" x="275.807227" xlink:href="#C0_0_c7d5c274d3" y="106.698031"/>
    </g>
    <g clip-path="url(#p5f1d2908f0)">
     <use style="fill:none;stroke:#000000;stroke-width:1.5;" x="288.489045" xlink:href="#C0_0_c7d5c274d3" y="110.104591"/>
    </g>
    <g clip-path="url(#p5f1d2908f0)">
     <use style="fill:none;stroke:#000000;stroke-width:1.5;" x="294.829954" xlink:href="#C0_0_c7d5c274d3" y="112.375632"/>
    </g>
    <g clip-path="url(#p5f1d2908f0)">
     <use style="fill:none;stroke:#000000;stroke-width:1.5;" x="301.170863" xlink:href="#C0_0_c7d5c274d3" y="114.520503"/>
    </g>
    <g clip-path="url(#p5f1d2908f0)">
     <use style="fill:none;stroke:#000000;stroke-width:1.5;" x="307.511772" xlink:href="#C0_0_c7d5c274d3" y="118.053232"/>
    </g>
    <g clip-path="url(#p5f1d2908f0)">
     <use style="fill:none;stroke:#000000;stroke-width:1.5;" x="313.852681" xlink:href="#C0_0_c7d5c274d3" y="121.838299"/>
    </g>
   </g>
   <g id="PathCollection_4">
    <g clip-path="url(#p5f1d2908f0)">
     <use style="stroke:#000000;stroke-width:1.5;" x="66.557227" xlink:href="#me48d20d8e3" y="120.513525"/>
     <use style="stroke:#000000;stroke-width:1.5;" x="72.898136" xlink:href="#me48d20d8e3" y="105.562511"/>
     <use style="stroke:#000000;stroke-width:1.5;" x="85.579954" xlink:href="#me48d20d8e3" y="90.169906"/>
     <use style="stroke:#000000;stroke-width:1.5;" x="110.94359" xlink:href="#me48d20d8e3" y="81.905843"/>
     <use style="stroke:#000000;stroke-width:1.5;" x="136.307227" xlink:href="#me48d20d8e3" y="82.158181"/>
     <use style="stroke:#000000;stroke-width:1.5;" x="161.670863" xlink:href="#me48d20d8e3" y="86.82643"/>
     <use style="stroke:#000000;stroke-width:1.5;" x="187.034499" xlink:href="#me48d20d8e3" y="90.296075"/>
     <use style="stroke:#000000;stroke-width:1.5;" x="212.398136" xlink:href="#me48d20d8e3" y="95.090493"/>
     <use style="stroke:#000000;stroke-width:1.5;" x="237.761772" xlink:href="#me48d20d8e3" y="99.44332"/>
     <use style="stroke:#000000;stroke-width:1.5;" x="263.125409" xlink:href="#me48d20d8e3" y="103.922316"/>
     <use style="stroke:#000000;stroke-width:1.5;" x="275.807227" xlink:href="#me48d20d8e3" y="106.887285"/>
     <use style="stroke:#000000;stroke-width:1.5;" x="288.489045" xlink:href="#me48d20d8e3" y="110.546183"/>
     <use style="stroke:#000000;stroke-width:1.5;" x="294.829954" xlink:href="#me48d20d8e3" y="112.312547"/>
     <use style="stroke:#000000;stroke-width:1.5;" x="301.170863" xlink:href="#me48d20d8e3" y="114.520503"/>
     <use style="stroke:#000000;stroke-width:1.5;" x="307.511772" xlink:href="#me48d20d8e3" y="117.422387"/>
    </g>
   </g>
  </g>
 </g>
 <defs>
  <clipPath id="p5f1d2908f0">
   <rect height="163.08" width="279" x="47.534499" y="21.50218"/>
  </clipPath>
 </defs>
</svg>
