<?xml version="1.0" encoding="utf-8" standalone="no"?>
<!DOCTYPE svg PUBLIC "-//W3C//DTD SVG 1.1//EN"
  "http://www.w3.org/Graphics/SVG/1.1/DTD/svg11.dtd">
<!-- Created with matplotlib (https://matplotlib.org/) -->
<svg height="220.493533pt" version="1.1" viewBox="0 0 333.734499 220.493533" width="333.734499pt" xmlns="http://www.w3.org/2000/svg" xmlns:xlink="http://www.w3.org/1999/xlink">
 <metadata>
  <rdf:RDF xmlns:cc="http://creativecommons.org/ns#" xmlns:dc="http://purl.org/dc/elements/1.1/" xmlns:rdf="http://www.w3.org/1999/02/22-rdf-syntax-ns#">
   <cc:Work>
    <dc:type rdf:resource="http://purl.org/dc/dcmitype/StillImage"/>
    <dc:date>2021-12-02T18:07:49.728878</dc:date>
    <dc:format>image/svg+xml</dc:format>
    <dc:creator>
     <cc:Agent>
      <dc:title>Matplotlib v3.3.3, https://matplotlib.org/</dc:title>
     </cc:Agent>
    </dc:creator>
   </cc:Work>
  </rdf:RDF>
 </metadata>
 <defs>
  <style type="text/css">*{stroke-linecap:butt;stroke-linejoin:round;}</style>
 </defs>
 <g id="figure_1">
  <g id="patch_1">
   <path d="M 0 220.493533 
L 333.734499 220.493533 
L 333.734499 0 
L 0 0 
z
" style="fill:none;"/>
  </g>
  <g id="axes_1">
   <g id="patch_2">
    <path d="M 47.534499 184.58218 
L 326.534499 184.58218 
L 326.534499 21.50218 
L 47.534499 21.50218 
z
" style="fill:#ffffff;"/>
   </g>
   <g id="PolyCollection_1">
    <defs>
     <path d="M 60.220147 -57.814152 
L 60.220147 -56.80294 
L 60.243293 -62.260268 
L 60.293139 -68.425871 
L 60.370328 -75.160823 
L 60.474778 -82.162771 
L 60.60574 -89.207419 
L 60.762009 -96.052556 
L 60.942081 -102.517858 
L 61.144227 -108.547077 
L 61.366831 -114.24712 
L 61.608577 -119.602135 
L 61.868841 -124.210386 
L 62.146517 -127.887474 
L 62.439071 -131.153263 
L 62.745563 -134.545322 
L 63.065358 -138.00767 
L 63.398699 -141.085783 
L 63.745399 -143.19374 
L 64.103335 -144.95407 
L 64.472397 -147.216971 
L 64.853111 -149.45163 
L 65.245361 -150.971741 
L 65.647634 -152.283845 
L 66.060447 -154.043579 
L 66.48439 -155.471722 
L 66.918263 -156.450345 
L 67.362164 -157.726464 
L 67.816704 -158.936631 
L 68.281272 -159.791257 
L 68.755756 -160.797321 
L 69.240754 -161.806495 
L 69.735829 -162.529854 
L 70.240918 -163.387905 
L 70.75661 -164.230919 
L 71.282442 -164.829724 
L 71.81854 -165.615084 
L 72.365464 -166.313608 
L 72.922645 -166.800263 
L 73.490442 -167.572833 
L 74.069373 -168.188789 
L 74.658822 -168.609556 
L 75.259296 -169.264918 
L 75.871068 -169.76975 
L 76.493827 -170.217878 
L 77.128062 -170.776385 
L 77.773824 -171.189419 
L 78.431089 -171.656408 
L 79.100312 -172.136669 
L 79.781381 -172.485308 
L 80.474488 -172.964635 
L 81.180063 -173.381607 
L 81.897891 -173.686702 
L 82.628314 -174.168881 
L 83.371726 -174.54441 
L 84.127904 -174.827334 
L 84.897254 -175.260958 
L 85.680067 -175.591381 
L 86.47626 -175.883451 
L 87.286225 -176.279703 
L 88.110196 -176.578589 
L 88.948184 -176.866685 
L 89.800564 -177.235843 
L 90.667563 -177.513444 
L 91.549235 -177.786677 
L 92.445948 -178.136667 
L 93.357952 -178.399565 
L 94.285312 -178.64713 
L 95.228388 -178.988193 
L 96.187485 -179.248197 
L 97.162664 -179.452582 
L 98.154268 -179.740035 
L 99.162632 -179.946245 
L 100.187877 -180.035014 
L 101.230292 -180.13506 
L 102.290213 -180.150049 
L 103.36788 -179.969152 
L 104.463506 -179.678128 
L 105.57743 -179.37988 
L 106.709983 -178.984258 
L 107.861369 -178.481192 
L 109.031886 -177.995265 
L 110.221871 -177.537084 
L 111.431666 -177.009889 
L 112.661506 -176.41878 
L 113.911714 -175.850297 
L 115.182632 -175.287476 
L 116.474615 -174.63995 
L 117.787956 -173.865544 
L 119.122979 -173.020586 
L 120.480036 -172.156791 
L 121.859492 -171.318291 
L 123.26171 -170.489394 
L 124.687016 -169.674405 
L 126.135785 -168.906962 
L 127.608389 -168.183704 
L 129.105204 -167.501034 
L 130.626622 -166.841469 
L 132.173027 -166.175629 
L 133.744811 -165.499032 
L 135.342378 -164.819805 
L 136.890089 -164.166284 
L 138.30334 -163.561333 
L 139.716575 -162.974908 
L 141.129789 -162.359077 
L 142.542981 -161.716344 
L 143.956143 -161.087128 
L 145.369261 -160.46911 
L 146.782328 -159.820884 
L 148.195351 -159.145129 
L 149.60832 -158.47779 
L 151.021224 -157.807079 
L 152.434058 -157.101816 
L 153.846831 -156.368338 
L 155.259534 -155.629218 
L 156.67215 -154.863344 
L 158.084685 -154.047399 
L 159.497151 -153.184248 
L 160.909532 -152.265941 
L 162.321807 -151.236752 
L 163.734002 -150.051085 
L 165.146114 -148.668815 
L 166.558125 -146.99931 
L 167.970031 -145.016017 
L 169.381854 -142.895629 
L 170.793579 -140.912689 
L 172.205187 -139.270798 
L 173.616703 -138.031873 
L 175.028125 -137.114834 
L 176.439433 -136.393989 
L 177.850631 -135.776136 
L 179.261743 -135.213301 
L 180.672747 -134.682061 
L 182.083623 -134.162975 
L 183.49441 -133.650284 
L 184.905095 -133.146423 
L 186.315658 -132.647628 
L 187.726115 -132.154236 
L 189.136479 -131.670469 
L 190.54673 -131.197687 
L 191.956856 -130.73526 
L 193.366892 -130.288765 
L 194.776822 -129.864031 
L 196.186623 -129.459259 
L 197.596331 -129.076698 
L 199.005937 -128.719092 
L 200.415422 -128.382224 
L 201.824795 -128.064456 
L 203.23408 -127.766176 
L 204.643254 -127.486091 
L 206.052298 -127.221295 
L 207.461252 -126.973065 
L 208.870106 -126.746474 
L 210.278836 -126.5422 
L 211.687464 -126.36421 
L 213.096 -126.218811 
L 214.504423 -126.103927 
L 215.91272 -126.009453 
L 217.320929 -125.927578 
L 218.729039 -125.855513 
L 220.137031 -125.787209 
L 221.544915 -125.719539 
L 222.952708 -125.659747 
L 224.360396 -125.61152 
L 225.767963 -125.570602 
L 227.17543 -125.535446 
L 228.582805 -125.508899 
L 229.990073 -125.494068 
L 231.397219 -125.496203 
L 232.804268 -125.525001 
L 234.211225 -125.586227 
L 235.618074 -125.678654 
L 237.024801 -125.797485 
L 238.431432 -125.938081 
L 239.837969 -126.09524 
L 241.244399 -126.261435 
L 242.650709 -126.429822 
L 244.056916 -126.593941 
L 245.463026 -126.7471 
L 246.869039 -126.884841 
L 248.27494 -127.00219 
L 249.680716 -127.096494 
L 251.086394 -127.17258 
L 252.49197 -127.232302 
L 253.897444 -127.274767 
L 255.302809 -127.298846 
L 256.708053 -127.303162 
L 258.113186 -127.288552 
L 259.518213 -127.254849 
L 260.923134 -127.201716 
L 262.327944 -127.127693 
L 263.602199 -127.048762 
L 264.615474 -126.97609 
L 265.628714 -126.903649 
L 266.641905 -126.829251 
L 267.655029 -126.750577 
L 268.668144 -126.66697 
L 269.681191 -126.577275 
L 270.694155 -126.481584 
L 271.707125 -126.382967 
L 272.720023 -126.280286 
L 273.732824 -126.174981 
L 274.745637 -126.0738 
L 275.758369 -125.975635 
L 276.771002 -125.876839 
L 277.783648 -125.774357 
L 278.796206 -125.666197 
L 279.808665 -125.547392 
L 280.821128 -125.41762 
L 281.833537 -125.279742 
L 282.845889 -125.129886 
L 283.858134 -124.964175 
L 284.870263 -124.783445 
L 285.882409 -124.59192 
L 286.89449 -124.388282 
L 287.906505 -124.167508 
L 288.918408 -123.924198 
L 289.930191 -123.649566 
L 290.941979 -123.34264 
L 291.953693 -123.005208 
L 292.965332 -122.62934 
L 293.976891 -122.215373 
L 294.98837 -121.772465 
L 295.999767 -121.302097 
L 297.011078 -120.806169 
L 298.022303 -120.298171 
L 299.033443 -119.792775 
L 300.044492 -119.292721 
L 301.055453 -118.8007 
L 302.066324 -118.327938 
L 303.077124 -117.887295 
L 304.087843 -117.487342 
L 305.098423 -117.136183 
L 306.108924 -116.842742 
L 307.119338 -116.622535 
L 308.12963 -116.485328 
L 309.139835 -116.444569 
L 310.149931 -116.492128 
L 311.159915 -116.619167 
L 312.169789 -116.72259 
L 313.179556 -117.473252 
L 313.852681 -119.038736 
L 313.852681 -119.024534 
L 313.852681 -119.012186 
L 313.852681 -119.022093 
L 313.852681 -119.035361 
L 313.852681 -119.169686 
L 313.852681 -119.049559 
L 313.852681 -119.076777 
L 313.852681 -119.138255 
L 313.852681 -119.725939 
L 313.852681 -120.071431 
L 313.852681 -119.03536 
L 313.852681 -118.930502 
L 313.852681 -118.748137 
L 313.852681 -118.760514 
L 313.852681 -118.776557 
L 313.852681 -118.795932 
L 313.852681 -118.866804 
L 313.852681 -118.891093 
L 313.852681 -118.867972 
L 313.852681 -118.893878 
L 313.852681 -118.919201 
L 313.852681 -118.943338 
L 313.852681 -118.917159 
L 313.852681 -118.950522 
L 313.852681 -155.249372 
L 313.852681 -155.249372 
L 313.852681 -155.072061 
L 313.852681 -155.112186 
L 313.852681 -155.066829 
L 313.852681 -155.02276 
L 313.852681 -154.981217 
L 313.852681 -155.028724 
L 313.852681 -154.995796 
L 313.852681 -154.883562 
L 313.852681 -154.862894 
L 313.852681 -154.848939 
L 313.852681 -154.841763 
L 313.852681 -155.196809 
L 313.852681 -155.402509 
L 313.852681 -157.008649 
L 313.852681 -156.530944 
L 313.852681 -155.630262 
L 313.852681 -155.498355 
L 313.852681 -155.435067 
L 313.852681 -155.636343 
L 313.852681 -155.363509 
L 313.852681 -155.310612 
L 313.852681 -155.26933 
L 313.852681 -155.314048 
L 313.852681 -155.360954 
L 313.179556 -152.994913 
L 312.169789 -151.393078 
L 311.159915 -150.181475 
L 310.149931 -148.779612 
L 309.139835 -147.448653 
L 308.12963 -146.289901 
L 307.119338 -145.374194 
L 306.108924 -144.690173 
L 305.098423 -144.22654 
L 304.087843 -143.965489 
L 303.077124 -143.898876 
L 302.066324 -144.017296 
L 301.055453 -144.296095 
L 300.044492 -144.700105 
L 299.033443 -145.205005 
L 298.022303 -145.804963 
L 297.011078 -146.475552 
L 295.999767 -147.153726 
L 294.98837 -147.791789 
L 293.976891 -148.383252 
L 292.965332 -148.917283 
L 291.953693 -149.361512 
L 290.941979 -149.721311 
L 289.930191 -150.018218 
L 288.918408 -150.23815 
L 287.906505 -150.386982 
L 286.89449 -150.488883 
L 285.882409 -150.547941 
L 284.870263 -150.578004 
L 283.858134 -150.586066 
L 282.845889 -150.562227 
L 281.833537 -150.508641 
L 280.821128 -150.436266 
L 279.808665 -150.357011 
L 278.796206 -150.262413 
L 277.783648 -150.152137 
L 276.771002 -150.04313 
L 275.758369 -149.939738 
L 274.745637 -149.846056 
L 273.732824 -149.76902 
L 272.720023 -149.710765 
L 271.707125 -149.653475 
L 270.694155 -149.589607 
L 269.681191 -149.525901 
L 268.668144 -149.453624 
L 267.655029 -149.369873 
L 266.641905 -149.283387 
L 265.628714 -149.190443 
L 264.615474 -149.092938 
L 263.602199 -148.985298 
L 262.327944 -148.85239 
L 260.923134 -148.686321 
L 259.518213 -148.481456 
L 258.113186 -148.244916 
L 256.708053 -147.974472 
L 255.302809 -147.668506 
L 253.897444 -147.31947 
L 252.49197 -146.922003 
L 251.086394 -146.4719 
L 249.680716 -145.963692 
L 248.27494 -145.389976 
L 246.869039 -144.741709 
L 245.463026 -144.025949 
L 244.056916 -143.261117 
L 242.650709 -142.466609 
L 241.244399 -141.660605 
L 239.837969 -140.85562 
L 238.431432 -140.063586 
L 237.024801 -139.298437 
L 235.618074 -138.576149 
L 234.211225 -137.913833 
L 232.804268 -137.325574 
L 231.397219 -136.815963 
L 229.990073 -136.37353 
L 228.582805 -135.974307 
L 227.17543 -135.600272 
L 225.767963 -135.246234 
L 224.360396 -134.911395 
L 222.952708 -134.593145 
L 221.544915 -134.293832 
L 220.137031 -134.009031 
L 218.729039 -133.729538 
L 217.320929 -133.463239 
L 215.91272 -133.220283 
L 214.504423 -133.010527 
L 213.096 -132.850238 
L 211.687464 -132.75079 
L 210.278836 -132.712505 
L 208.870106 -132.724076 
L 207.461252 -132.776481 
L 206.052298 -132.868126 
L 204.643254 -132.997548 
L 203.23408 -133.167483 
L 201.824795 -133.3853 
L 200.415422 -133.659722 
L 199.005937 -133.997124 
L 197.596331 -134.403627 
L 196.186623 -134.884126 
L 194.776822 -135.433782 
L 193.366892 -136.046379 
L 191.956856 -136.719158 
L 190.54673 -137.441841 
L 189.136479 -138.204992 
L 187.726115 -139.005459 
L 186.315658 -139.837344 
L 184.905095 -140.69249 
L 183.49441 -141.567326 
L 182.083623 -142.462856 
L 180.672747 -143.376429 
L 179.261743 -144.322845 
L 177.850631 -145.339963 
L 176.439433 -146.486163 
L 175.028125 -147.888161 
L 173.616703 -149.7938 
L 172.205187 -152.54778 
L 170.793579 -156.329567 
L 169.381854 -160.821062 
L 167.970031 -165.378175 
L 166.558125 -169.376839 
L 165.146114 -172.477802 
L 163.734002 -174.816171 
L 162.321807 -176.660857 
L 160.909532 -178.136849 
L 159.497151 -179.358436 
L 158.084685 -180.442428 
L 156.67215 -181.408622 
L 155.259534 -182.25676 
L 153.846831 -183.034008 
L 152.434058 -183.778146 
L 151.021224 -184.449632 
L 149.60832 -185.0401 
L 148.195351 -185.606969 
L 146.782328 -186.168787 
L 145.369261 -186.666216 
L 143.956143 -187.09832 
L 142.542981 -187.53547 
L 141.129789 -187.980592 
L 139.716575 -188.366515 
L 138.30334 -188.687369 
L 136.890089 -189.006757 
L 135.342378 -189.338652 
L 133.744811 -189.657374 
L 132.173027 -189.946359 
L 130.626622 -190.187203 
L 129.105204 -190.377778 
L 127.608389 -190.558302 
L 126.135785 -190.745446 
L 124.687016 -190.935166 
L 123.26171 -191.121286 
L 121.859492 -191.253902 
L 120.480036 -191.346173 
L 119.122979 -191.460407 
L 117.787956 -191.56233 
L 116.474615 -191.578626 
L 115.182632 -191.424302 
L 113.911714 -191.133695 
L 112.661506 -190.804938 
L 111.431666 -190.439188 
L 110.221871 -189.933569 
L 109.031886 -189.299711 
L 107.861369 -188.641484 
L 106.709983 -187.943172 
L 105.57743 -187.059863 
L 104.463506 -186.027236 
L 103.36788 -185.072387 
L 102.290213 -184.186682 
L 101.230292 -183.307654 
L 100.187877 -182.506728 
L 99.162632 -181.821078 
L 98.154268 -181.200326 
L 97.162664 -180.773108 
L 96.187485 -180.54574 
L 95.228388 -180.276492 
L 94.285312 -179.928524 
L 93.357952 -179.673591 
L 92.445948 -179.403007 
L 91.549235 -179.04786 
L 90.667563 -178.770345 
L 89.800564 -178.487782 
L 88.948184 -178.116504 
L 88.110196 -177.825874 
L 87.286225 -177.524203 
L 86.47626 -177.128064 
L 85.680067 -176.835187 
L 84.897254 -176.505091 
L 84.127904 -176.073729 
L 83.371726 -175.791232 
L 82.628314 -175.4181 
L 81.897891 -174.940112 
L 81.180063 -174.637129 
L 80.474488 -174.224637 
L 79.781381 -173.750325 
L 79.100312 -173.405645 
L 78.431089 -172.931858 
L 77.773824 -172.470487 
L 77.128062 -172.064547 
L 76.493827 -171.514137 
L 75.871068 -171.072922 
L 75.259296 -170.576905 
L 74.658822 -169.929681 
L 74.069373 -169.517484 
L 73.490442 -168.91273 
L 72.922645 -168.151942 
L 72.365464 -167.675732 
L 71.81854 -166.988468 
L 71.282442 -166.216422 
L 70.75661 -165.629129 
L 70.240918 -164.800959 
L 69.735829 -163.959253 
L 69.240754 -163.247609 
L 68.755756 -162.255676 
L 68.281272 -161.269725 
L 67.816704 -160.43054 
L 67.362164 -159.232259 
L 66.918263 -157.976806 
L 66.48439 -157.01788 
L 66.060447 -155.600291 
L 65.647634 -153.863221 
L 65.245361 -152.581385 
L 64.853111 -151.072165 
L 64.472397 -148.834573 
L 64.103335 -146.603232 
L 63.745399 -144.89771 
L 63.398699 -142.81897 
L 63.065358 -139.735604 
L 62.745563 -136.270098 
L 62.439071 -132.89866 
L 62.146517 -129.666201 
L 61.868841 -126.011765 
L 61.608577 -121.392661 
L 61.366831 -116.015673 
L 61.144227 -110.295349 
L 60.942081 -104.235872 
L 60.762009 -97.731956 
L 60.60574 -90.825839 
L 60.474778 -83.68985 
L 60.370328 -76.575603 
L 60.293139 -69.712517 
L 60.243293 -63.410746 
L 60.220147 -57.814152 
z
" id="m2a4d152cf2" style="stroke:#1f77b4;stroke-opacity:0.3;"/>
    </defs>
    <g clip-path="url(#p10439df319)">
     <use style="fill:#1f77b4;fill-opacity:0.3;stroke:#1f77b4;stroke-opacity:0.3;" x="0" xlink:href="#m2a4d152cf2" y="220.493533"/>
    </g>
   </g>
   <g id="PolyCollection_2">
    <defs>
     <path d="M 60.216318 -54.458582 
L 60.216318 -53.473682 
L 60.24374 -60.153838 
L 60.317728 -68.020264 
L 60.438809 -76.919084 
L 60.606308 -86.363373 
L 60.821424 -95.344746 
L 61.078329 -103.22282 
L 61.371842 -110.441988 
L 61.69862 -117.050306 
L 62.056023 -122.905229 
L 62.441532 -128.040209 
L 62.852756 -132.525177 
L 63.288049 -136.433296 
L 63.745918 -139.842571 
L 64.225178 -142.825505 
L 64.724803 -145.445182 
L 65.244116 -147.760779 
L 65.782574 -149.815498 
L 66.339739 -151.648768 
L 66.915294 -153.294782 
L 67.509045 -154.795282 
L 68.120879 -156.155604 
L 68.750744 -157.409721 
L 69.398643 -158.609681 
L 70.064651 -159.873435 
L 70.74907 -161.163584 
L 71.452154 -162.250688 
L 72.173695 -163.138967 
L 72.913899 -163.961416 
L 73.673018 -164.758793 
L 74.45131 -165.527911 
L 75.249051 -166.347699 
L 76.066642 -167.231322 
L 76.904563 -167.9814 
L 77.762819 -168.576724 
L 78.641765 -169.141608 
L 79.541776 -169.692343 
L 80.463242 -170.236822 
L 81.406556 -170.819117 
L 82.372207 -171.449735 
L 83.360686 -171.990719 
L 84.372244 -172.447277 
L 85.407329 -172.88634 
L 86.466414 -173.320691 
L 87.549975 -173.748885 
L 88.658499 -174.17262 
L 89.792494 -174.623007 
L 90.952486 -175.096871 
L 92.139079 -175.536464 
L 93.352693 -175.914747 
L 94.593888 -176.288337 
L 95.863237 -176.657021 
L 97.161318 -177.016429 
L 98.488726 -177.372918 
L 99.846067 -177.716828 
L 101.233964 -178.025525 
L 102.653053 -178.194964 
L 104.103979 -178.146602 
L 105.587413 -177.944809 
L 107.104031 -177.694213 
L 108.65453 -177.33613 
L 110.239622 -176.63756 
L 111.860026 -175.57987 
L 113.516494 -174.342564 
L 115.20978 -172.892006 
L 116.940656 -171.3036 
L 118.709919 -169.69044 
L 120.518377 -167.98299 
L 122.366862 -165.919196 
L 124.256216 -163.161783 
L 126.187307 -159.93722 
L 128.161022 -156.776074 
L 130.178263 -153.894897 
L 132.239964 -151.200079 
L 134.347059 -148.454684 
L 136.491539 -145.803552 
L 138.448349 -143.711263 
L 140.405136 -141.983245 
L 142.361876 -140.395796 
L 144.318556 -138.799782 
L 146.275155 -137.08986 
L 148.231661 -135.268132 
L 150.188057 -133.611276 
L 152.144338 -132.375506 
L 154.100483 -131.512167 
L 156.056489 -130.85228 
L 158.012346 -130.313178 
L 159.968043 -129.855429 
L 161.923578 -129.476216 
L 163.878936 -129.154536 
L 165.834121 -128.885461 
L 167.789124 -128.649387 
L 169.74394 -128.443314 
L 171.698566 -128.259659 
L 173.652998 -128.094819 
L 175.607236 -127.943218 
L 177.561274 -127.802293 
L 179.51511 -127.67658 
L 181.468743 -127.559539 
L 183.422177 -127.454028 
L 185.375399 -127.362298 
L 187.328419 -127.279932 
L 189.281232 -127.211748 
L 191.233838 -127.157773 
L 193.18624 -127.122102 
L 195.138432 -127.111916 
L 197.090416 -127.12839 
L 199.042194 -127.179324 
L 200.993764 -127.279887 
L 202.945131 -127.432611 
L 204.896288 -127.627127 
L 206.847241 -127.809326 
L 208.797987 -127.959134 
L 210.748527 -128.084431 
L 212.698867 -128.193227 
L 214.649001 -128.279906 
L 216.598931 -128.349826 
L 218.548655 -128.404045 
L 220.49818 -128.465987 
L 222.447506 -128.53294 
L 224.396626 -128.604625 
L 226.345546 -128.678583 
L 228.294264 -128.724395 
L 230.242783 -128.690665 
L 232.191104 -128.614191 
L 234.139222 -128.492146 
L 236.087137 -128.346322 
L 238.034857 -128.200658 
L 239.982371 -128.039756 
L 241.92969 -127.865296 
L 243.876806 -127.669274 
L 245.823723 -127.415923 
L 247.770437 -127.132855 
L 249.716936 -126.758854 
L 251.663228 -126.387729 
L 253.609313 -125.9567 
L 255.555195 -125.519365 
L 257.50087 -125.086636 
L 259.446342 -124.651213 
L 261.391602 -124.231011 
L 263.318216 -123.860687 
L 264.765767 -123.584431 
L 266.213197 -123.320082 
L 267.660542 -123.075232 
L 269.107789 -122.839347 
L 270.554939 -122.610276 
L 272.001988 -122.409364 
L 273.448935 -122.175115 
L 274.895768 -121.960742 
L 276.342491 -121.769685 
L 277.789095 -121.551853 
L 279.235585 -121.348897 
L 280.681949 -121.139595 
L 282.128198 -120.929951 
L 283.574421 -120.721085 
L 285.020386 -120.518518 
L 286.466217 -120.324685 
L 287.911907 -120.150035 
L 289.357454 -119.987947 
L 290.802869 -119.826791 
L 292.248225 -119.67397 
L 293.693307 -119.513564 
L 295.13824 -119.367225 
L 296.583097 -119.20952 
L 298.027687 -118.995735 
L 299.472194 -118.772866 
L 300.916424 -118.469882 
L 302.360553 -118.133162 
L 303.804481 -117.706574 
L 305.248152 -117.197868 
L 306.691677 -116.609726 
L 308.135018 -115.948402 
L 309.578108 -115.228169 
L 311.020998 -114.494148 
L 312.463667 -113.633782 
L 313.852681 -114.169173 
L 313.852681 -114.001593 
L 313.852681 -114.20263 
L 313.852681 -114.320174 
L 313.852681 -113.901204 
L 313.852681 -113.653806 
L 313.852681 -113.759032 
L 313.852681 -113.821522 
L 313.852681 -113.761307 
L 313.852681 -114.587146 
L 313.852681 -114.616644 
L 313.852681 -114.629969 
L 313.852681 -114.557528 
L 313.852681 -114.570633 
L 313.852681 -114.482577 
L 313.852681 -114.486295 
L 313.852681 -114.596579 
L 313.852681 -114.5398 
L 313.852681 -129.950335 
L 313.852681 -129.950335 
L 313.852681 -130.185676 
L 313.852681 -129.936337 
L 313.852681 -129.848591 
L 313.852681 -130.095424 
L 313.852681 -130.192738 
L 313.852681 -130.37953 
L 313.852681 -130.324905 
L 313.852681 -130.264537 
L 313.852681 -128.267412 
L 313.852681 -128.429525 
L 313.852681 -128.353871 
L 313.852681 -128.217883 
L 313.852681 -128.546555 
L 313.852681 -129.517669 
L 313.852681 -129.174625 
L 313.852681 -128.739492 
L 313.852681 -129.068273 
L 312.463667 -127.176518 
L 311.020998 -127.607971 
L 309.578108 -128.39677 
L 308.135018 -129.353749 
L 306.691677 -130.36838 
L 305.248152 -131.296752 
L 303.804481 -132.109175 
L 302.360553 -132.768169 
L 300.916424 -133.266686 
L 299.472194 -133.7019 
L 298.027687 -133.998428 
L 296.583097 -134.286645 
L 295.13824 -134.492574 
L 293.693307 -134.698056 
L 292.248225 -134.944627 
L 290.802869 -135.174244 
L 289.357454 -135.421051 
L 287.911907 -135.666957 
L 286.466217 -135.909727 
L 285.020386 -136.170172 
L 283.574421 -136.414582 
L 282.128198 -136.635006 
L 280.681949 -136.828101 
L 279.235585 -137.003835 
L 277.789095 -137.150908 
L 276.342491 -137.311313 
L 274.895768 -137.4434 
L 273.448935 -137.61214 
L 272.001988 -137.822893 
L 270.554939 -137.980713 
L 269.107789 -138.193016 
L 267.660542 -138.413765 
L 266.213197 -138.648244 
L 264.765767 -138.913214 
L 263.318216 -139.183584 
L 261.391602 -139.554402 
L 259.446342 -139.992649 
L 257.50087 -140.429485 
L 255.555195 -140.820229 
L 253.609313 -141.214053 
L 251.663228 -141.611608 
L 249.716936 -141.907621 
L 247.770437 -142.254865 
L 245.823723 -142.429133 
L 243.876806 -142.580457 
L 241.92969 -142.644693 
L 239.982371 -142.694938 
L 238.034857 -142.742907 
L 236.087137 -142.773758 
L 234.139222 -142.813718 
L 232.191104 -142.807753 
L 230.242783 -142.7088 
L 228.294264 -142.535463 
L 226.345546 -142.197397 
L 224.396626 -141.827619 
L 222.447506 -141.478765 
L 220.49818 -141.13075 
L 218.548655 -140.781515 
L 216.598931 -140.442691 
L 214.649001 -140.07061 
L 212.698867 -139.662682 
L 210.748527 -139.194541 
L 208.797987 -138.644152 
L 206.847241 -137.952197 
L 204.896288 -137.099584 
L 202.945131 -136.180317 
L 200.993764 -135.388305 
L 199.042194 -134.78933 
L 197.090416 -134.348622 
L 195.138432 -134.00324 
L 193.18624 -133.717995 
L 191.233838 -133.494873 
L 189.281232 -133.308906 
L 187.328419 -133.148135 
L 185.375399 -133.011314 
L 183.422177 -132.890576 
L 181.468743 -132.790472 
L 179.51511 -132.711221 
L 177.561274 -132.647791 
L 175.607236 -132.605148 
L 173.652998 -132.584628 
L 171.698566 -132.588596 
L 169.74394 -132.629159 
L 167.789124 -132.714868 
L 165.834121 -132.865377 
L 163.878936 -133.110358 
L 161.923578 -133.490762 
L 159.968043 -134.058906 
L 158.012346 -134.873677 
L 156.056489 -135.964775 
L 154.100483 -137.419346 
L 152.144338 -139.534347 
L 150.188057 -142.868249 
L 148.231661 -147.419477 
L 146.275155 -151.978646 
L 144.318556 -155.618093 
L 142.361876 -158.478583 
L 140.405136 -160.92583 
L 138.448349 -163.271343 
L 136.491539 -165.947363 
L 134.347059 -169.350885 
L 132.239964 -172.746146 
L 130.178263 -175.700689 
L 128.161022 -178.485903 
L 126.187307 -181.355716 
L 124.256216 -184.194008 
L 122.366862 -186.43369 
L 120.518377 -187.599659 
L 118.709919 -188.024317 
L 116.940656 -188.087737 
L 115.20978 -187.962004 
L 113.516494 -187.646657 
L 111.860026 -186.944562 
L 110.239622 -186.150468 
L 108.65453 -185.394381 
L 107.104031 -184.300439 
L 105.587413 -182.829767 
L 104.103979 -181.009167 
L 102.653053 -179.425373 
L 101.233964 -178.855426 
L 99.846067 -178.582516 
L 98.488726 -178.25387 
L 97.161318 -177.903892 
L 95.863237 -177.551047 
L 94.593888 -177.192001 
L 93.352693 -176.827408 
L 92.139079 -176.46005 
L 90.952486 -176.032353 
L 89.792494 -175.571161 
L 88.658499 -175.13462 
L 87.549975 -174.723294 
L 86.466414 -174.309276 
L 85.407329 -173.885618 
L 84.372244 -173.459546 
L 83.360686 -173.013534 
L 82.372207 -172.484231 
L 81.406556 -171.867676 
L 80.463242 -171.294579 
L 79.541776 -170.764805 
L 78.641765 -170.2191 
L 77.762819 -169.6641 
L 76.904563 -169.079756 
L 76.066642 -168.340009 
L 75.249051 -167.478925 
L 74.45131 -166.674792 
L 73.673018 -165.930108 
L 72.913899 -165.153038 
L 72.173695 -164.355659 
L 71.452154 -163.498246 
L 70.74907 -162.441298 
L 70.064651 -161.192803 
L 69.398643 -159.964878 
L 68.750744 -158.796238 
L 68.120879 -157.565181 
L 67.509045 -156.23311 
L 66.915294 -154.756426 
L 66.339739 -153.138121 
L 65.782574 -151.334758 
L 65.244116 -149.307415 
L 64.724803 -147.019604 
L 64.225178 -144.42908 
L 63.745918 -141.475586 
L 63.288049 -138.089273 
L 62.852756 -134.210965 
L 62.441532 -129.741893 
L 62.056023 -124.617364 
L 61.69862 -118.77206 
L 61.371842 -112.159818 
L 61.078329 -104.931249 
L 60.821424 -97.024736 
L 60.606308 -87.953769 
L 60.438809 -78.37703 
L 60.317728 -69.330364 
L 60.24374 -61.30379 
L 60.216318 -54.458582 
z
" id="me8991a2707" style="stroke:#ff7f0e;stroke-opacity:0.3;"/>
    </defs>
    <g clip-path="url(#p10439df319)">
     <use style="fill:#ff7f0e;fill-opacity:0.3;stroke:#ff7f0e;stroke-opacity:0.3;" x="0" xlink:href="#me8991a2707" y="220.493533"/>
    </g>
   </g>
   <g id="matplotlib.axis_1">
    <g id="xtick_1">
     <g id="line2d_1">
      <defs>
       <path d="M 0 0 
L 0 3.5 
" id="maa584027fe" style="stroke:#000000;stroke-width:0.8;"/>
      </defs>
      <g>
       <use style="stroke:#000000;stroke-width:0.8;" x="60.215366" xlink:href="#maa584027fe" y="184.58218"/>
      </g>
     </g>
     <g id="text_1">
      <!-- $\mathdefault{0.0}$ -->
      <g transform="translate(53.850326 198.500678)scale(0.1 -0.1)">
       <defs>
        <path d="M 42 31.640625 
C 42 37.75 41.90625 48.125 37.703125 56.109375 
C 34 63.109375 28.09375 65.59375 22.90625 65.59375 
C 18.09375 65.59375 12 63.40625 8.203125 56.203125 
C 4.203125 48.71875 3.796875 39.4375 3.796875 31.640625 
C 3.796875 25.953125 3.90625 17.28125 7 9.671875 
C 11.296875 -0.609375 19 -2 22.90625 -2 
C 27.5 -2 34.5 -0.109375 38.59375 9.375 
C 41.59375 16.28125 42 24.359375 42 31.640625 
z
M 22.90625 -0.40625 
C 16.5 -0.40625 12.703125 5.078125 11.296875 12.6875 
C 10.203125 18.5625 10.203125 27.15625 10.203125 32.75 
C 10.203125 40.4375 10.203125 46.828125 11.5 52.921875 
C 13.40625 61.390625 19 64 22.90625 64 
C 27 64 32.296875 61.296875 34.203125 53.125 
C 35.5 47.4375 35.59375 40.734375 35.59375 32.75 
C 35.59375 26.25 35.59375 18.265625 34.40625 12.375 
C 32.296875 1.484375 26.40625 -0.40625 22.90625 -0.40625 
z
" id="CMR17-48"/>
        <path d="M 18.40625 4.796875 
C 18.40625 7.6875 16 9.671875 13.59375 9.671875 
C 10.703125 9.671875 8.703125 7.28125 8.703125 4.890625 
C 8.703125 2 11.09375 0 13.5 0 
C 16.40625 0 18.40625 2.390625 18.40625 4.796875 
z
" id="CMMI12-58"/>
       </defs>
       <use transform="scale(0.996264)" xlink:href="#CMR17-48"/>
       <use transform="translate(45.690477 0)scale(0.996264)" xlink:href="#CMMI12-58"/>
       <use transform="translate(72.787654 0)scale(0.996264)" xlink:href="#CMR17-48"/>
      </g>
     </g>
    </g>
    <g id="xtick_2">
     <g id="line2d_2">
      <g>
       <use style="stroke:#000000;stroke-width:0.8;" x="110.942829" xlink:href="#maa584027fe" y="184.58218"/>
      </g>
     </g>
     <g id="text_2">
      <!-- $\mathdefault{0.2}$ -->
      <g transform="translate(104.577789 198.500678)scale(0.1 -0.1)">
       <defs>
        <path d="M 41.703125 15.453125 
L 39.90625 15.453125 
C 38.90625 8.375 38.09375 7.171875 37.703125 6.5625 
C 37.203125 5.765625 30 5.765625 28.59375 5.765625 
L 9.40625 5.765625 
C 13 9.671875 20 16.75 28.5 24.953125 
C 34.59375 30.734375 41.703125 37.53125 41.703125 47.421875 
C 41.703125 59.21875 32.296875 66 21.796875 66 
C 10.796875 66 4.09375 56.3125 4.09375 47.34375 
C 4.09375 43.4375 7 42.9375 8.203125 42.9375 
C 9.203125 42.9375 12.203125 43.546875 12.203125 47.03125 
C 12.203125 50.109375 9.59375 51 8.203125 51 
C 7.59375 51 7 50.90625 6.59375 50.703125 
C 8.5 59.21875 14.296875 63.40625 20.40625 63.40625 
C 29.09375 63.40625 34.796875 56.515625 34.796875 47.421875 
C 34.796875 38.734375 29.703125 31.25 24 24.75 
L 4.09375 2.28125 
L 4.09375 0 
L 39.296875 0 
z
" id="CMR17-50"/>
       </defs>
       <use transform="scale(0.996264)" xlink:href="#CMR17-48"/>
       <use transform="translate(45.690477 0)scale(0.996264)" xlink:href="#CMMI12-58"/>
       <use transform="translate(72.787654 0)scale(0.996264)" xlink:href="#CMR17-50"/>
      </g>
     </g>
    </g>
    <g id="xtick_3">
     <g id="line2d_3">
      <g>
       <use style="stroke:#000000;stroke-width:0.8;" x="161.670292" xlink:href="#maa584027fe" y="184.58218"/>
      </g>
     </g>
     <g id="text_3">
      <!-- $\mathdefault{0.4}$ -->
      <g transform="translate(155.305252 198.500678)scale(0.1 -0.1)">
       <defs>
        <path d="M 33.59375 64.40625 
C 33.59375 66.5 33.5 66.5 31.703125 66.5 
L 2 19.59375 
L 2 17 
L 27.796875 17 
L 27.796875 7.140625 
C 27.796875 3.5 27.59375 2.5 20.59375 2.5 
L 18.703125 2.5 
L 18.703125 0 
C 21.90625 0 27.296875 0 30.703125 0 
C 34.09375 0 39.5 0 42.703125 0 
L 42.703125 2.5 
L 40.796875 2.5 
C 33.796875 2.5 33.59375 3.5 33.59375 7.140625 
L 33.59375 17 
L 43.796875 17 
L 43.796875 19.59375 
L 33.59375 19.59375 
z
M 28.09375 57.859375 
L 28.09375 19.59375 
L 4 19.59375 
z
" id="CMR17-52"/>
       </defs>
       <use transform="scale(0.996264)" xlink:href="#CMR17-48"/>
       <use transform="translate(45.690477 0)scale(0.996264)" xlink:href="#CMMI12-58"/>
       <use transform="translate(72.787654 0)scale(0.996264)" xlink:href="#CMR17-52"/>
      </g>
     </g>
    </g>
    <g id="xtick_4">
     <g id="line2d_4">
      <g>
       <use style="stroke:#000000;stroke-width:0.8;" x="212.397755" xlink:href="#maa584027fe" y="184.58218"/>
      </g>
     </g>
     <g id="text_4">
      <!-- $\mathdefault{0.6}$ -->
      <g transform="translate(206.032716 198.500678)scale(0.1 -0.1)">
       <defs>
        <path d="M 10.59375 34 
C 10.59375 57.65625 21.796875 63 28.296875 63 
C 30.40625 63 35.5 62.640625 37.5 59 
C 35.90625 59 32.90625 59 32.90625 55.515625 
C 32.90625 52.828125 35.09375 51.921875 36.5 51.921875 
C 37.40625 51.921875 40.09375 52.3125 40.09375 55.625 
C 40.09375 61.78125 35.09375 65.296875 28.203125 65.296875 
C 16.296875 65.296875 3.796875 52.96875 3.796875 31 
C 3.796875 3.953125 15.09375 -2 23.09375 -2 
C 32.796875 -2 42 6.671875 42 20.046875 
C 42 32.515625 33.90625 41.59375 23.703125 41.59375 
C 17.59375 41.59375 13.09375 37.609375 10.59375 30.625 
z
M 23.09375 0.390625 
C 10.796875 0.390625 10.796875 18.75 10.796875 22.4375 
C 10.796875 29.625 14.203125 40 23.5 40 
C 25.203125 40 30.09375 40 33.40625 33.125 
C 35.203125 29.21875 35.203125 25.140625 35.203125 20.140625 
C 35.203125 14.75 35.203125 10.78125 33.09375 6.78125 
C 30.90625 2.671875 27.703125 0.390625 23.09375 0.390625 
z
" id="CMR17-54"/>
       </defs>
       <use transform="scale(0.996264)" xlink:href="#CMR17-48"/>
       <use transform="translate(45.690477 0)scale(0.996264)" xlink:href="#CMMI12-58"/>
       <use transform="translate(72.787654 0)scale(0.996264)" xlink:href="#CMR17-54"/>
      </g>
     </g>
    </g>
    <g id="xtick_5">
     <g id="line2d_5">
      <g>
       <use style="stroke:#000000;stroke-width:0.8;" x="263.125218" xlink:href="#maa584027fe" y="184.58218"/>
      </g>
     </g>
     <g id="text_5">
      <!-- $\mathdefault{0.8}$ -->
      <g transform="translate(256.760179 198.500678)scale(0.1 -0.1)">
       <defs>
        <path d="M 27.203125 35.375 
C 33.5 38.546875 39.90625 43.328125 39.90625 50.984375 
C 39.90625 60.015625 31.09375 65.296875 23 65.296875 
C 13.90625 65.296875 5.90625 58.734375 5.90625 49.6875 
C 5.90625 47.203125 6.5 42.921875 10.40625 39.140625 
C 11.40625 38.15625 15.59375 35.171875 18.296875 33.28125 
C 13.796875 30.984375 3.296875 25.53125 3.296875 14.59375 
C 3.296875 4.359375 13.09375 -2 22.796875 -2 
C 33.5 -2 42.5 5.65625 42.5 15.78125 
C 42.5 24.84375 36.40625 29.015625 32.40625 31.703125 
z
M 14.09375 44.09375 
C 13.296875 44.59375 9.296875 47.671875 9.296875 52.359375 
C 9.296875 58.421875 15.59375 63 22.796875 63 
C 30.703125 63 36.5 57.4375 36.5 50.96875 
C 36.5 41.703125 26.09375 36.421875 25.59375 36.421875 
C 25.5 36.421875 25.40625 36.421875 24.59375 37.03125 
z
M 32.5 23.734375 
C 34 22.640625 38.796875 19.375 38.796875 13.296875 
C 38.796875 5.953125 31.40625 0.390625 23 0.390625 
C 13.90625 0.390625 7 6.84375 7 14.6875 
C 7 22.546875 13.09375 29.09375 20 32.1875 
z
" id="CMR17-56"/>
       </defs>
       <use transform="scale(0.996264)" xlink:href="#CMR17-48"/>
       <use transform="translate(45.690477 0)scale(0.996264)" xlink:href="#CMMI12-58"/>
       <use transform="translate(72.787654 0)scale(0.996264)" xlink:href="#CMR17-56"/>
      </g>
     </g>
    </g>
    <g id="xtick_6">
     <g id="line2d_6">
      <g>
       <use style="stroke:#000000;stroke-width:0.8;" x="313.852681" xlink:href="#maa584027fe" y="184.58218"/>
      </g>
     </g>
     <g id="text_6">
      <!-- $\mathdefault{1.0}$ -->
      <g transform="translate(307.487642 198.500678)scale(0.1 -0.1)">
       <defs>
        <path d="M 26.59375 63.40625 
C 26.59375 65.5 26.5 65.5 25.09375 65.5 
C 21.203125 61.1875 15.296875 59.796875 9.703125 59.796875 
C 9.40625 59.796875 8.90625 59.796875 8.796875 59.5 
C 8.703125 59.296875 8.703125 59.09375 8.703125 57 
C 11.796875 57 17 57.59375 21 59.984375 
L 21 7.203125 
C 21 3.6875 20.796875 2.5 12.203125 2.5 
L 9.203125 2.5 
L 9.203125 0 
C 14 0 19 0 23.796875 0 
C 28.59375 0 33.59375 0 38.40625 0 
L 38.40625 2.5 
L 35.40625 2.5 
C 26.796875 2.5 26.59375 3.59375 26.59375 7.15625 
z
" id="CMR17-49"/>
       </defs>
       <use transform="scale(0.996264)" xlink:href="#CMR17-49"/>
       <use transform="translate(45.690477 0)scale(0.996264)" xlink:href="#CMMI12-58"/>
       <use transform="translate(72.787654 0)scale(0.996264)" xlink:href="#CMR17-48"/>
      </g>
     </g>
    </g>
    <g id="text_7">
     <!-- $\tilde{x}$ -->
     <g transform="translate(184.18754 211.356355)scale(0.1 -0.1)">
      <defs>
       <path d="M 37.5 65.375 
C 34.09375 62.1875 32.203125 60.390625 29.09375 60.390625 
C 26.90625 60.390625 25.40625 61.4375 23.296875 62.875 
C 21.296875 64.234375 19.703125 65.375 17.5 65.375 
C 13.90625 65.375 11.40625 62.5625 7.203125 58.09375 
L 8.296875 57 
C 11.703125 60.15625 13.59375 62 16.703125 62 
C 18.90625 62 20.40625 60.9375 22.5 59.5 
C 24.5 58.15625 26.09375 57 28.296875 57 
C 31.90625 57 34.40625 59.8125 38.59375 64.28125 
z
" id="CMR17-126"/>
       <path d="M 47.40625 40.71875 
C 44.203125 40.109375 43 37.71875 43 35.828125 
C 43 33.421875 44.90625 32.625 46.296875 32.625 
C 49.296875 32.625 51.40625 35.21875 51.40625 37.921875 
C 51.40625 42.109375 46.59375 44 42.40625 44 
C 36.296875 44 32.90625 38.015625 32 36.125 
C 29.703125 44 23.5 44 21.703125 44 
C 11.5 44 6.09375 30.9375 6.09375 28.734375 
C 6.09375 28.34375 6.5 27.84375 7.203125 27.84375 
C 8 27.84375 8.203125 28.4375 8.40625 28.84375 
C 11.796875 39.921875 18.5 42.015625 21.40625 42.015625 
C 25.90625 42.015625 26.796875 37.8125 26.796875 35.421875 
C 26.796875 33.234375 26.203125 30.9375 25 26.140625 
L 21.59375 12.46875 
C 20.09375 6.484375 17.203125 1 11.90625 1 
C 11.40625 1 8.90625 1 6.796875 2.296875 
C 10.40625 3 11.203125 5.984375 11.203125 7.1875 
C 11.203125 9.1875 9.703125 10.375 7.796875 10.375 
C 5.40625 10.375 2.796875 8.28125 2.796875 5.09375 
C 2.796875 0.890625 7.5 -1 11.796875 -1 
C 16.59375 -1 20 2.796875 22.09375 6.890625 
C 23.703125 1 28.703125 -1 32.40625 -1 
C 42.59375 -1 48 12.078125 48 14.265625 
C 48 14.765625 47.59375 15.171875 47 15.171875 
C 46.09375 15.171875 46 14.671875 45.703125 13.875 
C 43 5.09375 37.203125 1 32.703125 1 
C 29.203125 1 27.296875 3.59375 27.296875 7.6875 
C 27.296875 9.875 27.703125 11.46875 29.296875 18.0625 
L 32.796875 31.625 
C 34.296875 37.625 37.703125 42.015625 42.296875 42.015625 
C 42.5 42.015625 45.296875 42.015625 47.40625 40.71875 
z
" id="CMMI12-120"/>
      </defs>
      <use transform="translate(7.581509 0.006461)scale(0.996264)" xlink:href="#CMR17-126"/>
      <use transform="scale(0.996264)" xlink:href="#CMMI12-120"/>
     </g>
    </g>
   </g>
   <g id="matplotlib.axis_2">
    <g id="ytick_1">
     <g id="line2d_7">
      <defs>
       <path d="M 0 0 
L -3.5 0 
" id="m3d1a231e5c" style="stroke:#000000;stroke-width:0.8;"/>
      </defs>
      <g>
       <use style="stroke:#000000;stroke-width:0.8;" x="47.534499" xlink:href="#m3d1a231e5c" y="28.338692"/>
      </g>
     </g>
     <g id="text_8">
      <!-- $\mathdefault{−1.5}$ -->
      <g transform="translate(20.055677 31.797941)scale(0.1 -0.1)">
       <defs>
        <path d="M 65.90625 23 
C 67.59375 23 69.40625 23 69.40625 25 
C 69.40625 27 67.59375 27 65.90625 27 
L 11.796875 27 
C 10.09375 27 8.296875 27 8.296875 25 
C 8.296875 23 10.09375 23 11.796875 23 
z
" id="CMSY10-0"/>
        <path d="M 11.40625 57.6875 
C 12.40625 57.28125 16.5 56 20.703125 56 
C 30 56 35.09375 61.109375 38 64.0625 
C 38 64.953125 38 65.5 37.40625 65.5 
C 37.296875 65.5 37.09375 65.5 36.296875 65.046875 
C 32.796875 63.40625 28.703125 62.078125 23.703125 62.078125 
C 20.703125 62.078125 16.203125 62.484375 11.296875 64.671875 
C 10.203125 65.171875 10 65.171875 9.90625 65.171875 
C 9.40625 65.171875 9.296875 65.0625 9.296875 63.078125 
L 9.296875 34.421875 
C 9.296875 32.640625 9.296875 32.140625 10.296875 32.140625 
C 10.796875 32.140625 11 32.34375 11.5 33.03125 
C 14.703125 37.515625 19.09375 39.40625 24.09375 39.40625 
C 27.59375 39.40625 35.09375 37.21875 35.09375 20.140625 
C 35.09375 16.953125 35.09375 11.171875 32.09375 6.578125 
C 29.59375 2.484375 25.703125 0.390625 21.40625 0.390625 
C 14.796875 0.390625 8.09375 5 6.296875 12.71875 
C 6.703125 12.609375 7.5 12.421875 7.90625 12.421875 
C 9.203125 12.421875 11.703125 13.125 11.703125 16.21875 
C 11.703125 18.90625 9.796875 20 7.90625 20 
C 5.59375 20 4.09375 18.59375 4.09375 15.796875 
C 4.09375 7.09375 11 -2 21.59375 -2 
C 31.90625 -2 41.703125 6.875 41.703125 19.75 
C 41.703125 31.71875 33.90625 41 24.203125 41 
C 19.09375 41 14.796875 39.109375 11.40625 35.53125 
z
" id="CMR17-53"/>
       </defs>
       <use transform="scale(0.996264)" xlink:href="#CMSY10-0"/>
       <use transform="translate(77.487468 0)scale(0.996264)" xlink:href="#CMR17-49"/>
       <use transform="translate(123.177945 0)scale(0.996264)" xlink:href="#CMMI12-58"/>
       <use transform="translate(150.275122 0)scale(0.996264)" xlink:href="#CMR17-53"/>
      </g>
     </g>
    </g>
    <g id="ytick_2">
     <g id="line2d_8">
      <g>
       <use style="stroke:#000000;stroke-width:0.8;" x="47.534499" xlink:href="#m3d1a231e5c" y="56.576092"/>
      </g>
     </g>
     <g id="text_9">
      <!-- $\mathdefault{−1.0}$ -->
      <g transform="translate(20.055677 60.035341)scale(0.1 -0.1)">
       <use transform="scale(0.996264)" xlink:href="#CMSY10-0"/>
       <use transform="translate(77.487468 0)scale(0.996264)" xlink:href="#CMR17-49"/>
       <use transform="translate(123.177945 0)scale(0.996264)" xlink:href="#CMMI12-58"/>
       <use transform="translate(150.275122 0)scale(0.996264)" xlink:href="#CMR17-48"/>
      </g>
     </g>
    </g>
    <g id="ytick_3">
     <g id="line2d_9">
      <g>
       <use style="stroke:#000000;stroke-width:0.8;" x="47.534499" xlink:href="#m3d1a231e5c" y="84.813491"/>
      </g>
     </g>
     <g id="text_10">
      <!-- $\mathdefault{−0.5}$ -->
      <g transform="translate(20.055677 88.27274)scale(0.1 -0.1)">
       <use transform="scale(0.996264)" xlink:href="#CMSY10-0"/>
       <use transform="translate(77.487468 0)scale(0.996264)" xlink:href="#CMR17-48"/>
       <use transform="translate(123.177945 0)scale(0.996264)" xlink:href="#CMMI12-58"/>
       <use transform="translate(150.275122 0)scale(0.996264)" xlink:href="#CMR17-53"/>
      </g>
     </g>
    </g>
    <g id="ytick_4">
     <g id="line2d_10">
      <g>
       <use style="stroke:#000000;stroke-width:0.8;" x="47.534499" xlink:href="#m3d1a231e5c" y="113.050891"/>
      </g>
     </g>
     <g id="text_11">
      <!-- $\mathdefault{0.0}$ -->
      <g transform="translate(27.80442 116.51014)scale(0.1 -0.1)">
       <use transform="scale(0.996264)" xlink:href="#CMR17-48"/>
       <use transform="translate(45.690477 0)scale(0.996264)" xlink:href="#CMMI12-58"/>
       <use transform="translate(72.787654 0)scale(0.996264)" xlink:href="#CMR17-48"/>
      </g>
     </g>
    </g>
    <g id="ytick_5">
     <g id="line2d_11">
      <g>
       <use style="stroke:#000000;stroke-width:0.8;" x="47.534499" xlink:href="#m3d1a231e5c" y="141.28829"/>
      </g>
     </g>
     <g id="text_12">
      <!-- $\mathdefault{0.5}$ -->
      <g transform="translate(27.80442 144.74754)scale(0.1 -0.1)">
       <use transform="scale(0.996264)" xlink:href="#CMR17-48"/>
       <use transform="translate(45.690477 0)scale(0.996264)" xlink:href="#CMMI12-58"/>
       <use transform="translate(72.787654 0)scale(0.996264)" xlink:href="#CMR17-53"/>
      </g>
     </g>
    </g>
    <g id="ytick_6">
     <g id="line2d_12">
      <g>
       <use style="stroke:#000000;stroke-width:0.8;" x="47.534499" xlink:href="#m3d1a231e5c" y="169.52569"/>
      </g>
     </g>
     <g id="text_13">
      <!-- $\mathdefault{1.0}$ -->
      <g transform="translate(27.80442 172.984939)scale(0.1 -0.1)">
       <use transform="scale(0.996264)" xlink:href="#CMR17-49"/>
       <use transform="translate(45.690477 0)scale(0.996264)" xlink:href="#CMMI12-58"/>
       <use transform="translate(72.787654 0)scale(0.996264)" xlink:href="#CMR17-48"/>
      </g>
     </g>
    </g>
    <g id="text_14">
     <!-- $c_p$ -->
     <g transform="translate(13.205282 107.251348)rotate(-90)scale(0.1 -0.1)">
      <defs>
       <path d="M 39.09375 37.984375 
C 37.203125 37.984375 36.296875 37.984375 34.90625 36.796875 
C 34.296875 36.296875 33.203125 34.796875 33.203125 33.203125 
C 33.203125 31.203125 34.703125 30 36.59375 30 
C 39 30 41.703125 31.9375 41.703125 35.8125 
C 41.703125 40.4375 37.09375 44 30.203125 44 
C 17.09375 44 4 29.734375 4 15.5625 
C 4 6.890625 9.40625 -1 19.59375 -1 
C 33.203125 -1 41.796875 9.71875 41.796875 11.03125 
C 41.796875 11.625 41.203125 12.125 40.796875 12.125 
C 40.5 12.125 40.40625 12.03125 39.5 11.140625 
C 33.09375 2.53125 23.59375 1 19.796875 1 
C 12.90625 1 10.703125 6.96875 10.703125 11.9375 
C 10.703125 15.4375 12.40625 25.078125 16 31.859375 
C 18.59375 36.53125 24 41.90625 30.296875 41.90625 
C 31.59375 41.90625 37.09375 41.90625 39.09375 37.984375 
z
" id="CMMI12-99"/>
       <path d="M 4.296875 -12.328125 
C 3.59375 -15.3125 3.203125 -16.109375 -0.90625 -16.109375 
C -2.09375 -16.109375 -3.09375 -16.109375 -3.09375 -18 
C -3.09375 -18.203125 -3 -19 -1.90625 -19 
C -0.59375 -19 0.796875 -19 2.09375 -19 
L 6.40625 -19 
C 8.5 -19 13.59375 -19 15.703125 -19 
C 16.296875 -19 17.5 -19 17.5 -17.203125 
C 17.5 -16.109375 16.796875 -16.109375 15.09375 -16.109375 
C 10.5 -16.109375 10.203125 -15.421875 10.203125 -14.640625 
C 10.203125 -13.453125 14.703125 3.421875 15.296875 5.6875 
C 16.40625 2.890625 19.09375 -1 24.296875 -1 
C 35.59375 -1 47.796875 13.671875 47.796875 28.34375 
C 47.796875 37.515625 42.59375 44 35.09375 44 
C 28.703125 44 23.296875 37.8125 22.203125 36.421875 
C 21.40625 41.40625 17.5 44 13.5 44 
C 10.59375 44 8.296875 42.609375 6.40625 38.8125 
C 4.59375 35.21875 3.203125 29.140625 3.203125 28.734375 
C 3.203125 28.34375 3.59375 27.84375 4.296875 27.84375 
C 5.09375 27.84375 5.203125 27.9375 5.796875 30.234375 
C 7.296875 36.125 9.203125 42.015625 13.203125 42.015625 
C 15.5 42.015625 16.296875 40.421875 16.296875 37.453125 
C 16.296875 35.078125 16 34.078125 15.59375 32.296875 
z
M 21.59375 31.140625 
C 22.296875 33.921875 25.09375 36.828125 26.703125 38.21875 
C 27.796875 39.21875 31.09375 42.015625 34.90625 42.015625 
C 39.296875 42.015625 41.296875 37.625 41.296875 32.4375 
C 41.296875 27.640625 38.5 16.359375 36 11.171875 
C 33.5 5.78125 28.90625 1 24.296875 1 
C 17.5 1 16.40625 9.578125 16.40625 9.984375 
C 16.40625 10.28125 16.59375 11.078125 16.703125 11.578125 
z
" id="CMMI12-112"/>
      </defs>
      <use transform="scale(0.996264)" xlink:href="#CMMI12-99"/>
      <use transform="translate(41.983234 -14.943915)scale(0.697382)" xlink:href="#CMMI12-112"/>
     </g>
    </g>
   </g>
   <g id="line2d_13">
    <path clip-path="url(#p10439df319)" d="M 60.220147 163.690594 
L 60.370328 145.33271 
L 60.762009 124.440977 
L 61.366831 106.246413 
L 61.868841 96.283147 
L 62.745563 85.948211 
L 63.398699 79.407751 
L 64.853111 71.041903 
L 66.48439 65.021811 
L 66.918263 64.043188 
L 67.816704 61.556902 
L 68.755756 59.696212 
L 69.240754 58.687038 
L 70.240918 57.105628 
L 70.75661 56.262614 
L 71.282442 55.663809 
L 72.365464 54.179926 
L 72.922645 53.69327 
L 74.069373 52.304744 
L 74.658822 51.883977 
L 75.871068 50.723783 
L 80.474488 47.528898 
L 82.628314 46.324652 
L 85.680067 44.902152 
L 88.948184 43.626848 
L 90.667563 42.980089 
L 98.154268 40.753499 
L 99.162632 40.547288 
L 102.290213 40.343484 
L 104.463506 40.815405 
L 106.709983 41.509275 
L 116.474615 45.853583 
L 120.480036 48.336742 
L 124.687016 50.819128 
L 127.608389 52.309829 
L 133.744811 54.994501 
L 145.369261 60.024424 
L 151.021224 62.686455 
L 156.67215 65.63019 
L 159.497151 67.309286 
L 162.321807 69.256781 
L 163.734002 70.442448 
L 165.146114 71.824718 
L 166.558125 73.494223 
L 170.793579 79.580844 
L 172.205187 81.222735 
L 173.616703 82.46166 
L 175.028125 83.378699 
L 177.850631 84.717397 
L 182.083623 86.330558 
L 190.54673 89.295846 
L 196.186623 91.034275 
L 200.415422 92.11131 
L 206.052298 93.272238 
L 210.278836 93.951333 
L 214.504423 94.389606 
L 221.544915 94.773995 
L 228.582805 94.984634 
L 232.804268 94.968532 
L 237.024801 94.696049 
L 252.49197 93.261232 
L 256.708053 93.190371 
L 260.923134 93.291817 
L 267.655029 93.742956 
L 275.758369 94.517898 
L 281.833537 95.213791 
L 285.882409 95.901613 
L 288.918408 96.569335 
L 291.953693 97.488325 
L 294.98837 98.721068 
L 299.033443 100.700758 
L 303.077124 102.606238 
L 305.098423 103.35735 
L 307.119338 103.870998 
L 309.139835 104.048964 
L 311.159915 103.874366 
L 312.169789 103.770944 
L 313.179556 103.020282 
L 313.852681 101.323847 
L 313.852681 101.355278 
L 313.852681 100.422102 
L 313.852681 101.745397 
L 313.852681 101.543012 
" style="fill:none;stroke:#1f77b4;stroke-linecap:square;stroke-width:1.5;"/>
   </g>
   <g id="line2d_14">
    <path clip-path="url(#p10439df319)" d="M 60.243293 170.949364 
L 60.370328 175.947823 
L 60.474778 176.976325 
L 60.60574 177.138725 
L 60.762009 176.475788 
L 61.366831 171.237783 
L 62.439071 161.666594 
L 63.398699 154.581127 
L 64.853111 146.511126 
L 66.48439 139.83925 
L 68.281272 134.249051 
L 69.240754 131.649971 
L 71.81854 126.229927 
L 73.490442 123.345331 
L 75.871068 120.050163 
L 77.773824 117.793576 
L 79.100312 116.338292 
L 83.371726 112.568121 
L 87.286225 109.833336 
L 92.445948 107.032572 
L 98.154268 104.667202 
L 103.36788 103.066985 
L 106.709983 102.19446 
L 115.182632 100.586475 
L 121.859492 99.786654 
L 130.626622 99.211456 
L 139.716575 99.039165 
L 152.434058 99.321087 
L 167.970031 100.153092 
L 184.905095 101.405227 
L 208.870106 103.463323 
L 251.086394 107.340922 
L 270.694155 109.3267 
L 288.918408 111.452721 
L 306.108924 113.512428 
L 308.12963 113.595539 
L 310.149931 113.445936 
L 311.159915 113.15542 
L 312.169789 112.739149 
L 313.179556 108.870245 
L 313.852681 100.977628 
L 313.852681 97.064902 
L 313.852681 102.307611 
L 313.852681 102.307611 
" style="fill:none;stroke:#1f77b4;stroke-dasharray:5.55,2.4;stroke-dashoffset:0;stroke-width:1.5;"/>
   </g>
   <g id="line2d_15">
    <path clip-path="url(#p10439df319)" d="M 60.216318 167.019851 
L 60.317728 152.473269 
L 60.606308 134.13016 
L 61.078329 117.270714 
L 61.69862 103.443227 
L 62.441532 92.453325 
L 63.288049 84.060237 
L 64.225178 77.668029 
L 65.244116 72.732754 
L 66.339739 68.844766 
L 67.509045 65.698252 
L 68.750744 63.083812 
L 71.452154 58.242846 
L 72.913899 56.532118 
L 76.066642 53.262212 
L 76.904563 52.512133 
L 79.541776 50.801191 
L 84.372244 48.046257 
L 88.658499 46.320914 
L 92.139079 44.957069 
L 97.161318 43.477104 
L 101.233964 42.468009 
L 102.653053 42.298569 
L 104.103979 42.346932 
L 107.104031 42.79932 
L 108.65453 43.157404 
L 110.239622 43.855973 
L 111.860026 44.913663 
L 113.516494 46.150969 
L 116.940656 49.189933 
L 120.518377 52.510543 
L 122.366862 54.574337 
L 124.256216 57.33175 
L 128.161022 63.717459 
L 130.178263 66.598636 
L 136.491539 74.689982 
L 138.448349 76.78227 
L 142.361876 80.097738 
L 146.275155 83.403674 
L 148.231661 85.225401 
L 150.188057 86.882257 
L 152.144338 88.118028 
L 154.100483 88.981366 
L 156.056489 89.641253 
L 159.968043 90.638104 
L 163.878936 91.338997 
L 169.74394 92.05022 
L 177.561274 92.69124 
L 187.328419 93.213601 
L 195.138432 93.381617 
L 199.042194 93.31421 
L 202.945131 93.060922 
L 208.797987 92.5344 
L 216.598931 92.143707 
L 230.242783 91.802868 
L 234.139222 92.001387 
L 243.876806 92.824259 
L 247.770437 93.360678 
L 253.609313 94.536833 
L 263.318216 96.632846 
L 269.107789 97.654186 
L 277.789095 98.94168 
L 290.802869 100.666742 
L 298.027687 101.497798 
L 300.916424 102.023651 
L 303.804481 102.786959 
L 306.691677 103.883807 
L 309.578108 105.265364 
L 311.020998 105.999386 
L 312.463667 106.859751 
L 313.852681 106.32436 
L 313.852681 106.839727 
L 313.852681 105.863564 
L 313.852681 105.953734 
" style="fill:none;stroke:#ff7f0e;stroke-linecap:square;stroke-width:1.5;"/>
   </g>
   <g id="line2d_16">
    <path clip-path="url(#p10439df319)" d="M 60.24374 172.534824 
L 60.438809 177.169453 
L 60.606308 177.130521 
L 61.078329 173.08312 
L 62.441532 159.793457 
L 63.288049 153.301969 
L 64.225178 147.51414 
L 65.244116 142.42588 
L 66.339739 137.959923 
L 67.509045 134.001187 
L 68.750744 130.446644 
L 70.064651 127.185437 
L 71.452154 124.331468 
L 73.673018 120.580667 
L 76.066642 117.099208 
L 77.762819 115.189106 
L 80.463242 112.405798 
L 82.372207 110.657041 
L 85.407329 108.46101 
L 88.658499 106.358284 
L 90.952486 105.047138 
L 94.593888 103.397692 
L 98.488726 101.873321 
L 102.653053 100.522653 
L 107.104031 99.359738 
L 111.860026 98.389698 
L 116.940656 97.61799 
L 122.366862 97.047447 
L 130.178263 96.539793 
L 134.347059 96.44122 
L 144.318556 96.475514 
L 154.100483 96.816534 
L 165.834121 97.504437 
L 179.51511 98.549952 
L 210.748527 101.243087 
L 287.911907 108.107374 
L 303.804481 109.543276 
L 308.135018 109.738415 
L 309.578108 109.747425 
L 311.020998 109.599142 
L 312.463667 109.775474 
L 313.852681 105.783632 
L 313.852681 106.085076 
L 313.852681 104.617678 
L 313.852681 106.614821 
L 313.852681 105.71778 
" style="fill:none;stroke:#ff7f0e;stroke-dasharray:5.55,2.4;stroke-dashoffset:0;stroke-width:1.5;"/>
   </g>
   <g id="line2d_17">
    <path clip-path="url(#p10439df319)" d="M 98.260963 184.58218 
L 98.260963 21.50218 
" style="fill:none;stroke:#1f77b4;stroke-dasharray:1,1.65;stroke-dashoffset:0;"/>
   </g>
   <g id="line2d_18">
    <path clip-path="url(#p10439df319)" d="M 171.815785 184.58218 
L 171.815785 21.50218 
" style="fill:none;stroke:#1f77b4;stroke-dasharray:1,1.65;stroke-dashoffset:0;"/>
   </g>
   <g id="line2d_19">
    <path clip-path="url(#p10439df319)" d="M 103.333709 184.58218 
L 103.333709 21.50218 
" style="fill:none;stroke:#ff7f0e;stroke-dasharray:1,1.65;stroke-dashoffset:0;"/>
   </g>
   <g id="line2d_20">
    <path clip-path="url(#p10439df319)" d="M 151.524799 184.58218 
L 151.524799 21.50218 
" style="fill:none;stroke:#ff7f0e;stroke-dasharray:1,1.65;stroke-dashoffset:0;"/>
   </g>
   <g id="patch_3">
    <path d="M 47.534499 184.58218 
L 47.534499 21.50218 
" style="fill:none;stroke:#000000;stroke-linecap:square;stroke-linejoin:miter;stroke-width:0.8;"/>
   </g>
   <g id="patch_4">
    <path d="M 326.534499 184.58218 
L 326.534499 21.50218 
" style="fill:none;stroke:#000000;stroke-linecap:square;stroke-linejoin:miter;stroke-width:0.8;"/>
   </g>
   <g id="patch_5">
    <path d="M 47.534499 184.58218 
L 326.534499 184.58218 
" style="fill:none;stroke:#000000;stroke-linecap:square;stroke-linejoin:miter;stroke-width:0.8;"/>
   </g>
   <g id="patch_6">
    <path d="M 47.534499 21.50218 
L 326.534499 21.50218 
" style="fill:none;stroke:#000000;stroke-linecap:square;stroke-linejoin:miter;stroke-width:0.8;"/>
   </g>
   <g id="text_15">
    <!-- $\tilde{x}=0.15$ -->
    <g style="fill:#1f77b4;" transform="translate(95.033969 160.167909)rotate(-90)scale(0.1 -0.1)">
     <defs>
      <path d="M 64.296875 31.515625 
C 65.796875 31.515625 67.296875 31.515625 67.296875 33.203125 
C 67.296875 35 65.59375 35 63.90625 35 
L 8 35 
C 6.296875 35 4.59375 35 4.59375 33.203125 
C 4.59375 31.515625 6.09375 31.515625 7.59375 31.515625 
z
M 63.90625 14 
C 65.59375 14 67.296875 14 67.296875 15.796875 
C 67.296875 17.484375 65.796875 17.484375 64.296875 17.484375 
L 7.59375 17.484375 
C 6.09375 17.484375 4.59375 17.484375 4.59375 15.796875 
C 4.59375 14 6.296875 14 8 14 
z
" id="CMR17-61"/>
     </defs>
     <use transform="translate(7.581509 0.006461)scale(0.996264)" xlink:href="#CMR17-126"/>
     <use transform="scale(0.996264)" xlink:href="#CMMI12-120"/>
     <use transform="translate(83.108068 0)scale(0.996264)" xlink:href="#CMR17-61"/>
     <use transform="translate(182.496865 0)scale(0.996264)" xlink:href="#CMR17-48"/>
     <use transform="translate(228.187343 0)scale(0.996264)" xlink:href="#CMMI12-58"/>
     <use transform="translate(255.28452 0)scale(0.996264)" xlink:href="#CMR17-49"/>
     <use transform="translate(300.974997 0)scale(0.996264)" xlink:href="#CMR17-53"/>
    </g>
   </g>
   <g id="text_16">
    <!-- $\tilde{x}=0.44$ -->
    <g style="fill:#1f77b4;" transform="translate(168.58879 160.167909)rotate(-90)scale(0.1 -0.1)">
     <use transform="translate(7.581509 0.006461)scale(0.996264)" xlink:href="#CMR17-126"/>
     <use transform="scale(0.996264)" xlink:href="#CMMI12-120"/>
     <use transform="translate(83.108068 0)scale(0.996264)" xlink:href="#CMR17-61"/>
     <use transform="translate(182.496865 0)scale(0.996264)" xlink:href="#CMR17-48"/>
     <use transform="translate(228.187343 0)scale(0.996264)" xlink:href="#CMMI12-58"/>
     <use transform="translate(255.28452 0)scale(0.996264)" xlink:href="#CMR17-52"/>
     <use transform="translate(300.974997 0)scale(0.996264)" xlink:href="#CMR17-52"/>
    </g>
   </g>
   <g id="text_17">
    <!-- $\tilde{x}=0.17$ -->
    <g style="fill:#ff7f0e;" transform="translate(112.788581 160.167909)rotate(-90)scale(0.1 -0.1)">
     <defs>
      <path d="M 45.09375 61.578125 
L 45.09375 63.765625 
L 21.59375 63.765625 
C 9.90625 63.765625 9.703125 65.078125 9.296875 67 
L 7.5 67 
L 4.59375 48.34375 
L 6.40625 48.34375 
C 6.703125 50.234375 7.40625 55.3125 8.59375 57.203125 
C 9.203125 58 16.59375 58 18.296875 58 
L 40.296875 58 
L 29.203125 41.578125 
C 21.796875 30.53125 16.703125 15.609375 16.703125 2.578125 
C 16.703125 1.390625 16.703125 -2 20.296875 -2 
C 23.90625 -2 23.90625 1.390625 23.90625 2.671875 
L 23.90625 7.265625 
C 23.90625 23.5625 26.703125 34.3125 31.296875 41.1875 
z
" id="CMR17-55"/>
     </defs>
     <use transform="translate(7.581509 0.006461)scale(0.996264)" xlink:href="#CMR17-126"/>
     <use transform="scale(0.996264)" xlink:href="#CMMI12-120"/>
     <use transform="translate(83.108068 0)scale(0.996264)" xlink:href="#CMR17-61"/>
     <use transform="translate(182.496865 0)scale(0.996264)" xlink:href="#CMR17-48"/>
     <use transform="translate(228.187343 0)scale(0.996264)" xlink:href="#CMMI12-58"/>
     <use transform="translate(255.28452 0)scale(0.996264)" xlink:href="#CMR17-49"/>
     <use transform="translate(300.974997 0)scale(0.996264)" xlink:href="#CMR17-55"/>
    </g>
   </g>
   <g id="text_18">
    <!-- $\tilde{x}=0.36$ -->
    <g style="fill:#ff7f0e;" transform="translate(148.297805 160.167909)rotate(-90)scale(0.1 -0.1)">
     <defs>
      <path d="M 22.09375 33.703125 
C 31 33.703125 34.90625 25.96875 34.90625 17.03125 
C 34.90625 5 28.5 0.390625 22.703125 0.390625 
C 17.40625 0.390625 8.796875 3.03125 6.09375 10.828125 
C 6.59375 10.625 7.09375 10.625 7.59375 10.625 
C 10 10.625 11.796875 12.21875 11.796875 14.8125 
C 11.796875 17.703125 9.59375 19 7.59375 19 
C 5.90625 19 3.296875 18.203125 3.296875 14.46875 
C 3.296875 5.234375 12.296875 -2 22.90625 -2 
C 34 -2 42.5 6.71875 42.5 16.953125 
C 42.5 26.671875 34.5 33.703125 25 34.796875 
C 32.59375 36.375 39.90625 43.0625 39.90625 52.015625 
C 39.90625 59.6875 32 65.296875 23 65.296875 
C 13.90625 65.296875 5.90625 59.828125 5.90625 52.015625 
C 5.90625 48.59375 8.5 48 9.796875 48 
C 11.90625 48 13.703125 49.296875 13.703125 51.890625 
C 13.703125 54.46875 11.90625 55.765625 9.796875 55.765625 
C 9.40625 55.765625 8.90625 55.765625 8.5 55.578125 
C 11.40625 61.859375 19.296875 63 22.796875 63 
C 26.296875 63 32.90625 61.328125 32.90625 51.875 
C 32.90625 49.109375 32.5 44.1875 29.09375 39.84375 
C 26.09375 36 22.703125 36 19.40625 35.6875 
C 18.90625 35.6875 16.59375 35.453125 16.203125 35.453125 
C 15.5 35.359375 15.09375 35.265625 15.09375 34.5 
C 15.09375 33.796875 15.203125 33.703125 17.203125 33.703125 
z
" id="CMR17-51"/>
     </defs>
     <use transform="translate(7.581509 0.006461)scale(0.996264)" xlink:href="#CMR17-126"/>
     <use transform="scale(0.996264)" xlink:href="#CMMI12-120"/>
     <use transform="translate(83.108068 0)scale(0.996264)" xlink:href="#CMR17-61"/>
     <use transform="translate(182.496865 0)scale(0.996264)" xlink:href="#CMR17-48"/>
     <use transform="translate(228.187343 0)scale(0.996264)" xlink:href="#CMMI12-58"/>
     <use transform="translate(255.28452 0)scale(0.996264)" xlink:href="#CMR17-51"/>
     <use transform="translate(300.974997 0)scale(0.996264)" xlink:href="#CMR17-54"/>
    </g>
   </g>
   <g id="text_19">
    <!-- $\alpha = 4^\circ$, SA-IDDES model -->
    <g transform="translate(124.062317 15.50218)scale(0.12 -0.12)">
     <defs>
      <path d="M 46.296875 25.25 
C 46.296875 34.921875 40.796875 43.984375 30.203125 43.984375 
C 17.09375 43.984375 4 29.71875 4 15.5625 
C 4 6.890625 9.40625 -1 19.59375 -1 
C 25.796875 -1 33.203125 1.390625 40.296875 7.375 
C 41.703125 1.796875 44.796875 -1 49.09375 -1 
C 54.5 -1 57.203125 4.59375 57.203125 5.890625 
C 57.203125 6.78125 56.5 6.78125 56.203125 6.78125 
C 55.40625 6.78125 55.296875 6.484375 55 5.6875 
C 54.09375 3.1875 51.796875 1 49.40625 1 
C 46.296875 1 46.296875 7.375 46.296875 13.46875 
C 56.5 25.640625 58.90625 38.21875 58.90625 38.3125 
C 58.90625 39.21875 58.09375 39.21875 57.796875 39.21875 
C 56.90625 39.21875 56.796875 38.921875 56.40625 37.125 
C 55.09375 32.734375 52.5 24.953125 46.296875 16.765625 
z
M 40 9.78125 
C 31.203125 1.890625 23.296875 1 19.796875 1 
C 12.703125 1 10.703125 7.28125 10.703125 11.96875 
C 10.703125 16.25 12.90625 26.4375 16 31.9375 
C 20.09375 38.921875 25.703125 42 30.203125 42 
C 39.90625 42 39.90625 29.328125 39.90625 20.953125 
C 39.90625 18.46875 39.796875 15.875 39.796875 13.375 
C 39.796875 11.375 39.90625 10.875 40 9.78125 
z
" id="CMMI12-11"/>
      <path d="M 44.40625 25 
C 44.40625 35.578125 35.5 44.1875 25 44.1875 
C 14.203125 44.1875 5.5 35.375 5.5 25 
C 5.5 14.53125 14.203125 5.8125 25 5.8125 
C 35.5 5.8125 44.40625 14.421875 44.40625 25 
z
M 25 9.8125 
C 16.296875 9.8125 9.5 16.71875 9.5 25 
C 9.5 33.28125 16.40625 40.1875 25 40.1875 
C 33.296875 40.1875 40.40625 33.46875 40.40625 25 
C 40.40625 16.53125 33.296875 9.8125 25 9.8125 
z
" id="CMSY10-14"/>
      <path d="M 17 0.09375 
L 17 7.96875 
L 9 7.96875 
L 9 0 
L 11.5 0 
L 8.90625 -12.5 
L 12.90625 -12.5 
z
" id="CMSS17-44"/>
      <path d="M 43.703125 65.140625 
C 39.296875 67.71875 34.5 70 26.40625 70 
C 13.5 70 5.203125 60.609375 5.203125 51.03125 
C 5.203125 47.265625 6.296875 43.015625 10.203125 38.671875 
C 14.09375 34.3125 18.5 33.140625 24.09375 31.765625 
C 26.40625 31.15625 30.296875 30.0625 31 29.78125 
C 36.59375 27.609375 39.296875 22.5625 39.296875 17.8125 
C 39.296875 11.59375 34.40625 4.96875 25.703125 4.96875 
C 22.703125 4.96875 13.90625 4.96875 5.59375 12.796875 
L 4.203125 4.96875 
C 12.40625 -1 21.296875 -2 25.796875 -2 
C 38.09375 -2 46.90625 7.625 46.90625 18.53125 
C 46.90625 22.5 45.703125 27.546875 41.5 32.203125 
C 37.40625 36.671875 33.796875 37.65625 25.59375 39.828125 
C 20.90625 41.03125 17.90625 41.828125 15.40625 44.890625 
C 13.703125 47.078125 12.796875 49.15625 12.796875 51.828125 
C 12.796875 57.390625 17.59375 63.4375 26.40625 63.4375 
C 30.796875 63.4375 36.5 62.53125 42.296875 57.1875 
z
" id="CMSS17-83"/>
      <path d="M 35.5 69 
L 26.90625 69 
L 2.59375 0 
L 10.203125 0 
L 17.203125 20 
L 44 20 
L 51.09375 0 
L 59.796875 0 
z
M 42.09375 25.578125 
L 19.09375 25.578125 
C 23.90625 39.5 29.90625 56.84375 30.59375 61.328125 
L 30.703125 61.328125 
C 31.40625 57.234375 33.40625 51.265625 35.09375 46.1875 
z
" id="CMSS17-65"/>
      <path d="M 26 19 
L 26 24.765625 
L 1 24.765625 
L 1 19 
z
" id="CMSS17-45"/>
      <path d="M 17.09375 69 
L 8.703125 69 
L 8.703125 0 
L 17.09375 0 
z
" id="CMSS17-73"/>
      <path d="M 8.90625 69 
L 8.90625 0 
L 33.5 0 
C 49.90625 0 62.5 15.3125 62.5 33.90625 
C 62.5 53.09375 49.90625 69 33.5 69 
z
M 17.09375 5.578125 
L 17.09375 63.421875 
L 31.296875 63.421875 
C 44.703125 63.421875 54.296875 51.203125 54.296875 33.90625 
C 54.296875 17.296875 44.796875 5.578125 31.296875 5.578125 
z
" id="CMSS17-68"/>
      <path d="M 30.59375 6.765625 
C 22.59375 6.765625 19 6.765625 17.203125 6.765625 
L 17.203125 32.921875 
L 48.203125 32.921875 
L 48.203125 39 
L 17.203125 39 
L 17.203125 62.640625 
L 30.09375 62.640625 
C 31.296875 62.640625 32.5 62.640625 33.703125 62.640625 
L 50.796875 62.640625 
L 50.796875 69 
L 8.796875 69 
L 8.796875 0 
L 52.09375 0 
L 52.09375 6.765625 
z
" id="CMSS17-69"/>
      <path d="M 67 29.328125 
C 67 36.0625 65.296875 44 54.09375 44 
C 46.59375 44 42.09375 39.3125 40.09375 36.421875 
C 38.296875 41.71875 34.09375 44 28.09375 44 
C 21.296875 44 17 40.125 14.703125 37.328125 
L 14.703125 43.09375 
L 7.40625 43.09375 
L 7.40625 0 
L 15 0 
L 15 24.359375 
C 15 30.296875 17.203125 37.9375 24.296875 37.9375 
C 33.40625 37.9375 33.40625 31.5 33.40625 28.578125 
L 33.40625 0 
L 41 0 
L 41 24.359375 
C 41 30.296875 43.203125 37.9375 50.296875 37.9375 
C 59.40625 37.9375 59.40625 31.5 59.40625 28.578125 
L 59.40625 0 
L 67 0 
z
" id="CMSS17-109"/>
      <path d="M 44.203125 21.1875 
C 44.203125 34 34.703125 44 23.5 44 
C 12 44 2.703125 33.703125 2.703125 21.1875 
C 2.703125 8.5 12.296875 -1 23.40625 -1 
C 34.796875 -1 44.203125 8.796875 44.203125 21.1875 
z
M 23.5 5.265625 
C 16.40625 5.265625 10.296875 11.078125 10.296875 22 
C 10.296875 33.609375 17.40625 37.921875 23.40625 37.921875 
C 29.90625 37.921875 36.59375 33.21875 36.59375 22 
C 36.59375 10.671875 30.09375 5.265625 23.5 5.265625 
z
" id="CMSS17-111"/>
      <path d="M 40.796875 69 
L 33.40625 69 
L 33.40625 38.09375 
C 30.296875 40.671875 25.203125 43.0625 19.59375 43.0625 
C 10.5 43.0625 3.296875 33.296875 3.296875 21.046875 
C 3.296875 8.78125 10.40625 -1 19.296875 -1 
C 26.203125 -1 30.796875 2.6875 33.203125 4.78125 
L 33.203125 -0.203125 
L 40.796875 -0.203125 
z
M 33.203125 13.0625 
C 33.203125 11.671875 33.203125 10.203125 30.09375 7.53125 
C 28.09375 5.859375 25.703125 5.078125 23.40625 5.078125 
C 18 5.078125 10.90625 9 10.90625 20.9375 
C 10.90625 33.34375 18.90625 37 24.40625 37 
C 28.09375 37 31.09375 35.21875 33.203125 32.265625 
z
" id="CMSS17-100"/>
      <path d="M 39.09375 21.515625 
C 39.09375 24.84375 38.90625 31.296875 35.703125 36.640625 
C 32.203125 42.390625 26.5 44 22.203125 44 
C 11.796875 44 3 34.1875 3 21.484375 
C 3 9.09375 12.09375 -1 23.59375 -1 
C 28.09375 -1 33.59375 0.296875 38.59375 3.875 
C 38.59375 4.28125 38.40625 6.46875 38.296875 6.5625 
C 38.296875 6.765625 38 9.84375 38 10.25 
C 33.203125 6.359375 27.703125 5.078125 23.703125 5.078125 
C 17.296875 5.078125 10.40625 10.421875 10.09375 21.515625 
z
M 10.90625 27 
C 12.203125 32.5625 16.59375 37.828125 22.203125 37.828125 
C 23.703125 37.828125 30.703125 37.828125 32.5 27 
z
" id="CMSS17-101"/>
      <path d="M 14.796875 69 
L 7.40625 69 
L 7.40625 0 
L 14.796875 0 
z
" id="CMSS17-108"/>
     </defs>
     <use transform="scale(0.996264)" xlink:href="#CMMI12-11"/>
     <use transform="translate(90.355032 0)scale(0.996264)" xlink:href="#CMR17-61"/>
     <use transform="translate(189.743829 0)scale(0.996264)" xlink:href="#CMR17-52"/>
     <use transform="translate(235.434306 36.153639)scale(0.697382)" xlink:href="#CMSY10-14"/>
     <use transform="translate(270.801648 0)scale(0.996264)" xlink:href="#CMSS17-44"/>
     <use transform="translate(328.054965 0)scale(0.996264)" xlink:href="#CMSS17-83"/>
     <use transform="translate(380.103482 0)scale(0.996264)" xlink:href="#CMSS17-65"/>
     <use transform="translate(442.321336 0)scale(0.996264)" xlink:href="#CMSS17-45"/>
     <use transform="translate(473.550449 0)scale(0.996264)" xlink:href="#CMSS17-73"/>
     <use transform="translate(499.334375 0)scale(0.996264)" xlink:href="#CMSS17-68"/>
     <use transform="translate(566.877216 0)scale(0.996264)" xlink:href="#CMSS17-68"/>
     <use transform="translate(634.420058 0)scale(0.996264)" xlink:href="#CMSS17-69"/>
     <use transform="translate(690.312071 0)scale(0.996264)" xlink:href="#CMSS17-83"/>
     <use transform="translate(773.5897 0)scale(0.996264)" xlink:href="#CMSS17-109"/>
     <use transform="translate(847.818955 0)scale(0.996264)" xlink:href="#CMSS17-111"/>
     <use transform="translate(897.265017 0)scale(0.996264)" xlink:href="#CMSS17-100"/>
     <use transform="translate(945.46996 0)scale(0.996264)" xlink:href="#CMSS17-101"/>
     <use transform="translate(987.108782 0)scale(0.996264)" xlink:href="#CMSS17-108"/>
    </g>
   </g>
   <g id="legend_1">
    <g id="patch_7">
     <path d="M 215.181274 179.58218 
L 319.534499 179.58218 
Q 321.534499 179.58218 321.534499 177.58218 
L 321.534499 164.046564 
Q 321.534499 162.046564 319.534499 162.046564 
L 215.181274 162.046564 
Q 213.181274 162.046564 213.181274 164.046564 
L 213.181274 177.58218 
Q 213.181274 179.58218 215.181274 179.58218 
z
" style="fill:#ffffff;opacity:0.8;stroke:#cccccc;stroke-linejoin:miter;"/>
    </g>
    <g id="line2d_21">
     <path d="M 217.181274 170.145001 
L 237.181274 170.145001 
" style="fill:none;stroke:#1f77b4;stroke-linecap:square;stroke-width:1.5;"/>
    </g>
    <g id="line2d_22"/>
    <g id="text_20">
     <!-- 2D -->
     <g transform="translate(245.181274 173.645001)scale(0.1 -0.1)">
      <defs>
       <path d="M 25.796875 21.203125 
C 28.59375 24.078125 32.796875 27.5625 35.703125 31.046875 
C 38.5 34.4375 42.203125 39.234375 42.203125 46.203125 
C 42.203125 57.140625 34.796875 67 22.203125 67 
C 12.296875 67 6.59375 60.828125 3.90625 51.15625 
L 7.796875 45.765625 
C 10 54.84375 13.09375 60.625 20.90625 60.625 
C 29.5 60.625 34.296875 53.640625 34.296875 45.96875 
C 34.296875 36.796875 27.296875 29.703125 22 24.421875 
C 16.09375 18.546875 10.296875 12.5625 4.703125 6.375 
L 4.703125 0 
L 42.203125 0 
L 42.203125 6.765625 
L 25.203125 6.765625 
C 24 6.765625 22.796875 6.765625 21.59375 6.765625 
L 11.59375 6.765625 
L 11.59375 6.859375 
z
" id="CMSS17-50"/>
      </defs>
      <use transform="scale(0.996264)" xlink:href="#CMSS17-50"/>
      <use transform="translate(46.843624 0)scale(0.996264)" xlink:href="#CMSS17-68"/>
     </g>
    </g>
    <g id="line2d_23">
     <path d="M 277.357887 170.145001 
L 297.357887 170.145001 
" style="fill:none;stroke:#ff7f0e;stroke-linecap:square;stroke-width:1.5;"/>
    </g>
    <g id="line2d_24"/>
    <g id="text_21">
     <!-- 3D -->
     <g transform="translate(305.357887 173.645001)scale(0.1 -0.1)">
      <defs>
       <path d="M 15.703125 31.640625 
L 22.5 31.640625 
C 31.90625 31.640625 34.59375 23.546875 34.59375 17.90625 
C 34.59375 10.203125 30.203125 4.171875 23 4.171875 
C 17.40625 4.171875 9.5 6.9375 5 14.25 
C 4.296875 10.796875 4.296875 10.59375 3.90625 8.21875 
C 8.59375 1.375 16.203125 -2 23.203125 -2 
C 34.59375 -2 43 7.390625 43 17.78125 
C 43 25.59375 37.5 32.140625 30 34.609375 
C 36 37.875 40.40625 44 40.40625 51.140625 
C 40.40625 59.453125 32.703125 66.078125 23.296875 66.078125 
C 14.703125 66.078125 8 60.8125 5.203125 55.15625 
C 5.90625 54.1875 7.703125 51.3125 8.59375 49.828125 
C 10.796875 55.65625 16.5 60 23.203125 60 
C 28.796875 60 32.5 56.359375 32.5 51.109375 
C 32.5 45.671875 29 39.734375 23.09375 38.359375 
C 22.703125 38.359375 16.5 37.765625 15.703125 37.671875 
z
" id="CMSS17-51"/>
      </defs>
      <use transform="scale(0.996264)" xlink:href="#CMSS17-51"/>
      <use transform="translate(46.843624 0)scale(0.996264)" xlink:href="#CMSS17-68"/>
     </g>
    </g>
   </g>
  </g>
 </g>
 <defs>
  <clipPath id="p10439df319">
   <rect height="163.08" width="279" x="47.534499" y="21.50218"/>
  </clipPath>
 </defs>
</svg>
