<?xml version="1.0" encoding="utf-8" standalone="no"?>
<!DOCTYPE svg PUBLIC "-//W3C//DTD SVG 1.1//EN"
  "http://www.w3.org/Graphics/SVG/1.1/DTD/svg11.dtd">
<!-- Created with matplotlib (https://matplotlib.org/) -->
<svg height="343.351582pt" version="1.1" viewBox="0 0 504.676728 343.351582" width="504.676728pt" xmlns="http://www.w3.org/2000/svg" xmlns:xlink="http://www.w3.org/1999/xlink">
 <metadata>
  <rdf:RDF xmlns:cc="http://creativecommons.org/ns#" xmlns:dc="http://purl.org/dc/elements/1.1/" xmlns:rdf="http://www.w3.org/1999/02/22-rdf-syntax-ns#">
   <cc:Work>
    <dc:type rdf:resource="http://purl.org/dc/dcmitype/StillImage"/>
    <dc:date>2020-09-02T08:59:28.067919</dc:date>
    <dc:format>image/svg+xml</dc:format>
    <dc:creator>
     <cc:Agent>
      <dc:title>Matplotlib v3.3.1, https://matplotlib.org/</dc:title>
     </cc:Agent>
    </dc:creator>
   </cc:Work>
  </rdf:RDF>
 </metadata>
 <defs>
  <style type="text/css">*{stroke-linecap:butt;stroke-linejoin:round;}</style>
 </defs>
 <g id="figure_1">
  <g id="patch_1">
   <path d="M 0 343.351582 
L 504.676728 343.351582 
L 504.676728 0 
L 0 0 
z
" style="fill:none;"/>
  </g>
  <g id="axes_1">
   <g id="patch_2">
    <path d="M 51.076728 303.898 
L 497.476728 303.898 
L 497.476728 32.098 
L 51.076728 32.098 
z
" style="fill:#ffffff;"/>
   </g>
   <g id="PathCollection_1">
    <defs>
     <path d="M 0 3 
C 0.795609 3 1.55874 2.683901 2.12132 2.12132 
C 2.683901 1.55874 3 0.795609 3 0 
C 3 -0.795609 2.683901 -1.55874 2.12132 -2.12132 
C 1.55874 -2.683901 0.795609 -3 0 -3 
C -0.795609 -3 -1.55874 -2.683901 -2.12132 -2.12132 
C -2.683901 -1.55874 -3 -0.795609 -3 0 
C -3 0.795609 -2.683901 1.55874 -2.12132 2.12132 
C -1.55874 2.683901 -0.795609 3 0 3 
z
" id="m57a606622b" style="stroke:#1f77b4;"/>
    </defs>
    <g clip-path="url(#p9007889283)">
     <use style="fill:#1f77b4;stroke:#1f77b4;" x="71.866626" xlink:href="#m57a606622b" y="142.865778"/>
     <use style="fill:#1f77b4;stroke:#1f77b4;" x="72.161528" xlink:href="#m57a606622b" y="289.956283"/>
     <use style="fill:#1f77b4;stroke:#1f77b4;" x="72.305277" xlink:href="#m57a606622b" y="216.941288"/>
     <use style="fill:#1f77b4;stroke:#1f77b4;" x="72.392493" xlink:href="#m57a606622b" y="172.495223"/>
     <use style="fill:#1f77b4;stroke:#1f77b4;" x="72.495708" xlink:href="#m57a606622b" y="120.64301"/>
     <use style="fill:#1f77b4;stroke:#1f77b4;" x="73.42886" xlink:href="#m57a606622b" y="240.220529"/>
     <use style="fill:#1f77b4;stroke:#1f77b4;" x="104.90918" xlink:href="#m57a606622b" y="291.014149"/>
     <use style="fill:#1f77b4;stroke:#1f77b4;" x="105.727674" xlink:href="#m57a606622b" y="172.495223"/>
     <use style="fill:#1f77b4;stroke:#1f77b4;" x="105.786" xlink:href="#m57a606622b" y="142.865778"/>
     <use style="fill:#1f77b4;stroke:#1f77b4;" x="105.830191" xlink:href="#m57a606622b" y="120.114533"/>
     <use style="fill:#1f77b4;stroke:#1f77b4;" x="106.763683" xlink:href="#m57a606622b" y="240.220529"/>
     <use style="fill:#1f77b4;stroke:#1f77b4;" x="181.519487" xlink:href="#m57a606622b" y="291.014149"/>
     <use style="fill:#1f77b4;stroke:#1f77b4;" x="181.666542" xlink:href="#m57a606622b" y="217.469568"/>
     <use style="fill:#1f77b4;stroke:#1f77b4;" x="182.335881" xlink:href="#m57a606622b" y="173.024061"/>
     <use style="fill:#1f77b4;stroke:#1f77b4;" x="182.394223" xlink:href="#m57a606622b" y="143.392971"/>
     <use style="fill:#1f77b4;stroke:#1f77b4;" x="182.789157" xlink:href="#m57a606622b" y="240.220529"/>
     <use style="fill:#1f77b4;stroke:#1f77b4;" x="214.854902" xlink:href="#m57a606622b" y="291.014149"/>
     <use style="fill:#1f77b4;stroke:#1f77b4;" x="215.539834" xlink:href="#m57a606622b" y="239.691324"/>
     <use style="fill:#1f77b4;stroke:#1f77b4;" x="222.498791" xlink:href="#m57a606622b" y="269.32164"/>
    </g>
   </g>
   <g id="PathCollection_2">
    <defs>
     <path d="M -3 3 
L 3 -3 
M -3 -3 
L 3 3 
" id="m937d00b4f7" style="stroke:#ff7f0e;stroke-width:1.5;"/>
    </defs>
    <g clip-path="url(#p9007889283)">
     <use style="fill:#ff7f0e;stroke:#ff7f0e;stroke-width:1.5;" x="215.583758" xlink:href="#m937d00b4f7" y="216.941288"/>
     <use style="fill:#ff7f0e;stroke:#ff7f0e;stroke-width:1.5;" x="215.732946" xlink:href="#m937d00b4f7" y="142.337602"/>
     <use style="fill:#ff7f0e;stroke:#ff7f0e;stroke-width:1.5;" x="216.25761" xlink:href="#m937d00b4f7" y="172.495223"/>
     <use style="fill:#ff7f0e;stroke:#ff7f0e;stroke-width:1.5;" x="236.00883" xlink:href="#m937d00b4f7" y="239.162391"/>
     <use style="fill:#ff7f0e;stroke:#ff7f0e;stroke-width:1.5;" x="236.535161" xlink:href="#m937d00b4f7" y="269.32164"/>
     <use style="fill:#ff7f0e;stroke:#ff7f0e;stroke-width:1.5;" x="257.251009" xlink:href="#m937d00b4f7" y="143.392971"/>
     <use style="fill:#ff7f0e;stroke:#ff7f0e;stroke-width:1.5;" x="257.691788" xlink:href="#m937d00b4f7" y="216.941288"/>
     <use style="fill:#ff7f0e;stroke:#ff7f0e;stroke-width:1.5;" x="258.132374" xlink:href="#m937d00b4f7" y="290.484005"/>
     <use style="fill:#ff7f0e;stroke:#ff7f0e;stroke-width:1.5;" x="258.363045" xlink:href="#m937d00b4f7" y="172.495223"/>
     <use style="fill:#ff7f0e;stroke:#ff7f0e;stroke-width:1.5;" x="258.817148" xlink:href="#m937d00b4f7" y="239.691324"/>
     <use style="fill:#ff7f0e;stroke:#ff7f0e;stroke-width:1.5;" x="274.505325" xlink:href="#m937d00b4f7" y="291.014149"/>
     <use style="fill:#ff7f0e;stroke:#ff7f0e;stroke-width:1.5;" x="275.718201" xlink:href="#m937d00b4f7" y="268.792027"/>
     <use style="fill:#ff7f0e;stroke:#ff7f0e;stroke-width:1.5;" x="289.94496" xlink:href="#m937d00b4f7" y="171.966216"/>
     <use style="fill:#ff7f0e;stroke:#ff7f0e;stroke-width:1.5;" x="290.003381" xlink:href="#m937d00b4f7" y="142.337602"/>
     <use style="fill:#ff7f0e;stroke:#ff7f0e;stroke-width:1.5;" x="290.296268" xlink:href="#m937d00b4f7" y="290.484005"/>
     <use style="fill:#ff7f0e;stroke:#ff7f0e;stroke-width:1.5;" x="290.396779" xlink:href="#m937d00b4f7" y="239.691324"/>
     <use style="fill:#ff7f0e;stroke:#ff7f0e;stroke-width:1.5;" x="291.026491" xlink:href="#m937d00b4f7" y="216.412098"/>
     <use style="fill:#ff7f0e;stroke:#ff7f0e;stroke-width:1.5;" x="323.148541" xlink:href="#m937d00b4f7" y="238.63323"/>
     <use style="fill:#ff7f0e;stroke:#ff7f0e;stroke-width:1.5;" x="323.190526" xlink:href="#m937d00b4f7" y="216.941288"/>
     <use style="fill:#ff7f0e;stroke:#ff7f0e;stroke-width:1.5;" x="323.335931" xlink:href="#m937d00b4f7" y="143.392971"/>
     <use style="fill:#ff7f0e;stroke:#ff7f0e;stroke-width:1.5;" x="323.630712" xlink:href="#m937d00b4f7" y="290.484005"/>
     <use style="fill:#ff7f0e;stroke:#ff7f0e;stroke-width:1.5;" x="323.862538" xlink:href="#m937d00b4f7" y="173.024061"/>
     <use style="fill:#ff7f0e;stroke:#ff7f0e;stroke-width:1.5;" x="361.247629" xlink:href="#m937d00b4f7" y="194.718049"/>
     <use style="fill:#ff7f0e;stroke:#ff7f0e;stroke-width:1.5;" x="387.376379" xlink:href="#m937d00b4f7" y="290.484005"/>
     <use style="fill:#ff7f0e;stroke:#ff7f0e;stroke-width:1.5;" x="388.645615" xlink:href="#m937d00b4f7" y="239.691324"/>
     <use style="fill:#ff7f0e;stroke:#ff7f0e;stroke-width:1.5;" x="474.510554" xlink:href="#m937d00b4f7" y="291.543455"/>
     <use style="fill:#ff7f0e;stroke:#ff7f0e;stroke-width:1.5;" x="476.369042" xlink:href="#m937d00b4f7" y="239.162391"/>
    </g>
   </g>
   <g id="PathCollection_3">
    <defs>
     <path d="M -3 -0 
L 3 3 
L 3 -3 
z
" id="me57d399458" style="stroke:#2ca02c;"/>
    </defs>
    <g clip-path="url(#p9007889283)">
     <use style="fill:#2ca02c;stroke:#2ca02c;" x="71.367637" xlink:href="#me57d399458" y="98.950047"/>
     <use style="fill:#2ca02c;stroke:#2ca02c;" x="71.429986" xlink:href="#me57d399458" y="67.73251"/>
     <use style="fill:#2ca02c;stroke:#2ca02c;" x="71.970418" xlink:href="#me57d399458" y="89.954605"/>
     <use style="fill:#2ca02c;stroke:#2ca02c;" x="72.057946" xlink:href="#me57d399458" y="45.509585"/>
     <use style="fill:#2ca02c;stroke:#2ca02c;" x="104.221302" xlink:href="#me57d399458" y="46.568512"/>
     <use style="fill:#2ca02c;stroke:#2ca02c;" x="105.289068" xlink:href="#me57d399458" y="97.891085"/>
     <use style="fill:#2ca02c;stroke:#2ca02c;" x="106.471911" xlink:href="#me57d399458" y="91.542279"/>
     <use style="fill:#2ca02c;stroke:#2ca02c;" x="107.099081" xlink:href="#me57d399458" y="69.848401"/>
     <use style="fill:#2ca02c;stroke:#2ca02c;" x="182.440037" xlink:href="#me57d399458" y="120.114533"/>
     <use style="fill:#2ca02c;stroke:#2ca02c;" x="182.485829" xlink:href="#me57d399458" y="97.891085"/>
     <use style="fill:#2ca02c;stroke:#2ca02c;" x="182.498314" xlink:href="#me57d399458" y="92.071237"/>
     <use style="fill:#2ca02c;stroke:#2ca02c;" x="215.773859" xlink:href="#me57d399458" y="121.172115"/>
    </g>
   </g>
   <g id="PathCollection_4">
    <defs>
     <path d="M 3 0 
L -3 -3 
L -3 3 
z
" id="m4265d6db7b" style="stroke:#d62728;"/>
    </defs>
    <g clip-path="url(#p9007889283)">
     <use style="fill:#d62728;stroke:#d62728;" x="181.372202" xlink:href="#m4265d6db7b" y="69.848401"/>
     <use style="fill:#d62728;stroke:#d62728;" x="182.001807" xlink:href="#m4265d6db7b" y="46.568512"/>
     <use style="fill:#d62728;stroke:#d62728;" x="214.164948" xlink:href="#m4265d6db7b" y="47.62665"/>
     <use style="fill:#d62728;stroke:#d62728;" x="214.648151" xlink:href="#m4265d6db7b" y="99.479092"/>
     <use style="fill:#d62728;stroke:#d62728;" x="214.704314" xlink:href="#m4265d6db7b" y="69.848401"/>
     <use style="fill:#d62728;stroke:#d62728;" x="215.246483" xlink:href="#m4265d6db7b" y="91.542279"/>
     <use style="fill:#d62728;stroke:#d62728;" x="291.215372" xlink:href="#m4265d6db7b" y="120.64301"/>
     <use style="fill:#d62728;stroke:#d62728;" x="323.378764" xlink:href="#m4265d6db7b" y="121.701733"/>
     <use style="fill:#d62728;stroke:#d62728;" x="362.522483" xlink:href="#m4265d6db7b" y="141.279032"/>
     <use style="fill:#d62728;stroke:#d62728;" x="374.154189" xlink:href="#m4265d6db7b" y="173.024061"/>
     <use style="fill:#d62728;stroke:#d62728;" x="387.663571" xlink:href="#m4265d6db7b" y="143.392971"/>
     <use style="fill:#d62728;stroke:#d62728;" x="388.687474" xlink:href="#m4265d6db7b" y="217.469568"/>
     <use style="fill:#d62728;stroke:#d62728;" x="427.408403" xlink:href="#m4265d6db7b" y="156.093743"/>
     <use style="fill:#d62728;stroke:#d62728;" x="428.529408" xlink:href="#m4265d6db7b" y="180.431241"/>
     <use style="fill:#d62728;stroke:#d62728;" x="475.237977" xlink:href="#m4265d6db7b" y="219.057226"/>
     <use style="fill:#d62728;stroke:#d62728;" x="475.911991" xlink:href="#m4265d6db7b" y="174.082298"/>
    </g>
   </g>
   <g id="PathCollection_5">
    <defs>
     <path d="M 0 -3 
L -0.673542 -0.927051 
L -2.85317 -0.927051 
L -1.089814 0.354102 
L -1.763356 2.427051 
L -0 1.145898 
L 1.763356 2.427051 
L 1.089814 0.354102 
L 2.85317 -0.927051 
L 0.673542 -0.927051 
z
" id="m5374f25dca" style="stroke:#9467bd;"/>
    </defs>
    <g clip-path="url(#p9007889283)">
     <use style="fill:#9467bd;stroke:#9467bd;" x="256.811933" xlink:href="#m5374f25dca" y="69.320177"/>
     <use style="fill:#9467bd;stroke:#9467bd;" x="257.341209" xlink:href="#m5374f25dca" y="98.420659"/>
     <use style="fill:#9467bd;stroke:#9467bd;" x="257.354356" xlink:href="#m5374f25dca" y="91.012874"/>
     <use style="fill:#9467bd;stroke:#9467bd;" x="258.60983" xlink:href="#m5374f25dca" y="47.62665"/>
     <use style="fill:#9467bd;stroke:#9467bd;" x="290.101553" xlink:href="#m5374f25dca" y="92.600255"/>
     <use style="fill:#9467bd;stroke:#9467bd;" x="290.146625" xlink:href="#m5374f25dca" y="69.320177"/>
     <use style="fill:#9467bd;stroke:#9467bd;" x="291.363326" xlink:href="#m5374f25dca" y="45.509585"/>
     <use style="fill:#9467bd;stroke:#9467bd;" x="291.844854" xlink:href="#m5374f25dca" y="98.420659"/>
     <use style="fill:#9467bd;stroke:#9467bd;" x="322.8382" xlink:href="#m5374f25dca" y="98.950047"/>
     <use style="fill:#9467bd;stroke:#9467bd;" x="323.439256" xlink:href="#m5374f25dca" y="91.012874"/>
     <use style="fill:#9467bd;stroke:#9467bd;" x="323.482042" xlink:href="#m5374f25dca" y="69.320177"/>
     <use style="fill:#9467bd;stroke:#9467bd;" x="324.695171" xlink:href="#m5374f25dca" y="47.098168"/>
     <use style="fill:#9467bd;stroke:#9467bd;" x="374.257241" xlink:href="#m5374f25dca" y="122.230052"/>
     <use style="fill:#9467bd;stroke:#9467bd;" x="388.193277" xlink:href="#m5374f25dca" y="171.437188"/>
     <use style="fill:#9467bd;stroke:#9467bd;" x="388.277381" xlink:href="#m5374f25dca" y="130.166418"/>
     <use style="fill:#9467bd;stroke:#9467bd;" x="388.29606" xlink:href="#m5374f25dca" y="120.114533"/>
     <use style="fill:#9467bd;stroke:#9467bd;" x="388.919688" xlink:href="#m5374f25dca" y="99.479092"/>
     <use style="fill:#9467bd;stroke:#9467bd;" x="388.93824" xlink:href="#m5374f25dca" y="90.483816"/>
     <use style="fill:#9467bd;stroke:#9467bd;" x="388.984605" xlink:href="#m5374f25dca" y="67.73251"/>
     <use style="fill:#9467bd;stroke:#9467bd;" x="389.026314" xlink:href="#m5374f25dca" y="47.098168"/>
     <use style="fill:#9467bd;stroke:#9467bd;" x="418.026562" xlink:href="#m5374f25dca" y="168.791381"/>
     <use style="fill:#9467bd;stroke:#9467bd;" x="426.889337" xlink:href="#m5374f25dca" y="122.230052"/>
     <use style="fill:#9467bd;stroke:#9467bd;" x="440.840622" xlink:href="#m5374f25dca" y="165.616855"/>
     <use style="fill:#9467bd;stroke:#9467bd;" x="474.321734" xlink:href="#m5374f25dca" y="90.483816"/>
     <use style="fill:#9467bd;stroke:#9467bd;" x="474.950285" xlink:href="#m5374f25dca" y="68.790805"/>
     <use style="fill:#9467bd;stroke:#9467bd;" x="475.476742" xlink:href="#m5374f25dca" y="98.420659"/>
     <use style="fill:#9467bd;stroke:#9467bd;" x="475.58205" xlink:href="#m5374f25dca" y="44.452545"/>
     <use style="fill:#9467bd;stroke:#9467bd;" x="475.970853" xlink:href="#m5374f25dca" y="144.45373"/>
     <use style="fill:#9467bd;stroke:#9467bd;" x="477.185818" xlink:href="#m5374f25dca" y="121.172115"/>
    </g>
   </g>
   <g id="matplotlib.axis_1">
    <g id="xtick_1">
     <g id="line2d_1">
      <defs>
       <path d="M 0 0 
L 0 3.5 
" id="m5a108cd2ce" style="stroke:#000000;stroke-width:0.8;"/>
      </defs>
      <g>
       <use style="stroke:#000000;stroke-width:0.8;" x="51.589484" xlink:href="#m5a108cd2ce" y="303.898"/>
      </g>
     </g>
     <g id="text_1">
      <!-- $\mathdefault{0.75}$ -->
      <g transform="translate(42.733777 317.816498)scale(0.1 -0.1)">
       <defs>
        <path d="M 42 31.84375 
C 42 37.96875 41.90625 48.421875 37.703125 56.453125 
C 34 63.484375 28.09375 66 22.90625 66 
C 18.09375 66 12 63.78125 8.203125 56.5625 
C 4.203125 49.015625 3.796875 39.671875 3.796875 31.84375 
C 3.796875 26.109375 3.90625 17.375 7 9.734375 
C 11.296875 -0.609375 19 -2 22.90625 -2 
C 27.5 -2 34.5 -0.109375 38.59375 9.4375 
C 41.59375 16.375 42 24.5 42 31.84375 
z
M 22.90625 -0.40625 
C 16.5 -0.40625 12.703125 5.125 11.296875 12.75 
C 10.203125 18.6875 10.203125 27.328125 10.203125 32.953125 
C 10.203125 40.6875 10.203125 47.109375 11.5 53.234375 
C 13.40625 61.78125 19 64.390625 22.90625 64.390625 
C 27 64.390625 32.296875 61.671875 34.203125 53.4375 
C 35.5 47.71875 35.59375 40.984375 35.59375 32.953125 
C 35.59375 26.421875 35.59375 18.375 34.40625 12.453125 
C 32.296875 1.5 26.40625 -0.40625 22.90625 -0.40625 
z
" id="CMR17-48"/>
        <path d="M 18.40625 4.796875 
C 18.40625 7.6875 16 9.6875 13.59375 9.6875 
C 10.703125 9.6875 8.703125 7.296875 8.703125 4.890625 
C 8.703125 2 11.09375 0 13.5 0 
C 16.40625 0 18.40625 2.390625 18.40625 4.796875 
z
" id="CMMI12-58"/>
        <path d="M 45.09375 61.796875 
L 45.09375 64 
L 21.59375 64 
C 9.90625 64 9.703125 65.09375 9.296875 67 
L 7.5 67 
L 4.59375 48.5 
L 6.40625 48.5 
C 6.703125 50.40625 7.40625 55.5 8.59375 57.390625 
C 9.203125 58.1875 16.59375 58.1875 18.296875 58.1875 
L 40.296875 58.1875 
L 29.203125 41.71875 
C 21.796875 30.640625 16.703125 15.671875 16.703125 2.59375 
C 16.703125 1.390625 16.703125 -2 20.296875 -2 
C 23.90625 -2 23.90625 1.390625 23.90625 2.6875 
L 23.90625 7.28125 
C 23.90625 23.65625 26.703125 34.4375 31.296875 41.3125 
z
" id="CMR17-55"/>
        <path d="M 11.40625 58.59375 
C 12.40625 58.1875 16.5 56.890625 20.703125 56.890625 
C 30 56.890625 35.09375 61.890625 38 64.6875 
C 38 65.484375 38 66 37.40625 66 
C 37.296875 66 37.09375 66 36.296875 65.59375 
C 32.796875 64.09375 28.703125 63 23.703125 63 
C 20.703125 63 16.203125 63.359375 11.296875 65.484375 
C 10.203125 66 10 66 9.90625 66 
C 9.40625 66 9.296875 65.890625 9.296875 63.90625 
L 9.296875 34.859375 
C 9.296875 33.015625 9.296875 32.5 10.296875 32.5 
C 10.796875 32.5 11 32.703125 11.5 33.421875 
C 14.703125 38.046875 19.09375 40 24.09375 40 
C 27.59375 40 35.09375 37.734375 35.09375 20.203125 
C 35.09375 16.984375 35.09375 11.1875 32.09375 6.59375 
C 29.59375 2.484375 25.703125 0.390625 21.40625 0.390625 
C 14.796875 0.390625 8.09375 4.984375 6.296875 12.6875 
C 6.703125 12.59375 7.5 12.390625 7.90625 12.390625 
C 9.203125 12.390625 11.703125 13.09375 11.703125 16.1875 
C 11.703125 18.890625 9.796875 20 7.90625 20 
C 5.59375 20 4.09375 18.59375 4.09375 15.796875 
C 4.09375 7.09375 11 -2 21.59375 -2 
C 31.90625 -2 41.703125 6.890625 41.703125 19.796875 
C 41.703125 32.09375 33.90625 41.59375 24.203125 41.59375 
C 19.09375 41.59375 14.796875 39.6875 11.40625 36 
z
" id="CMR17-53"/>
       </defs>
       <use transform="scale(0.996264)" xlink:href="#CMR17-48"/>
       <use transform="translate(45.690477 0)scale(0.996264)" xlink:href="#CMMI12-58"/>
       <use transform="translate(72.787654 0)scale(0.996264)" xlink:href="#CMR17-55"/>
       <use transform="translate(118.478131 0)scale(0.996264)" xlink:href="#CMR17-53"/>
      </g>
     </g>
    </g>
    <g id="xtick_2">
     <g id="line2d_2">
      <g>
       <use style="stroke:#000000;stroke-width:0.8;" x="105.748374" xlink:href="#m5a108cd2ce" y="303.898"/>
      </g>
     </g>
     <g id="text_2">
      <!-- $\mathdefault{1.00}$ -->
      <g transform="translate(96.892667 317.816498)scale(0.1 -0.1)">
       <defs>
        <path d="M 26.59375 63.796875 
C 26.59375 65.890625 26.5 66 25.09375 66 
C 21.203125 61.359375 15.296875 59.890625 9.703125 59.6875 
C 9.40625 59.6875 8.90625 59.6875 8.796875 59.5 
C 8.703125 59.296875 8.703125 59.09375 8.703125 57 
C 11.796875 57 17 57.59375 21 59.984375 
L 21 7.296875 
C 21 3.796875 20.796875 2.59375 12.203125 2.59375 
L 9.203125 2.59375 
L 9.203125 0 
C 14 0.09375 19 0.1875 23.796875 0.1875 
C 28.59375 0.1875 33.59375 0.09375 38.40625 0 
L 38.40625 2.59375 
L 35.40625 2.59375 
C 26.796875 2.59375 26.59375 3.6875 26.59375 7.296875 
z
" id="CMR17-49"/>
       </defs>
       <use transform="scale(0.996264)" xlink:href="#CMR17-49"/>
       <use transform="translate(45.690477 0)scale(0.996264)" xlink:href="#CMMI12-58"/>
       <use transform="translate(72.787654 0)scale(0.996264)" xlink:href="#CMR17-48"/>
       <use transform="translate(118.478131 0)scale(0.996264)" xlink:href="#CMR17-48"/>
      </g>
     </g>
    </g>
    <g id="xtick_3">
     <g id="line2d_3">
      <g>
       <use style="stroke:#000000;stroke-width:0.8;" x="159.907264" xlink:href="#m5a108cd2ce" y="303.898"/>
      </g>
     </g>
     <g id="text_3">
      <!-- $\mathdefault{1.25}$ -->
      <g transform="translate(151.051557 317.816498)scale(0.1 -0.1)">
       <defs>
        <path d="M 41.703125 15.46875 
L 39.90625 15.46875 
C 38.90625 8.390625 38.09375 7.1875 37.703125 6.59375 
C 37.203125 5.796875 30 5.796875 28.59375 5.796875 
L 9.40625 5.796875 
C 13 9.6875 20 16.765625 28.5 24.9375 
C 34.59375 30.71875 41.703125 37.5 41.703125 47.390625 
C 41.703125 59.1875 32.296875 66 21.796875 66 
C 10.796875 66 4.09375 56.296875 4.09375 47.296875 
C 4.09375 43.390625 7 42.890625 8.203125 42.890625 
C 9.203125 42.890625 12.203125 43.484375 12.203125 46.984375 
C 12.203125 50.09375 9.59375 51 8.203125 51 
C 7.59375 51 7 50.890625 6.59375 50.6875 
C 8.5 59.1875 14.296875 63.390625 20.40625 63.390625 
C 29.09375 63.390625 34.796875 56.5 34.796875 47.390625 
C 34.796875 38.703125 29.703125 31.21875 24 24.734375 
L 4.09375 2.296875 
L 4.09375 0 
L 39.296875 0 
z
" id="CMR17-50"/>
       </defs>
       <use transform="scale(0.996264)" xlink:href="#CMR17-49"/>
       <use transform="translate(45.690477 0)scale(0.996264)" xlink:href="#CMMI12-58"/>
       <use transform="translate(72.787654 0)scale(0.996264)" xlink:href="#CMR17-50"/>
       <use transform="translate(118.478131 0)scale(0.996264)" xlink:href="#CMR17-53"/>
      </g>
     </g>
    </g>
    <g id="xtick_4">
     <g id="line2d_4">
      <g>
       <use style="stroke:#000000;stroke-width:0.8;" x="214.066154" xlink:href="#m5a108cd2ce" y="303.898"/>
      </g>
     </g>
     <g id="text_4">
      <!-- $\mathdefault{1.50}$ -->
      <g transform="translate(205.210447 317.816498)scale(0.1 -0.1)">
       <use transform="scale(0.996264)" xlink:href="#CMR17-49"/>
       <use transform="translate(45.690477 0)scale(0.996264)" xlink:href="#CMMI12-58"/>
       <use transform="translate(72.787654 0)scale(0.996264)" xlink:href="#CMR17-53"/>
       <use transform="translate(118.478131 0)scale(0.996264)" xlink:href="#CMR17-48"/>
      </g>
     </g>
    </g>
    <g id="xtick_5">
     <g id="line2d_5">
      <g>
       <use style="stroke:#000000;stroke-width:0.8;" x="268.225044" xlink:href="#m5a108cd2ce" y="303.898"/>
      </g>
     </g>
     <g id="text_5">
      <!-- $\mathdefault{1.75}$ -->
      <g transform="translate(259.369337 317.816498)scale(0.1 -0.1)">
       <use transform="scale(0.996264)" xlink:href="#CMR17-49"/>
       <use transform="translate(45.690477 0)scale(0.996264)" xlink:href="#CMMI12-58"/>
       <use transform="translate(72.787654 0)scale(0.996264)" xlink:href="#CMR17-55"/>
       <use transform="translate(118.478131 0)scale(0.996264)" xlink:href="#CMR17-53"/>
      </g>
     </g>
    </g>
    <g id="xtick_6">
     <g id="line2d_6">
      <g>
       <use style="stroke:#000000;stroke-width:0.8;" x="322.383934" xlink:href="#m5a108cd2ce" y="303.898"/>
      </g>
     </g>
     <g id="text_6">
      <!-- $\mathdefault{2.00}$ -->
      <g transform="translate(313.528227 317.816498)scale(0.1 -0.1)">
       <use transform="scale(0.996264)" xlink:href="#CMR17-50"/>
       <use transform="translate(45.690477 0)scale(0.996264)" xlink:href="#CMMI12-58"/>
       <use transform="translate(72.787654 0)scale(0.996264)" xlink:href="#CMR17-48"/>
       <use transform="translate(118.478131 0)scale(0.996264)" xlink:href="#CMR17-48"/>
      </g>
     </g>
    </g>
    <g id="xtick_7">
     <g id="line2d_7">
      <g>
       <use style="stroke:#000000;stroke-width:0.8;" x="376.542824" xlink:href="#m5a108cd2ce" y="303.898"/>
      </g>
     </g>
     <g id="text_7">
      <!-- $\mathdefault{2.25}$ -->
      <g transform="translate(367.687116 317.816498)scale(0.1 -0.1)">
       <use transform="scale(0.996264)" xlink:href="#CMR17-50"/>
       <use transform="translate(45.690477 0)scale(0.996264)" xlink:href="#CMMI12-58"/>
       <use transform="translate(72.787654 0)scale(0.996264)" xlink:href="#CMR17-50"/>
       <use transform="translate(118.478131 0)scale(0.996264)" xlink:href="#CMR17-53"/>
      </g>
     </g>
    </g>
    <g id="xtick_8">
     <g id="line2d_8">
      <g>
       <use style="stroke:#000000;stroke-width:0.8;" x="430.701713" xlink:href="#m5a108cd2ce" y="303.898"/>
      </g>
     </g>
     <g id="text_8">
      <!-- $\mathdefault{2.50}$ -->
      <g transform="translate(421.846006 317.816498)scale(0.1 -0.1)">
       <use transform="scale(0.996264)" xlink:href="#CMR17-50"/>
       <use transform="translate(45.690477 0)scale(0.996264)" xlink:href="#CMMI12-58"/>
       <use transform="translate(72.787654 0)scale(0.996264)" xlink:href="#CMR17-53"/>
       <use transform="translate(118.478131 0)scale(0.996264)" xlink:href="#CMR17-48"/>
      </g>
     </g>
    </g>
    <g id="xtick_9">
     <g id="line2d_9">
      <g>
       <use style="stroke:#000000;stroke-width:0.8;" x="484.860603" xlink:href="#m5a108cd2ce" y="303.898"/>
      </g>
     </g>
     <g id="text_9">
      <!-- $\mathdefault{2.75}$ -->
      <g transform="translate(476.004896 317.816498)scale(0.1 -0.1)">
       <use transform="scale(0.996264)" xlink:href="#CMR17-50"/>
       <use transform="translate(45.690477 0)scale(0.996264)" xlink:href="#CMMI12-58"/>
       <use transform="translate(72.787654 0)scale(0.996264)" xlink:href="#CMR17-55"/>
       <use transform="translate(118.478131 0)scale(0.996264)" xlink:href="#CMR17-53"/>
      </g>
     </g>
    </g>
    <g id="text_10">
     <!-- $Ga^\prime$ -->
     <g transform="translate(263.942351 333.439553)scale(0.14 -0.14)">
      <defs>
       <path d="M 74.59375 69.09375 
C 74.59375 70 73.90625 70 73.703125 70 
C 73.5 70 73.09375 70 72.296875 68.984375 
L 65.40625 60.734375 
C 64.90625 61.53125 62.90625 65.015625 59 67.296875 
C 54.703125 70 50.40625 70 48.90625 70 
C 27.5 70 5 48.328125 5 24.890625 
C 5 8.53125 16.40625 -2 31.40625 -2 
C 38.59375 -2 47.703125 0.390625 52.703125 6.640625 
C 53.796875 2.875 56 0.1875 56.703125 0.1875 
C 57.203125 0.1875 57.296875 0.5 57.40625 0.5 
C 57.5 0.6875 58.296875 4.15625 58.796875 5.953125 
L 60.40625 12.296875 
C 61.203125 15.5625 61.59375 16.953125 62.296875 19.921875 
C 63.296875 23.6875 63.5 23.984375 69 24.09375 
C 69.40625 24.09375 70.59375 24.09375 70.59375 25.984375 
C 70.59375 27 69.59375 27 69.296875 27 
C 67.59375 27 65.703125 26.796875 63.90625 26.796875 
L 58.5 26.796875 
C 54.296875 26.796875 49.90625 27 45.796875 27 
C 44.90625 27 43.703125 27 43.703125 25.1875 
C 43.703125 24.1875 44.5 24.1875 44.5 24.09375 
L 47 24.09375 
C 54.90625 24.09375 54.90625 23.296875 54.90625 21.8125 
C 54.90625 21.71875 53 11.703125 51.09375 8.71875 
C 47.296875 3.171875 39.40625 0.890625 33.5 0.890625 
C 25.796875 0.890625 13.296875 4.859375 13.296875 22.015625 
C 13.296875 28.671875 15.703125 43.859375 25.40625 55.078125 
C 31.703125 62.234375 41 67.09375 49.796875 67.09375 
C 61.59375 67.09375 65.796875 57.0625 65.796875 47.9375 
C 65.796875 46.34375 65.40625 44.15625 65.40625 42.78125 
C 65.40625 41.875 66.40625 41.875 66.703125 41.875 
C 67.796875 41.875 67.90625 41.984375 68.296875 43.765625 
z
" id="CMMI12-71"/>
       <path d="M 30.09375 11.859375 
C 29.59375 10.171875 29.59375 9.96875 28.203125 8.078125 
C 26 5.28125 21.59375 1 16.90625 1 
C 12.796875 1 10.5 4.6875 10.5 10.5625 
C 10.5 16.0625 13.59375 27.234375 15.5 31.421875 
C 18.90625 38.40625 23.59375 41.984375 27.5 41.984375 
C 34.09375 41.984375 35.40625 33.8125 35.40625 33.015625 
C 35.40625 32.921875 35.09375 31.625 35 31.421875 
z
M 36.5 37.40625 
C 35.40625 40 32.703125 44 27.5 44 
C 16.203125 44 4 29.421875 4 14.65625 
C 4 4.78125 9.796875 -1 16.59375 -1 
C 22.09375 -1 26.796875 3.28125 29.59375 6.578125 
C 30.59375 0.6875 35.296875 -1 38.296875 -1 
C 41.296875 -1 43.703125 0.796875 45.5 4.375 
C 47.09375 7.75 48.5 13.828125 48.5 14.21875 
C 48.5 14.71875 48.09375 15.125 47.5 15.125 
C 46.59375 15.125 46.5 14.625 46.09375 13.125 
C 44.59375 7.265625 42.703125 1 38.59375 1 
C 35.703125 1 35.5 3.578125 35.5 5.5625 
C 35.5 7.859375 35.796875 8.953125 36.703125 12.828125 
C 37.40625 15.3125 37.90625 17.5 38.703125 20.390625 
C 42.40625 35.3125 43.296875 38.890625 43.296875 39.5 
C 43.296875 40.890625 42.203125 42 40.703125 42 
C 37.5 42 36.703125 38.5 36.5 37.3125 
z
" id="CMMI12-97"/>
       <path d="M 25.296875 47.625 
C 25.796875 48.828125 26.203125 49.71875 26.203125 50.71875 
C 26.203125 53.59375 23.59375 56 20.5 56 
C 17.703125 56 15.90625 54.09375 15.203125 51.515625 
L 3.296875 8.078125 
C 3.296875 7.890625 2.90625 6.796875 2.90625 6.6875 
C 2.90625 5.59375 5.5 4.890625 6.296875 4.890625 
C 6.90625 4.890625 7 5.1875 7.59375 6.484375 
z
" id="CMSY10-48"/>
      </defs>
      <use transform="scale(0.996264)" xlink:href="#CMMI12-71"/>
      <use transform="translate(76.946862 0)scale(0.996264)" xlink:href="#CMMI12-97"/>
      <use transform="translate(128.154719 36.153639)scale(0.697382)" xlink:href="#CMSY10-48"/>
     </g>
    </g>
   </g>
   <g id="matplotlib.axis_2">
    <g id="ytick_1">
     <g id="line2d_10">
      <defs>
       <path d="M 0 0 
L -3.5 0 
" id="m71f56bb7cc" style="stroke:#000000;stroke-width:0.8;"/>
      </defs>
      <g>
       <use style="stroke:#000000;stroke-width:0.8;" x="51.076728" xlink:href="#m71f56bb7cc" y="291.427226"/>
      </g>
     </g>
     <g id="text_11">
      <!-- $\mathdefault{−1.0}$ -->
      <g transform="translate(23.597905 294.886475)scale(0.1 -0.1)">
       <defs>
        <path d="M 65.90625 23 
C 67.59375 23 69.40625 23 69.40625 25 
C 69.40625 27 67.59375 27 65.90625 27 
L 11.796875 27 
C 10.09375 27 8.296875 27 8.296875 25 
C 8.296875 23 10.09375 23 11.796875 23 
z
" id="CMSY10-0"/>
       </defs>
       <use transform="scale(0.996264)" xlink:href="#CMSY10-0"/>
       <use transform="translate(77.487468 0)scale(0.996264)" xlink:href="#CMR17-49"/>
       <use transform="translate(123.177945 0)scale(0.996264)" xlink:href="#CMMI12-58"/>
       <use transform="translate(150.275122 0)scale(0.996264)" xlink:href="#CMR17-48"/>
      </g>
     </g>
    </g>
    <g id="ytick_2">
     <g id="line2d_11">
      <g>
       <use style="stroke:#000000;stroke-width:0.8;" x="51.076728" xlink:href="#m71f56bb7cc" y="254.323841"/>
      </g>
     </g>
     <g id="text_12">
      <!-- $\mathdefault{−0.5}$ -->
      <g transform="translate(23.597905 257.78309)scale(0.1 -0.1)">
       <use transform="scale(0.996264)" xlink:href="#CMSY10-0"/>
       <use transform="translate(77.487468 0)scale(0.996264)" xlink:href="#CMR17-48"/>
       <use transform="translate(123.177945 0)scale(0.996264)" xlink:href="#CMMI12-58"/>
       <use transform="translate(150.275122 0)scale(0.996264)" xlink:href="#CMR17-53"/>
      </g>
     </g>
    </g>
    <g id="ytick_3">
     <g id="line2d_12">
      <g>
       <use style="stroke:#000000;stroke-width:0.8;" x="51.076728" xlink:href="#m71f56bb7cc" y="217.220456"/>
      </g>
     </g>
     <g id="text_13">
      <!-- $\mathdefault{0.0}$ -->
      <g transform="translate(31.346649 220.679705)scale(0.1 -0.1)">
       <use transform="scale(0.996264)" xlink:href="#CMR17-48"/>
       <use transform="translate(45.690477 0)scale(0.996264)" xlink:href="#CMMI12-58"/>
       <use transform="translate(72.787654 0)scale(0.996264)" xlink:href="#CMR17-48"/>
      </g>
     </g>
    </g>
    <g id="ytick_4">
     <g id="line2d_13">
      <g>
       <use style="stroke:#000000;stroke-width:0.8;" x="51.076728" xlink:href="#m71f56bb7cc" y="180.11707"/>
      </g>
     </g>
     <g id="text_14">
      <!-- $\mathdefault{0.5}$ -->
      <g transform="translate(31.346649 183.57632)scale(0.1 -0.1)">
       <use transform="scale(0.996264)" xlink:href="#CMR17-48"/>
       <use transform="translate(45.690477 0)scale(0.996264)" xlink:href="#CMMI12-58"/>
       <use transform="translate(72.787654 0)scale(0.996264)" xlink:href="#CMR17-53"/>
      </g>
     </g>
    </g>
    <g id="ytick_5">
     <g id="line2d_14">
      <g>
       <use style="stroke:#000000;stroke-width:0.8;" x="51.076728" xlink:href="#m71f56bb7cc" y="143.013685"/>
      </g>
     </g>
     <g id="text_15">
      <!-- $\mathdefault{1.0}$ -->
      <g transform="translate(31.346649 146.472935)scale(0.1 -0.1)">
       <use transform="scale(0.996264)" xlink:href="#CMR17-49"/>
       <use transform="translate(45.690477 0)scale(0.996264)" xlink:href="#CMMI12-58"/>
       <use transform="translate(72.787654 0)scale(0.996264)" xlink:href="#CMR17-48"/>
      </g>
     </g>
    </g>
    <g id="ytick_6">
     <g id="line2d_15">
      <g>
       <use style="stroke:#000000;stroke-width:0.8;" x="51.076728" xlink:href="#m71f56bb7cc" y="105.9103"/>
      </g>
     </g>
     <g id="text_16">
      <!-- $\mathdefault{1.5}$ -->
      <g transform="translate(31.346649 109.369549)scale(0.1 -0.1)">
       <use transform="scale(0.996264)" xlink:href="#CMR17-49"/>
       <use transform="translate(45.690477 0)scale(0.996264)" xlink:href="#CMMI12-58"/>
       <use transform="translate(72.787654 0)scale(0.996264)" xlink:href="#CMR17-53"/>
      </g>
     </g>
    </g>
    <g id="ytick_7">
     <g id="line2d_16">
      <g>
       <use style="stroke:#000000;stroke-width:0.8;" x="51.076728" xlink:href="#m71f56bb7cc" y="68.806915"/>
      </g>
     </g>
     <g id="text_17">
      <!-- $\mathdefault{2.0}$ -->
      <g transform="translate(31.346649 72.266164)scale(0.1 -0.1)">
       <use transform="scale(0.996264)" xlink:href="#CMR17-50"/>
       <use transform="translate(45.690477 0)scale(0.996264)" xlink:href="#CMMI12-58"/>
       <use transform="translate(72.787654 0)scale(0.996264)" xlink:href="#CMR17-48"/>
      </g>
     </g>
    </g>
    <g id="text_18">
     <!-- $Eo^\prime$ -->
     <g transform="translate(16.885876 178.107824)rotate(-90)scale(0.14 -0.14)">
      <defs>
       <path d="M 69.5 23.265625 
C 69.59375 23.5625 69.90625 24.265625 69.90625 24.65625 
C 69.90625 25.171875 69.5 25.671875 68.90625 25.671875 
C 68.5 25.671875 68.296875 25.5625 68 25.265625 
C 67.796875 25.171875 67.796875 24.96875 66.90625 22.953125 
C 61 8.90625 56.703125 2.890625 40.703125 2.890625 
L 26.09375 2.890625 
C 24.703125 2.890625 24.5 2.890625 23.90625 3 
C 22.796875 3.09375 22.703125 3.296875 22.703125 4.09375 
C 22.703125 4.796875 22.90625 5.40625 23.09375 6.296875 
L 30 34 
L 39.90625 34 
C 47.703125 34 48.296875 32.28125 48.296875 29.28125 
C 48.296875 28.28125 48.296875 27.375 47.59375 24.359375 
C 47.40625 23.96875 47.296875 23.5625 47.296875 23.265625 
C 47.296875 22.5625 47.796875 22.25 48.40625 22.25 
C 49.296875 22.25 49.40625 22.953125 49.796875 24.359375 
L 55.5 47.4375 
C 55.5 47.9375 55.09375 48.421875 54.5 48.421875 
C 53.59375 48.421875 53.5 48.03125 53.09375 46.65625 
C 51.09375 39.0625 49.09375 36.890625 40.203125 36.890625 
L 30.703125 36.890625 
L 36.90625 61.140625 
C 37.796875 64.59375 38 64.890625 42.09375 64.890625 
L 56.40625 64.890625 
C 68.703125 64.890625 71.203125 61.640625 71.203125 54.140625 
C 71.203125 54.046875 71.203125 51.28125 70.796875 48.03125 
C 70.703125 47.640625 70.59375 47.046875 70.59375 46.84375 
C 70.59375 46.0625 71.09375 45.765625 71.703125 45.765625 
C 72.40625 45.765625 72.796875 46.15625 73 47.9375 
L 75.09375 65.1875 
C 75.09375 65.484375 75.296875 66.484375 75.296875 66.6875 
C 75.296875 67.796875 74.40625 67.796875 72.59375 67.796875 
L 23.796875 67.796875 
C 21.90625 67.796875 20.90625 67.796875 20.90625 65.984375 
C 20.90625 64.890625 21.59375 64.890625 23.296875 64.890625 
C 29.5 64.890625 29.5 64.203125 29.5 63.109375 
C 29.5 62.625 29.40625 62.234375 29.09375 61.140625 
L 15.59375 7.40625 
C 14.703125 3.890625 14.5 2.890625 7.5 2.890625 
C 5.59375 2.890625 4.59375 2.890625 4.59375 1.09375 
C 4.59375 0 5.203125 0 7.203125 0 
L 57.40625 0 
C 59.59375 0 59.703125 0.09375 60.40625 1.6875 
z
" id="CMMI12-69"/>
       <path d="M 45.59375 27.421875 
C 45.59375 36.90625 39.40625 44 30.296875 44 
C 17.09375 44 4.09375 29.625 4.09375 15.5625 
C 4.09375 6.078125 10.296875 -1 19.40625 -1 
C 32.703125 -1 45.59375 13.359375 45.59375 27.421875 
z
M 19.5 1 
C 14.5 1 10.796875 4.984375 10.796875 11.96875 
C 10.796875 16.5625 13.203125 26.734375 16 31.71875 
C 20.5 39.40625 26.09375 41.984375 30.203125 41.984375 
C 35.09375 41.984375 38.90625 38 38.90625 31.015625 
C 38.90625 27.03125 36.796875 16.359375 33 10.265625 
C 28.90625 3.59375 23.40625 1 19.5 1 
z
" id="CMMI12-111"/>
      </defs>
      <use transform="scale(0.996264)" xlink:href="#CMMI12-69"/>
      <use transform="translate(78.051636 0)scale(0.996264)" xlink:href="#CMMI12-111"/>
      <use transform="translate(124.946946 36.153639)scale(0.697382)" xlink:href="#CMSY10-48"/>
     </g>
    </g>
   </g>
   <g id="patch_3">
    <path d="M 51.076728 303.898 
L 51.076728 32.098 
" style="fill:none;stroke:#000000;stroke-linecap:square;stroke-linejoin:miter;stroke-width:0.8;"/>
   </g>
   <g id="patch_4">
    <path d="M 497.476728 303.898 
L 497.476728 32.098 
" style="fill:none;stroke:#000000;stroke-linecap:square;stroke-linejoin:miter;stroke-width:0.8;"/>
   </g>
   <g id="patch_5">
    <path d="M 51.076728 303.898 
L 497.476728 303.898 
" style="fill:none;stroke:#000000;stroke-linecap:square;stroke-linejoin:miter;stroke-width:0.8;"/>
   </g>
   <g id="patch_6">
    <path d="M 51.076728 32.098 
L 497.476728 32.098 
" style="fill:none;stroke:#000000;stroke-linecap:square;stroke-linejoin:miter;stroke-width:0.8;"/>
   </g>
   <g id="legend_1">
    <g id="patch_7">
     <path d="M 68.392473 24.735616 
L 480.160982 24.735616 
Q 482.160982 24.735616 482.160982 22.735616 
L 482.160982 9.2 
Q 482.160982 7.2 480.160982 7.2 
L 68.392473 7.2 
Q 66.392473 7.2 66.392473 9.2 
L 66.392473 22.735616 
Q 66.392473 24.735616 68.392473 24.735616 
z
" style="fill:#ffffff;opacity:0.8;stroke:#cccccc;stroke-linejoin:miter;"/>
    </g>
    <g id="PathCollection_6">
     <g>
      <use style="fill:#1f77b4;stroke:#1f77b4;" x="80.392473" xlink:href="#m57a606622b" y="16.173437"/>
     </g>
    </g>
    <g id="text_19">
     <!-- regime I -->
     <g transform="translate(98.392473 18.798437)scale(0.1 -0.1)">
      <defs>
       <path d="M 14.90625 21.390625 
C 14.90625 30.84375 21.796875 37.171875 30.59375 37.375 
L 30.59375 44 
C 24.203125 43.890625 18.203125 40.6875 14.59375 35.46875 
L 14.59375 43.484375 
L 7.5 43.484375 
L 7.5 0 
L 14.90625 0 
z
" id="CMSS17-114"/>
       <path d="M 39.09375 21.484375 
C 39.09375 24.796875 38.90625 31.265625 35.703125 36.671875 
C 32.203125 42.390625 26.5 44 22.203125 44 
C 11.796875 44 3 34.125 3 21.296875 
C 3 9.046875 12.09375 -1 23.59375 -1 
C 28.09375 -1 33.59375 0.296875 38.59375 3.890625 
C 38.59375 4.296875 38.40625 6.46875 38.296875 6.578125 
C 38.296875 6.765625 38 9.828125 38 10.234375 
C 33.203125 6.375 27.703125 5.09375 23.703125 5.09375 
C 17.296875 5.09375 10.40625 10.421875 10.09375 21.484375 
z
M 10.90625 27 
C 12.203125 32.59375 16.59375 37.890625 22.203125 37.890625 
C 23.703125 37.890625 30.703125 37.6875 32.5 27 
z
" id="CMSS17-101"/>
       <path d="M 44.5 44 
C 38.796875 43.890625 33.90625 42.796875 29.90625 40.890625 
C 26.59375 43.484375 23.203125 44 20.90625 44 
C 12.203125 44 5.59375 36.8125 5.59375 28.5 
C 5.59375 23.140625 8.59375 19.09375 8.796875 18.890625 
C 7 16.390625 6 13.6875 6 10.6875 
C 6 7.1875 7.40625 4.6875 8.5 3.296875 
C 3.296875 0.09375 2.59375 -4.8125 2.59375 -6.703125 
C 2.59375 -14 11.703125 -20 23.40625 -20 
C 35.203125 -20 44.296875 -14 44.296875 -6.609375 
C 44.296875 7.1875 29 7.296875 24.796875 7.296875 
L 16.703125 7.296875 
C 15.203125 7.296875 11.203125 7.296875 11.203125 12.390625 
C 11.203125 14.390625 12.09375 15.6875 12.203125 15.796875 
C 13.703125 14.6875 16.796875 13 20.90625 13 
C 29.203125 13 36.09375 19.984375 36.09375 28.5 
C 36.09375 33.25 33.90625 36.703125 33 37.890625 
L 33.296875 37.890625 
C 33.59375 37.890625 37.796875 38.1875 39.296875 38.1875 
C 42.5 38.1875 42.796875 38.09375 45.59375 37.796875 
z
M 20.90625 18.5 
C 17.5 18.5 12.703125 20.578125 12.703125 28.5 
C 12.703125 37.109375 18.203125 38.484375 20.796875 38.484375 
C 24.203125 38.484375 29 36.40625 29 28.5 
C 29 19.875 23.5 18.5 20.90625 18.5 
z
M 24.703125 0 
C 27.09375 0 37.203125 0 37.203125 -6.8125 
C 37.203125 -11.109375 31 -14.5 23.5 -14.5 
C 15.90625 -14.5 9.703125 -11.203125 9.703125 -6.703125 
C 9.703125 -6.203125 9.703125 0 16.59375 0 
z
" id="CMSS17-103"/>
       <path d="M 15.296875 66 
L 6.90625 66 
L 6.90625 57.59375 
L 15.296875 57.59375 
z
M 14.796875 43 
L 7.40625 43 
L 7.40625 0 
L 14.796875 0 
z
" id="CMSS17-105"/>
       <path d="M 67 29.34375 
C 67 36.078125 65.296875 44 54.09375 44 
C 46.59375 44 42.09375 39.296875 40.09375 36.375 
C 38.296875 41.6875 34.09375 44 28.09375 44 
C 21.296875 44 17 40.09375 14.703125 37.28125 
L 14.703125 43.484375 
L 7.40625 43.484375 
L 7.40625 0 
L 15 0 
L 15 24.3125 
C 15 30.25 17.203125 37.890625 24.296875 37.890625 
C 33.40625 37.890625 33.40625 31.453125 33.40625 28.53125 
L 33.40625 0 
L 41 0 
L 41 24.3125 
C 41 30.25 43.203125 37.890625 50.296875 37.890625 
C 59.40625 37.890625 59.40625 31.453125 59.40625 28.53125 
L 59.40625 0 
L 67 0 
z
" id="CMSS17-109"/>
       <path d="M 17.09375 69 
L 8.703125 69 
L 8.703125 0 
L 17.09375 0 
z
" id="CMSS17-73"/>
      </defs>
      <use transform="scale(0.996264)" xlink:href="#CMSS17-114"/>
      <use transform="translate(31.909773 0)scale(0.996264)" xlink:href="#CMSS17-101"/>
      <use transform="translate(73.548595 0)scale(0.996264)" xlink:href="#CMSS17-103"/>
      <use transform="translate(120.392218 0)scale(0.996264)" xlink:href="#CMSS17-105"/>
      <use transform="translate(142.572941 0)scale(0.996264)" xlink:href="#CMSS17-109"/>
      <use transform="translate(216.802196 0)scale(0.996264)" xlink:href="#CMSS17-101"/>
      <use transform="translate(289.67013 0)scale(0.996264)" xlink:href="#CMSS17-73"/>
     </g>
    </g>
    <g id="PathCollection_7">
     <g>
      <use style="fill:#ff7f0e;stroke:#ff7f0e;stroke-width:1.5;" x="162.016444" xlink:href="#m937d00b4f7" y="16.173437"/>
     </g>
    </g>
    <g id="text_20">
     <!-- regime II -->
     <g transform="translate(180.016444 18.798437)scale(0.1 -0.1)">
      <use transform="scale(0.996264)" xlink:href="#CMSS17-114"/>
      <use transform="translate(31.909773 0)scale(0.996264)" xlink:href="#CMSS17-101"/>
      <use transform="translate(73.548595 0)scale(0.996264)" xlink:href="#CMSS17-103"/>
      <use transform="translate(120.392218 0)scale(0.996264)" xlink:href="#CMSS17-105"/>
      <use transform="translate(142.572941 0)scale(0.996264)" xlink:href="#CMSS17-109"/>
      <use transform="translate(216.802196 0)scale(0.996264)" xlink:href="#CMSS17-101"/>
      <use transform="translate(289.67013 0)scale(0.996264)" xlink:href="#CMSS17-73"/>
      <use transform="translate(318.056495 0)scale(0.996264)" xlink:href="#CMSS17-73"/>
     </g>
    </g>
    <g id="PathCollection_8">
     <g>
      <use style="fill:#2ca02c;stroke:#2ca02c;" x="246.684587" xlink:href="#me57d399458" y="16.173437"/>
     </g>
    </g>
    <g id="text_21">
     <!-- regime III -->
     <g transform="translate(264.684587 18.798437)scale(0.1 -0.1)">
      <use transform="scale(0.996264)" xlink:href="#CMSS17-114"/>
      <use transform="translate(31.909773 0)scale(0.996264)" xlink:href="#CMSS17-101"/>
      <use transform="translate(73.548595 0)scale(0.996264)" xlink:href="#CMSS17-103"/>
      <use transform="translate(120.392218 0)scale(0.996264)" xlink:href="#CMSS17-105"/>
      <use transform="translate(142.572941 0)scale(0.996264)" xlink:href="#CMSS17-109"/>
      <use transform="translate(216.802196 0)scale(0.996264)" xlink:href="#CMSS17-101"/>
      <use transform="translate(289.67013 0)scale(0.996264)" xlink:href="#CMSS17-73"/>
      <use transform="translate(318.056495 0)scale(0.996264)" xlink:href="#CMSS17-73"/>
      <use transform="translate(346.442859 0)scale(0.996264)" xlink:href="#CMSS17-73"/>
     </g>
    </g>
    <g id="PathCollection_9">
     <g>
      <use style="fill:#d62728;stroke:#d62728;" x="334.396903" xlink:href="#m4265d6db7b" y="16.173437"/>
     </g>
    </g>
    <g id="text_22">
     <!-- regime IV -->
     <g transform="translate(352.396903 18.798437)scale(0.1 -0.1)">
      <defs>
       <path d="M 61.09375 69 
L 53.296875 69 
L 36 21.265625 
C 35.5 19.875 32.40625 10.734375 31.796875 7.5625 
L 31.703125 7.5625 
C 30.90625 11.328125 27.703125 20.171875 26 25.046875 
L 14.40625 57.34375 
L 10.09375 69 
L 1.296875 69 
L 26.796875 0 
L 35.59375 0 
z
" id="CMSS17-86"/>
      </defs>
      <use transform="scale(0.996264)" xlink:href="#CMSS17-114"/>
      <use transform="translate(31.909773 0)scale(0.996264)" xlink:href="#CMSS17-101"/>
      <use transform="translate(73.548595 0)scale(0.996264)" xlink:href="#CMSS17-103"/>
      <use transform="translate(120.392218 0)scale(0.996264)" xlink:href="#CMSS17-105"/>
      <use transform="translate(142.572941 0)scale(0.996264)" xlink:href="#CMSS17-109"/>
      <use transform="translate(216.802196 0)scale(0.996264)" xlink:href="#CMSS17-101"/>
      <use transform="translate(289.67013 0)scale(0.996264)" xlink:href="#CMSS17-73"/>
      <use transform="translate(315.454056 0)scale(0.996264)" xlink:href="#CMSS17-86"/>
     </g>
    </g>
    <g id="PathCollection_10">
     <g>
      <use style="fill:#9467bd;stroke:#9467bd;" x="422.662654" xlink:href="#m5374f25dca" y="16.173437"/>
     </g>
    </g>
    <g id="text_23">
     <!-- regime V -->
     <g transform="translate(440.662654 18.798437)scale(0.1 -0.1)">
      <use transform="scale(0.996264)" xlink:href="#CMSS17-114"/>
      <use transform="translate(31.909773 0)scale(0.996264)" xlink:href="#CMSS17-101"/>
      <use transform="translate(73.548595 0)scale(0.996264)" xlink:href="#CMSS17-103"/>
      <use transform="translate(120.392218 0)scale(0.996264)" xlink:href="#CMSS17-105"/>
      <use transform="translate(142.572941 0)scale(0.996264)" xlink:href="#CMSS17-109"/>
      <use transform="translate(216.802196 0)scale(0.996264)" xlink:href="#CMSS17-101"/>
      <use transform="translate(289.67013 0)scale(0.996264)" xlink:href="#CMSS17-86"/>
     </g>
    </g>
   </g>
  </g>
 </g>
 <defs>
  <clipPath id="p9007889283">
   <rect height="271.8" width="446.4" x="51.076728" y="32.098"/>
  </clipPath>
 </defs>
</svg>
