<?xml version="1.0" encoding="utf-8" standalone="no"?>
<!DOCTYPE svg PUBLIC "-//W3C//DTD SVG 1.1//EN"
  "http://www.w3.org/Graphics/SVG/1.1/DTD/svg11.dtd">
<!-- Created with matplotlib (https://matplotlib.org/) -->
<svg height="209.650603pt" version="1.1" viewBox="0 0 500.857759 209.650603" width="500.857759pt" xmlns="http://www.w3.org/2000/svg" xmlns:xlink="http://www.w3.org/1999/xlink">
 <defs>
  <style type="text/css">
*{stroke-linecap:butt;stroke-linejoin:round;}
  </style>
 </defs>
 <g id="figure_1">
  <g id="patch_1">
   <path d="M 0 209.650603 
L 500.857759 209.650603 
L 500.857759 0 
L 0 0 
z
" style="fill:#ffffff;"/>
  </g>
  <g id="axes_1">
   <g id="patch_2">
    <path d="M 44.767091 173.739249 
L 491.167091 173.739249 
L 491.167091 10.659249 
L 44.767091 10.659249 
z
" style="fill:#ffffff;"/>
   </g>
   <g id="matplotlib.axis_1">
    <g id="xtick_1">
     <g id="line2d_1">
      <defs>
       <path d="M 0 0 
L 0 3.5 
" id="m9bf5d897ef" style="stroke:#000000;stroke-width:0.8;"/>
      </defs>
      <g>
       <use style="stroke:#000000;stroke-width:0.8;" x="44.767091" xlink:href="#m9bf5d897ef" y="173.739249"/>
      </g>
     </g>
     <g id="text_1">
      <!-- $0$ -->
      <defs>
       <path d="M 42 31.84375 
C 42 37.96875 41.90625 48.421875 37.703125 56.453125 
C 34 63.484375 28.09375 66 22.90625 66 
C 18.09375 66 12 63.78125 8.203125 56.5625 
C 4.203125 49.015625 3.796875 39.671875 3.796875 31.84375 
C 3.796875 26.109375 3.90625 17.375 7 9.734375 
C 11.296875 -0.609375 19 -2 22.90625 -2 
C 27.5 -2 34.5 -0.109375 38.59375 9.4375 
C 41.59375 16.375 42 24.5 42 31.84375 
z
M 22.90625 -0.40625 
C 16.5 -0.40625 12.703125 5.125 11.296875 12.75 
C 10.203125 18.6875 10.203125 27.328125 10.203125 32.953125 
C 10.203125 40.6875 10.203125 47.109375 11.5 53.234375 
C 13.40625 61.78125 19 64.390625 22.90625 64.390625 
C 27 64.390625 32.296875 61.671875 34.203125 53.4375 
C 35.5 47.71875 35.59375 40.984375 35.59375 32.953125 
C 35.59375 26.421875 35.59375 18.375 34.40625 12.453125 
C 32.296875 1.5 26.40625 -0.40625 22.90625 -0.40625 
z
" id="CMR17-48"/>
      </defs>
      <g transform="translate(42.276423 187.657748)scale(0.1 -0.1)">
       <use transform="scale(0.996264)" xlink:href="#CMR17-48"/>
      </g>
     </g>
    </g>
    <g id="xtick_2">
     <g id="line2d_2">
      <g>
       <use style="stroke:#000000;stroke-width:0.8;" x="100.567091" xlink:href="#m9bf5d897ef" y="173.739249"/>
      </g>
     </g>
     <g id="text_2">
      <!-- $1$ -->
      <defs>
       <path d="M 26.59375 63.796875 
C 26.59375 65.890625 26.5 66 25.09375 66 
C 21.203125 61.359375 15.296875 59.890625 9.703125 59.6875 
C 9.40625 59.6875 8.90625 59.6875 8.796875 59.5 
C 8.703125 59.296875 8.703125 59.09375 8.703125 57 
C 11.796875 57 17 57.59375 21 59.984375 
L 21 7.296875 
C 21 3.796875 20.796875 2.59375 12.203125 2.59375 
L 9.203125 2.59375 
L 9.203125 0 
C 14 0.09375 19 0.1875 23.796875 0.1875 
C 28.59375 0.1875 33.59375 0.09375 38.40625 0 
L 38.40625 2.59375 
L 35.40625 2.59375 
C 26.796875 2.59375 26.59375 3.6875 26.59375 7.296875 
z
" id="CMR17-49"/>
      </defs>
      <g transform="translate(98.076423 187.657748)scale(0.1 -0.1)">
       <use transform="scale(0.996264)" xlink:href="#CMR17-49"/>
      </g>
     </g>
    </g>
    <g id="xtick_3">
     <g id="line2d_3">
      <g>
       <use style="stroke:#000000;stroke-width:0.8;" x="156.367091" xlink:href="#m9bf5d897ef" y="173.739249"/>
      </g>
     </g>
     <g id="text_3">
      <!-- $2$ -->
      <defs>
       <path d="M 41.703125 15.46875 
L 39.90625 15.46875 
C 38.90625 8.390625 38.09375 7.1875 37.703125 6.59375 
C 37.203125 5.796875 30 5.796875 28.59375 5.796875 
L 9.40625 5.796875 
C 13 9.6875 20 16.765625 28.5 24.9375 
C 34.59375 30.71875 41.703125 37.5 41.703125 47.390625 
C 41.703125 59.1875 32.296875 66 21.796875 66 
C 10.796875 66 4.09375 56.296875 4.09375 47.296875 
C 4.09375 43.390625 7 42.890625 8.203125 42.890625 
C 9.203125 42.890625 12.203125 43.484375 12.203125 46.984375 
C 12.203125 50.09375 9.59375 51 8.203125 51 
C 7.59375 51 7 50.890625 6.59375 50.6875 
C 8.5 59.1875 14.296875 63.390625 20.40625 63.390625 
C 29.09375 63.390625 34.796875 56.5 34.796875 47.390625 
C 34.796875 38.703125 29.703125 31.21875 24 24.734375 
L 4.09375 2.296875 
L 4.09375 0 
L 39.296875 0 
z
" id="CMR17-50"/>
      </defs>
      <g transform="translate(153.876423 187.657748)scale(0.1 -0.1)">
       <use transform="scale(0.996264)" xlink:href="#CMR17-50"/>
      </g>
     </g>
    </g>
    <g id="xtick_4">
     <g id="line2d_4">
      <g>
       <use style="stroke:#000000;stroke-width:0.8;" x="212.167091" xlink:href="#m9bf5d897ef" y="173.739249"/>
      </g>
     </g>
     <g id="text_4">
      <!-- $3$ -->
      <defs>
       <path d="M 22.09375 34 
C 31 34 34.90625 26.140625 34.90625 17.09375 
C 34.90625 5.03125 28.5 0.390625 22.703125 0.390625 
C 17.40625 0.390625 8.796875 3.015625 6.09375 10.796875 
C 6.59375 10.59375 7.09375 10.59375 7.59375 10.59375 
C 10 10.59375 11.796875 12.1875 11.796875 14.796875 
C 11.796875 17.6875 9.59375 19 7.59375 19 
C 5.90625 19 3.296875 18.1875 3.296875 14.484375 
C 3.296875 5.234375 12.296875 -2 22.90625 -2 
C 34 -2 42.5 6.75 42.5 16.984375 
C 42.5 26.84375 34.5 34 25 35.09375 
C 32.59375 36.671875 39.90625 43.375 39.90625 52.390625 
C 39.90625 60.25 32 66 23 66 
C 13.90625 66 5.90625 60.34375 5.90625 52.296875 
C 5.90625 48.796875 8.5 48.1875 9.796875 48.1875 
C 11.90625 48.1875 13.703125 49.484375 13.703125 52.09375 
C 13.703125 54.6875 11.90625 56 9.796875 56 
C 9.40625 56 8.90625 56 8.5 55.796875 
C 11.40625 62.484375 19.296875 63.6875 22.796875 63.6875 
C 26.296875 63.6875 32.90625 61.96875 32.90625 52.296875 
C 32.90625 49.484375 32.5 44.546875 29.09375 40.21875 
C 26.09375 36.390625 22.703125 36.1875 19.40625 35.890625 
C 18.90625 35.890625 16.59375 35.6875 16.203125 35.6875 
C 15.5 35.59375 15.09375 35.5 15.09375 34.796875 
C 15.09375 34.09375 15.203125 34 17.203125 34 
z
" id="CMR17-51"/>
      </defs>
      <g transform="translate(209.676423 187.657748)scale(0.1 -0.1)">
       <use transform="scale(0.996264)" xlink:href="#CMR17-51"/>
      </g>
     </g>
    </g>
    <g id="xtick_5">
     <g id="line2d_5">
      <g>
       <use style="stroke:#000000;stroke-width:0.8;" x="267.967091" xlink:href="#m9bf5d897ef" y="173.739249"/>
      </g>
     </g>
     <g id="text_5">
      <!-- $4$ -->
      <defs>
       <path d="M 33.59375 64.796875 
C 33.59375 66.890625 33.5 67 31.703125 67 
L 2 19.59375 
L 2 17 
L 27.796875 17 
L 27.796875 7.1875 
C 27.796875 3.59375 27.59375 2.59375 20.59375 2.59375 
L 18.703125 2.59375 
L 18.703125 0 
C 21.90625 0.1875 27.296875 0.1875 30.703125 0.1875 
C 34.09375 0.1875 39.5 0.1875 42.703125 0 
L 42.703125 2.59375 
L 40.796875 2.59375 
C 33.796875 2.59375 33.59375 3.59375 33.59375 7.1875 
L 33.59375 17 
L 43.796875 17 
L 43.796875 19.59375 
L 33.59375 19.59375 
z
M 28.09375 58.171875 
L 28.09375 19.59375 
L 4 19.59375 
z
" id="CMR17-52"/>
      </defs>
      <g transform="translate(265.476423 187.657748)scale(0.1 -0.1)">
       <use transform="scale(0.996264)" xlink:href="#CMR17-52"/>
      </g>
     </g>
    </g>
    <g id="xtick_6">
     <g id="line2d_6">
      <g>
       <use style="stroke:#000000;stroke-width:0.8;" x="323.767091" xlink:href="#m9bf5d897ef" y="173.739249"/>
      </g>
     </g>
     <g id="text_6">
      <!-- $5$ -->
      <defs>
       <path d="M 11.40625 58.59375 
C 12.40625 58.1875 16.5 56.890625 20.703125 56.890625 
C 30 56.890625 35.09375 61.890625 38 64.6875 
C 38 65.484375 38 66 37.40625 66 
C 37.296875 66 37.09375 66 36.296875 65.59375 
C 32.796875 64.09375 28.703125 63 23.703125 63 
C 20.703125 63 16.203125 63.359375 11.296875 65.484375 
C 10.203125 66 10 66 9.90625 66 
C 9.40625 66 9.296875 65.890625 9.296875 63.90625 
L 9.296875 34.859375 
C 9.296875 33.015625 9.296875 32.5 10.296875 32.5 
C 10.796875 32.5 11 32.703125 11.5 33.421875 
C 14.703125 38.046875 19.09375 40 24.09375 40 
C 27.59375 40 35.09375 37.734375 35.09375 20.203125 
C 35.09375 16.984375 35.09375 11.1875 32.09375 6.59375 
C 29.59375 2.484375 25.703125 0.390625 21.40625 0.390625 
C 14.796875 0.390625 8.09375 4.984375 6.296875 12.6875 
C 6.703125 12.59375 7.5 12.390625 7.90625 12.390625 
C 9.203125 12.390625 11.703125 13.09375 11.703125 16.1875 
C 11.703125 18.890625 9.796875 20 7.90625 20 
C 5.59375 20 4.09375 18.59375 4.09375 15.796875 
C 4.09375 7.09375 11 -2 21.59375 -2 
C 31.90625 -2 41.703125 6.890625 41.703125 19.796875 
C 41.703125 32.09375 33.90625 41.59375 24.203125 41.59375 
C 19.09375 41.59375 14.796875 39.6875 11.40625 36 
z
" id="CMR17-53"/>
      </defs>
      <g transform="translate(321.276423 187.657748)scale(0.1 -0.1)">
       <use transform="scale(0.996264)" xlink:href="#CMR17-53"/>
      </g>
     </g>
    </g>
    <g id="xtick_7">
     <g id="line2d_7">
      <g>
       <use style="stroke:#000000;stroke-width:0.8;" x="379.567091" xlink:href="#m9bf5d897ef" y="173.739249"/>
      </g>
     </g>
     <g id="text_7">
      <!-- $6$ -->
      <defs>
       <path d="M 10.59375 34.34375 
C 10.59375 58 21.796875 63.6875 28.296875 63.6875 
C 30.40625 63.6875 35.5 63.265625 37.5 59.09375 
C 35.90625 59.09375 32.90625 59.09375 32.90625 55.59375 
C 32.90625 52.890625 35.09375 52 36.5 52 
C 37.40625 52 40.09375 52.390625 40.09375 55.796875 
C 40.09375 62.296875 35.09375 66 28.203125 66 
C 16.296875 66 3.796875 53.296875 3.796875 31.421875 
C 3.796875 4.015625 15.09375 -2 23.09375 -2 
C 32.796875 -2 42 6.734375 42 20.234375 
C 42 32.828125 33.90625 42 23.703125 42 
C 17.59375 42 13.09375 37.96875 10.59375 30.921875 
z
M 23.09375 0.390625 
C 10.796875 0.390625 10.796875 18.9375 10.796875 22.65625 
C 10.796875 29.90625 14.203125 40.390625 23.5 40.390625 
C 25.203125 40.390625 30.09375 40.390625 33.40625 33.4375 
C 35.203125 29.515625 35.203125 25.375 35.203125 20.34375 
C 35.203125 14.90625 35.203125 10.875 33.09375 6.84375 
C 30.90625 2.703125 27.703125 0.390625 23.09375 0.390625 
z
" id="CMR17-54"/>
      </defs>
      <g transform="translate(377.076423 187.657748)scale(0.1 -0.1)">
       <use transform="scale(0.996264)" xlink:href="#CMR17-54"/>
      </g>
     </g>
    </g>
    <g id="xtick_8">
     <g id="line2d_8">
      <g>
       <use style="stroke:#000000;stroke-width:0.8;" x="435.367091" xlink:href="#m9bf5d897ef" y="173.739249"/>
      </g>
     </g>
     <g id="text_8">
      <!-- $7$ -->
      <defs>
       <path d="M 45.09375 61.796875 
L 45.09375 64 
L 21.59375 64 
C 9.90625 64 9.703125 65.09375 9.296875 67 
L 7.5 67 
L 4.59375 48.5 
L 6.40625 48.5 
C 6.703125 50.40625 7.40625 55.5 8.59375 57.390625 
C 9.203125 58.1875 16.59375 58.1875 18.296875 58.1875 
L 40.296875 58.1875 
L 29.203125 41.71875 
C 21.796875 30.640625 16.703125 15.671875 16.703125 2.59375 
C 16.703125 1.390625 16.703125 -2 20.296875 -2 
C 23.90625 -2 23.90625 1.390625 23.90625 2.6875 
L 23.90625 7.28125 
C 23.90625 23.65625 26.703125 34.4375 31.296875 41.3125 
z
" id="CMR17-55"/>
      </defs>
      <g transform="translate(432.876423 187.657748)scale(0.1 -0.1)">
       <use transform="scale(0.996264)" xlink:href="#CMR17-55"/>
      </g>
     </g>
    </g>
    <g id="xtick_9">
     <g id="line2d_9">
      <g>
       <use style="stroke:#000000;stroke-width:0.8;" x="491.167091" xlink:href="#m9bf5d897ef" y="173.739249"/>
      </g>
     </g>
     <g id="text_9">
      <!-- $8$ -->
      <defs>
       <path d="M 27.203125 35.765625 
C 33.5 38.96875 39.90625 43.796875 39.90625 51.53125 
C 39.90625 60.6875 31.09375 66 23 66 
C 13.90625 66 5.90625 59.375 5.90625 50.234375 
C 5.90625 47.71875 6.5 43.390625 10.40625 39.578125 
C 11.40625 38.578125 15.59375 35.5625 18.296875 33.65625 
C 13.796875 31.34375 3.296875 25.8125 3.296875 14.765625 
C 3.296875 4.40625 13.09375 -2 22.796875 -2 
C 33.5 -2 42.5 5.71875 42.5 15.96875 
C 42.5 25.109375 36.40625 29.328125 32.40625 32.046875 
z
M 14.09375 44.609375 
C 13.296875 45.109375 9.296875 48.21875 9.296875 52.9375 
C 9.296875 59.078125 15.59375 63.6875 22.796875 63.6875 
C 30.703125 63.6875 36.5 58.0625 36.5 51.53125 
C 36.5 42.1875 26.09375 36.859375 25.59375 36.859375 
C 25.5 36.859375 25.40625 36.859375 24.59375 37.46875 
z
M 32.5 24 
C 34 22.90625 38.796875 19.578125 38.796875 13.453125 
C 38.796875 6.015625 31.40625 0.390625 23 0.390625 
C 13.90625 0.390625 7 6.921875 7 14.859375 
C 7 22.796875 13.09375 29.4375 20 32.546875 
z
" id="CMR17-56"/>
      </defs>
      <g transform="translate(488.676423 187.657748)scale(0.1 -0.1)">
       <use transform="scale(0.996264)" xlink:href="#CMR17-56"/>
      </g>
     </g>
    </g>
    <g id="text_10">
     <!-- $\tilde{t}$ -->
     <defs>
      <path d="M 37.5 65.59375 
C 34.09375 62.296875 32.203125 60.390625 29.09375 60.390625 
C 26.90625 60.390625 25.40625 61.5 23.296875 63 
C 21.296875 64.390625 19.703125 65.59375 17.5 65.59375 
C 13.90625 65.59375 11.40625 62.6875 7.203125 58.09375 
L 8.296875 57 
C 11.703125 60.296875 13.59375 62.1875 16.703125 62.1875 
C 18.90625 62.1875 20.40625 61.09375 22.5 59.59375 
C 24.5 58.1875 26.09375 57 28.296875 57 
C 31.90625 57 34.40625 59.890625 38.59375 64.5 
z
" id="CMR17-126"/>
      <path d="M 20.09375 40.09375 
L 29.296875 40.09375 
C 31.203125 40.09375 32.203125 40.09375 32.203125 41.890625 
C 32.203125 43 31.59375 43 29.59375 43 
L 20.796875 43 
L 24.5 57.25 
C 24.90625 58.625 24.90625 58.8125 24.90625 59.5 
C 24.90625 61.09375 23.59375 62 22.296875 62 
C 21.5 62 19.203125 61.6875 18.40625 58.53125 
L 14.5 43 
L 5.09375 43 
C 3.09375 43 2.203125 43 2.203125 41.09375 
C 2.203125 40.09375 2.90625 40.09375 4.796875 40.09375 
L 13.703125 40.09375 
L 7.09375 13.765625 
C 6.296875 10.265625 6 9.265625 6 7.96875 
C 6 3.28125 9.296875 -1 14.90625 -1 
C 25 -1 30.40625 13.5625 30.40625 14.265625 
C 30.40625 14.859375 30 15.15625 29.40625 15.15625 
C 29.203125 15.15625 28.796875 15.15625 28.59375 14.75 
C 28.5 14.65625 28.40625 14.5625 27.703125 12.96875 
C 25.59375 7.96875 21 1 15.203125 1 
C 12.203125 1 12 3.484375 12 5.6875 
C 12 5.78125 12 7.671875 12.296875 8.875 
z
" id="CMMI12-116"/>
     </defs>
     <g transform="translate(265.407225 200.513424)scale(0.1 -0.1)">
      <use transform="translate(2.89708 18.389976)scale(0.996264)" xlink:href="#CMR17-126"/>
      <use transform="scale(0.996264)" xlink:href="#CMMI12-116"/>
     </g>
    </g>
   </g>
   <g id="matplotlib.axis_2">
    <g id="ytick_1">
     <g id="line2d_10">
      <defs>
       <path d="M 0 0 
L -3.5 0 
" id="m90932f1daf" style="stroke:#000000;stroke-width:0.8;"/>
      </defs>
      <g>
       <use style="stroke:#000000;stroke-width:0.8;" x="44.767091" xlink:href="#m90932f1daf" y="173.739249"/>
      </g>
     </g>
     <g id="text_11">
      <!-- $2.90$ -->
      <defs>
       <path d="M 18.40625 4.796875 
C 18.40625 7.6875 16 9.6875 13.59375 9.6875 
C 10.703125 9.6875 8.703125 7.296875 8.703125 4.890625 
C 8.703125 2 11.09375 0 13.5 0 
C 16.40625 0 18.40625 2.390625 18.40625 4.796875 
z
" id="CMMI12-58"/>
       <path d="M 35.203125 29.234375 
C 35.203125 7 26.09375 0.390625 18.59375 0.390625 
C 16.296875 0.390625 10.703125 0.671875 8.40625 4.390625 
C 11 4 12.90625 5.390625 12.90625 7.890625 
C 12.90625 10.59375 10.703125 11.5 9.296875 11.5 
C 8.40625 11.5 5.703125 11.09375 5.703125 7.6875 
C 5.703125 1.0625 11.59375 -2 18.796875 -2 
C 30.296875 -2 42 10.390625 42 32.65625 
C 42 60.265625 30.796875 66 23.203125 66 
C 13.296875 66 3.796875 57.25 3.796875 43.75 
C 3.796875 31.25 11.90625 22 22.09375 22 
C 30.5 22 34.203125 29.84375 35.203125 33.15625 
z
M 22.296875 23.59375 
C 19.59375 23.59375 15.796875 24.09375 12.703125 30.140625 
C 10.59375 34.078125 10.59375 38.703125 10.59375 43.640625 
C 10.59375 49.59375 10.59375 53.71875 13.40625 58.15625 
C 14.796875 60.265625 17.40625 63.6875 23.203125 63.6875 
C 35 63.6875 35 45.453125 35 41.421875 
C 35 34.265625 31.796875 23.59375 22.296875 23.59375 
z
" id="CMR17-57"/>
      </defs>
      <g transform="translate(20.055677 177.198498)scale(0.1 -0.1)">
       <use transform="scale(0.996264)" xlink:href="#CMR17-50"/>
       <use transform="translate(45.690477 0)scale(0.996264)" xlink:href="#CMMI12-58"/>
       <use transform="translate(72.787654 0)scale(0.996264)" xlink:href="#CMR17-57"/>
       <use transform="translate(118.478131 0)scale(0.996264)" xlink:href="#CMR17-48"/>
      </g>
     </g>
    </g>
    <g id="ytick_2">
     <g id="line2d_11">
      <g>
       <use style="stroke:#000000;stroke-width:0.8;" x="44.767091" xlink:href="#m90932f1daf" y="150.442106"/>
      </g>
     </g>
     <g id="text_12">
      <!-- $2.95$ -->
      <g transform="translate(20.055677 153.901356)scale(0.1 -0.1)">
       <use transform="scale(0.996264)" xlink:href="#CMR17-50"/>
       <use transform="translate(45.690477 0)scale(0.996264)" xlink:href="#CMMI12-58"/>
       <use transform="translate(72.787654 0)scale(0.996264)" xlink:href="#CMR17-57"/>
       <use transform="translate(118.478131 0)scale(0.996264)" xlink:href="#CMR17-53"/>
      </g>
     </g>
    </g>
    <g id="ytick_3">
     <g id="line2d_12">
      <g>
       <use style="stroke:#000000;stroke-width:0.8;" x="44.767091" xlink:href="#m90932f1daf" y="127.144963"/>
      </g>
     </g>
     <g id="text_13">
      <!-- $3.00$ -->
      <g transform="translate(20.055677 130.604213)scale(0.1 -0.1)">
       <use transform="scale(0.996264)" xlink:href="#CMR17-51"/>
       <use transform="translate(45.690477 0)scale(0.996264)" xlink:href="#CMMI12-58"/>
       <use transform="translate(72.787654 0)scale(0.996264)" xlink:href="#CMR17-48"/>
       <use transform="translate(118.478131 0)scale(0.996264)" xlink:href="#CMR17-48"/>
      </g>
     </g>
    </g>
    <g id="ytick_4">
     <g id="line2d_13">
      <g>
       <use style="stroke:#000000;stroke-width:0.8;" x="44.767091" xlink:href="#m90932f1daf" y="103.847821"/>
      </g>
     </g>
     <g id="text_14">
      <!-- $3.05$ -->
      <g transform="translate(20.055677 107.30707)scale(0.1 -0.1)">
       <use transform="scale(0.996264)" xlink:href="#CMR17-51"/>
       <use transform="translate(45.690477 0)scale(0.996264)" xlink:href="#CMMI12-58"/>
       <use transform="translate(72.787654 0)scale(0.996264)" xlink:href="#CMR17-48"/>
       <use transform="translate(118.478131 0)scale(0.996264)" xlink:href="#CMR17-53"/>
      </g>
     </g>
    </g>
    <g id="ytick_5">
     <g id="line2d_14">
      <g>
       <use style="stroke:#000000;stroke-width:0.8;" x="44.767091" xlink:href="#m90932f1daf" y="80.550678"/>
      </g>
     </g>
     <g id="text_15">
      <!-- $3.10$ -->
      <g transform="translate(20.055677 84.009927)scale(0.1 -0.1)">
       <use transform="scale(0.996264)" xlink:href="#CMR17-51"/>
       <use transform="translate(45.690477 0)scale(0.996264)" xlink:href="#CMMI12-58"/>
       <use transform="translate(72.787654 0)scale(0.996264)" xlink:href="#CMR17-49"/>
       <use transform="translate(118.478131 0)scale(0.996264)" xlink:href="#CMR17-48"/>
      </g>
     </g>
    </g>
    <g id="ytick_6">
     <g id="line2d_15">
      <g>
       <use style="stroke:#000000;stroke-width:0.8;" x="44.767091" xlink:href="#m90932f1daf" y="57.253535"/>
      </g>
     </g>
     <g id="text_16">
      <!-- $3.15$ -->
      <g transform="translate(20.055677 60.712784)scale(0.1 -0.1)">
       <use transform="scale(0.996264)" xlink:href="#CMR17-51"/>
       <use transform="translate(45.690477 0)scale(0.996264)" xlink:href="#CMMI12-58"/>
       <use transform="translate(72.787654 0)scale(0.996264)" xlink:href="#CMR17-49"/>
       <use transform="translate(118.478131 0)scale(0.996264)" xlink:href="#CMR17-53"/>
      </g>
     </g>
    </g>
    <g id="ytick_7">
     <g id="line2d_16">
      <g>
       <use style="stroke:#000000;stroke-width:0.8;" x="44.767091" xlink:href="#m90932f1daf" y="33.956392"/>
      </g>
     </g>
     <g id="text_17">
      <!-- $3.20$ -->
      <g transform="translate(20.055677 37.415641)scale(0.1 -0.1)">
       <use transform="scale(0.996264)" xlink:href="#CMR17-51"/>
       <use transform="translate(45.690477 0)scale(0.996264)" xlink:href="#CMMI12-58"/>
       <use transform="translate(72.787654 0)scale(0.996264)" xlink:href="#CMR17-50"/>
       <use transform="translate(118.478131 0)scale(0.996264)" xlink:href="#CMR17-48"/>
      </g>
     </g>
    </g>
    <g id="ytick_8">
     <g id="line2d_17">
      <g>
       <use style="stroke:#000000;stroke-width:0.8;" x="44.767091" xlink:href="#m90932f1daf" y="10.659249"/>
      </g>
     </g>
     <g id="text_18">
      <!-- $3.25$ -->
      <g transform="translate(20.055677 14.118498)scale(0.1 -0.1)">
       <use transform="scale(0.996264)" xlink:href="#CMR17-51"/>
       <use transform="translate(45.690477 0)scale(0.996264)" xlink:href="#CMMI12-58"/>
       <use transform="translate(72.787654 0)scale(0.996264)" xlink:href="#CMR17-50"/>
       <use transform="translate(118.478131 0)scale(0.996264)" xlink:href="#CMR17-53"/>
      </g>
     </g>
    </g>
    <g id="text_19">
     <!-- $c_d$ -->
     <defs>
      <path d="M 39.09375 38 
C 37.203125 38 36.296875 38 34.90625 36.796875 
C 34.296875 36.296875 33.203125 34.796875 33.203125 33.1875 
C 33.203125 31.1875 34.703125 29.984375 36.59375 29.984375 
C 39 29.984375 41.703125 31.984375 41.703125 35.984375 
C 41.703125 40.484375 37.09375 44 30.203125 44 
C 17.09375 44 4 30.1875 4 15.796875 
C 4 6.96875 9.40625 -1 19.59375 -1 
C 33.203125 -1 41.796875 9.71875 41.796875 11.03125 
C 41.796875 11.640625 41.203125 12.140625 40.796875 12.140625 
C 40.5 12.140625 40.40625 12.046875 39.5 11.125 
C 33.09375 2.515625 23.59375 1 19.796875 1 
C 12.90625 1 10.703125 7.078125 10.703125 12.140625 
C 10.703125 15.6875 12.40625 25.53125 16 32.390625 
C 18.59375 37.09375 24 41.984375 30.296875 41.984375 
C 31.59375 41.984375 37.09375 41.8125 39.09375 38 
z
" id="CMMI12-99"/>
      <path d="M 50.296875 66.484375 
C 50.40625 66.890625 50.59375 67.484375 50.59375 67.984375 
C 50.59375 69 49.59375 69 49.40625 69 
C 49.296875 69 44.40625 68.59375 43.90625 68.484375 
C 42.203125 68.390625 40.703125 68.1875 38.90625 68.09375 
C 36.40625 67.890625 35.703125 67.796875 35.703125 65.984375 
C 35.703125 64.984375 36.5 64.984375 37.90625 64.984375 
C 42.796875 64.984375 42.90625 64.109375 42.90625 63.125 
C 42.90625 62.53125 42.703125 61.734375 42.59375 61.4375 
L 36.5 37.40625 
C 35.40625 40 32.703125 44 27.5 44 
C 16.203125 44 4 29.421875 4 14.65625 
C 4 4.78125 9.796875 -1 16.59375 -1 
C 22.09375 -1 26.796875 3.28125 29.59375 6.578125 
C 30.59375 0.6875 35.296875 -1 38.296875 -1 
C 41.296875 -1 43.703125 0.796875 45.5 4.390625 
C 47.09375 7.78125 48.5 13.859375 48.5 14.265625 
C 48.5 14.765625 48.09375 15.15625 47.5 15.15625 
C 46.59375 15.15625 46.5 14.65625 46.09375 13.15625 
C 44.59375 7.28125 42.703125 1 38.59375 1 
C 35.703125 1 35.5 3.59375 35.5 5.578125 
C 35.5 5.984375 35.5 8.078125 36.203125 10.875 
z
M 30.09375 11.859375 
C 29.59375 10.171875 29.59375 9.96875 28.203125 8.078125 
C 26 5.28125 21.59375 1 16.90625 1 
C 12.796875 1 10.5 4.6875 10.5 10.5625 
C 10.5 16.0625 13.59375 27.234375 15.5 31.421875 
C 18.90625 38.40625 23.59375 41.984375 27.5 41.984375 
C 34.09375 41.984375 35.40625 33.8125 35.40625 33.015625 
C 35.40625 32.921875 35.09375 31.625 35 31.421875 
z
" id="CMMI12-100"/>
     </defs>
     <g transform="translate(14.118498 96.428605)rotate(-90)scale(0.1 -0.1)">
      <use transform="translate(0 14.943915)scale(0.996264)" xlink:href="#CMMI12-99"/>
      <use transform="translate(41.983234 0)scale(0.697382)" xlink:href="#CMMI12-100"/>
     </g>
    </g>
   </g>
   <g id="line2d_18">
    <path clip-path="url(#p38bf36b10c)" d="M 45.336886 -1 
L 45.601261 210.650603 
M 52.228195 210.650603 
L 52.858091 171.908965 
L 53.611391 132.569093 
L 54.978491 91.590099 
L 55.369091 86.879109 
L 55.675991 84.818817 
L 55.815491 84.454948 
L 55.843391 84.448462 
L 55.982891 84.028918 
L 56.010791 84.140129 
L 56.206091 84.545294 
L 56.233991 84.435677 
L 56.289791 84.567576 
L 56.429291 85.074666 
L 57.684791 93.815987 
L 58.159091 98.063471 
L 59.637791 109.760216 
L 61.088591 118.095407 
L 63.683291 128.15755 
L 65.580491 133.703664 
L 66.752291 136.66959 
L 68.788991 141.016092 
L 70.211891 143.541017 
L 70.379291 143.795692 
L 72.304391 146.513281 
L 73.838891 148.260375 
L 74.062091 148.478786 
L 74.536391 148.954672 
L 74.759591 149.146673 
L 75.708191 149.980767 
L 76.377791 150.496715 
L 77.633291 151.377282 
L 79.948991 152.728814 
L 80.339591 152.921864 
L 82.180991 153.721971 
L 83.548091 154.174751 
L 86.868191 154.903001 
L 90.411491 155.480924 
L 91.220591 155.60808 
L 92.503991 155.780772 
L 98.753591 155.981687 
L 104.361491 155.845935 
L 110.666891 154.736879 
L 111.029591 154.711629 
L 111.392291 154.660879 
L 111.671291 154.654551 
L 113.763791 154.365541 
L 114.768191 154.100559 
L 115.354091 153.905599 
L 118.674191 152.518963 
L 119.287991 152.295203 
L 119.650691 152.145659 
L 120.431891 151.882774 
L 121.157291 151.654485 
L 121.519991 151.547593 
L 122.356991 151.240881 
L 124.226291 150.221184 
L 128.355491 146.342681 
L 129.136691 145.714864 
L 133.991291 142.518897 
L 134.549291 141.904151 
L 136.027991 139.862795 
L 136.502291 139.116433 
L 138.957491 135.737663 
L 141.356891 133.938112 
L 141.496391 133.875666 
L 143.030891 132.557575 
L 143.421491 132.037266 
L 145.234991 128.68421 
L 145.988291 126.993038 
L 147.885491 123.327708 
L 148.973591 122.222589 
L 149.085191 122.161821 
L 149.531591 121.95415 
L 149.671091 121.922601 
L 149.977991 121.885582 
L 150.340691 121.852388 
L 150.926591 121.830601 
L 151.093991 121.820495 
L 152.488991 121.148936 
L 152.823791 120.748206 
L 153.214391 120.222371 
L 153.437591 119.787656 
L 153.716591 119.251453 
L 155.809091 113.992753 
L 156.757691 111.913641 
L 157.957391 110.510193 
L 158.068991 110.451862 
L 159.184991 110.580406 
L 159.491891 110.771503 
L 159.715091 110.90056 
L 160.049891 111.100454 
L 160.189391 111.110873 
L 160.384691 111.251531 
L 160.858991 111.371987 
L 161.919191 110.788822 
L 162.253991 110.289387 
L 162.337691 110.206594 
L 163.732691 106.648137 
L 164.262791 104.939357 
L 164.485991 104.218529 
L 165.016091 102.611805 
L 165.127691 102.324504 
L 165.462491 101.454212 
L 165.601991 101.102998 
L 166.243691 99.938206 
L 166.438991 99.718765 
L 166.662191 99.552685 
L 166.745891 99.500331 
L 166.885391 99.404408 
L 167.499191 99.556855 
L 168.866291 101.351648 
L 169.228991 101.970336 
L 169.814891 102.707561 
L 169.926491 102.823175 
L 170.233391 103.053663 
L 170.289191 103.058355 
L 170.317091 103.099922 
L 170.540291 103.199331 
L 170.679791 103.158262 
L 170.875091 103.078227 
L 171.070391 102.906905 
L 171.405191 102.50639 
L 171.851591 101.669482 
L 172.158491 100.871997 
L 172.521191 99.810468 
L 173.860391 94.992334 
L 174.223091 93.837476 
L 174.669491 92.528154 
L 174.920591 91.904894 
L 175.366991 91.086787 
L 175.980791 90.695223 
L 176.120291 90.700549 
L 176.287691 90.761471 
L 177.068891 91.762679 
L 177.347891 92.293957 
L 177.626891 92.939101 
L 178.324391 94.529798 
L 179.049791 95.911248 
L 179.217191 96.144877 
L 179.356691 96.23157 
L 179.747291 96.464453 
L 180.109991 96.312281 
L 180.612191 95.70169 
L 181.058591 94.660891 
L 181.421291 93.594711 
L 181.672391 92.680009 
L 181.923491 91.691656 
L 182.258291 90.335184 
L 183.513791 85.3888 
L 184.350791 83.255439 
L 184.378691 83.280292 
L 184.546091 82.961084 
L 184.769291 82.761437 
L 184.936691 82.801955 
L 185.355191 82.934819 
L 185.941091 83.878367 
L 186.275891 84.754638 
L 186.610691 85.75764 
L 187.838291 89.692272 
L 188.005691 90.06983 
L 188.256791 90.704313 
L 188.758991 91.434399 
L 188.898491 91.531875 
L 189.093791 91.691521 
L 189.261191 91.541478 
L 189.316991 91.559966 
L 189.344891 91.526512 
L 189.847091 90.900993 
L 190.963091 87.193248 
L 191.688491 83.813708 
L 192.860291 78.911654 
L 192.888191 78.897932 
L 193.083491 78.184797 
L 193.222991 77.84622 
L 193.418291 77.33235 
L 193.446191 77.35746 
L 193.474091 77.257799 
L 193.697291 76.908752 
L 193.864691 76.767059 
L 193.920491 76.710223 
L 193.976291 76.610236 
L 194.032091 76.679256 
L 194.366891 76.760181 
L 195.259691 78.546499 
L 195.761891 80.222971 
L 196.961591 84.637453 
L 197.826491 86.771173 
L 198.328691 87.053381 
L 198.579791 86.970359 
L 198.607691 87.053437 
L 198.635591 86.925503 
L 199.444691 85.059472 
L 199.723691 84.070433 
L 200.225891 81.795435 
L 200.700191 79.423543 
L 201.425591 75.752654 
L 202.318391 72.314061 
L 202.653191 71.471809 
L 203.071691 71.056291 
L 203.434391 71.130007 
L 204.243491 72.749583 
L 204.801491 74.846009 
L 205.526891 78.183604 
L 206.001191 80.273917 
L 206.810291 83.147256 
L 206.838191 83.13072 
L 207.145091 83.847797 
L 207.200891 83.807702 
L 207.228791 83.832681 
L 207.451991 84.15995 
L 207.479891 84.022823 
L 207.563591 84.044755 
L 207.703091 84.084845 
L 208.372691 82.973073 
L 208.791191 81.623213 
L 209.990891 75.554773 
L 211.246391 69.329469 
L 211.525391 68.335762 
L 211.804391 67.561127 
L 212.390291 66.858029 
L 213.087791 67.703669 
L 213.589991 69.321036 
L 214.426991 73.07223 
L 214.789691 74.895147 
L 215.431391 77.851312 
L 216.045191 79.941658 
L 216.100991 80.001918 
L 216.519491 80.762314 
L 216.714791 80.887978 
L 216.770591 80.796705 
L 216.826391 80.904822 
L 217.161191 80.634636 
L 217.189091 80.66051 
L 217.244891 80.568961 
L 217.468091 80.006634 
L 217.579691 79.722078 
L 218.165591 77.584159 
L 218.584091 75.425008 
L 219.253691 71.611322 
L 220.816091 64.202332 
L 221.374091 63.132406 
L 221.848391 63.184219 
L 222.015791 63.437487 
L 222.434291 64.472467 
L 223.075991 67.026332 
L 223.606091 69.88745 
L 225.168491 77.598063 
L 225.670691 78.85261 
L 226.033391 79.25422 
L 226.089191 79.165024 
L 226.228691 79.06158 
L 226.284491 79.112652 
L 226.312391 79.063384 
L 226.981991 77.648809 
L 227.233091 76.635994 
L 227.372591 76.071257 
L 227.651591 74.640761 
L 229.799891 62.660583 
L 229.939391 62.048963 
L 230.246291 61.228764 
L 230.581091 60.581224 
L 230.608991 60.632105 
L 230.636891 60.51855 
L 230.664791 60.514436 
L 231.055391 60.53695 
L 231.278591 60.927923 
L 231.864491 62.598887 
L 232.757291 66.968425 
L 233.705891 72.353993 
L 234.738191 76.316408 
L 235.212491 77.041294 
L 235.324091 76.943483 
L 235.379891 76.885613 
L 235.435691 76.950892 
L 235.491491 76.862321 
L 235.854191 76.431342 
L 237.081791 71.173918 
L 237.695591 67.354552 
L 239.006891 60.148801 
L 239.620691 58.246865 
L 239.648591 58.258089 
L 239.732291 58.157897 
L 240.122891 58.044319 
L 240.262391 58.084288 
L 240.401891 58.279303 
L 240.987791 59.825232 
L 242.857091 70.332169 
L 243.359291 72.999366 
L 243.805691 74.794653 
L 244.140491 75.661418 
L 244.503191 76.194517 
L 244.670591 76.156981 
L 244.726391 76.161165 
L 244.754291 76.112316 
L 244.977491 75.824545 
L 245.200691 75.491028 
L 245.507591 74.50951 
L 245.758691 73.390846 
L 246.288791 70.640073 
L 248.325491 58.732321 
L 248.381291 58.50769 
L 248.576591 57.855924 
L 248.855591 56.943063 
L 248.967191 56.853826 
L 249.106691 56.660832 
L 249.134591 56.68727 
L 249.190391 56.622755 
L 249.274091 56.52056 
L 249.301991 56.583635 
L 249.497291 56.640857 
L 249.999491 57.601743 
L 250.669091 60.313419 
L 251.980391 68.16477 
L 253.207991 73.858844 
L 253.235891 73.783305 
L 253.263791 73.879713 
L 253.570691 74.40963 
L 253.821791 74.755499 
L 253.849691 74.656133 
L 253.989191 74.569751 
L 254.072891 74.60528 
L 254.268191 74.231402 
L 254.323991 74.2079 
L 254.602991 73.393311 
L 254.993591 71.912214 
L 255.300491 70.354991 
L 255.970091 66.425643 
L 256.388591 63.563752 
L 257.225591 58.590469 
L 257.671991 56.659132 
L 257.978891 55.659735 
L 258.062591 55.457041 
L 258.285791 55.088103 
L 258.536891 54.994364 
L 258.676391 55.086211 
L 258.760091 55.068883 
L 258.927491 55.287158 
L 259.234391 56.025328 
L 259.959791 59.199093 
L 260.908391 65.06365 
L 262.191791 72.402768 
L 262.498691 73.461613 
L 262.526591 73.43854 
L 262.749791 74.067116 
L 262.777691 74.034313 
L 262.805591 74.118434 
L 263.224091 74.454156 
L 263.251991 74.368739 
L 263.447291 74.255086 
L 263.670491 73.807133 
L 263.809991 73.432376 
L 263.949491 73.000614 
L 265.456091 64.624588 
L 265.986191 61.040145 
L 266.739491 56.882444 
L 267.018491 55.768575 
L 267.297491 54.966063 
L 267.576491 54.428766 
L 267.604391 54.485914 
L 267.632291 54.341257 
L 267.771791 54.284612 
L 267.799691 54.340437 
L 267.855491 54.257741 
L 267.883391 54.212317 
L 267.939191 54.274264 
L 268.580891 55.450769 
L 269.306291 58.806508 
L 269.808491 61.794474 
L 270.338591 65.225137 
L 271.733591 72.272308 
L 272.207891 73.14419 
L 272.403191 73.358603 
L 272.431091 73.312046 
L 272.570591 73.185663 
L 272.598491 73.261449 
L 272.654291 73.13756 
L 272.989091 72.564096 
L 273.295991 71.487148 
L 273.323891 71.503284 
L 276.392891 54.231607 
L 276.448691 54.160904 
L 276.616091 53.651242 
L 276.643991 53.694952 
L 277.006691 53.174196 
L 277.118291 53.185863 
L 277.257791 53.35685 
L 277.285691 53.330795 
L 277.313591 53.293025 
L 277.341491 53.344223 
L 277.983191 55.088792 
L 278.596991 58.177989 
L 280.047791 67.671463 
L 280.745291 71.33006 
L 281.275391 72.915244 
L 281.749691 73.461301 
L 281.917091 73.237812 
L 281.944991 73.264016 
L 282.000791 73.174411 
L 282.112391 73.05115 
L 282.502991 72.021305 
L 282.837791 70.606344 
L 282.949391 70.087004 
L 283.591091 66.280623 
L 285.460391 54.9226 
L 285.962591 53.257287 
L 286.018391 53.233077 
L 286.157891 53.049314 
L 286.213691 53.094976 
L 286.241591 53.00688 
L 286.353191 52.929054 
L 286.381091 52.980494 
L 286.771691 53.307474 
L 287.636591 56.423975 
L 287.943491 58.133626 
L 288.892091 64.251531 
L 289.477991 67.860626 
L 290.119691 70.930472 
L 290.510291 72.071016 
L 290.984591 72.590757 
L 291.040391 72.504455 
L 291.598391 71.615869 
L 292.686491 66.444314 
L 293.411891 61.684707 
L 293.746691 59.348708 
L 294.472091 55.154248 
L 295.253291 52.543472 
L 295.281191 52.593002 
L 295.532291 52.172391 
L 295.671791 52.223957 
L 296.118191 52.7808 
L 296.787791 55.286198 
L 297.066791 56.720813 
L 299.047691 69.458983 
L 299.661491 72.017521 
L 299.689391 72.00406 
L 299.717291 72.087972 
L 300.052091 72.745967 
L 300.247391 72.780927 
L 300.303191 72.912956 
L 300.386891 72.868631 
L 300.498491 72.630376 
L 300.554291 72.662596 
L 300.833291 72.07589 
L 301.112291 71.207382 
L 302.367791 64.186117 
L 302.869991 60.653869 
L 304.209191 53.385082 
L 304.237091 53.367986 
L 304.460291 52.698161 
L 304.599791 52.389376 
L 304.878791 52.192352 
L 305.046191 52.252202 
L 305.074091 52.183476 
L 305.129891 52.292721 
L 305.687891 53.46541 
L 306.385391 56.766657 
L 307.333991 62.869647 
L 307.947791 66.834047 
L 308.422091 69.322191 
L 308.868491 71.07887 
L 308.980091 71.377582 
L 309.259091 71.849116 
L 309.510191 72.054503 
L 309.649691 72.030232 
L 310.319291 70.64764 
L 310.960991 67.683167 
L 311.937491 61.322903 
L 312.579191 57.15736 
L 312.941891 55.094784 
L 313.360391 53.331876 
L 313.695191 52.136658 
L 314.225291 51.645503 
L 314.615891 52.110281 
L 315.285491 54.384813 
L 316.261991 60.342251 
L 317.740691 69.690854 
L 318.103391 71.215485 
L 318.633491 72.445285 
L 318.661391 72.418852 
L 318.856691 72.527934 
L 318.884591 72.632571 
L 318.912491 72.469761 
L 318.940391 72.478199 
L 319.163591 72.316866 
L 319.358891 71.861612 
L 319.498391 71.540671 
L 319.749491 70.580255 
L 319.805291 70.406985 
L 320.530691 66.515253 
L 321.702491 58.434942 
L 322.065191 56.294937 
L 322.511591 54.036866 
L 323.097491 52.077851 
L 323.153291 52.030688 
L 323.209091 51.886362 
L 323.264891 51.927268 
L 323.488091 51.781558 
L 323.515991 51.826852 
L 323.739191 51.879378 
L 324.073991 52.570618 
L 324.604091 54.615492 
L 324.966791 56.464675 
L 325.720091 61.365988 
L 326.166491 64.367816 
L 326.947691 68.861043 
L 327.505691 71.057982 
L 327.561491 71.16342 
L 327.868391 71.682373 
L 327.924191 71.678879 
L 327.952091 71.724178 
L 328.231091 71.777505 
L 328.844891 70.540268 
L 329.849291 65.508123 
L 330.574691 60.618029 
L 331.021091 57.630329 
L 331.690691 53.909067 
L 331.885991 53.236562 
L 332.192891 52.064697 
L 332.443991 51.58336 
L 332.639291 51.337594 
L 332.722991 51.299191 
L 332.750891 51.313257 
L 332.890391 51.395291 
L 332.918291 51.337193 
L 332.974091 51.437599 
L 333.057791 51.534221 
L 333.280991 52.040315 
L 333.727391 53.54921 
L 334.034291 55.02022 
L 334.815491 59.965695 
L 335.596691 65.455122 
L 336.377891 69.851861 
L 336.935891 71.943581 
L 336.963791 71.877347 
L 337.019591 71.950729 
L 337.159091 72.139105 
L 337.354391 72.299678 
L 337.410191 72.301611 
L 337.438091 72.360264 
L 337.465991 72.449772 
L 337.493891 72.281026 
L 337.521791 72.316317 
L 337.689191 72.13999 
L 337.744991 72.066874 
L 338.498291 69.642499 
L 339.670091 62.339748 
L 340.925591 54.514644 
L 341.650991 51.859776 
L 342.013691 51.528961 
L 342.041591 51.567373 
L 342.487991 51.973135 
L 343.436591 55.711711 
L 343.799291 57.881565 
L 344.273591 61.076172 
L 345.724391 69.701347 
L 346.170791 71.118829 
L 346.421891 71.499654 
L 346.589291 71.683669 
L 346.617191 71.647828 
L 346.896191 71.602049 
L 347.147291 71.135021 
L 347.203091 71.042513 
L 347.621591 69.654241 
L 348.151691 66.947369 
L 350.634791 52.236081 
L 350.690591 52.128112 
L 350.857991 51.580937 
L 350.885891 51.610934 
L 350.913791 51.652655 
L 350.941691 51.533108 
L 351.248591 51.095662 
L 351.304391 51.144074 
L 351.611291 51.328084 
L 352.336691 53.552667 
L 353.062091 57.620269 
L 354.819791 69.124356 
L 355.517291 71.826951 
L 355.545191 71.785766 
L 356.047391 72.263241 
L 356.214791 72.020951 
L 356.298491 72.035358 
L 356.493791 71.582718 
L 356.633291 71.264381 
L 357.135491 69.211008 
L 357.219191 68.764141 
L 357.721391 65.828379 
L 359.451191 54.57688 
L 360.260291 51.687987 
L 360.567191 51.390995 
L 360.595091 51.416175 
L 360.790391 51.482166 
L 360.901991 51.549365 
L 361.627391 53.615155 
L 364.445291 70.147259 
L 364.780091 71.117823 
L 365.003291 71.433099 
L 365.282291 71.681847 
L 365.310191 71.54869 
L 365.533391 71.390614 
L 365.979791 70.396152 
L 366.370391 68.72742 
L 366.509891 68.058796 
L 367.291091 63.354101 
L 367.681691 60.553738 
L 368.016491 58.27538 
L 368.741891 54.008061 
L 369.104591 52.600769 
L 369.746291 51.124998 
L 370.108991 51.172398 
L 370.415891 51.759523 
L 370.945991 53.658357 
L 371.671391 57.822204 
L 372.731591 65.21647 
L 373.791791 70.859379 
L 373.875491 71.069444 
L 374.126591 71.747936 
L 374.489291 72.150441 
L 374.517191 72.129115 
L 374.545091 72.108814 
L 374.572991 72.175509 
L 374.600891 72.287493 
L 374.656691 72.126189 
L 374.879891 71.977301 
L 375.075191 71.487325 
L 375.130991 71.388773 
L 375.409991 70.46466 
L 376.581791 63.874564 
L 376.972391 61.049734 
L 377.502491 57.514384 
L 378.032591 54.454896 
L 378.841691 51.583099 
L 378.925391 51.447193 
L 379.148591 51.313183 
L 379.176491 51.3436 
L 379.371791 51.404261 
L 379.511291 51.574563 
L 379.622891 51.77195 
L 379.985591 52.708812 
L 380.404091 54.601127 
L 380.794691 56.81792 
L 381.436391 61.058345 
L 382.301291 66.794759 
L 382.636091 68.458678 
L 383.082491 70.357241 
L 383.835791 71.612347 
L 384.337991 70.913148 
L 384.616991 70.09143 
L 384.812291 69.351382 
L 385.174991 67.527598 
L 385.286591 66.871476 
L 387.379091 53.638182 
L 387.518591 53.136869 
L 388.216091 51.193594 
L 388.243991 51.237765 
L 388.271891 51.096049 
L 388.522991 50.967458 
L 388.690391 51.124704 
L 388.774091 51.233632 
L 389.583191 53.913782 
L 389.862191 55.396259 
L 390.252791 57.859796 
L 391.508291 66.473561 
L 391.954691 68.989158 
L 392.540591 71.341452 
L 392.624291 71.57481 
L 392.763791 71.796837 
L 393.182291 72.262906 
L 393.321791 72.026006 
L 393.656591 71.462649 
L 393.768191 71.205043 
L 394.270391 69.165089 
L 394.521491 67.769749 
L 395.163191 63.745801 
L 395.637491 60.381358 
L 396.641891 54.255933 
L 397.395191 51.555049 
L 397.869491 51.290734 
L 398.036891 51.43977 
L 398.427491 52.311992 
L 398.790191 53.612136 
L 401.608091 70.175635 
L 402.305591 71.533001 
L 402.389291 71.527801 
L 402.417191 71.623674 
L 402.445091 71.477284 
L 402.500891 71.549347 
L 402.751991 71.193753 
L 402.891491 70.989992 
L 403.867991 66.803994 
L 405.123491 58.430754 
L 406.323191 52.192091 
L 406.574291 51.405081 
L 406.630091 51.486015 
L 406.657991 51.329724 
L 407.048591 50.974112 
L 407.104391 50.95313 
L 407.132291 51.017318 
L 407.271791 51.114752 
L 407.299691 51.061746 
L 407.327591 51.129354 
L 407.634491 51.877934 
L 407.829791 52.484353 
L 408.304091 54.616331 
L 409.168991 60.168963 
L 410.396591 68.374361 
L 410.563991 69.134444 
L 410.954591 70.815161 
L 411.345191 71.801105 
L 411.456791 71.941405 
L 411.596291 72.066748 
L 411.819491 72.112061 
L 411.986891 71.917768 
L 412.014791 71.928321 
L 412.210091 71.478412 
L 412.349591 71.156235 
L 412.712291 69.748426 
L 412.907591 68.819779 
L 415.530191 52.773802 
L 415.585991 52.676229 
L 415.837091 51.839968 
L 416.088191 51.362549 
L 416.116091 51.385371 
L 416.227691 51.354983 
L 416.311391 51.276224 
L 416.339291 51.310466 
L 416.590391 51.412955 
L 416.701991 51.525494 
L 417.148391 52.711869 
L 417.790091 55.859718 
L 418.292291 58.965446 
L 418.794491 62.413517 
L 419.352491 66.133763 
L 419.547791 67.170896 
L 419.882591 68.913391 
L 420.552191 71.167907 
L 420.998591 71.612612 
L 421.138091 71.415672 
L 421.305491 71.235362 
L 421.723991 70.152818 
L 422.198291 68.100871 
L 422.672591 65.429201 
L 423.397991 60.447722 
L 423.732791 58.168302 
L 424.458191 53.890984 
L 424.960391 51.935706 
L 425.127791 51.378597 
L 425.183591 51.401237 
L 425.211491 51.425787 
L 425.350991 51.186665 
L 425.490491 51.01962 
L 425.574191 50.926404 
L 425.602091 50.948853 
L 426.048491 51.369138 
L 426.271691 51.992015 
L 426.969191 55.085153 
L 427.750391 60.227886 
L 429.368591 70.196593 
L 429.787091 71.678506 
L 429.814991 71.651332 
L 429.870791 71.732942 
L 430.317191 72.227811 
L 430.456691 72.016361 
L 430.596191 71.917539 
L 430.791491 71.428458 
L 430.847291 71.330298 
L 431.070491 70.599098 
L 431.544791 68.476523 
L 432.298091 63.803694 
L 432.688691 60.974885 
L 433.274591 57.063733 
L 433.748891 54.372941 
L 434.557991 51.492189 
L 434.585891 51.501838 
L 434.669591 51.341335 
L 434.725391 51.37779 
L 435.060191 51.325372 
L 435.199691 51.434519 
L 436.008791 54.007721 
L 437.124791 60.816437 
L 438.380291 68.566902 
L 438.994091 70.838672 
L 439.217291 71.272218 
L 439.245191 71.25809 
L 439.273091 71.325214 
L 439.468391 71.486053 
L 439.747391 71.424712 
L 439.998491 70.979727 
L 440.026391 71.001458 
L 440.333291 70.041253 
L 440.472791 69.51655 
L 440.891291 67.473884 
L 441.002891 66.81472 
L 443.262791 52.986659 
L 443.402291 52.464756 
L 443.709191 51.387706 
L 443.737091 51.410514 
L 443.792891 51.360886 
L 444.043991 51.006686 
L 444.183491 50.925062 
L 444.295091 51.002152 
L 444.322991 50.974927 
L 444.350891 50.961489 
L 444.378791 51.03269 
L 444.685691 51.619941 
L 444.992591 52.53215 
L 445.550591 55.134222 
L 446.108591 58.760403 
L 448.033691 70.636099 
L 448.452191 71.719327 
L 448.786991 72.093419 
L 448.842791 72.064754 
L 448.870691 72.122568 
L 448.898591 72.23165 
L 448.926491 72.049401 
L 448.954391 72.083853 
L 449.121791 71.907601 
L 449.177591 71.834327 
L 449.819291 69.899219 
L 452.832491 52.268226 
L 452.860391 52.295567 
L 452.888291 52.178304 
L 453.139391 51.48814 
L 453.418391 51.243496 
L 453.753191 51.400244 
L 454.171691 52.353368 
L 454.785491 54.995995 
L 455.064491 56.636203 
L 457.212791 69.738348 
L 457.687091 71.152252 
L 458.077691 71.486258 
L 458.217191 71.522685 
L 458.245091 71.458371 
L 458.830991 70.350243 
L 459.137891 69.065526 
L 459.584291 66.774262 
L 460.895591 58.028444 
L 461.927891 52.592117 
L 462.597491 50.984642 
L 462.625391 51.012058 
L 462.653291 50.944464 
L 462.792791 50.921982 
L 462.932291 50.977075 
L 463.713491 53.110925 
L 464.578391 58.044506 
L 465.917591 67.18644 
L 466.615091 70.672372 
L 467.033591 71.750247 
L 467.479991 72.152323 
L 467.647391 71.89681 
L 467.731091 71.910471 
L 467.926391 71.46051 
L 468.065891 71.137966 
L 468.428591 69.727361 
L 468.623891 68.796626 
L 471.246491 52.746861 
L 471.302291 52.645444 
L 471.553391 51.812641 
L 471.804491 51.340007 
L 471.832391 51.359973 
L 471.971891 51.271611 
L 472.111391 51.277156 
L 472.222991 51.331774 
L 472.334591 51.398171 
L 473.087891 53.632926 
L 474.092291 59.525677 
L 474.678191 63.58485 
L 475.598891 68.903048 
L 476.268491 71.156603 
L 476.714891 71.597716 
L 476.854391 71.40223 
L 477.021791 71.221775 
L 477.496091 69.974395 
L 478.723691 63.209757 
L 479.309591 59.102294 
L 479.728091 56.430405 
L 480.230291 53.612243 
L 481.067291 51.167576 
L 481.150991 51.013269 
L 481.374191 50.900781 
L 481.402091 50.949351 
L 481.792691 51.502766 
L 482.518091 54.211967 
L 483.634091 61.38334 
L 483.996791 63.97361 
L 484.666391 68.367926 
L 484.694291 68.347891 
L 485.363891 71.210448 
L 485.587091 71.723306 
L 486.033491 72.218744 
L 486.172991 72.006278 
L 486.312491 71.906697 
L 486.507791 71.417634 
L 486.591491 71.258603 
L 487.065791 69.435154 
L 488.460791 60.658296 
L 488.823491 58.067672 
L 489.604691 53.747762 
L 490.218491 51.606019 
L 490.497491 51.308985 
L 490.525391 51.320726 
L 490.553291 51.251641 
L 490.581191 51.198463 
L 490.636991 51.294396 
L 490.804391 51.317572 
L 490.999691 51.524604 
L 491.167091 51.974617 
L 491.167091 51.974617 
" style="fill:none;stroke:#1f77b4;stroke-linecap:square;stroke-width:1.5;"/>
   </g>
   <g id="patch_3">
    <path d="M 44.767091 173.739249 
L 44.767091 10.659249 
" style="fill:none;stroke:#000000;stroke-linecap:square;stroke-linejoin:miter;stroke-width:0.8;"/>
   </g>
   <g id="patch_4">
    <path d="M 491.167091 173.739249 
L 491.167091 10.659249 
" style="fill:none;stroke:#000000;stroke-linecap:square;stroke-linejoin:miter;stroke-width:0.8;"/>
   </g>
   <g id="patch_5">
    <path d="M 44.767091 173.739249 
L 491.167091 173.739249 
" style="fill:none;stroke:#000000;stroke-linecap:square;stroke-linejoin:miter;stroke-width:0.8;"/>
   </g>
   <g id="patch_6">
    <path d="M 44.767091 10.659249 
L 491.167091 10.659249 
" style="fill:none;stroke:#000000;stroke-linecap:square;stroke-linejoin:miter;stroke-width:0.8;"/>
   </g>
  </g>
 </g>
 <defs>
  <clipPath id="p38bf36b10c">
   <rect height="163.08" width="446.4" x="44.767091" y="10.659249"/>
  </clipPath>
 </defs>
</svg>
