<?xml version="1.0" encoding="utf-8" standalone="no"?>
<!DOCTYPE svg PUBLIC "-//W3C//DTD SVG 1.1//EN"
  "http://www.w3.org/Graphics/SVG/1.1/DTD/svg11.dtd">
<!-- Created with matplotlib (https://matplotlib.org/) -->
<svg height="206.385127pt" version="1.1" viewBox="0 0 416.585438 206.385127" width="416.585438pt" xmlns="http://www.w3.org/2000/svg" xmlns:xlink="http://www.w3.org/1999/xlink">
 <metadata>
  <rdf:RDF xmlns:cc="http://creativecommons.org/ns#" xmlns:dc="http://purl.org/dc/elements/1.1/" xmlns:rdf="http://www.w3.org/1999/02/22-rdf-syntax-ns#">
   <cc:Work>
    <dc:type rdf:resource="http://purl.org/dc/dcmitype/StillImage"/>
    <dc:date>2020-09-17T16:54:35.048784</dc:date>
    <dc:format>image/svg+xml</dc:format>
    <dc:creator>
     <cc:Agent>
      <dc:title>Matplotlib v3.3.1, https://matplotlib.org/</dc:title>
     </cc:Agent>
    </dc:creator>
   </cc:Work>
  </rdf:RDF>
 </metadata>
 <defs>
  <style type="text/css">*{stroke-linecap:butt;stroke-linejoin:round;}</style>
 </defs>
 <g id="figure_1">
  <g id="patch_1">
   <path d="M 0 206.385127 
L 416.585438 206.385127 
L 416.585438 0 
L 0 0 
z
" style="fill:none;"/>
  </g>
  <g id="axes_1">
   <g id="patch_2">
    <path d="M 41.999682 174.553216 
L 376.799682 174.553216 
L 376.799682 27.673216 
L 41.999682 27.673216 
z
" style="fill:#ffffff;"/>
   </g>
   <g id="PolyCollection_1">
    <defs>
     <path d="M 44.965054 -31.831912 
L 44.965054 -46.887112 
L 71.079454 -46.887112 
L 71.079454 -31.831912 
L 71.079454 -31.831912 
L 44.965054 -31.831912 
z
" id="m3a6f0a85a6" style="stroke:#808080;stroke-opacity:0.3;"/>
    </defs>
    <g clip-path="url(#p564721b0da)">
     <use style="fill:#808080;fill-opacity:0.3;stroke:#808080;stroke-opacity:0.3;" x="0" xlink:href="#m3a6f0a85a6" y="206.385127"/>
    </g>
   </g>
   <g id="PolyCollection_2">
    <defs>
     <path d="M 79.879911 -31.831912 
L 79.879911 -52.762312 
L 106.089968 -52.762312 
L 106.089968 -31.831912 
L 106.089968 -31.831912 
L 79.879911 -31.831912 
z
" id="m9d64175e27" style="stroke:#808080;stroke-opacity:0.3;"/>
    </defs>
    <g clip-path="url(#p564721b0da)">
     <use style="fill:#808080;fill-opacity:0.3;stroke:#808080;stroke-opacity:0.3;" x="0" xlink:href="#m9d64175e27" y="206.385127"/>
    </g>
   </g>
   <g id="PolyCollection_3">
    <defs>
     <path d="M 114.890425 -31.831912 
L 114.890425 -49.273912 
L 141.004825 -49.273912 
L 141.004825 -31.831912 
L 141.004825 -31.831912 
L 114.890425 -31.831912 
z
" id="m50c6a50d5f" style="stroke:#808080;stroke-opacity:0.3;"/>
    </defs>
    <g clip-path="url(#p564721b0da)">
     <use style="fill:#808080;fill-opacity:0.3;stroke:#808080;stroke-opacity:0.3;" x="0" xlink:href="#m50c6a50d5f" y="206.385127"/>
    </g>
   </g>
   <g id="PolyCollection_4">
    <defs>
     <path d="M 149.805282 -31.831912 
L 149.805282 -54.781912 
L 175.919682 -54.781912 
L 175.919682 -31.831912 
L 175.919682 -31.831912 
L 149.805282 -31.831912 
z
" id="m09b9fd9eb8" style="stroke:#808080;stroke-opacity:0.3;"/>
    </defs>
    <g clip-path="url(#p564721b0da)">
     <use style="fill:#808080;fill-opacity:0.3;stroke:#808080;stroke-opacity:0.3;" x="0" xlink:href="#m09b9fd9eb8" y="206.385127"/>
    </g>
   </g>
   <g id="PolyCollection_5">
    <defs>
     <path d="M 184.72014 -31.831912 
L 184.72014 -62.309512 
L 210.83454 -62.309512 
L 210.83454 -31.831912 
L 210.83454 -31.831912 
L 184.72014 -31.831912 
z
" id="m84a4205e07" style="stroke:#808080;stroke-opacity:0.3;"/>
    </defs>
    <g clip-path="url(#p564721b0da)">
     <use style="fill:#808080;fill-opacity:0.3;stroke:#808080;stroke-opacity:0.3;" x="0" xlink:href="#m84a4205e07" y="206.385127"/>
    </g>
   </g>
   <g id="PolyCollection_6">
    <defs>
     <path d="M 219.634997 -31.831912 
L 219.634997 -73.141912 
L 245.845054 -73.141912 
L 245.845054 -31.831912 
L 245.845054 -31.831912 
L 219.634997 -31.831912 
z
" id="m8dfe85c628" style="stroke:#808080;stroke-opacity:0.3;"/>
    </defs>
    <g clip-path="url(#p564721b0da)">
     <use style="fill:#808080;fill-opacity:0.3;stroke:#808080;stroke-opacity:0.3;" x="0" xlink:href="#m8dfe85c628" y="206.385127"/>
    </g>
   </g>
   <g id="PolyCollection_7">
    <defs>
     <path d="M 254.645511 -31.831912 
L 254.645511 -84.892312 
L 280.759911 -84.892312 
L 280.759911 -31.831912 
L 280.759911 -31.831912 
L 254.645511 -31.831912 
z
" id="m6f9a1efc5a" style="stroke:#808080;stroke-opacity:0.3;"/>
    </defs>
    <g clip-path="url(#p564721b0da)">
     <use style="fill:#808080;fill-opacity:0.3;stroke:#808080;stroke-opacity:0.3;" x="0" xlink:href="#m6f9a1efc5a" y="206.385127"/>
    </g>
   </g>
   <g id="PolyCollection_8">
    <defs>
     <path d="M 289.560368 -31.831912 
L 289.560368 -106.557112 
L 315.674768 -106.557112 
L 315.674768 -31.831912 
L 315.674768 -31.831912 
L 289.560368 -31.831912 
z
" id="mea9ada841a" style="stroke:#808080;stroke-opacity:0.3;"/>
    </defs>
    <g clip-path="url(#p564721b0da)">
     <use style="fill:#808080;fill-opacity:0.3;stroke:#808080;stroke-opacity:0.3;" x="0" xlink:href="#mea9ada841a" y="206.385127"/>
    </g>
   </g>
   <g id="PolyCollection_9">
    <defs>
     <path d="M 324.475225 -31.831912 
L 324.475225 -147.316312 
L 350.589625 -147.316312 
L 350.589625 -31.831912 
L 350.589625 -31.831912 
L 324.475225 -31.831912 
z
" id="m2e0c1068ec" style="stroke:#808080;stroke-opacity:0.3;"/>
    </defs>
    <g clip-path="url(#p564721b0da)">
     <use style="fill:#808080;fill-opacity:0.3;stroke:#808080;stroke-opacity:0.3;" x="0" xlink:href="#m2e0c1068ec" y="206.385127"/>
    </g>
   </g>
   <g id="PolyCollection_10">
    <defs>
     <path d="M 359.390082 -31.831912 
L 359.390082 -151.539112 
L 385.60014 -151.539112 
L 385.60014 -31.831912 
L 385.60014 -31.831912 
L 359.390082 -31.831912 
z
" id="mc7f33decf6" style="stroke:#808080;stroke-opacity:0.3;"/>
    </defs>
    <g clip-path="url(#p564721b0da)">
     <use style="fill:#808080;fill-opacity:0.3;stroke:#808080;stroke-opacity:0.3;" x="0" xlink:href="#mc7f33decf6" y="206.385127"/>
    </g>
   </g>
   <g id="matplotlib.axis_1">
    <g id="xtick_1">
     <g id="line2d_1">
      <defs>
       <path d="M 0 0 
L 0 3.5 
" id="m6e6d55e56e" style="stroke:#000000;stroke-width:0.8;"/>
      </defs>
      <g>
       <use style="stroke:#000000;stroke-width:0.8;" x="59.313625" xlink:href="#m6e6d55e56e" y="174.553216"/>
      </g>
     </g>
     <g id="text_1">
      <!-- 2011 -->
      <g transform="translate(41.089185 197.507482)rotate(-30)scale(0.1 -0.1)">
       <defs>
        <path d="M 25.796875 21.140625 
C 28.59375 24.03125 32.796875 27.515625 35.703125 31 
C 38.5 34.390625 42.203125 39.171875 42.203125 46.140625 
C 42.203125 57.109375 34.796875 67 22.203125 67 
C 12.296875 67 6.59375 60.796875 3.90625 51.125 
L 7.796875 45.75 
C 10 54.8125 13.09375 60.59375 20.90625 60.59375 
C 29.5 60.59375 34.296875 53.609375 34.296875 45.9375 
C 34.296875 36.78125 27.296875 29.703125 22 24.421875 
C 16.09375 18.546875 10.296875 12.578125 4.703125 6.390625 
L 4.703125 0 
L 42.203125 0 
L 42.203125 6.796875 
L 25.203125 6.796875 
C 24 6.796875 22.796875 6.6875 21.59375 6.6875 
L 11.59375 6.6875 
L 11.59375 6.796875 
z
" id="CMSS17-50"/>
        <path d="M 43.09375 32.390625 
C 43.09375 38.109375 43 48.75 38.90625 56.984375 
C 34.796875 64.890625 28.203125 67 23.5 67 
C 16.703125 67 10.90625 62.984375 7.90625 56.578125 
C 4.703125 49.859375 3.796875 42.9375 3.796875 32.390625 
C 3.796875 25.171875 4.09375 16.34375 7.703125 8.609375 
C 11.796875 0.09375 18.703125 -2 23.40625 -2 
C 29.59375 -2 35.59375 1.296875 39 8.203125 
C 42.5 15.4375 43.09375 23.359375 43.09375 32.390625 
z
M 23.40625 4.09375 
C 15.796875 4.09375 13.5 12.828125 12.796875 15.734375 
C 11.59375 20.75 11.40625 25.5625 11.40625 33.5 
C 11.40625 39.71875 11.40625 46.75 13.296875 52.265625 
C 15.59375 58.6875 19.59375 60.890625 23.40625 60.890625 
C 30.796875 60.890625 33.203125 53.46875 34 50.859375 
C 35.5 45.546875 35.5 39.3125 35.5 33.5 
C 35.5 24.15625 35.5 4.09375 23.40625 4.09375 
z
" id="CMSS17-48"/>
        <path d="M 28.40625 67 
L 26.5 67 
C 21.09375 61.703125 14.796875 60.96875 8.40625 60.796875 
L 8.40625 55 
C 11.296875 55.09375 16 55.296875 20.703125 57.390625 
L 20.703125 5.796875 
L 8.90625 5.796875 
L 8.90625 0 
L 40.203125 0 
L 40.203125 5.796875 
L 28.40625 5.796875 
z
" id="CMSS17-49"/>
       </defs>
       <use transform="scale(0.996264)" xlink:href="#CMSS17-50"/>
       <use transform="translate(46.843624 0)scale(0.996264)" xlink:href="#CMSS17-48"/>
       <use transform="translate(93.687247 0)scale(0.996264)" xlink:href="#CMSS17-49"/>
       <use transform="translate(140.530871 0)scale(0.996264)" xlink:href="#CMSS17-49"/>
      </g>
     </g>
    </g>
    <g id="xtick_2">
     <g id="line2d_2">
      <g>
       <use style="stroke:#000000;stroke-width:0.8;" x="94.32414" xlink:href="#m6e6d55e56e" y="174.553216"/>
      </g>
     </g>
     <g id="text_2">
      <!-- 2012 -->
      <g transform="translate(76.099699 197.507482)rotate(-30)scale(0.1 -0.1)">
       <use transform="scale(0.996264)" xlink:href="#CMSS17-50"/>
       <use transform="translate(46.843624 0)scale(0.996264)" xlink:href="#CMSS17-48"/>
       <use transform="translate(93.687247 0)scale(0.996264)" xlink:href="#CMSS17-49"/>
       <use transform="translate(140.530871 0)scale(0.996264)" xlink:href="#CMSS17-50"/>
      </g>
     </g>
    </g>
    <g id="xtick_3">
     <g id="line2d_3">
      <g>
       <use style="stroke:#000000;stroke-width:0.8;" x="129.238997" xlink:href="#m6e6d55e56e" y="174.553216"/>
      </g>
     </g>
     <g id="text_3">
      <!-- 2013 -->
      <g transform="translate(111.014556 197.507482)rotate(-30)scale(0.1 -0.1)">
       <defs>
        <path d="M 15.703125 32.1875 
L 22.5 32.1875 
C 31.90625 32.1875 34.59375 23.9375 34.59375 18.1875 
C 34.59375 10.34375 30.203125 4.1875 23 4.1875 
C 17.40625 4.1875 9.5 7.015625 5 14.46875 
C 4.296875 10.9375 4.296875 10.734375 3.90625 8.328125 
C 8.59375 1.390625 16.203125 -2 23.203125 -2 
C 34.59375 -2 43 7.515625 43 18.09375 
C 43 26.046875 37.5 32.6875 30 35.1875 
C 36 38.484375 40.40625 44.6875 40.40625 51.890625 
C 40.40625 60.296875 32.703125 67 23.296875 67 
C 14.703125 67 8 61.6875 5.203125 55.984375 
C 5.90625 54.984375 7.703125 52.09375 8.59375 50.59375 
C 10.796875 56.484375 16.5 60.890625 23.203125 60.890625 
C 28.796875 60.890625 32.5 57.1875 32.5 51.890625 
C 32.5 46.390625 29 40.390625 23.09375 39 
C 22.703125 39 16.5 38.390625 15.703125 38.296875 
z
" id="CMSS17-51"/>
       </defs>
       <use transform="scale(0.996264)" xlink:href="#CMSS17-50"/>
       <use transform="translate(46.843624 0)scale(0.996264)" xlink:href="#CMSS17-48"/>
       <use transform="translate(93.687247 0)scale(0.996264)" xlink:href="#CMSS17-49"/>
       <use transform="translate(140.530871 0)scale(0.996264)" xlink:href="#CMSS17-51"/>
      </g>
     </g>
    </g>
    <g id="xtick_4">
     <g id="line2d_4">
      <g>
       <use style="stroke:#000000;stroke-width:0.8;" x="164.153854" xlink:href="#m6e6d55e56e" y="174.553216"/>
      </g>
     </g>
     <g id="text_4">
      <!-- 2014 -->
      <g transform="translate(145.929413 197.507482)rotate(-30)scale(0.1 -0.1)">
       <defs>
        <path d="M 35.203125 17 
L 44.296875 17 
L 44.296875 23.09375 
L 35.203125 23.09375 
L 35.203125 66 
L 26.40625 66 
L 2.59375 23.09375 
L 2.59375 17 
L 27.296875 17 
L 27.296875 0 
L 35.203125 0 
z
M 10.296875 23.09375 
C 16.09375 33.421875 27.59375 54.28125 27.59375 61.359375 
L 27.59375 23.09375 
z
" id="CMSS17-52"/>
       </defs>
       <use transform="scale(0.996264)" xlink:href="#CMSS17-50"/>
       <use transform="translate(46.843624 0)scale(0.996264)" xlink:href="#CMSS17-48"/>
       <use transform="translate(93.687247 0)scale(0.996264)" xlink:href="#CMSS17-49"/>
       <use transform="translate(140.530871 0)scale(0.996264)" xlink:href="#CMSS17-52"/>
      </g>
     </g>
    </g>
    <g id="xtick_5">
     <g id="line2d_5">
      <g>
       <use style="stroke:#000000;stroke-width:0.8;" x="199.068711" xlink:href="#m6e6d55e56e" y="174.553216"/>
      </g>
     </g>
     <g id="text_5">
      <!-- 2015 -->
      <g transform="translate(180.84427 197.507482)rotate(-30)scale(0.1 -0.1)">
       <defs>
        <path d="M 14.59375 59.59375 
L 39.09375 59.59375 
L 39.09375 66 
L 7.296875 66 
L 7.296875 28.59375 
L 14 28.59375 
C 15.796875 32.859375 19.5 36 24.296875 36 
C 28.796875 36 33.796875 31.9375 33.796875 20.296875 
C 33.796875 7.84375 26.703125 4.1875 21.5 4.1875 
C 15.09375 4.1875 9.203125 8.140625 6.59375 13.609375 
L 3.40625 7.9375 
C 8 0.796875 15.5 -2 21.5 -2 
C 33.09375 -2 42.203125 7.9375 42.203125 20.09375 
C 42.203125 32.546875 34.09375 42.09375 24.40625 42.09375 
C 20.90625 42.09375 17.5 40.890625 14.59375 38.5 
z
" id="CMSS17-53"/>
       </defs>
       <use transform="scale(0.996264)" xlink:href="#CMSS17-50"/>
       <use transform="translate(46.843624 0)scale(0.996264)" xlink:href="#CMSS17-48"/>
       <use transform="translate(93.687247 0)scale(0.996264)" xlink:href="#CMSS17-49"/>
       <use transform="translate(140.530871 0)scale(0.996264)" xlink:href="#CMSS17-53"/>
      </g>
     </g>
    </g>
    <g id="xtick_6">
     <g id="line2d_6">
      <g>
       <use style="stroke:#000000;stroke-width:0.8;" x="234.079225" xlink:href="#m6e6d55e56e" y="174.553216"/>
      </g>
     </g>
     <g id="text_6">
      <!-- 2016 -->
      <g transform="translate(215.854785 197.507482)rotate(-30)scale(0.1 -0.1)">
       <defs>
        <path d="M 39 64.984375 
C 34.796875 66.6875 31.796875 67 29 67 
C 16 67 3.90625 53.25 3.90625 31.609375 
C 3.90625 4.1875 15.40625 -2 23.59375 -2 
C 28.09375 -2 32.59375 -0.609375 36.90625 4.390625 
C 41.296875 9.671875 43 14.0625 43 21.75 
C 43 34.109375 36.90625 45.09375 27.796875 45.09375 
C 21.203125 45.09375 15.5 41.59375 12 37.203125 
C 13 51.40625 19.59375 60.890625 29.09375 60.890625 
C 31.703125 60.890625 35.09375 60.484375 39 58.75 
z
M 12.09375 21.4375 
C 12.09375 22.234375 12.09375 22.734375 12.203125 24.234375 
C 12.203125 32.015625 16.703125 39 24 39 
C 28.703125 39 31.09375 36.5 32.90625 33.40625 
C 35 29.515625 35.09375 25.828125 35.09375 21.75 
C 35.09375 17.859375 35.09375 13.96875 32.796875 9.96875 
C 30.90625 6.890625 28.40625 4.1875 23.59375 4.1875 
C 14.09375 4.1875 12.5 17.453125 12.09375 21.4375 
z
" id="CMSS17-54"/>
       </defs>
       <use transform="scale(0.996264)" xlink:href="#CMSS17-50"/>
       <use transform="translate(46.843624 0)scale(0.996264)" xlink:href="#CMSS17-48"/>
       <use transform="translate(93.687247 0)scale(0.996264)" xlink:href="#CMSS17-49"/>
       <use transform="translate(140.530871 0)scale(0.996264)" xlink:href="#CMSS17-54"/>
      </g>
     </g>
    </g>
    <g id="xtick_7">
     <g id="line2d_7">
      <g>
       <use style="stroke:#000000;stroke-width:0.8;" x="268.994082" xlink:href="#m6e6d55e56e" y="174.553216"/>
      </g>
     </g>
     <g id="text_7">
      <!-- 2017 -->
      <g transform="translate(250.769642 197.507482)rotate(-30)scale(0.1 -0.1)">
       <defs>
        <path d="M 21.703125 59.1875 
C 22.90625 59.1875 24.09375 59.296875 25.296875 59.296875 
L 36.796875 59.296875 
C 22.5 42.421875 14.296875 21.09375 14.296875 -1 
L 22.296875 -1 
C 22.296875 20.390625 29.296875 42.109375 43 59.484375 
L 43 66 
L 3.90625 66 
L 3.90625 59.1875 
z
" id="CMSS17-55"/>
       </defs>
       <use transform="scale(0.996264)" xlink:href="#CMSS17-50"/>
       <use transform="translate(46.843624 0)scale(0.996264)" xlink:href="#CMSS17-48"/>
       <use transform="translate(93.687247 0)scale(0.996264)" xlink:href="#CMSS17-49"/>
       <use transform="translate(140.530871 0)scale(0.996264)" xlink:href="#CMSS17-55"/>
      </g>
     </g>
    </g>
    <g id="xtick_8">
     <g id="line2d_8">
      <g>
       <use style="stroke:#000000;stroke-width:0.8;" x="303.90894" xlink:href="#m6e6d55e56e" y="174.553216"/>
      </g>
     </g>
     <g id="text_8">
      <!-- 2018 -->
      <g transform="translate(285.684499 197.507482)rotate(-30)scale(0.1 -0.1)">
       <defs>
        <path d="M 30.203125 35.09375 
C 37.796875 37.59375 41.703125 43.640625 41.703125 49.59375 
C 41.703125 58.96875 33.703125 67 23.5 67 
C 12.90625 67 5.203125 58.671875 5.203125 49.59375 
C 5.203125 43.734375 9 37.6875 16.703125 35.09375 
C 6.90625 31.296875 3.90625 23.6875 3.90625 18 
C 3.90625 7 12.796875 -2 23.40625 -2 
C 34.40625 -2 43 7.1875 43 18 
C 43 24.59375 39.09375 31.59375 30.203125 35.09375 
z
M 23.5 38.09375 
C 16.796875 38.09375 12.296875 42.625 12.296875 49.484375 
C 12.296875 56.453125 16.796875 60.890625 23.5 60.890625 
C 29.703125 60.890625 34.59375 56.859375 34.59375 49.484375 
C 34.59375 42.234375 29.796875 38.09375 23.5 38.09375 
z
M 23.5 4.1875 
C 17.796875 4.1875 11.703125 8.09375 11.703125 18.09375 
C 11.703125 28.390625 18.5 32 23.40625 32 
C 28.796875 32 35.203125 28.1875 35.203125 18.09375 
C 35.203125 7.6875 28.59375 4.1875 23.5 4.1875 
z
" id="CMSS17-56"/>
       </defs>
       <use transform="scale(0.996264)" xlink:href="#CMSS17-50"/>
       <use transform="translate(46.843624 0)scale(0.996264)" xlink:href="#CMSS17-48"/>
       <use transform="translate(93.687247 0)scale(0.996264)" xlink:href="#CMSS17-49"/>
       <use transform="translate(140.530871 0)scale(0.996264)" xlink:href="#CMSS17-56"/>
      </g>
     </g>
    </g>
    <g id="xtick_9">
     <g id="line2d_9">
      <g>
       <use style="stroke:#000000;stroke-width:0.8;" x="338.823797" xlink:href="#m6e6d55e56e" y="174.553216"/>
      </g>
     </g>
     <g id="text_9">
      <!-- 2019 -->
      <g transform="translate(320.599356 197.507482)rotate(-30)scale(0.1 -0.1)">
       <defs>
        <path d="M 6.796875 2.6875 
C 9.59375 0.296875 13.203125 -2 19.296875 -2 
C 31.40625 -2 43 11.53125 43 33.375 
C 43 62.296875 30.5 67 23.796875 67 
C 17.09375 67 12.796875 63.984375 9.09375 59.203125 
C 4.703125 53.71875 3.90625 48.828125 3.90625 43.140625 
C 3.90625 36.359375 5.09375 32.171875 7.90625 27.390625 
C 11.703125 21.1875 15.203125 19.890625 19.09375 19.890625 
C 25 19.890625 30.90625 22.796875 34.90625 27.78125 
C 34.203125 14.1875 28.09375 4.1875 19.296875 4.1875 
C 15.703125 4.1875 12.796875 5.3125 9.90625 8.0625 
z
M 34.59375 43.34375 
C 34.703125 42.640625 34.703125 41.34375 34.703125 40.953125 
C 34.703125 32.578125 29.90625 26 22.90625 26 
C 18.296875 26 15.90625 28.390625 14.09375 31.484375 
C 11.90625 35.359375 11.796875 39.15625 11.796875 43.140625 
C 11.796875 47.03125 11.796875 51.3125 14.59375 55.609375 
C 16.703125 58.703125 19.296875 60.890625 23.796875 60.890625 
C 33 60.890625 34.5 47.4375 34.59375 43.34375 
z
" id="CMSS17-57"/>
       </defs>
       <use transform="scale(0.996264)" xlink:href="#CMSS17-50"/>
       <use transform="translate(46.843624 0)scale(0.996264)" xlink:href="#CMSS17-48"/>
       <use transform="translate(93.687247 0)scale(0.996264)" xlink:href="#CMSS17-49"/>
       <use transform="translate(140.530871 0)scale(0.996264)" xlink:href="#CMSS17-57"/>
      </g>
     </g>
    </g>
    <g id="xtick_10">
     <g id="line2d_10">
      <g>
       <use style="stroke:#000000;stroke-width:0.8;" x="373.834311" xlink:href="#m6e6d55e56e" y="174.553216"/>
      </g>
     </g>
     <g id="text_10">
      <!-- 2020 -->
      <g transform="translate(355.60987 197.507482)rotate(-30)scale(0.1 -0.1)">
       <use transform="scale(0.996264)" xlink:href="#CMSS17-50"/>
       <use transform="translate(46.843624 0)scale(0.996264)" xlink:href="#CMSS17-48"/>
       <use transform="translate(93.687247 0)scale(0.996264)" xlink:href="#CMSS17-50"/>
       <use transform="translate(140.530871 0)scale(0.996264)" xlink:href="#CMSS17-48"/>
      </g>
     </g>
    </g>
   </g>
   <g id="matplotlib.axis_2">
    <g id="ytick_1">
     <g id="line2d_11">
      <defs>
       <path d="M 0 0 
L -3.5 0 
" id="m94f88fe911" style="stroke:#000000;stroke-width:0.8;"/>
      </defs>
      <g>
       <use style="stroke:#000000;stroke-width:0.8;" x="41.999682" xlink:href="#m94f88fe911" y="174.553216"/>
      </g>
     </g>
     <g id="text_11">
      <!-- $\mathdefault{0}$ -->
      <g transform="translate(30.018347 178.012465)scale(0.1 -0.1)">
       <defs>
        <path d="M 42 31.84375 
C 42 37.96875 41.90625 48.421875 37.703125 56.453125 
C 34 63.484375 28.09375 66 22.90625 66 
C 18.09375 66 12 63.78125 8.203125 56.5625 
C 4.203125 49.015625 3.796875 39.671875 3.796875 31.84375 
C 3.796875 26.109375 3.90625 17.375 7 9.734375 
C 11.296875 -0.609375 19 -2 22.90625 -2 
C 27.5 -2 34.5 -0.109375 38.59375 9.4375 
C 41.59375 16.375 42 24.5 42 31.84375 
z
M 22.90625 -0.40625 
C 16.5 -0.40625 12.703125 5.125 11.296875 12.75 
C 10.203125 18.6875 10.203125 27.328125 10.203125 32.953125 
C 10.203125 40.6875 10.203125 47.109375 11.5 53.234375 
C 13.40625 61.78125 19 64.390625 22.90625 64.390625 
C 27 64.390625 32.296875 61.671875 34.203125 53.4375 
C 35.5 47.71875 35.59375 40.984375 35.59375 32.953125 
C 35.59375 26.421875 35.59375 18.375 34.40625 12.453125 
C 32.296875 1.5 26.40625 -0.40625 22.90625 -0.40625 
z
" id="CMR17-48"/>
       </defs>
       <use transform="scale(0.996264)" xlink:href="#CMR17-48"/>
      </g>
     </g>
    </g>
    <g id="ytick_2">
     <g id="line2d_12">
      <g>
       <use style="stroke:#000000;stroke-width:0.8;" x="41.999682" xlink:href="#m94f88fe911" y="137.833216"/>
      </g>
     </g>
     <g id="text_12">
      <!-- $\mathdefault{200}$ -->
      <g transform="translate(20.055677 141.292465)scale(0.1 -0.1)">
       <defs>
        <path d="M 41.703125 15.46875 
L 39.90625 15.46875 
C 38.90625 8.390625 38.09375 7.1875 37.703125 6.59375 
C 37.203125 5.796875 30 5.796875 28.59375 5.796875 
L 9.40625 5.796875 
C 13 9.6875 20 16.765625 28.5 24.9375 
C 34.59375 30.71875 41.703125 37.5 41.703125 47.390625 
C 41.703125 59.1875 32.296875 66 21.796875 66 
C 10.796875 66 4.09375 56.296875 4.09375 47.296875 
C 4.09375 43.390625 7 42.890625 8.203125 42.890625 
C 9.203125 42.890625 12.203125 43.484375 12.203125 46.984375 
C 12.203125 50.09375 9.59375 51 8.203125 51 
C 7.59375 51 7 50.890625 6.59375 50.6875 
C 8.5 59.1875 14.296875 63.390625 20.40625 63.390625 
C 29.09375 63.390625 34.796875 56.5 34.796875 47.390625 
C 34.796875 38.703125 29.703125 31.21875 24 24.734375 
L 4.09375 2.296875 
L 4.09375 0 
L 39.296875 0 
z
" id="CMR17-50"/>
       </defs>
       <use transform="scale(0.996264)" xlink:href="#CMR17-50"/>
       <use transform="translate(45.690477 0)scale(0.996264)" xlink:href="#CMR17-48"/>
       <use transform="translate(91.380954 0)scale(0.996264)" xlink:href="#CMR17-48"/>
      </g>
     </g>
    </g>
    <g id="ytick_3">
     <g id="line2d_13">
      <g>
       <use style="stroke:#000000;stroke-width:0.8;" x="41.999682" xlink:href="#m94f88fe911" y="101.113216"/>
      </g>
     </g>
     <g id="text_13">
      <!-- $\mathdefault{400}$ -->
      <g transform="translate(20.055677 104.572465)scale(0.1 -0.1)">
       <defs>
        <path d="M 33.59375 64.796875 
C 33.59375 66.890625 33.5 67 31.703125 67 
L 2 19.59375 
L 2 17 
L 27.796875 17 
L 27.796875 7.1875 
C 27.796875 3.59375 27.59375 2.59375 20.59375 2.59375 
L 18.703125 2.59375 
L 18.703125 0 
C 21.90625 0.1875 27.296875 0.1875 30.703125 0.1875 
C 34.09375 0.1875 39.5 0.1875 42.703125 0 
L 42.703125 2.59375 
L 40.796875 2.59375 
C 33.796875 2.59375 33.59375 3.59375 33.59375 7.1875 
L 33.59375 17 
L 43.796875 17 
L 43.796875 19.59375 
L 33.59375 19.59375 
z
M 28.09375 58.171875 
L 28.09375 19.59375 
L 4 19.59375 
z
" id="CMR17-52"/>
       </defs>
       <use transform="scale(0.996264)" xlink:href="#CMR17-52"/>
       <use transform="translate(45.690477 0)scale(0.996264)" xlink:href="#CMR17-48"/>
       <use transform="translate(91.380954 0)scale(0.996264)" xlink:href="#CMR17-48"/>
      </g>
     </g>
    </g>
    <g id="ytick_4">
     <g id="line2d_14">
      <g>
       <use style="stroke:#000000;stroke-width:0.8;" x="41.999682" xlink:href="#m94f88fe911" y="64.393216"/>
      </g>
     </g>
     <g id="text_14">
      <!-- $\mathdefault{600}$ -->
      <g transform="translate(20.055677 67.852465)scale(0.1 -0.1)">
       <defs>
        <path d="M 10.59375 34.34375 
C 10.59375 58 21.796875 63.6875 28.296875 63.6875 
C 30.40625 63.6875 35.5 63.265625 37.5 59.09375 
C 35.90625 59.09375 32.90625 59.09375 32.90625 55.59375 
C 32.90625 52.890625 35.09375 52 36.5 52 
C 37.40625 52 40.09375 52.390625 40.09375 55.796875 
C 40.09375 62.296875 35.09375 66 28.203125 66 
C 16.296875 66 3.796875 53.296875 3.796875 31.421875 
C 3.796875 4.015625 15.09375 -2 23.09375 -2 
C 32.796875 -2 42 6.734375 42 20.234375 
C 42 32.828125 33.90625 42 23.703125 42 
C 17.59375 42 13.09375 37.96875 10.59375 30.921875 
z
M 23.09375 0.390625 
C 10.796875 0.390625 10.796875 18.9375 10.796875 22.65625 
C 10.796875 29.90625 14.203125 40.390625 23.5 40.390625 
C 25.203125 40.390625 30.09375 40.390625 33.40625 33.4375 
C 35.203125 29.515625 35.203125 25.375 35.203125 20.34375 
C 35.203125 14.90625 35.203125 10.875 33.09375 6.84375 
C 30.90625 2.703125 27.703125 0.390625 23.09375 0.390625 
z
" id="CMR17-54"/>
       </defs>
       <use transform="scale(0.996264)" xlink:href="#CMR17-54"/>
       <use transform="translate(45.690477 0)scale(0.996264)" xlink:href="#CMR17-48"/>
       <use transform="translate(91.380954 0)scale(0.996264)" xlink:href="#CMR17-48"/>
      </g>
     </g>
    </g>
    <g id="ytick_5">
     <g id="line2d_15">
      <g>
       <use style="stroke:#000000;stroke-width:0.8;" x="41.999682" xlink:href="#m94f88fe911" y="27.673216"/>
      </g>
     </g>
     <g id="text_15">
      <!-- $\mathdefault{800}$ -->
      <g transform="translate(20.055677 31.132465)scale(0.1 -0.1)">
       <defs>
        <path d="M 27.203125 35.765625 
C 33.5 38.96875 39.90625 43.796875 39.90625 51.53125 
C 39.90625 60.6875 31.09375 66 23 66 
C 13.90625 66 5.90625 59.375 5.90625 50.234375 
C 5.90625 47.71875 6.5 43.390625 10.40625 39.578125 
C 11.40625 38.578125 15.59375 35.5625 18.296875 33.65625 
C 13.796875 31.34375 3.296875 25.8125 3.296875 14.765625 
C 3.296875 4.40625 13.09375 -2 22.796875 -2 
C 33.5 -2 42.5 5.71875 42.5 15.96875 
C 42.5 25.109375 36.40625 29.328125 32.40625 32.046875 
z
M 14.09375 44.609375 
C 13.296875 45.109375 9.296875 48.21875 9.296875 52.9375 
C 9.296875 59.078125 15.59375 63.6875 22.796875 63.6875 
C 30.703125 63.6875 36.5 58.0625 36.5 51.53125 
C 36.5 42.1875 26.09375 36.859375 25.59375 36.859375 
C 25.5 36.859375 25.40625 36.859375 24.59375 37.46875 
z
M 32.5 24 
C 34 22.90625 38.796875 19.578125 38.796875 13.453125 
C 38.796875 6.015625 31.40625 0.390625 23 0.390625 
C 13.90625 0.390625 7 6.921875 7 14.859375 
C 7 22.796875 13.09375 29.4375 20 32.546875 
z
" id="CMR17-56"/>
       </defs>
       <use transform="scale(0.996264)" xlink:href="#CMR17-56"/>
       <use transform="translate(45.690477 0)scale(0.996264)" xlink:href="#CMR17-48"/>
       <use transform="translate(91.380954 0)scale(0.996264)" xlink:href="#CMR17-48"/>
      </g>
     </g>
    </g>
    <g id="text_16">
     <!-- number of articles -->
     <g transform="translate(14.118498 138.653045)rotate(-90)scale(0.1 -0.1)">
      <defs>
       <path d="M 40.90625 29.34375 
C 40.90625 35.671875 39.40625 44 28.09375 44 
C 21.703125 44 17.5 40.6875 14.703125 37.28125 
L 14.703125 43.484375 
L 7.40625 43.484375 
L 7.40625 0 
L 15 0 
L 15 24.3125 
C 15 30.65625 17.40625 37.890625 24.203125 37.890625 
C 33 37.890625 33.296875 31.953125 33.296875 28.53125 
L 33.296875 0 
L 40.90625 0 
z
" id="CMSS17-110"/>
       <path d="M 40.90625 43 
L 33.296875 43 
L 33.296875 15.25 
C 33.296875 7.8125 27.90625 4.796875 22.203125 4.796875 
C 15.59375 4.796875 15 7 15 11.125 
L 15 43 
L 7.40625 43 
L 7.40625 10.625 
C 7.40625 2.796875 10.09375 -1 17 -1 
C 20.40625 -1 28.09375 -0.203125 33.5 4.796875 
L 33.5 -0.203125 
L 40.90625 -0.203125 
z
" id="CMSS17-117"/>
       <path d="M 67 29.34375 
C 67 36.078125 65.296875 44 54.09375 44 
C 46.59375 44 42.09375 39.296875 40.09375 36.375 
C 38.296875 41.6875 34.09375 44 28.09375 44 
C 21.296875 44 17 40.09375 14.703125 37.28125 
L 14.703125 43.484375 
L 7.40625 43.484375 
L 7.40625 0 
L 15 0 
L 15 24.3125 
C 15 30.25 17.203125 37.890625 24.296875 37.890625 
C 33.40625 37.890625 33.40625 31.453125 33.40625 28.53125 
L 33.40625 0 
L 41 0 
L 41 24.3125 
C 41 30.25 43.203125 37.890625 50.296875 37.890625 
C 59.40625 37.890625 59.40625 31.453125 59.40625 28.53125 
L 59.40625 0 
L 67 0 
z
" id="CMSS17-109"/>
       <path d="M 14.90625 69 
L 7.5 69 
L 7.5 -0.203125 
L 15.09375 -0.203125 
L 15.09375 4.296875 
C 18.90625 0.59375 23.5 -1 27.59375 -1 
C 37.203125 -1 45 8.734375 45 21.59375 
C 45 33.328125 39 44 30.09375 44 
C 23.796875 44 18.203125 41.390625 14.90625 38.6875 
z
M 15.09375 32.734375 
C 17.296875 35.5625 20.40625 37.890625 24.796875 37.890625 
C 30.703125 37.890625 37.40625 33.53125 37.40625 21.59375 
C 37.40625 8.84375 29.40625 5.09375 23.90625 5.09375 
C 21.90625 5.09375 19.796875 5.59375 17.796875 7.3125 
C 15.09375 9.75 15.09375 11.265625 15.09375 12.6875 
z
" id="CMSS17-98"/>
       <path d="M 39.09375 21.484375 
C 39.09375 24.796875 38.90625 31.265625 35.703125 36.671875 
C 32.203125 42.390625 26.5 44 22.203125 44 
C 11.796875 44 3 34.125 3 21.296875 
C 3 9.046875 12.09375 -1 23.59375 -1 
C 28.09375 -1 33.59375 0.296875 38.59375 3.890625 
C 38.59375 4.296875 38.40625 6.46875 38.296875 6.578125 
C 38.296875 6.765625 38 9.828125 38 10.234375 
C 33.203125 6.375 27.703125 5.09375 23.703125 5.09375 
C 17.296875 5.09375 10.40625 10.421875 10.09375 21.484375 
z
M 10.90625 27 
C 12.203125 32.59375 16.59375 37.890625 22.203125 37.890625 
C 23.703125 37.890625 30.703125 37.6875 32.5 27 
z
" id="CMSS17-101"/>
       <path d="M 14.90625 21.390625 
C 14.90625 30.84375 21.796875 37.171875 30.59375 37.375 
L 30.59375 44 
C 24.203125 43.890625 18.203125 40.6875 14.59375 35.46875 
L 14.59375 43.484375 
L 7.5 43.484375 
L 7.5 0 
L 14.90625 0 
z
" id="CMSS17-114"/>
       <path d="M 44.203125 21.1875 
C 44.203125 33.984375 34.703125 44 23.5 44 
C 12 44 2.703125 33.6875 2.703125 21.1875 
C 2.703125 8.5 12.296875 -1 23.40625 -1 
C 34.796875 -1 44.203125 8.796875 44.203125 21.1875 
z
M 23.5 5.296875 
C 16.40625 5.296875 10.296875 11.09375 10.296875 21.984375 
C 10.296875 33.59375 17.40625 37.890625 23.40625 37.890625 
C 29.90625 37.890625 36.59375 33.1875 36.59375 21.984375 
C 36.59375 10.6875 30.09375 5.296875 23.5 5.296875 
z
" id="CMSS17-111"/>
       <path d="M 16.796875 37.1875 
L 26.90625 37.1875 
L 26.90625 43 
L 16.59375 43 
L 16.59375 55.671875 
C 16.59375 62.703125 22 63.890625 25.09375 63.890625 
C 26.09375 63.890625 28.90625 63.890625 32.5 62.609375 
L 32.5 69.1875 
C 30.203125 69.6875 27.40625 70 25.203125 70 
C 15.90625 70 9.40625 62.40625 9.40625 52.59375 
L 9.40625 43 
L 2.5 43 
L 2.5 37.1875 
L 9.40625 37.1875 
L 9.40625 0 
L 16.796875 0 
z
" id="CMSS17-102"/>
       <path d="M 37.59375 27.953125 
C 37.59375 37.484375 30.90625 44 21.90625 44 
C 17.5 44 12.703125 43.1875 7.203125 39.984375 
L 7.796875 33.328125 
C 10.296875 35.15625 14.59375 38.09375 21.796875 38.09375 
C 26.90625 38.09375 30 34.140625 30 27.84375 
L 30 24 
C 14 23.5 4 18.890625 4 11.109375 
C 4 7.0625 6.5 -1 14.796875 -1 
C 16.296875 -1 24.40625 -0.8125 30.203125 3.5 
L 30.203125 -0.203125 
L 37.59375 -0.203125 
z
M 30 12.875 
C 30 11.109375 30 8.734375 27 6.96875 
C 24.40625 5.296875 21.09375 5.09375 19.703125 5.09375 
C 14.703125 5.09375 11.296875 7.859375 11.296875 11.296875 
C 11.296875 18.203125 26.90625 18.890625 30 19 
z
" id="CMSS17-97"/>
       <path d="M 16.703125 37.1875 
L 29.703125 37.1875 
L 29.703125 43 
L 16.703125 43 
L 16.703125 55 
L 9.59375 55 
L 9.59375 43 
L 1.703125 43 
L 1.703125 37.1875 
L 9.40625 37.1875 
L 9.40625 11.734375 
C 9.40625 6 10.703125 -1 17.296875 -1 
C 22.296875 -1 26.90625 0.390625 31.296875 2.6875 
L 29.703125 8.609375 
C 27.296875 6.5 24.40625 5.296875 21.296875 5.296875 
C 16.90625 5.296875 16.703125 10.921875 16.703125 13.4375 
z
" id="CMSS17-116"/>
       <path d="M 15.296875 66 
L 6.90625 66 
L 6.90625 57.59375 
L 15.296875 57.59375 
z
M 14.796875 43 
L 7.40625 43 
L 7.40625 0 
L 14.796875 0 
z
" id="CMSS17-105"/>
       <path d="M 38.5 39.6875 
C 38.5 40.390625 33.90625 42.390625 32.703125 42.796875 
C 29.40625 44 25.203125 44 24.09375 44 
C 11.09375 44 3.296875 32.6875 3.296875 21.296875 
C 3.296875 9.296875 12 -1 23.703125 -1 
C 30.40625 -1 35.203125 1.1875 39.09375 3.796875 
L 38.5 10.390625 
C 34.203125 7.09375 29.203125 5.296875 23.796875 5.296875 
C 16 5.296875 10.90625 12.09375 10.90625 21.390625 
C 10.90625 28.59375 14.203125 37.6875 24.203125 37.6875 
C 29.703125 37.6875 32.796875 36.59375 37.40625 33.484375 
z
" id="CMSS17-99"/>
       <path d="M 14.796875 69 
L 7.40625 69 
L 7.40625 0 
L 14.796875 0 
z
" id="CMSS17-108"/>
       <path d="M 32.203125 40.984375 
C 26.296875 43.796875 21.703125 44 18.703125 44 
C 11.59375 44 3.09375 41.484375 3.09375 31.390625 
C 3.09375 21.296875 14.09375 19.09375 17.09375 18.484375 
C 21.703125 17.59375 26.796875 16.59375 26.796875 11.59375 
C 26.796875 5.296875 19.59375 5.296875 18.296875 5.296875 
C 14.296875 5.296875 8.796875 6.390625 3.796875 9.984375 
L 2.59375 3.296875 
C 8.296875 0 13.796875 -1 18.40625 -1 
C 30.703125 -1 33.796875 6.5 33.796875 12.1875 
C 33.796875 17.09375 31 20.390625 29.09375 21.890625 
C 25.796875 24.484375 24.59375 24.796875 16.40625 26.484375 
C 15 26.6875 10.09375 27.796875 10.09375 32.296875 
C 10.09375 37.984375 16.40625 37.984375 17.796875 37.984375 
C 24.296875 37.984375 28.296875 35.984375 31 34.484375 
z
" id="CMSS17-115"/>
      </defs>
      <use transform="scale(0.996264)" xlink:href="#CMSS17-110"/>
      <use transform="translate(48.204943 0)scale(0.996264)" xlink:href="#CMSS17-117"/>
      <use transform="translate(96.409886 0)scale(0.996264)" xlink:href="#CMSS17-109"/>
      <use transform="translate(170.639141 0)scale(0.996264)" xlink:href="#CMSS17-98"/>
      <use transform="translate(221.446523 0)scale(0.996264)" xlink:href="#CMSS17-101"/>
      <use transform="translate(263.085345 0)scale(0.996264)" xlink:href="#CMSS17-114"/>
      <use transform="translate(326.22423 0)scale(0.996264)" xlink:href="#CMSS17-111"/>
      <use transform="translate(373.067853 0)scale(0.996264)" xlink:href="#CMSS17-102"/>
      <use transform="translate(432.923625 0)scale(0.996264)" xlink:href="#CMSS17-97"/>
      <use transform="translate(475.243092 0)scale(0.996264)" xlink:href="#CMSS17-114"/>
      <use transform="translate(507.152864 0)scale(0.996264)" xlink:href="#CMSS17-116"/>
      <use transform="translate(540.984431 0)scale(0.996264)" xlink:href="#CMSS17-105"/>
      <use transform="translate(563.165154 0)scale(0.996264)" xlink:href="#CMSS17-99"/>
      <use transform="translate(604.803976 0)scale(0.996264)" xlink:href="#CMSS17-108"/>
      <use transform="translate(626.984699 0)scale(0.996264)" xlink:href="#CMSS17-101"/>
      <use transform="translate(668.623521 0)scale(0.996264)" xlink:href="#CMSS17-115"/>
     </g>
    </g>
   </g>
   <g id="line2d_16">
    <path clip-path="url(#p564721b0da)" d="M 97.289511 174.553216 
L 97.289511 27.673216 
" style="fill:none;stroke:#000000;stroke-dasharray:3.7,1.6;stroke-dashoffset:0;"/>
   </g>
   <g id="line2d_17">
    <path clip-path="url(#p564721b0da)" d="M 164.153854 174.553216 
L 164.153854 27.673216 
" style="fill:none;stroke:#000000;stroke-dasharray:3.7,1.6;stroke-dashoffset:0;"/>
   </g>
   <g id="line2d_18">
    <path clip-path="url(#p564721b0da)" d="M 152.483682 174.553216 
L 152.483682 27.673216 
" style="fill:none;stroke:#000000;stroke-dasharray:3.7,1.6;stroke-dashoffset:0;"/>
   </g>
   <g id="line2d_19">
    <path clip-path="url(#p564721b0da)" d="M 210.83454 174.553216 
L 210.83454 -1 
" style="fill:none;stroke:#000000;stroke-dasharray:3.7,1.6;stroke-dashoffset:0;"/>
   </g>
   <g id="line2d_20">
    <path clip-path="url(#p564721b0da)" d="M 242.879682 174.553216 
L 242.879682 -1 
" style="fill:none;stroke:#000000;stroke-dasharray:3.7,1.6;stroke-dashoffset:0;"/>
   </g>
   <g id="line2d_21">
    <path clip-path="url(#p564721b0da)" d="M 367.042654 174.553216 
L 367.042654 -1 
" style="fill:none;stroke:#000000;stroke-dasharray:3.7,1.6;stroke-dashoffset:0;"/>
   </g>
   <g id="patch_3">
    <path d="M 41.999682 174.553216 
L 41.999682 27.673216 
" style="fill:none;stroke:#000000;stroke-linecap:square;stroke-linejoin:miter;stroke-width:0.8;"/>
   </g>
   <g id="patch_4">
    <path d="M 376.799682 174.553216 
L 376.799682 27.673216 
" style="fill:none;stroke:#000000;stroke-linecap:square;stroke-linejoin:miter;stroke-width:0.8;"/>
   </g>
   <g id="patch_5">
    <path d="M 41.999682 174.553216 
L 376.799682 174.553216 
" style="fill:none;stroke:#000000;stroke-linecap:square;stroke-linejoin:miter;stroke-width:0.8;"/>
   </g>
   <g id="patch_6">
    <path d="M 41.999682 27.673216 
L 376.799682 27.673216 
" style="fill:none;stroke:#000000;stroke-linecap:square;stroke-linejoin:miter;stroke-width:0.8;"/>
   </g>
   <g id="text_17">
    <!-- Matlab R2012b -->
    <g transform="translate(94.642295 137.833216)rotate(-90)scale(0.1 -0.1)">
     <defs>
      <path d="M 49.90625 37.078125 
L 45.09375 23.0625 
C 44.296875 20.484375 41.59375 12.421875 41 9.25 
L 40.90625 9.25 
C 40.59375 11.234375 40 13.328125 38.40625 18.390625 
C 37.5 21.375 36.5 24.453125 35.5 27.234375 
L 20.703125 69 
L 9 69 
L 9 0 
L 16.796875 0 
L 16.796875 60.921875 
L 16.90625 60.921875 
C 16.90625 60.828125 17.796875 56.453125 23.90625 39.0625 
L 37.09375 1.59375 
L 44.5 1.59375 
L 56.40625 34.890625 
C 57.203125 37.171875 59.703125 44.421875 60.796875 47.90625 
C 61.796875 50.890625 64.296875 58.25 64.90625 61.125 
L 65 61.125 
L 65 0 
L 72.90625 0 
L 72.90625 69 
L 61.296875 69 
z
" id="CMSS17-77"/>
      <path d="M 39.40625 32.796875 
L 39.59375 32.890625 
C 55.203125 38.28125 55.296875 48.828125 55.296875 50.6875 
C 55.296875 59.96875 45.703125 69 31.296875 69 
L 8.90625 69 
L 8.90625 0 
L 17.09375 0 
L 17.09375 31.890625 
L 31.796875 31.890625 
L 49.5 0 
L 57.90625 0 
z
M 17.09375 38 
L 17.09375 63.390625 
L 30.203125 63.390625 
C 42.90625 63.390625 47.40625 56.359375 47.40625 50.6875 
C 47.40625 45.421875 43.40625 38 30.203125 38 
z
" id="CMSS17-82"/>
     </defs>
     <use transform="scale(0.996264)" xlink:href="#CMSS17-77"/>
     <use transform="translate(81.67603 0)scale(0.996264)" xlink:href="#CMSS17-97"/>
     <use transform="translate(126.597951 0)scale(0.996264)" xlink:href="#CMSS17-116"/>
     <use transform="translate(160.429517 0)scale(0.996264)" xlink:href="#CMSS17-108"/>
     <use transform="translate(182.61024 0)scale(0.996264)" xlink:href="#CMSS17-97"/>
     <use transform="translate(227.532161 0)scale(0.996264)" xlink:href="#CMSS17-98"/>
     <use transform="translate(306.966217 0)scale(0.996264)" xlink:href="#CMSS17-82"/>
     <use transform="translate(367.382372 0)scale(0.996264)" xlink:href="#CMSS17-50"/>
     <use transform="translate(414.225995 0)scale(0.996264)" xlink:href="#CMSS17-48"/>
     <use transform="translate(461.069619 0)scale(0.996264)" xlink:href="#CMSS17-49"/>
     <use transform="translate(507.913242 0)scale(0.996264)" xlink:href="#CMSS17-50"/>
     <use transform="translate(554.756866 0)scale(0.996264)" xlink:href="#CMSS17-98"/>
    </g>
   </g>
   <g id="text_18">
    <!-- Mathematica v10.0.0 -->
    <g transform="translate(161.506638 137.833216)rotate(-90)scale(0.1 -0.1)">
     <defs>
      <path d="M 40.90625 29.34375 
C 40.90625 35.671875 39.40625 44 28.09375 44 
C 21.796875 44 17.703125 40.890625 14.796875 37.484375 
L 14.796875 69 
L 7.40625 69 
L 7.40625 0 
L 15 0 
L 15 24.3125 
C 15 30.65625 17.40625 37.890625 24.203125 37.890625 
C 33 37.890625 33.296875 31.953125 33.296875 28.53125 
L 33.296875 0 
L 40.90625 0 
z
" id="CMSS17-104"/>
      <path d="M 41.796875 43 
L 34 43 
L 27.296875 24.296875 
C 25.203125 18.1875 22.203125 9.796875 21.703125 5.5 
L 21.59375 5.5 
C 21.40625 7.296875 20.59375 9.890625 20.09375 11.6875 
C 19.5 13.890625 18.703125 16.5 18.09375 18.296875 
L 9.296875 43 
L 1.296875 43 
L 17.09375 0 
L 26 0 
z
" id="CMSS17-118"/>
      <path d="M 17 8 
L 9 8 
L 9 0 
L 17 0 
z
" id="CMSS17-46"/>
     </defs>
     <use transform="scale(0.996264)" xlink:href="#CMSS17-77"/>
     <use transform="translate(81.67603 0)scale(0.996264)" xlink:href="#CMSS17-97"/>
     <use transform="translate(126.597951 0)scale(0.996264)" xlink:href="#CMSS17-116"/>
     <use transform="translate(160.429517 0)scale(0.996264)" xlink:href="#CMSS17-104"/>
     <use transform="translate(208.63446 0)scale(0.996264)" xlink:href="#CMSS17-101"/>
     <use transform="translate(250.273282 0)scale(0.996264)" xlink:href="#CMSS17-109"/>
     <use transform="translate(324.502537 0)scale(0.996264)" xlink:href="#CMSS17-97"/>
     <use transform="translate(369.424457 0)scale(0.996264)" xlink:href="#CMSS17-116"/>
     <use transform="translate(403.256024 0)scale(0.996264)" xlink:href="#CMSS17-105"/>
     <use transform="translate(425.436747 0)scale(0.996264)" xlink:href="#CMSS17-99"/>
     <use transform="translate(467.075569 0)scale(0.996264)" xlink:href="#CMSS17-97"/>
     <use transform="translate(543.226603 0)scale(0.996264)" xlink:href="#CMSS17-118"/>
     <use transform="translate(586.226744 0)scale(0.996264)" xlink:href="#CMSS17-49"/>
     <use transform="translate(633.070368 0)scale(0.996264)" xlink:href="#CMSS17-48"/>
     <use transform="translate(679.913991 0)scale(0.996264)" xlink:href="#CMSS17-46"/>
     <use transform="translate(705.938196 0)scale(0.996264)" xlink:href="#CMSS17-48"/>
     <use transform="translate(752.78182 0)scale(0.996264)" xlink:href="#CMSS17-46"/>
     <use transform="translate(778.806025 0)scale(0.996264)" xlink:href="#CMSS17-48"/>
    </g>
   </g>
   <g id="text_19">
    <!-- Caffe rc1 -->
    <g transform="translate(149.836467 137.833216)rotate(-90)scale(0.1 -0.1)">
     <defs>
      <path d="M 54.703125 11.015625 
C 48 6.5 44.90625 5.1875 36.796875 5.1875 
C 22.796875 5.1875 14.59375 20.375 14.59375 34.234375 
C 14.59375 49.015625 23 63.59375 37.203125 63.59375 
C 43.59375 63.59375 47.796875 61.78125 52.90625 58.5625 
L 54.296875 66.484375 
C 49.5 68.890625 43.40625 70 37.296875 70 
C 18.09375 70 6.203125 52.234375 6.203125 34.234375 
C 6.203125 14.4375 20.296875 -1.203125 36.296875 -1.203125 
C 44.90625 -1.203125 47.90625 -0.5 55.296875 4.1875 
z
" id="CMSS17-67"/>
      <path d="M 16.796875 37.1875 
L 27.09375 37.1875 
L 27.09375 43 
L 16.59375 43 
L 16.59375 55.671875 
C 16.59375 62.5 21.796875 63.890625 25.203125 63.890625 
C 28.703125 63.890625 31.59375 63 32.703125 62.609375 
L 32.703125 69.1875 
C 31.59375 69.390625 28.59375 70 25.296875 70 
C 16.09375 70 9.40625 62.5 9.40625 52.59375 
L 9.40625 43 
L 2.5 43 
L 2.5 37.1875 
L 9.40625 37.1875 
L 9.40625 0 
L 16.796875 0 
z
M 42.796875 37.1875 
L 53.09375 37.1875 
L 53.09375 43 
L 42.59375 43 
L 42.59375 55.671875 
C 42.59375 62.5 47.796875 63.890625 51.203125 63.890625 
C 54.703125 63.890625 57.59375 63 58.703125 62.609375 
L 58.703125 69.1875 
C 57.59375 69.390625 54.59375 70 51.296875 70 
C 42.09375 70 35.40625 62.5 35.40625 52.59375 
L 35.40625 0 
L 42.796875 0 
z
" id="CMSS17-11"/>
     </defs>
     <use transform="scale(0.996264)" xlink:href="#CMSS17-67"/>
     <use transform="translate(59.855772 0)scale(0.996264)" xlink:href="#CMSS17-97"/>
     <use transform="translate(104.777692 0)scale(0.996264)" xlink:href="#CMSS17-11"/>
     <use transform="translate(159.428662 0)scale(0.996264)" xlink:href="#CMSS17-101"/>
     <use transform="translate(232.296597 0)scale(0.996264)" xlink:href="#CMSS17-114"/>
     <use transform="translate(264.20637 0)scale(0.996264)" xlink:href="#CMSS17-99"/>
     <use transform="translate(305.845192 0)scale(0.996264)" xlink:href="#CMSS17-49"/>
    </g>
   </g>
   <g id="text_20">
    <!-- Tensorflow v1.0.0 -->
    <g transform="translate(208.187324 119.473216)rotate(-90)scale(0.1 -0.1)">
     <defs>
      <path d="M 36.203125 62.296875 
L 44.5 62.296875 
C 45.703125 62.296875 46.90625 62.1875 48.09375 62.1875 
L 60.59375 62.1875 
L 60.59375 68.6875 
L 3.40625 68.6875 
L 3.40625 62.1875 
L 15.90625 62.1875 
C 17.09375 62.1875 18.296875 62.296875 19.5 62.296875 
L 27.796875 62.296875 
L 27.796875 0 
L 36.203125 0 
z
" id="CMSS17-84"/>
      <path d="M 16.796875 37.1875 
L 27.703125 37.1875 
L 27.703125 43 
L 16.59375 43 
L 16.59375 55.96875 
C 16.59375 61.21875 19 63.890625 22.203125 63.890625 
C 24.90625 63.890625 27.40625 62.796875 27.703125 62.609375 
L 27.703125 69.1875 
C 26.90625 69.390625 24.59375 70 22.203125 70 
C 14.703125 70 9.40625 62.40625 9.40625 52.796875 
L 9.40625 43 
L 2.5 43 
L 2.5 37.1875 
L 9.40625 37.1875 
L 9.40625 0 
L 16.796875 0 
z
M 42.703125 69.1875 
L 35.296875 69.1875 
L 35.296875 0 
L 42.703125 0 
z
" id="CMSS17-13"/>
      <path d="M 62.703125 43 
L 55.09375 43 
L 49.796875 25 
C 48.703125 21.1875 45.59375 10.6875 45.203125 5.796875 
L 45.09375 5.796875 
C 44.90625 8.796875 43.203125 16 40.40625 25.5 
L 35.296875 43 
L 28.40625 43 
L 23.40625 25.890625 
C 20.90625 17.1875 19 9.796875 18.796875 5.796875 
L 18.703125 5.796875 
C 18.296875 11.6875 14.203125 25.5 13.59375 27.6875 
L 9.09375 43 
L 1.296875 43 
L 14.296875 0 
L 21.90625 0 
C 27.09375 17.1875 31.09375 30.5 31.40625 37.1875 
C 31.59375 33.890625 33.296875 26.796875 34.296875 23.296875 
L 40.90625 0 
L 49.703125 0 
z
" id="CMSS17-119"/>
     </defs>
     <use transform="scale(0.996264)" xlink:href="#CMSS17-84"/>
     <use transform="translate(56.012199 0)scale(0.996264)" xlink:href="#CMSS17-101"/>
     <use transform="translate(97.651021 0)scale(0.996264)" xlink:href="#CMSS17-110"/>
     <use transform="translate(145.855964 0)scale(0.996264)" xlink:href="#CMSS17-115"/>
     <use transform="translate(181.769506 0)scale(0.996264)" xlink:href="#CMSS17-111"/>
     <use transform="translate(226.010675 0)scale(0.996264)" xlink:href="#CMSS17-114"/>
     <use transform="translate(257.920448 0)scale(0.996264)" xlink:href="#CMSS17-13"/>
     <use transform="translate(308.047185 0)scale(0.996264)" xlink:href="#CMSS17-111"/>
     <use transform="translate(352.288355 0)scale(0.996264)" xlink:href="#CMSS17-119"/>
     <use transform="translate(447.337013 0)scale(0.996264)" xlink:href="#CMSS17-118"/>
     <use transform="translate(490.337154 0)scale(0.996264)" xlink:href="#CMSS17-49"/>
     <use transform="translate(537.180778 0)scale(0.996264)" xlink:href="#CMSS17-46"/>
     <use transform="translate(563.204983 0)scale(0.996264)" xlink:href="#CMSS17-48"/>
     <use transform="translate(610.048606 0)scale(0.996264)" xlink:href="#CMSS17-46"/>
     <use transform="translate(636.072811 0)scale(0.996264)" xlink:href="#CMSS17-48"/>
    </g>
   </g>
   <g id="text_21">
    <!-- PyTorch v0.3.0 -->
    <g transform="translate(240.232467 101.113216)rotate(-90)scale(0.1 -0.1)">
     <defs>
      <path d="M 32.90625 29 
C 44.90625 29 54.703125 38.234375 54.703125 49.046875 
C 54.703125 59.65625 45.296875 69 32.296875 69 
L 8.90625 69 
L 8.90625 0 
L 17.296875 0 
L 17.296875 29 
z
M 30.09375 63.390625 
C 41.703125 63.390625 46.796875 56.21875 46.796875 49.046875 
C 46.796875 42.359375 42.09375 34.796875 30.09375 34.796875 
L 17.09375 34.796875 
L 17.09375 63.390625 
z
" id="CMSS17-80"/>
      <path d="M 41.796875 43 
L 34 43 
C 25.5 20.203125 22.59375 10.953125 22.40625 5.984375 
L 22.296875 5.984375 
C 22 10.859375 17.59375 22.796875 14.09375 31.34375 
L 9.40625 43 
L 1.296875 43 
L 19 0.21875 
C 17.90625 -2.765625 16.296875 -7.25 15.796875 -8.234375 
C 13.59375 -13.8125 12.09375 -13.8125 10.5 -13.8125 
C 10.09375 -13.8125 6.90625 -13.703125 3.296875 -12.609375 
L 3.90625 -19.203125 
C 6.40625 -19.703125 8.90625 -20 10.703125 -20 
C 13.203125 -20 18.203125 -20 22.796875 -7.734375 
z
" id="CMSS17-121"/>
     </defs>
     <use transform="scale(0.996264)" xlink:href="#CMSS17-80"/>
     <use transform="translate(59.735586 0)scale(0.996264)" xlink:href="#CMSS17-121"/>
     <use transform="translate(102.735728 0)scale(0.996264)" xlink:href="#CMSS17-84"/>
     <use transform="translate(158.747926 0)scale(0.996264)" xlink:href="#CMSS17-111"/>
     <use transform="translate(202.989096 0)scale(0.996264)" xlink:href="#CMSS17-114"/>
     <use transform="translate(234.898869 0)scale(0.996264)" xlink:href="#CMSS17-99"/>
     <use transform="translate(276.537691 0)scale(0.996264)" xlink:href="#CMSS17-104"/>
     <use transform="translate(355.971747 0)scale(0.996264)" xlink:href="#CMSS17-118"/>
     <use transform="translate(398.971888 0)scale(0.996264)" xlink:href="#CMSS17-48"/>
     <use transform="translate(445.815512 0)scale(0.996264)" xlink:href="#CMSS17-46"/>
     <use transform="translate(471.839717 0)scale(0.996264)" xlink:href="#CMSS17-51"/>
     <use transform="translate(518.68334 0)scale(0.996264)" xlink:href="#CMSS17-46"/>
     <use transform="translate(544.707545 0)scale(0.996264)" xlink:href="#CMSS17-48"/>
    </g>
   </g>
   <g id="text_22">
    <!-- PyTorch v1.5 -->
    <g transform="translate(364.395438 165.373216)rotate(-90)scale(0.1 -0.1)">
     <use transform="scale(0.996264)" xlink:href="#CMSS17-80"/>
     <use transform="translate(59.735586 0)scale(0.996264)" xlink:href="#CMSS17-121"/>
     <use transform="translate(102.735728 0)scale(0.996264)" xlink:href="#CMSS17-84"/>
     <use transform="translate(158.747926 0)scale(0.996264)" xlink:href="#CMSS17-111"/>
     <use transform="translate(202.989096 0)scale(0.996264)" xlink:href="#CMSS17-114"/>
     <use transform="translate(234.898869 0)scale(0.996264)" xlink:href="#CMSS17-99"/>
     <use transform="translate(276.537691 0)scale(0.996264)" xlink:href="#CMSS17-104"/>
     <use transform="translate(355.971747 0)scale(0.996264)" xlink:href="#CMSS17-118"/>
     <use transform="translate(398.971888 0)scale(0.996264)" xlink:href="#CMSS17-49"/>
     <use transform="translate(445.815512 0)scale(0.996264)" xlink:href="#CMSS17-46"/>
     <use transform="translate(471.839717 0)scale(0.996264)" xlink:href="#CMSS17-53"/>
    </g>
   </g>
  </g>
  <g id="axes_2">
   <g id="matplotlib.axis_3">
    <g id="ytick_6">
     <g id="line2d_22">
      <defs>
       <path d="M 0 0 
L 3.5 0 
" id="me94fc6554c" style="stroke:#000000;stroke-width:0.8;"/>
      </defs>
      <g>
       <use style="stroke:#000000;stroke-width:0.8;" x="376.799682" xlink:href="#me94fc6554c" y="151.361637"/>
      </g>
     </g>
     <g id="text_23">
      <!-- $\mathdefault{0.2}$ -->
      <g transform="translate(383.799682 154.820886)scale(0.1 -0.1)">
       <defs>
        <path d="M 18.40625 4.796875 
C 18.40625 7.6875 16 9.6875 13.59375 9.6875 
C 10.703125 9.6875 8.703125 7.296875 8.703125 4.890625 
C 8.703125 2 11.09375 0 13.5 0 
C 16.40625 0 18.40625 2.390625 18.40625 4.796875 
z
" id="CMMI12-58"/>
       </defs>
       <use transform="scale(0.996264)" xlink:href="#CMR17-48"/>
       <use transform="translate(45.690477 0)scale(0.996264)" xlink:href="#CMMI12-58"/>
       <use transform="translate(72.787654 0)scale(0.996264)" xlink:href="#CMR17-50"/>
      </g>
     </g>
    </g>
    <g id="ytick_7">
     <g id="line2d_23">
      <g>
       <use style="stroke:#000000;stroke-width:0.8;" x="376.799682" xlink:href="#me94fc6554c" y="120.439532"/>
      </g>
     </g>
     <g id="text_24">
      <!-- $\mathdefault{0.4}$ -->
      <g transform="translate(383.799682 123.898781)scale(0.1 -0.1)">
       <use transform="scale(0.996264)" xlink:href="#CMR17-48"/>
       <use transform="translate(45.690477 0)scale(0.996264)" xlink:href="#CMMI12-58"/>
       <use transform="translate(72.787654 0)scale(0.996264)" xlink:href="#CMR17-52"/>
      </g>
     </g>
    </g>
    <g id="ytick_8">
     <g id="line2d_24">
      <g>
       <use style="stroke:#000000;stroke-width:0.8;" x="376.799682" xlink:href="#me94fc6554c" y="89.517426"/>
      </g>
     </g>
     <g id="text_25">
      <!-- $\mathdefault{0.6}$ -->
      <g transform="translate(383.799682 92.976676)scale(0.1 -0.1)">
       <use transform="scale(0.996264)" xlink:href="#CMR17-48"/>
       <use transform="translate(45.690477 0)scale(0.996264)" xlink:href="#CMMI12-58"/>
       <use transform="translate(72.787654 0)scale(0.996264)" xlink:href="#CMR17-54"/>
      </g>
     </g>
    </g>
    <g id="ytick_9">
     <g id="line2d_25">
      <g>
       <use style="stroke:#000000;stroke-width:0.8;" x="376.799682" xlink:href="#me94fc6554c" y="58.595321"/>
      </g>
     </g>
     <g id="text_26">
      <!-- $\mathdefault{0.8}$ -->
      <g transform="translate(383.799682 62.05457)scale(0.1 -0.1)">
       <use transform="scale(0.996264)" xlink:href="#CMR17-48"/>
       <use transform="translate(45.690477 0)scale(0.996264)" xlink:href="#CMMI12-58"/>
       <use transform="translate(72.787654 0)scale(0.996264)" xlink:href="#CMR17-56"/>
      </g>
     </g>
    </g>
    <g id="ytick_10">
     <g id="line2d_26">
      <g>
       <use style="stroke:#000000;stroke-width:0.8;" x="376.799682" xlink:href="#me94fc6554c" y="27.673216"/>
      </g>
     </g>
     <g id="text_27">
      <!-- $\mathdefault{1.0}$ -->
      <g transform="translate(383.799682 31.132465)scale(0.1 -0.1)">
       <defs>
        <path d="M 26.59375 63.796875 
C 26.59375 65.890625 26.5 66 25.09375 66 
C 21.203125 61.359375 15.296875 59.890625 9.703125 59.6875 
C 9.40625 59.6875 8.90625 59.6875 8.796875 59.5 
C 8.703125 59.296875 8.703125 59.09375 8.703125 57 
C 11.796875 57 17 57.59375 21 59.984375 
L 21 7.296875 
C 21 3.796875 20.796875 2.59375 12.203125 2.59375 
L 9.203125 2.59375 
L 9.203125 0 
C 14 0.09375 19 0.1875 23.796875 0.1875 
C 28.59375 0.1875 33.59375 0.09375 38.40625 0 
L 38.40625 2.59375 
L 35.40625 2.59375 
C 26.796875 2.59375 26.59375 3.6875 26.59375 7.296875 
z
" id="CMR17-49"/>
       </defs>
       <use transform="scale(0.996264)" xlink:href="#CMR17-49"/>
       <use transform="translate(45.690477 0)scale(0.996264)" xlink:href="#CMMI12-58"/>
       <use transform="translate(72.787654 0)scale(0.996264)" xlink:href="#CMR17-48"/>
      </g>
     </g>
    </g>
    <g id="text_28">
     <!-- normalized trend -->
     <g transform="translate(407.44826 135.94791)rotate(-90)scale(0.1 -0.1)">
      <defs>
       <path d="M 37.5 39.09375 
L 37.5 43 
L 3.90625 43 
L 3.90625 36.984375 
L 16.703125 36.984375 
C 17.90625 36.984375 19.09375 37.09375 20.296875 37.09375 
L 27.296875 37.09375 
L 2.59375 4.09375 
L 2.59375 0 
L 37.796875 0 
L 37.796875 6.1875 
L 24.203125 6.1875 
C 23 6.1875 21.796875 6.09375 20.59375 6.09375 
L 12.90625 6.09375 
z
" id="CMSS17-122"/>
       <path d="M 40.796875 69 
L 33.40625 69 
L 33.40625 38.984375 
C 30.296875 41.59375 25.203125 44 19.59375 44 
C 10.5 44 3.296875 34.046875 3.296875 21.484375 
C 3.296875 8.9375 10.40625 -1 19.296875 -1 
C 26.203125 -1 30.796875 2.6875 33.203125 4.796875 
L 33.203125 -0.203125 
L 40.796875 -0.203125 
z
M 33.203125 13.296875 
C 33.203125 11.875 33.203125 10.359375 30.09375 7.625 
C 28.09375 5.90625 25.703125 5.09375 23.40625 5.09375 
C 18 5.09375 10.90625 9.140625 10.90625 21.390625 
C 10.90625 34.140625 18.90625 37.890625 24.40625 37.890625 
C 28.09375 37.890625 31.09375 36.0625 33.203125 33.03125 
z
" id="CMSS17-100"/>
      </defs>
      <use transform="scale(0.996264)" xlink:href="#CMSS17-110"/>
      <use transform="translate(48.204943 0)scale(0.996264)" xlink:href="#CMSS17-111"/>
      <use transform="translate(92.446113 0)scale(0.996264)" xlink:href="#CMSS17-114"/>
      <use transform="translate(124.355885 0)scale(0.996264)" xlink:href="#CMSS17-109"/>
      <use transform="translate(198.58514 0)scale(0.996264)" xlink:href="#CMSS17-97"/>
      <use transform="translate(243.50706 0)scale(0.996264)" xlink:href="#CMSS17-108"/>
      <use transform="translate(265.687783 0)scale(0.996264)" xlink:href="#CMSS17-105"/>
      <use transform="translate(287.868506 0)scale(0.996264)" xlink:href="#CMSS17-122"/>
      <use transform="translate(328.546378 0)scale(0.996264)" xlink:href="#CMSS17-101"/>
      <use transform="translate(370.1852 0)scale(0.996264)" xlink:href="#CMSS17-100"/>
      <use transform="translate(449.619256 0)scale(0.996264)" xlink:href="#CMSS17-116"/>
      <use transform="translate(483.450823 0)scale(0.996264)" xlink:href="#CMSS17-114"/>
      <use transform="translate(515.360595 0)scale(0.996264)" xlink:href="#CMSS17-101"/>
      <use transform="translate(556.999417 0)scale(0.996264)" xlink:href="#CMSS17-110"/>
      <use transform="translate(605.204361 0)scale(0.996264)" xlink:href="#CMSS17-100"/>
     </g>
    </g>
   </g>
   <g id="line2d_27">
    <path clip-path="url(#p564721b0da)" d="M 41.999682 173.007111 
L 44.965054 171.461005 
L 47.643454 174.553216 
L 50.608825 169.9149 
L 53.47854 166.82269 
L 56.443911 173.007111 
L 59.313625 173.007111 
L 62.278997 169.9149 
L 65.244368 169.9149 
L 68.114082 165.276584 
L 71.079454 168.368795 
L 73.949168 173.007111 
L 76.91454 168.368795 
L 79.879911 168.368795 
L 82.653968 169.9149 
L 85.61934 171.461005 
L 88.489054 166.82269 
L 91.454425 168.368795 
L 94.32414 166.82269 
L 97.289511 173.007111 
L 100.254882 168.368795 
L 103.124597 163.730479 
L 106.089968 169.9149 
L 108.959682 169.9149 
L 111.925054 171.461005 
L 114.890425 166.82269 
L 117.568825 169.9149 
L 120.534197 169.9149 
L 123.403911 163.730479 
L 126.369282 166.82269 
L 129.238997 160.638268 
L 132.204368 168.368795 
L 135.16974 168.368795 
L 138.039454 163.730479 
L 141.004825 165.276584 
L 143.87454 168.368795 
L 146.839911 162.184374 
L 149.805282 160.638268 
L 152.483682 160.638268 
L 155.449054 155.999953 
L 158.318768 160.638268 
L 161.28414 162.184374 
L 164.153854 162.184374 
L 167.119225 160.638268 
L 170.084597 159.092163 
L 172.954311 159.092163 
L 175.919682 159.092163 
L 178.789397 159.092163 
L 181.754768 157.546058 
L 184.72014 159.092163 
L 187.39854 151.361637 
L 190.363911 155.999953 
L 193.233625 148.269426 
L 196.198997 148.269426 
L 199.068711 143.631111 
L 202.034082 152.907742 
L 204.999454 152.907742 
L 207.869168 143.631111 
L 210.83454 137.44669 
L 213.704254 143.631111 
L 216.669625 142.085005 
L 219.634997 138.992795 
L 222.409054 132.808374 
L 225.374425 123.531742 
L 228.24414 129.716163 
L 231.209511 128.170058 
L 234.079225 132.808374 
L 237.044597 126.623953 
L 240.009968 125.077847 
L 242.879682 112.709005 
L 245.845054 109.616795 
L 248.714768 117.347321 
L 251.68014 104.978479 
L 254.645511 104.978479 
L 257.323911 87.971321 
L 260.289282 81.7869 
L 263.158997 75.602479 
L 266.124368 84.879111 
L 268.994082 83.333005 
L 271.959454 83.333005 
L 274.924825 80.240795 
L 277.79454 63.233637 
L 280.759911 61.687532 
L 283.629625 75.602479 
L 286.594997 70.964163 
L 289.560368 55.503111 
L 292.238768 53.957005 
L 295.20414 58.595321 
L 298.073854 52.4109 
L 301.039225 50.864795 
L 303.90894 55.503111 
L 306.874311 63.233637 
L 309.839682 53.957005 
L 312.709397 27.673216 
L 315.674768 38.495953 
L 318.544482 63.233637 
L 321.509854 47.772584 
L 324.475225 49.31869 
L 327.153625 53.957005 
L 330.118997 29.219321 
L 332.988711 43.134268 
L 335.954082 41.588163 
L 338.823797 40.042058 
L 341.789168 60.141426 
L 344.75454 46.226479 
L 347.624254 41.588163 
L 350.589625 38.495953 
L 353.45934 67.871953 
L 356.424711 44.680374 
L 359.390082 41.588163 
L 362.16414 70.964163 
L 365.129511 58.595321 
L 367.999225 55.503111 
L 370.964597 49.31869 
" style="fill:none;stroke:#1f77b4;stroke-linecap:square;stroke-width:1.5;"/>
   </g>
   <g id="line2d_28">
    <path clip-path="url(#p564721b0da)" d="M 41.999682 182.283742 
L 44.965054 182.283742 
L 47.643454 182.283742 
L 50.608825 182.283742 
L 53.47854 182.283742 
L 56.443911 182.283742 
L 59.313625 182.283742 
L 62.278997 182.283742 
L 65.244368 182.283742 
L 68.114082 182.283742 
L 71.079454 182.283742 
L 73.949168 182.283742 
L 76.91454 182.283742 
L 79.879911 182.283742 
L 82.653968 182.283742 
L 85.61934 182.283742 
L 88.489054 182.283742 
L 91.454425 182.283742 
L 94.32414 182.283742 
L 97.289511 182.283742 
L 100.254882 182.283742 
L 103.124597 182.283742 
L 106.089968 182.283742 
L 108.959682 182.283742 
L 111.925054 182.283742 
L 114.890425 182.283742 
L 117.568825 182.283742 
L 120.534197 182.283742 
L 123.403911 182.283742 
L 126.369282 182.283742 
L 129.238997 182.283742 
L 132.204368 182.283742 
L 135.16974 182.283742 
L 138.039454 182.283742 
L 141.004825 182.283742 
L 143.87454 182.283742 
L 146.839911 182.283742 
L 149.805282 182.283742 
L 152.483682 182.283742 
L 155.449054 182.283742 
L 158.318768 182.283742 
L 161.28414 182.283742 
L 164.153854 182.283742 
L 167.119225 182.283742 
L 170.084597 182.283742 
L 172.954311 182.283742 
L 175.919682 182.283742 
L 178.789397 182.283742 
L 181.754768 182.283742 
L 184.72014 182.283742 
L 187.39854 182.283742 
L 190.363911 182.283742 
L 193.233625 182.283742 
L 196.198997 182.283742 
L 199.068711 182.283742 
L 202.034082 182.283742 
L 204.999454 182.283742 
L 207.869168 182.283742 
L 210.83454 157.546058 
L 213.704254 173.007111 
L 216.669625 176.099321 
L 219.634997 176.099321 
L 222.409054 171.461005 
L 225.374425 165.276584 
L 228.24414 157.546058 
L 231.209511 157.546058 
L 234.079225 163.730479 
L 237.044597 157.546058 
L 240.009968 154.453847 
L 242.879682 148.269426 
L 245.845054 143.631111 
L 248.714768 142.085005 
L 251.68014 131.262268 
L 254.645511 120.439532 
L 257.323911 111.1629 
L 260.289282 112.709005 
L 263.158997 97.247953 
L 266.124368 94.155742 
L 268.994082 98.794058 
L 271.959454 95.701847 
L 274.924825 101.886268 
L 277.79454 89.517426 
L 280.759911 70.964163 
L 283.629625 95.701847 
L 286.594997 87.971321 
L 289.560368 75.602479 
L 292.238768 74.056374 
L 295.20414 70.964163 
L 298.073854 58.595321 
L 301.039225 69.418058 
L 303.90894 80.240795 
L 306.874311 70.964163 
L 309.839682 86.425216 
L 312.709397 74.056374 
L 315.674768 77.148584 
L 318.544482 91.063532 
L 321.509854 77.148584 
L 324.475225 80.240795 
L 327.153625 75.602479 
L 330.118997 81.7869 
L 332.988711 81.7869 
L 335.954082 75.602479 
L 338.823797 77.148584 
L 341.789168 84.879111 
L 344.75454 91.063532 
L 347.624254 78.69469 
L 350.589625 81.7869 
L 353.45934 101.886268 
L 356.424711 101.886268 
L 359.390082 86.425216 
L 362.16414 98.794058 
L 365.129511 97.247953 
L 367.999225 94.155742 
L 370.964597 89.517426 
" style="fill:none;stroke:#ff7f0e;stroke-dasharray:9.6,2.4,1.5,2.4;stroke-dashoffset:0;stroke-width:1.5;"/>
   </g>
   <g id="line2d_29">
    <path clip-path="url(#p564721b0da)" d="M 41.999682 182.283742 
L 44.965054 182.283742 
L 47.643454 182.283742 
L 50.608825 182.283742 
L 53.47854 182.283742 
L 56.443911 182.283742 
L 59.313625 182.283742 
L 62.278997 182.283742 
L 65.244368 182.283742 
L 68.114082 182.283742 
L 71.079454 182.283742 
L 73.949168 182.283742 
L 76.91454 182.283742 
L 79.879911 182.283742 
L 82.653968 182.283742 
L 85.61934 182.283742 
L 88.489054 180.737637 
L 91.454425 182.283742 
L 94.32414 182.283742 
L 97.289511 182.283742 
L 100.254882 180.737637 
L 103.124597 182.283742 
L 106.089968 182.283742 
L 108.959682 182.283742 
L 111.925054 182.283742 
L 114.890425 182.283742 
L 117.568825 182.283742 
L 120.534197 182.283742 
L 123.403911 182.283742 
L 126.369282 182.283742 
L 129.238997 182.283742 
L 132.204368 182.283742 
L 135.16974 182.283742 
L 138.039454 182.283742 
L 141.004825 182.283742 
L 143.87454 182.283742 
L 146.839911 182.283742 
L 149.805282 182.283742 
L 152.483682 182.283742 
L 155.449054 182.283742 
L 158.318768 182.283742 
L 161.28414 182.283742 
L 164.153854 182.283742 
L 167.119225 182.283742 
L 170.084597 182.283742 
L 172.954311 182.283742 
L 175.919682 182.283742 
L 178.789397 182.283742 
L 181.754768 182.283742 
L 184.72014 182.283742 
L 187.39854 182.283742 
L 190.363911 182.283742 
L 193.233625 182.283742 
L 196.198997 182.283742 
L 199.068711 182.283742 
L 202.034082 182.283742 
L 204.999454 182.283742 
L 207.869168 182.283742 
L 210.83454 182.283742 
L 213.704254 182.283742 
L 216.669625 182.283742 
L 219.634997 182.283742 
L 222.409054 182.283742 
L 225.374425 182.283742 
L 228.24414 182.283742 
L 231.209511 182.283742 
L 234.079225 182.283742 
L 237.044597 182.283742 
L 240.009968 182.283742 
L 242.879682 182.283742 
L 245.845054 182.283742 
L 248.714768 182.283742 
L 251.68014 180.737637 
L 254.645511 180.737637 
L 257.323911 180.737637 
L 260.289282 177.645426 
L 263.158997 176.099321 
L 266.124368 174.553216 
L 268.994082 174.553216 
L 271.959454 174.553216 
L 274.924825 176.099321 
L 277.79454 168.368795 
L 280.759911 168.368795 
L 283.629625 166.82269 
L 286.594997 160.638268 
L 289.560368 160.638268 
L 292.238768 165.276584 
L 295.20414 163.730479 
L 298.073854 157.546058 
L 301.039225 152.907742 
L 303.90894 152.907742 
L 306.874311 154.453847 
L 309.839682 154.453847 
L 312.709397 148.269426 
L 315.674768 146.723321 
L 318.544482 148.269426 
L 321.509854 143.631111 
L 324.475225 140.5389 
L 327.153625 145.177216 
L 330.118997 149.815532 
L 332.988711 137.44669 
L 335.954082 131.262268 
L 338.823797 129.716163 
L 341.789168 131.262268 
L 344.75454 138.992795 
L 347.624254 129.716163 
L 350.589625 129.716163 
L 353.45934 142.085005 
L 356.424711 123.531742 
L 359.390082 123.531742 
L 362.16414 132.808374 
L 365.129511 129.716163 
L 367.999225 121.985637 
L 370.964597 114.255111 
" style="fill:none;stroke:#2ca02c;stroke-dasharray:5.55,2.4;stroke-dashoffset:0;stroke-width:1.5;"/>
   </g>
   <g id="patch_7">
    <path d="M 41.999682 174.553216 
L 41.999682 27.673216 
" style="fill:none;stroke:#000000;stroke-linecap:square;stroke-linejoin:miter;stroke-width:0.8;"/>
   </g>
   <g id="patch_8">
    <path d="M 376.799682 174.553216 
L 376.799682 27.673216 
" style="fill:none;stroke:#000000;stroke-linecap:square;stroke-linejoin:miter;stroke-width:0.8;"/>
   </g>
   <g id="patch_9">
    <path d="M 41.999682 174.553216 
L 376.799682 174.553216 
" style="fill:none;stroke:#000000;stroke-linecap:square;stroke-linejoin:miter;stroke-width:0.8;"/>
   </g>
   <g id="patch_10">
    <path d="M 41.999682 27.673216 
L 376.799682 27.673216 
" style="fill:none;stroke:#000000;stroke-linecap:square;stroke-linejoin:miter;stroke-width:0.8;"/>
   </g>
   <g id="legend_1">
    <g id="patch_11">
     <path d="M 43.999682 24.735616 
L 374.799682 24.735616 
Q 376.799682 24.735616 376.799682 22.735616 
L 376.799682 9.2 
Q 376.799682 7.2 374.799682 7.2 
L 43.999682 7.2 
Q 41.999682 7.2 41.999682 9.2 
L 41.999682 22.735616 
Q 41.999682 24.735616 43.999682 24.735616 
z
" style="fill:#ffffff;opacity:0.8;stroke:#cccccc;stroke-linejoin:miter;"/>
    </g>
    <g id="line2d_30">
     <path d="M 45.999682 15.298438 
L 65.999682 15.298438 
" style="fill:none;stroke:#1f77b4;stroke-linecap:square;stroke-width:1.5;"/>
    </g>
    <g id="line2d_31"/>
    <g id="text_29">
     <!-- Machine Learning -->
     <g transform="translate(73.999682 18.798438)scale(0.1 -0.1)">
      <defs>
       <path d="M 26.09375 6.5 
C 24.90625 6.5 23.703125 6.390625 22.5 6.390625 
L 17.203125 6.390625 
L 17.203125 69 
L 8.796875 69 
L 8.796875 0 
L 46.90625 0 
L 46.90625 6.5 
z
" id="CMSS17-76"/>
       <path d="M 44.5 44 
C 38.796875 43.890625 33.90625 42.796875 29.90625 40.890625 
C 26.59375 43.484375 23.203125 44 20.90625 44 
C 12.203125 44 5.59375 36.8125 5.59375 28.5 
C 5.59375 23.140625 8.59375 19.09375 8.796875 18.890625 
C 7 16.390625 6 13.6875 6 10.6875 
C 6 7.1875 7.40625 4.6875 8.5 3.296875 
C 3.296875 0.09375 2.59375 -4.8125 2.59375 -6.703125 
C 2.59375 -14 11.703125 -20 23.40625 -20 
C 35.203125 -20 44.296875 -14 44.296875 -6.609375 
C 44.296875 7.1875 29 7.296875 24.796875 7.296875 
L 16.703125 7.296875 
C 15.203125 7.296875 11.203125 7.296875 11.203125 12.390625 
C 11.203125 14.390625 12.09375 15.6875 12.203125 15.796875 
C 13.703125 14.6875 16.796875 13 20.90625 13 
C 29.203125 13 36.09375 19.984375 36.09375 28.5 
C 36.09375 33.25 33.90625 36.703125 33 37.890625 
L 33.296875 37.890625 
C 33.59375 37.890625 37.796875 38.1875 39.296875 38.1875 
C 42.5 38.1875 42.796875 38.09375 45.59375 37.796875 
z
M 20.90625 18.5 
C 17.5 18.5 12.703125 20.578125 12.703125 28.5 
C 12.703125 37.109375 18.203125 38.484375 20.796875 38.484375 
C 24.203125 38.484375 29 36.40625 29 28.5 
C 29 19.875 23.5 18.5 20.90625 18.5 
z
M 24.703125 0 
C 27.09375 0 37.203125 0 37.203125 -6.8125 
C 37.203125 -11.109375 31 -14.5 23.5 -14.5 
C 15.90625 -14.5 9.703125 -11.203125 9.703125 -6.703125 
C 9.703125 -6.203125 9.703125 0 16.59375 0 
z
" id="CMSS17-103"/>
      </defs>
      <use transform="scale(0.996264)" xlink:href="#CMSS17-77"/>
      <use transform="translate(81.67603 0)scale(0.996264)" xlink:href="#CMSS17-97"/>
      <use transform="translate(126.597951 0)scale(0.996264)" xlink:href="#CMSS17-99"/>
      <use transform="translate(168.236773 0)scale(0.996264)" xlink:href="#CMSS17-104"/>
      <use transform="translate(216.441716 0)scale(0.996264)" xlink:href="#CMSS17-105"/>
      <use transform="translate(238.622439 0)scale(0.996264)" xlink:href="#CMSS17-110"/>
      <use transform="translate(286.827382 0)scale(0.996264)" xlink:href="#CMSS17-101"/>
      <use transform="translate(359.695317 0)scale(0.996264)" xlink:href="#CMSS17-76"/>
      <use transform="translate(410.382422 0)scale(0.996264)" xlink:href="#CMSS17-101"/>
      <use transform="translate(452.021244 0)scale(0.996264)" xlink:href="#CMSS17-97"/>
      <use transform="translate(494.340711 0)scale(0.996264)" xlink:href="#CMSS17-114"/>
      <use transform="translate(526.250483 0)scale(0.996264)" xlink:href="#CMSS17-110"/>
      <use transform="translate(574.455427 0)scale(0.996264)" xlink:href="#CMSS17-105"/>
      <use transform="translate(596.63615 0)scale(0.996264)" xlink:href="#CMSS17-110"/>
      <use transform="translate(644.841093 0)scale(0.996264)" xlink:href="#CMSS17-103"/>
     </g>
    </g>
    <g id="line2d_32">
     <path d="M 192.825998 15.298438 
L 212.825998 15.298438 
" style="fill:none;stroke:#ff7f0e;stroke-dasharray:9.6,2.4,1.5,2.4;stroke-dashoffset:0;stroke-width:1.5;"/>
    </g>
    <g id="line2d_33"/>
    <g id="text_30">
     <!-- Tensorflow -->
     <g transform="translate(220.825998 18.798438)scale(0.1 -0.1)">
      <use transform="scale(0.996264)" xlink:href="#CMSS17-84"/>
      <use transform="translate(56.012199 0)scale(0.996264)" xlink:href="#CMSS17-101"/>
      <use transform="translate(97.651021 0)scale(0.996264)" xlink:href="#CMSS17-110"/>
      <use transform="translate(145.855964 0)scale(0.996264)" xlink:href="#CMSS17-115"/>
      <use transform="translate(181.769506 0)scale(0.996264)" xlink:href="#CMSS17-111"/>
      <use transform="translate(226.010675 0)scale(0.996264)" xlink:href="#CMSS17-114"/>
      <use transform="translate(257.920448 0)scale(0.996264)" xlink:href="#CMSS17-13"/>
      <use transform="translate(308.047185 0)scale(0.996264)" xlink:href="#CMSS17-111"/>
      <use transform="translate(352.288355 0)scale(0.996264)" xlink:href="#CMSS17-119"/>
     </g>
    </g>
    <g id="line2d_34">
     <path d="M 310.207115 15.298438 
L 330.207115 15.298438 
" style="fill:none;stroke:#2ca02c;stroke-dasharray:5.55,2.4;stroke-dashoffset:0;stroke-width:1.5;"/>
    </g>
    <g id="line2d_35"/>
    <g id="text_31">
     <!-- PyTorch -->
     <g transform="translate(338.207115 18.798438)scale(0.1 -0.1)">
      <use transform="scale(0.996264)" xlink:href="#CMSS17-80"/>
      <use transform="translate(59.735586 0)scale(0.996264)" xlink:href="#CMSS17-121"/>
      <use transform="translate(102.735728 0)scale(0.996264)" xlink:href="#CMSS17-84"/>
      <use transform="translate(158.747926 0)scale(0.996264)" xlink:href="#CMSS17-111"/>
      <use transform="translate(202.989096 0)scale(0.996264)" xlink:href="#CMSS17-114"/>
      <use transform="translate(234.898869 0)scale(0.996264)" xlink:href="#CMSS17-99"/>
      <use transform="translate(276.537691 0)scale(0.996264)" xlink:href="#CMSS17-104"/>
     </g>
    </g>
   </g>
  </g>
 </g>
 <defs>
  <clipPath id="p564721b0da">
   <rect height="146.88" width="334.8" x="41.999682" y="27.673216"/>
  </clipPath>
 </defs>
</svg>
