<?xml version="1.0" encoding="utf-8" standalone="no"?>
<!DOCTYPE svg PUBLIC "-//W3C//DTD SVG 1.1//EN"
  "http://www.w3.org/Graphics/SVG/1.1/DTD/svg11.dtd">
<svg xmlns:xlink="http://www.w3.org/1999/xlink" width="395.325pt" height="223.155pt" viewBox="0 0 395.325 223.155" xmlns="http://www.w3.org/2000/svg" version="1.1">
 <metadata>
  <rdf:RDF xmlns:dc="http://purl.org/dc/elements/1.1/" xmlns:cc="http://creativecommons.org/ns#" xmlns:rdf="http://www.w3.org/1999/02/22-rdf-syntax-ns#">
   <cc:Work>
    <dc:type rdf:resource="http://purl.org/dc/dcmitype/StillImage"/>
    <dc:date>2023-02-27T21:42:18.395963</dc:date>
    <dc:format>image/svg+xml</dc:format>
    <dc:creator>
     <cc:Agent>
      <dc:title>Matplotlib v3.5.1, https://matplotlib.org/</dc:title>
     </cc:Agent>
    </dc:creator>
   </cc:Work>
  </rdf:RDF>
 </metadata>
 <defs>
  <style type="text/css">*{stroke-linejoin: round; stroke-linecap: butt}</style>
 </defs>
 <g id="figure_1">
  <g id="patch_1">
   <path d="M 0 223.155 
L 395.325 223.155 
L 395.325 0 
L 0 0 
z
" style="fill: #ffffff"/>
  </g>
  <g id="axes_1">
   <g id="patch_2">
    <path d="M 43.78125 94.87875 
L 195.963068 94.87875 
L 195.963068 19.27875 
L 43.78125 19.27875 
z
" style="fill: #ffffff"/>
   </g>
   <g id="matplotlib.axis_1">
    <g id="xtick_1">
     <g id="line2d_1">
      <defs>
       <path id="m39ad296ce8" d="M 0 0 
L 0 3.5 
" style="stroke: #000000; stroke-width: 0.8"/>
      </defs>
      <g>
       <use xlink:href="#m39ad296ce8" x="43.78125" y="94.87875" style="stroke: #000000; stroke-width: 0.8"/>
      </g>
     </g>
    </g>
    <g id="xtick_2">
     <g id="line2d_2">
      <g>
       <use xlink:href="#m39ad296ce8" x="81.826705" y="94.87875" style="stroke: #000000; stroke-width: 0.8"/>
      </g>
     </g>
    </g>
    <g id="xtick_3">
     <g id="line2d_3">
      <g>
       <use xlink:href="#m39ad296ce8" x="119.872159" y="94.87875" style="stroke: #000000; stroke-width: 0.8"/>
      </g>
     </g>
    </g>
    <g id="xtick_4">
     <g id="line2d_4">
      <g>
       <use xlink:href="#m39ad296ce8" x="157.917614" y="94.87875" style="stroke: #000000; stroke-width: 0.8"/>
      </g>
     </g>
    </g>
    <g id="xtick_5">
     <g id="line2d_5">
      <g>
       <use xlink:href="#m39ad296ce8" x="195.963068" y="94.87875" style="stroke: #000000; stroke-width: 0.8"/>
      </g>
     </g>
    </g>
   </g>
   <g id="matplotlib.axis_2">
    <g id="ytick_1">
     <g id="line2d_6">
      <defs>
       <path id="m6e3efac6a8" d="M 0 0 
L -3.5 0 
" style="stroke: #000000; stroke-width: 0.8"/>
      </defs>
      <g>
       <use xlink:href="#m6e3efac6a8" x="43.78125" y="68.346758" style="stroke: #000000; stroke-width: 0.8"/>
      </g>
     </g>
     <g id="text_1">
      <!-- 3.1 -->
      <g transform="translate(20.878125 72.145977)scale(0.1 -0.1)">
       <defs>
        <path id="DejaVuSans-33" d="M 2597 2516 
Q 3050 2419 3304 2112 
Q 3559 1806 3559 1356 
Q 3559 666 3084 287 
Q 2609 -91 1734 -91 
Q 1441 -91 1130 -33 
Q 819 25 488 141 
L 488 750 
Q 750 597 1062 519 
Q 1375 441 1716 441 
Q 2309 441 2620 675 
Q 2931 909 2931 1356 
Q 2931 1769 2642 2001 
Q 2353 2234 1838 2234 
L 1294 2234 
L 1294 2753 
L 1863 2753 
Q 2328 2753 2575 2939 
Q 2822 3125 2822 3475 
Q 2822 3834 2567 4026 
Q 2313 4219 1838 4219 
Q 1578 4219 1281 4162 
Q 984 4106 628 3988 
L 628 4550 
Q 988 4650 1302 4700 
Q 1616 4750 1894 4750 
Q 2613 4750 3031 4423 
Q 3450 4097 3450 3541 
Q 3450 3153 3228 2886 
Q 3006 2619 2597 2516 
z
" transform="scale(0.015625)"/>
        <path id="DejaVuSans-2e" d="M 684 794 
L 1344 794 
L 1344 0 
L 684 0 
L 684 794 
z
" transform="scale(0.015625)"/>
        <path id="DejaVuSans-31" d="M 794 531 
L 1825 531 
L 1825 4091 
L 703 3866 
L 703 4441 
L 1819 4666 
L 2450 4666 
L 2450 531 
L 3481 531 
L 3481 0 
L 794 0 
L 794 531 
z
" transform="scale(0.015625)"/>
       </defs>
       <use xlink:href="#DejaVuSans-33"/>
       <use xlink:href="#DejaVuSans-2e" x="63.623047"/>
       <use xlink:href="#DejaVuSans-31" x="95.410156"/>
      </g>
     </g>
    </g>
    <g id="ytick_2">
     <g id="line2d_7">
      <g>
       <use xlink:href="#m6e3efac6a8" x="43.78125" y="39.667863" style="stroke: #000000; stroke-width: 0.8"/>
      </g>
     </g>
     <g id="text_2">
      <!-- 3.2 -->
      <g transform="translate(20.878125 43.467081)scale(0.1 -0.1)">
       <defs>
        <path id="DejaVuSans-32" d="M 1228 531 
L 3431 531 
L 3431 0 
L 469 0 
L 469 531 
Q 828 903 1448 1529 
Q 2069 2156 2228 2338 
Q 2531 2678 2651 2914 
Q 2772 3150 2772 3378 
Q 2772 3750 2511 3984 
Q 2250 4219 1831 4219 
Q 1534 4219 1204 4116 
Q 875 4013 500 3803 
L 500 4441 
Q 881 4594 1212 4672 
Q 1544 4750 1819 4750 
Q 2544 4750 2975 4387 
Q 3406 4025 3406 3419 
Q 3406 3131 3298 2873 
Q 3191 2616 2906 2266 
Q 2828 2175 2409 1742 
Q 1991 1309 1228 531 
z
" transform="scale(0.015625)"/>
       </defs>
       <use xlink:href="#DejaVuSans-33"/>
       <use xlink:href="#DejaVuSans-2e" x="63.623047"/>
       <use xlink:href="#DejaVuSans-32" x="95.410156"/>
      </g>
     </g>
    </g>
    <g id="text_3">
     <!-- $c_d$ -->
     <g transform="translate(14.798438 62.22875)rotate(-90)scale(0.1 -0.1)">
      <defs>
       <path id="DejaVuSans-Oblique-63" d="M 3431 3366 
L 3316 2797 
Q 3109 2947 2876 3022 
Q 2644 3097 2394 3097 
Q 2119 3097 1870 3000 
Q 1622 2903 1453 2725 
Q 1184 2453 1037 2087 
Q 891 1722 891 1331 
Q 891 859 1127 628 
Q 1363 397 1844 397 
Q 2081 397 2348 469 
Q 2616 541 2906 684 
L 2797 116 
Q 2547 13 2283 -39 
Q 2019 -91 1741 -91 
Q 1044 -91 669 257 
Q 294 606 294 1253 
Q 294 1797 489 2255 
Q 684 2713 1069 3078 
Q 1331 3328 1684 3456 
Q 2038 3584 2456 3584 
Q 2700 3584 2940 3529 
Q 3181 3475 3431 3366 
z
" transform="scale(0.015625)"/>
       <path id="DejaVuSans-Oblique-64" d="M 2675 525 
Q 2444 222 2128 65 
Q 1813 -91 1428 -91 
Q 903 -91 598 267 
Q 294 625 294 1247 
Q 294 1766 478 2236 
Q 663 2706 1013 3078 
Q 1244 3325 1534 3454 
Q 1825 3584 2144 3584 
Q 2481 3584 2739 3421 
Q 2997 3259 3138 2956 
L 3513 4863 
L 4091 4863 
L 3144 0 
L 2566 0 
L 2675 525 
z
M 891 1350 
Q 891 897 1095 644 
Q 1300 391 1663 391 
Q 1931 391 2161 520 
Q 2391 650 2566 903 
Q 2750 1166 2856 1509 
Q 2963 1853 2963 2188 
Q 2963 2622 2758 2865 
Q 2553 3109 2194 3109 
Q 1922 3109 1687 2981 
Q 1453 2853 1288 2613 
Q 1106 2353 998 2009 
Q 891 1666 891 1350 
z
" transform="scale(0.015625)"/>
      </defs>
      <use xlink:href="#DejaVuSans-Oblique-63"/>
      <use xlink:href="#DejaVuSans-Oblique-64" transform="translate(54.980469 -16.40625)scale(0.7)"/>
     </g>
    </g>
   </g>
   <g id="line2d_8">
    <path d="M 43.78125 50.856481 
L 44.542159 47.002433 
L 44.922614 48.372946 
L 45.303068 44.42601 
L 45.683523 46.08696 
L 46.063977 44.510073 
L 46.444432 47.81624 
L 46.824886 49.510833 
L 47.205341 49.526044 
L 47.585795 50.982806 
L 47.96625 53.286111 
L 48.346705 53.35297 
L 48.727159 54.279281 
L 49.107614 53.474692 
L 49.488068 52.403793 
L 50.248977 48.861611 
L 50.629432 47.418934 
L 51.009886 46.50225 
L 51.390341 45.166344 
L 51.770795 45.760425 
L 52.15125 44.179618 
L 52.912159 47.735755 
L 53.292614 48.19234 
L 53.673068 51.199027 
L 54.053523 51.725497 
L 54.433977 51.842223 
L 54.814432 54.103213 
L 55.194886 52.465281 
L 55.575341 53.400586 
L 55.955795 51.354197 
L 56.33625 50.131547 
L 57.097159 42.825421 
L 57.477614 40.459257 
L 57.858068 36.678575 
L 58.238523 35.188667 
L 58.618977 35.680848 
L 58.999432 36.81848 
L 59.379886 39.083418 
L 60.140795 47.807131 
L 60.52125 51.05273 
L 60.901705 52.544985 
L 61.282159 57.022879 
L 61.662614 55.154507 
L 62.043068 56.236576 
L 62.423523 55.12148 
L 63.184432 48.628437 
L 63.564886 46.804506 
L 64.325795 39.764511 
L 64.70625 39.87756 
L 65.086705 35.508244 
L 65.467159 35.154071 
L 66.228068 37.001961 
L 66.608523 36.002671 
L 66.988977 38.185089 
L 67.369432 42.246222 
L 67.749886 43.858552 
L 68.130341 48.470147 
L 68.510795 48.386399 
L 68.89125 51.400213 
L 69.271705 52.720595 
L 69.652159 50.115917 
L 70.032614 48.953169 
L 70.413068 49.129079 
L 71.173977 42.165258 
L 71.554432 38.019867 
L 71.934886 39.150524 
L 72.315341 38.986076 
L 72.695795 41.329334 
L 73.07625 41.383733 
L 73.456705 41.594531 
L 73.837159 42.601298 
L 74.598068 47.638818 
L 74.978523 48.289731 
L 75.358977 48.564962 
L 75.739432 51.363865 
L 76.119886 49.557533 
L 76.500341 48.901377 
L 76.880795 46.504541 
L 77.26125 45.772068 
L 78.022159 42.157134 
L 78.402614 41.475984 
L 78.783068 38.971832 
L 79.163523 37.658367 
L 79.543977 40.165009 
L 79.924432 38.737789 
L 80.304886 43.470093 
L 80.685341 44.942551 
L 81.065795 47.108381 
L 81.44625 50.258669 
L 81.826705 50.873292 
L 82.207159 54.599733 
L 82.587614 51.762166 
L 82.968068 55.268554 
L 83.348523 51.951647 
L 83.728977 50.381226 
L 84.109432 47.561428 
L 84.489886 46.750778 
L 84.870341 45.247778 
L 85.250795 42.85812 
L 85.63125 41.859361 
L 86.011705 40.459463 
L 86.772614 47.1049 
L 87.153068 45.980048 
L 87.913977 50.58402 
L 88.294432 53.053795 
L 89.055341 56.473744 
L 89.435795 55.968167 
L 89.81625 56.731849 
L 90.957614 51.964825 
L 91.338068 49.046329 
L 91.718523 49.184874 
L 92.098977 45.793976 
L 92.479432 45.441271 
L 92.859886 47.362399 
L 93.240341 45.766668 
L 93.620795 47.170847 
L 94.00125 50.667857 
L 94.381705 51.493924 
L 95.142614 56.885189 
L 95.523068 56.54192 
L 95.903523 59.093716 
L 96.283977 58.920143 
L 96.664432 58.490324 
L 97.044886 57.789761 
L 97.425341 57.726456 
L 97.805795 53.282712 
L 98.18625 55.045788 
L 98.566705 53.397273 
L 98.947159 52.880144 
L 99.327614 49.69118 
L 99.708068 50.787666 
L 100.088523 51.418882 
L 100.468977 48.285598 
L 100.849432 48.254155 
L 101.229886 48.557563 
L 101.610341 51.575392 
L 101.990795 50.991217 
L 102.37125 50.795349 
L 103.132159 55.45731 
L 103.512614 55.144113 
L 103.893068 54.290331 
L 104.273523 57.025389 
L 104.653977 55.431114 
L 105.034432 53.34888 
L 105.414886 52.67092 
L 106.936705 40.231492 
L 107.317159 38.743163 
L 107.697614 38.984835 
L 108.078068 38.92263 
L 108.458523 42.673942 
L 108.838977 44.79712 
L 109.219432 48.937768 
L 109.980341 54.210283 
L 110.360795 57.069049 
L 110.74125 55.727737 
L 111.121705 53.83608 
L 111.882614 48.342474 
L 112.263068 42.739083 
L 112.643523 41.190893 
L 113.404432 31.462492 
L 113.784886 31.716719 
L 114.165341 29.564351 
L 114.545795 34.225386 
L 116.448068 48.804575 
L 116.828523 48.247464 
L 117.208977 49.375451 
L 117.969886 45.457524 
L 118.730795 38.385199 
L 119.11125 34.534799 
L 119.491705 33.741968 
L 119.872159 30.173909 
L 120.252614 32.654356 
L 120.633068 33.616799 
L 121.013523 33.676879 
L 121.393977 37.912984 
L 121.774432 39.321749 
L 122.154886 43.812967 
L 122.535341 45.123093 
L 122.915795 48.113433 
L 123.29625 48.673337 
L 123.676705 49.764205 
L 124.057159 47.145346 
L 124.437614 46.551133 
L 124.818068 42.491624 
L 125.578977 37.177451 
L 125.959432 32.388178 
L 126.339886 32.34838 
L 126.720341 32.602668 
L 127.100795 31.086968 
L 128.242159 34.633661 
L 128.622614 36.925974 
L 130.144432 42.913706 
L 130.524886 40.05265 
L 130.905341 42.816636 
L 131.285795 40.08319 
L 131.66625 38.349325 
L 132.046705 35.989029 
L 132.427159 32.78311 
L 132.807614 32.003241 
L 133.188068 29.845886 
L 133.568523 29.810757 
L 133.948977 30.190718 
L 134.329432 32.670227 
L 134.709886 34.156809 
L 135.090341 37.145227 
L 135.470795 38.652684 
L 135.85125 43.395058 
L 136.231705 42.704487 
L 136.612159 45.371011 
L 136.992614 44.056087 
L 137.373068 44.890989 
L 138.133977 41.168199 
L 138.514432 36.553808 
L 138.894886 37.478281 
L 139.275341 34.829294 
L 139.655795 30.79424 
L 140.03625 28.195094 
L 140.416705 27.695884 
L 140.797159 25.240468 
L 141.177614 30.234763 
L 141.558068 32.418148 
L 141.938523 36.193191 
L 142.318977 37.214627 
L 142.699432 41.897529 
L 143.079886 44.345502 
L 143.460341 48.613519 
L 143.840795 46.907276 
L 144.22125 48.382599 
L 144.982159 45.916667 
L 145.362614 43.58846 
L 146.123523 36.644531 
L 146.503977 35.193442 
L 146.884432 32.965272 
L 147.264886 32.181114 
L 147.645341 33.824589 
L 148.40625 35.879983 
L 148.786705 41.664226 
L 149.167159 43.853897 
L 149.547614 48.842153 
L 149.928068 50.799949 
L 150.308523 53.377998 
L 150.688977 54.830839 
L 151.069432 53.909111 
L 151.449886 53.433589 
L 151.830341 51.486533 
L 152.210795 46.881723 
L 152.59125 44.664251 
L 152.971705 41.650856 
L 153.352159 41.630864 
L 154.113068 37.223575 
L 154.493523 37.81477 
L 154.873977 36.489516 
L 155.254432 41.226016 
L 155.634886 40.402906 
L 156.015341 47.038832 
L 156.395795 47.828546 
L 156.77625 49.871366 
L 157.156705 50.737839 
L 157.537159 53.043312 
L 157.917614 53.014066 
L 158.298068 50.152669 
L 158.678523 50.902203 
L 159.439432 45.593599 
L 160.200341 41.642347 
L 160.580795 39.064536 
L 160.96125 40.924824 
L 161.341705 39.322382 
L 161.722159 44.037434 
L 162.102614 42.98838 
L 162.483068 46.161981 
L 163.243977 49.623463 
L 163.624432 49.562369 
L 164.004886 53.092938 
L 164.385341 51.771687 
L 164.765795 51.921305 
L 165.14625 50.834493 
L 166.287614 42.278451 
L 166.668068 37.699802 
L 167.428977 32.804475 
L 167.809432 30.636184 
L 168.189886 33.031156 
L 168.570341 33.144289 
L 170.092159 51.406829 
L 170.472614 53.460602 
L 170.853068 56.335532 
L 171.233523 57.284815 
L 171.613977 52.781715 
L 171.994432 51.980802 
L 172.755341 45.033004 
L 173.135795 40.886501 
L 173.51625 38.29254 
L 173.896705 34.447939 
L 174.277159 34.612565 
L 174.657614 34.631461 
L 175.038068 37.456149 
L 175.418523 38.028176 
L 175.798977 41.755368 
L 176.179432 42.321871 
L 176.559886 47.490757 
L 176.940341 48.213368 
L 177.320795 50.756125 
L 178.081705 51.183211 
L 179.223068 44.666566 
L 179.603523 39.749818 
L 179.983977 38.351025 
L 180.364432 38.448072 
L 180.744886 36.540733 
L 181.125341 37.491831 
L 181.505795 38.785929 
L 181.88625 43.255263 
L 182.266705 44.656233 
L 182.647159 44.708113 
L 183.027614 47.204645 
L 183.408068 51.22329 
L 183.788523 53.313643 
L 184.168977 50.569893 
L 184.549432 50.131647 
L 184.929886 50.849457 
L 185.310341 48.929778 
L 185.690795 45.088535 
L 186.07125 45.350893 
L 186.451705 42.377978 
L 186.832159 41.627793 
L 187.212614 39.196158 
L 187.593068 41.46658 
L 187.973523 39.077307 
L 188.353977 41.972608 
L 188.734432 42.825948 
L 189.114886 44.475802 
L 189.495341 48.675881 
L 189.875795 48.941838 
L 190.25625 51.243436 
L 190.636705 54.235179 
L 191.017159 55.614097 
L 191.397614 54.042924 
L 191.778068 56.151207 
L 192.158523 54.771428 
L 192.538977 52.592535 
L 192.919432 51.254214 
L 193.299886 51.688825 
L 194.060795 44.26059 
L 194.44125 45.484625 
L 194.821705 44.318974 
L 195.202159 45.087294 
L 195.582614 42.937179 
L 195.582614 42.937179 
" clip-path="url(#pe0b66f068f)" style="fill: none; stroke: #1f77b4; stroke-linecap: square"/>
   </g>
   <g id="line2d_9">
    <path d="M 43.78125 50.856481 
L 44.161705 49.067422 
L 44.542159 49.312051 
L 44.922614 48.263275 
L 45.303068 50.901779 
L 45.683523 48.324501 
L 46.063977 48.265755 
L 46.824886 53.605895 
L 47.205341 55.751713 
L 47.585795 55.347788 
L 47.96625 58.036535 
L 48.346705 57.226388 
L 48.727159 57.008545 
L 49.107614 57.505046 
L 49.488068 56.176637 
L 50.248977 51.335309 
L 50.629432 49.033452 
L 51.009886 48.611451 
L 51.390341 47.658425 
L 51.770795 47.686941 
L 52.15125 46.391799 
L 52.531705 48.861522 
L 52.912159 50.113115 
L 53.292614 52.252678 
L 53.673068 53.316488 
L 54.053523 54.851723 
L 54.433977 54.499168 
L 54.814432 56.293569 
L 55.194886 55.54117 
L 55.575341 56.114558 
L 55.955795 53.43993 
L 56.33625 52.920802 
L 56.716705 49.198795 
L 57.097159 46.820769 
L 57.477614 45.43276 
L 57.858068 42.104063 
L 58.238523 41.953869 
L 58.618977 42.533819 
L 58.999432 40.407334 
L 59.379886 42.001852 
L 59.760341 41.839414 
L 60.52125 44.003802 
L 60.901705 47.283658 
L 61.282159 47.837247 
L 61.662614 48.164834 
L 62.043068 50.487435 
L 62.423523 49.242212 
L 62.803977 48.442719 
L 63.184432 48.843988 
L 63.564886 45.889958 
L 63.945341 45.508515 
L 64.325795 42.992183 
L 64.70625 42.509115 
L 65.467159 38.420718 
L 66.228068 37.595887 
L 66.608523 37.494464 
L 66.988977 38.134181 
L 67.369432 39.598506 
L 68.130341 44.20125 
L 68.510795 44.953042 
L 68.89125 47.596809 
L 69.271705 48.08131 
L 69.652159 47.068228 
L 70.032614 49.158197 
L 70.413068 43.749472 
L 70.793523 43.2224 
L 71.173977 37.311086 
L 71.934886 30.984865 
L 72.315341 30.927565 
L 72.695795 32.229767 
L 73.07625 32.117295 
L 74.217614 41.073651 
L 74.598068 45.909044 
L 74.978523 46.928338 
L 75.358977 51.208081 
L 75.739432 49.570585 
L 76.119886 49.725841 
L 77.26125 42.626484 
L 77.641705 38.186041 
L 78.022159 35.109909 
L 78.402614 33.994277 
L 78.783068 29.805403 
L 79.163523 31.726456 
L 79.543977 32.159017 
L 79.924432 31.707439 
L 80.685341 38.787142 
L 81.065795 38.774277 
L 81.44625 45.470831 
L 81.826705 44.899507 
L 82.207159 48.060919 
L 82.587614 48.277221 
L 82.968068 48.253782 
L 83.728977 45.787747 
L 84.109432 43.481086 
L 84.870341 37.144364 
L 85.250795 36.624605 
L 85.63125 33.414653 
L 86.392159 28.760132 
L 86.772614 28.736626 
L 87.153068 31.820393 
L 87.533523 32.861999 
L 88.294432 42.062353 
L 88.674886 41.974922 
L 89.435795 49.223559 
L 89.81625 47.998683 
L 90.196705 48.960714 
L 90.577159 47.29246 
L 90.957614 46.215404 
L 91.338068 42.67157 
L 91.718523 42.254762 
L 92.479432 35.488883 
L 92.859886 33.63327 
L 93.240341 34.348019 
L 93.620795 31.274818 
L 94.00125 33.08626 
L 94.381705 34.286635 
L 94.762159 36.998959 
L 95.142614 37.90124 
L 95.523068 42.082101 
L 95.903523 43.46332 
L 96.664432 47.868197 
L 97.044886 48.790895 
L 97.425341 46.147139 
L 97.805795 44.795692 
L 98.18625 42.261628 
L 98.566705 36.905511 
L 98.947159 33.917234 
L 99.327614 32.987065 
L 99.708068 29.130766 
L 100.088523 27.17406 
L 100.468977 27.029624 
L 100.849432 27.276073 
L 101.229886 33.184244 
L 101.610341 35.330039 
L 101.990795 41.821094 
L 102.37125 45.484218 
L 103.132159 49.763628 
L 103.512614 49.874656 
L 103.893068 48.304053 
L 104.273523 45.751273 
L 104.653977 40.177903 
L 105.034432 38.291419 
L 105.414886 30.025714 
L 106.175795 25.59853 
L 106.55625 26.049907 
L 106.936705 26.080396 
L 107.697614 30.147298 
L 108.458523 35.851886 
L 108.838977 41.272934 
L 109.219432 39.419475 
L 109.599886 43.355837 
L 109.980341 41.412913 
L 110.360795 40.750095 
L 110.74125 36.917723 
L 111.121705 35.114228 
L 111.502159 31.528617 
L 111.882614 29.487747 
L 112.263068 28.961518 
L 112.643523 24.792263 
L 113.023977 22.715114 
L 113.404432 23.049381 
L 114.165341 31.324142 
L 114.545795 31.284548 
L 114.92625 37.871299 
L 115.306705 40.374052 
L 115.687159 41.47278 
L 116.067614 45.092241 
L 116.448068 47.542121 
L 116.828523 44.167538 
L 117.208977 44.801864 
L 117.969886 39.415965 
L 118.350341 35.095681 
L 118.730795 33.927157 
L 119.11125 27.768903 
L 119.491705 25.847884 
L 119.872159 26.349544 
L 120.252614 26.18144 
L 120.633068 27.199323 
L 122.535341 43.614222 
L 123.29625 48.607637 
L 123.676705 46.296545 
L 124.057159 46.452484 
L 124.437614 45.826139 
L 124.818068 40.679872 
L 125.198523 40.367972 
L 125.959432 32.882631 
L 126.339886 31.793556 
L 126.720341 29.729553 
L 127.100795 28.977188 
L 127.48125 32.576946 
L 127.861705 30.158555 
L 128.242159 33.295303 
L 128.622614 33.595026 
L 129.383523 36.405288 
L 129.763977 42.23368 
L 130.524886 41.06653 
L 130.905341 45.249513 
L 131.285795 42.838837 
L 131.66625 39.621122 
L 132.046705 39.834025 
L 132.807614 34.454223 
L 133.188068 34.441263 
L 133.568523 33.185956 
L 133.948977 34.548938 
L 134.329432 35.287827 
L 134.709886 37.205481 
L 135.090341 36.573135 
L 135.470795 38.769336 
L 135.85125 43.913423 
L 136.231705 44.799217 
L 136.612159 46.067771 
L 136.992614 49.166594 
L 137.373068 48.221725 
L 137.753523 46.373579 
L 138.133977 47.103156 
L 139.275341 33.929287 
L 140.03625 29.563316 
L 140.416705 28.983219 
L 140.797159 27.602055 
L 141.177614 29.266113 
L 141.558068 33.862368 
L 142.318977 38.792351 
L 142.699432 45.372299 
L 143.079886 48.167542 
L 143.840795 51.208202 
L 144.22125 50.692349 
L 144.982159 43.586298 
L 145.362614 41.432498 
L 146.123523 32.664276 
L 146.884432 30.461235 
L 147.264886 27.169422 
L 147.645341 31.036341 
L 148.025795 31.030161 
L 148.786705 38.176382 
L 149.547614 44.424874 
L 149.928068 46.357301 
L 150.308523 46.904024 
L 150.688977 49.48092 
L 151.069432 45.331752 
L 151.449886 45.957753 
L 151.830341 43.557599 
L 152.210795 38.401856 
L 152.971705 31.127589 
L 153.352159 31.422591 
L 153.732614 30.961446 
L 154.113068 32.556389 
L 154.493523 31.814772 
L 154.873977 32.894986 
L 155.254432 40.209596 
L 156.015341 44.527249 
L 157.156705 51.629612 
L 157.537159 48.615816 
L 157.917614 47.131993 
L 158.298068 47.900464 
L 158.678523 42.333902 
L 159.058977 42.354863 
L 159.439432 39.636574 
L 160.200341 36.366027 
L 160.580795 36.505363 
L 160.96125 37.824022 
L 161.341705 39.882269 
L 161.722159 43.873141 
L 162.102614 46.003435 
L 162.483068 50.85412 
L 162.863523 51.940027 
L 163.243977 55.962887 
L 163.624432 58.319039 
L 164.004886 57.478139 
L 164.385341 58.438409 
L 165.14625 55.688522 
L 165.526705 51.289354 
L 165.907159 48.420969 
L 166.287614 48.043861 
L 166.668068 44.592379 
L 167.048523 42.95233 
L 167.809432 42.856514 
L 168.189886 44.050896 
L 168.570341 44.269489 
L 168.950795 45.931474 
L 169.33125 50.070997 
L 169.711705 51.317095 
L 170.092159 51.331656 
L 170.472614 52.747472 
L 170.853068 54.840194 
L 171.233523 53.198302 
L 171.613977 54.970566 
L 171.994432 52.590596 
L 172.374886 52.325617 
L 173.135795 48.425643 
L 173.896705 47.017564 
L 174.277159 44.573523 
L 174.657614 45.157474 
L 175.038068 44.511218 
L 175.418523 47.446944 
L 175.798977 46.360284 
L 176.559886 52.77074 
L 176.940341 53.615981 
L 177.70125 57.496319 
L 178.081705 57.568097 
L 178.462159 55.82877 
L 178.842614 57.222754 
L 179.223068 52.156432 
L 179.603523 51.195812 
L 179.983977 49.902836 
L 180.364432 45.533901 
L 180.744886 45.010122 
L 181.125341 44.001032 
L 181.505795 45.426711 
L 181.88625 44.298506 
L 182.266705 47.136409 
L 183.027614 48.282444 
L 183.408068 51.907602 
L 183.788523 52.181953 
L 184.168977 52.098288 
L 184.549432 53.519838 
L 184.929886 53.956902 
L 185.310341 55.136075 
L 185.690795 50.655539 
L 186.451705 47.673625 
L 186.832159 44.085239 
L 187.212614 44.157323 
L 187.593068 43.02227 
L 187.973523 40.555079 
L 188.734432 42.921504 
L 189.114886 46.256171 
L 189.495341 46.485427 
L 189.875795 52.316827 
L 190.25625 53.547746 
L 191.017159 58.022915 
L 191.397614 57.050764 
L 191.778068 57.822355 
L 192.538977 53.023157 
L 192.919432 52.499446 
L 193.299886 49.205709 
L 194.060795 45.436542 
L 194.44125 45.378347 
L 194.821705 47.205979 
L 195.202159 47.326235 
L 195.582614 48.660862 
L 195.582614 48.660862 
" clip-path="url(#pe0b66f068f)" style="fill: none; stroke: #ff7f0e; stroke-linecap: square"/>
   </g>
   <g id="patch_3">
    <path d="M 43.78125 94.87875 
L 43.78125 19.27875 
" style="fill: none; stroke: #000000; stroke-width: 0.8; stroke-linejoin: miter; stroke-linecap: square"/>
   </g>
   <g id="patch_4">
    <path d="M 195.963068 94.87875 
L 195.963068 19.27875 
" style="fill: none; stroke: #000000; stroke-width: 0.8; stroke-linejoin: miter; stroke-linecap: square"/>
   </g>
   <g id="patch_5">
    <path d="M 43.78125 94.87875 
L 195.963068 94.87875 
" style="fill: none; stroke: #000000; stroke-width: 0.8; stroke-linejoin: miter; stroke-linecap: square"/>
   </g>
   <g id="patch_6">
    <path d="M 43.78125 19.27875 
L 195.963068 19.27875 
" style="fill: none; stroke: #000000; stroke-width: 0.8; stroke-linejoin: miter; stroke-linecap: square"/>
   </g>
   <g id="text_4">
    <!-- eps. 0 -->
    <g transform="translate(107.700284 13.27875)scale(0.08 -0.08)">
     <defs>
      <path id="DejaVuSans-65" d="M 3597 1894 
L 3597 1613 
L 953 1613 
Q 991 1019 1311 708 
Q 1631 397 2203 397 
Q 2534 397 2845 478 
Q 3156 559 3463 722 
L 3463 178 
Q 3153 47 2828 -22 
Q 2503 -91 2169 -91 
Q 1331 -91 842 396 
Q 353 884 353 1716 
Q 353 2575 817 3079 
Q 1281 3584 2069 3584 
Q 2775 3584 3186 3129 
Q 3597 2675 3597 1894 
z
M 3022 2063 
Q 3016 2534 2758 2815 
Q 2500 3097 2075 3097 
Q 1594 3097 1305 2825 
Q 1016 2553 972 2059 
L 3022 2063 
z
" transform="scale(0.015625)"/>
      <path id="DejaVuSans-70" d="M 1159 525 
L 1159 -1331 
L 581 -1331 
L 581 3500 
L 1159 3500 
L 1159 2969 
Q 1341 3281 1617 3432 
Q 1894 3584 2278 3584 
Q 2916 3584 3314 3078 
Q 3713 2572 3713 1747 
Q 3713 922 3314 415 
Q 2916 -91 2278 -91 
Q 1894 -91 1617 61 
Q 1341 213 1159 525 
z
M 3116 1747 
Q 3116 2381 2855 2742 
Q 2594 3103 2138 3103 
Q 1681 3103 1420 2742 
Q 1159 2381 1159 1747 
Q 1159 1113 1420 752 
Q 1681 391 2138 391 
Q 2594 391 2855 752 
Q 3116 1113 3116 1747 
z
" transform="scale(0.015625)"/>
      <path id="DejaVuSans-73" d="M 2834 3397 
L 2834 2853 
Q 2591 2978 2328 3040 
Q 2066 3103 1784 3103 
Q 1356 3103 1142 2972 
Q 928 2841 928 2578 
Q 928 2378 1081 2264 
Q 1234 2150 1697 2047 
L 1894 2003 
Q 2506 1872 2764 1633 
Q 3022 1394 3022 966 
Q 3022 478 2636 193 
Q 2250 -91 1575 -91 
Q 1294 -91 989 -36 
Q 684 19 347 128 
L 347 722 
Q 666 556 975 473 
Q 1284 391 1588 391 
Q 1994 391 2212 530 
Q 2431 669 2431 922 
Q 2431 1156 2273 1281 
Q 2116 1406 1581 1522 
L 1381 1569 
Q 847 1681 609 1914 
Q 372 2147 372 2553 
Q 372 3047 722 3315 
Q 1072 3584 1716 3584 
Q 2034 3584 2315 3537 
Q 2597 3491 2834 3397 
z
" transform="scale(0.015625)"/>
      <path id="DejaVuSans-20" transform="scale(0.015625)"/>
      <path id="DejaVuSans-30" d="M 2034 4250 
Q 1547 4250 1301 3770 
Q 1056 3291 1056 2328 
Q 1056 1369 1301 889 
Q 1547 409 2034 409 
Q 2525 409 2770 889 
Q 3016 1369 3016 2328 
Q 3016 3291 2770 3770 
Q 2525 4250 2034 4250 
z
M 2034 4750 
Q 2819 4750 3233 4129 
Q 3647 3509 3647 2328 
Q 3647 1150 3233 529 
Q 2819 -91 2034 -91 
Q 1250 -91 836 529 
Q 422 1150 422 2328 
Q 422 3509 836 4129 
Q 1250 4750 2034 4750 
z
" transform="scale(0.015625)"/>
     </defs>
     <use xlink:href="#DejaVuSans-65"/>
     <use xlink:href="#DejaVuSans-70" x="61.523438"/>
     <use xlink:href="#DejaVuSans-73" x="125"/>
     <use xlink:href="#DejaVuSans-2e" x="177.099609"/>
     <use xlink:href="#DejaVuSans-20" x="208.886719"/>
     <use xlink:href="#DejaVuSans-30" x="240.673828"/>
    </g>
   </g>
   <g id="legend_1">
    <g id="patch_7">
     <path d="M 47.98125 91.87875 
L 108.94125 91.87875 
Q 110.14125 91.87875 110.14125 90.67875 
L 110.14125 82.471875 
Q 110.14125 81.271875 108.94125 81.271875 
L 47.98125 81.271875 
Q 46.78125 81.271875 46.78125 82.471875 
L 46.78125 90.67875 
Q 46.78125 91.87875 47.98125 91.87875 
z
" style="fill: #ffffff; opacity: 0.8; stroke: #cccccc; stroke-linejoin: miter"/>
    </g>
    <g id="line2d_10">
     <path d="M 49.18125 86.130938 
L 55.18125 86.130938 
L 61.18125 86.130938 
" style="fill: none; stroke: #1f77b4; stroke-linecap: square"/>
    </g>
    <g id="text_5">
     <!-- $\tau_0$ -->
     <g transform="translate(65.98125 88.230938)scale(0.06 -0.06)">
      <defs>
       <path id="DejaVuSans-Oblique-3c4" d="M 2103 638 
Q 2188 488 2525 488 
L 2800 488 
L 2706 0 
L 2363 0 
Q 1800 0 1600 300 
Q 1403 606 1534 1269 
L 1856 2925 
L 541 2925 
L 653 3500 
L 3881 3500 
L 3769 2925 
L 2444 2925 
L 2113 1234 
Q 2025 781 2103 638 
z
" transform="scale(0.015625)"/>
      </defs>
      <use xlink:href="#DejaVuSans-Oblique-3c4" transform="translate(0 0.3125)"/>
      <use xlink:href="#DejaVuSans-30" transform="translate(60.205078 -16.09375)scale(0.7)"/>
     </g>
    </g>
    <g id="line2d_11">
     <path d="M 84.46125 86.130938 
L 90.46125 86.130938 
L 96.46125 86.130938 
" style="fill: none; stroke: #ff7f0e; stroke-linecap: square"/>
    </g>
    <g id="text_6">
     <!-- $\tau_1$ -->
     <g transform="translate(101.26125 88.230938)scale(0.06 -0.06)">
      <use xlink:href="#DejaVuSans-Oblique-3c4" transform="translate(0 0.3125)"/>
      <use xlink:href="#DejaVuSans-31" transform="translate(60.205078 -16.09375)scale(0.7)"/>
     </g>
    </g>
   </g>
  </g>
  <g id="axes_2">
   <g id="patch_8">
    <path d="M 226.399432 94.87875 
L 378.58125 94.87875 
L 378.58125 19.27875 
L 226.399432 19.27875 
z
" style="fill: #ffffff"/>
   </g>
   <g id="matplotlib.axis_3">
    <g id="xtick_6">
     <g id="line2d_12">
      <g>
       <use xlink:href="#m39ad296ce8" x="226.399432" y="94.87875" style="stroke: #000000; stroke-width: 0.8"/>
      </g>
     </g>
    </g>
    <g id="xtick_7">
     <g id="line2d_13">
      <g>
       <use xlink:href="#m39ad296ce8" x="264.444886" y="94.87875" style="stroke: #000000; stroke-width: 0.8"/>
      </g>
     </g>
    </g>
    <g id="xtick_8">
     <g id="line2d_14">
      <g>
       <use xlink:href="#m39ad296ce8" x="302.490341" y="94.87875" style="stroke: #000000; stroke-width: 0.8"/>
      </g>
     </g>
    </g>
    <g id="xtick_9">
     <g id="line2d_15">
      <g>
       <use xlink:href="#m39ad296ce8" x="340.535795" y="94.87875" style="stroke: #000000; stroke-width: 0.8"/>
      </g>
     </g>
    </g>
    <g id="xtick_10">
     <g id="line2d_16">
      <g>
       <use xlink:href="#m39ad296ce8" x="378.58125" y="94.87875" style="stroke: #000000; stroke-width: 0.8"/>
      </g>
     </g>
    </g>
   </g>
   <g id="matplotlib.axis_4">
    <g id="ytick_3">
     <g id="line2d_17">
      <g>
       <use xlink:href="#m6e3efac6a8" x="226.399432" y="68.346758" style="stroke: #000000; stroke-width: 0.8"/>
      </g>
     </g>
    </g>
    <g id="ytick_4">
     <g id="line2d_18">
      <g>
       <use xlink:href="#m6e3efac6a8" x="226.399432" y="39.667863" style="stroke: #000000; stroke-width: 0.8"/>
      </g>
     </g>
    </g>
   </g>
   <g id="line2d_19">
    <path d="M 226.399432 50.856481 
L 227.160341 47.488053 
L 227.540795 48.824059 
L 227.92125 45.122993 
L 228.301705 46.827452 
L 228.682159 45.276913 
L 229.062614 48.606398 
L 229.443068 50.402422 
L 229.823523 50.394065 
L 230.203977 51.929178 
L 230.584432 54.138387 
L 230.964886 54.254273 
L 231.345341 55.125521 
L 232.10625 53.404497 
L 232.486705 51.435883 
L 233.247614 49.187461 
L 233.628068 48.645716 
L 234.008523 47.775042 
L 234.388977 48.65769 
L 234.769432 47.587164 
L 235.149886 49.88157 
L 235.530341 51.473094 
L 235.910795 52.402001 
L 236.29125 55.481489 
L 237.052159 56.116729 
L 237.432614 58.187948 
L 237.813068 56.259697 
L 238.193523 57.335276 
L 238.573977 55.109636 
L 238.954432 54.088558 
L 239.715341 47.649727 
L 240.095795 46.243526 
L 240.47625 43.205539 
L 240.856705 42.135206 
L 241.237159 42.860475 
L 241.617614 44.264843 
L 241.998068 46.306304 
L 242.758977 53.921543 
L 243.139432 56.608684 
L 243.519886 57.479295 
L 243.900341 61.53339 
L 244.280795 59.397259 
L 244.66125 60.643191 
L 245.041705 59.707456 
L 245.422159 56.606969 
L 246.943977 48.11877 
L 247.324432 49.427047 
L 247.704886 45.625513 
L 248.085341 45.956029 
L 248.84625 48.30344 
L 249.226705 47.086904 
L 249.607159 49.331922 
L 249.987614 52.556852 
L 250.368068 53.850655 
L 250.748523 57.733416 
L 251.128977 57.522179 
L 251.509432 60.144758 
L 251.889886 61.666087 
L 252.270341 59.485774 
L 252.650795 58.89371 
L 253.03125 59.442159 
L 253.792159 54.761107 
L 254.172614 51.402825 
L 254.553068 52.674424 
L 254.933523 52.560988 
L 255.313977 54.624291 
L 256.074886 54.27551 
L 256.455341 54.635903 
L 257.21625 58.145575 
L 257.977159 58.549474 
L 258.357614 61.363224 
L 258.738068 60.384556 
L 259.118523 60.278579 
L 259.498977 58.65133 
L 259.879432 58.968395 
L 260.259886 57.655639 
L 260.640341 56.760708 
L 261.020795 56.69744 
L 261.40125 54.673863 
L 261.781705 53.895732 
L 262.162159 56.013448 
L 262.542614 54.266031 
L 262.923068 58.302807 
L 263.303523 58.672914 
L 263.683977 60.235277 
L 264.064432 62.770047 
L 264.444886 63.131653 
L 264.825341 66.539165 
L 265.205795 63.647328 
L 265.58625 67.718648 
L 265.966705 64.900851 
L 266.347159 64.531092 
L 266.727614 62.416835 
L 267.108068 62.091963 
L 267.488523 61.361116 
L 267.868977 59.432056 
L 268.249432 58.911502 
L 268.629886 57.163205 
L 269.390795 61.842419 
L 269.77125 60.104343 
L 270.151705 61.094115 
L 270.912614 64.536308 
L 271.293068 65.735562 
L 271.673523 67.851875 
L 272.053977 67.838606 
L 272.434432 69.330987 
L 273.575795 67.186459 
L 273.95625 65.737813 
L 274.336705 65.870103 
L 274.717159 63.122843 
L 275.097614 63.235445 
L 275.478068 64.686907 
L 275.858523 62.134918 
L 276.238977 63.254637 
L 276.619432 65.653675 
L 276.999886 65.534718 
L 277.760795 69.67682 
L 278.14125 69.01469 
L 278.521705 71.517944 
L 278.902159 71.768389 
L 279.282614 71.640727 
L 279.663068 71.752406 
L 280.043523 72.857341 
L 280.423977 69.298519 
L 280.804432 71.155572 
L 281.184886 70.039318 
L 281.565341 70.547849 
L 281.945795 67.677252 
L 282.706705 69.21597 
L 283.087159 66.064096 
L 283.467614 65.642316 
L 283.848068 65.027632 
L 284.228523 67.264503 
L 284.989432 64.985672 
L 285.750341 69.141783 
L 286.130795 68.500351 
L 286.51125 68.515955 
L 286.891705 72.156368 
L 287.652614 70.614714 
L 288.033068 71.643615 
L 289.935341 62.051268 
L 290.315795 61.551647 
L 290.69625 60.259763 
L 291.076705 62.534636 
L 291.457159 63.561779 
L 292.978977 73.680434 
L 293.359432 74.003269 
L 293.739886 74.071212 
L 294.500795 72.752126 
L 294.88125 68.772451 
L 295.261705 68.247266 
L 295.642159 65.434832 
L 296.022614 60.667049 
L 296.403068 60.486366 
L 296.783523 57.082305 
L 297.163977 59.271626 
L 297.544432 59.771284 
L 297.924886 60.624848 
L 298.685795 63.550921 
L 299.06625 66.001762 
L 299.446705 65.990185 
L 299.827159 68.755192 
L 300.207614 68.78141 
L 300.588068 69.13609 
L 300.968523 66.761868 
L 301.729432 63.263777 
L 302.109886 62.71379 
L 302.490341 59.183329 
L 302.870795 60.311677 
L 303.631705 57.384534 
L 304.012159 59.336417 
L 304.392614 58.876594 
L 304.773068 61.568803 
L 305.153523 62.277599 
L 305.533977 65.07308 
L 305.914432 66.144741 
L 306.294886 68.732968 
L 306.675341 68.621777 
L 307.055795 70.494736 
L 307.43625 69.22453 
L 307.816705 68.483683 
L 308.197159 68.237021 
L 308.577614 64.706013 
L 309.338523 63.421416 
L 309.718977 61.360513 
L 310.099432 60.546618 
L 310.479886 60.658546 
L 310.860341 59.446194 
L 311.240795 59.553697 
L 311.62125 59.503724 
L 312.001705 59.911613 
L 312.382159 61.43739 
L 312.762614 61.908983 
L 313.143068 59.759451 
L 313.523523 64.347027 
L 313.903977 63.724202 
L 314.284432 64.403026 
L 314.664886 64.610546 
L 315.045341 63.820408 
L 315.425795 64.440446 
L 315.80625 62.723309 
L 316.186705 62.393174 
L 316.567159 61.518342 
L 316.947614 61.873828 
L 317.328068 60.735569 
L 317.708523 61.354273 
L 318.088977 60.532884 
L 318.469432 63.283818 
L 318.849886 61.096848 
L 319.230341 63.518256 
L 319.610795 61.982252 
L 319.99125 63.809923 
L 320.371705 63.730784 
L 320.752159 64.991609 
L 321.132614 62.241954 
L 321.513068 64.52607 
L 321.893523 64.204482 
L 322.654432 60.849011 
L 323.034886 60.758019 
L 323.415341 56.959292 
L 323.795795 59.18924 
L 324.17625 58.718318 
L 324.556705 59.653181 
L 324.937159 57.908888 
L 325.317614 59.757182 
L 325.698068 60.294636 
L 326.078523 62.908118 
L 326.458977 60.446262 
L 326.839432 63.011205 
L 327.219886 63.911561 
L 327.600341 65.138903 
L 327.980795 65.366579 
L 328.36125 64.363954 
L 329.122159 63.867459 
L 329.502614 61.890061 
L 329.883068 60.770973 
L 330.263523 60.385259 
L 331.024432 57.652338 
L 331.404886 60.053433 
L 331.785341 59.229801 
L 332.165795 61.803017 
L 332.54625 62.368634 
L 333.307159 66.739149 
L 333.687614 67.701297 
L 334.448523 70.972784 
L 334.828977 70.001559 
L 335.209432 70.256159 
L 335.589886 68.34576 
L 335.970341 68.552323 
L 336.350795 66.845914 
L 336.73125 64.422553 
L 337.111705 63.828467 
L 337.492159 60.26153 
L 337.872614 62.17929 
L 338.253068 59.067128 
L 338.633523 62.738345 
L 339.013977 61.843013 
L 339.774886 63.165996 
L 340.155341 65.98132 
L 340.535795 66.741781 
L 340.91625 66.414959 
L 341.296705 70.377981 
L 341.677159 70.313471 
L 342.438068 69.776315 
L 342.818523 68.81614 
L 343.198977 67.199247 
L 343.579432 68.405243 
L 343.959886 65.074855 
L 344.340341 67.037203 
L 344.720795 63.627385 
L 345.10125 64.630751 
L 345.481705 64.223063 
L 345.862159 64.431584 
L 346.242614 62.848375 
L 346.623068 66.192339 
L 347.003523 65.890985 
L 347.764432 69.715215 
L 348.144886 70.430269 
L 348.525341 71.957902 
L 348.905795 72.692953 
L 349.28625 71.860586 
L 349.666705 71.305368 
L 350.047159 71.138305 
L 350.427614 68.219874 
L 350.808068 68.688416 
L 351.188523 66.394603 
L 351.568977 66.759189 
L 351.949432 68.161128 
L 352.329886 68.245467 
L 352.710341 69.759455 
L 353.090795 70.0673 
L 353.47125 72.777051 
L 353.851705 74.420335 
L 354.232159 72.503277 
L 354.612614 75.939502 
L 354.993068 76.285868 
L 355.373523 75.049831 
L 355.753977 73.393524 
L 356.134432 72.926732 
L 356.514886 71.016336 
L 356.895341 71.359519 
L 357.275795 69.555795 
L 357.65625 69.50641 
L 358.036705 67.219643 
L 358.417159 68.185546 
L 358.797614 66.218145 
L 359.178068 69.114094 
L 359.558523 68.288684 
L 359.938977 70.333013 
L 360.319432 71.568135 
L 360.699886 73.304823 
L 361.080341 74.093737 
L 361.84125 77.138518 
L 362.221705 75.935125 
L 362.602159 76.086891 
L 362.982614 77.01151 
L 363.363068 75.4008 
L 363.743523 75.003784 
L 364.123977 73.589547 
L 364.504432 74.604708 
L 364.884886 73.966551 
L 365.265341 72.012013 
L 365.645795 71.914726 
L 366.02625 73.729274 
L 366.406705 74.773925 
L 366.787159 71.896592 
L 367.167614 72.196154 
L 367.548068 74.365994 
L 368.308977 72.147518 
L 368.689432 75.640364 
L 369.069886 75.481451 
L 369.450341 76.826181 
L 369.830795 75.862307 
L 370.21125 77.867148 
L 370.591705 75.275803 
L 370.972159 77.71626 
L 371.352614 76.116597 
L 371.733068 75.821772 
L 372.113523 76.886837 
L 372.493977 74.577343 
L 372.874432 74.637784 
L 373.254886 76.094953 
L 373.635341 76.410171 
L 374.015795 74.979975 
L 374.39625 77.04396 
L 374.776705 77.732607 
L 375.157159 77.548832 
L 375.537614 77.091837 
L 375.918068 80.118653 
L 376.298523 80.065798 
L 376.678977 78.59916 
L 377.059432 80.580332 
L 377.439886 79.388529 
L 377.820341 80.357755 
L 378.200795 78.56582 
L 378.200795 78.56582 
" clip-path="url(#p4b754e96e1)" style="fill: none; stroke: #1f77b4; stroke-linecap: square"/>
   </g>
   <g id="line2d_20">
    <path d="M 226.399432 50.856481 
L 226.779886 49.092175 
L 227.160341 49.673666 
L 227.540795 48.8511 
L 227.92125 51.419525 
L 228.301705 49.064242 
L 228.682159 48.987222 
L 229.443068 54.390062 
L 229.823523 56.692854 
L 230.203977 56.261865 
L 230.584432 59.012727 
L 230.964886 58.133355 
L 231.345341 57.949933 
L 231.725795 58.289397 
L 232.10625 57.055533 
L 232.486705 54.302204 
L 233.247614 51.085247 
L 234.008523 50.393864 
L 234.388977 50.667163 
L 234.769432 50.142012 
L 235.149886 53.04271 
L 235.530341 54.573395 
L 236.29125 58.29615 
L 236.671705 59.429225 
L 237.052159 58.910048 
L 237.432614 61.008147 
L 237.813068 59.569304 
L 238.193523 60.159043 
L 238.573977 57.424728 
L 238.954432 57.303192 
L 239.334886 53.951223 
L 239.715341 52.025088 
L 240.095795 51.351817 
L 240.47625 48.878162 
L 240.856705 49.257156 
L 241.237159 50.215003 
L 241.617614 48.736844 
L 241.998068 50.494587 
L 242.378523 50.325855 
L 243.139432 51.850927 
L 243.519886 54.52635 
L 243.900341 54.919982 
L 244.280795 54.75624 
L 244.66125 56.993985 
L 245.041705 55.840767 
L 245.422159 55.203504 
L 245.802614 55.943188 
L 246.183068 53.962637 
L 246.563523 54.314017 
L 246.943977 52.77891 
L 247.324432 53.193031 
L 248.085341 50.592555 
L 249.226705 50.858027 
L 249.607159 51.307296 
L 249.987614 52.463675 
L 250.748523 55.808047 
L 251.128977 56.472124 
L 251.509432 58.761893 
L 251.889886 59.226528 
L 252.270341 58.795774 
L 252.650795 60.369442 
L 253.03125 56.426011 
L 253.411705 57.069546 
L 253.792159 52.853349 
L 254.172614 51.250609 
L 254.553068 48.499339 
L 254.933523 48.699624 
L 255.313977 49.89587 
L 255.694432 49.437363 
L 256.835795 55.042111 
L 257.21625 58.751373 
L 257.596705 58.744017 
L 257.977159 62.395796 
L 258.357614 60.663114 
L 258.738068 61.010786 
L 259.498977 57.760982 
L 259.879432 57.365741 
L 260.259886 53.824732 
L 260.640341 52.43696 
L 261.020795 51.751168 
L 261.40125 48.251594 
L 261.781705 50.182788 
L 262.162159 49.857847 
L 262.542614 49.237371 
L 263.303523 54.223082 
L 263.683977 53.465956 
L 264.064432 59.07005 
L 264.444886 58.092381 
L 264.825341 61.066873 
L 265.205795 61.107049 
L 265.58625 61.703146 
L 266.347159 60.505532 
L 266.727614 59.357571 
L 267.108068 57.538242 
L 267.488523 55.059287 
L 267.868977 55.162852 
L 268.249432 52.401361 
L 268.629886 51.596778 
L 269.010341 49.26422 
L 269.390795 48.343524 
L 269.77125 50.475436 
L 270.151705 50.134286 
L 270.912614 56.559205 
L 271.293068 55.292363 
L 272.053977 61.619188 
L 272.434432 60.403943 
L 272.814886 61.726972 
L 273.195341 60.729902 
L 273.575795 60.429525 
L 273.95625 58.434452 
L 274.336705 58.882823 
L 274.717159 55.693171 
L 275.097614 53.956248 
L 275.478068 53.074876 
L 275.858523 53.086417 
L 276.238977 49.832028 
L 276.619432 51.296699 
L 276.999886 51.770417 
L 277.380341 53.310795 
L 277.760795 53.621172 
L 278.14125 57.044638 
L 278.521705 58.030045 
L 279.663068 64.36022 
L 280.043523 63.293305 
L 280.423977 63.16384 
L 280.804432 62.571732 
L 281.184886 58.963738 
L 281.565341 56.835689 
L 281.945795 56.268194 
L 282.32625 53.052355 
L 282.706705 51.078071 
L 283.087159 50.722871 
L 283.467614 49.012669 
L 283.848068 52.866332 
L 284.228523 52.961211 
L 284.608977 57.774392 
L 284.989432 60.335567 
L 285.369886 61.574636 
L 285.750341 64.358017 
L 286.130795 65.400997 
L 286.51125 65.51474 
L 286.891705 65.174749 
L 287.272159 62.179385 
L 287.652614 61.928525 
L 288.033068 55.410202 
L 288.413523 54.75394 
L 288.793977 52.502041 
L 289.554886 49.851607 
L 289.935341 50.193307 
L 290.315795 50.804796 
L 290.69625 51.786474 
L 291.076705 53.748268 
L 291.457159 57.307394 
L 291.837614 55.981497 
L 292.218068 59.841607 
L 292.598523 59.255546 
L 292.978977 60.525748 
L 293.359432 58.687789 
L 293.739886 58.886832 
L 294.120341 56.757252 
L 294.500795 55.715557 
L 294.88125 55.826757 
L 295.261705 52.442068 
L 295.642159 50.430289 
L 296.022614 49.311675 
L 296.783523 53.205317 
L 297.163977 51.559495 
L 297.544432 55.67132 
L 297.924886 56.771555 
L 298.305341 56.6236 
L 299.06625 62.642414 
L 299.446705 60.040719 
L 299.827159 62.155421 
L 300.588068 60.232676 
L 300.968523 57.800631 
L 301.348977 58.217117 
L 301.729432 53.352328 
L 302.490341 52.279605 
L 302.870795 50.8442 
L 303.25125 50.320997 
L 304.773068 55.83512 
L 305.914432 63.363126 
L 306.294886 62.136214 
L 306.675341 63.202705 
L 307.055795 64.663043 
L 307.43625 60.883147 
L 307.816705 61.858233 
L 308.197159 60.115075 
L 308.577614 57.600845 
L 308.958068 53.959813 
L 309.338523 54.951945 
L 310.099432 49.982692 
L 310.479886 52.485895 
L 310.860341 54.237258 
L 311.240795 52.842119 
L 311.62125 57.992289 
L 312.382159 63.709157 
L 312.762614 64.647129 
L 313.143068 68.383476 
L 313.523523 65.555857 
L 313.903977 67.757559 
L 314.284432 66.367218 
L 314.664886 65.950952 
L 315.045341 62.374031 
L 315.425795 60.592507 
L 315.80625 57.10951 
L 316.186705 56.218253 
L 316.947614 52.182168 
L 317.328068 54.842581 
L 317.708523 55.478403 
L 318.088977 57.851914 
L 318.469432 58.513003 
L 318.849886 60.86584 
L 319.230341 64.016116 
L 319.610795 63.613218 
L 319.99125 65.598844 
L 320.371705 65.246518 
L 320.752159 66.825535 
L 321.132614 63.118817 
L 321.513068 63.552183 
L 321.893523 62.628651 
L 322.273977 62.145498 
L 322.654432 58.963514 
L 323.034886 60.587474 
L 323.415341 56.689074 
L 323.795795 57.315897 
L 324.17625 55.244515 
L 324.556705 58.782269 
L 324.937159 59.536584 
L 325.317614 56.991573 
L 325.698068 58.862662 
L 326.078523 58.196661 
L 326.458977 60.939255 
L 326.839432 62.039237 
L 327.219886 62.496811 
L 327.600341 64.497067 
L 328.36125 62.025462 
L 328.741705 64.961172 
L 329.122159 62.114416 
L 329.502614 60.746791 
L 329.883068 62.785436 
L 330.263523 58.423083 
L 330.643977 59.641085 
L 331.024432 58.105763 
L 331.404886 57.057222 
L 331.785341 58.503958 
L 332.165795 57.627026 
L 332.926705 62.531163 
L 333.307159 62.441768 
L 334.068068 67.075968 
L 334.448523 67.169346 
L 334.828977 66.301836 
L 335.209432 67.587998 
L 335.589886 67.903793 
L 336.350795 63.645243 
L 337.111705 60.525069 
L 337.492159 60.935934 
L 337.872614 55.629397 
L 338.253068 55.424148 
L 338.633523 55.792276 
L 339.013977 58.045405 
L 339.394432 56.498721 
L 339.774886 58.506697 
L 340.155341 59.801073 
L 340.535795 64.513956 
L 340.91625 65.5177 
L 341.296705 64.915383 
L 341.677159 68.885907 
L 342.057614 68.124933 
L 342.438068 66.440768 
L 342.818523 66.391308 
L 343.198977 65.215103 
L 343.579432 60.098364 
L 343.959886 60.57688 
L 344.340341 55.694023 
L 345.10125 52.096986 
L 345.481705 49.954191 
L 345.862159 52.030299 
L 346.242614 49.725414 
L 346.623068 50.790138 
L 347.003523 52.195705 
L 347.383977 54.870058 
L 347.764432 54.224522 
L 348.525341 59.093034 
L 348.905795 57.882171 
L 349.28625 59.157022 
L 349.666705 56.442849 
L 350.047159 56.387969 
L 350.427614 54.555505 
L 350.808068 51.682232 
L 351.188523 50.32293 
L 351.568977 50.666598 
L 351.949432 49.321655 
L 352.329886 49.360919 
L 352.710341 50.990557 
L 353.090795 53.395478 
L 353.47125 53.501509 
L 354.993068 59.739252 
L 355.373523 60.328564 
L 355.753977 60.590362 
L 356.134432 60.195795 
L 356.514886 56.372078 
L 356.895341 56.270921 
L 357.65625 51.262227 
L 358.036705 49.783586 
L 358.417159 46.699383 
L 358.797614 48.892742 
L 359.178068 48.665792 
L 359.558523 46.67697 
L 359.938977 51.971209 
L 360.319432 52.077826 
L 360.699886 52.464678 
L 361.080341 57.579215 
L 361.460795 55.553112 
L 361.84125 57.325806 
L 362.221705 59.774596 
L 362.602159 57.255273 
L 362.982614 57.450444 
L 363.363068 57.338975 
L 364.123977 52.202419 
L 364.504432 52.011388 
L 365.265341 49.104917 
L 365.645795 49.108017 
L 366.02625 51.398463 
L 366.406705 51.97868 
L 366.787159 54.647125 
L 367.167614 54.627041 
L 367.928523 57.911251 
L 368.308977 58.191848 
L 368.689432 61.212897 
L 369.069886 60.566358 
L 369.450341 58.434116 
L 369.830795 60.534994 
L 370.21125 57.56528 
L 370.591705 57.40175 
L 370.972159 56.939478 
L 371.733068 52.000106 
L 372.493977 50.720331 
L 372.874432 47.49156 
L 373.254886 50.617112 
L 373.635341 49.296618 
L 374.015795 51.102569 
L 374.39625 53.650015 
L 374.776705 54.213391 
L 375.157159 58.849536 
L 375.537614 59.145057 
L 375.918068 61.254106 
L 376.298523 61.472585 
L 376.678977 61.535463 
L 377.059432 59.336489 
L 377.439886 57.921392 
L 378.200795 53.002697 
L 378.200795 53.002697 
" clip-path="url(#p4b754e96e1)" style="fill: none; stroke: #ff7f0e; stroke-linecap: square"/>
   </g>
   <g id="patch_9">
    <path d="M 226.399432 94.87875 
L 226.399432 19.27875 
" style="fill: none; stroke: #000000; stroke-width: 0.8; stroke-linejoin: miter; stroke-linecap: square"/>
   </g>
   <g id="patch_10">
    <path d="M 378.58125 94.87875 
L 378.58125 19.27875 
" style="fill: none; stroke: #000000; stroke-width: 0.8; stroke-linejoin: miter; stroke-linecap: square"/>
   </g>
   <g id="patch_11">
    <path d="M 226.399432 94.87875 
L 378.58125 94.87875 
" style="fill: none; stroke: #000000; stroke-width: 0.8; stroke-linejoin: miter; stroke-linecap: square"/>
   </g>
   <g id="patch_12">
    <path d="M 226.399432 19.27875 
L 378.58125 19.27875 
" style="fill: none; stroke: #000000; stroke-width: 0.8; stroke-linejoin: miter; stroke-linecap: square"/>
   </g>
   <g id="text_7">
    <!-- eps. 4 -->
    <g transform="translate(290.318466 13.27875)scale(0.08 -0.08)">
     <defs>
      <path id="DejaVuSans-34" d="M 2419 4116 
L 825 1625 
L 2419 1625 
L 2419 4116 
z
M 2253 4666 
L 3047 4666 
L 3047 1625 
L 3713 1625 
L 3713 1100 
L 3047 1100 
L 3047 0 
L 2419 0 
L 2419 1100 
L 313 1100 
L 313 1709 
L 2253 4666 
z
" transform="scale(0.015625)"/>
     </defs>
     <use xlink:href="#DejaVuSans-65"/>
     <use xlink:href="#DejaVuSans-70" x="61.523438"/>
     <use xlink:href="#DejaVuSans-73" x="125"/>
     <use xlink:href="#DejaVuSans-2e" x="177.099609"/>
     <use xlink:href="#DejaVuSans-20" x="208.886719"/>
     <use xlink:href="#DejaVuSans-34" x="240.673828"/>
    </g>
   </g>
  </g>
  <g id="axes_3">
   <g id="patch_13">
    <path d="M 43.78125 185.59875 
L 195.963068 185.59875 
L 195.963068 109.99875 
L 43.78125 109.99875 
z
" style="fill: #ffffff"/>
   </g>
   <g id="matplotlib.axis_5">
    <g id="xtick_11">
     <g id="line2d_21">
      <g>
       <use xlink:href="#m39ad296ce8" x="43.78125" y="185.59875" style="stroke: #000000; stroke-width: 0.8"/>
      </g>
     </g>
     <g id="text_8">
      <!-- 0 -->
      <g transform="translate(40.6 200.197188)scale(0.1 -0.1)">
       <use xlink:href="#DejaVuSans-30"/>
      </g>
     </g>
    </g>
    <g id="xtick_12">
     <g id="line2d_22">
      <g>
       <use xlink:href="#m39ad296ce8" x="81.826705" y="185.59875" style="stroke: #000000; stroke-width: 0.8"/>
      </g>
     </g>
     <g id="text_9">
      <!-- 100 -->
      <g transform="translate(72.282955 200.197188)scale(0.1 -0.1)">
       <use xlink:href="#DejaVuSans-31"/>
       <use xlink:href="#DejaVuSans-30" x="63.623047"/>
       <use xlink:href="#DejaVuSans-30" x="127.246094"/>
      </g>
     </g>
    </g>
    <g id="xtick_13">
     <g id="line2d_23">
      <g>
       <use xlink:href="#m39ad296ce8" x="119.872159" y="185.59875" style="stroke: #000000; stroke-width: 0.8"/>
      </g>
     </g>
     <g id="text_10">
      <!-- 200 -->
      <g transform="translate(110.328409 200.197188)scale(0.1 -0.1)">
       <use xlink:href="#DejaVuSans-32"/>
       <use xlink:href="#DejaVuSans-30" x="63.623047"/>
       <use xlink:href="#DejaVuSans-30" x="127.246094"/>
      </g>
     </g>
    </g>
    <g id="xtick_14">
     <g id="line2d_24">
      <g>
       <use xlink:href="#m39ad296ce8" x="157.917614" y="185.59875" style="stroke: #000000; stroke-width: 0.8"/>
      </g>
     </g>
     <g id="text_11">
      <!-- 300 -->
      <g transform="translate(148.373864 200.197188)scale(0.1 -0.1)">
       <use xlink:href="#DejaVuSans-33"/>
       <use xlink:href="#DejaVuSans-30" x="63.623047"/>
       <use xlink:href="#DejaVuSans-30" x="127.246094"/>
      </g>
     </g>
    </g>
    <g id="xtick_15">
     <g id="line2d_25">
      <g>
       <use xlink:href="#m39ad296ce8" x="195.963068" y="185.59875" style="stroke: #000000; stroke-width: 0.8"/>
      </g>
     </g>
     <g id="text_12">
      <!-- 400 -->
      <g transform="translate(186.419318 200.197188)scale(0.1 -0.1)">
       <use xlink:href="#DejaVuSans-34"/>
       <use xlink:href="#DejaVuSans-30" x="63.623047"/>
       <use xlink:href="#DejaVuSans-30" x="127.246094"/>
      </g>
     </g>
    </g>
    <g id="text_13">
     <!-- interaction -->
     <g transform="translate(92.831534 213.875313)scale(0.1 -0.1)">
      <defs>
       <path id="DejaVuSans-69" d="M 603 3500 
L 1178 3500 
L 1178 0 
L 603 0 
L 603 3500 
z
M 603 4863 
L 1178 4863 
L 1178 4134 
L 603 4134 
L 603 4863 
z
" transform="scale(0.015625)"/>
       <path id="DejaVuSans-6e" d="M 3513 2113 
L 3513 0 
L 2938 0 
L 2938 2094 
Q 2938 2591 2744 2837 
Q 2550 3084 2163 3084 
Q 1697 3084 1428 2787 
Q 1159 2491 1159 1978 
L 1159 0 
L 581 0 
L 581 3500 
L 1159 3500 
L 1159 2956 
Q 1366 3272 1645 3428 
Q 1925 3584 2291 3584 
Q 2894 3584 3203 3211 
Q 3513 2838 3513 2113 
z
" transform="scale(0.015625)"/>
       <path id="DejaVuSans-74" d="M 1172 4494 
L 1172 3500 
L 2356 3500 
L 2356 3053 
L 1172 3053 
L 1172 1153 
Q 1172 725 1289 603 
Q 1406 481 1766 481 
L 2356 481 
L 2356 0 
L 1766 0 
Q 1100 0 847 248 
Q 594 497 594 1153 
L 594 3053 
L 172 3053 
L 172 3500 
L 594 3500 
L 594 4494 
L 1172 4494 
z
" transform="scale(0.015625)"/>
       <path id="DejaVuSans-72" d="M 2631 2963 
Q 2534 3019 2420 3045 
Q 2306 3072 2169 3072 
Q 1681 3072 1420 2755 
Q 1159 2438 1159 1844 
L 1159 0 
L 581 0 
L 581 3500 
L 1159 3500 
L 1159 2956 
Q 1341 3275 1631 3429 
Q 1922 3584 2338 3584 
Q 2397 3584 2469 3576 
Q 2541 3569 2628 3553 
L 2631 2963 
z
" transform="scale(0.015625)"/>
       <path id="DejaVuSans-61" d="M 2194 1759 
Q 1497 1759 1228 1600 
Q 959 1441 959 1056 
Q 959 750 1161 570 
Q 1363 391 1709 391 
Q 2188 391 2477 730 
Q 2766 1069 2766 1631 
L 2766 1759 
L 2194 1759 
z
M 3341 1997 
L 3341 0 
L 2766 0 
L 2766 531 
Q 2569 213 2275 61 
Q 1981 -91 1556 -91 
Q 1019 -91 701 211 
Q 384 513 384 1019 
Q 384 1609 779 1909 
Q 1175 2209 1959 2209 
L 2766 2209 
L 2766 2266 
Q 2766 2663 2505 2880 
Q 2244 3097 1772 3097 
Q 1472 3097 1187 3025 
Q 903 2953 641 2809 
L 641 3341 
Q 956 3463 1253 3523 
Q 1550 3584 1831 3584 
Q 2591 3584 2966 3190 
Q 3341 2797 3341 1997 
z
" transform="scale(0.015625)"/>
       <path id="DejaVuSans-63" d="M 3122 3366 
L 3122 2828 
Q 2878 2963 2633 3030 
Q 2388 3097 2138 3097 
Q 1578 3097 1268 2742 
Q 959 2388 959 1747 
Q 959 1106 1268 751 
Q 1578 397 2138 397 
Q 2388 397 2633 464 
Q 2878 531 3122 666 
L 3122 134 
Q 2881 22 2623 -34 
Q 2366 -91 2075 -91 
Q 1284 -91 818 406 
Q 353 903 353 1747 
Q 353 2603 823 3093 
Q 1294 3584 2113 3584 
Q 2378 3584 2631 3529 
Q 2884 3475 3122 3366 
z
" transform="scale(0.015625)"/>
       <path id="DejaVuSans-6f" d="M 1959 3097 
Q 1497 3097 1228 2736 
Q 959 2375 959 1747 
Q 959 1119 1226 758 
Q 1494 397 1959 397 
Q 2419 397 2687 759 
Q 2956 1122 2956 1747 
Q 2956 2369 2687 2733 
Q 2419 3097 1959 3097 
z
M 1959 3584 
Q 2709 3584 3137 3096 
Q 3566 2609 3566 1747 
Q 3566 888 3137 398 
Q 2709 -91 1959 -91 
Q 1206 -91 779 398 
Q 353 888 353 1747 
Q 353 2609 779 3096 
Q 1206 3584 1959 3584 
z
" transform="scale(0.015625)"/>
      </defs>
      <use xlink:href="#DejaVuSans-69"/>
      <use xlink:href="#DejaVuSans-6e" x="27.783203"/>
      <use xlink:href="#DejaVuSans-74" x="91.162109"/>
      <use xlink:href="#DejaVuSans-65" x="130.371094"/>
      <use xlink:href="#DejaVuSans-72" x="191.894531"/>
      <use xlink:href="#DejaVuSans-61" x="233.007812"/>
      <use xlink:href="#DejaVuSans-63" x="294.287109"/>
      <use xlink:href="#DejaVuSans-74" x="349.267578"/>
      <use xlink:href="#DejaVuSans-69" x="388.476562"/>
      <use xlink:href="#DejaVuSans-6f" x="416.259766"/>
      <use xlink:href="#DejaVuSans-6e" x="477.441406"/>
     </g>
    </g>
   </g>
   <g id="matplotlib.axis_6">
    <g id="ytick_5">
     <g id="line2d_26">
      <g>
       <use xlink:href="#m6e3efac6a8" x="43.78125" y="159.066758" style="stroke: #000000; stroke-width: 0.8"/>
      </g>
     </g>
     <g id="text_14">
      <!-- 3.1 -->
      <g transform="translate(20.878125 162.865977)scale(0.1 -0.1)">
       <use xlink:href="#DejaVuSans-33"/>
       <use xlink:href="#DejaVuSans-2e" x="63.623047"/>
       <use xlink:href="#DejaVuSans-31" x="95.410156"/>
      </g>
     </g>
    </g>
    <g id="ytick_6">
     <g id="line2d_27">
      <g>
       <use xlink:href="#m6e3efac6a8" x="43.78125" y="130.387863" style="stroke: #000000; stroke-width: 0.8"/>
      </g>
     </g>
     <g id="text_15">
      <!-- 3.2 -->
      <g transform="translate(20.878125 134.187081)scale(0.1 -0.1)">
       <use xlink:href="#DejaVuSans-33"/>
       <use xlink:href="#DejaVuSans-2e" x="63.623047"/>
       <use xlink:href="#DejaVuSans-32" x="95.410156"/>
      </g>
     </g>
    </g>
    <g id="text_16">
     <!-- $c_d$ -->
     <g transform="translate(14.798438 152.94875)rotate(-90)scale(0.1 -0.1)">
      <use xlink:href="#DejaVuSans-Oblique-63"/>
      <use xlink:href="#DejaVuSans-Oblique-64" transform="translate(54.980469 -16.40625)scale(0.7)"/>
     </g>
    </g>
   </g>
   <g id="line2d_28">
    <path d="M 43.78125 141.576481 
L 44.542159 138.189251 
L 44.922614 139.975949 
L 45.303068 136.248544 
L 45.683523 138.294135 
L 46.063977 136.844211 
L 46.444432 140.591134 
L 46.824886 142.409947 
L 47.205341 142.038119 
L 47.96625 144.883903 
L 48.346705 146.55339 
L 48.727159 147.22565 
L 49.107614 145.811944 
L 49.488068 142.89653 
L 49.868523 144.60718 
L 50.248977 140.08533 
L 51.009886 136.022824 
L 51.390341 133.116356 
L 51.770795 134.495251 
L 52.15125 133.952403 
L 52.531705 134.65988 
L 52.912159 137.145276 
L 53.292614 140.600168 
L 53.673068 140.453166 
L 54.053523 147.091966 
L 54.433977 147.401471 
L 54.814432 148.26499 
L 55.194886 150.608767 
L 55.575341 148.107176 
L 55.955795 148.720124 
L 56.33625 144.217271 
L 56.716705 144.077914 
L 57.097159 142.433472 
L 57.477614 140.197379 
L 57.858068 140.321994 
L 58.238523 137.475055 
L 58.618977 137.400168 
L 58.999432 136.376363 
L 59.379886 136.57955 
L 59.760341 135.784089 
L 60.140795 135.347562 
L 60.52125 137.165836 
L 60.901705 138.170334 
L 61.662614 144.555676 
L 62.043068 145.726667 
L 62.423523 144.193361 
L 62.803977 148.425096 
L 63.184432 145.977209 
L 63.564886 144.999531 
L 63.945341 141.917889 
L 64.325795 142.89331 
L 64.70625 137.480667 
L 65.467159 136.811755 
L 65.847614 137.233925 
L 66.228068 135.231645 
L 66.608523 137.292797 
L 66.988977 140.358631 
L 67.369432 142.06054 
L 67.749886 145.962112 
L 68.130341 146.30048 
L 68.510795 150.268939 
L 68.89125 148.514522 
L 69.271705 149.456526 
L 69.652159 149.887682 
L 70.032614 145.316272 
L 70.413068 142.941014 
L 70.793523 142.117299 
L 71.173977 140.473135 
L 71.934886 138.643255 
L 72.315341 137.187832 
L 72.695795 137.078821 
L 73.07625 137.467624 
L 73.456705 142.675485 
L 74.978523 151.643097 
L 75.358977 151.618932 
L 75.739432 148.95462 
L 76.119886 151.16691 
L 76.500341 149.813513 
L 77.26125 144.247252 
L 77.641705 141.281091 
L 78.022159 141.172495 
L 78.402614 138.113366 
L 78.783068 140.020757 
L 79.163523 139.487407 
L 79.543977 139.220682 
L 79.924432 143.036701 
L 80.304886 141.034065 
L 80.685341 145.242016 
L 81.065795 146.912275 
L 81.44625 147.839174 
L 81.826705 150.186436 
L 82.587614 151.231455 
L 82.968068 149.47324 
L 83.348523 148.420648 
L 83.728977 149.322992 
L 84.109432 146.641515 
L 84.489886 142.470003 
L 84.870341 143.529918 
L 85.250795 141.133564 
L 85.63125 142.712561 
L 86.011705 140.337722 
L 86.392159 139.648178 
L 86.772614 141.146079 
L 87.153068 145.519215 
L 87.533523 146.38085 
L 87.913977 149.26619 
L 88.294432 148.346639 
L 88.674886 148.705326 
L 89.055341 152.376256 
L 89.81625 149.888144 
L 90.196705 150.625894 
L 90.577159 146.4683 
L 90.957614 148.22689 
L 91.338068 143.190839 
L 91.718523 143.402308 
L 92.098977 142.752711 
L 92.479432 141.274813 
L 92.859886 139.291214 
L 93.240341 142.593179 
L 93.620795 142.706495 
L 94.00125 142.556169 
L 94.381705 146.25985 
L 94.762159 147.632451 
L 95.142614 148.565929 
L 95.523068 152.168973 
L 95.903523 152.46549 
L 96.283977 153.373461 
L 96.664432 152.827676 
L 97.044886 151.03953 
L 97.425341 150.787437 
L 97.805795 147.110079 
L 98.18625 144.741957 
L 98.566705 140.926548 
L 98.947159 142.360946 
L 99.327614 142.304801 
L 99.708068 140.196042 
L 100.088523 138.994835 
L 100.468977 138.239356 
L 100.849432 140.228702 
L 101.229886 141.08762 
L 101.610341 144.599973 
L 101.990795 144.18669 
L 102.37125 143.515538 
L 103.132159 147.158005 
L 103.893068 143.379821 
L 104.273523 145.479916 
L 105.034432 140.45437 
L 105.414886 140.218438 
L 106.175795 135.068046 
L 106.55625 132.56022 
L 106.936705 130.985614 
L 107.317159 130.373242 
L 107.697614 131.731357 
L 108.078068 131.864267 
L 108.458523 136.461172 
L 109.980341 146.983591 
L 110.360795 146.968578 
L 110.74125 148.455229 
L 111.121705 143.789815 
L 111.882614 139.150544 
L 112.263068 133.967267 
L 112.643523 133.681786 
L 113.023977 131.299998 
L 113.404432 127.374124 
L 113.784886 129.071232 
L 114.165341 128.05718 
L 114.545795 133.105555 
L 115.687159 140.809719 
L 116.448068 144.526349 
L 116.828523 142.733184 
L 117.208977 143.480226 
L 117.589432 141.128671 
L 117.969886 136.614131 
L 118.350341 136.03205 
L 118.730795 132.392618 
L 119.11125 127.610415 
L 119.872159 126.565244 
L 120.252614 124.005526 
L 120.633068 125.205041 
L 121.013523 129.08147 
L 121.393977 129.146405 
L 122.154886 135.713666 
L 122.535341 137.921594 
L 122.915795 137.431047 
L 123.29625 140.110668 
L 123.676705 139.30944 
L 124.057159 138.85001 
L 124.818068 135.666833 
L 125.578977 131.27813 
L 125.959432 127.472948 
L 126.339886 128.911817 
L 126.720341 125.306026 
L 127.100795 129.888787 
L 127.48125 130.716635 
L 127.861705 133.70269 
L 128.622614 142.218994 
L 129.003068 146.625005 
L 129.383523 145.132856 
L 129.763977 149.661443 
L 130.144432 150.243475 
L 130.524886 150.348168 
L 130.905341 147.43124 
L 131.285795 145.714409 
L 132.046705 139.573452 
L 132.427159 136.372162 
L 132.807614 136.301703 
L 133.188068 134.753258 
L 133.948977 137.412122 
L 134.329432 140.718087 
L 134.709886 142.480861 
L 135.090341 145.704114 
L 135.470795 146.76535 
L 135.85125 150.976763 
L 136.231705 148.725355 
L 136.612159 151.415579 
L 136.992614 149.228251 
L 137.373068 150.227114 
L 137.753523 148.064332 
L 138.133977 147.376314 
L 138.514432 143.658827 
L 138.894886 145.994966 
L 139.275341 145.276658 
L 139.655795 143.235099 
L 140.03625 142.719171 
L 140.416705 144.116112 
L 140.797159 142.002563 
L 141.177614 147.042076 
L 141.558068 148.811369 
L 141.938523 152.140002 
L 142.318977 151.878944 
L 142.699432 155.083194 
L 143.079886 155.647052 
L 143.460341 158.931578 
L 143.840795 156.018748 
L 144.22125 157.219009 
L 144.601705 156.102625 
L 144.982159 155.665545 
L 145.362614 154.836297 
L 145.743068 152.92441 
L 146.123523 152.228299 
L 146.503977 152.487051 
L 146.884432 151.80963 
L 147.264886 152.534561 
L 147.645341 154.171555 
L 148.40625 156.141468 
L 148.786705 159.621724 
L 149.167159 159.301696 
L 149.547614 163.349825 
L 149.928068 163.706929 
L 150.308523 163.705251 
L 150.688977 165.615458 
L 151.069432 163.905476 
L 151.449886 163.884213 
L 151.830341 162.881384 
L 152.210795 162.516649 
L 152.59125 162.448189 
L 152.971705 159.465928 
L 153.352159 159.945276 
L 153.732614 159.945617 
L 154.113068 161.151313 
L 154.493523 159.471372 
L 154.873977 162.903602 
L 155.254432 161.320346 
L 156.395795 163.408829 
L 156.77625 166.571977 
L 157.156705 167.94824 
L 157.537159 168.874705 
L 157.917614 169.060708 
L 158.298068 167.528487 
L 158.678523 170.270129 
L 159.058977 169.255805 
L 159.439432 167.796806 
L 159.819886 167.492647 
L 160.200341 166.244776 
L 160.580795 165.84696 
L 160.96125 164.825096 
L 162.102614 165.847422 
L 162.483068 167.650426 
L 162.863523 166.555919 
L 163.243977 170.711904 
L 163.624432 168.929092 
L 164.004886 172.105179 
L 164.385341 170.719762 
L 164.765795 173.535663 
L 165.14625 170.751401 
L 165.526705 173.104444 
L 165.907159 171.029939 
L 166.287614 171.69703 
L 167.048523 169.920266 
L 167.428977 171.093675 
L 168.189886 169.390378 
L 168.570341 169.629591 
L 168.950795 168.090639 
L 169.33125 168.441671 
L 169.711705 167.454811 
L 170.092159 168.409944 
L 170.472614 167.18298 
L 170.853068 168.434043 
L 171.233523 170.241771 
L 171.613977 168.885684 
L 172.374886 169.892049 
L 172.755341 170.569485 
L 173.135795 172.720287 
L 173.896705 171.456136 
L 174.277159 171.103744 
L 174.657614 171.295786 
L 175.038068 170.217314 
L 175.798977 170.993737 
L 176.179432 170.468056 
L 176.559886 170.816356 
L 176.940341 172.04128 
L 177.320795 172.640758 
L 177.70125 172.311065 
L 178.081705 173.183469 
L 178.462159 174.96259 
L 178.842614 172.520097 
L 179.223068 173.74384 
L 179.603523 175.3716 
L 179.983977 173.537174 
L 180.364432 172.314871 
L 180.744886 173.884128 
L 181.125341 171.484798 
L 181.505795 170.193634 
L 181.88625 169.611369 
L 182.266705 167.421308 
L 182.647159 166.609618 
L 183.027614 165.268283 
L 183.788523 167.255266 
L 184.168977 164.950377 
L 184.549432 166.011978 
L 184.929886 168.523211 
L 185.310341 168.996241 
L 185.690795 168.010906 
L 186.07125 171.238259 
L 186.451705 170.735025 
L 186.832159 171.308196 
L 187.212614 169.723446 
L 187.593068 170.779552 
L 187.973523 167.479572 
L 188.353977 168.990339 
L 188.734432 166.604605 
L 189.114886 165.918187 
L 189.495341 166.3366 
L 189.875795 164.219843 
L 190.25625 163.982843 
L 190.636705 165.674726 
L 191.017159 166.015678 
L 191.397614 165.473974 
L 191.778068 167.315164 
L 192.158523 168.461096 
L 192.538977 168.622185 
L 192.919432 167.868753 
L 193.299886 171.0662 
L 193.680341 170.284262 
L 194.060795 168.497916 
L 194.44125 169.745913 
L 194.821705 167.755099 
L 195.202159 167.928706 
L 195.582614 165.187612 
L 195.582614 165.187612 
" clip-path="url(#pb3444184f1)" style="fill: none; stroke: #1f77b4; stroke-linecap: square"/>
   </g>
   <g id="line2d_29">
    <path d="M 43.78125 141.576481 
L 44.161705 139.816339 
L 44.542159 140.856038 
L 44.922614 140.25424 
L 45.303068 143.032035 
L 45.683523 140.978302 
L 46.063977 141.127458 
L 47.205341 149.347266 
L 47.585795 148.307595 
L 47.96625 151.270251 
L 48.346705 149.755034 
L 48.727159 149.480542 
L 49.107614 149.971169 
L 49.488068 148.626186 
L 49.868523 145.742985 
L 50.629432 143.219076 
L 51.009886 142.97795 
L 51.390341 143.384324 
L 51.770795 144.17509 
L 52.15125 143.653478 
L 52.531705 147.354332 
L 53.292614 151.197734 
L 53.673068 153.031999 
L 54.053523 153.844673 
L 54.433977 153.272348 
L 54.814432 155.485369 
L 55.194886 153.7011 
L 55.575341 154.363107 
L 55.955795 151.618818 
L 56.33625 151.538588 
L 56.716705 148.501261 
L 57.097159 146.657584 
L 57.477614 146.407366 
L 57.858068 144.093346 
L 58.238523 144.596136 
L 58.618977 145.994393 
L 58.999432 145.115422 
L 59.379886 147.480218 
L 59.760341 147.59319 
L 60.140795 148.586842 
L 60.52125 149.07964 
L 60.901705 151.921374 
L 61.282159 151.944725 
L 61.662614 151.166087 
L 62.043068 153.40935 
L 62.423523 151.688527 
L 62.803977 151.014215 
L 63.184432 151.724562 
L 63.564886 149.938277 
L 63.945341 150.629608 
L 64.325795 149.570964 
L 64.70625 150.55555 
L 65.467159 149.246422 
L 66.228068 150.423183 
L 66.988977 151.239545 
L 67.369432 152.38455 
L 68.130341 155.43675 
L 68.510795 155.753569 
L 68.89125 158.125494 
L 69.271705 158.475093 
L 69.652159 157.712624 
L 70.032614 159.598124 
L 70.413068 155.931713 
L 70.793523 157.331817 
L 71.173977 154.231238 
L 71.554432 153.529695 
L 71.934886 151.542483 
L 72.315341 151.818839 
L 72.695795 153.268178 
L 73.07625 152.98426 
L 73.837159 155.74732 
L 74.217614 157.084579 
L 74.598068 160.204725 
L 74.978523 159.971374 
L 75.358977 162.989197 
L 75.739432 161.102561 
L 76.119886 161.414407 
L 76.500341 159.766044 
L 76.880795 158.735692 
L 77.26125 159.240441 
L 77.641705 156.656291 
L 78.022159 156.360446 
L 78.402614 155.855734 
L 78.783068 153.269394 
L 79.163523 155.363625 
L 79.543977 155.18207 
L 79.924432 154.801183 
L 80.685341 158.938131 
L 81.065795 157.649513 
L 81.44625 162.883856 
L 81.826705 161.32215 
L 82.207159 164.451112 
L 82.587614 164.101126 
L 82.968068 164.876056 
L 83.348523 164.384517 
L 83.728977 164.36445 
L 84.489886 162.603526 
L 84.870341 160.668268 
L 85.250795 161.553718 
L 85.63125 159.431178 
L 86.011705 159.913543 
L 86.392159 158.132334 
L 86.772614 157.199831 
L 87.153068 159.333484 
L 87.533523 158.862777 
L 87.913977 160.476372 
L 88.294432 163.330513 
L 88.674886 161.686894 
L 89.435795 166.283278 
L 89.81625 164.747328 
L 90.196705 165.718177 
L 90.577159 164.809879 
L 90.957614 164.803814 
L 91.338068 163.451713 
L 91.718523 164.520002 
L 92.098977 162.119377 
L 92.479432 161.430826 
L 92.859886 161.827455 
L 93.240341 162.015462 
L 93.620795 159.711084 
L 94.00125 161.572758 
L 94.381705 161.8235 
L 94.762159 162.86492 
L 95.142614 163.034323 
L 95.523068 165.67534 
L 95.903523 165.889769 
L 97.044886 170.729209 
L 97.425341 170.172443 
L 98.18625 170.702472 
L 98.566705 168.398191 
L 98.947159 167.195166 
L 99.327614 167.413765 
L 100.088523 163.786823 
L 100.468977 164.039908 
L 100.849432 161.931069 
L 101.229886 164.593764 
L 101.610341 163.805911 
L 101.990795 166.655862 
L 102.37125 167.955042 
L 102.751705 168.468248 
L 103.132159 170.254691 
L 103.893068 171.54502 
L 104.273523 171.997327 
L 104.653977 170.359303 
L 105.034432 171.283796 
L 105.414886 166.733998 
L 105.795341 167.936484 
L 106.175795 166.443848 
L 106.936705 164.089156 
L 107.317159 164.238917 
L 107.697614 164.565879 
L 108.078068 164.561018 
L 108.838977 167.913079 
L 109.219432 166.685307 
L 109.599886 169.214069 
L 109.980341 169.189729 
L 110.360795 170.519586 
L 110.74125 169.360385 
L 111.121705 170.400489 
L 111.502159 168.792062 
L 111.882614 168.386731 
L 112.263068 169.621891 
L 112.643523 167.39266 
L 113.404432 165.215442 
L 114.165341 167.864167 
L 114.545795 165.598664 
L 114.92625 168.790556 
L 115.306705 167.076874 
L 116.067614 168.967255 
L 116.448068 169.464702 
L 117.208977 169.625456 
L 117.589432 172.301349 
L 117.969886 169.149621 
L 118.350341 168.169279 
L 118.730795 170.132066 
L 119.11125 166.682299 
L 119.491705 167.968194 
L 119.872159 167.786264 
L 120.252614 166.514022 
L 120.633068 166.114216 
L 121.013523 166.872497 
L 121.393977 166.90902 
L 121.774432 167.647802 
L 122.154886 168.13181 
L 122.915795 170.249233 
L 123.29625 172.199636 
L 123.676705 171.079886 
L 124.057159 171.787205 
L 124.437614 173.750218 
L 124.818068 170.659712 
L 125.198523 172.424918 
L 125.959432 170.708595 
L 126.339886 168.146795 
L 126.720341 169.86409 
L 127.48125 165.960138 
L 128.242159 168.589348 
L 128.622614 166.530341 
L 129.003068 169.469165 
L 129.763977 172.168001 
L 130.144432 172.2868 
L 130.524886 175.029698 
L 130.905341 172.597975 
L 131.285795 174.808986 
L 131.66625 174.462269 
L 132.046705 174.944184 
L 132.427159 172.742215 
L 132.807614 172.178841 
L 133.188068 170.1969 
L 133.568523 170.511169 
L 133.948977 169.295732 
L 134.329432 167.677975 
L 134.709886 169.678337 
L 135.090341 168.908879 
L 135.470795 169.56901 
L 135.85125 169.419014 
L 136.612159 172.893491 
L 136.992614 171.864598 
L 137.373068 173.810765 
L 137.753523 173.488492 
L 138.133977 175.052644 
L 138.514432 172.636511 
L 138.894886 173.571563 
L 139.275341 173.252221 
L 139.655795 173.57121 
L 140.03625 170.746038 
L 140.416705 173.475469 
L 140.797159 170.056308 
L 141.177614 171.325699 
L 141.558068 169.074012 
L 141.938523 171.425059 
L 142.318977 172.080742 
L 142.699432 170.082219 
L 143.079886 171.251555 
L 143.460341 170.175179 
L 143.840795 171.915773 
L 144.22125 172.182265 
L 144.601705 172.059055 
L 144.982159 173.504004 
L 145.362614 172.083498 
L 145.743068 171.12209 
L 146.123523 174.125937 
L 146.503977 171.991321 
L 146.884432 171.739446 
L 147.264886 173.97424 
L 147.645341 170.500888 
L 148.025795 172.208429 
L 148.786705 170.480351 
L 149.167159 171.445556 
L 149.547614 170.370029 
L 149.928068 171.835713 
L 150.308523 172.853974 
L 150.688977 172.198217 
L 151.449886 175.244357 
L 151.830341 175.328994 
L 152.210795 174.414906 
L 152.971705 176.546178 
L 153.352159 175.344547 
L 154.113068 173.866239 
L 154.493523 172.806674 
L 154.873977 174.329173 
L 155.254432 170.243773 
L 155.634886 170.041991 
L 156.015341 169.648244 
L 156.395795 170.976387 
L 156.77625 169.091397 
L 157.156705 170.055215 
L 157.537159 169.900934 
L 157.917614 172.854258 
L 158.298068 173.347085 
L 158.678523 172.514229 
L 159.058977 175.918208 
L 159.819886 174.90093 
L 160.200341 176.017296 
L 160.580795 175.789549 
L 160.96125 172.448681 
L 161.341705 174.011368 
L 161.722159 170.501519 
L 162.102614 170.399063 
L 162.863523 166.960659 
L 163.243977 167.983982 
L 163.624432 165.12118 
L 164.004886 165.705475 
L 164.385341 165.923168 
L 164.765795 167.170342 
L 165.14625 165.719993 
L 165.907159 169.670935 
L 166.287614 168.523051 
L 166.668068 170.744957 
L 167.048523 169.223679 
L 167.428977 169.829954 
L 167.809432 169.414299 
L 168.189886 167.609005 
L 168.570341 166.66159 
L 168.950795 167.090861 
L 169.33125 165.489191 
L 169.711705 164.924231 
L 170.092159 165.105091 
L 170.472614 166.066204 
L 170.853068 165.336645 
L 171.233523 165.858532 
L 171.613977 166.918266 
L 171.994432 167.539886 
L 172.755341 169.582105 
L 173.135795 170.702647 
L 173.51625 171.261274 
L 173.896705 169.078354 
L 174.277159 170.094892 
L 175.038068 166.712489 
L 175.418523 165.533958 
L 175.798977 163.103944 
L 176.179432 164.796744 
L 176.559886 162.949657 
L 176.940341 160.251667 
L 177.320795 164.243746 
L 177.70125 162.62114 
L 178.081705 161.866524 
L 178.462159 165.953912 
L 178.842614 163.553924 
L 179.223068 165.251259 
L 179.603523 167.707695 
L 179.983977 166.113461 
L 180.744886 168.421252 
L 181.125341 167.729916 
L 181.505795 166.003942 
L 181.88625 166.584988 
L 182.266705 166.06748 
L 182.647159 164.674848 
L 183.027614 163.837854 
L 183.408068 165.115823 
L 183.788523 164.30963 
L 184.168977 165.651123 
L 184.549432 165.083883 
L 184.929886 166.167733 
L 185.310341 166.732771 
L 185.690795 166.228489 
L 186.07125 168.834489 
L 186.451705 168.676735 
L 186.832159 166.842158 
L 187.212614 169.605297 
L 187.593068 167.99564 
L 187.973523 169.307923 
L 188.353977 169.606671 
L 188.734432 167.629832 
L 189.114886 166.425858 
L 189.495341 167.001357 
L 189.875795 166.13762 
L 190.25625 163.27713 
L 190.636705 165.743366 
L 191.017159 163.484891 
L 191.778068 165.357311 
L 192.158523 164.90538 
L 192.538977 168.051025 
L 192.919432 167.881679 
L 193.299886 169.897768 
L 193.680341 170.680834 
L 194.060795 171.88319 
L 194.821705 171.179324 
L 195.582614 169.239905 
L 195.582614 169.239905 
" clip-path="url(#pb3444184f1)" style="fill: none; stroke: #ff7f0e; stroke-linecap: square"/>
   </g>
   <g id="patch_14">
    <path d="M 43.78125 185.59875 
L 43.78125 109.99875 
" style="fill: none; stroke: #000000; stroke-width: 0.8; stroke-linejoin: miter; stroke-linecap: square"/>
   </g>
   <g id="patch_15">
    <path d="M 195.963068 185.59875 
L 195.963068 109.99875 
" style="fill: none; stroke: #000000; stroke-width: 0.8; stroke-linejoin: miter; stroke-linecap: square"/>
   </g>
   <g id="patch_16">
    <path d="M 43.78125 185.59875 
L 195.963068 185.59875 
" style="fill: none; stroke: #000000; stroke-width: 0.8; stroke-linejoin: miter; stroke-linecap: square"/>
   </g>
   <g id="patch_17">
    <path d="M 43.78125 109.99875 
L 195.963068 109.99875 
" style="fill: none; stroke: #000000; stroke-width: 0.8; stroke-linejoin: miter; stroke-linecap: square"/>
   </g>
   <g id="text_17">
    <!-- eps. 8 -->
    <g transform="translate(107.700284 103.99875)scale(0.08 -0.08)">
     <defs>
      <path id="DejaVuSans-38" d="M 2034 2216 
Q 1584 2216 1326 1975 
Q 1069 1734 1069 1313 
Q 1069 891 1326 650 
Q 1584 409 2034 409 
Q 2484 409 2743 651 
Q 3003 894 3003 1313 
Q 3003 1734 2745 1975 
Q 2488 2216 2034 2216 
z
M 1403 2484 
Q 997 2584 770 2862 
Q 544 3141 544 3541 
Q 544 4100 942 4425 
Q 1341 4750 2034 4750 
Q 2731 4750 3128 4425 
Q 3525 4100 3525 3541 
Q 3525 3141 3298 2862 
Q 3072 2584 2669 2484 
Q 3125 2378 3379 2068 
Q 3634 1759 3634 1313 
Q 3634 634 3220 271 
Q 2806 -91 2034 -91 
Q 1263 -91 848 271 
Q 434 634 434 1313 
Q 434 1759 690 2068 
Q 947 2378 1403 2484 
z
M 1172 3481 
Q 1172 3119 1398 2916 
Q 1625 2713 2034 2713 
Q 2441 2713 2670 2916 
Q 2900 3119 2900 3481 
Q 2900 3844 2670 4047 
Q 2441 4250 2034 4250 
Q 1625 4250 1398 4047 
Q 1172 3844 1172 3481 
z
" transform="scale(0.015625)"/>
     </defs>
     <use xlink:href="#DejaVuSans-65"/>
     <use xlink:href="#DejaVuSans-70" x="61.523438"/>
     <use xlink:href="#DejaVuSans-73" x="125"/>
     <use xlink:href="#DejaVuSans-2e" x="177.099609"/>
     <use xlink:href="#DejaVuSans-20" x="208.886719"/>
     <use xlink:href="#DejaVuSans-38" x="240.673828"/>
    </g>
   </g>
  </g>
  <g id="axes_4">
   <g id="patch_18">
    <path d="M 226.399432 185.59875 
L 378.58125 185.59875 
L 378.58125 109.99875 
L 226.399432 109.99875 
z
" style="fill: #ffffff"/>
   </g>
   <g id="matplotlib.axis_7">
    <g id="xtick_16">
     <g id="line2d_30">
      <g>
       <use xlink:href="#m39ad296ce8" x="226.399432" y="185.59875" style="stroke: #000000; stroke-width: 0.8"/>
      </g>
     </g>
     <g id="text_18">
      <!-- 0 -->
      <g transform="translate(223.218182 200.197188)scale(0.1 -0.1)">
       <use xlink:href="#DejaVuSans-30"/>
      </g>
     </g>
    </g>
    <g id="xtick_17">
     <g id="line2d_31">
      <g>
       <use xlink:href="#m39ad296ce8" x="264.444886" y="185.59875" style="stroke: #000000; stroke-width: 0.8"/>
      </g>
     </g>
     <g id="text_19">
      <!-- 100 -->
      <g transform="translate(254.901136 200.197188)scale(0.1 -0.1)">
       <use xlink:href="#DejaVuSans-31"/>
       <use xlink:href="#DejaVuSans-30" x="63.623047"/>
       <use xlink:href="#DejaVuSans-30" x="127.246094"/>
      </g>
     </g>
    </g>
    <g id="xtick_18">
     <g id="line2d_32">
      <g>
       <use xlink:href="#m39ad296ce8" x="302.490341" y="185.59875" style="stroke: #000000; stroke-width: 0.8"/>
      </g>
     </g>
     <g id="text_20">
      <!-- 200 -->
      <g transform="translate(292.946591 200.197188)scale(0.1 -0.1)">
       <use xlink:href="#DejaVuSans-32"/>
       <use xlink:href="#DejaVuSans-30" x="63.623047"/>
       <use xlink:href="#DejaVuSans-30" x="127.246094"/>
      </g>
     </g>
    </g>
    <g id="xtick_19">
     <g id="line2d_33">
      <g>
       <use xlink:href="#m39ad296ce8" x="340.535795" y="185.59875" style="stroke: #000000; stroke-width: 0.8"/>
      </g>
     </g>
     <g id="text_21">
      <!-- 300 -->
      <g transform="translate(330.992045 200.197188)scale(0.1 -0.1)">
       <use xlink:href="#DejaVuSans-33"/>
       <use xlink:href="#DejaVuSans-30" x="63.623047"/>
       <use xlink:href="#DejaVuSans-30" x="127.246094"/>
      </g>
     </g>
    </g>
    <g id="xtick_20">
     <g id="line2d_34">
      <g>
       <use xlink:href="#m39ad296ce8" x="378.58125" y="185.59875" style="stroke: #000000; stroke-width: 0.8"/>
      </g>
     </g>
     <g id="text_22">
      <!-- 400 -->
      <g transform="translate(369.0375 200.197188)scale(0.1 -0.1)">
       <use xlink:href="#DejaVuSans-34"/>
       <use xlink:href="#DejaVuSans-30" x="63.623047"/>
       <use xlink:href="#DejaVuSans-30" x="127.246094"/>
      </g>
     </g>
    </g>
    <g id="text_23">
     <!-- interaction -->
     <g transform="translate(275.449716 213.875313)scale(0.1 -0.1)">
      <use xlink:href="#DejaVuSans-69"/>
      <use xlink:href="#DejaVuSans-6e" x="27.783203"/>
      <use xlink:href="#DejaVuSans-74" x="91.162109"/>
      <use xlink:href="#DejaVuSans-65" x="130.371094"/>
      <use xlink:href="#DejaVuSans-72" x="191.894531"/>
      <use xlink:href="#DejaVuSans-61" x="233.007812"/>
      <use xlink:href="#DejaVuSans-63" x="294.287109"/>
      <use xlink:href="#DejaVuSans-74" x="349.267578"/>
      <use xlink:href="#DejaVuSans-69" x="388.476562"/>
      <use xlink:href="#DejaVuSans-6f" x="416.259766"/>
      <use xlink:href="#DejaVuSans-6e" x="477.441406"/>
     </g>
    </g>
   </g>
   <g id="matplotlib.axis_8">
    <g id="ytick_7">
     <g id="line2d_35">
      <g>
       <use xlink:href="#m6e3efac6a8" x="226.399432" y="159.066758" style="stroke: #000000; stroke-width: 0.8"/>
      </g>
     </g>
    </g>
    <g id="ytick_8">
     <g id="line2d_36">
      <g>
       <use xlink:href="#m6e3efac6a8" x="226.399432" y="130.387863" style="stroke: #000000; stroke-width: 0.8"/>
      </g>
     </g>
    </g>
   </g>
   <g id="line2d_37">
    <path d="M 226.399432 141.576481 
L 227.160341 137.569293 
L 227.540795 139.680872 
L 227.92125 136.243609 
L 228.301705 138.736002 
L 228.682159 137.17865 
L 229.062614 141.032663 
L 229.443068 142.764203 
L 229.823523 142.367969 
L 230.203977 143.513204 
L 230.964886 146.669222 
L 231.345341 147.358115 
L 231.725795 145.796351 
L 232.10625 142.747202 
L 232.486705 144.600008 
L 232.867159 140.235803 
L 233.628068 137.409168 
L 234.008523 134.847884 
L 234.388977 136.872084 
L 234.769432 136.601903 
L 235.149886 137.436588 
L 235.530341 140.032874 
L 235.910795 143.473297 
L 236.29125 142.76387 
L 236.671705 149.200071 
L 237.052159 149.025744 
L 237.432614 149.686176 
L 237.813068 151.544078 
L 238.193523 149.055099 
L 238.573977 149.736593 
L 238.954432 145.394812 
L 239.334886 145.476395 
L 239.715341 144.030485 
L 240.095795 141.713979 
L 240.47625 142.116195 
L 240.856705 138.722541 
L 241.237159 138.225171 
L 241.617614 137.491714 
L 241.998068 138.523331 
L 242.378523 137.223323 
L 242.758977 136.498269 
L 243.139432 138.255072 
L 243.519886 139.38804 
L 244.280795 146.156125 
L 244.66125 147.626297 
L 245.041705 146.14547 
L 245.422159 150.609315 
L 245.802614 148.195131 
L 246.183068 147.421483 
L 246.563523 144.407676 
L 246.943977 145.68249 
L 247.324432 140.570611 
L 247.704886 140.686159 
L 248.085341 140.377582 
L 248.465795 141.216713 
L 248.84625 139.482947 
L 249.226705 141.776416 
L 249.607159 145.052506 
L 249.987614 146.67106 
L 250.368068 150.398057 
L 250.748523 150.534213 
L 251.128977 154.41242 
L 251.509432 152.38488 
L 252.270341 153.515333 
L 252.650795 149.463923 
L 253.03125 147.373598 
L 253.411705 146.535911 
L 253.792159 144.983468 
L 254.172614 144.200382 
L 254.933523 141.577559 
L 255.313977 141.661709 
L 255.694432 142.41194 
L 256.074886 147.162057 
L 256.835795 151.864197 
L 257.21625 153.383393 
L 257.596705 155.737896 
L 257.977159 155.661515 
L 258.357614 153.13992 
L 258.738068 155.773466 
L 259.118523 154.663957 
L 259.498977 151.552019 
L 259.879432 149.897998 
L 260.259886 147.278387 
L 260.640341 147.731313 
L 261.020795 145.242229 
L 261.40125 146.655433 
L 262.162159 146.395777 
L 262.542614 150.05794 
L 262.923068 148.244347 
L 263.303523 152.171173 
L 263.683977 153.348818 
L 264.064432 154.141104 
L 264.444886 156.330731 
L 264.825341 157.159764 
L 265.205795 157.14387 
L 265.58625 155.919809 
L 265.966705 155.422044 
L 266.347159 156.510924 
L 266.727614 154.641352 
L 267.108068 150.7343 
L 267.488523 152.0556 
L 267.868977 149.749372 
L 268.249432 151.506219 
L 268.629886 150.035358 
L 269.010341 149.740516 
L 269.390795 151.38415 
L 269.77125 154.885005 
L 270.151705 155.968703 
L 270.532159 158.643002 
L 270.912614 157.785202 
L 271.293068 158.119821 
L 271.673523 161.302238 
L 272.434432 158.788412 
L 272.814886 159.862581 
L 273.195341 155.965316 
L 273.575795 158.004122 
L 273.95625 153.731698 
L 274.336705 154.794541 
L 274.717159 154.225646 
L 275.478068 152.364047 
L 275.858523 155.516902 
L 276.238977 155.369082 
L 276.619432 155.49886 
L 276.999886 158.793081 
L 277.760795 160.507529 
L 278.14125 163.307733 
L 278.521705 163.697884 
L 278.902159 164.503893 
L 279.282614 164.042854 
L 279.663068 162.965204 
L 280.043523 163.307421 
L 280.804432 160.065211 
L 281.184886 157.100083 
L 281.565341 158.636899 
L 281.945795 159.064711 
L 282.32625 157.868408 
L 282.706705 157.805701 
L 283.087159 156.888375 
L 283.467614 159.455673 
L 283.848068 159.962128 
L 284.228523 162.352758 
L 284.608977 162.400147 
L 284.989432 161.461604 
L 285.750341 164.492725 
L 286.51125 160.867495 
L 286.891705 163.432745 
L 287.272159 161.317676 
L 287.652614 160.010406 
L 288.033068 160.414403 
L 288.413523 158.982726 
L 289.554886 157.289412 
L 289.935341 157.277063 
L 290.315795 158.457897 
L 290.69625 158.662724 
L 291.076705 161.62953 
L 291.457159 162.931165 
L 291.837614 164.930838 
L 292.978977 168.989602 
L 293.739886 166.497523 
L 294.500795 165.092659 
L 294.88125 161.740954 
L 295.261705 162.19782 
L 295.642159 161.753283 
L 296.022614 159.151183 
L 296.403068 160.783012 
L 296.783523 159.613266 
L 297.163977 162.36796 
L 299.06625 167.972863 
L 299.446705 166.298916 
L 299.827159 167.702014 
L 300.207614 166.699784 
L 300.588068 164.439873 
L 300.968523 165.431133 
L 301.729432 160.503993 
L 302.109886 161.44534 
L 302.490341 160.834224 
L 302.870795 159.089484 
L 303.631705 162.207103 
L 304.012159 161.889114 
L 304.773068 165.421534 
L 305.153523 166.30261 
L 305.533977 165.740131 
L 305.914432 167.899881 
L 307.055795 166.54195 
L 307.43625 166.093225 
L 307.816705 165.391499 
L 308.197159 165.045692 
L 308.577614 162.496304 
L 308.958068 164.776457 
L 309.338523 162.039905 
L 309.718977 164.838518 
L 310.099432 165.299789 
L 310.479886 166.384164 
L 310.860341 168.289733 
L 311.240795 169.426215 
L 311.62125 171.643068 
L 312.001705 170.432821 
L 312.382159 172.591608 
L 312.762614 172.741283 
L 313.143068 174.181228 
L 313.523523 171.706526 
L 313.903977 170.677696 
L 314.284432 170.378492 
L 314.664886 168.458199 
L 315.045341 168.532033 
L 315.425795 166.520518 
L 315.80625 168.351195 
L 316.186705 166.630089 
L 316.567159 168.512792 
L 316.947614 168.581969 
L 317.708523 170.75603 
L 318.088977 171.735554 
L 318.469432 173.264045 
L 318.849886 173.999469 
L 319.230341 175.157514 
L 319.610795 175.037422 
L 320.371705 175.81511 
L 320.752159 175.537022 
L 321.132614 175.552337 
L 321.513068 174.461601 
L 322.273977 173.991763 
L 322.654432 175.28365 
L 323.034886 174.739095 
L 323.415341 175.164265 
L 323.795795 176.077043 
L 324.17625 175.104461 
L 324.556705 175.970547 
L 324.937159 177.23943 
L 325.317614 176.902628 
L 325.698068 177.119564 
L 326.078523 176.61148 
L 326.458977 178.588333 
L 326.839432 177.289527 
L 327.600341 177.80854 
L 327.980795 177.782775 
L 328.741705 177.139791 
L 329.502614 178.188079 
L 329.883068 176.431374 
L 330.643977 178.810328 
L 331.024432 177.758676 
L 331.404886 177.984396 
L 331.785341 179.146256 
L 332.165795 178.51684 
L 332.54625 180.123586 
L 332.926705 179.020679 
L 333.307159 180.4582 
L 333.687614 179.777263 
L 334.068068 180.227189 
L 334.448523 180.226088 
L 335.209432 180.65457 
L 335.589886 178.75394 
L 335.970341 178.904871 
L 336.350795 178.53986 
L 336.73125 179.265617 
L 337.111705 177.08718 
L 337.492159 179.536386 
L 337.872614 177.827482 
L 338.253068 177.673528 
L 338.633523 177.912593 
L 339.013977 177.77091 
L 339.394432 180.020595 
L 340.155341 181.06274 
L 340.535795 181.25172 
L 340.91625 179.882216 
L 341.296705 182.162386 
L 342.057614 180.436955 
L 342.438068 180.093763 
L 342.818523 178.954626 
L 343.198977 178.579087 
L 343.579432 177.598255 
L 344.720795 177.19363 
L 345.10125 178.294054 
L 345.481705 176.921464 
L 345.862159 180.202218 
L 346.242614 178.171586 
L 346.623068 180.792731 
L 347.003523 179.483256 
L 347.383977 181.646786 
L 347.764432 179.1649 
L 348.144886 181.082156 
L 348.525341 179.149654 
L 348.905795 179.769586 
L 349.666705 177.429307 
L 350.047159 178.584218 
L 350.808068 176.149506 
L 351.188523 176.017841 
L 351.568977 174.331146 
L 351.949432 174.368719 
L 352.329886 173.261705 
L 352.710341 173.86941 
L 353.090795 172.50221 
L 353.47125 173.633865 
L 353.851705 175.145054 
L 354.232159 174.126477 
L 354.993068 174.766684 
L 355.373523 175.456707 
L 355.753977 177.294233 
L 356.514886 175.65343 
L 356.895341 175.087191 
L 357.275795 174.826844 
L 357.65625 173.178785 
L 358.417159 172.928416 
L 358.797614 171.946453 
L 359.178068 172.05243 
L 359.558523 173.003296 
L 359.938977 173.337781 
L 360.319432 172.977589 
L 360.699886 174.06094 
L 361.080341 175.575099 
L 361.460795 173.537452 
L 362.221705 176.29315 
L 362.982614 173.017401 
L 363.363068 174.742935 
L 363.743523 172.042522 
L 364.123977 170.555338 
L 364.504432 169.973922 
L 364.884886 167.593439 
L 365.265341 166.789715 
L 365.645795 165.367523 
L 366.02625 166.49333 
L 366.406705 167.263032 
L 366.787159 165.413148 
L 367.167614 166.689018 
L 367.548068 169.011343 
L 367.928523 169.931901 
L 368.308977 168.703837 
L 368.689432 171.903601 
L 369.069886 171.360526 
L 369.450341 172.004726 
L 369.830795 169.961495 
L 370.21125 170.808131 
L 370.591705 167.333748 
L 370.972159 168.536507 
L 371.352614 166.179162 
L 371.733068 165.427502 
L 372.113523 165.728054 
L 372.493977 163.959613 
L 372.874432 164.192761 
L 373.254886 165.935666 
L 373.635341 166.471589 
L 374.015795 166.61948 
L 374.776705 169.628321 
L 375.157159 169.749727 
L 375.537614 169.293113 
L 375.918068 172.206588 
L 376.298523 171.052435 
L 376.678977 169.219965 
L 377.059432 170.245293 
L 377.439886 168.247249 
L 377.820341 168.764624 
L 378.200795 165.973993 
L 378.200795 165.973993 
" clip-path="url(#p211699ebcb)" style="fill: none; stroke: #1f77b4; stroke-linecap: square"/>
   </g>
   <g id="line2d_38">
    <path d="M 226.399432 141.576481 
L 226.779886 139.811361 
L 227.160341 140.604691 
L 227.540795 139.816939 
L 227.92125 142.900594 
L 228.301705 141.643211 
L 228.682159 141.672483 
L 229.823523 149.825168 
L 230.203977 148.715745 
L 230.584432 151.693715 
L 230.964886 149.931306 
L 231.345341 149.755329 
L 231.725795 150.081807 
L 232.10625 148.850831 
L 232.486705 145.786239 
L 233.247614 143.811923 
L 233.628068 143.505707 
L 234.008523 144.296932 
L 234.388977 145.454972 
L 234.769432 144.920715 
L 235.149886 148.860091 
L 236.29125 153.925215 
L 236.671705 154.695785 
L 237.052159 153.921386 
L 237.432614 156.044095 
L 237.813068 153.824276 
L 238.193523 154.845196 
L 238.573977 152.111581 
L 238.954432 152.464355 
L 239.334886 149.411727 
L 239.715341 147.313421 
L 240.095795 147.298944 
L 240.47625 144.281537 
L 240.856705 144.85552 
L 241.237159 146.304079 
L 241.617614 145.802158 
L 241.998068 148.531299 
L 242.378523 148.70501 
L 242.758977 149.860704 
L 243.139432 150.562898 
L 243.519886 153.643708 
L 243.900341 153.585662 
L 244.280795 152.885031 
L 244.66125 155.129975 
L 245.041705 153.130324 
L 245.422159 152.269542 
L 245.802614 153.014218 
L 246.183068 151.136502 
L 246.563523 151.843416 
L 246.943977 150.931766 
L 247.324432 152.032505 
L 247.704886 151.649662 
L 248.085341 151.631534 
L 249.987614 156.493694 
L 250.748523 159.375105 
L 251.128977 159.535796 
L 251.509432 161.536479 
L 251.889886 161.439662 
L 252.270341 160.584738 
L 252.650795 162.572487 
L 253.03125 158.868134 
L 253.411705 160.381669 
L 253.792159 157.748616 
L 254.172614 157.543046 
L 254.553068 155.877272 
L 254.933523 156.659463 
L 255.313977 158.004633 
L 255.694432 158.336766 
L 256.074886 160.002634 
L 256.835795 162.219888 
L 257.21625 165.206646 
L 257.596705 165.189092 
L 257.977159 167.740705 
L 258.357614 165.60567 
L 258.738068 165.880285 
L 259.118523 164.199082 
L 259.498977 163.458854 
L 259.879432 164.590291 
L 260.259886 162.362305 
L 260.640341 162.533458 
L 261.020795 162.282067 
L 261.40125 160.258034 
L 261.781705 162.277748 
L 262.162159 162.052283 
L 262.542614 162.206515 
L 263.303523 165.769355 
L 263.683977 165.183901 
L 264.064432 169.466907 
L 264.444886 168.52593 
L 264.825341 171.1468 
L 265.205795 171.186164 
L 265.58625 171.951036 
L 267.108068 170.739298 
L 267.488523 168.929006 
L 267.868977 170.15989 
L 268.249432 168.533647 
L 268.629886 169.551295 
L 269.390795 167.894188 
L 269.77125 169.738373 
L 270.151705 169.433867 
L 270.532159 170.430338 
L 270.912614 172.512646 
L 271.293068 170.830586 
L 272.053977 173.947922 
L 272.434432 172.454425 
L 272.814886 173.126208 
L 273.195341 172.360751 
L 273.575795 172.579976 
L 273.95625 171.802692 
L 274.336705 173.086468 
L 274.717159 171.516944 
L 275.097614 171.77555 
L 275.478068 172.702349 
L 275.858523 173.160239 
L 276.238977 171.642182 
L 276.619432 173.342046 
L 276.999886 173.592891 
L 277.380341 174.294191 
L 277.760795 174.172681 
L 278.14125 175.979512 
L 278.521705 175.945694 
L 279.282614 178.044424 
L 279.663068 179.317732 
L 280.043523 178.985206 
L 280.804432 180.372006 
L 281.184886 179.187069 
L 281.565341 178.407645 
L 281.945795 179.084106 
L 282.706705 176.555525 
L 283.087159 176.140065 
L 283.467614 174.286961 
L 283.848068 175.829931 
L 284.228523 174.447382 
L 284.608977 176.235144 
L 284.989432 176.702934 
L 285.369886 176.821516 
L 285.750341 178.021418 
L 286.891705 180.324746 
L 287.272159 179.767828 
L 287.652614 180.889654 
L 288.033068 177.894493 
L 288.413523 179.613782 
L 289.554886 176.412635 
L 290.315795 176.182211 
L 290.69625 175.639948 
L 291.076705 176.32548 
L 291.457159 177.284026 
L 291.837614 176.225534 
L 292.218068 177.869847 
L 292.598523 178.011598 
L 292.978977 179.240471 
L 293.359432 178.743039 
L 293.739886 179.963696 
L 294.120341 179.246812 
L 294.500795 179.017507 
L 294.88125 180.438776 
L 295.261705 179.029469 
L 295.642159 178.370732 
L 296.022614 177.145558 
L 296.403068 177.714017 
L 296.783523 178.779418 
L 297.163977 175.886412 
L 297.544432 178.5191 
L 297.924886 176.183952 
L 298.305341 176.825881 
L 299.06625 176.934519 
L 299.827159 177.153282 
L 300.207614 179.533426 
L 300.588068 176.815086 
L 300.968523 179.142051 
L 301.348977 176.755927 
L 301.729432 178.749411 
L 302.109886 177.963713 
L 302.490341 178.004821 
L 302.870795 176.887061 
L 303.25125 177.656307 
L 303.631705 175.850973 
L 304.012159 175.185643 
L 304.392614 175.178419 
L 304.773068 175.370277 
L 305.153523 175.029942 
L 305.533977 175.257495 
L 305.914432 175.777073 
L 306.675341 177.976076 
L 307.055795 178.029422 
L 307.816705 179.64559 
L 308.197159 179.224512 
L 308.577614 178.411497 
L 308.958068 178.338451 
L 309.338523 179.224116 
L 309.718977 176.47001 
L 310.099432 176.874876 
L 310.479886 177.627496 
L 310.860341 174.759254 
L 311.240795 175.74672 
L 311.62125 174.550546 
L 312.001705 174.095707 
L 312.382159 172.513905 
L 312.762614 175.070179 
L 313.143068 173.536979 
L 313.523523 172.810508 
L 313.903977 176.181667 
L 314.284432 174.343071 
L 314.664886 173.528745 
L 315.045341 176.367859 
L 315.425795 176.110176 
L 315.80625 175.480872 
L 316.186705 176.358842 
L 316.567159 175.318681 
L 316.947614 175.582384 
L 317.328068 174.599429 
L 317.708523 174.611612 
L 318.088977 172.345904 
L 318.469432 173.375789 
L 318.849886 173.914626 
L 319.230341 173.155163 
L 319.610795 173.63324 
L 319.99125 175.333784 
L 320.371705 175.923508 
L 320.752159 175.650244 
L 321.132614 178.371005 
L 321.513068 178.304031 
L 321.893523 179.113304 
L 322.273977 178.667209 
L 322.654432 178.654742 
L 323.034886 177.828162 
L 323.415341 177.794312 
L 324.17625 174.600005 
L 324.556705 175.115308 
L 324.937159 174.066718 
L 325.317614 172.20265 
L 325.698068 173.866391 
L 326.458977 173.661532 
L 326.839432 174.998223 
L 327.219886 175.249215 
L 327.600341 174.32028 
L 327.980795 175.650708 
L 328.36125 177.628236 
L 328.741705 177.491764 
L 329.122159 176.892648 
L 329.502614 177.892859 
L 329.883068 176.345888 
L 330.263523 174.222402 
L 330.643977 177.463725 
L 331.024432 174.52577 
L 332.165795 174.35994 
L 332.54625 174.14338 
L 332.926705 174.504327 
L 333.307159 174.677874 
L 333.687614 176.473265 
L 334.068068 175.061882 
L 334.448523 177.042742 
L 334.828977 178.331829 
L 335.209432 178.171925 
L 335.589886 178.980213 
L 335.970341 178.574189 
L 336.350795 179.298363 
L 336.73125 178.479861 
L 337.111705 179.526687 
L 337.492159 178.655043 
L 337.872614 176.345472 
L 338.253068 178.767161 
L 338.633523 177.765705 
L 339.013977 177.420139 
L 339.774886 177.155249 
L 340.155341 179.34104 
L 340.535795 177.209366 
L 341.296705 178.630913 
L 341.677159 177.465337 
L 342.057614 179.879847 
L 342.818523 178.778205 
L 343.198977 180.102407 
L 343.579432 180.386827 
L 343.959886 178.511569 
L 344.340341 180.638912 
L 344.720795 178.828135 
L 345.10125 179.605955 
L 345.481705 178.927381 
L 345.862159 177.924497 
L 346.242614 179.017166 
L 346.623068 176.61193 
L 347.003523 177.193378 
L 347.383977 177.212389 
L 347.764432 178.1798 
L 348.144886 177.589858 
L 348.525341 179.320273 
L 348.905795 179.279214 
L 349.28625 179.582496 
L 349.666705 181.271502 
L 350.427614 180.716973 
L 350.808068 180.830527 
L 351.188523 180.15275 
L 351.568977 179.812461 
L 352.329886 177.07079 
L 352.710341 177.387453 
L 353.090795 176.568863 
L 353.47125 174.876791 
L 353.851705 174.717451 
L 354.232159 175.687627 
L 354.612614 175.129558 
L 354.993068 177.005947 
L 355.373523 176.215307 
L 355.753977 177.30487 
L 356.134432 177.020682 
L 356.895341 178.403624 
L 357.275795 178.188822 
L 357.65625 176.706562 
L 358.036705 177.391896 
L 358.417159 175.913616 
L 358.797614 176.265125 
L 359.178068 173.412117 
L 359.558523 174.345887 
L 359.938977 174.000883 
L 360.319432 172.675835 
L 360.699886 173.223579 
L 361.080341 174.363536 
L 361.460795 174.539504 
L 361.84125 175.090805 
L 362.221705 177.252551 
L 362.602159 176.402371 
L 362.982614 177.328295 
L 363.363068 178.677622 
L 363.743523 176.962318 
L 364.123977 177.529334 
L 364.504432 175.864664 
L 364.884886 176.60082 
L 365.265341 173.695568 
L 365.645795 174.075996 
L 366.02625 172.52433 
L 366.406705 170.355916 
L 366.787159 171.491144 
L 367.167614 170.207769 
L 367.548068 167.541644 
L 367.928523 168.383123 
L 368.308977 168.223399 
L 369.450341 170.526928 
L 369.830795 169.33489 
L 370.21125 172.496666 
L 370.591705 171.56891 
L 370.972159 173.07853 
L 371.352614 174.115364 
L 371.733068 172.004235 
L 372.113523 170.560893 
L 372.493977 170.791078 
L 372.874432 169.45839 
L 373.254886 166.071576 
L 373.635341 167.698131 
L 374.015795 164.893891 
L 374.39625 165.099149 
L 374.776705 165.790047 
L 375.157159 165.221522 
L 375.537614 167.648296 
L 375.918068 167.680912 
L 376.298523 169.423224 
L 376.678977 170.250323 
L 377.059432 171.379471 
L 377.439886 171.172103 
L 377.820341 170.5538 
L 378.200795 169.608099 
L 378.200795 169.608099 
" clip-path="url(#p211699ebcb)" style="fill: none; stroke: #ff7f0e; stroke-linecap: square"/>
   </g>
   <g id="patch_19">
    <path d="M 226.399432 185.59875 
L 226.399432 109.99875 
" style="fill: none; stroke: #000000; stroke-width: 0.8; stroke-linejoin: miter; stroke-linecap: square"/>
   </g>
   <g id="patch_20">
    <path d="M 378.58125 185.59875 
L 378.58125 109.99875 
" style="fill: none; stroke: #000000; stroke-width: 0.8; stroke-linejoin: miter; stroke-linecap: square"/>
   </g>
   <g id="patch_21">
    <path d="M 226.399432 185.59875 
L 378.58125 185.59875 
" style="fill: none; stroke: #000000; stroke-width: 0.8; stroke-linejoin: miter; stroke-linecap: square"/>
   </g>
   <g id="patch_22">
    <path d="M 226.399432 109.99875 
L 378.58125 109.99875 
" style="fill: none; stroke: #000000; stroke-width: 0.8; stroke-linejoin: miter; stroke-linecap: square"/>
   </g>
   <g id="text_24">
    <!-- eps. 12 -->
    <g transform="translate(287.773466 103.99875)scale(0.08 -0.08)">
     <use xlink:href="#DejaVuSans-65"/>
     <use xlink:href="#DejaVuSans-70" x="61.523438"/>
     <use xlink:href="#DejaVuSans-73" x="125"/>
     <use xlink:href="#DejaVuSans-2e" x="177.099609"/>
     <use xlink:href="#DejaVuSans-20" x="208.886719"/>
     <use xlink:href="#DejaVuSans-31" x="240.673828"/>
     <use xlink:href="#DejaVuSans-32" x="304.296875"/>
    </g>
   </g>
  </g>
 </g>
 <defs>
  <clipPath id="pe0b66f068f">
   <rect x="43.78125" y="19.27875" width="152.181818" height="75.6"/>
  </clipPath>
  <clipPath id="p4b754e96e1">
   <rect x="226.399432" y="19.27875" width="152.181818" height="75.6"/>
  </clipPath>
  <clipPath id="pb3444184f1">
   <rect x="43.78125" y="109.99875" width="152.181818" height="75.6"/>
  </clipPath>
  <clipPath id="p211699ebcb">
   <rect x="226.399432" y="109.99875" width="152.181818" height="75.6"/>
  </clipPath>
 </defs>
</svg>
