<?xml version="1.0" encoding="utf-8" standalone="no"?>
<!DOCTYPE svg PUBLIC "-//W3C//DTD SVG 1.1//EN"
  "http://www.w3.org/Graphics/SVG/1.1/DTD/svg11.dtd">
<svg xmlns:xlink="http://www.w3.org/1999/xlink" width="394.164062pt" height="223.155pt" viewBox="0 0 394.164062 223.155" xmlns="http://www.w3.org/2000/svg" version="1.1">
 <metadata>
  <rdf:RDF xmlns:dc="http://purl.org/dc/elements/1.1/" xmlns:cc="http://creativecommons.org/ns#" xmlns:rdf="http://www.w3.org/1999/02/22-rdf-syntax-ns#">
   <cc:Work>
    <dc:type rdf:resource="http://purl.org/dc/dcmitype/StillImage"/>
    <dc:date>2023-02-27T21:42:39.648145</dc:date>
    <dc:format>image/svg+xml</dc:format>
    <dc:creator>
     <cc:Agent>
      <dc:title>Matplotlib v3.5.1, https://matplotlib.org/</dc:title>
     </cc:Agent>
    </dc:creator>
   </cc:Work>
  </rdf:RDF>
 </metadata>
 <defs>
  <style type="text/css">*{stroke-linejoin: round; stroke-linecap: butt}</style>
 </defs>
 <g id="figure_1">
  <g id="patch_1">
   <path d="M 0 223.155 
L 394.164062 223.155 
L 394.164062 0 
L 0 0 
z
" style="fill: #ffffff"/>
  </g>
  <g id="axes_1">
   <g id="patch_2">
    <path d="M 42.620313 94.87875 
L 194.802131 94.87875 
L 194.802131 19.27875 
L 42.620313 19.27875 
z
" style="fill: #ffffff"/>
   </g>
   <g id="matplotlib.axis_1">
    <g id="xtick_1">
     <g id="line2d_1">
      <defs>
       <path id="m24645274e9" d="M 0 0 
L 0 3.5 
" style="stroke: #000000; stroke-width: 0.8"/>
      </defs>
      <g>
       <use xlink:href="#m24645274e9" x="42.620313" y="94.87875" style="stroke: #000000; stroke-width: 0.8"/>
      </g>
     </g>
    </g>
    <g id="xtick_2">
     <g id="line2d_2">
      <g>
       <use xlink:href="#m24645274e9" x="80.665767" y="94.87875" style="stroke: #000000; stroke-width: 0.8"/>
      </g>
     </g>
    </g>
    <g id="xtick_3">
     <g id="line2d_3">
      <g>
       <use xlink:href="#m24645274e9" x="118.711222" y="94.87875" style="stroke: #000000; stroke-width: 0.8"/>
      </g>
     </g>
    </g>
    <g id="xtick_4">
     <g id="line2d_4">
      <g>
       <use xlink:href="#m24645274e9" x="156.756676" y="94.87875" style="stroke: #000000; stroke-width: 0.8"/>
      </g>
     </g>
    </g>
    <g id="xtick_5">
     <g id="line2d_5">
      <g>
       <use xlink:href="#m24645274e9" x="194.802131" y="94.87875" style="stroke: #000000; stroke-width: 0.8"/>
      </g>
     </g>
    </g>
   </g>
   <g id="matplotlib.axis_2">
    <g id="ytick_1">
     <g id="line2d_6">
      <defs>
       <path id="m9253147ca1" d="M 0 0 
L -3.5 0 
" style="stroke: #000000; stroke-width: 0.8"/>
      </defs>
      <g>
       <use xlink:href="#m9253147ca1" x="42.620313" y="83.562072" style="stroke: #000000; stroke-width: 0.8"/>
      </g>
     </g>
     <g id="text_1">
      <!-- −1 -->
      <g transform="translate(20.878125 87.361291)scale(0.1 -0.1)">
       <defs>
        <path id="DejaVuSans-2212" d="M 678 2272 
L 4684 2272 
L 4684 1741 
L 678 1741 
L 678 2272 
z
" transform="scale(0.015625)"/>
        <path id="DejaVuSans-31" d="M 794 531 
L 1825 531 
L 1825 4091 
L 703 3866 
L 703 4441 
L 1819 4666 
L 2450 4666 
L 2450 531 
L 3481 531 
L 3481 0 
L 794 0 
L 794 531 
z
" transform="scale(0.015625)"/>
       </defs>
       <use xlink:href="#DejaVuSans-2212"/>
       <use xlink:href="#DejaVuSans-31" x="83.789062"/>
      </g>
     </g>
    </g>
    <g id="ytick_2">
     <g id="line2d_7">
      <g>
       <use xlink:href="#m9253147ca1" x="42.620313" y="56.584058" style="stroke: #000000; stroke-width: 0.8"/>
      </g>
     </g>
     <g id="text_2">
      <!-- 0 -->
      <g transform="translate(29.257813 60.383277)scale(0.1 -0.1)">
       <defs>
        <path id="DejaVuSans-30" d="M 2034 4250 
Q 1547 4250 1301 3770 
Q 1056 3291 1056 2328 
Q 1056 1369 1301 889 
Q 1547 409 2034 409 
Q 2525 409 2770 889 
Q 3016 1369 3016 2328 
Q 3016 3291 2770 3770 
Q 2525 4250 2034 4250 
z
M 2034 4750 
Q 2819 4750 3233 4129 
Q 3647 3509 3647 2328 
Q 3647 1150 3233 529 
Q 2819 -91 2034 -91 
Q 1250 -91 836 529 
Q 422 1150 422 2328 
Q 422 3509 836 4129 
Q 1250 4750 2034 4750 
z
" transform="scale(0.015625)"/>
       </defs>
       <use xlink:href="#DejaVuSans-30"/>
      </g>
     </g>
    </g>
    <g id="ytick_3">
     <g id="line2d_8">
      <g>
       <use xlink:href="#m9253147ca1" x="42.620313" y="29.606045" style="stroke: #000000; stroke-width: 0.8"/>
      </g>
     </g>
     <g id="text_3">
      <!-- 1 -->
      <g transform="translate(29.257813 33.405264)scale(0.1 -0.1)">
       <use xlink:href="#DejaVuSans-31"/>
      </g>
     </g>
    </g>
    <g id="text_4">
     <!-- $c_l$ -->
     <g transform="translate(14.798438 60.97875)rotate(-90)scale(0.1 -0.1)">
      <defs>
       <path id="DejaVuSans-Oblique-63" d="M 3431 3366 
L 3316 2797 
Q 3109 2947 2876 3022 
Q 2644 3097 2394 3097 
Q 2119 3097 1870 3000 
Q 1622 2903 1453 2725 
Q 1184 2453 1037 2087 
Q 891 1722 891 1331 
Q 891 859 1127 628 
Q 1363 397 1844 397 
Q 2081 397 2348 469 
Q 2616 541 2906 684 
L 2797 116 
Q 2547 13 2283 -39 
Q 2019 -91 1741 -91 
Q 1044 -91 669 257 
Q 294 606 294 1253 
Q 294 1797 489 2255 
Q 684 2713 1069 3078 
Q 1331 3328 1684 3456 
Q 2038 3584 2456 3584 
Q 2700 3584 2940 3529 
Q 3181 3475 3431 3366 
z
" transform="scale(0.015625)"/>
       <path id="DejaVuSans-Oblique-6c" d="M 1172 4863 
L 1747 4863 
L 800 0 
L 225 0 
L 1172 4863 
z
" transform="scale(0.015625)"/>
      </defs>
      <use xlink:href="#DejaVuSans-Oblique-63"/>
      <use xlink:href="#DejaVuSans-Oblique-6c" transform="translate(54.980469 -16.40625)scale(0.7)"/>
     </g>
    </g>
   </g>
   <g id="line2d_9">
    <path d="M 42.620313 33.572851 
L 43.381222 33.299964 
L 43.761676 34.921038 
L 44.142131 37.053364 
L 45.283494 46.280317 
L 47.946676 75.863026 
L 48.707585 81.331277 
L 49.468494 84.786761 
L 49.848949 85.538411 
L 50.229403 85.06258 
L 50.609858 83.873089 
L 51.751222 76.067158 
L 52.892585 63.910777 
L 54.033949 49.399511 
L 54.794858 41.167176 
L 55.555767 35.921024 
L 55.936222 33.911493 
L 56.316676 32.830969 
L 56.697131 32.662457 
L 57.077585 32.896849 
L 57.45804 33.855931 
L 58.218949 37.901185 
L 58.599403 40.488144 
L 59.360312 48.104289 
L 60.121222 56.337743 
L 61.64304 73.278893 
L 62.403949 79.234946 
L 62.784403 81.593612 
L 63.545313 83.229637 
L 63.925767 82.757531 
L 65.067131 77.304673 
L 67.349858 51.185342 
L 67.730312 45.965863 
L 69.252131 32.264376 
L 69.632585 30.918854 
L 70.01304 30.679343 
L 70.393494 30.175406 
L 70.773949 30.104951 
L 71.154403 30.756369 
L 71.534858 32.636114 
L 72.295767 39.835776 
L 73.437131 52.46847 
L 74.19804 61.750945 
L 75.339403 75.024681 
L 76.100313 81.386171 
L 76.480767 84.016541 
L 76.861222 85.720073 
L 77.241676 86.527061 
L 77.622131 85.73253 
L 78.002585 83.66022 
L 78.38304 82.225062 
L 79.143949 77.188043 
L 79.524403 73.9627 
L 82.187585 43.164139 
L 83.328949 33.577996 
L 83.709403 32.06854 
L 84.089858 31.484461 
L 84.470313 31.84421 
L 84.850767 32.015894 
L 85.231222 32.388561 
L 85.611676 34.860881 
L 87.133494 48.562872 
L 89.416222 71.807398 
L 89.796676 74.571086 
L 90.557585 78.318362 
L 90.93804 78.888439 
L 91.318494 78.336729 
L 91.698949 78.419158 
L 92.079403 77.182562 
L 93.981676 63.002784 
L 95.503494 46.741096 
L 95.883949 42.901552 
L 96.644858 37.252306 
L 97.025312 34.439438 
L 97.405767 32.797506 
L 97.786222 32.657794 
L 98.547131 32.91691 
L 98.927585 34.916651 
L 100.068949 43.746759 
L 100.449403 47.671516 
L 102.351676 71.820797 
L 103.49304 81.989881 
L 103.873494 83.896632 
L 104.253949 85.090457 
L 104.634403 85.476676 
L 105.014858 84.750125 
L 105.395312 83.069313 
L 106.156222 77.746247 
L 106.917131 70.490188 
L 108.058494 57.540149 
L 108.819403 47.739401 
L 109.580312 41.348554 
L 110.341222 35.566869 
L 111.102131 32.647789 
L 111.482585 32.204623 
L 112.243494 35.001307 
L 113.384858 42.186785 
L 114.145767 50.008097 
L 116.04804 71.126318 
L 117.189403 82.500335 
L 117.569858 84.671239 
L 118.330767 86.168105 
L 118.711222 85.825577 
L 119.091676 85.146168 
L 119.472131 84.183045 
L 120.23304 77.927594 
L 121.374403 66.181883 
L 122.896222 48.463966 
L 123.657131 41.711251 
L 124.037585 38.869869 
L 124.41804 37.467047 
L 125.178949 35.759259 
L 125.559403 36.535782 
L 126.320312 40.549119 
L 127.081222 47.513639 
L 128.222585 60.742737 
L 129.744403 78.848809 
L 130.505312 85.199741 
L 130.885767 87.15017 
L 131.266222 88.032735 
L 131.646676 88.528913 
L 132.027131 88.116749 
L 132.407585 86.584345 
L 133.168494 81.525145 
L 133.929403 73.326448 
L 136.97304 32.618251 
L 137.733949 24.596347 
L 138.114403 23.09063 
L 138.494858 22.786538 
L 138.875312 22.715114 
L 139.636222 25.712063 
L 140.016676 27.806195 
L 140.397131 30.962266 
L 141.918949 50.131071 
L 143.060312 66.558159 
L 144.201676 78.962275 
L 144.582131 81.75132 
L 145.34304 85.270871 
L 145.723494 86.081404 
L 146.103949 85.516703 
L 146.484403 84.537564 
L 146.864858 82.755559 
L 148.386676 69.564813 
L 150.288949 48.143838 
L 151.810767 36.894903 
L 152.191222 35.489539 
L 152.571676 35.692155 
L 152.952131 36.341953 
L 153.71304 39.598091 
L 154.854403 47.808444 
L 156.756676 68.630865 
L 158.278494 79.402998 
L 158.658949 80.795442 
L 159.039403 81.346593 
L 159.800312 79.977428 
L 160.561222 76.950009 
L 160.941676 73.893423 
L 164.365767 37.406691 
L 164.746222 34.910239 
L 165.126676 33.63187 
L 165.507131 32.985856 
L 165.887585 32.852198 
L 166.648494 35.209319 
L 167.409403 40.236226 
L 167.789858 42.787766 
L 168.550767 50.075915 
L 170.072585 66.162727 
L 171.594403 77.576376 
L 171.974858 79.322396 
L 172.355312 80.010577 
L 172.735767 79.524534 
L 173.496676 78.010885 
L 173.877131 76.820316 
L 174.257585 74.124922 
L 175.018494 66.279541 
L 178.062131 37.131121 
L 178.82304 33.087601 
L 179.203494 32.278382 
L 179.583949 32.426023 
L 180.344858 34.138991 
L 180.725312 36.113672 
L 182.627585 54.910248 
L 183.388494 64.30407 
L 184.529858 76.611087 
L 185.290767 81.658332 
L 185.671222 83.616271 
L 186.432131 85.018433 
L 186.812585 84.073345 
L 187.573494 80.149776 
L 188.714858 70.000488 
L 189.475767 60.841134 
L 189.856222 57.207025 
L 190.997585 43.594273 
L 191.758494 36.136215 
L 192.138949 33.913631 
L 192.519403 33.281568 
L 192.899858 32.127679 
L 193.280312 31.620368 
L 193.660767 32.026662 
L 194.041222 33.891583 
L 194.421676 36.825509 
L 194.421676 36.825509 
" clip-path="url(#p08e92c8068)" style="fill: none; stroke: #1f77b4; stroke-linecap: square"/>
   </g>
   <g id="line2d_10">
    <path d="M 42.620313 33.572851 
L 43.000767 32.775757 
L 43.381222 33.021282 
L 43.761676 33.485268 
L 44.142131 35.484385 
L 46.044403 52.213469 
L 47.566222 67.781815 
L 48.707585 77.407427 
L 49.08804 79.012988 
L 49.848949 80.359679 
L 50.229403 80.646248 
L 50.609858 79.942501 
L 52.131676 69.934023 
L 52.892585 61.499184 
L 54.033949 47.97212 
L 55.175313 37.827142 
L 55.936222 33.334309 
L 56.316676 32.357959 
L 56.697131 32.088737 
L 57.077585 32.159844 
L 57.45804 33.81698 
L 57.838494 36.149219 
L 58.599403 42.971688 
L 60.121222 61.051507 
L 62.023494 83.717289 
L 62.784403 88.992041 
L 63.164858 90.449106 
L 63.545313 91.319562 
L 63.925767 91.181932 
L 64.306222 89.491362 
L 65.067131 84.273703 
L 65.82804 76.137272 
L 67.349858 55.227942 
L 68.491222 39.435768 
L 69.252131 32.629345 
L 69.632585 30.42249 
L 70.01304 29.101136 
L 70.393494 28.428208 
L 70.773949 28.306937 
L 71.154403 28.555101 
L 71.534858 30.327213 
L 72.295767 36.182097 
L 73.437131 48.422695 
L 74.19804 57.977539 
L 75.339403 72.716115 
L 76.480767 81.513206 
L 77.241676 85.081409 
L 77.622131 85.033161 
L 78.38304 83.509775 
L 79.143949 77.101428 
L 79.524403 74.080715 
L 82.948494 34.014911 
L 83.709403 29.591661 
L 84.089858 28.623538 
L 84.470313 29.036593 
L 84.850767 30.516149 
L 85.611676 35.072373 
L 86.372585 42.198328 
L 86.75304 45.873666 
L 89.035767 75.79683 
L 89.796676 83.384345 
L 90.557585 88.030183 
L 90.93804 89.143813 
L 91.318494 88.521463 
L 92.079403 86.366277 
L 92.459858 83.601848 
L 93.601222 71.87385 
L 95.503494 45.201288 
L 96.644858 34.216087 
L 97.025312 32.04946 
L 97.786222 29.413008 
L 98.166676 29.551067 
L 98.547131 31.127283 
L 98.927585 33.264299 
L 100.449403 46.480479 
L 101.210312 55.227037 
L 102.351676 67.688344 
L 103.112585 74.023152 
L 103.873494 78.50227 
L 104.253949 79.029681 
L 104.634403 78.712691 
L 105.014858 78.632449 
L 105.395312 78.202066 
L 105.775767 76.296058 
L 106.536676 69.41125 
L 108.058494 51.777533 
L 108.819403 41.926284 
L 109.960767 30.2139 
L 110.721676 25.004652 
L 111.102131 24.335018 
L 111.482585 25.138131 
L 112.623949 29.245389 
L 113.765312 41.004755 
L 115.667585 66.668428 
L 116.808949 78.919826 
L 117.569858 83.029391 
L 117.950312 83.472265 
L 118.330767 82.752356 
L 118.711222 82.444749 
L 119.091676 81.444618 
L 119.852585 75.52022 
L 120.613494 67.693522 
L 122.896222 38.898934 
L 124.037585 29.41854 
L 124.41804 28.437868 
L 124.798494 27.871438 
L 125.178949 28.059151 
L 125.939858 30.81791 
L 126.700767 37.761686 
L 127.461676 47.435594 
L 128.983494 69.143281 
L 129.744403 78.256146 
L 130.124858 83.475692 
L 130.885767 88.466216 
L 131.266222 90.476586 
L 131.646676 91.246787 
L 132.027131 91.442386 
L 132.407585 90.67282 
L 132.78804 89.125146 
L 133.168494 86.599589 
L 133.548949 83.132939 
L 136.97304 39.801568 
L 137.733949 35.15352 
L 138.494858 32.19878 
L 138.875312 31.834228 
L 139.255767 32.865317 
L 140.016676 36.744081 
L 140.397131 39.591936 
L 143.440767 71.895101 
L 144.582131 78.795869 
L 145.34304 80.856586 
L 145.723494 81.322492 
L 146.864858 75.153958 
L 148.006222 64.748566 
L 148.767131 55.820368 
L 149.52804 46.738675 
L 150.288949 38.23883 
L 151.049858 33.940951 
L 151.810767 31.196318 
L 152.191222 30.600956 
L 152.571676 30.919748 
L 152.952131 32.752046 
L 153.71304 38.131984 
L 154.093494 41.151477 
L 155.995767 63.540289 
L 156.376222 68.679204 
L 157.89804 82.137724 
L 158.278494 84.528072 
L 158.658949 85.773513 
L 159.039403 85.660906 
L 159.800312 84.125704 
L 160.180767 82.597286 
L 160.561222 80.5681 
L 161.322131 74.005747 
L 163.604858 49.972229 
L 164.746222 41.890648 
L 165.126676 40.043703 
L 165.507131 39.406279 
L 165.887585 39.226848 
L 166.26804 39.732525 
L 166.648494 40.91427 
L 167.028949 43.049768 
L 168.170312 51.472035 
L 169.692131 67.721057 
L 171.213949 81.300851 
L 171.594403 83.312909 
L 171.974858 84.164051 
L 172.355312 84.589872 
L 172.735767 84.728974 
L 173.116222 83.374474 
L 173.877131 78.729081 
L 174.257585 76.262247 
L 175.779403 60.43499 
L 176.540312 50.971459 
L 178.062131 37.62269 
L 178.442585 34.884664 
L 178.82304 33.734991 
L 179.203494 33.136593 
L 179.583949 33.066814 
L 179.964403 33.441582 
L 180.725312 37.163174 
L 181.105767 39.900691 
L 182.627585 56.312269 
L 183.388494 64.556307 
L 183.768949 68.07535 
L 184.529858 76.51119 
L 185.671222 81.825762 
L 186.051676 83.105781 
L 186.432131 83.725665 
L 187.19304 80.00678 
L 187.953949 75.989843 
L 190.617131 49.507958 
L 191.758494 38.597956 
L 192.519403 34.858975 
L 193.280312 32.522049 
L 193.660767 32.493122 
L 194.041222 33.534789 
L 194.421676 35.533598 
L 194.421676 35.533598 
" clip-path="url(#p08e92c8068)" style="fill: none; stroke: #ff7f0e; stroke-linecap: square"/>
   </g>
   <g id="patch_3">
    <path d="M 42.620313 94.87875 
L 42.620313 19.27875 
" style="fill: none; stroke: #000000; stroke-width: 0.8; stroke-linejoin: miter; stroke-linecap: square"/>
   </g>
   <g id="patch_4">
    <path d="M 194.802131 94.87875 
L 194.802131 19.27875 
" style="fill: none; stroke: #000000; stroke-width: 0.8; stroke-linejoin: miter; stroke-linecap: square"/>
   </g>
   <g id="patch_5">
    <path d="M 42.620313 94.87875 
L 194.802131 94.87875 
" style="fill: none; stroke: #000000; stroke-width: 0.8; stroke-linejoin: miter; stroke-linecap: square"/>
   </g>
   <g id="patch_6">
    <path d="M 42.620313 19.27875 
L 194.802131 19.27875 
" style="fill: none; stroke: #000000; stroke-width: 0.8; stroke-linejoin: miter; stroke-linecap: square"/>
   </g>
   <g id="text_5">
    <!-- eps. 0 -->
    <g transform="translate(106.539347 13.27875)scale(0.08 -0.08)">
     <defs>
      <path id="DejaVuSans-65" d="M 3597 1894 
L 3597 1613 
L 953 1613 
Q 991 1019 1311 708 
Q 1631 397 2203 397 
Q 2534 397 2845 478 
Q 3156 559 3463 722 
L 3463 178 
Q 3153 47 2828 -22 
Q 2503 -91 2169 -91 
Q 1331 -91 842 396 
Q 353 884 353 1716 
Q 353 2575 817 3079 
Q 1281 3584 2069 3584 
Q 2775 3584 3186 3129 
Q 3597 2675 3597 1894 
z
M 3022 2063 
Q 3016 2534 2758 2815 
Q 2500 3097 2075 3097 
Q 1594 3097 1305 2825 
Q 1016 2553 972 2059 
L 3022 2063 
z
" transform="scale(0.015625)"/>
      <path id="DejaVuSans-70" d="M 1159 525 
L 1159 -1331 
L 581 -1331 
L 581 3500 
L 1159 3500 
L 1159 2969 
Q 1341 3281 1617 3432 
Q 1894 3584 2278 3584 
Q 2916 3584 3314 3078 
Q 3713 2572 3713 1747 
Q 3713 922 3314 415 
Q 2916 -91 2278 -91 
Q 1894 -91 1617 61 
Q 1341 213 1159 525 
z
M 3116 1747 
Q 3116 2381 2855 2742 
Q 2594 3103 2138 3103 
Q 1681 3103 1420 2742 
Q 1159 2381 1159 1747 
Q 1159 1113 1420 752 
Q 1681 391 2138 391 
Q 2594 391 2855 752 
Q 3116 1113 3116 1747 
z
" transform="scale(0.015625)"/>
      <path id="DejaVuSans-73" d="M 2834 3397 
L 2834 2853 
Q 2591 2978 2328 3040 
Q 2066 3103 1784 3103 
Q 1356 3103 1142 2972 
Q 928 2841 928 2578 
Q 928 2378 1081 2264 
Q 1234 2150 1697 2047 
L 1894 2003 
Q 2506 1872 2764 1633 
Q 3022 1394 3022 966 
Q 3022 478 2636 193 
Q 2250 -91 1575 -91 
Q 1294 -91 989 -36 
Q 684 19 347 128 
L 347 722 
Q 666 556 975 473 
Q 1284 391 1588 391 
Q 1994 391 2212 530 
Q 2431 669 2431 922 
Q 2431 1156 2273 1281 
Q 2116 1406 1581 1522 
L 1381 1569 
Q 847 1681 609 1914 
Q 372 2147 372 2553 
Q 372 3047 722 3315 
Q 1072 3584 1716 3584 
Q 2034 3584 2315 3537 
Q 2597 3491 2834 3397 
z
" transform="scale(0.015625)"/>
      <path id="DejaVuSans-2e" d="M 684 794 
L 1344 794 
L 1344 0 
L 684 0 
L 684 794 
z
" transform="scale(0.015625)"/>
      <path id="DejaVuSans-20" transform="scale(0.015625)"/>
     </defs>
     <use xlink:href="#DejaVuSans-65"/>
     <use xlink:href="#DejaVuSans-70" x="61.523438"/>
     <use xlink:href="#DejaVuSans-73" x="125"/>
     <use xlink:href="#DejaVuSans-2e" x="177.099609"/>
     <use xlink:href="#DejaVuSans-20" x="208.886719"/>
     <use xlink:href="#DejaVuSans-30" x="240.673828"/>
    </g>
   </g>
   <g id="legend_1">
    <g id="patch_7">
     <path d="M 129.642131 32.885625 
L 190.602131 32.885625 
Q 191.802131 32.885625 191.802131 31.685625 
L 191.802131 23.47875 
Q 191.802131 22.27875 190.602131 22.27875 
L 129.642131 22.27875 
Q 128.442131 22.27875 128.442131 23.47875 
L 128.442131 31.685625 
Q 128.442131 32.885625 129.642131 32.885625 
z
" style="fill: #ffffff; opacity: 0.8; stroke: #cccccc; stroke-linejoin: miter"/>
    </g>
    <g id="line2d_11">
     <path d="M 130.842131 27.137813 
L 136.842131 27.137813 
L 142.842131 27.137813 
" style="fill: none; stroke: #1f77b4; stroke-linecap: square"/>
    </g>
    <g id="text_6">
     <!-- $\tau_0$ -->
     <g transform="translate(147.642131 29.237813)scale(0.06 -0.06)">
      <defs>
       <path id="DejaVuSans-Oblique-3c4" d="M 2103 638 
Q 2188 488 2525 488 
L 2800 488 
L 2706 0 
L 2363 0 
Q 1800 0 1600 300 
Q 1403 606 1534 1269 
L 1856 2925 
L 541 2925 
L 653 3500 
L 3881 3500 
L 3769 2925 
L 2444 2925 
L 2113 1234 
Q 2025 781 2103 638 
z
" transform="scale(0.015625)"/>
      </defs>
      <use xlink:href="#DejaVuSans-Oblique-3c4" transform="translate(0 0.3125)"/>
      <use xlink:href="#DejaVuSans-30" transform="translate(60.205078 -16.09375)scale(0.7)"/>
     </g>
    </g>
    <g id="line2d_12">
     <path d="M 166.122131 27.137813 
L 172.122131 27.137813 
L 178.122131 27.137813 
" style="fill: none; stroke: #ff7f0e; stroke-linecap: square"/>
    </g>
    <g id="text_7">
     <!-- $\tau_1$ -->
     <g transform="translate(182.922131 29.237813)scale(0.06 -0.06)">
      <use xlink:href="#DejaVuSans-Oblique-3c4" transform="translate(0 0.3125)"/>
      <use xlink:href="#DejaVuSans-31" transform="translate(60.205078 -16.09375)scale(0.7)"/>
     </g>
    </g>
   </g>
  </g>
  <g id="axes_2">
   <g id="patch_8">
    <path d="M 225.238494 94.87875 
L 377.420312 94.87875 
L 377.420312 19.27875 
L 225.238494 19.27875 
z
" style="fill: #ffffff"/>
   </g>
   <g id="matplotlib.axis_3">
    <g id="xtick_6">
     <g id="line2d_13">
      <g>
       <use xlink:href="#m24645274e9" x="225.238494" y="94.87875" style="stroke: #000000; stroke-width: 0.8"/>
      </g>
     </g>
    </g>
    <g id="xtick_7">
     <g id="line2d_14">
      <g>
       <use xlink:href="#m24645274e9" x="263.283949" y="94.87875" style="stroke: #000000; stroke-width: 0.8"/>
      </g>
     </g>
    </g>
    <g id="xtick_8">
     <g id="line2d_15">
      <g>
       <use xlink:href="#m24645274e9" x="301.329403" y="94.87875" style="stroke: #000000; stroke-width: 0.8"/>
      </g>
     </g>
    </g>
    <g id="xtick_9">
     <g id="line2d_16">
      <g>
       <use xlink:href="#m24645274e9" x="339.374858" y="94.87875" style="stroke: #000000; stroke-width: 0.8"/>
      </g>
     </g>
    </g>
    <g id="xtick_10">
     <g id="line2d_17">
      <g>
       <use xlink:href="#m24645274e9" x="377.420312" y="94.87875" style="stroke: #000000; stroke-width: 0.8"/>
      </g>
     </g>
    </g>
   </g>
   <g id="matplotlib.axis_4">
    <g id="ytick_4">
     <g id="line2d_18">
      <g>
       <use xlink:href="#m9253147ca1" x="225.238494" y="83.562072" style="stroke: #000000; stroke-width: 0.8"/>
      </g>
     </g>
    </g>
    <g id="ytick_5">
     <g id="line2d_19">
      <g>
       <use xlink:href="#m9253147ca1" x="225.238494" y="56.584058" style="stroke: #000000; stroke-width: 0.8"/>
      </g>
     </g>
    </g>
    <g id="ytick_6">
     <g id="line2d_20">
      <g>
       <use xlink:href="#m9253147ca1" x="225.238494" y="29.606045" style="stroke: #000000; stroke-width: 0.8"/>
      </g>
     </g>
    </g>
   </g>
   <g id="line2d_21">
    <path d="M 225.238494 33.572851 
L 225.999403 33.118568 
L 226.379858 34.696585 
L 226.760312 36.783878 
L 227.901676 45.858928 
L 230.564858 75.034073 
L 231.325767 80.801236 
L 232.086676 84.660666 
L 232.467131 85.628879 
L 232.847585 85.408781 
L 233.22804 84.478048 
L 234.369403 77.822981 
L 235.510767 66.820293 
L 236.652131 53.16896 
L 237.41304 45.224317 
L 238.173949 39.867587 
L 238.554403 37.60226 
L 238.934858 36.261315 
L 239.315312 35.734032 
L 239.695767 35.571395 
L 240.076222 36.048388 
L 240.837131 39.038663 
L 241.217585 41.117632 
L 241.59804 43.917687 
L 245.022131 76.693429 
L 245.402585 79.192487 
L 246.163494 81.55192 
L 246.543949 81.564792 
L 247.685312 77.997955 
L 249.587585 60.518576 
L 250.728949 47.995083 
L 252.250767 36.423325 
L 252.631222 35.813904 
L 253.011676 34.734022 
L 253.392131 33.99275 
L 253.772585 33.940348 
L 254.15304 34.950265 
L 254.913949 40.251937 
L 255.674858 46.258377 
L 258.718494 75.950232 
L 259.479403 81.02108 
L 259.859858 82.385038 
L 260.240312 82.381436 
L 260.620767 81.242495 
L 261.001222 80.826847 
L 261.762131 78.087523 
L 262.142585 75.990202 
L 263.664403 62.473567 
L 264.425312 54.150284 
L 266.327585 38.648871 
L 266.70804 37.161803 
L 267.088494 36.471958 
L 267.849403 34.730166 
L 268.229858 35.866386 
L 269.371222 41.808518 
L 270.132131 47.166613 
L 273.175767 72.10604 
L 273.556222 73.626509 
L 273.936676 74.213558 
L 274.317131 75.55307 
L 274.697585 75.762276 
L 275.07804 74.610484 
L 275.458494 74.006413 
L 275.838949 72.944875 
L 276.599858 69.142657 
L 278.121676 56.631713 
L 278.882585 50.569994 
L 280.023949 41.336895 
L 281.165312 37.461366 
L 281.545767 37.7627 
L 282.687131 41.275242 
L 283.067585 43.454456 
L 286.111222 71.307409 
L 286.872131 75.81653 
L 287.252585 77.3547 
L 287.63304 78.013392 
L 288.013494 77.957237 
L 288.393949 77.34234 
L 289.154858 75.187578 
L 290.296222 68.60558 
L 291.057131 62.454998 
L 291.81804 56.56992 
L 292.578949 51.755006 
L 293.339858 46.855463 
L 294.100767 42.927319 
L 294.481222 42.748105 
L 294.861676 42.317854 
L 295.242131 42.553599 
L 295.622585 42.637497 
L 296.00304 42.90748 
L 296.383494 44.187539 
L 297.144403 48.297376 
L 298.285767 55.974152 
L 299.046676 61.490392 
L 300.18804 71.841594 
L 301.329403 77.752712 
L 302.090312 80.680875 
L 302.470767 80.258193 
L 302.851222 79.573629 
L 303.612131 77.388314 
L 304.37304 73.167907 
L 306.275312 58.29846 
L 307.036222 52.482203 
L 307.797131 47.17439 
L 308.177585 45.519737 
L 308.938494 43.973653 
L 309.318949 44.185024 
L 309.699403 44.972805 
L 310.079858 46.279051 
L 310.840767 50.05854 
L 311.221222 52.66765 
L 311.601676 56.510651 
L 312.362585 62.012142 
L 313.503949 71.116066 
L 314.645312 77.576791 
L 315.025767 78.646716 
L 315.406222 79.10713 
L 315.786676 79.215963 
L 316.167131 78.519143 
L 316.547585 77.098608 
L 317.688949 70.039243 
L 318.830312 58.752656 
L 319.971676 47.170896 
L 320.352131 42.611079 
L 321.11304 37.315002 
L 321.493494 34.910747 
L 322.634858 31.273418 
L 323.015312 31.230749 
L 323.776222 34.38301 
L 324.537131 38.830797 
L 328.341676 75.641412 
L 329.102585 79.888346 
L 329.48304 81.098454 
L 329.863494 81.047103 
L 330.243949 81.270494 
L 330.624403 81.074867 
L 331.004858 80.150351 
L 331.385312 78.377711 
L 332.526676 70.828254 
L 334.048494 57.749286 
L 334.809403 50.184719 
L 335.570312 45.548219 
L 336.711676 41.483535 
L 337.092131 40.561097 
L 337.472585 40.447495 
L 337.85304 41.588343 
L 338.994403 46.891613 
L 339.755312 52.034894 
L 340.135767 54.477493 
L 341.657585 67.022468 
L 342.03804 68.849376 
L 342.798949 73.03552 
L 343.179403 74.790973 
L 343.559858 75.249084 
L 344.320767 74.041439 
L 344.701222 73.117599 
L 345.462131 69.132448 
L 345.842585 67.331116 
L 348.505767 49.41971 
L 349.647131 44.722868 
L 350.40804 42.644401 
L 350.788494 42.343103 
L 351.168949 42.600172 
L 352.310312 44.969601 
L 352.690767 47.20742 
L 353.451676 50.029206 
L 356.114858 67.755158 
L 356.495312 70.147284 
L 356.875767 71.293311 
L 357.256222 71.757722 
L 357.636676 71.363377 
L 358.017131 71.512361 
L 358.397585 71.479908 
L 358.77804 70.729935 
L 359.538949 68.067012 
L 360.680313 61.755753 
L 361.060767 59.312254 
L 361.821676 53.152563 
L 363.343494 43.421944 
L 364.104403 41.750273 
L 364.484858 40.417397 
L 364.865312 39.498696 
L 365.245767 40.63995 
L 365.626222 42.322356 
L 366.006676 43.35718 
L 366.387131 45.236879 
L 367.14804 50.582908 
L 367.908949 56.000918 
L 369.050312 65.912492 
L 370.191676 72.682415 
L 370.952585 75.393986 
L 371.33304 75.896576 
L 371.713494 75.307433 
L 372.474403 75.2975 
L 373.235312 71.397602 
L 373.615767 69.548233 
L 373.996222 67.104933 
L 374.757131 60.906197 
L 375.137585 59.022056 
L 376.278949 49.428614 
L 376.659403 47.366229 
L 377.039858 46.02808 
L 377.039858 46.02808 
" clip-path="url(#p21b598760d)" style="fill: none; stroke: #1f77b4; stroke-linecap: square"/>
   </g>
   <g id="line2d_22">
    <path d="M 225.238494 33.572851 
L 225.618949 32.694381 
L 225.999403 32.816759 
L 226.379858 33.260425 
L 226.760312 35.237934 
L 227.521222 41.336783 
L 228.282131 47.285344 
L 229.803949 63.654505 
L 230.564858 70.063068 
L 231.325767 76.628129 
L 231.706222 78.408183 
L 232.467131 80.445259 
L 232.847585 80.905836 
L 233.22804 80.509871 
L 234.749858 72.350182 
L 235.510767 65.058181 
L 236.271676 56.201127 
L 237.41304 45.589826 
L 238.173949 40.120573 
L 238.554403 37.753045 
L 238.934858 36.467403 
L 239.315312 35.777617 
L 239.695767 35.405561 
L 240.076222 36.541811 
L 240.456676 38.233972 
L 240.837131 40.674548 
L 241.978494 50.797741 
L 243.119858 63.349027 
L 244.641676 80.256586 
L 245.402585 85.734555 
L 246.163494 88.563792 
L 246.543949 88.867039 
L 246.924403 87.785582 
L 247.685312 84.11215 
L 248.446222 77.681776 
L 249.587585 64.892414 
L 251.109403 46.201308 
L 252.250767 37.022598 
L 252.631222 35.247328 
L 253.011676 34.10043 
L 253.772585 32.922443 
L 254.15304 33.777525 
L 254.533494 35.352219 
L 255.294403 40.2116 
L 255.674858 42.859368 
L 256.816222 54.051344 
L 257.957585 66.801617 
L 259.098949 75.703892 
L 259.859858 80.312563 
L 260.240312 80.986655 
L 261.001222 81.343993 
L 261.381676 79.814952 
L 262.142585 75.845552 
L 263.664403 62.056975 
L 265.566676 42.605506 
L 266.70804 35.407507 
L 267.088494 34.543145 
L 267.468949 34.611708 
L 268.229858 36.390015 
L 268.610312 38.172245 
L 269.371222 42.768544 
L 273.175767 80.827313 
L 273.556222 82.920194 
L 273.936676 83.442481 
L 274.317131 83.628939 
L 274.697585 84.143666 
L 275.07804 82.959636 
L 275.838949 78.96661 
L 276.219403 76.34013 
L 277.741222 60.100433 
L 278.502131 52.82087 
L 279.643494 42.998456 
L 280.404403 38.531676 
L 280.784858 37.259374 
L 281.165312 37.203932 
L 281.545767 37.422203 
L 282.687131 41.256454 
L 283.44804 45.281117 
L 284.969858 57.360872 
L 286.491676 68.268215 
L 286.872131 69.670694 
L 287.252585 70.526291 
L 288.013494 73.196757 
L 288.393949 73.124191 
L 288.774403 72.005778 
L 289.535312 68.272472 
L 290.676676 60.862791 
L 292.578949 43.951131 
L 293.339858 37.581716 
L 293.720312 35.748376 
L 294.861676 33.677148 
L 295.242131 33.229166 
L 296.383494 38.230687 
L 297.905312 51.637569 
L 299.427131 67.18205 
L 300.18804 72.999457 
L 300.568494 74.714399 
L 300.948949 75.651019 
L 301.329403 77.290117 
L 301.709858 78.284651 
L 302.090312 77.807476 
L 302.470767 76.755876 
L 302.851222 75.305972 
L 303.231676 73.227538 
L 304.753494 61.037478 
L 306.655767 42.051032 
L 307.036222 39.729146 
L 307.416676 38.33118 
L 307.797131 36.31735 
L 308.177585 35.186506 
L 308.55804 35.54507 
L 308.938494 35.644982 
L 309.318949 35.898408 
L 310.840767 44.694532 
L 312.74304 60.784307 
L 313.503949 66.652926 
L 314.264858 71.562267 
L 314.645312 72.404021 
L 315.406222 73.48679 
L 315.786676 72.831545 
L 316.547585 72.075841 
L 316.92804 70.822466 
L 318.069403 61.918575 
L 318.830312 55.373603 
L 320.352131 41.043453 
L 320.732585 37.747464 
L 321.493494 33.457511 
L 321.873949 32.528142 
L 322.254403 32.167569 
L 322.634858 32.545551 
L 323.015312 32.765603 
L 323.395767 33.437735 
L 324.156676 39.428262 
L 325.678494 54.559155 
L 326.439403 63.47649 
L 326.819858 68.321528 
L 327.961222 77.857252 
L 328.341676 79.444618 
L 328.722131 81.758002 
L 329.102585 82.821032 
L 329.48304 82.849122 
L 329.863494 82.4182 
L 330.624403 79.17759 
L 331.765767 71.379569 
L 333.66804 51.321381 
L 334.048494 46.674373 
L 334.809403 41.162701 
L 335.950767 34.323109 
L 336.331222 34.214133 
L 337.472585 35.793354 
L 338.233494 40.727533 
L 339.374858 49.471052 
L 340.135767 56.985685 
L 342.03804 72.36629 
L 342.418494 73.82437 
L 342.798949 74.810468 
L 343.179403 75.019433 
L 343.559858 74.378274 
L 343.940313 73.474538 
L 344.701222 70.341715 
L 345.081676 67.724183 
L 348.505767 34.170024 
L 348.886222 31.291294 
L 349.266676 29.520245 
L 350.027585 27.248705 
L 350.40804 27.220295 
L 350.788494 28.180346 
L 351.549403 31.171884 
L 352.310312 37.668463 
L 353.451676 49.271079 
L 355.353949 69.069703 
L 356.114858 75.20336 
L 356.495312 77.391436 
L 356.875767 78.662727 
L 357.256222 78.385639 
L 358.017131 78.680574 
L 358.77804 74.37221 
L 359.158494 72.462874 
L 362.202131 42.108595 
L 363.343494 34.960462 
L 363.723949 33.960339 
L 364.484858 33.499827 
L 364.865312 34.20834 
L 365.245767 35.535164 
L 366.006676 41.079514 
L 367.14804 51.418107 
L 369.050312 70.15009 
L 370.191676 78.017779 
L 370.572131 78.455951 
L 371.33304 78.05131 
L 372.474403 72.450023 
L 373.996222 59.230066 
L 375.898494 43.463754 
L 376.659403 39.360731 
L 377.039858 37.769512 
L 377.039858 37.769512 
" clip-path="url(#p21b598760d)" style="fill: none; stroke: #ff7f0e; stroke-linecap: square"/>
   </g>
   <g id="patch_9">
    <path d="M 225.238494 94.87875 
L 225.238494 19.27875 
" style="fill: none; stroke: #000000; stroke-width: 0.8; stroke-linejoin: miter; stroke-linecap: square"/>
   </g>
   <g id="patch_10">
    <path d="M 377.420312 94.87875 
L 377.420312 19.27875 
" style="fill: none; stroke: #000000; stroke-width: 0.8; stroke-linejoin: miter; stroke-linecap: square"/>
   </g>
   <g id="patch_11">
    <path d="M 225.238494 94.87875 
L 377.420312 94.87875 
" style="fill: none; stroke: #000000; stroke-width: 0.8; stroke-linejoin: miter; stroke-linecap: square"/>
   </g>
   <g id="patch_12">
    <path d="M 225.238494 19.27875 
L 377.420312 19.27875 
" style="fill: none; stroke: #000000; stroke-width: 0.8; stroke-linejoin: miter; stroke-linecap: square"/>
   </g>
   <g id="text_8">
    <!-- eps. 4 -->
    <g transform="translate(289.157528 13.27875)scale(0.08 -0.08)">
     <defs>
      <path id="DejaVuSans-34" d="M 2419 4116 
L 825 1625 
L 2419 1625 
L 2419 4116 
z
M 2253 4666 
L 3047 4666 
L 3047 1625 
L 3713 1625 
L 3713 1100 
L 3047 1100 
L 3047 0 
L 2419 0 
L 2419 1100 
L 313 1100 
L 313 1709 
L 2253 4666 
z
" transform="scale(0.015625)"/>
     </defs>
     <use xlink:href="#DejaVuSans-65"/>
     <use xlink:href="#DejaVuSans-70" x="61.523438"/>
     <use xlink:href="#DejaVuSans-73" x="125"/>
     <use xlink:href="#DejaVuSans-2e" x="177.099609"/>
     <use xlink:href="#DejaVuSans-20" x="208.886719"/>
     <use xlink:href="#DejaVuSans-34" x="240.673828"/>
    </g>
   </g>
  </g>
  <g id="axes_3">
   <g id="patch_13">
    <path d="M 42.620313 185.59875 
L 194.802131 185.59875 
L 194.802131 109.99875 
L 42.620313 109.99875 
z
" style="fill: #ffffff"/>
   </g>
   <g id="matplotlib.axis_5">
    <g id="xtick_11">
     <g id="line2d_23">
      <g>
       <use xlink:href="#m24645274e9" x="42.620313" y="185.59875" style="stroke: #000000; stroke-width: 0.8"/>
      </g>
     </g>
     <g id="text_9">
      <!-- 0 -->
      <g transform="translate(39.439063 200.197188)scale(0.1 -0.1)">
       <use xlink:href="#DejaVuSans-30"/>
      </g>
     </g>
    </g>
    <g id="xtick_12">
     <g id="line2d_24">
      <g>
       <use xlink:href="#m24645274e9" x="80.665767" y="185.59875" style="stroke: #000000; stroke-width: 0.8"/>
      </g>
     </g>
     <g id="text_10">
      <!-- 100 -->
      <g transform="translate(71.122017 200.197188)scale(0.1 -0.1)">
       <use xlink:href="#DejaVuSans-31"/>
       <use xlink:href="#DejaVuSans-30" x="63.623047"/>
       <use xlink:href="#DejaVuSans-30" x="127.246094"/>
      </g>
     </g>
    </g>
    <g id="xtick_13">
     <g id="line2d_25">
      <g>
       <use xlink:href="#m24645274e9" x="118.711222" y="185.59875" style="stroke: #000000; stroke-width: 0.8"/>
      </g>
     </g>
     <g id="text_11">
      <!-- 200 -->
      <g transform="translate(109.167472 200.197188)scale(0.1 -0.1)">
       <defs>
        <path id="DejaVuSans-32" d="M 1228 531 
L 3431 531 
L 3431 0 
L 469 0 
L 469 531 
Q 828 903 1448 1529 
Q 2069 2156 2228 2338 
Q 2531 2678 2651 2914 
Q 2772 3150 2772 3378 
Q 2772 3750 2511 3984 
Q 2250 4219 1831 4219 
Q 1534 4219 1204 4116 
Q 875 4013 500 3803 
L 500 4441 
Q 881 4594 1212 4672 
Q 1544 4750 1819 4750 
Q 2544 4750 2975 4387 
Q 3406 4025 3406 3419 
Q 3406 3131 3298 2873 
Q 3191 2616 2906 2266 
Q 2828 2175 2409 1742 
Q 1991 1309 1228 531 
z
" transform="scale(0.015625)"/>
       </defs>
       <use xlink:href="#DejaVuSans-32"/>
       <use xlink:href="#DejaVuSans-30" x="63.623047"/>
       <use xlink:href="#DejaVuSans-30" x="127.246094"/>
      </g>
     </g>
    </g>
    <g id="xtick_14">
     <g id="line2d_26">
      <g>
       <use xlink:href="#m24645274e9" x="156.756676" y="185.59875" style="stroke: #000000; stroke-width: 0.8"/>
      </g>
     </g>
     <g id="text_12">
      <!-- 300 -->
      <g transform="translate(147.212926 200.197188)scale(0.1 -0.1)">
       <defs>
        <path id="DejaVuSans-33" d="M 2597 2516 
Q 3050 2419 3304 2112 
Q 3559 1806 3559 1356 
Q 3559 666 3084 287 
Q 2609 -91 1734 -91 
Q 1441 -91 1130 -33 
Q 819 25 488 141 
L 488 750 
Q 750 597 1062 519 
Q 1375 441 1716 441 
Q 2309 441 2620 675 
Q 2931 909 2931 1356 
Q 2931 1769 2642 2001 
Q 2353 2234 1838 2234 
L 1294 2234 
L 1294 2753 
L 1863 2753 
Q 2328 2753 2575 2939 
Q 2822 3125 2822 3475 
Q 2822 3834 2567 4026 
Q 2313 4219 1838 4219 
Q 1578 4219 1281 4162 
Q 984 4106 628 3988 
L 628 4550 
Q 988 4650 1302 4700 
Q 1616 4750 1894 4750 
Q 2613 4750 3031 4423 
Q 3450 4097 3450 3541 
Q 3450 3153 3228 2886 
Q 3006 2619 2597 2516 
z
" transform="scale(0.015625)"/>
       </defs>
       <use xlink:href="#DejaVuSans-33"/>
       <use xlink:href="#DejaVuSans-30" x="63.623047"/>
       <use xlink:href="#DejaVuSans-30" x="127.246094"/>
      </g>
     </g>
    </g>
    <g id="xtick_15">
     <g id="line2d_27">
      <g>
       <use xlink:href="#m24645274e9" x="194.802131" y="185.59875" style="stroke: #000000; stroke-width: 0.8"/>
      </g>
     </g>
     <g id="text_13">
      <!-- 400 -->
      <g transform="translate(185.258381 200.197188)scale(0.1 -0.1)">
       <use xlink:href="#DejaVuSans-34"/>
       <use xlink:href="#DejaVuSans-30" x="63.623047"/>
       <use xlink:href="#DejaVuSans-30" x="127.246094"/>
      </g>
     </g>
    </g>
    <g id="text_14">
     <!-- interaction -->
     <g transform="translate(91.670597 213.875313)scale(0.1 -0.1)">
      <defs>
       <path id="DejaVuSans-69" d="M 603 3500 
L 1178 3500 
L 1178 0 
L 603 0 
L 603 3500 
z
M 603 4863 
L 1178 4863 
L 1178 4134 
L 603 4134 
L 603 4863 
z
" transform="scale(0.015625)"/>
       <path id="DejaVuSans-6e" d="M 3513 2113 
L 3513 0 
L 2938 0 
L 2938 2094 
Q 2938 2591 2744 2837 
Q 2550 3084 2163 3084 
Q 1697 3084 1428 2787 
Q 1159 2491 1159 1978 
L 1159 0 
L 581 0 
L 581 3500 
L 1159 3500 
L 1159 2956 
Q 1366 3272 1645 3428 
Q 1925 3584 2291 3584 
Q 2894 3584 3203 3211 
Q 3513 2838 3513 2113 
z
" transform="scale(0.015625)"/>
       <path id="DejaVuSans-74" d="M 1172 4494 
L 1172 3500 
L 2356 3500 
L 2356 3053 
L 1172 3053 
L 1172 1153 
Q 1172 725 1289 603 
Q 1406 481 1766 481 
L 2356 481 
L 2356 0 
L 1766 0 
Q 1100 0 847 248 
Q 594 497 594 1153 
L 594 3053 
L 172 3053 
L 172 3500 
L 594 3500 
L 594 4494 
L 1172 4494 
z
" transform="scale(0.015625)"/>
       <path id="DejaVuSans-72" d="M 2631 2963 
Q 2534 3019 2420 3045 
Q 2306 3072 2169 3072 
Q 1681 3072 1420 2755 
Q 1159 2438 1159 1844 
L 1159 0 
L 581 0 
L 581 3500 
L 1159 3500 
L 1159 2956 
Q 1341 3275 1631 3429 
Q 1922 3584 2338 3584 
Q 2397 3584 2469 3576 
Q 2541 3569 2628 3553 
L 2631 2963 
z
" transform="scale(0.015625)"/>
       <path id="DejaVuSans-61" d="M 2194 1759 
Q 1497 1759 1228 1600 
Q 959 1441 959 1056 
Q 959 750 1161 570 
Q 1363 391 1709 391 
Q 2188 391 2477 730 
Q 2766 1069 2766 1631 
L 2766 1759 
L 2194 1759 
z
M 3341 1997 
L 3341 0 
L 2766 0 
L 2766 531 
Q 2569 213 2275 61 
Q 1981 -91 1556 -91 
Q 1019 -91 701 211 
Q 384 513 384 1019 
Q 384 1609 779 1909 
Q 1175 2209 1959 2209 
L 2766 2209 
L 2766 2266 
Q 2766 2663 2505 2880 
Q 2244 3097 1772 3097 
Q 1472 3097 1187 3025 
Q 903 2953 641 2809 
L 641 3341 
Q 956 3463 1253 3523 
Q 1550 3584 1831 3584 
Q 2591 3584 2966 3190 
Q 3341 2797 3341 1997 
z
" transform="scale(0.015625)"/>
       <path id="DejaVuSans-63" d="M 3122 3366 
L 3122 2828 
Q 2878 2963 2633 3030 
Q 2388 3097 2138 3097 
Q 1578 3097 1268 2742 
Q 959 2388 959 1747 
Q 959 1106 1268 751 
Q 1578 397 2138 397 
Q 2388 397 2633 464 
Q 2878 531 3122 666 
L 3122 134 
Q 2881 22 2623 -34 
Q 2366 -91 2075 -91 
Q 1284 -91 818 406 
Q 353 903 353 1747 
Q 353 2603 823 3093 
Q 1294 3584 2113 3584 
Q 2378 3584 2631 3529 
Q 2884 3475 3122 3366 
z
" transform="scale(0.015625)"/>
       <path id="DejaVuSans-6f" d="M 1959 3097 
Q 1497 3097 1228 2736 
Q 959 2375 959 1747 
Q 959 1119 1226 758 
Q 1494 397 1959 397 
Q 2419 397 2687 759 
Q 2956 1122 2956 1747 
Q 2956 2369 2687 2733 
Q 2419 3097 1959 3097 
z
M 1959 3584 
Q 2709 3584 3137 3096 
Q 3566 2609 3566 1747 
Q 3566 888 3137 398 
Q 2709 -91 1959 -91 
Q 1206 -91 779 398 
Q 353 888 353 1747 
Q 353 2609 779 3096 
Q 1206 3584 1959 3584 
z
" transform="scale(0.015625)"/>
      </defs>
      <use xlink:href="#DejaVuSans-69"/>
      <use xlink:href="#DejaVuSans-6e" x="27.783203"/>
      <use xlink:href="#DejaVuSans-74" x="91.162109"/>
      <use xlink:href="#DejaVuSans-65" x="130.371094"/>
      <use xlink:href="#DejaVuSans-72" x="191.894531"/>
      <use xlink:href="#DejaVuSans-61" x="233.007812"/>
      <use xlink:href="#DejaVuSans-63" x="294.287109"/>
      <use xlink:href="#DejaVuSans-74" x="349.267578"/>
      <use xlink:href="#DejaVuSans-69" x="388.476562"/>
      <use xlink:href="#DejaVuSans-6f" x="416.259766"/>
      <use xlink:href="#DejaVuSans-6e" x="477.441406"/>
     </g>
    </g>
   </g>
   <g id="matplotlib.axis_6">
    <g id="ytick_7">
     <g id="line2d_28">
      <g>
       <use xlink:href="#m9253147ca1" x="42.620313" y="174.282072" style="stroke: #000000; stroke-width: 0.8"/>
      </g>
     </g>
     <g id="text_15">
      <!-- −1 -->
      <g transform="translate(20.878125 178.081291)scale(0.1 -0.1)">
       <use xlink:href="#DejaVuSans-2212"/>
       <use xlink:href="#DejaVuSans-31" x="83.789062"/>
      </g>
     </g>
    </g>
    <g id="ytick_8">
     <g id="line2d_29">
      <g>
       <use xlink:href="#m9253147ca1" x="42.620313" y="147.304058" style="stroke: #000000; stroke-width: 0.8"/>
      </g>
     </g>
     <g id="text_16">
      <!-- 0 -->
      <g transform="translate(29.257813 151.103277)scale(0.1 -0.1)">
       <use xlink:href="#DejaVuSans-30"/>
      </g>
     </g>
    </g>
    <g id="ytick_9">
     <g id="line2d_30">
      <g>
       <use xlink:href="#m9253147ca1" x="42.620313" y="120.326045" style="stroke: #000000; stroke-width: 0.8"/>
      </g>
     </g>
     <g id="text_17">
      <!-- 1 -->
      <g transform="translate(29.257813 124.125264)scale(0.1 -0.1)">
       <use xlink:href="#DejaVuSans-31"/>
      </g>
     </g>
    </g>
    <g id="text_18">
     <!-- $c_l$ -->
     <g transform="translate(14.798438 151.69875)rotate(-90)scale(0.1 -0.1)">
      <use xlink:href="#DejaVuSans-Oblique-63"/>
      <use xlink:href="#DejaVuSans-Oblique-6c" transform="translate(54.980469 -16.40625)scale(0.7)"/>
     </g>
    </g>
   </g>
   <g id="line2d_31">
    <path d="M 42.620313 124.292851 
L 43.381222 123.748698 
L 43.761676 125.2602 
L 44.142131 127.2848 
L 45.283494 136.049382 
L 47.946676 166.553829 
L 49.08804 173.729968 
L 49.468494 174.411077 
L 49.848949 174.576289 
L 50.609858 173.164852 
L 50.990313 171.867082 
L 52.131676 163.093222 
L 52.892585 154.770771 
L 53.27304 151.348865 
L 54.414403 138.006519 
L 55.936222 124.599983 
L 56.316676 122.477142 
L 56.697131 121.676667 
L 57.077585 121.636364 
L 57.45804 122.286907 
L 57.838494 123.641126 
L 58.218949 125.852978 
L 59.360312 136.431603 
L 60.501676 148.688908 
L 60.882131 153.952257 
L 62.403949 167.912513 
L 62.784403 169.103285 
L 63.164858 170.724359 
L 63.545313 171.161912 
L 63.925767 170.526609 
L 64.306222 170.134247 
L 64.686676 169.323665 
L 66.588949 154.334127 
L 68.110767 138.109855 
L 69.632585 128.178678 
L 70.01304 126.493108 
L 70.393494 125.843921 
L 70.773949 126.358664 
L 71.154403 127.498325 
L 71.534858 129.186238 
L 71.915312 130.32839 
L 72.295767 131.890409 
L 73.056676 137.652766 
L 73.817585 144.997575 
L 74.19804 149.736438 
L 76.100313 164.913613 
L 77.622131 168.650062 
L 78.002585 168.496658 
L 78.763494 164.353447 
L 80.285313 151.482495 
L 81.426676 140.956265 
L 82.56804 130.551147 
L 82.948494 129.483489 
L 83.328949 127.86217 
L 83.709403 126.753265 
L 84.089858 126.094059 
L 84.470313 126.721342 
L 85.992131 134.428502 
L 86.372585 137.450913 
L 88.274858 157.584312 
L 89.416222 167.433075 
L 89.796676 170.015096 
L 90.177131 171.594958 
L 90.93804 173.365279 
L 91.318494 173.269033 
L 92.079403 169.91254 
L 92.459858 168.280913 
L 96.264403 133.130373 
L 96.644858 131.210358 
L 97.025312 130.072167 
L 97.786222 127.234641 
L 98.166676 127.810947 
L 98.547131 129.612394 
L 100.068949 139.742438 
L 100.449403 143.4551 
L 101.210312 152.613896 
L 101.971222 160.965157 
L 102.351676 165.831277 
L 103.49304 175.36603 
L 103.873494 177.035572 
L 104.253949 178.108482 
L 104.634403 178.359565 
L 105.014858 177.457773 
L 105.395312 175.591317 
L 106.156222 170.015017 
L 106.917131 162.707666 
L 108.438949 145.280461 
L 109.199858 136.083129 
L 110.341222 128.083473 
L 111.102131 125.061654 
L 111.482585 124.294666 
L 112.243494 126.80709 
L 113.384858 133.340919 
L 114.145767 140.59683 
L 115.667585 156.644501 
L 116.808949 165.62381 
L 117.569858 170.507233 
L 117.950312 170.576099 
L 118.330767 169.863084 
L 118.711222 169.533186 
L 119.091676 167.652728 
L 120.23304 159.487839 
L 121.754858 142.097274 
L 122.515767 132.367706 
L 123.276676 124.44556 
L 124.037585 118.954189 
L 124.798494 116.603882 
L 125.178949 116.875416 
L 125.559403 117.333925 
L 125.939858 118.424818 
L 126.700767 123.293648 
L 127.461676 129.755179 
L 128.222585 138.91493 
L 129.363949 150.011017 
L 130.124858 156.838053 
L 130.885767 161.802049 
L 131.646676 164.65268 
L 132.027131 165.474536 
L 132.407585 165.398815 
L 132.78804 164.702898 
L 133.168494 163.712747 
L 133.548949 161.901207 
L 134.309858 155.974929 
L 134.690312 153.30319 
L 137.353494 128.525795 
L 137.733949 125.355374 
L 138.114403 124.088214 
L 138.875312 123.441865 
L 140.016676 126.351201 
L 140.397131 128.267865 
L 141.918949 141.353614 
L 143.060312 153.396511 
L 144.201676 162.706463 
L 144.962585 166.873522 
L 145.34304 168.612504 
L 145.723494 169.75502 
L 146.103949 169.925492 
L 146.484403 169.793885 
L 146.864858 169.10848 
L 148.006222 163.417395 
L 148.767131 158.892962 
L 151.049858 138.173249 
L 151.810767 134.012207 
L 152.571676 129.502068 
L 153.332585 127.998981 
L 153.71304 128.282141 
L 154.473949 130.909834 
L 155.995767 138.334037 
L 157.137131 147.016236 
L 157.517585 149.219051 
L 158.278494 154.944418 
L 159.039403 158.745355 
L 159.419858 159.822377 
L 160.180767 160.783662 
L 160.561222 161.298457 
L 160.941676 161.381825 
L 161.322131 161.271402 
L 162.843949 155.237112 
L 164.365767 145.604941 
L 165.887585 135.702655 
L 166.26804 133.795922 
L 167.028949 132.071847 
L 167.409403 131.937253 
L 167.789858 132.121558 
L 168.170312 132.845853 
L 168.550767 133.884825 
L 169.692131 139.80838 
L 171.213949 152.549466 
L 171.974858 157.144893 
L 172.735767 162.257501 
L 173.496676 164.912079 
L 173.877131 165.761769 
L 174.63804 166.855537 
L 175.018494 166.528939 
L 176.159858 162.940215 
L 177.301222 156.372456 
L 178.442585 147.886111 
L 178.82304 146.100856 
L 179.583949 140.783995 
L 180.344858 137.682263 
L 180.725312 136.742827 
L 181.105767 136.269863 
L 181.866676 136.133047 
L 182.247131 136.317105 
L 183.768949 143.147643 
L 184.149403 145.929517 
L 184.910312 149.84341 
L 187.19304 164.222774 
L 187.573494 165.905562 
L 188.334403 167.912544 
L 188.714858 168.131429 
L 189.095312 167.308434 
L 189.856222 166.769694 
L 190.236676 165.090524 
L 191.37804 158.527954 
L 192.138949 152.263616 
L 192.519403 150.428909 
L 193.660767 141.395721 
L 194.041222 139.524335 
L 194.421676 138.375241 
L 194.421676 138.375241 
" clip-path="url(#p664883e5a1)" style="fill: none; stroke: #1f77b4; stroke-linecap: square"/>
   </g>
   <g id="line2d_32">
    <path d="M 42.620313 124.292851 
L 43.000767 123.304581 
L 43.381222 123.293294 
L 43.761676 123.662566 
L 44.142131 125.54908 
L 44.90304 131.417298 
L 45.663949 137.003222 
L 47.185767 153.309185 
L 47.946676 159.582595 
L 48.707585 166.376811 
L 49.468494 169.808524 
L 49.848949 171.020684 
L 50.229403 171.801617 
L 50.609858 171.826108 
L 52.131676 165.183682 
L 52.892585 158.626951 
L 53.653494 150.379012 
L 54.794858 140.619378 
L 55.555767 135.380948 
L 55.936222 132.902485 
L 56.316676 131.514135 
L 57.077585 129.925648 
L 57.45804 130.64203 
L 57.838494 131.833283 
L 58.218949 133.718178 
L 59.360312 142.075313 
L 60.121222 149.335066 
L 60.882131 156.948182 
L 61.64304 164.94346 
L 62.403949 171.458583 
L 63.164858 175.733992 
L 63.545313 177.153516 
L 63.925767 177.787892 
L 64.306222 177.092795 
L 65.067131 174.483162 
L 65.447585 172.343884 
L 66.208494 165.781874 
L 67.349858 154.040851 
L 68.491222 141.989646 
L 69.632585 132.882541 
L 70.393494 129.412496 
L 71.154403 127.226011 
L 71.534858 127.291487 
L 71.915312 127.993614 
L 72.295767 129.201937 
L 73.437131 135.098926 
L 73.817585 137.55929 
L 76.480767 160.147426 
L 77.241676 165.357478 
L 78.002585 167.548648 
L 78.38304 168.54342 
L 78.763494 168.123489 
L 79.143949 167.171405 
L 79.524403 166.521798 
L 81.426676 154.801726 
L 82.948494 142.489763 
L 84.089858 134.98392 
L 84.470313 133.410125 
L 84.850767 132.630745 
L 85.231222 132.615221 
L 85.611676 132.215196 
L 85.992131 132.539068 
L 86.75304 134.277524 
L 88.274858 143.940232 
L 90.177131 159.537942 
L 90.93804 164.822614 
L 92.079403 168.406306 
L 92.459858 168.457583 
L 93.220767 167.434328 
L 93.601222 166.354822 
L 94.742585 159.658898 
L 95.503494 154.289184 
L 96.264403 149.814609 
L 97.025312 144.811784 
L 98.166676 138.7559 
L 98.927585 137.16921 
L 99.30804 137.077554 
L 99.688494 136.676156 
L 100.068949 136.769983 
L 100.449403 137.023393 
L 100.829858 137.530958 
L 102.732131 144.374745 
L 104.253949 151.309281 
L 104.634403 152.313778 
L 105.395312 155.96675 
L 105.775767 156.924543 
L 106.156222 157.072736 
L 106.536676 157.085742 
L 107.297585 156.292373 
L 107.67804 156.364708 
L 108.058494 155.239306 
L 109.960767 147.334729 
L 110.341222 145.317323 
L 110.721676 142.643078 
L 111.102131 141.051701 
L 111.86304 139.239265 
L 112.623949 136.029874 
L 113.004403 135.966653 
L 113.384858 135.751248 
L 113.765312 136.302376 
L 114.906676 139.480423 
L 116.04804 144.432981 
L 116.808949 150.672813 
L 119.091676 160.773565 
L 119.472131 161.488909 
L 119.852585 161.865245 
L 120.23304 161.93158 
L 120.613494 161.60786 
L 121.374403 159.392027 
L 122.515767 155.199578 
L 122.896222 152.355862 
L 123.276676 150.490928 
L 124.41804 143.547704 
L 124.798494 142.265117 
L 125.559403 138.324332 
L 125.939858 137.739623 
L 126.700767 135.579759 
L 127.081222 135.964594 
L 127.842131 136.223395 
L 128.222585 136.906948 
L 129.363949 141.427575 
L 130.505312 145.563229 
L 131.646676 151.901134 
L 132.407585 154.056935 
L 132.78804 155.389606 
L 133.168494 155.906331 
L 133.929403 158.023798 
L 134.309858 158.429718 
L 134.690312 157.630516 
L 135.070767 156.277304 
L 135.451222 155.695104 
L 135.831676 154.633721 
L 136.97304 149.905589 
L 137.733949 144.723098 
L 138.114403 142.167857 
L 138.494858 140.574771 
L 138.875312 138.258406 
L 139.636222 135.645929 
L 140.016676 134.776786 
L 140.777585 132.592821 
L 141.15804 133.272462 
L 141.538494 134.212769 
L 142.679858 138.495294 
L 143.440767 142.945429 
L 144.582131 151.411192 
L 145.34304 156.677122 
L 145.723494 158.345462 
L 146.103949 160.954902 
L 146.484403 162.76066 
L 147.245312 164.835827 
L 148.006222 165.005643 
L 148.386676 164.562092 
L 149.147585 163.266976 
L 149.52804 161.548084 
L 150.288949 157.476924 
L 150.669403 155.640037 
L 151.810767 147.005534 
L 152.571676 143.153868 
L 153.332585 138.128747 
L 153.71304 137.084826 
L 154.093494 136.468089 
L 154.854403 134.475584 
L 155.234858 134.673578 
L 156.376222 136.835786 
L 156.756676 137.976274 
L 157.137131 140.195636 
L 157.89804 143.19552 
L 158.658949 147.251368 
L 159.039403 149.023814 
L 159.419858 151.64989 
L 160.180767 154.574185 
L 160.561222 155.555939 
L 161.322131 156.746867 
L 161.702585 156.708777 
L 162.08304 157.108571 
L 162.463494 156.566561 
L 163.224403 153.658182 
L 163.604858 152.650266 
L 166.648494 135.68119 
L 167.789858 130.968927 
L 168.550767 129.867617 
L 168.931222 129.487922 
L 169.311676 129.954842 
L 170.072585 132.026751 
L 170.833494 135.148787 
L 171.974858 140.991012 
L 172.735767 146.457857 
L 174.257585 156.766246 
L 174.63804 157.852233 
L 175.398949 161.598313 
L 175.779403 161.405746 
L 176.159858 161.73055 
L 176.540312 162.314523 
L 176.920767 161.012397 
L 177.301222 160.294097 
L 177.681676 158.853603 
L 178.062131 156.259795 
L 178.82304 152.53163 
L 179.583949 147.164469 
L 179.964403 145.383134 
L 181.105767 138.149695 
L 182.247131 133.541683 
L 182.627585 132.796491 
L 183.00804 132.725886 
L 183.388494 133.070607 
L 183.768949 133.663381 
L 184.910312 137.563048 
L 185.671222 142.281908 
L 187.19304 151.785972 
L 187.573494 154.549832 
L 188.714858 158.770102 
L 189.095312 158.892053 
L 189.475767 159.394946 
L 189.856222 159.646122 
L 190.617131 158.706988 
L 192.519403 152.083657 
L 193.660767 147.728028 
L 194.421676 144.123356 
L 194.421676 144.123356 
" clip-path="url(#p664883e5a1)" style="fill: none; stroke: #ff7f0e; stroke-linecap: square"/>
   </g>
   <g id="patch_14">
    <path d="M 42.620313 185.59875 
L 42.620313 109.99875 
" style="fill: none; stroke: #000000; stroke-width: 0.8; stroke-linejoin: miter; stroke-linecap: square"/>
   </g>
   <g id="patch_15">
    <path d="M 194.802131 185.59875 
L 194.802131 109.99875 
" style="fill: none; stroke: #000000; stroke-width: 0.8; stroke-linejoin: miter; stroke-linecap: square"/>
   </g>
   <g id="patch_16">
    <path d="M 42.620313 185.59875 
L 194.802131 185.59875 
" style="fill: none; stroke: #000000; stroke-width: 0.8; stroke-linejoin: miter; stroke-linecap: square"/>
   </g>
   <g id="patch_17">
    <path d="M 42.620313 109.99875 
L 194.802131 109.99875 
" style="fill: none; stroke: #000000; stroke-width: 0.8; stroke-linejoin: miter; stroke-linecap: square"/>
   </g>
   <g id="text_19">
    <!-- eps. 8 -->
    <g transform="translate(106.539347 103.99875)scale(0.08 -0.08)">
     <defs>
      <path id="DejaVuSans-38" d="M 2034 2216 
Q 1584 2216 1326 1975 
Q 1069 1734 1069 1313 
Q 1069 891 1326 650 
Q 1584 409 2034 409 
Q 2484 409 2743 651 
Q 3003 894 3003 1313 
Q 3003 1734 2745 1975 
Q 2488 2216 2034 2216 
z
M 1403 2484 
Q 997 2584 770 2862 
Q 544 3141 544 3541 
Q 544 4100 942 4425 
Q 1341 4750 2034 4750 
Q 2731 4750 3128 4425 
Q 3525 4100 3525 3541 
Q 3525 3141 3298 2862 
Q 3072 2584 2669 2484 
Q 3125 2378 3379 2068 
Q 3634 1759 3634 1313 
Q 3634 634 3220 271 
Q 2806 -91 2034 -91 
Q 1263 -91 848 271 
Q 434 634 434 1313 
Q 434 1759 690 2068 
Q 947 2378 1403 2484 
z
M 1172 3481 
Q 1172 3119 1398 2916 
Q 1625 2713 2034 2713 
Q 2441 2713 2670 2916 
Q 2900 3119 2900 3481 
Q 2900 3844 2670 4047 
Q 2441 4250 2034 4250 
Q 1625 4250 1398 4047 
Q 1172 3844 1172 3481 
z
" transform="scale(0.015625)"/>
     </defs>
     <use xlink:href="#DejaVuSans-65"/>
     <use xlink:href="#DejaVuSans-70" x="61.523438"/>
     <use xlink:href="#DejaVuSans-73" x="125"/>
     <use xlink:href="#DejaVuSans-2e" x="177.099609"/>
     <use xlink:href="#DejaVuSans-20" x="208.886719"/>
     <use xlink:href="#DejaVuSans-38" x="240.673828"/>
    </g>
   </g>
  </g>
  <g id="axes_4">
   <g id="patch_18">
    <path d="M 225.238494 185.59875 
L 377.420312 185.59875 
L 377.420312 109.99875 
L 225.238494 109.99875 
z
" style="fill: #ffffff"/>
   </g>
   <g id="matplotlib.axis_7">
    <g id="xtick_16">
     <g id="line2d_33">
      <g>
       <use xlink:href="#m24645274e9" x="225.238494" y="185.59875" style="stroke: #000000; stroke-width: 0.8"/>
      </g>
     </g>
     <g id="text_20">
      <!-- 0 -->
      <g transform="translate(222.057244 200.197188)scale(0.1 -0.1)">
       <use xlink:href="#DejaVuSans-30"/>
      </g>
     </g>
    </g>
    <g id="xtick_17">
     <g id="line2d_34">
      <g>
       <use xlink:href="#m24645274e9" x="263.283949" y="185.59875" style="stroke: #000000; stroke-width: 0.8"/>
      </g>
     </g>
     <g id="text_21">
      <!-- 100 -->
      <g transform="translate(253.740199 200.197188)scale(0.1 -0.1)">
       <use xlink:href="#DejaVuSans-31"/>
       <use xlink:href="#DejaVuSans-30" x="63.623047"/>
       <use xlink:href="#DejaVuSans-30" x="127.246094"/>
      </g>
     </g>
    </g>
    <g id="xtick_18">
     <g id="line2d_35">
      <g>
       <use xlink:href="#m24645274e9" x="301.329403" y="185.59875" style="stroke: #000000; stroke-width: 0.8"/>
      </g>
     </g>
     <g id="text_22">
      <!-- 200 -->
      <g transform="translate(291.785653 200.197188)scale(0.1 -0.1)">
       <use xlink:href="#DejaVuSans-32"/>
       <use xlink:href="#DejaVuSans-30" x="63.623047"/>
       <use xlink:href="#DejaVuSans-30" x="127.246094"/>
      </g>
     </g>
    </g>
    <g id="xtick_19">
     <g id="line2d_36">
      <g>
       <use xlink:href="#m24645274e9" x="339.374858" y="185.59875" style="stroke: #000000; stroke-width: 0.8"/>
      </g>
     </g>
     <g id="text_23">
      <!-- 300 -->
      <g transform="translate(329.831108 200.197188)scale(0.1 -0.1)">
       <use xlink:href="#DejaVuSans-33"/>
       <use xlink:href="#DejaVuSans-30" x="63.623047"/>
       <use xlink:href="#DejaVuSans-30" x="127.246094"/>
      </g>
     </g>
    </g>
    <g id="xtick_20">
     <g id="line2d_37">
      <g>
       <use xlink:href="#m24645274e9" x="377.420312" y="185.59875" style="stroke: #000000; stroke-width: 0.8"/>
      </g>
     </g>
     <g id="text_24">
      <!-- 400 -->
      <g transform="translate(367.876562 200.197188)scale(0.1 -0.1)">
       <use xlink:href="#DejaVuSans-34"/>
       <use xlink:href="#DejaVuSans-30" x="63.623047"/>
       <use xlink:href="#DejaVuSans-30" x="127.246094"/>
      </g>
     </g>
    </g>
    <g id="text_25">
     <!-- interaction -->
     <g transform="translate(274.288778 213.875313)scale(0.1 -0.1)">
      <use xlink:href="#DejaVuSans-69"/>
      <use xlink:href="#DejaVuSans-6e" x="27.783203"/>
      <use xlink:href="#DejaVuSans-74" x="91.162109"/>
      <use xlink:href="#DejaVuSans-65" x="130.371094"/>
      <use xlink:href="#DejaVuSans-72" x="191.894531"/>
      <use xlink:href="#DejaVuSans-61" x="233.007812"/>
      <use xlink:href="#DejaVuSans-63" x="294.287109"/>
      <use xlink:href="#DejaVuSans-74" x="349.267578"/>
      <use xlink:href="#DejaVuSans-69" x="388.476562"/>
      <use xlink:href="#DejaVuSans-6f" x="416.259766"/>
      <use xlink:href="#DejaVuSans-6e" x="477.441406"/>
     </g>
    </g>
   </g>
   <g id="matplotlib.axis_8">
    <g id="ytick_10">
     <g id="line2d_38">
      <g>
       <use xlink:href="#m9253147ca1" x="225.238494" y="174.282072" style="stroke: #000000; stroke-width: 0.8"/>
      </g>
     </g>
    </g>
    <g id="ytick_11">
     <g id="line2d_39">
      <g>
       <use xlink:href="#m9253147ca1" x="225.238494" y="147.304058" style="stroke: #000000; stroke-width: 0.8"/>
      </g>
     </g>
    </g>
    <g id="ytick_12">
     <g id="line2d_40">
      <g>
       <use xlink:href="#m9253147ca1" x="225.238494" y="120.326045" style="stroke: #000000; stroke-width: 0.8"/>
      </g>
     </g>
    </g>
   </g>
   <g id="line2d_41">
    <path d="M 225.238494 124.292851 
L 225.999403 123.939668 
L 226.379858 125.335461 
L 226.760312 127.202365 
L 227.901676 135.989218 
L 230.564858 166.501451 
L 231.706222 173.863962 
L 232.086676 174.855558 
L 232.467131 175.396191 
L 233.22804 174.274915 
L 233.608494 173.153951 
L 234.749858 164.841995 
L 235.510767 156.681067 
L 235.891222 153.305555 
L 237.032585 139.76381 
L 238.554403 125.714057 
L 238.934858 123.487679 
L 239.315312 122.681983 
L 239.695767 122.680214 
L 240.076222 123.12322 
L 240.456676 123.955358 
L 240.837131 125.963993 
L 241.978494 136.355797 
L 243.119858 148.153885 
L 243.500312 153.288411 
L 245.022131 166.927083 
L 245.402585 168.164408 
L 245.78304 169.958708 
L 246.163494 170.751746 
L 246.924403 170.40427 
L 247.304858 169.89971 
L 249.207131 156.852811 
L 250.728949 141.574695 
L 252.250767 130.927622 
L 252.631222 128.972217 
L 253.011676 128.093395 
L 253.392131 128.226339 
L 253.772585 128.8461 
L 254.15304 129.839788 
L 254.533494 130.386592 
L 254.913949 131.447078 
L 255.294403 133.497583 
L 256.055312 139.192782 
L 257.196676 149.841214 
L 257.577131 152.290926 
L 258.33804 159.244957 
L 258.718494 161.446487 
L 259.098949 162.680147 
L 259.859858 165.799655 
L 260.240312 166.899462 
L 260.620767 167.170787 
L 261.381676 164.475048 
L 262.903494 154.224667 
L 265.186222 135.225429 
L 265.566676 134.142631 
L 266.327585 131.042283 
L 266.70804 129.928373 
L 267.088494 129.804676 
L 268.229858 132.430879 
L 268.610312 133.941283 
L 268.990767 136.009906 
L 272.034403 160.559307 
L 272.795312 165.1178 
L 273.556222 167.992265 
L 273.936676 168.601152 
L 274.317131 167.699515 
L 275.07804 166.787318 
L 276.219403 160.266389 
L 277.360767 152.052441 
L 278.121676 146.545459 
L 278.882585 140.437906 
L 279.26304 138.503546 
L 279.643494 137.246547 
L 280.404403 133.257168 
L 280.784858 132.75481 
L 281.165312 133.10516 
L 281.545767 134.022319 
L 281.926222 134.61969 
L 282.687131 136.819988 
L 283.067585 138.867981 
L 283.828494 144.652513 
L 284.208949 146.957581 
L 285.350312 156.654064 
L 286.491676 164.701677 
L 286.872131 166.40742 
L 287.252585 167.58626 
L 287.63304 167.93439 
L 288.013494 167.660092 
L 288.393949 167.061538 
L 289.154858 164.957125 
L 290.296222 158.812022 
L 292.959403 141.88872 
L 294.100767 137.315814 
L 294.481222 137.177601 
L 294.861676 136.888695 
L 296.00304 137.186885 
L 296.383494 138.06904 
L 297.524858 142.577191 
L 298.285767 146.546014 
L 298.666222 148.255791 
L 299.046676 150.47951 
L 299.427131 152.035216 
L 300.18804 156.525316 
L 300.568494 157.354551 
L 300.948949 157.816653 
L 301.329403 158.75288 
L 301.709858 158.706413 
L 302.090312 158.205166 
L 302.470767 158.36204 
L 302.851222 157.859639 
L 303.992585 154.24677 
L 306.275312 140.079265 
L 306.655767 138.019697 
L 307.036222 136.626051 
L 307.416676 134.645644 
L 308.55804 131.093353 
L 308.938494 130.762695 
L 309.318949 130.670717 
L 309.699403 131.03984 
L 310.079858 131.658668 
L 310.840767 134.486342 
L 311.601676 136.941766 
L 313.884403 151.384098 
L 315.025767 155.930092 
L 315.786676 157.687833 
L 316.167131 158.158397 
L 316.547585 158.423526 
L 316.92804 158.339127 
L 317.308494 158.013667 
L 318.069403 156.773135 
L 318.449858 155.763116 
L 319.591222 151.438274 
L 320.352131 149.170649 
L 321.493494 144.59379 
L 322.254403 143.230942 
L 322.634858 143.275213 
L 323.015312 143.187352 
L 323.395767 142.832791 
L 323.776222 143.1716 
L 324.917585 146.040596 
L 326.058949 150.759131 
L 327.200312 155.444173 
L 328.341676 157.79343 
L 328.722131 157.796926 
L 329.102585 157.431071 
L 329.48304 157.743748 
L 329.863494 157.516169 
L 331.004858 153.369479 
L 331.765767 150.20367 
L 332.907131 144.396114 
L 333.66804 140.76885 
L 334.428949 138.991471 
L 335.189858 136.744335 
L 335.570312 136.657388 
L 335.950767 136.348765 
L 336.331222 136.762343 
L 338.613949 143.966388 
L 339.374858 148.294751 
L 340.135767 150.850282 
L 340.896676 154.580202 
L 341.277131 156.038881 
L 341.657585 157.010742 
L 342.03804 157.663377 
L 343.179403 158.689391 
L 343.940313 158.886167 
L 344.320767 157.839743 
L 344.701222 157.180451 
L 345.462131 154.655989 
L 346.983949 147.218398 
L 348.505767 138.632551 
L 348.886222 136.839699 
L 349.647131 135.07025 
L 350.027585 134.788328 
L 350.40804 134.671749 
L 350.788494 135.034949 
L 351.168949 135.680051 
L 352.310312 140.156145 
L 354.973494 156.939586 
L 355.353949 158.85025 
L 356.114858 161.323822 
L 356.875767 162.664182 
L 357.256222 163.260209 
L 357.636676 163.191687 
L 358.77804 160.633197 
L 359.919403 155.125655 
L 361.060767 147.897263 
L 361.441222 146.345455 
L 362.202131 141.405937 
L 363.343494 137.627206 
L 363.723949 137.128261 
L 364.484858 136.73541 
L 364.865312 136.77041 
L 366.387131 142.37172 
L 366.767585 144.834149 
L 367.528494 148.100024 
L 368.289403 152.870918 
L 369.430767 159.680532 
L 370.191676 163.194008 
L 370.952585 165.361174 
L 371.33304 165.681586 
L 371.713494 165.227861 
L 372.474403 165.406979 
L 372.854858 164.159209 
L 373.996222 158.709458 
L 374.757131 153.48948 
L 375.137585 152.011361 
L 376.278949 143.747797 
L 376.659403 142.212621 
L 377.039858 141.398406 
L 377.039858 141.398406 
" clip-path="url(#p43cdfdc6ac)" style="fill: none; stroke: #1f77b4; stroke-linecap: square"/>
   </g>
   <g id="line2d_42">
    <path d="M 225.238494 124.292851 
L 225.618949 123.360799 
L 225.999403 123.445911 
L 226.379858 123.783176 
L 226.760312 125.428812 
L 228.662585 141.140574 
L 230.184403 155.928334 
L 231.706222 168.10481 
L 232.467131 171.192866 
L 232.847585 172.028355 
L 233.22804 172.243236 
L 233.988949 169.125905 
L 234.369403 167.950291 
L 234.749858 166.078206 
L 235.510767 159.425097 
L 236.271676 151.512344 
L 237.793494 138.489982 
L 238.934858 132.66173 
L 239.695767 131.112878 
L 240.076222 131.648028 
L 240.456676 132.613286 
L 240.837131 134.428736 
L 241.978494 142.592981 
L 242.739403 149.562738 
L 243.500312 156.817986 
L 244.261222 164.61355 
L 245.022131 171.178573 
L 245.78304 175.700093 
L 246.163494 177.256722 
L 246.543949 178.073165 
L 246.924403 177.708994 
L 247.685312 175.893965 
L 248.065767 174.132162 
L 248.826676 168.043899 
L 249.96804 157.236569 
L 251.870312 138.460745 
L 252.631222 133.055435 
L 253.772585 127.954322 
L 254.15304 127.343392 
L 254.533494 127.376329 
L 254.913949 127.932356 
L 255.674858 130.152661 
L 256.435767 133.85755 
L 257.196676 140.105661 
L 257.957585 146.81887 
L 258.718494 152.179166 
L 259.859858 160.79875 
L 261.001222 165.422775 
L 261.381676 165.889763 
L 262.142585 166.033404 
L 263.664403 160.882841 
L 264.425312 156.579707 
L 267.088494 138.67476 
L 267.468949 137.15809 
L 267.849403 136.339583 
L 268.229858 135.123426 
L 268.610312 134.455498 
L 269.371222 134.3199 
L 270.512585 138.214769 
L 271.273494 143.089185 
L 273.556222 158.845251 
L 274.317131 161.73934 
L 274.697585 163.576807 
L 275.07804 164.367913 
L 275.838949 164.947046 
L 276.219403 164.768222 
L 276.980312 162.524909 
L 277.741222 159.19663 
L 281.165312 143.939523 
L 281.545767 143.053336 
L 281.926222 142.548812 
L 282.306676 141.637198 
L 283.067585 140.816425 
L 283.44804 140.6747 
L 284.969858 143.199268 
L 285.350312 143.980861 
L 286.111222 146.26612 
L 286.491676 148.002578 
L 287.252585 149.879818 
L 288.393949 154.696474 
L 289.154858 155.900587 
L 289.915767 156.555679 
L 290.296222 157.37362 
L 290.676676 157.291731 
L 291.81804 155.375188 
L 292.578949 153.193554 
L 292.959403 151.729673 
L 293.339858 149.605963 
L 294.100767 147.160698 
L 294.481222 145.876685 
L 295.242131 141.573335 
L 296.383494 139.111138 
L 297.144403 138.713744 
L 297.524858 138.87002 
L 297.905312 139.408466 
L 298.666222 140.703331 
L 300.568494 149.441834 
L 301.329403 152.671082 
L 302.470767 156.010449 
L 303.231676 156.395044 
L 303.612131 156.967839 
L 303.992585 157.236962 
L 304.37304 156.819297 
L 305.133949 155.06719 
L 305.514403 154.495177 
L 305.894858 153.53325 
L 307.416676 148.018579 
L 307.797131 145.767227 
L 308.55804 142.957987 
L 308.938494 141.053922 
L 310.079858 138.922624 
L 310.460312 138.797821 
L 310.840767 139.192602 
L 311.221222 139.063918 
L 311.601676 139.75027 
L 311.982131 141.392548 
L 312.362585 142.263714 
L 312.74304 144.186497 
L 313.123494 147.028736 
L 313.884403 150.465543 
L 315.025767 157.317169 
L 315.786676 161.134024 
L 316.547585 163.725139 
L 317.308494 163.648352 
L 317.688949 164.573628 
L 318.069403 164.874527 
L 319.210767 162.277071 
L 319.971676 158.83205 
L 320.732585 156.173478 
L 321.493494 152.060011 
L 322.254403 147.838773 
L 322.634858 146.19239 
L 323.395767 142.306234 
L 323.776222 141.377861 
L 324.537131 138.439218 
L 325.29804 137.322792 
L 325.678494 137.301798 
L 326.439403 138.700534 
L 326.819858 138.738658 
L 327.200312 139.657073 
L 328.341676 145.211891 
L 328.722131 147.751125 
L 329.102585 148.691187 
L 331.004858 156.866253 
L 331.385312 157.91234 
L 331.765767 158.559525 
L 332.146222 158.754006 
L 332.526676 159.269749 
L 332.907131 158.902536 
L 333.287585 158.051417 
L 333.66804 157.763714 
L 334.048494 157.230002 
L 334.428949 156.261717 
L 335.189858 152.82671 
L 335.950767 149.331637 
L 336.331222 148.354507 
L 337.092131 144.09429 
L 338.613949 139.550072 
L 338.994403 139.540453 
L 339.374858 139.876418 
L 339.755312 139.95145 
L 340.135767 140.733946 
L 340.516222 141.187331 
L 340.896676 142.154073 
L 341.657585 145.252685 
L 342.03804 146.67045 
L 342.418494 148.824863 
L 343.559858 152.127186 
L 344.320767 153.43981 
L 344.701222 153.672405 
L 345.081676 154.283801 
L 345.462131 154.186143 
L 346.22304 152.542534 
L 346.603494 152.243095 
L 347.364403 150.850866 
L 347.744858 149.949573 
L 348.505767 147.004455 
L 349.266676 145.152748 
L 350.027585 143.272054 
L 351.549403 141.258246 
L 353.071222 143.172947 
L 353.451676 143.883603 
L 354.212585 146.84954 
L 356.114858 155.337325 
L 357.636676 160.553946 
L 358.017131 161.23023 
L 358.397585 161.656496 
L 358.77804 162.502916 
L 359.158494 162.558244 
L 359.538949 161.96457 
L 360.299858 161.315592 
L 361.441222 157.941177 
L 361.821676 155.841184 
L 362.582585 152.615105 
L 364.484858 142.492661 
L 364.865312 141.40919 
L 365.245767 139.751566 
L 365.626222 138.720099 
L 366.006676 139.094655 
L 366.767585 139.231597 
L 367.14804 139.684972 
L 367.528494 140.516604 
L 367.908949 141.905474 
L 368.289403 144.117984 
L 369.811222 149.789038 
L 370.572131 154.447941 
L 371.33304 156.138008 
L 371.713494 157.388708 
L 372.093949 157.396498 
L 372.474403 157.704132 
L 372.854858 157.863939 
L 373.235312 157.35779 
L 373.615767 157.056669 
L 374.757131 154.471328 
L 375.898494 150.615351 
L 376.659403 148.369109 
L 377.039858 146.984095 
L 377.039858 146.984095 
" clip-path="url(#p43cdfdc6ac)" style="fill: none; stroke: #ff7f0e; stroke-linecap: square"/>
   </g>
   <g id="patch_19">
    <path d="M 225.238494 185.59875 
L 225.238494 109.99875 
" style="fill: none; stroke: #000000; stroke-width: 0.8; stroke-linejoin: miter; stroke-linecap: square"/>
   </g>
   <g id="patch_20">
    <path d="M 377.420312 185.59875 
L 377.420312 109.99875 
" style="fill: none; stroke: #000000; stroke-width: 0.8; stroke-linejoin: miter; stroke-linecap: square"/>
   </g>
   <g id="patch_21">
    <path d="M 225.238494 185.59875 
L 377.420312 185.59875 
" style="fill: none; stroke: #000000; stroke-width: 0.8; stroke-linejoin: miter; stroke-linecap: square"/>
   </g>
   <g id="patch_22">
    <path d="M 225.238494 109.99875 
L 377.420312 109.99875 
" style="fill: none; stroke: #000000; stroke-width: 0.8; stroke-linejoin: miter; stroke-linecap: square"/>
   </g>
   <g id="text_26">
    <!-- eps. 12 -->
    <g transform="translate(286.612528 103.99875)scale(0.08 -0.08)">
     <use xlink:href="#DejaVuSans-65"/>
     <use xlink:href="#DejaVuSans-70" x="61.523438"/>
     <use xlink:href="#DejaVuSans-73" x="125"/>
     <use xlink:href="#DejaVuSans-2e" x="177.099609"/>
     <use xlink:href="#DejaVuSans-20" x="208.886719"/>
     <use xlink:href="#DejaVuSans-31" x="240.673828"/>
     <use xlink:href="#DejaVuSans-32" x="304.296875"/>
    </g>
   </g>
  </g>
 </g>
 <defs>
  <clipPath id="p08e92c8068">
   <rect x="42.620313" y="19.27875" width="152.181818" height="75.6"/>
  </clipPath>
  <clipPath id="p21b598760d">
   <rect x="225.238494" y="19.27875" width="152.181818" height="75.6"/>
  </clipPath>
  <clipPath id="p664883e5a1">
   <rect x="42.620313" y="109.99875" width="152.181818" height="75.6"/>
  </clipPath>
  <clipPath id="p43cdfdc6ac">
   <rect x="225.238494" y="109.99875" width="152.181818" height="75.6"/>
  </clipPath>
 </defs>
</svg>
