<?xml version="1.0" encoding="utf-8" standalone="no"?>
<!DOCTYPE svg PUBLIC "-//W3C//DTD SVG 1.1//EN"
  "http://www.w3.org/Graphics/SVG/1.1/DTD/svg11.dtd">
<svg xmlns:xlink="http://www.w3.org/1999/xlink" width="385.784375pt" height="223.155pt" viewBox="0 0 385.784375 223.155" xmlns="http://www.w3.org/2000/svg" version="1.1">
 <metadata>
  <rdf:RDF xmlns:dc="http://purl.org/dc/elements/1.1/" xmlns:cc="http://creativecommons.org/ns#" xmlns:rdf="http://www.w3.org/1999/02/22-rdf-syntax-ns#">
   <cc:Work>
    <dc:type rdf:resource="http://purl.org/dc/dcmitype/StillImage"/>
    <dc:date>2023-02-27T23:20:24.599103</dc:date>
    <dc:format>image/svg+xml</dc:format>
    <dc:creator>
     <cc:Agent>
      <dc:title>Matplotlib v3.5.1, https://matplotlib.org/</dc:title>
     </cc:Agent>
    </dc:creator>
   </cc:Work>
  </rdf:RDF>
 </metadata>
 <defs>
  <style type="text/css">*{stroke-linejoin: round; stroke-linecap: butt}</style>
 </defs>
 <g id="figure_1">
  <g id="patch_1">
   <path d="M 0 223.155 
L 385.784375 223.155 
L 385.784375 0 
L 0 0 
z
" style="fill: #ffffff"/>
  </g>
  <g id="axes_1">
   <g id="patch_2">
    <path d="M 34.240625 94.87875 
L 186.422443 94.87875 
L 186.422443 19.27875 
L 34.240625 19.27875 
z
" style="fill: #ffffff"/>
   </g>
   <g id="matplotlib.axis_1">
    <g id="xtick_1">
     <g id="line2d_1">
      <defs>
       <path id="ma299188b60" d="M 0 0 
L 0 3.5 
" style="stroke: #000000; stroke-width: 0.8"/>
      </defs>
      <g>
       <use xlink:href="#ma299188b60" x="34.240625" y="94.87875" style="stroke: #000000; stroke-width: 0.8"/>
      </g>
     </g>
    </g>
    <g id="xtick_2">
     <g id="line2d_2">
      <g>
       <use xlink:href="#ma299188b60" x="72.28608" y="94.87875" style="stroke: #000000; stroke-width: 0.8"/>
      </g>
     </g>
    </g>
    <g id="xtick_3">
     <g id="line2d_3">
      <g>
       <use xlink:href="#ma299188b60" x="110.331534" y="94.87875" style="stroke: #000000; stroke-width: 0.8"/>
      </g>
     </g>
    </g>
    <g id="xtick_4">
     <g id="line2d_4">
      <g>
       <use xlink:href="#ma299188b60" x="148.376989" y="94.87875" style="stroke: #000000; stroke-width: 0.8"/>
      </g>
     </g>
    </g>
    <g id="xtick_5">
     <g id="line2d_5">
      <g>
       <use xlink:href="#ma299188b60" x="186.422443" y="94.87875" style="stroke: #000000; stroke-width: 0.8"/>
      </g>
     </g>
    </g>
   </g>
   <g id="matplotlib.axis_2">
    <g id="ytick_1">
     <g id="line2d_6">
      <defs>
       <path id="m545a220a01" d="M 0 0 
L -3.5 0 
" style="stroke: #000000; stroke-width: 0.8"/>
      </defs>
      <g>
       <use xlink:href="#m545a220a01" x="34.240625" y="65.261688" style="stroke: #000000; stroke-width: 0.8"/>
      </g>
     </g>
     <g id="text_1">
      <!-- 0 -->
      <g transform="translate(20.878125 69.060906)scale(0.1 -0.1)">
       <defs>
        <path id="DejaVuSans-30" d="M 2034 4250 
Q 1547 4250 1301 3770 
Q 1056 3291 1056 2328 
Q 1056 1369 1301 889 
Q 1547 409 2034 409 
Q 2525 409 2770 889 
Q 3016 1369 3016 2328 
Q 3016 3291 2770 3770 
Q 2525 4250 2034 4250 
z
M 2034 4750 
Q 2819 4750 3233 4129 
Q 3647 3509 3647 2328 
Q 3647 1150 3233 529 
Q 2819 -91 2034 -91 
Q 1250 -91 836 529 
Q 422 1150 422 2328 
Q 422 3509 836 4129 
Q 1250 4750 2034 4750 
z
" transform="scale(0.015625)"/>
       </defs>
       <use xlink:href="#DejaVuSans-30"/>
      </g>
     </g>
    </g>
    <g id="ytick_2">
     <g id="line2d_7">
      <g>
       <use xlink:href="#m545a220a01" x="34.240625" y="21.044462" style="stroke: #000000; stroke-width: 0.8"/>
      </g>
     </g>
     <g id="text_2">
      <!-- 5 -->
      <g transform="translate(20.878125 24.843681)scale(0.1 -0.1)">
       <defs>
        <path id="DejaVuSans-35" d="M 691 4666 
L 3169 4666 
L 3169 4134 
L 1269 4134 
L 1269 2991 
Q 1406 3038 1543 3061 
Q 1681 3084 1819 3084 
Q 2600 3084 3056 2656 
Q 3513 2228 3513 1497 
Q 3513 744 3044 326 
Q 2575 -91 1722 -91 
Q 1428 -91 1123 -41 
Q 819 9 494 109 
L 494 744 
Q 775 591 1075 516 
Q 1375 441 1709 441 
Q 2250 441 2565 725 
Q 2881 1009 2881 1497 
Q 2881 1984 2565 2268 
Q 2250 2553 1709 2553 
Q 1456 2553 1204 2497 
Q 953 2441 691 2322 
L 691 4666 
z
" transform="scale(0.015625)"/>
       </defs>
       <use xlink:href="#DejaVuSans-35"/>
      </g>
     </g>
    </g>
    <g id="text_3">
     <!-- $A^{GAE}$ -->
     <g transform="translate(14.798437 68.32875)rotate(-90)scale(0.1 -0.1)">
      <defs>
       <path id="DejaVuSans-Oblique-41" d="M 2356 4666 
L 3072 4666 
L 3938 0 
L 3278 0 
L 3084 1197 
L 984 1197 
L 325 0 
L -341 0 
L 2356 4666 
z
M 2584 4044 
L 1275 1722 
L 2988 1722 
L 2584 4044 
z
" transform="scale(0.015625)"/>
       <path id="DejaVuSans-Oblique-47" d="M 3494 697 
L 3738 1919 
L 2700 1919 
L 2797 2438 
L 4453 2438 
L 4050 384 
Q 3634 156 3143 32 
Q 2653 -91 2156 -91 
Q 1278 -91 783 396 
Q 288 884 288 1753 
Q 288 2475 589 3126 
Q 891 3778 1422 4213 
Q 1756 4484 2153 4617 
Q 2550 4750 3034 4750 
Q 3472 4750 3873 4639 
Q 4275 4528 4641 4306 
L 4513 3634 
Q 4231 3928 3853 4083 
Q 3475 4238 3047 4238 
Q 2550 4238 2172 4048 
Q 1794 3859 1497 3463 
Q 1244 3125 1098 2667 
Q 953 2209 953 1734 
Q 953 1081 1287 751 
Q 1622 422 2284 422 
Q 2616 422 2925 492 
Q 3234 563 3494 697 
z
" transform="scale(0.015625)"/>
       <path id="DejaVuSans-Oblique-45" d="M 1081 4666 
L 4031 4666 
L 3928 4134 
L 1606 4134 
L 1338 2753 
L 3566 2753 
L 3463 2222 
L 1234 2222 
L 909 531 
L 3284 531 
L 3181 0 
L 172 0 
L 1081 4666 
z
" transform="scale(0.015625)"/>
      </defs>
      <use xlink:href="#DejaVuSans-Oblique-41" transform="translate(0 0.765625)"/>
      <use xlink:href="#DejaVuSans-Oblique-47" transform="translate(75.424974 39.046875)scale(0.7)"/>
      <use xlink:href="#DejaVuSans-Oblique-41" transform="translate(129.668138 39.046875)scale(0.7)"/>
      <use xlink:href="#DejaVuSans-Oblique-45" transform="translate(177.55388 39.046875)scale(0.7)"/>
     </g>
    </g>
   </g>
   <g id="line2d_8">
    <path d="M 34.62108 71.991425 
L 36.142898 72.091719 
L 37.664716 71.877132 
L 39.566989 71.357094 
L 40.327898 71.418208 
L 41.469261 71.738504 
L 44.893352 72.942735 
L 45.654261 72.825175 
L 46.795625 72.514505 
L 49.078352 72.210618 
L 50.60017 71.798557 
L 54.404716 71.368127 
L 57.828807 71.733654 
L 58.97017 71.399146 
L 60.111534 70.996723 
L 61.633352 70.933926 
L 62.774716 70.889378 
L 65.057443 70.703857 
L 65.818352 70.469401 
L 66.579261 70.135913 
L 67.720625 69.977734 
L 68.481534 70.051041 
L 70.383807 70.525138 
L 71.905625 70.911837 
L 72.666534 70.929719 
L 75.329716 70.357272 
L 80.275625 70.250913 
L 81.036534 70.103341 
L 82.177898 70.157571 
L 83.699716 70.468477 
L 85.601989 71.057958 
L 86.362898 71.15425 
L 88.645625 70.989321 
L 89.406534 71.11493 
L 91.689261 71.655568 
L 92.830625 71.624206 
L 94.352443 71.264852 
L 95.113352 71.381789 
L 96.254716 71.910554 
L 97.776534 72.654299 
L 98.917898 72.862554 
L 100.439716 72.696549 
L 101.200625 72.531682 
L 103.863807 72.623887 
L 104.624716 72.393065 
L 108.048807 71.057788 
L 109.570625 70.936937 
L 111.853352 71.198048 
L 113.37517 71.463162 
L 114.13608 71.388665 
L 115.277443 70.908983 
L 119.462443 69.155802 
L 121.364716 68.038347 
L 122.125625 67.828158 
L 123.647443 67.809778 
L 126.310625 67.859867 
L 127.071534 67.725374 
L 129.734716 66.538342 
L 131.256534 66.309427 
L 134.30017 65.388905 
L 135.441534 64.79396 
L 136.582898 64.39615 
L 138.104716 64.161469 
L 140.006989 64.111597 
L 141.528807 64.007168 
L 142.289716 63.649928 
L 144.191989 62.697019 
L 145.713807 62.019336 
L 149.137898 60.2114 
L 149.898807 59.9262 
L 152.181534 59.571495 
L 154.464261 59.219997 
L 157.127443 57.733024 
L 158.268807 57.177795 
L 162.453807 54.571265 
L 164.35608 53.602067 
L 168.54108 51.647602 
L 170.062898 50.40104 
L 172.72608 48.621333 
L 174.247898 47.733382 
L 175.008807 47.222368 
L 176.530625 45.830484 
L 177.291534 45.356851 
L 178.432898 44.855118 
L 181.09608 44.029272 
L 182.237443 43.310485 
L 183.759261 41.926176 
L 185.661534 40.650619 
L 186.041989 40.395496 
L 186.041989 40.395496 
" clip-path="url(#p155a064bed)" style="fill: none; stroke-dasharray: 3.7,1.6; stroke-dashoffset: 0; stroke: #1f77b4"/>
   </g>
   <g id="line2d_9">
    <path d="M 34.62108 66.707799 
L 35.381989 67.101548 
L 36.142898 67.349288 
L 36.903807 67.075586 
L 37.664716 66.338863 
L 38.04517 65.794288 
L 38.80608 64.095831 
L 39.566989 63.410106 
L 39.947443 63.376082 
L 40.327898 63.563587 
L 40.708352 63.929116 
L 41.469261 65.05499 
L 42.23017 66.530404 
L 44.512898 71.513213 
L 44.893352 72.019698 
L 45.273807 72.131084 
L 45.654261 71.775271 
L 46.41517 70.809396 
L 47.17608 70.581028 
L 47.936989 70.564467 
L 48.697898 70.349026 
L 50.980625 68.067006 
L 51.741534 67.984443 
L 52.502443 67.491568 
L 53.263352 66.863368 
L 54.024261 66.591156 
L 54.404716 66.67986 
L 55.54608 67.666289 
L 56.306989 68.588931 
L 57.448352 69.597797 
L 57.828807 69.508109 
L 58.589716 68.797748 
L 60.111534 66.277925 
L 60.872443 65.956832 
L 61.252898 65.941623 
L 62.013807 66.257441 
L 62.394261 66.233673 
L 63.15517 66.001026 
L 63.535625 65.981244 
L 63.91608 66.084918 
L 64.296534 66.047547 
L 65.057443 65.374845 
L 65.437898 64.875969 
L 65.818352 64.180437 
L 66.579261 62.372328 
L 67.34017 61.437811 
L 68.10108 61.262227 
L 68.861989 61.809368 
L 69.622898 62.767605 
L 71.905625 65.688208 
L 72.28608 65.89109 
L 72.666534 65.857137 
L 73.427443 64.896414 
L 73.807898 64.138645 
L 74.949261 63.041036 
L 75.329716 62.775104 
L 77.612443 62.423922 
L 77.992898 62.644603 
L 78.753807 62.593685 
L 79.514716 62.294514 
L 79.89517 61.903145 
L 81.036534 60.282222 
L 81.416989 60.064871 
L 81.797443 59.980747 
L 82.558352 60.231024 
L 83.699716 61.161267 
L 85.221534 63.385389 
L 85.982443 64.069952 
L 86.362898 64.216235 
L 86.743352 63.976127 
L 87.504261 63.170059 
L 87.884716 62.940961 
L 88.26517 62.856383 
L 89.02608 63.017463 
L 90.547898 64.808909 
L 91.308807 65.881348 
L 91.689261 66.113133 
L 92.45017 66.128725 
L 92.830625 65.983756 
L 93.21108 65.495233 
L 93.971989 64.125258 
L 94.352443 63.99574 
L 94.732898 64.152477 
L 95.113352 64.509715 
L 95.874261 66.241986 
L 97.015625 69.616723 
L 97.776534 71.617505 
L 98.537443 72.893713 
L 98.917898 73.34654 
L 99.678807 73.67657 
L 100.059261 73.647318 
L 100.439716 73.490091 
L 100.82017 73.125198 
L 101.200625 73.12868 
L 101.961534 73.986706 
L 102.722443 74.960539 
L 103.483352 75.531343 
L 103.863807 75.742461 
L 104.244261 75.631419 
L 105.00517 74.772611 
L 105.76608 73.624543 
L 106.907443 72.054562 
L 107.287898 71.390708 
L 108.048807 70.817262 
L 108.809716 70.702166 
L 109.19017 70.853841 
L 109.95108 71.536419 
L 110.711989 72.315477 
L 111.092443 72.719841 
L 111.853352 74.303819 
L 113.37517 77.384339 
L 113.755625 77.791508 
L 114.13608 77.982513 
L 114.516534 77.852158 
L 116.038352 76.374104 
L 116.799261 75.856849 
L 117.56017 75.204762 
L 118.32108 74.48661 
L 119.081989 73.612371 
L 119.842898 72.13515 
L 120.984261 69.361091 
L 121.74517 68.499594 
L 122.125625 68.430856 
L 122.50608 68.594214 
L 123.266989 69.281103 
L 124.027898 70.121036 
L 125.549716 71.964176 
L 126.310625 72.842563 
L 127.071534 73.125283 
L 127.451989 72.697795 
L 128.212898 71.175101 
L 128.973807 70.424579 
L 129.734716 70.157216 
L 130.87608 70.825091 
L 131.636989 70.764233 
L 132.017443 70.511903 
L 133.539261 70.28365 
L 134.30017 69.942819 
L 134.680625 69.601441 
L 135.06108 68.772868 
L 135.821989 67.868394 
L 136.202443 67.60995 
L 136.963352 67.567716 
L 137.343807 67.682237 
L 138.48517 68.518755 
L 139.626534 69.943486 
L 141.148352 72.385437 
L 141.528807 72.601256 
L 141.909261 72.573826 
L 143.050625 71.303619 
L 143.811534 70.653944 
L 144.191989 70.426191 
L 144.952898 70.164945 
L 145.713807 69.523985 
L 146.094261 69.068299 
L 146.474716 68.791195 
L 146.85517 68.355606 
L 147.235625 68.15244 
L 147.61608 67.772314 
L 147.996534 67.226285 
L 148.376989 66.456131 
L 148.757443 65.954977 
L 149.898807 65.4474 
L 150.659716 65.891405 
L 151.80108 66.933806 
L 152.942443 68.69484 
L 153.703352 69.816273 
L 154.083807 70.148455 
L 154.464261 70.267401 
L 155.22517 69.414274 
L 155.605625 68.847252 
L 155.98608 68.491716 
L 156.746989 68.217217 
L 157.507898 68.242374 
L 157.888352 68.128169 
L 158.268807 67.857852 
L 158.649261 67.408945 
L 160.17108 64.951265 
L 160.931989 64.347743 
L 161.692898 63.687777 
L 162.073352 63.292388 
L 162.453807 63.081901 
L 163.59517 62.160998 
L 165.877898 61.578107 
L 167.019261 62.035191 
L 167.78017 61.834614 
L 168.160625 61.460774 
L 168.54108 60.838655 
L 169.682443 58.226313 
L 171.584716 55.118889 
L 172.72608 53.475414 
L 173.486989 52.796452 
L 175.008807 50.299629 
L 176.15017 46.359827 
L 176.91108 44.493984 
L 177.671989 43.412103 
L 178.432898 42.731166 
L 180.715625 42.103032 
L 181.09608 41.74333 
L 181.856989 40.363017 
L 182.237443 39.335569 
L 183.759261 33.423868 
L 186.041989 26.308171 
L 186.041989 26.308171 
" clip-path="url(#p155a064bed)" style="fill: none; stroke: #1f77b4; stroke-linecap: square"/>
   </g>
   <g id="line2d_10">
    <path d="M 34.62108 65.314229 
L 35.001534 66.195485 
L 36.142898 67.931982 
L 36.523352 67.843045 
L 36.903807 67.577322 
L 37.664716 65.622436 
L 38.04517 63.959878 
L 38.80608 58.134554 
L 39.566989 54.741969 
L 39.947443 53.820783 
L 40.327898 53.518372 
L 40.708352 53.73764 
L 41.469261 55.444334 
L 41.849716 56.740075 
L 42.610625 60.41089 
L 44.893352 74.429603 
L 45.273807 75.226156 
L 45.654261 74.57213 
L 46.41517 72.285487 
L 46.795625 72.048852 
L 47.17608 72.196704 
L 47.936989 72.89564 
L 48.317443 73.116436 
L 48.697898 73.106513 
L 49.078352 72.273924 
L 50.60017 68.046087 
L 50.980625 67.634643 
L 51.741534 67.643491 
L 52.121989 67.185531 
L 53.643807 63.500085 
L 54.024261 63.049955 
L 54.404716 63.116309 
L 54.78517 63.835404 
L 55.54608 65.841079 
L 56.306989 68.946943 
L 57.067898 71.765594 
L 57.448352 73.301543 
L 57.828807 73.62887 
L 58.209261 73.281069 
L 58.589716 72.645427 
L 59.350625 69.263301 
L 59.73108 67.256977 
L 60.111534 66.291575 
L 60.872443 65.647439 
L 61.252898 65.776653 
L 62.013807 67.282709 
L 62.394261 67.543112 
L 62.774716 67.35288 
L 63.15517 67.526752 
L 63.535625 67.864871 
L 63.91608 68.652104 
L 64.296534 69.058803 
L 64.676989 68.724572 
L 65.057443 68.016967 
L 65.437898 66.928051 
L 65.818352 65.128346 
L 66.579261 59.695141 
L 67.34017 56.366487 
L 68.10108 55.025703 
L 68.481534 55.299931 
L 68.861989 55.856145 
L 69.242443 56.78263 
L 71.144716 63.702868 
L 71.905625 67.48449 
L 72.28608 68.590451 
L 72.666534 69.027112 
L 73.046989 68.26072 
L 73.427443 67.050065 
L 73.807898 65.058311 
L 75.329716 61.628476 
L 75.71017 61.507999 
L 76.090625 61.598109 
L 76.851534 61.078546 
L 77.231989 60.69844 
L 77.612443 61.111389 
L 77.992898 61.938876 
L 78.753807 62.141243 
L 79.134261 61.999532 
L 79.514716 61.569447 
L 79.89517 60.462342 
L 81.036534 54.96959 
L 81.416989 53.899017 
L 81.797443 53.164085 
L 82.558352 52.878937 
L 83.699716 54.124303 
L 85.601989 60.777822 
L 85.982443 61.532487 
L 86.362898 61.944111 
L 86.743352 61.118469 
L 87.504261 58.132741 
L 87.884716 57.01887 
L 88.26517 56.273992 
L 89.02608 55.666276 
L 89.786989 57.3776 
L 90.167443 58.52032 
L 90.547898 59.250744 
L 91.308807 61.964249 
L 91.689261 62.463527 
L 92.069716 62.404291 
L 92.45017 62.037138 
L 92.830625 61.275618 
L 93.21108 59.313374 
L 93.971989 53.471817 
L 94.352443 51.984918 
L 94.732898 51.27291 
L 95.113352 51.1104 
L 95.493807 52.22547 
L 96.254716 56.110095 
L 97.776534 66.801215 
L 98.537443 70.23108 
L 98.917898 71.515748 
L 99.678807 72.419401 
L 100.059261 72.283845 
L 100.439716 71.715782 
L 100.82017 70.418182 
L 101.200625 70.220005 
L 101.58108 71.219146 
L 103.863807 79.386452 
L 104.244261 79.554622 
L 104.624716 78.81984 
L 105.00517 77.837071 
L 105.76608 74.899522 
L 106.526989 72.137866 
L 107.668352 66.677498 
L 108.048807 65.46322 
L 108.809716 64.005367 
L 109.19017 63.837582 
L 109.570625 64.066065 
L 109.95108 64.653387 
L 110.331534 65.003108 
L 111.092443 66.473568 
L 111.472898 68.152328 
L 113.755625 82.059689 
L 114.13608 83.267991 
L 114.516534 83.54379 
L 115.657898 81.899024 
L 116.038352 81.607249 
L 116.799261 81.370801 
L 117.179716 80.886292 
L 117.940625 80.537821 
L 119.081989 78.608663 
L 119.462443 77.122881 
L 119.842898 75.124058 
L 120.984261 66.897723 
L 121.74517 63.676741 
L 122.125625 63.044328 
L 122.50608 63.105398 
L 122.886534 63.602313 
L 123.647443 65.178783 
L 125.169261 70.031677 
L 126.310625 74.955836 
L 127.071534 76.739743 
L 127.451989 75.900852 
L 128.212898 71.790138 
L 128.973807 69.687193 
L 129.354261 69.157393 
L 129.734716 68.904413 
L 130.11517 69.669414 
L 130.495625 70.720451 
L 130.87608 71.33175 
L 131.256534 71.55189 
L 131.636989 71.587058 
L 132.017443 71.012784 
L 132.778352 71.19668 
L 133.158807 71.516894 
L 134.30017 70.689098 
L 134.680625 69.824218 
L 135.06108 67.301317 
L 135.821989 64.199666 
L 136.202443 63.094403 
L 136.582898 62.537852 
L 136.963352 62.181085 
L 137.343807 62.093392 
L 138.104716 62.775641 
L 138.48517 63.386733 
L 139.626534 66.953786 
L 141.528807 76.281949 
L 141.909261 76.770757 
L 142.67017 75.00198 
L 143.811534 73.26645 
L 144.191989 72.993223 
L 144.572443 73.219001 
L 144.952898 73.116868 
L 145.713807 72.040422 
L 146.094261 71.022615 
L 146.474716 70.528047 
L 146.85517 69.490565 
L 147.235625 69.147845 
L 147.61608 68.210136 
L 147.996534 66.664934 
L 148.757443 62.56788 
L 149.137898 61.67876 
L 149.518352 60.454393 
L 149.898807 60.039386 
L 150.659716 60.620983 
L 151.80108 62.89634 
L 152.561989 65.740492 
L 153.703352 72.193554 
L 154.083807 73.73989 
L 154.464261 74.730693 
L 154.844716 74.250186 
L 155.22517 73.332987 
L 155.605625 72.122884 
L 155.98608 71.535562 
L 156.366534 71.533288 
L 156.746989 71.768882 
L 157.507898 73.177302 
L 157.888352 73.592845 
L 158.268807 73.562496 
L 158.649261 72.979135 
L 160.17108 68.029229 
L 160.551534 67.507728 
L 161.312443 66.961981 
L 162.073352 65.533042 
L 162.453807 65.368954 
L 163.214716 64.102931 
L 163.59517 63.86778 
L 164.35608 64.109412 
L 164.736534 64.375178 
L 165.116989 64.336491 
L 165.497443 64.690544 
L 165.877898 65.3079 
L 167.399716 70.280976 
L 167.78017 71.219819 
L 168.160625 71.413185 
L 168.54108 70.866293 
L 169.301989 67.827805 
L 169.682443 66.641937 
L 171.204261 63.517053 
L 171.96517 62.576296 
L 172.72608 61.786191 
L 173.106534 62.218115 
L 173.486989 62.450874 
L 173.867443 62.045626 
L 174.628352 61.672621 
L 175.008807 60.79944 
L 176.15017 52.508837 
L 176.91108 48.734711 
L 177.671989 47.198162 
L 178.432898 46.951498 
L 178.813352 47.701681 
L 179.193807 48.182505 
L 181.09608 53.544169 
L 181.476534 53.567648 
L 181.856989 53.064891 
L 182.237443 51.805234 
L 184.52017 35.092631 
L 185.28108 29.367532 
L 186.041989 22.715114 
L 186.041989 22.715114 
" clip-path="url(#p155a064bed)" style="fill: none; stroke-dasharray: 6.4,1.6,1,1.6; stroke-dashoffset: 0; stroke: #1f77b4"/>
   </g>
   <g id="line2d_11">
    <path d="M 34.240625 65.261688 
L 186.422443 65.261688 
" clip-path="url(#p155a064bed)" style="fill: none; stroke-dasharray: 1,1.65; stroke-dashoffset: 0; stroke: #000000"/>
   </g>
   <g id="patch_3">
    <path d="M 34.240625 94.87875 
L 34.240625 19.27875 
" style="fill: none; stroke: #000000; stroke-width: 0.8; stroke-linejoin: miter; stroke-linecap: square"/>
   </g>
   <g id="patch_4">
    <path d="M 186.422443 94.87875 
L 186.422443 19.27875 
" style="fill: none; stroke: #000000; stroke-width: 0.8; stroke-linejoin: miter; stroke-linecap: square"/>
   </g>
   <g id="patch_5">
    <path d="M 34.240625 94.87875 
L 186.422443 94.87875 
" style="fill: none; stroke: #000000; stroke-width: 0.8; stroke-linejoin: miter; stroke-linecap: square"/>
   </g>
   <g id="patch_6">
    <path d="M 34.240625 19.27875 
L 186.422443 19.27875 
" style="fill: none; stroke: #000000; stroke-width: 0.8; stroke-linejoin: miter; stroke-linecap: square"/>
   </g>
   <g id="text_4">
    <!-- eps. 1 -->
    <g transform="translate(98.159659 13.27875)scale(0.08 -0.08)">
     <defs>
      <path id="DejaVuSans-65" d="M 3597 1894 
L 3597 1613 
L 953 1613 
Q 991 1019 1311 708 
Q 1631 397 2203 397 
Q 2534 397 2845 478 
Q 3156 559 3463 722 
L 3463 178 
Q 3153 47 2828 -22 
Q 2503 -91 2169 -91 
Q 1331 -91 842 396 
Q 353 884 353 1716 
Q 353 2575 817 3079 
Q 1281 3584 2069 3584 
Q 2775 3584 3186 3129 
Q 3597 2675 3597 1894 
z
M 3022 2063 
Q 3016 2534 2758 2815 
Q 2500 3097 2075 3097 
Q 1594 3097 1305 2825 
Q 1016 2553 972 2059 
L 3022 2063 
z
" transform="scale(0.015625)"/>
      <path id="DejaVuSans-70" d="M 1159 525 
L 1159 -1331 
L 581 -1331 
L 581 3500 
L 1159 3500 
L 1159 2969 
Q 1341 3281 1617 3432 
Q 1894 3584 2278 3584 
Q 2916 3584 3314 3078 
Q 3713 2572 3713 1747 
Q 3713 922 3314 415 
Q 2916 -91 2278 -91 
Q 1894 -91 1617 61 
Q 1341 213 1159 525 
z
M 3116 1747 
Q 3116 2381 2855 2742 
Q 2594 3103 2138 3103 
Q 1681 3103 1420 2742 
Q 1159 2381 1159 1747 
Q 1159 1113 1420 752 
Q 1681 391 2138 391 
Q 2594 391 2855 752 
Q 3116 1113 3116 1747 
z
" transform="scale(0.015625)"/>
      <path id="DejaVuSans-73" d="M 2834 3397 
L 2834 2853 
Q 2591 2978 2328 3040 
Q 2066 3103 1784 3103 
Q 1356 3103 1142 2972 
Q 928 2841 928 2578 
Q 928 2378 1081 2264 
Q 1234 2150 1697 2047 
L 1894 2003 
Q 2506 1872 2764 1633 
Q 3022 1394 3022 966 
Q 3022 478 2636 193 
Q 2250 -91 1575 -91 
Q 1294 -91 989 -36 
Q 684 19 347 128 
L 347 722 
Q 666 556 975 473 
Q 1284 391 1588 391 
Q 1994 391 2212 530 
Q 2431 669 2431 922 
Q 2431 1156 2273 1281 
Q 2116 1406 1581 1522 
L 1381 1569 
Q 847 1681 609 1914 
Q 372 2147 372 2553 
Q 372 3047 722 3315 
Q 1072 3584 1716 3584 
Q 2034 3584 2315 3537 
Q 2597 3491 2834 3397 
z
" transform="scale(0.015625)"/>
      <path id="DejaVuSans-2e" d="M 684 794 
L 1344 794 
L 1344 0 
L 684 0 
L 684 794 
z
" transform="scale(0.015625)"/>
      <path id="DejaVuSans-20" transform="scale(0.015625)"/>
      <path id="DejaVuSans-31" d="M 794 531 
L 1825 531 
L 1825 4091 
L 703 3866 
L 703 4441 
L 1819 4666 
L 2450 4666 
L 2450 531 
L 3481 531 
L 3481 0 
L 794 0 
L 794 531 
z
" transform="scale(0.015625)"/>
     </defs>
     <use xlink:href="#DejaVuSans-65"/>
     <use xlink:href="#DejaVuSans-70" x="61.523438"/>
     <use xlink:href="#DejaVuSans-73" x="125"/>
     <use xlink:href="#DejaVuSans-2e" x="177.099609"/>
     <use xlink:href="#DejaVuSans-20" x="208.886719"/>
     <use xlink:href="#DejaVuSans-31" x="240.673828"/>
    </g>
   </g>
   <g id="legend_1">
    <g id="patch_7">
     <path d="M 38.440625 41.6925 
L 151.780625 41.6925 
Q 152.980625 41.6925 152.980625 40.4925 
L 152.980625 23.47875 
Q 152.980625 22.27875 151.780625 22.27875 
L 38.440625 22.27875 
Q 37.240625 22.27875 37.240625 23.47875 
L 37.240625 40.4925 
Q 37.240625 41.6925 38.440625 41.6925 
z
" style="fill: #ffffff; opacity: 0.8; stroke: #cccccc; stroke-linejoin: miter"/>
    </g>
    <g id="line2d_12">
     <path d="M 39.640625 27.137813 
L 45.640625 27.137813 
L 51.640625 27.137813 
" style="fill: none; stroke-dasharray: 3.7,1.6; stroke-dashoffset: 0; stroke: #1f77b4"/>
    </g>
    <g id="text_5">
     <!-- $\tau_0$, $\lambda = 1$ -->
     <g transform="translate(56.440625 29.237813)scale(0.06 -0.06)">
      <defs>
       <path id="DejaVuSans-Oblique-3c4" d="M 2103 638 
Q 2188 488 2525 488 
L 2800 488 
L 2706 0 
L 2363 0 
Q 1800 0 1600 300 
Q 1403 606 1534 1269 
L 1856 2925 
L 541 2925 
L 653 3500 
L 3881 3500 
L 3769 2925 
L 2444 2925 
L 2113 1234 
Q 2025 781 2103 638 
z
" transform="scale(0.015625)"/>
       <path id="DejaVuSans-2c" d="M 750 794 
L 1409 794 
L 1409 256 
L 897 -744 
L 494 -744 
L 750 256 
L 750 794 
z
" transform="scale(0.015625)"/>
       <path id="DejaVuSans-Oblique-3bb" d="M 2350 4316 
L 3125 0 
L 2516 0 
L 2038 2588 
L 328 0 
L -281 0 
L 1903 3356 
L 1794 3975 
Q 1725 4369 1391 4369 
L 1091 4369 
L 1184 4863 
L 1550 4856 
Q 2253 4847 2350 4316 
z
" transform="scale(0.015625)"/>
       <path id="DejaVuSans-3d" d="M 678 2906 
L 4684 2906 
L 4684 2381 
L 678 2381 
L 678 2906 
z
M 678 1631 
L 4684 1631 
L 4684 1100 
L 678 1100 
L 678 1631 
z
" transform="scale(0.015625)"/>
      </defs>
      <use xlink:href="#DejaVuSans-Oblique-3c4" transform="translate(0 0.015625)"/>
      <use xlink:href="#DejaVuSans-30" transform="translate(60.205078 -16.390625)scale(0.7)"/>
      <use xlink:href="#DejaVuSans-2c" transform="translate(107.475586 0.015625)"/>
      <use xlink:href="#DejaVuSans-20" transform="translate(139.262695 0.015625)"/>
      <use xlink:href="#DejaVuSans-Oblique-3bb" transform="translate(171.049805 0.015625)"/>
      <use xlink:href="#DejaVuSans-3d" transform="translate(249.711914 0.015625)"/>
      <use xlink:href="#DejaVuSans-31" transform="translate(352.983398 0.015625)"/>
     </g>
    </g>
    <g id="line2d_13">
     <path d="M 39.640625 35.944688 
L 45.640625 35.944688 
L 51.640625 35.944688 
" style="fill: none; stroke: #1f77b4; stroke-linecap: square"/>
    </g>
    <g id="text_6">
     <!-- $\tau_0$, $\lambda = 0.97$ -->
     <g transform="translate(56.440625 38.044688)scale(0.06 -0.06)">
      <defs>
       <path id="DejaVuSans-39" d="M 703 97 
L 703 672 
Q 941 559 1184 500 
Q 1428 441 1663 441 
Q 2288 441 2617 861 
Q 2947 1281 2994 2138 
Q 2813 1869 2534 1725 
Q 2256 1581 1919 1581 
Q 1219 1581 811 2004 
Q 403 2428 403 3163 
Q 403 3881 828 4315 
Q 1253 4750 1959 4750 
Q 2769 4750 3195 4129 
Q 3622 3509 3622 2328 
Q 3622 1225 3098 567 
Q 2575 -91 1691 -91 
Q 1453 -91 1209 -44 
Q 966 3 703 97 
z
M 1959 2075 
Q 2384 2075 2632 2365 
Q 2881 2656 2881 3163 
Q 2881 3666 2632 3958 
Q 2384 4250 1959 4250 
Q 1534 4250 1286 3958 
Q 1038 3666 1038 3163 
Q 1038 2656 1286 2365 
Q 1534 2075 1959 2075 
z
" transform="scale(0.015625)"/>
       <path id="DejaVuSans-37" d="M 525 4666 
L 3525 4666 
L 3525 4397 
L 1831 0 
L 1172 0 
L 2766 4134 
L 525 4134 
L 525 4666 
z
" transform="scale(0.015625)"/>
      </defs>
      <use xlink:href="#DejaVuSans-Oblique-3c4" transform="translate(0 0.015625)"/>
      <use xlink:href="#DejaVuSans-30" transform="translate(60.205078 -16.390625)scale(0.7)"/>
      <use xlink:href="#DejaVuSans-2c" transform="translate(107.475586 0.015625)"/>
      <use xlink:href="#DejaVuSans-20" transform="translate(139.262695 0.015625)"/>
      <use xlink:href="#DejaVuSans-Oblique-3bb" transform="translate(171.049805 0.015625)"/>
      <use xlink:href="#DejaVuSans-3d" transform="translate(249.711914 0.015625)"/>
      <use xlink:href="#DejaVuSans-30" transform="translate(352.983398 0.015625)"/>
      <use xlink:href="#DejaVuSans-2e" transform="translate(416.606445 0.015625)"/>
      <use xlink:href="#DejaVuSans-39" transform="translate(448.393555 0.015625)"/>
      <use xlink:href="#DejaVuSans-37" transform="translate(512.016602 0.015625)"/>
     </g>
    </g>
    <g id="line2d_14">
     <path d="M 103.000625 27.137813 
L 109.000625 27.137813 
L 115.000625 27.137813 
" style="fill: none; stroke-dasharray: 6.4,1.6,1,1.6; stroke-dashoffset: 0; stroke: #1f77b4"/>
    </g>
    <g id="text_7">
     <!-- $\tau_0$, $\lambda = 0.9$ -->
     <g transform="translate(119.800625 29.237813)scale(0.06 -0.06)">
      <use xlink:href="#DejaVuSans-Oblique-3c4" transform="translate(0 0.015625)"/>
      <use xlink:href="#DejaVuSans-30" transform="translate(60.205078 -16.390625)scale(0.7)"/>
      <use xlink:href="#DejaVuSans-2c" transform="translate(107.475586 0.015625)"/>
      <use xlink:href="#DejaVuSans-20" transform="translate(139.262695 0.015625)"/>
      <use xlink:href="#DejaVuSans-Oblique-3bb" transform="translate(171.049805 0.015625)"/>
      <use xlink:href="#DejaVuSans-3d" transform="translate(249.711914 0.015625)"/>
      <use xlink:href="#DejaVuSans-30" transform="translate(352.983398 0.015625)"/>
      <use xlink:href="#DejaVuSans-2e" transform="translate(416.606445 0.015625)"/>
      <use xlink:href="#DejaVuSans-39" transform="translate(448.393555 0.015625)"/>
     </g>
    </g>
   </g>
  </g>
  <g id="axes_2">
   <g id="patch_8">
    <path d="M 216.858807 94.87875 
L 369.040625 94.87875 
L 369.040625 19.27875 
L 216.858807 19.27875 
z
" style="fill: #ffffff"/>
   </g>
   <g id="matplotlib.axis_3">
    <g id="xtick_6">
     <g id="line2d_15">
      <g>
       <use xlink:href="#ma299188b60" x="216.858807" y="94.87875" style="stroke: #000000; stroke-width: 0.8"/>
      </g>
     </g>
    </g>
    <g id="xtick_7">
     <g id="line2d_16">
      <g>
       <use xlink:href="#ma299188b60" x="254.904261" y="94.87875" style="stroke: #000000; stroke-width: 0.8"/>
      </g>
     </g>
    </g>
    <g id="xtick_8">
     <g id="line2d_17">
      <g>
       <use xlink:href="#ma299188b60" x="292.949716" y="94.87875" style="stroke: #000000; stroke-width: 0.8"/>
      </g>
     </g>
    </g>
    <g id="xtick_9">
     <g id="line2d_18">
      <g>
       <use xlink:href="#ma299188b60" x="330.99517" y="94.87875" style="stroke: #000000; stroke-width: 0.8"/>
      </g>
     </g>
    </g>
    <g id="xtick_10">
     <g id="line2d_19">
      <g>
       <use xlink:href="#ma299188b60" x="369.040625" y="94.87875" style="stroke: #000000; stroke-width: 0.8"/>
      </g>
     </g>
    </g>
   </g>
   <g id="matplotlib.axis_4">
    <g id="ytick_3">
     <g id="line2d_20">
      <g>
       <use xlink:href="#m545a220a01" x="216.858807" y="65.261688" style="stroke: #000000; stroke-width: 0.8"/>
      </g>
     </g>
    </g>
    <g id="ytick_4">
     <g id="line2d_21">
      <g>
       <use xlink:href="#m545a220a01" x="216.858807" y="21.044462" style="stroke: #000000; stroke-width: 0.8"/>
      </g>
     </g>
    </g>
   </g>
   <g id="line2d_22">
    <path d="M 217.239261 87.407018 
L 220.282898 83.742444 
L 222.18517 81.929133 
L 222.94608 81.558881 
L 223.706989 81.462622 
L 224.087443 81.52795 
L 224.848352 82.013202 
L 225.228807 82.437621 
L 225.989716 83.73331 
L 227.13108 85.864577 
L 227.511534 86.348713 
L 227.891989 86.576264 
L 228.272443 86.309919 
L 230.935625 81.882341 
L 233.218352 77.671952 
L 233.979261 77.177892 
L 235.120625 76.963359 
L 235.50108 76.567156 
L 236.642443 75.060825 
L 237.022898 74.691421 
L 237.403352 74.594288 
L 237.783807 74.705883 
L 238.544716 75.289212 
L 239.68608 76.280049 
L 240.066534 76.650804 
L 241.207898 76.906096 
L 241.588352 76.813259 
L 241.968807 76.583728 
L 243.490625 74.481659 
L 244.631989 72.786209 
L 245.773352 70.988542 
L 246.534261 70.267942 
L 248.816989 68.467989 
L 249.577898 67.477466 
L 250.338807 66.864514 
L 250.719261 66.756003 
L 251.48017 66.898911 
L 252.24108 67.438453 
L 252.621534 67.729175 
L 253.382443 68.776791 
L 254.904261 71.056623 
L 255.284716 71.35929 
L 255.66517 71.371794 
L 256.045625 71.069563 
L 257.947898 68.152865 
L 259.089261 66.52763 
L 259.85017 65.643149 
L 260.61108 65.201118 
L 261.752443 64.796913 
L 262.893807 64.647885 
L 264.79608 63.861585 
L 265.556989 64.060152 
L 266.317898 64.473929 
L 267.078807 65.473133 
L 268.98108 68.453924 
L 269.361534 68.665487 
L 269.741989 68.587597 
L 270.122443 68.317011 
L 272.40517 65.783786 
L 274.307443 64.60104 
L 275.068352 64.363671 
L 278.111989 64.046193 
L 278.872898 64.431258 
L 280.014261 65.438895 
L 281.155625 66.823124 
L 283.057898 69.439148 
L 283.438352 69.792278 
L 283.818807 69.984499 
L 284.199261 70.032822 
L 284.96017 69.339677 
L 285.72108 68.386149 
L 286.862443 66.701445 
L 288.003807 65.208478 
L 289.525625 63.78398 
L 291.808352 62.024732 
L 292.188807 61.9006 
L 292.949716 61.961659 
L 293.33017 62.187393 
L 293.710625 62.554963 
L 294.471534 63.828063 
L 297.134716 68.911276 
L 297.51517 69.180394 
L 298.27608 68.960166 
L 299.036989 68.041788 
L 300.178352 66.077779 
L 302.080625 62.962329 
L 303.221989 61.540202 
L 304.743807 60.027705 
L 305.504716 59.790153 
L 306.265625 60.038976 
L 307.787443 61.039283 
L 308.548352 61.882045 
L 310.450625 64.742228 
L 310.83108 64.892091 
L 311.211534 64.686584 
L 312.352898 62.973564 
L 315.01608 60.296548 
L 315.776989 59.746751 
L 316.157443 59.559585 
L 316.918352 59.515836 
L 318.059716 59.529821 
L 318.44017 59.317268 
L 319.581534 57.946919 
L 319.961989 57.713088 
L 320.722898 57.709737 
L 321.103352 57.902119 
L 322.244716 59.130813 
L 323.005625 60.569962 
L 324.146989 63.047441 
L 324.907898 64.293 
L 325.288352 64.547851 
L 325.668807 64.504732 
L 326.049261 64.234293 
L 326.429716 63.795401 
L 328.331989 60.736044 
L 329.473352 59.191765 
L 330.614716 58.109013 
L 331.375625 57.760699 
L 332.897443 57.379243 
L 333.658352 57.015652 
L 334.419261 56.905098 
L 334.799716 56.942899 
L 335.560625 57.328893 
L 336.321534 58.124796 
L 337.082443 59.159549 
L 338.604261 61.266351 
L 338.984716 61.378089 
L 339.36517 61.276799 
L 340.886989 59.495536 
L 342.028352 58.613429 
L 342.789261 58.112262 
L 344.691534 56.397353 
L 345.832898 55.952671 
L 347.354716 55.491725 
L 348.115625 55.217002 
L 348.876534 55.247258 
L 349.256989 55.445725 
L 350.017898 56.298433 
L 350.778807 57.56643 
L 351.92017 59.790385 
L 352.300625 60.408036 
L 352.68108 60.790522 
L 353.061534 60.976113 
L 353.441989 60.84207 
L 353.822443 60.437799 
L 357.246534 54.892443 
L 358.387898 52.922803 
L 359.909716 51.012315 
L 361.811989 48.548666 
L 362.572898 48.227931 
L 362.953352 48.238859 
L 363.714261 48.724817 
L 364.094716 48.998444 
L 365.996989 51.188243 
L 366.377443 51.345114 
L 366.757898 51.337285 
L 367.138352 51.154935 
L 367.518807 50.623791 
L 368.66017 48.165624 
L 368.66017 48.165624 
" clip-path="url(#pd1afd22f0e)" style="fill: none; stroke-dasharray: 3.7,1.6; stroke-dashoffset: 0; stroke: #1f77b4"/>
   </g>
   <g id="line2d_23">
    <path d="M 217.239261 85.427443 
L 219.141534 81.180373 
L 220.282898 78.823168 
L 222.565625 74.847535 
L 222.94608 74.552812 
L 223.326534 74.444424 
L 223.706989 74.56445 
L 224.087443 74.865415 
L 224.848352 76.421874 
L 225.228807 77.706799 
L 225.989716 81.566267 
L 227.511534 90.191269 
L 227.891989 91.427894 
L 228.272443 91.442386 
L 229.033352 89.484216 
L 230.935625 84.535853 
L 231.696534 81.606571 
L 232.457443 78.581739 
L 233.218352 76.324639 
L 233.598807 75.879225 
L 233.979261 75.654727 
L 235.120625 75.994249 
L 235.50108 75.286636 
L 236.642443 72.195692 
L 237.022898 71.449123 
L 237.403352 71.379924 
L 237.783807 71.845985 
L 238.164261 72.64094 
L 240.446989 79.255015 
L 241.207898 80.516788 
L 241.588352 80.776077 
L 241.968807 80.697728 
L 242.729716 78.977126 
L 243.11017 78.233801 
L 244.631989 74.070552 
L 245.773352 70.355331 
L 246.153807 69.501173 
L 248.436534 66.051523 
L 248.816989 65.232044 
L 249.577898 62.818947 
L 249.958352 61.876774 
L 250.338807 61.237254 
L 250.719261 60.919556 
L 251.099716 60.951902 
L 251.48017 61.187624 
L 251.860625 61.72848 
L 252.621534 63.248436 
L 253.382443 66.017912 
L 255.284716 73.739392 
L 255.66517 74.132575 
L 256.045625 73.734066 
L 257.186989 70.456711 
L 259.089261 64.095119 
L 259.85017 61.966835 
L 260.61108 60.85791 
L 261.752443 59.745757 
L 262.893807 59.207456 
L 263.274261 58.683865 
L 263.654716 57.828345 
L 264.415625 56.893323 
L 264.79608 56.660755 
L 265.176534 56.670215 
L 265.937443 57.101254 
L 266.317898 57.64099 
L 267.078807 59.984247 
L 267.839716 63.257008 
L 268.98108 67.862256 
L 269.361534 68.598573 
L 269.741989 68.617095 
L 270.122443 68.143935 
L 271.263807 65.278904 
L 272.024716 63.237226 
L 273.16608 61.138242 
L 274.307443 59.43602 
L 275.068352 58.703197 
L 276.209716 58.019805 
L 277.731534 56.907457 
L 278.111989 57.015445 
L 278.872898 57.731147 
L 279.633807 59.134818 
L 280.394716 61.013985 
L 281.155625 63.504446 
L 283.438352 72.180157 
L 283.818807 73.010657 
L 284.199261 73.501261 
L 284.579716 73.126599 
L 285.340625 71.682179 
L 285.72108 70.741091 
L 287.242898 66.053633 
L 288.764716 62.251778 
L 289.90608 59.844298 
L 291.047443 57.356888 
L 291.808352 55.818488 
L 292.188807 55.362133 
L 292.569261 55.220625 
L 292.949716 55.205888 
L 293.33017 55.623613 
L 293.710625 56.416712 
L 294.471534 59.472203 
L 295.232443 63.574743 
L 296.754261 71.977936 
L 297.134716 73.669459 
L 297.51517 74.781684 
L 297.895625 75.097704 
L 298.27608 75.15242 
L 298.656534 74.649352 
L 299.417443 72.668356 
L 302.46108 62.08981 
L 304.743807 56.077076 
L 305.124261 55.588311 
L 305.504716 55.300728 
L 305.88517 55.381426 
L 306.64608 56.233294 
L 307.787443 58.041009 
L 308.167898 58.95751 
L 308.928807 61.75674 
L 310.450625 68.292509 
L 310.83108 68.984492 
L 311.211534 68.789304 
L 312.352898 65.282465 
L 315.776989 58.214984 
L 316.157443 57.755001 
L 316.537898 57.638129 
L 318.059716 57.701253 
L 318.44017 57.160509 
L 319.961989 52.763879 
L 320.342443 52.475925 
L 320.722898 52.440041 
L 321.103352 52.768046 
L 321.864261 54.407519 
L 322.244716 55.520977 
L 323.005625 59.115767 
L 324.527443 67.836585 
L 324.907898 69.553952 
L 325.288352 70.579132 
L 325.668807 70.875484 
L 326.049261 70.601895 
L 326.429716 69.891745 
L 329.473352 60.279893 
L 330.614716 57.779001 
L 331.375625 56.959448 
L 332.516989 56.464069 
L 332.897443 56.02827 
L 333.277898 55.421692 
L 334.038807 54.76722 
L 334.419261 54.686756 
L 334.799716 54.731838 
L 335.18017 55.09607 
L 335.560625 55.631116 
L 335.94108 56.455828 
L 336.701989 58.901341 
L 338.604261 66.64512 
L 338.984716 67.261261 
L 339.36517 67.353339 
L 340.886989 64.07926 
L 342.028352 62.579825 
L 342.408807 62.308069 
L 343.169716 61.050493 
L 344.31108 58.719899 
L 345.071989 57.825809 
L 345.452443 57.489812 
L 346.974261 56.808309 
L 348.115625 55.836233 
L 348.49608 55.823696 
L 348.876534 55.992597 
L 349.256989 56.54691 
L 350.017898 58.893375 
L 350.778807 62.472834 
L 352.300625 71.213049 
L 353.061534 73.804777 
L 353.441989 74.093745 
L 353.822443 73.70472 
L 356.10517 68.291314 
L 357.626989 63.079777 
L 358.387898 60.497868 
L 360.670625 54.288854 
L 361.431534 51.728043 
L 361.811989 50.807655 
L 362.572898 49.977517 
L 362.953352 49.983865 
L 363.333807 50.489099 
L 364.094716 51.921218 
L 364.855625 54.545483 
L 365.996989 58.147183 
L 366.377443 58.789043 
L 366.757898 59.030744 
L 367.138352 58.834813 
L 367.518807 57.740488 
L 368.66017 51.967875 
L 368.66017 51.967875 
" clip-path="url(#pd1afd22f0e)" style="fill: none; stroke: #1f77b4; stroke-linecap: square"/>
   </g>
   <g id="line2d_24">
    <path d="M 217.239261 81.45891 
L 218.00017 79.751885 
L 219.521989 75.540409 
L 220.663352 72.25282 
L 221.424261 69.542863 
L 221.804716 68.264431 
L 222.18517 66.589351 
L 223.326534 63.521506 
L 223.706989 62.946306 
L 224.087443 62.607234 
L 224.467898 62.888584 
L 224.848352 63.449752 
L 225.228807 64.752264 
L 225.989716 69.885161 
L 227.891989 87.348395 
L 228.272443 88.281382 
L 228.652898 87.807119 
L 229.413807 86.2175 
L 230.174716 85.047275 
L 230.55517 84.269206 
L 230.935625 83.15576 
L 231.31608 81.686864 
L 233.218352 72.468936 
L 233.598807 71.868124 
L 233.979261 71.610645 
L 235.120625 72.661917 
L 235.50108 71.651837 
L 237.022898 64.69938 
L 237.403352 64.154377 
L 237.783807 64.479932 
L 238.164261 65.384581 
L 239.305625 70.013393 
L 240.446989 76.219005 
L 241.588352 80.580012 
L 241.968807 81.290255 
L 242.349261 80.558678 
L 243.11017 79.780751 
L 244.251534 77.324052 
L 245.012443 74.565365 
L 245.773352 71.669611 
L 246.153807 70.688924 
L 247.29517 69.147706 
L 248.436534 66.950789 
L 248.816989 65.763113 
L 249.958352 59.890132 
L 250.719261 57.446012 
L 251.099716 56.94869 
L 251.48017 56.742414 
L 251.860625 57.025373 
L 252.621534 58.374186 
L 253.001989 59.889209 
L 253.762898 64.568002 
L 254.904261 73.513312 
L 255.284716 75.997427 
L 255.66517 77.474975 
L 256.045625 77.726103 
L 256.806534 76.126968 
L 257.567443 73.572227 
L 259.85017 64.648796 
L 260.61108 63.162043 
L 261.752443 61.549341 
L 262.132898 61.289245 
L 262.513352 61.195431 
L 262.893807 60.663836 
L 263.274261 59.715181 
L 264.03517 56.915339 
L 264.79608 55.013743 
L 265.176534 54.485657 
L 265.937443 53.969963 
L 266.317898 54.206035 
L 266.698352 55.301888 
L 267.459261 58.942918 
L 268.98108 69.693796 
L 269.361534 71.420991 
L 269.741989 72.056301 
L 270.122443 71.91165 
L 270.883352 70.078694 
L 272.40517 65.31041 
L 273.16608 63.533692 
L 274.687898 60.156154 
L 275.448807 59.036278 
L 275.829261 58.522381 
L 276.970625 56.045011 
L 278.111989 53.631928 
L 278.872898 53.35719 
L 279.253352 53.653346 
L 279.633807 54.14326 
L 280.014261 54.845063 
L 280.394716 55.780328 
L 280.77517 57.025615 
L 281.53608 60.666618 
L 282.296989 65.266089 
L 283.818807 74.642673 
L 284.199261 76.176636 
L 284.579716 76.355921 
L 284.96017 76.121082 
L 285.340625 75.61907 
L 285.72108 74.874597 
L 288.003807 67.264445 
L 290.286534 60.161548 
L 291.427898 55.066096 
L 292.188807 51.745094 
L 292.949716 49.647055 
L 293.33017 49.278257 
L 293.710625 49.488041 
L 294.09108 50.71716 
L 294.471534 52.453573 
L 295.232443 57.618832 
L 297.51517 76.511723 
L 298.27608 78.858744 
L 298.656534 79.023614 
L 299.036989 78.551842 
L 299.417443 77.77541 
L 301.319716 70.915387 
L 302.080625 67.570152 
L 303.982898 59.707293 
L 304.363352 57.497133 
L 305.504716 54.071489 
L 305.88517 53.650132 
L 306.265625 53.652057 
L 307.026534 54.155865 
L 307.787443 55.057105 
L 308.167898 56.014709 
L 308.548352 57.575889 
L 309.309261 62.299483 
L 310.07017 68.42429 
L 310.450625 71.227968 
L 310.83108 73.034651 
L 311.211534 73.467369 
L 312.733352 68.924851 
L 313.494261 67.274133 
L 314.635625 64.266356 
L 315.396534 62.095969 
L 316.157443 60.563396 
L 316.537898 60.415404 
L 316.918352 60.484392 
L 317.679261 60.752284 
L 318.059716 60.775174 
L 318.44017 59.918715 
L 319.20108 55.417377 
L 319.961989 51.233649 
L 320.722898 49.087321 
L 321.103352 48.692933 
L 321.864261 49.457468 
L 322.244716 50.334699 
L 323.005625 54.637966 
L 324.527443 68.206506 
L 325.288352 73.787111 
L 325.668807 75.053161 
L 326.049261 75.460106 
L 326.429716 75.176188 
L 327.951534 70.037196 
L 330.234261 61.519895 
L 330.99517 59.709932 
L 331.75608 58.739318 
L 332.516989 57.989268 
L 332.897443 57.063858 
L 333.658352 54.762899 
L 334.419261 53.097816 
L 334.799716 52.539522 
L 335.18017 52.465536 
L 335.560625 52.653776 
L 335.94108 53.331023 
L 336.701989 56.197612 
L 337.462898 60.593642 
L 338.604261 68.592608 
L 338.984716 70.063421 
L 339.36517 70.757056 
L 340.886989 67.214506 
L 341.647898 66.114171 
L 342.028352 65.759766 
L 342.408807 65.630311 
L 342.789261 65.002223 
L 343.55017 62.956353 
L 344.691534 59.581518 
L 345.832898 57.620927 
L 346.593807 56.347346 
L 346.974261 55.719468 
L 348.49608 51.4323 
L 348.876534 50.804045 
L 349.256989 50.758033 
L 349.637443 51.491934 
L 350.017898 52.746577 
L 350.398352 54.490452 
L 351.159261 60.329679 
L 353.061534 76.506045 
L 353.441989 77.859601 
L 353.822443 78.177094 
L 354.202898 77.672014 
L 354.963807 77.168496 
L 355.724716 76.177282 
L 356.485625 74.270569 
L 357.626989 70.375147 
L 358.387898 67.532648 
L 360.29017 61.780514 
L 360.670625 60.046473 
L 361.431534 55.89679 
L 361.811989 54.21241 
L 362.572898 52.225928 
L 362.953352 51.832587 
L 363.333807 52.259567 
L 364.094716 53.926847 
L 364.47517 55.612027 
L 365.996989 64.686515 
L 366.377443 66.336148 
L 366.757898 67.444425 
L 367.138352 67.90867 
L 367.518807 66.879108 
L 368.66017 58.769517 
L 368.66017 58.769517 
" clip-path="url(#pd1afd22f0e)" style="fill: none; stroke-dasharray: 6.4,1.6,1,1.6; stroke-dashoffset: 0; stroke: #1f77b4"/>
   </g>
   <g id="line2d_25">
    <path d="M 216.858807 65.261688 
L 369.040625 65.261688 
" clip-path="url(#pd1afd22f0e)" style="fill: none; stroke-dasharray: 1,1.65; stroke-dashoffset: 0; stroke: #000000"/>
   </g>
   <g id="patch_9">
    <path d="M 216.858807 94.87875 
L 216.858807 19.27875 
" style="fill: none; stroke: #000000; stroke-width: 0.8; stroke-linejoin: miter; stroke-linecap: square"/>
   </g>
   <g id="patch_10">
    <path d="M 369.040625 94.87875 
L 369.040625 19.27875 
" style="fill: none; stroke: #000000; stroke-width: 0.8; stroke-linejoin: miter; stroke-linecap: square"/>
   </g>
   <g id="patch_11">
    <path d="M 216.858807 94.87875 
L 369.040625 94.87875 
" style="fill: none; stroke: #000000; stroke-width: 0.8; stroke-linejoin: miter; stroke-linecap: square"/>
   </g>
   <g id="patch_12">
    <path d="M 216.858807 19.27875 
L 369.040625 19.27875 
" style="fill: none; stroke: #000000; stroke-width: 0.8; stroke-linejoin: miter; stroke-linecap: square"/>
   </g>
   <g id="text_8">
    <!-- eps. 5 -->
    <g transform="translate(280.777841 13.27875)scale(0.08 -0.08)">
     <use xlink:href="#DejaVuSans-65"/>
     <use xlink:href="#DejaVuSans-70" x="61.523438"/>
     <use xlink:href="#DejaVuSans-73" x="125"/>
     <use xlink:href="#DejaVuSans-2e" x="177.099609"/>
     <use xlink:href="#DejaVuSans-20" x="208.886719"/>
     <use xlink:href="#DejaVuSans-35" x="240.673828"/>
    </g>
   </g>
  </g>
  <g id="axes_3">
   <g id="patch_13">
    <path d="M 34.240625 185.59875 
L 186.422443 185.59875 
L 186.422443 109.99875 
L 34.240625 109.99875 
z
" style="fill: #ffffff"/>
   </g>
   <g id="matplotlib.axis_5">
    <g id="xtick_11">
     <g id="line2d_26">
      <g>
       <use xlink:href="#ma299188b60" x="34.240625" y="185.59875" style="stroke: #000000; stroke-width: 0.8"/>
      </g>
     </g>
     <g id="text_9">
      <!-- 0 -->
      <g transform="translate(31.059375 200.197188)scale(0.1 -0.1)">
       <use xlink:href="#DejaVuSans-30"/>
      </g>
     </g>
    </g>
    <g id="xtick_12">
     <g id="line2d_27">
      <g>
       <use xlink:href="#ma299188b60" x="72.28608" y="185.59875" style="stroke: #000000; stroke-width: 0.8"/>
      </g>
     </g>
     <g id="text_10">
      <!-- 100 -->
      <g transform="translate(62.74233 200.197188)scale(0.1 -0.1)">
       <use xlink:href="#DejaVuSans-31"/>
       <use xlink:href="#DejaVuSans-30" x="63.623047"/>
       <use xlink:href="#DejaVuSans-30" x="127.246094"/>
      </g>
     </g>
    </g>
    <g id="xtick_13">
     <g id="line2d_28">
      <g>
       <use xlink:href="#ma299188b60" x="110.331534" y="185.59875" style="stroke: #000000; stroke-width: 0.8"/>
      </g>
     </g>
     <g id="text_11">
      <!-- 200 -->
      <g transform="translate(100.787784 200.197188)scale(0.1 -0.1)">
       <defs>
        <path id="DejaVuSans-32" d="M 1228 531 
L 3431 531 
L 3431 0 
L 469 0 
L 469 531 
Q 828 903 1448 1529 
Q 2069 2156 2228 2338 
Q 2531 2678 2651 2914 
Q 2772 3150 2772 3378 
Q 2772 3750 2511 3984 
Q 2250 4219 1831 4219 
Q 1534 4219 1204 4116 
Q 875 4013 500 3803 
L 500 4441 
Q 881 4594 1212 4672 
Q 1544 4750 1819 4750 
Q 2544 4750 2975 4387 
Q 3406 4025 3406 3419 
Q 3406 3131 3298 2873 
Q 3191 2616 2906 2266 
Q 2828 2175 2409 1742 
Q 1991 1309 1228 531 
z
" transform="scale(0.015625)"/>
       </defs>
       <use xlink:href="#DejaVuSans-32"/>
       <use xlink:href="#DejaVuSans-30" x="63.623047"/>
       <use xlink:href="#DejaVuSans-30" x="127.246094"/>
      </g>
     </g>
    </g>
    <g id="xtick_14">
     <g id="line2d_29">
      <g>
       <use xlink:href="#ma299188b60" x="148.376989" y="185.59875" style="stroke: #000000; stroke-width: 0.8"/>
      </g>
     </g>
     <g id="text_12">
      <!-- 300 -->
      <g transform="translate(138.833239 200.197188)scale(0.1 -0.1)">
       <defs>
        <path id="DejaVuSans-33" d="M 2597 2516 
Q 3050 2419 3304 2112 
Q 3559 1806 3559 1356 
Q 3559 666 3084 287 
Q 2609 -91 1734 -91 
Q 1441 -91 1130 -33 
Q 819 25 488 141 
L 488 750 
Q 750 597 1062 519 
Q 1375 441 1716 441 
Q 2309 441 2620 675 
Q 2931 909 2931 1356 
Q 2931 1769 2642 2001 
Q 2353 2234 1838 2234 
L 1294 2234 
L 1294 2753 
L 1863 2753 
Q 2328 2753 2575 2939 
Q 2822 3125 2822 3475 
Q 2822 3834 2567 4026 
Q 2313 4219 1838 4219 
Q 1578 4219 1281 4162 
Q 984 4106 628 3988 
L 628 4550 
Q 988 4650 1302 4700 
Q 1616 4750 1894 4750 
Q 2613 4750 3031 4423 
Q 3450 4097 3450 3541 
Q 3450 3153 3228 2886 
Q 3006 2619 2597 2516 
z
" transform="scale(0.015625)"/>
       </defs>
       <use xlink:href="#DejaVuSans-33"/>
       <use xlink:href="#DejaVuSans-30" x="63.623047"/>
       <use xlink:href="#DejaVuSans-30" x="127.246094"/>
      </g>
     </g>
    </g>
    <g id="xtick_15">
     <g id="line2d_30">
      <g>
       <use xlink:href="#ma299188b60" x="186.422443" y="185.59875" style="stroke: #000000; stroke-width: 0.8"/>
      </g>
     </g>
     <g id="text_13">
      <!-- 400 -->
      <g transform="translate(176.878693 200.197188)scale(0.1 -0.1)">
       <defs>
        <path id="DejaVuSans-34" d="M 2419 4116 
L 825 1625 
L 2419 1625 
L 2419 4116 
z
M 2253 4666 
L 3047 4666 
L 3047 1625 
L 3713 1625 
L 3713 1100 
L 3047 1100 
L 3047 0 
L 2419 0 
L 2419 1100 
L 313 1100 
L 313 1709 
L 2253 4666 
z
" transform="scale(0.015625)"/>
       </defs>
       <use xlink:href="#DejaVuSans-34"/>
       <use xlink:href="#DejaVuSans-30" x="63.623047"/>
       <use xlink:href="#DejaVuSans-30" x="127.246094"/>
      </g>
     </g>
    </g>
    <g id="text_14">
     <!-- interaction -->
     <g transform="translate(83.290909 213.875313)scale(0.1 -0.1)">
      <defs>
       <path id="DejaVuSans-69" d="M 603 3500 
L 1178 3500 
L 1178 0 
L 603 0 
L 603 3500 
z
M 603 4863 
L 1178 4863 
L 1178 4134 
L 603 4134 
L 603 4863 
z
" transform="scale(0.015625)"/>
       <path id="DejaVuSans-6e" d="M 3513 2113 
L 3513 0 
L 2938 0 
L 2938 2094 
Q 2938 2591 2744 2837 
Q 2550 3084 2163 3084 
Q 1697 3084 1428 2787 
Q 1159 2491 1159 1978 
L 1159 0 
L 581 0 
L 581 3500 
L 1159 3500 
L 1159 2956 
Q 1366 3272 1645 3428 
Q 1925 3584 2291 3584 
Q 2894 3584 3203 3211 
Q 3513 2838 3513 2113 
z
" transform="scale(0.015625)"/>
       <path id="DejaVuSans-74" d="M 1172 4494 
L 1172 3500 
L 2356 3500 
L 2356 3053 
L 1172 3053 
L 1172 1153 
Q 1172 725 1289 603 
Q 1406 481 1766 481 
L 2356 481 
L 2356 0 
L 1766 0 
Q 1100 0 847 248 
Q 594 497 594 1153 
L 594 3053 
L 172 3053 
L 172 3500 
L 594 3500 
L 594 4494 
L 1172 4494 
z
" transform="scale(0.015625)"/>
       <path id="DejaVuSans-72" d="M 2631 2963 
Q 2534 3019 2420 3045 
Q 2306 3072 2169 3072 
Q 1681 3072 1420 2755 
Q 1159 2438 1159 1844 
L 1159 0 
L 581 0 
L 581 3500 
L 1159 3500 
L 1159 2956 
Q 1341 3275 1631 3429 
Q 1922 3584 2338 3584 
Q 2397 3584 2469 3576 
Q 2541 3569 2628 3553 
L 2631 2963 
z
" transform="scale(0.015625)"/>
       <path id="DejaVuSans-61" d="M 2194 1759 
Q 1497 1759 1228 1600 
Q 959 1441 959 1056 
Q 959 750 1161 570 
Q 1363 391 1709 391 
Q 2188 391 2477 730 
Q 2766 1069 2766 1631 
L 2766 1759 
L 2194 1759 
z
M 3341 1997 
L 3341 0 
L 2766 0 
L 2766 531 
Q 2569 213 2275 61 
Q 1981 -91 1556 -91 
Q 1019 -91 701 211 
Q 384 513 384 1019 
Q 384 1609 779 1909 
Q 1175 2209 1959 2209 
L 2766 2209 
L 2766 2266 
Q 2766 2663 2505 2880 
Q 2244 3097 1772 3097 
Q 1472 3097 1187 3025 
Q 903 2953 641 2809 
L 641 3341 
Q 956 3463 1253 3523 
Q 1550 3584 1831 3584 
Q 2591 3584 2966 3190 
Q 3341 2797 3341 1997 
z
" transform="scale(0.015625)"/>
       <path id="DejaVuSans-63" d="M 3122 3366 
L 3122 2828 
Q 2878 2963 2633 3030 
Q 2388 3097 2138 3097 
Q 1578 3097 1268 2742 
Q 959 2388 959 1747 
Q 959 1106 1268 751 
Q 1578 397 2138 397 
Q 2388 397 2633 464 
Q 2878 531 3122 666 
L 3122 134 
Q 2881 22 2623 -34 
Q 2366 -91 2075 -91 
Q 1284 -91 818 406 
Q 353 903 353 1747 
Q 353 2603 823 3093 
Q 1294 3584 2113 3584 
Q 2378 3584 2631 3529 
Q 2884 3475 3122 3366 
z
" transform="scale(0.015625)"/>
       <path id="DejaVuSans-6f" d="M 1959 3097 
Q 1497 3097 1228 2736 
Q 959 2375 959 1747 
Q 959 1119 1226 758 
Q 1494 397 1959 397 
Q 2419 397 2687 759 
Q 2956 1122 2956 1747 
Q 2956 2369 2687 2733 
Q 2419 3097 1959 3097 
z
M 1959 3584 
Q 2709 3584 3137 3096 
Q 3566 2609 3566 1747 
Q 3566 888 3137 398 
Q 2709 -91 1959 -91 
Q 1206 -91 779 398 
Q 353 888 353 1747 
Q 353 2609 779 3096 
Q 1206 3584 1959 3584 
z
" transform="scale(0.015625)"/>
      </defs>
      <use xlink:href="#DejaVuSans-69"/>
      <use xlink:href="#DejaVuSans-6e" x="27.783203"/>
      <use xlink:href="#DejaVuSans-74" x="91.162109"/>
      <use xlink:href="#DejaVuSans-65" x="130.371094"/>
      <use xlink:href="#DejaVuSans-72" x="191.894531"/>
      <use xlink:href="#DejaVuSans-61" x="233.007812"/>
      <use xlink:href="#DejaVuSans-63" x="294.287109"/>
      <use xlink:href="#DejaVuSans-74" x="349.267578"/>
      <use xlink:href="#DejaVuSans-69" x="388.476562"/>
      <use xlink:href="#DejaVuSans-6f" x="416.259766"/>
      <use xlink:href="#DejaVuSans-6e" x="477.441406"/>
     </g>
    </g>
   </g>
   <g id="matplotlib.axis_6">
    <g id="ytick_5">
     <g id="line2d_31">
      <g>
       <use xlink:href="#m545a220a01" x="34.240625" y="155.981688" style="stroke: #000000; stroke-width: 0.8"/>
      </g>
     </g>
     <g id="text_15">
      <!-- 0 -->
      <g transform="translate(20.878125 159.780906)scale(0.1 -0.1)">
       <use xlink:href="#DejaVuSans-30"/>
      </g>
     </g>
    </g>
    <g id="ytick_6">
     <g id="line2d_32">
      <g>
       <use xlink:href="#m545a220a01" x="34.240625" y="111.764462" style="stroke: #000000; stroke-width: 0.8"/>
      </g>
     </g>
     <g id="text_16">
      <!-- 5 -->
      <g transform="translate(20.878125 115.563681)scale(0.1 -0.1)">
       <use xlink:href="#DejaVuSans-35"/>
      </g>
     </g>
    </g>
    <g id="text_17">
     <!-- $A^{GAE}$ -->
     <g transform="translate(14.798437 159.04875)rotate(-90)scale(0.1 -0.1)">
      <use xlink:href="#DejaVuSans-Oblique-41" transform="translate(0 0.765625)"/>
      <use xlink:href="#DejaVuSans-Oblique-47" transform="translate(75.424974 39.046875)scale(0.7)"/>
      <use xlink:href="#DejaVuSans-Oblique-41" transform="translate(129.668138 39.046875)scale(0.7)"/>
      <use xlink:href="#DejaVuSans-Oblique-45" transform="translate(177.55388 39.046875)scale(0.7)"/>
     </g>
    </g>
   </g>
   <g id="line2d_33">
    <path d="M 34.62108 169.859907 
L 36.142898 169.000451 
L 36.903807 168.733301 
L 38.425625 168.651594 
L 39.186534 168.673106 
L 39.947443 168.587249 
L 41.088807 168.669231 
L 42.23017 169.013709 
L 42.99108 169.505424 
L 44.132443 170.413741 
L 44.893352 170.753431 
L 45.273807 170.814257 
L 45.654261 170.71293 
L 46.795625 169.534004 
L 47.936989 168.335526 
L 48.697898 167.79002 
L 49.458807 167.478534 
L 50.980625 167.162227 
L 52.121989 166.797007 
L 53.263352 166.848368 
L 56.306989 167.126241 
L 57.448352 167.872827 
L 58.209261 168.297731 
L 58.97017 168.417546 
L 59.350625 168.248731 
L 60.491989 167.061933 
L 62.394261 165.040489 
L 63.15517 164.563415 
L 64.296534 164.143107 
L 66.959716 164.181475 
L 68.10108 164.027564 
L 69.242443 164.219506 
L 70.003352 164.599037 
L 71.52517 165.559552 
L 72.28608 165.745118 
L 72.666534 165.628587 
L 73.427443 164.992856 
L 74.568807 163.861894 
L 77.231989 161.985825 
L 77.612443 161.80121 
L 78.373352 161.758163 
L 80.275625 161.886913 
L 81.416989 161.748522 
L 82.177898 161.888792 
L 82.938807 162.238308 
L 84.08017 163.082577 
L 85.221534 164.01032 
L 85.982443 164.355448 
L 86.362898 164.349097 
L 86.743352 164.160412 
L 88.26517 162.677548 
L 90.167443 160.973714 
L 90.928352 160.50984 
L 92.069716 160.198358 
L 95.113352 159.815729 
L 95.874261 160.046607 
L 97.015625 160.661101 
L 98.917898 161.855291 
L 99.678807 162.029562 
L 100.439716 161.823228 
L 102.341989 159.893299 
L 103.863807 158.025799 
L 104.624716 157.400385 
L 105.76608 156.879955 
L 108.048807 156.285079 
L 109.19017 155.748332 
L 109.95108 155.60157 
L 110.711989 155.58244 
L 111.472898 155.751248 
L 112.233807 156.072317 
L 112.994716 156.06927 
L 113.37517 155.950001 
L 113.755625 155.653707 
L 116.799261 152.136198 
L 118.32108 150.991738 
L 118.701534 150.723744 
L 119.842898 150.567291 
L 121.364716 151.03946 
L 122.125625 150.598228 
L 123.266989 149.872235 
L 124.027898 149.688337 
L 124.788807 149.759077 
L 126.69108 150.390765 
L 127.071534 150.254646 
L 127.451989 149.957619 
L 129.734716 147.138704 
L 132.397898 145.301943 
L 133.158807 145.262726 
L 133.919716 145.537286 
L 134.680625 145.861446 
L 135.441534 145.626777 
L 136.582898 145.234005 
L 137.343807 145.267217 
L 138.104716 145.559413 
L 138.865625 146.073006 
L 140.387443 147.24624 
L 140.767898 147.450067 
L 141.148352 147.522319 
L 141.909261 147.268614 
L 142.67017 146.672264 
L 145.333352 144.241158 
L 146.474716 143.785308 
L 147.235625 143.744386 
L 148.376989 143.7842 
L 149.518352 143.73743 
L 150.279261 143.954034 
L 151.04017 144.367608 
L 152.561989 145.505868 
L 154.083807 146.91119 
L 154.844716 147.411891 
L 155.22517 147.507585 
L 155.98608 147.296979 
L 156.746989 146.823042 
L 158.649261 145.390955 
L 159.790625 144.757632 
L 160.551534 144.661665 
L 161.312443 144.830902 
L 162.453807 145.174015 
L 163.214716 145.039025 
L 163.975625 144.858541 
L 164.736534 144.988746 
L 165.497443 145.49448 
L 166.638807 146.601984 
L 168.160625 148.158342 
L 168.921534 148.701778 
L 169.682443 148.780203 
L 170.443352 148.511363 
L 171.204261 147.97851 
L 172.72608 146.838441 
L 173.867443 146.406362 
L 174.628352 146.353771 
L 175.769716 146.738375 
L 178.052443 147.915067 
L 179.954716 148.989194 
L 182.998352 150.996433 
L 183.378807 150.99662 
L 184.139716 150.721373 
L 186.041989 149.693338 
L 186.041989 149.693338 
" clip-path="url(#pfe19522929)" style="fill: none; stroke-dasharray: 3.7,1.6; stroke-dashoffset: 0; stroke: #1f77b4"/>
   </g>
   <g id="line2d_34">
    <path d="M 34.62108 165.867895 
L 36.142898 163.803764 
L 36.903807 163.14566 
L 38.04517 163.024626 
L 39.566989 163.000522 
L 40.708352 163.047865 
L 41.469261 163.601557 
L 42.610625 165.103357 
L 44.893352 170.551893 
L 45.273807 171.00641 
L 45.654261 171.020321 
L 46.41517 169.566512 
L 47.936989 165.779519 
L 48.697898 164.528977 
L 49.458807 163.875485 
L 50.60017 163.564485 
L 51.36108 163.073535 
L 52.121989 162.579455 
L 52.882898 162.654228 
L 54.78517 163.976608 
L 55.926534 164.248124 
L 56.306989 164.566912 
L 57.067898 166.259463 
L 58.209261 168.851449 
L 58.589716 169.457543 
L 58.97017 169.77651 
L 59.350625 169.617426 
L 60.111534 168.097716 
L 62.774716 161.767322 
L 63.535625 160.846517 
L 64.296534 160.253754 
L 65.437898 160.602042 
L 66.198807 161.059726 
L 68.10108 160.534275 
L 68.861989 160.855179 
L 69.622898 161.749937 
L 70.383807 163.427198 
L 71.144716 165.328276 
L 72.28608 166.957791 
L 72.666534 166.905933 
L 73.427443 165.654235 
L 74.568807 163.11877 
L 76.090625 160.422476 
L 76.851534 159.162058 
L 77.612443 158.140164 
L 77.992898 158.009366 
L 78.753807 158.173363 
L 79.514716 158.668671 
L 80.275625 158.598304 
L 81.036534 158.284095 
L 81.797443 158.394678 
L 82.558352 159.256086 
L 83.319261 160.66515 
L 84.460625 163.772414 
L 85.221534 165.852255 
L 85.982443 167.417393 
L 86.362898 167.735128 
L 86.743352 167.551557 
L 87.504261 166.275385 
L 90.167443 160.974143 
L 90.928352 159.980563 
L 91.689261 159.445498 
L 93.21108 159.564236 
L 93.971989 159.422525 
L 94.352443 159.305239 
L 94.732898 159.322693 
L 95.113352 159.453463 
L 95.874261 160.390662 
L 96.63517 161.857486 
L 97.39608 163.643446 
L 98.917898 167.642342 
L 99.678807 168.992278 
L 100.059261 169.294865 
L 100.439716 169.358241 
L 101.961534 167.122042 
L 104.244261 161.841196 
L 104.624716 161.301672 
L 105.385625 160.753928 
L 105.76608 160.657935 
L 106.907443 160.860477 
L 107.287898 160.937943 
L 108.048807 160.662308 
L 108.809716 160.213196 
L 109.19017 159.992943 
L 109.570625 159.961989 
L 110.331534 160.341603 
L 110.711989 160.652062 
L 111.472898 161.759517 
L 112.233807 163.387974 
L 112.994716 164.208875 
L 113.37517 164.311496 
L 113.755625 163.922124 
L 114.516534 162.176309 
L 115.657898 159.119743 
L 116.418807 157.492026 
L 117.940625 154.945151 
L 118.701534 153.874789 
L 119.462443 153.743778 
L 119.842898 153.92466 
L 120.603807 155.172111 
L 120.984261 155.802483 
L 121.364716 156.067148 
L 121.74517 155.800382 
L 123.266989 153.899491 
L 123.647443 153.750706 
L 124.027898 153.757158 
L 124.408352 153.897305 
L 124.788807 154.341252 
L 125.169261 154.957118 
L 125.93017 156.543354 
L 126.69108 157.419644 
L 127.071534 157.355922 
L 127.451989 156.839299 
L 128.212898 154.508292 
L 128.973807 152.168983 
L 129.734716 150.235614 
L 130.87608 148.273388 
L 132.017443 145.812446 
L 132.397898 145.423218 
L 132.778352 145.230241 
L 133.158807 145.245382 
L 133.539261 145.465919 
L 134.680625 146.855326 
L 135.06108 146.68031 
L 136.202443 145.359664 
L 136.582898 145.041437 
L 136.963352 144.936698 
L 137.343807 145.042947 
L 137.724261 145.34049 
L 138.48517 146.395395 
L 140.006989 149.890065 
L 140.767898 151.48596 
L 141.148352 151.848878 
L 141.528807 151.782265 
L 141.909261 151.476345 
L 142.289716 150.893799 
L 143.050625 149.224421 
L 144.572443 145.124272 
L 145.713807 142.8723 
L 146.094261 142.241631 
L 146.85517 141.585503 
L 148.376989 141.153793 
L 149.518352 140.499132 
L 149.898807 140.512154 
L 150.659716 141.038494 
L 151.80108 142.681591 
L 152.942443 145.167665 
L 153.703352 147.023779 
L 154.464261 148.877343 
L 154.844716 149.480639 
L 155.22517 149.827904 
L 155.605625 149.745357 
L 155.98608 149.409419 
L 156.746989 148.211421 
L 159.41017 142.638758 
L 159.790625 142.002339 
L 160.17108 141.585378 
L 160.551534 141.404248 
L 160.931989 141.37184 
L 161.692898 141.776315 
L 162.073352 141.967027 
L 162.453807 141.972646 
L 162.834261 141.741195 
L 163.975625 140.324726 
L 164.35608 140.127323 
L 164.736534 140.226652 
L 165.116989 140.579425 
L 165.877898 141.931953 
L 167.019261 144.804897 
L 168.54108 148.694803 
L 168.921534 149.315108 
L 169.301989 149.619353 
L 169.682443 149.613421 
L 170.062898 149.351892 
L 170.443352 148.934233 
L 170.823807 148.315726 
L 173.106534 143.354575 
L 173.867443 142.290153 
L 174.247898 141.90311 
L 174.628352 141.744857 
L 175.389261 141.973714 
L 176.15017 142.496492 
L 177.671989 144.102317 
L 178.432898 144.849903 
L 179.954716 146.865002 
L 181.09608 148.960742 
L 182.617898 152.172721 
L 182.998352 152.5597 
L 183.378807 152.662505 
L 184.139716 152.092571 
L 186.041989 149.484321 
L 186.041989 149.484321 
" clip-path="url(#pfe19522929)" style="fill: none; stroke: #1f77b4; stroke-linecap: square"/>
   </g>
   <g id="line2d_35">
    <path d="M 34.62108 165.661044 
L 36.903807 159.95525 
L 38.04517 159.142123 
L 38.425625 158.953587 
L 38.80608 158.95809 
L 39.186534 158.730069 
L 39.566989 158.032705 
L 40.708352 156.913875 
L 41.469261 157.179979 
L 42.23017 158.159228 
L 42.610625 159.147785 
L 43.371534 163.094337 
L 44.893352 171.593727 
L 45.273807 173.21839 
L 45.654261 173.972657 
L 46.41517 172.181795 
L 48.317443 164.353322 
L 49.078352 162.460185 
L 49.458807 161.915572 
L 49.839261 161.758551 
L 50.219716 161.410271 
L 50.60017 161.216557 
L 50.980625 160.733697 
L 52.121989 158.482919 
L 52.882898 158.0925 
L 53.263352 158.405481 
L 53.643807 158.497982 
L 54.024261 159.051178 
L 54.78517 159.651353 
L 55.165625 159.533856 
L 55.54608 159.576893 
L 55.926534 159.450036 
L 56.306989 159.879733 
L 56.687443 161.306991 
L 58.97017 173.165589 
L 59.350625 173.629118 
L 59.73108 172.960405 
L 60.491989 170.533029 
L 61.252898 167.219852 
L 62.394261 162.200564 
L 63.15517 159.839709 
L 64.296534 157.376885 
L 65.437898 157.629873 
L 65.818352 157.894898 
L 66.198807 158.340724 
L 66.579261 157.957353 
L 67.34017 156.89056 
L 67.720625 156.529892 
L 68.10108 155.961161 
L 68.861989 155.924463 
L 69.622898 157.200552 
L 70.383807 160.514841 
L 71.52517 166.567707 
L 72.28608 169.906977 
L 72.666534 170.49261 
L 73.046989 170.035055 
L 73.427443 169.140756 
L 74.568807 165.20601 
L 75.329716 163.149226 
L 77.612443 155.353811 
L 77.992898 154.823744 
L 78.753807 154.626009 
L 79.514716 155.154731 
L 80.275625 154.347116 
L 81.036534 152.74576 
L 81.797443 151.823944 
L 82.177898 152.047151 
L 82.558352 152.454637 
L 82.938807 153.227006 
L 83.319261 154.392683 
L 84.08017 157.831152 
L 85.982443 169.116144 
L 86.362898 170.420961 
L 86.743352 170.688146 
L 87.504261 169.184365 
L 88.645625 165.49324 
L 90.928352 157.669385 
L 91.689261 156.12056 
L 92.069716 155.976149 
L 92.45017 155.584914 
L 92.830625 155.493276 
L 93.21108 155.192793 
L 93.591534 154.725178 
L 94.732898 152.709412 
L 95.113352 152.350816 
L 95.493807 152.563264 
L 95.874261 153.080648 
L 96.254716 153.872694 
L 97.015625 156.434276 
L 97.776534 160.118818 
L 99.678807 170.459448 
L 100.059261 171.741818 
L 100.439716 172.595242 
L 100.82017 172.155899 
L 101.200625 171.928929 
L 101.58108 171.46392 
L 101.961534 170.626509 
L 102.722443 167.806718 
L 103.863807 162.745227 
L 104.624716 160.489049 
L 105.385625 159.365502 
L 105.76608 159.155729 
L 106.526989 159.40577 
L 107.287898 159.86274 
L 107.668352 159.726748 
L 108.048807 159.326097 
L 109.19017 157.685915 
L 109.570625 157.495251 
L 110.331534 158.115211 
L 110.711989 158.738087 
L 111.472898 161.297333 
L 112.614261 167.19393 
L 113.37517 169.718871 
L 113.755625 169.750606 
L 114.516534 167.605308 
L 116.038352 161.443927 
L 117.179716 157.862297 
L 117.56017 156.865475 
L 118.701534 153.127733 
L 119.462443 152.620668 
L 119.842898 152.904608 
L 120.223352 154.07082 
L 120.984261 157.222084 
L 121.364716 158.065848 
L 121.74517 157.750571 
L 123.266989 154.114335 
L 123.647443 153.798788 
L 124.027898 153.820235 
L 124.408352 154.154832 
L 124.788807 155.223912 
L 125.169261 156.781168 
L 126.310625 162.822061 
L 126.69108 164.650851 
L 127.071534 165.483562 
L 127.451989 165.37024 
L 127.832443 164.092524 
L 129.354261 156.842037 
L 129.734716 155.343227 
L 130.87608 152.210052 
L 132.017443 147.138706 
L 132.397898 146.188297 
L 132.778352 145.615805 
L 133.158807 145.476195 
L 133.539261 145.796067 
L 134.680625 148.736353 
L 135.06108 148.379589 
L 136.582898 144.117112 
L 136.963352 143.533331 
L 137.343807 143.379242 
L 137.724261 143.641276 
L 138.104716 144.251578 
L 138.48517 145.274113 
L 139.24608 148.697197 
L 140.006989 152.869981 
L 140.767898 157.311784 
L 141.148352 158.810491 
L 141.528807 159.457981 
L 141.909261 159.634152 
L 142.289716 159.217517 
L 143.050625 157.187456 
L 145.333352 147.34995 
L 146.474716 143.987809 
L 146.85517 143.226634 
L 147.996534 142.19487 
L 148.376989 141.568715 
L 148.757443 140.697905 
L 149.137898 139.537083 
L 149.898807 138.432849 
L 150.279261 138.340734 
L 150.659716 138.426292 
L 151.420625 139.585553 
L 151.80108 140.351289 
L 152.561989 142.788655 
L 154.083807 150.740071 
L 154.844716 154.798735 
L 155.22517 156.146521 
L 155.605625 156.625475 
L 155.98608 156.581249 
L 156.366534 156.142135 
L 156.746989 155.318219 
L 158.268807 150.208114 
L 159.790625 144.352602 
L 160.17108 143.363398 
L 160.551534 142.842145 
L 160.931989 142.620671 
L 161.312443 142.801237 
L 162.073352 143.538937 
L 162.453807 143.437058 
L 162.834261 142.770444 
L 164.35608 137.515214 
L 164.736534 137.071521 
L 165.116989 137.153833 
L 165.497443 137.812372 
L 165.877898 138.79824 
L 166.638807 141.729485 
L 168.160625 149.928998 
L 168.921534 153.897817 
L 169.301989 155.051194 
L 169.682443 155.594523 
L 170.062898 155.610042 
L 170.443352 155.289263 
L 170.823807 154.501991 
L 171.584716 151.532826 
L 172.72608 146.425007 
L 174.247898 141.088398 
L 174.628352 140.311506 
L 175.389261 139.82295 
L 175.769716 139.770649 
L 176.15017 139.871416 
L 176.91108 140.559576 
L 178.432898 141.671962 
L 179.574261 143.324361 
L 179.954716 143.974827 
L 180.715625 146.090146 
L 181.476534 149.051013 
L 182.617898 154.449835 
L 182.998352 155.58835 
L 183.378807 156.167555 
L 183.759261 156.032441 
L 184.139716 155.648607 
L 184.52017 154.882254 
L 186.041989 150.936252 
L 186.041989 150.936252 
" clip-path="url(#pfe19522929)" style="fill: none; stroke-dasharray: 6.4,1.6,1,1.6; stroke-dashoffset: 0; stroke: #1f77b4"/>
   </g>
   <g id="line2d_36">
    <path d="M 34.240625 155.981688 
L 186.422443 155.981688 
" clip-path="url(#pfe19522929)" style="fill: none; stroke-dasharray: 1,1.65; stroke-dashoffset: 0; stroke: #000000"/>
   </g>
   <g id="patch_14">
    <path d="M 34.240625 185.59875 
L 34.240625 109.99875 
" style="fill: none; stroke: #000000; stroke-width: 0.8; stroke-linejoin: miter; stroke-linecap: square"/>
   </g>
   <g id="patch_15">
    <path d="M 186.422443 185.59875 
L 186.422443 109.99875 
" style="fill: none; stroke: #000000; stroke-width: 0.8; stroke-linejoin: miter; stroke-linecap: square"/>
   </g>
   <g id="patch_16">
    <path d="M 34.240625 185.59875 
L 186.422443 185.59875 
" style="fill: none; stroke: #000000; stroke-width: 0.8; stroke-linejoin: miter; stroke-linecap: square"/>
   </g>
   <g id="patch_17">
    <path d="M 34.240625 109.99875 
L 186.422443 109.99875 
" style="fill: none; stroke: #000000; stroke-width: 0.8; stroke-linejoin: miter; stroke-linecap: square"/>
   </g>
   <g id="text_18">
    <!-- eps. 9 -->
    <g transform="translate(98.159659 103.99875)scale(0.08 -0.08)">
     <use xlink:href="#DejaVuSans-65"/>
     <use xlink:href="#DejaVuSans-70" x="61.523438"/>
     <use xlink:href="#DejaVuSans-73" x="125"/>
     <use xlink:href="#DejaVuSans-2e" x="177.099609"/>
     <use xlink:href="#DejaVuSans-20" x="208.886719"/>
     <use xlink:href="#DejaVuSans-39" x="240.673828"/>
    </g>
   </g>
  </g>
  <g id="axes_4">
   <g id="patch_18">
    <path d="M 216.858807 185.59875 
L 369.040625 185.59875 
L 369.040625 109.99875 
L 216.858807 109.99875 
z
" style="fill: #ffffff"/>
   </g>
   <g id="matplotlib.axis_7">
    <g id="xtick_16">
     <g id="line2d_37">
      <g>
       <use xlink:href="#ma299188b60" x="216.858807" y="185.59875" style="stroke: #000000; stroke-width: 0.8"/>
      </g>
     </g>
     <g id="text_19">
      <!-- 0 -->
      <g transform="translate(213.677557 200.197188)scale(0.1 -0.1)">
       <use xlink:href="#DejaVuSans-30"/>
      </g>
     </g>
    </g>
    <g id="xtick_17">
     <g id="line2d_38">
      <g>
       <use xlink:href="#ma299188b60" x="254.904261" y="185.59875" style="stroke: #000000; stroke-width: 0.8"/>
      </g>
     </g>
     <g id="text_20">
      <!-- 100 -->
      <g transform="translate(245.360511 200.197188)scale(0.1 -0.1)">
       <use xlink:href="#DejaVuSans-31"/>
       <use xlink:href="#DejaVuSans-30" x="63.623047"/>
       <use xlink:href="#DejaVuSans-30" x="127.246094"/>
      </g>
     </g>
    </g>
    <g id="xtick_18">
     <g id="line2d_39">
      <g>
       <use xlink:href="#ma299188b60" x="292.949716" y="185.59875" style="stroke: #000000; stroke-width: 0.8"/>
      </g>
     </g>
     <g id="text_21">
      <!-- 200 -->
      <g transform="translate(283.405966 200.197188)scale(0.1 -0.1)">
       <use xlink:href="#DejaVuSans-32"/>
       <use xlink:href="#DejaVuSans-30" x="63.623047"/>
       <use xlink:href="#DejaVuSans-30" x="127.246094"/>
      </g>
     </g>
    </g>
    <g id="xtick_19">
     <g id="line2d_40">
      <g>
       <use xlink:href="#ma299188b60" x="330.99517" y="185.59875" style="stroke: #000000; stroke-width: 0.8"/>
      </g>
     </g>
     <g id="text_22">
      <!-- 300 -->
      <g transform="translate(321.45142 200.197188)scale(0.1 -0.1)">
       <use xlink:href="#DejaVuSans-33"/>
       <use xlink:href="#DejaVuSans-30" x="63.623047"/>
       <use xlink:href="#DejaVuSans-30" x="127.246094"/>
      </g>
     </g>
    </g>
    <g id="xtick_20">
     <g id="line2d_41">
      <g>
       <use xlink:href="#ma299188b60" x="369.040625" y="185.59875" style="stroke: #000000; stroke-width: 0.8"/>
      </g>
     </g>
     <g id="text_23">
      <!-- 400 -->
      <g transform="translate(359.496875 200.197188)scale(0.1 -0.1)">
       <use xlink:href="#DejaVuSans-34"/>
       <use xlink:href="#DejaVuSans-30" x="63.623047"/>
       <use xlink:href="#DejaVuSans-30" x="127.246094"/>
      </g>
     </g>
    </g>
    <g id="text_24">
     <!-- interaction -->
     <g transform="translate(265.909091 213.875313)scale(0.1 -0.1)">
      <use xlink:href="#DejaVuSans-69"/>
      <use xlink:href="#DejaVuSans-6e" x="27.783203"/>
      <use xlink:href="#DejaVuSans-74" x="91.162109"/>
      <use xlink:href="#DejaVuSans-65" x="130.371094"/>
      <use xlink:href="#DejaVuSans-72" x="191.894531"/>
      <use xlink:href="#DejaVuSans-61" x="233.007812"/>
      <use xlink:href="#DejaVuSans-63" x="294.287109"/>
      <use xlink:href="#DejaVuSans-74" x="349.267578"/>
      <use xlink:href="#DejaVuSans-69" x="388.476562"/>
      <use xlink:href="#DejaVuSans-6f" x="416.259766"/>
      <use xlink:href="#DejaVuSans-6e" x="477.441406"/>
     </g>
    </g>
   </g>
   <g id="matplotlib.axis_8">
    <g id="ytick_7">
     <g id="line2d_42">
      <g>
       <use xlink:href="#m545a220a01" x="216.858807" y="155.981688" style="stroke: #000000; stroke-width: 0.8"/>
      </g>
     </g>
    </g>
    <g id="ytick_8">
     <g id="line2d_43">
      <g>
       <use xlink:href="#m545a220a01" x="216.858807" y="111.764462" style="stroke: #000000; stroke-width: 0.8"/>
      </g>
     </g>
    </g>
   </g>
   <g id="line2d_44">
    <path d="M 217.239261 177.418929 
L 218.380625 175.872263 
L 219.521989 175.079013 
L 221.043807 174.716005 
L 221.804716 174.620348 
L 222.565625 174.21333 
L 223.326534 173.878603 
L 224.848352 173.983609 
L 225.228807 174.226245 
L 227.13108 176.500597 
L 227.891989 176.789059 
L 228.272443 176.588986 
L 229.033352 175.101812 
L 230.174716 172.331886 
L 231.31608 170.260712 
L 232.076989 169.442908 
L 233.218352 168.829851 
L 233.598807 168.604148 
L 234.74017 167.620955 
L 235.50108 167.508923 
L 236.642443 167.423357 
L 237.403352 167.17827 
L 238.92517 166.337688 
L 239.305625 166.54421 
L 240.446989 167.7612 
L 241.207898 168.286315 
L 241.588352 168.329444 
L 241.968807 168.055067 
L 242.349261 167.511843 
L 245.012443 161.148145 
L 245.773352 160.158443 
L 246.534261 159.514302 
L 246.914716 159.251486 
L 248.436534 159.090964 
L 248.816989 159.131696 
L 249.577898 158.693617 
L 251.099716 157.688239 
L 251.48017 157.60267 
L 252.24108 157.72643 
L 253.001989 158.222964 
L 253.762898 158.889745 
L 254.523807 159.278226 
L 254.904261 159.340258 
L 255.284716 159.147733 
L 255.66517 158.708343 
L 256.045625 158.023257 
L 257.186989 155.422953 
L 259.089261 152.208702 
L 260.230625 150.942698 
L 260.991534 150.648364 
L 261.752443 150.753292 
L 262.513352 150.825233 
L 262.893807 150.676002 
L 264.03517 149.778518 
L 264.415625 149.593767 
L 265.176534 149.71733 
L 265.937443 150.232721 
L 266.698352 151.017985 
L 267.459261 152.000476 
L 268.600625 152.935795 
L 268.98108 152.970467 
L 269.361534 152.792885 
L 270.122443 151.859298 
L 272.40517 147.39792 
L 273.16608 146.583818 
L 273.926989 146.303352 
L 274.687898 146.430276 
L 275.829261 146.63544 
L 276.970625 146.437254 
L 277.731534 146.174553 
L 278.492443 146.557275 
L 280.77517 148.35914 
L 282.296989 149.812723 
L 283.057898 150.150416 
L 283.438352 150.079842 
L 283.818807 149.849836 
L 284.199261 149.462241 
L 284.96017 148.135945 
L 286.101534 145.829874 
L 286.862443 144.833256 
L 287.623352 144.256703 
L 288.384261 144.064837 
L 289.90608 144.155475 
L 291.047443 143.784126 
L 291.808352 143.49573 
L 292.188807 143.500095 
L 292.949716 143.989337 
L 293.710625 144.811817 
L 294.471534 146.00633 
L 296.373807 149.313122 
L 296.754261 149.772502 
L 297.134716 149.971062 
L 297.51517 149.995501 
L 298.27608 149.705279 
L 298.656534 149.409223 
L 299.417443 148.390918 
L 300.558807 146.609327 
L 301.319716 145.691726 
L 302.080625 145.146314 
L 302.841534 145.011986 
L 305.124261 145.156911 
L 305.504716 145.296094 
L 306.265625 145.991189 
L 307.406989 147.076431 
L 308.548352 148.16179 
L 309.309261 149.108442 
L 310.450625 150.715363 
L 310.83108 150.971496 
L 311.211534 151.015325 
L 311.972443 150.484464 
L 313.113807 149.038899 
L 313.874716 148.157574 
L 315.01608 147.440181 
L 315.776989 147.251931 
L 316.537898 147.298966 
L 316.918352 147.464695 
L 317.679261 147.963181 
L 318.059716 148.190948 
L 318.820625 148.288241 
L 319.581534 147.963474 
L 320.342443 148.116123 
L 321.103352 148.713715 
L 322.244716 150.249942 
L 323.005625 151.676502 
L 324.907898 155.586081 
L 325.288352 156.033724 
L 325.668807 156.309249 
L 326.049261 156.36584 
L 326.429716 156.237238 
L 327.190625 155.516762 
L 329.092898 153.089587 
L 329.853807 152.584811 
L 330.614716 152.264847 
L 330.99517 152.237651 
L 331.75608 152.519437 
L 332.516989 152.910988 
L 333.277898 153.183156 
L 333.658352 153.258782 
L 334.419261 153.744601 
L 335.94108 155.249712 
L 336.701989 156.199727 
L 338.984716 159.855362 
L 339.36517 160.192806 
L 339.745625 160.323531 
L 340.12608 160.266346 
L 340.886989 159.612452 
L 343.169716 157.393577 
L 344.691534 156.766247 
L 345.452443 156.698518 
L 346.213352 156.902044 
L 347.73517 157.463301 
L 348.49608 157.207597 
L 349.256989 157.227726 
L 349.637443 157.296176 
L 350.017898 157.555893 
L 350.778807 158.487262 
L 351.539716 159.911323 
L 352.68108 162.59273 
L 353.441989 163.692298 
L 353.822443 164.0379 
L 354.202898 164.062147 
L 354.583352 163.862285 
L 355.344261 162.869905 
L 357.626989 158.224459 
L 358.387898 157.266852 
L 359.148807 156.785063 
L 361.05108 157.162897 
L 361.431534 157.100922 
L 362.192443 156.626897 
L 362.572898 156.448057 
L 362.953352 156.400745 
L 363.714261 156.983867 
L 365.23608 158.667999 
L 365.996989 159.535121 
L 367.138352 160.474904 
L 367.899261 160.126457 
L 368.279716 159.848533 
L 368.66017 159.432879 
L 368.66017 159.432879 
" clip-path="url(#p6a391b7e80)" style="fill: none; stroke-dasharray: 3.7,1.6; stroke-dashoffset: 0; stroke: #1f77b4"/>
   </g>
   <g id="line2d_45">
    <path d="M 217.239261 172.198875 
L 218.380625 169.863477 
L 219.141534 169.110161 
L 219.521989 168.89498 
L 221.043807 168.962483 
L 221.424261 169.157598 
L 221.804716 169.192447 
L 222.565625 168.801921 
L 223.326534 168.545855 
L 224.467898 169.263128 
L 224.848352 169.642923 
L 225.228807 170.383963 
L 225.989716 173.060183 
L 226.750625 175.601682 
L 227.511534 177.70228 
L 227.891989 178.413644 
L 228.272443 178.565222 
L 228.652898 177.835727 
L 229.413807 175.242392 
L 230.935625 170.286309 
L 231.696534 168.861518 
L 232.076989 168.414663 
L 232.457443 168.354816 
L 232.837898 168.138018 
L 233.598807 167.88552 
L 234.359716 166.945721 
L 234.74017 166.726605 
L 235.50108 167.025862 
L 236.642443 167.707071 
L 237.403352 167.826821 
L 238.164261 167.432489 
L 238.544716 167.239207 
L 238.92517 167.369653 
L 239.305625 168.099819 
L 240.827443 172.770662 
L 241.207898 173.725517 
L 241.588352 174.348418 
L 241.968807 174.354463 
L 242.349261 173.822979 
L 243.490625 169.490799 
L 244.631989 165.023027 
L 245.392898 163.198695 
L 246.153807 162.038454 
L 246.914716 161.379155 
L 248.436534 161.927948 
L 248.816989 162.246007 
L 249.197443 162.146856 
L 251.099716 160.74487 
L 251.48017 160.787384 
L 252.24108 161.486819 
L 253.001989 163.004143 
L 253.762898 164.984673 
L 254.904261 167.077249 
L 255.284716 167.131649 
L 255.66517 166.69328 
L 256.045625 165.749168 
L 257.186989 161.61749 
L 259.469716 155.494836 
L 260.230625 154.096197 
L 260.61108 153.749103 
L 260.991534 153.647876 
L 261.371989 153.745511 
L 262.132898 154.251751 
L 262.513352 154.305453 
L 262.893807 154.093195 
L 264.03517 152.476812 
L 264.415625 152.138535 
L 265.176534 152.441795 
L 265.937443 153.568981 
L 266.698352 155.323813 
L 267.459261 157.603227 
L 268.600625 160.190802 
L 268.98108 160.550457 
L 269.361534 160.49528 
L 269.741989 159.993437 
L 270.122443 159.205933 
L 270.883352 156.38334 
L 272.024716 152.252041 
L 272.785625 150.289652 
L 273.16608 149.573786 
L 273.546534 149.171235 
L 273.926989 148.954828 
L 274.307443 148.963767 
L 275.448807 149.436111 
L 275.829261 149.453958 
L 276.970625 148.963317 
L 277.35108 148.555778 
L 277.731534 148.335391 
L 278.111989 148.542677 
L 279.253352 150.013055 
L 280.014261 151.145708 
L 281.155625 153.448661 
L 282.296989 156.005572 
L 283.057898 157.068966 
L 283.438352 157.143708 
L 283.818807 156.900748 
L 284.199261 156.333927 
L 284.579716 155.375277 
L 286.862443 147.572178 
L 287.623352 146.248303 
L 288.003807 145.827697 
L 288.764716 145.551391 
L 289.90608 145.262223 
L 290.666989 144.571091 
L 291.808352 143.043844 
L 292.188807 142.826095 
L 292.569261 142.968859 
L 292.949716 143.34568 
L 293.710625 144.57426 
L 294.471534 146.635274 
L 296.754261 154.070727 
L 297.134716 154.573194 
L 297.51517 154.740458 
L 297.895625 154.638326 
L 298.27608 154.400507 
L 298.656534 153.91829 
L 299.417443 152.039295 
L 300.939261 147.376433 
L 301.70017 145.682123 
L 302.46108 144.623606 
L 304.363352 143.599129 
L 305.504716 143.406846 
L 306.265625 144.324672 
L 307.026534 145.416682 
L 308.167898 146.913363 
L 308.928807 148.339467 
L 309.689716 150.335135 
L 310.450625 152.338758 
L 310.83108 152.866739 
L 311.211534 152.982221 
L 311.591989 152.58889 
L 311.972443 151.958846 
L 313.494261 147.93924 
L 314.25517 146.233264 
L 315.01608 144.926736 
L 315.396534 144.394553 
L 316.157443 143.751777 
L 316.537898 143.629552 
L 316.918352 143.684512 
L 317.298807 143.987609 
L 318.059716 144.324169 
L 318.44017 144.210264 
L 318.820625 143.975537 
L 319.581534 142.725928 
L 319.961989 142.443082 
L 320.342443 142.360424 
L 320.722898 142.484362 
L 321.103352 142.870284 
L 322.244716 145.00622 
L 323.005625 147.353671 
L 324.907898 154.627662 
L 325.288352 155.5379 
L 325.668807 156.128756 
L 326.049261 156.295913 
L 326.429716 156.094523 
L 326.81017 155.546319 
L 327.57108 153.691235 
L 328.712443 150.231099 
L 330.234261 147.580434 
L 330.614716 147.100371 
L 330.99517 146.807506 
L 331.75608 146.875003 
L 332.136534 147.100216 
L 333.277898 147.220542 
L 333.658352 147.121718 
L 334.038807 147.29104 
L 334.419261 147.591707 
L 335.18017 148.543606 
L 336.701989 151.281965 
L 337.843352 154.694788 
L 338.984716 158.320252 
L 339.36517 159.073258 
L 339.745625 159.432697 
L 340.12608 159.424531 
L 340.506534 158.970363 
L 341.647898 156.782944 
L 342.789261 154.401708 
L 343.930625 153.061734 
L 345.071989 152.050176 
L 345.832898 151.932253 
L 346.974261 152.520533 
L 347.354716 152.749817 
L 347.73517 152.764612 
L 348.49608 152.014868 
L 349.256989 151.778177 
L 349.637443 151.770693 
L 350.017898 152.148081 
L 350.398352 152.834179 
L 351.159261 154.994688 
L 351.92017 158.360521 
L 353.061534 163.49091 
L 353.822443 165.657678 
L 354.202898 165.995615 
L 354.583352 165.894071 
L 354.963807 165.354268 
L 355.344261 164.479088 
L 356.485625 160.237215 
L 357.626989 156.041264 
L 358.387898 154.091217 
L 359.148807 152.995138 
L 359.909716 153.22309 
L 360.670625 153.518051 
L 361.431534 153.151877 
L 362.192443 151.999775 
L 362.572898 151.513909 
L 362.953352 151.277446 
L 363.714261 152.167924 
L 364.855625 154.300388 
L 366.377443 157.647 
L 367.138352 158.937667 
L 367.518807 158.772492 
L 368.279716 157.903691 
L 368.66017 157.117493 
L 368.66017 157.117493 
" clip-path="url(#p6a391b7e80)" style="fill: none; stroke: #1f77b4; stroke-linecap: square"/>
   </g>
   <g id="line2d_46">
    <path d="M 217.239261 169.620775 
L 218.380625 165.520124 
L 219.521989 163.438458 
L 221.043807 162.906182 
L 221.424261 163.097716 
L 221.804716 162.965913 
L 222.565625 161.645428 
L 223.326534 160.351561 
L 224.467898 160.2908 
L 224.848352 160.517223 
L 225.228807 161.483173 
L 225.609261 163.503498 
L 227.511534 176.292337 
L 227.891989 178.440629 
L 228.272443 179.637977 
L 228.652898 179.153866 
L 229.033352 177.784234 
L 230.935625 168.119952 
L 231.696534 165.712435 
L 232.076989 164.933398 
L 232.457443 164.894358 
L 232.837898 164.532318 
L 233.218352 164.413097 
L 233.598807 164.122419 
L 234.74017 161.593662 
L 235.120625 161.618979 
L 235.881534 162.196139 
L 237.022898 162.850602 
L 237.403352 162.784156 
L 237.783807 162.359188 
L 238.544716 161.045948 
L 238.92517 161.023452 
L 239.305625 162.22253 
L 241.588352 176.762856 
L 241.968807 177.801364 
L 242.349261 177.859083 
L 243.11017 174.229181 
L 243.87108 169.93153 
L 244.631989 165.270114 
L 245.392898 162.219542 
L 246.153807 160.13483 
L 246.914716 158.804417 
L 248.05608 159.421423 
L 248.436534 159.738682 
L 248.816989 160.395076 
L 249.197443 160.245222 
L 250.338807 158.456797 
L 250.719261 157.590133 
L 251.099716 157.079126 
L 251.48017 156.943293 
L 251.860625 157.303229 
L 252.24108 157.915921 
L 252.621534 159.087791 
L 253.001989 160.76047 
L 254.523807 169.245487 
L 254.904261 171.145702 
L 255.284716 172.215891 
L 255.66517 172.397255 
L 256.045625 171.596299 
L 257.186989 166.144327 
L 258.328352 161.542776 
L 259.469716 156.940585 
L 260.230625 154.375687 
L 260.61108 153.672757 
L 260.991534 153.419883 
L 261.371989 153.554356 
L 262.132898 154.514683 
L 262.513352 154.641155 
L 262.893807 154.230643 
L 263.274261 153.091793 
L 263.654716 151.58792 
L 264.415625 149.561946 
L 264.79608 149.378111 
L 265.176534 149.334674 
L 265.556989 149.878833 
L 265.937443 150.754192 
L 266.317898 152.013926 
L 266.698352 153.68316 
L 268.600625 164.622359 
L 268.98108 166.109827 
L 269.361534 166.894069 
L 269.741989 166.858813 
L 270.122443 166.273512 
L 270.502898 164.678437 
L 272.40517 154.029434 
L 273.16608 151.020073 
L 273.546534 150.177538 
L 273.926989 149.649673 
L 274.307443 149.539881 
L 274.687898 149.744441 
L 275.068352 149.809214 
L 275.448807 150.106884 
L 275.829261 150.030387 
L 276.970625 148.531244 
L 277.731534 146.605692 
L 278.111989 146.584868 
L 278.492443 147.037849 
L 279.633807 148.986907 
L 280.394716 151.028831 
L 281.155625 154.033305 
L 283.057898 163.230456 
L 283.438352 164.226587 
L 283.818807 164.683739 
L 284.199261 164.55035 
L 284.579716 163.641741 
L 285.340625 159.795544 
L 286.481989 153.292161 
L 287.242898 150.493331 
L 288.003807 148.768397 
L 288.384261 148.385265 
L 289.525625 147.908931 
L 289.90608 147.553441 
L 290.666989 145.92429 
L 292.188807 140.742703 
L 292.569261 140.34091 
L 292.949716 140.359967 
L 293.33017 140.682844 
L 293.710625 141.31056 
L 294.09108 142.44665 
L 294.851989 146.073029 
L 297.134716 159.742059 
L 297.51517 160.714584 
L 297.895625 161.236877 
L 298.27608 161.552245 
L 298.656534 161.42298 
L 299.036989 160.571044 
L 299.417443 159.298716 
L 301.70017 149.1745 
L 302.46108 147.084231 
L 303.982898 144.850734 
L 305.124261 142.913207 
L 305.504716 142.5072 
L 305.88517 142.774596 
L 307.787443 145.680182 
L 308.167898 146.447069 
L 308.928807 148.761416 
L 309.689716 152.632399 
L 310.83108 158.780495 
L 311.211534 159.674044 
L 311.591989 159.618905 
L 311.972443 159.102886 
L 314.635625 149.307398 
L 315.776989 146.521308 
L 316.157443 145.773447 
L 316.537898 145.36237 
L 316.918352 145.276418 
L 317.298807 145.686436 
L 318.059716 146.001301 
L 318.44017 145.586489 
L 318.820625 144.881738 
L 319.961989 140.433218 
L 320.342443 139.561807 
L 320.722898 139.016427 
L 321.103352 138.933463 
L 321.864261 139.823063 
L 322.244716 140.563059 
L 322.62517 141.881351 
L 323.38608 145.953962 
L 324.527443 154.152648 
L 325.288352 158.977689 
L 325.668807 160.647155 
L 326.049261 161.597707 
L 326.429716 161.891093 
L 326.81017 161.523081 
L 327.190625 160.599068 
L 327.57108 159.184202 
L 328.712443 153.56876 
L 330.99517 146.509971 
L 331.375625 146.13985 
L 331.75608 145.946567 
L 332.136534 146.006412 
L 332.897443 145.511318 
L 334.038807 143.824797 
L 334.419261 143.745082 
L 335.18017 144.224658 
L 335.560625 144.801029 
L 335.94108 145.15437 
L 336.321534 145.888356 
L 336.701989 146.909144 
L 337.462898 150.088487 
L 339.36517 161.186233 
L 339.745625 162.348071 
L 340.12608 162.864159 
L 340.506534 162.525305 
L 341.267443 160.811581 
L 342.028352 158.405789 
L 342.789261 155.793946 
L 345.071989 150.965404 
L 345.832898 150.215541 
L 346.593807 150.295506 
L 347.354716 150.599659 
L 347.73517 150.29495 
L 348.876534 146.976707 
L 349.637443 145.27993 
L 350.017898 145.154771 
L 350.398352 145.618107 
L 350.778807 146.606672 
L 351.159261 148.205945 
L 351.539716 150.515732 
L 353.822443 169.126639 
L 354.202898 170.654814 
L 354.583352 171.435819 
L 354.963807 171.418195 
L 355.344261 170.753502 
L 356.10517 167.412609 
L 358.007443 156.491257 
L 358.768352 153.749708 
L 359.148807 152.78631 
L 359.529261 152.875664 
L 360.670625 153.56546 
L 361.431534 152.703955 
L 362.572898 148.637328 
L 362.953352 147.680215 
L 363.333807 147.951439 
L 363.714261 148.379264 
L 364.47517 150.099643 
L 365.23608 152.691032 
L 366.377443 157.233311 
L 367.138352 160.1463 
L 367.518807 160.111754 
L 367.899261 159.653388 
L 368.279716 158.929042 
L 368.66017 157.554319 
L 368.66017 157.554319 
" clip-path="url(#p6a391b7e80)" style="fill: none; stroke-dasharray: 6.4,1.6,1,1.6; stroke-dashoffset: 0; stroke: #1f77b4"/>
   </g>
   <g id="line2d_47">
    <path d="M 216.858807 155.981688 
L 369.040625 155.981688 
" clip-path="url(#p6a391b7e80)" style="fill: none; stroke-dasharray: 1,1.65; stroke-dashoffset: 0; stroke: #000000"/>
   </g>
   <g id="patch_19">
    <path d="M 216.858807 185.59875 
L 216.858807 109.99875 
" style="fill: none; stroke: #000000; stroke-width: 0.8; stroke-linejoin: miter; stroke-linecap: square"/>
   </g>
   <g id="patch_20">
    <path d="M 369.040625 185.59875 
L 369.040625 109.99875 
" style="fill: none; stroke: #000000; stroke-width: 0.8; stroke-linejoin: miter; stroke-linecap: square"/>
   </g>
   <g id="patch_21">
    <path d="M 216.858807 185.59875 
L 369.040625 185.59875 
" style="fill: none; stroke: #000000; stroke-width: 0.8; stroke-linejoin: miter; stroke-linecap: square"/>
   </g>
   <g id="patch_22">
    <path d="M 216.858807 109.99875 
L 369.040625 109.99875 
" style="fill: none; stroke: #000000; stroke-width: 0.8; stroke-linejoin: miter; stroke-linecap: square"/>
   </g>
   <g id="text_25">
    <!-- eps. 13 -->
    <g transform="translate(278.232841 103.99875)scale(0.08 -0.08)">
     <use xlink:href="#DejaVuSans-65"/>
     <use xlink:href="#DejaVuSans-70" x="61.523438"/>
     <use xlink:href="#DejaVuSans-73" x="125"/>
     <use xlink:href="#DejaVuSans-2e" x="177.099609"/>
     <use xlink:href="#DejaVuSans-20" x="208.886719"/>
     <use xlink:href="#DejaVuSans-31" x="240.673828"/>
     <use xlink:href="#DejaVuSans-33" x="304.296875"/>
    </g>
   </g>
  </g>
 </g>
 <defs>
  <clipPath id="p155a064bed">
   <rect x="34.240625" y="19.27875" width="152.181818" height="75.6"/>
  </clipPath>
  <clipPath id="pd1afd22f0e">
   <rect x="216.858807" y="19.27875" width="152.181818" height="75.6"/>
  </clipPath>
  <clipPath id="pfe19522929">
   <rect x="34.240625" y="109.99875" width="152.181818" height="75.6"/>
  </clipPath>
  <clipPath id="p6a391b7e80">
   <rect x="216.858807" y="109.99875" width="152.181818" height="75.6"/>
  </clipPath>
 </defs>
</svg>
