<?xml version="1.0" encoding="utf-8" standalone="no"?>
<!DOCTYPE svg PUBLIC "-//W3C//DTD SVG 1.1//EN"
  "http://www.w3.org/Graphics/SVG/1.1/DTD/svg11.dtd">
<svg xmlns:xlink="http://www.w3.org/1999/xlink" width="395.325pt" height="223.155pt" viewBox="0 0 395.325 223.155" xmlns="http://www.w3.org/2000/svg" version="1.1">
 <metadata>
  <rdf:RDF xmlns:dc="http://purl.org/dc/elements/1.1/" xmlns:cc="http://creativecommons.org/ns#" xmlns:rdf="http://www.w3.org/1999/02/22-rdf-syntax-ns#">
   <cc:Work>
    <dc:type rdf:resource="http://purl.org/dc/dcmitype/StillImage"/>
    <dc:date>2023-02-27T21:46:58.252160</dc:date>
    <dc:format>image/svg+xml</dc:format>
    <dc:creator>
     <cc:Agent>
      <dc:title>Matplotlib v3.5.1, https://matplotlib.org/</dc:title>
     </cc:Agent>
    </dc:creator>
   </cc:Work>
  </rdf:RDF>
 </metadata>
 <defs>
  <style type="text/css">*{stroke-linejoin: round; stroke-linecap: butt}</style>
 </defs>
 <g id="figure_1">
  <g id="patch_1">
   <path d="M 0 223.155 
L 395.325 223.155 
L 395.325 0 
L 0 0 
z
" style="fill: #ffffff"/>
  </g>
  <g id="axes_1">
   <g id="patch_2">
    <path d="M 43.78125 94.87875 
L 195.963068 94.87875 
L 195.963068 19.27875 
L 43.78125 19.27875 
z
" style="fill: #ffffff"/>
   </g>
   <g id="matplotlib.axis_1">
    <g id="xtick_1">
     <g id="line2d_1">
      <defs>
       <path id="mb4e1993329" d="M 0 0 
L 0 3.5 
" style="stroke: #000000; stroke-width: 0.8"/>
      </defs>
      <g>
       <use xlink:href="#mb4e1993329" x="43.78125" y="94.87875" style="stroke: #000000; stroke-width: 0.8"/>
      </g>
     </g>
    </g>
    <g id="xtick_2">
     <g id="line2d_2">
      <g>
       <use xlink:href="#mb4e1993329" x="81.826705" y="94.87875" style="stroke: #000000; stroke-width: 0.8"/>
      </g>
     </g>
    </g>
    <g id="xtick_3">
     <g id="line2d_3">
      <g>
       <use xlink:href="#mb4e1993329" x="119.872159" y="94.87875" style="stroke: #000000; stroke-width: 0.8"/>
      </g>
     </g>
    </g>
    <g id="xtick_4">
     <g id="line2d_4">
      <g>
       <use xlink:href="#mb4e1993329" x="157.917614" y="94.87875" style="stroke: #000000; stroke-width: 0.8"/>
      </g>
     </g>
    </g>
    <g id="xtick_5">
     <g id="line2d_5">
      <g>
       <use xlink:href="#mb4e1993329" x="195.963068" y="94.87875" style="stroke: #000000; stroke-width: 0.8"/>
      </g>
     </g>
    </g>
   </g>
   <g id="matplotlib.axis_2">
    <g id="ytick_1">
     <g id="line2d_6">
      <defs>
       <path id="m6602b16ee8" d="M 0 0 
L -3.5 0 
" style="stroke: #000000; stroke-width: 0.8"/>
      </defs>
      <g>
       <use xlink:href="#m6602b16ee8" x="43.78125" y="70.8908" style="stroke: #000000; stroke-width: 0.8"/>
      </g>
     </g>
     <g id="text_1">
      <!-- 0.4 -->
      <g transform="translate(20.878125 74.690019)scale(0.1 -0.1)">
       <defs>
        <path id="DejaVuSans-30" d="M 2034 4250 
Q 1547 4250 1301 3770 
Q 1056 3291 1056 2328 
Q 1056 1369 1301 889 
Q 1547 409 2034 409 
Q 2525 409 2770 889 
Q 3016 1369 3016 2328 
Q 3016 3291 2770 3770 
Q 2525 4250 2034 4250 
z
M 2034 4750 
Q 2819 4750 3233 4129 
Q 3647 3509 3647 2328 
Q 3647 1150 3233 529 
Q 2819 -91 2034 -91 
Q 1250 -91 836 529 
Q 422 1150 422 2328 
Q 422 3509 836 4129 
Q 1250 4750 2034 4750 
z
" transform="scale(0.015625)"/>
        <path id="DejaVuSans-2e" d="M 684 794 
L 1344 794 
L 1344 0 
L 684 0 
L 684 794 
z
" transform="scale(0.015625)"/>
        <path id="DejaVuSans-34" d="M 2419 4116 
L 825 1625 
L 2419 1625 
L 2419 4116 
z
M 2253 4666 
L 3047 4666 
L 3047 1625 
L 3713 1625 
L 3713 1100 
L 3047 1100 
L 3047 0 
L 2419 0 
L 2419 1100 
L 313 1100 
L 313 1709 
L 2253 4666 
z
" transform="scale(0.015625)"/>
       </defs>
       <use xlink:href="#DejaVuSans-30"/>
       <use xlink:href="#DejaVuSans-2e" x="63.623047"/>
       <use xlink:href="#DejaVuSans-34" x="95.410156"/>
      </g>
     </g>
    </g>
    <g id="ytick_2">
     <g id="line2d_7">
      <g>
       <use xlink:href="#m6602b16ee8" x="43.78125" y="43.407049" style="stroke: #000000; stroke-width: 0.8"/>
      </g>
     </g>
     <g id="text_2">
      <!-- 0.6 -->
      <g transform="translate(20.878125 47.206268)scale(0.1 -0.1)">
       <defs>
        <path id="DejaVuSans-36" d="M 2113 2584 
Q 1688 2584 1439 2293 
Q 1191 2003 1191 1497 
Q 1191 994 1439 701 
Q 1688 409 2113 409 
Q 2538 409 2786 701 
Q 3034 994 3034 1497 
Q 3034 2003 2786 2293 
Q 2538 2584 2113 2584 
z
M 3366 4563 
L 3366 3988 
Q 3128 4100 2886 4159 
Q 2644 4219 2406 4219 
Q 1781 4219 1451 3797 
Q 1122 3375 1075 2522 
Q 1259 2794 1537 2939 
Q 1816 3084 2150 3084 
Q 2853 3084 3261 2657 
Q 3669 2231 3669 1497 
Q 3669 778 3244 343 
Q 2819 -91 2113 -91 
Q 1303 -91 875 529 
Q 447 1150 447 2328 
Q 447 3434 972 4092 
Q 1497 4750 2381 4750 
Q 2619 4750 2861 4703 
Q 3103 4656 3366 4563 
z
" transform="scale(0.015625)"/>
       </defs>
       <use xlink:href="#DejaVuSans-30"/>
       <use xlink:href="#DejaVuSans-2e" x="63.623047"/>
       <use xlink:href="#DejaVuSans-36" x="95.410156"/>
      </g>
     </g>
    </g>
    <g id="text_3">
     <!-- $E[ \tilde{\omega} ]$ -->
     <g transform="translate(14.798438 68.32875)rotate(-90)scale(0.1 -0.1)">
      <defs>
       <path id="DejaVuSans-Oblique-45" d="M 1081 4666 
L 4031 4666 
L 3928 4134 
L 1606 4134 
L 1338 2753 
L 3566 2753 
L 3463 2222 
L 1234 2222 
L 909 531 
L 3284 531 
L 3181 0 
L 172 0 
L 1081 4666 
z
" transform="scale(0.015625)"/>
       <path id="DejaVuSans-5b" d="M 550 4863 
L 1875 4863 
L 1875 4416 
L 1125 4416 
L 1125 -397 
L 1875 -397 
L 1875 -844 
L 550 -844 
L 550 4863 
z
" transform="scale(0.015625)"/>
       <path id="DejaVuSans-303" d="M -1619 4281 
L -1797 4453 
Q -1866 4516 -1917 4545 
Q -1969 4575 -2009 4575 
Q -2128 4575 -2184 4461 
Q -2241 4347 -2247 4091 
L -2638 4091 
Q -2631 4513 -2472 4742 
Q -2313 4972 -2028 4972 
Q -1909 4972 -1809 4928 
Q -1709 4884 -1594 4781 
L -1416 4609 
Q -1347 4547 -1295 4517 
Q -1244 4488 -1203 4488 
Q -1084 4488 -1028 4602 
Q -972 4716 -966 4972 
L -575 4972 
Q -581 4550 -740 4320 
Q -900 4091 -1184 4091 
Q -1303 4091 -1403 4134 
Q -1503 4178 -1619 4281 
z
" transform="scale(0.015625)"/>
       <path id="DejaVuSans-Oblique-3c9" d="M 1369 -91 
Q 72 -91 434 1766 
Q 575 2500 1256 3500 
L 1875 3500 
Q 1231 2500 1088 1750 
Q 819 397 1519 397 
Q 2166 397 2478 2078 
L 3009 2078 
Q 2669 388 3316 397 
Q 4013 403 4275 1750 
Q 4419 2500 4169 3500 
L 4788 3500 
Q 5075 2500 4934 1766 
Q 4578 -94 3278 -91 
Q 2428 -88 2503 844 
Q 2194 -91 1369 -91 
z
" transform="scale(0.015625)"/>
       <path id="DejaVuSans-5d" d="M 1947 4863 
L 1947 -844 
L 622 -844 
L 622 -397 
L 1369 -397 
L 1369 4416 
L 622 4416 
L 622 4863 
L 1947 4863 
z
" transform="scale(0.015625)"/>
      </defs>
      <use xlink:href="#DejaVuSans-Oblique-45" transform="translate(0 0.046875)"/>
      <use xlink:href="#DejaVuSans-5b" transform="translate(63.183594 0.046875)"/>
      <use xlink:href="#DejaVuSans-303" transform="translate(179.351074 3.3125)"/>
      <use xlink:href="#DejaVuSans-Oblique-3c9" transform="translate(102.197266 0.046875)"/>
      <use xlink:href="#DejaVuSans-5d" transform="translate(185.9375 0.046875)"/>
     </g>
    </g>
   </g>
   <g id="line2d_8">
    <path d="M 43.78125 59.06327 
L 46.444432 58.65455 
L 47.585795 58.701597 
L 48.346705 59.02961 
L 49.107614 59.327299 
L 49.868523 59.369781 
L 50.629432 59.174169 
L 52.15125 58.547508 
L 52.912159 58.555908 
L 54.053523 58.822503 
L 54.814432 59.013777 
L 56.716705 59.092893 
L 57.858068 58.982788 
L 61.282159 58.664453 
L 62.043068 58.91794 
L 63.184432 59.322258 
L 63.945341 59.293963 
L 65.086705 58.837922 
L 65.847614 58.555532 
L 66.988977 58.589085 
L 68.130341 58.850064 
L 69.271705 59.025142 
L 71.173977 59.069591 
L 74.978523 58.649896 
L 75.739432 58.884082 
L 76.880795 59.215221 
L 77.641705 59.202825 
L 78.783068 58.812891 
L 79.543977 58.527034 
L 80.685341 58.599955 
L 83.348523 59.044551 
L 84.870341 59.045603 
L 88.674886 58.632122 
L 90.957614 59.202006 
L 91.718523 59.070462 
L 93.620795 58.600243 
L 94.762159 58.748494 
L 95.903523 58.942609 
L 97.805795 59.00145 
L 99.327614 58.891638 
L 101.610341 58.61386 
L 102.37125 58.696384 
L 104.653977 59.264802 
L 105.795341 59.008626 
L 106.936705 58.693615 
L 108.078068 58.689112 
L 112.263068 59.047887 
L 114.165341 58.904961 
L 115.306705 58.672732 
L 116.448068 58.616196 
L 118.730795 59.279626 
L 119.491705 59.078387 
L 121.013523 58.415435 
L 122.535341 58.681695 
L 123.29625 58.967097 
L 125.198523 59.153523 
L 126.339886 59.104626 
L 128.242159 58.731735 
L 129.763977 58.651512 
L 132.046705 59.181498 
L 133.188068 58.939431 
L 134.329432 58.547471 
L 135.470795 58.634286 
L 137.373068 58.983587 
L 139.275341 59.033504 
L 143.079886 58.64611 
L 143.840795 58.778785 
L 145.362614 59.287914 
L 146.123523 59.260567 
L 148.40625 58.510876 
L 149.547614 58.631225 
L 150.688977 58.948511 
L 152.971705 59.094054 
L 157.156705 58.661036 
L 159.439432 59.185211 
L 160.580795 58.920194 
L 161.722159 58.578548 
L 162.863523 58.696359 
L 164.385341 58.975043 
L 166.287614 59.02032 
L 170.853068 58.74804 
L 172.374886 59.250499 
L 173.135795 59.248888 
L 174.277159 58.840669 
L 175.038068 58.503742 
L 176.179432 58.598556 
L 178.842614 59.085967 
L 180.744886 59.043446 
L 183.408068 58.618031 
L 184.168977 58.708048 
L 185.690795 59.159269 
L 186.451705 59.175526 
L 187.593068 58.841842 
L 188.353977 58.586734 
L 189.495341 58.620369 
L 192.538977 59.011942 
L 194.060795 58.92039 
L 195.582614 58.7512 
L 195.582614 58.7512 
" clip-path="url(#pee8288d459)" style="fill: none; stroke: #1f77b4; stroke-linecap: square"/>
   </g>
   <g id="line2d_9">
    <path d="M 43.78125 59.06327 
L 46.444432 58.654069 
L 47.585795 58.695793 
L 48.346705 59.026563 
L 49.107614 59.309491 
L 49.868523 59.348624 
L 50.629432 59.140601 
L 52.15125 58.547066 
L 53.292614 58.644657 
L 55.575341 59.068119 
L 57.477614 59.018839 
L 59.379886 58.746642 
L 61.282159 58.692508 
L 62.043068 58.985467 
L 62.803977 59.317611 
L 63.564886 59.381365 
L 64.325795 59.179074 
L 65.847614 58.562067 
L 66.988977 58.582351 
L 68.130341 58.85505 
L 69.271705 59.03436 
L 71.173977 59.08456 
L 75.358977 58.669272 
L 76.119886 58.938955 
L 77.26125 59.30591 
L 78.022159 59.245882 
L 79.163523 58.761191 
L 79.543977 58.554712 
L 80.304886 58.466878 
L 81.44625 58.613433 
L 82.587614 58.973525 
L 84.489886 59.127083 
L 85.63125 58.996761 
L 87.913977 58.679051 
L 89.055341 58.690445 
L 91.338068 59.266014 
L 92.098977 59.099662 
L 94.00125 58.599758 
L 95.142614 58.7047 
L 96.664432 58.957876 
L 98.566705 59.069465 
L 103.132159 58.747692 
L 104.653977 59.25155 
L 105.414886 59.220073 
L 106.936705 58.616009 
L 107.317159 58.448955 
L 108.458523 58.565586 
L 110.74125 59.082238 
L 112.643523 59.103719 
L 114.92625 58.66864 
L 116.067614 58.625921 
L 118.730795 59.200989 
L 119.872159 58.82047 
L 120.633068 58.540769 
L 122.154886 58.630525 
L 123.29625 58.921526 
L 125.578977 59.050414 
L 129.383523 58.630314 
L 130.144432 58.777957 
L 131.285795 59.163197 
L 132.046705 59.23708 
L 133.188068 58.946255 
L 134.329432 58.561117 
L 135.470795 58.615313 
L 138.133977 59.026385 
L 139.655795 59.017296 
L 143.460341 58.658005 
L 145.743068 59.256886 
L 146.884432 58.920412 
L 148.025795 58.483504 
L 149.167159 58.582926 
L 151.069432 59.028826 
L 153.352159 59.039686 
L 156.395795 58.613732 
L 157.156705 58.731987 
L 158.298068 59.098046 
L 159.058977 59.211344 
L 159.819886 59.057683 
L 161.722159 58.582829 
L 162.863523 58.728432 
L 164.004886 58.944162 
L 165.907159 59.045485 
L 167.809432 58.858459 
L 169.33125 58.647907 
L 170.092159 58.643702 
L 170.853068 58.865932 
L 171.613977 59.09533 
L 172.374886 59.192203 
L 173.135795 59.105631 
L 175.038068 58.656649 
L 176.179432 58.749541 
L 178.081705 59.000788 
L 179.983977 58.983297 
L 181.88625 58.786834 
L 183.408068 58.637565 
L 184.168977 58.732205 
L 185.690795 59.231824 
L 186.451705 59.220233 
L 187.593068 58.849726 
L 188.353977 58.548238 
L 189.114886 58.530018 
L 190.25625 58.752503 
L 191.397614 59.014494 
L 193.299886 59.083677 
L 195.202159 58.834722 
L 195.582614 58.730544 
L 195.582614 58.730544 
" clip-path="url(#pee8288d459)" style="fill: none; stroke: #ff7f0e; stroke-linecap: square"/>
   </g>
   <g id="patch_3">
    <path d="M 43.78125 94.87875 
L 43.78125 19.27875 
" style="fill: none; stroke: #000000; stroke-width: 0.8; stroke-linejoin: miter; stroke-linecap: square"/>
   </g>
   <g id="patch_4">
    <path d="M 195.963068 94.87875 
L 195.963068 19.27875 
" style="fill: none; stroke: #000000; stroke-width: 0.8; stroke-linejoin: miter; stroke-linecap: square"/>
   </g>
   <g id="patch_5">
    <path d="M 43.78125 94.87875 
L 195.963068 94.87875 
" style="fill: none; stroke: #000000; stroke-width: 0.8; stroke-linejoin: miter; stroke-linecap: square"/>
   </g>
   <g id="patch_6">
    <path d="M 43.78125 19.27875 
L 195.963068 19.27875 
" style="fill: none; stroke: #000000; stroke-width: 0.8; stroke-linejoin: miter; stroke-linecap: square"/>
   </g>
   <g id="text_4">
    <!-- eps. 0 -->
    <g transform="translate(107.700284 13.27875)scale(0.08 -0.08)">
     <defs>
      <path id="DejaVuSans-65" d="M 3597 1894 
L 3597 1613 
L 953 1613 
Q 991 1019 1311 708 
Q 1631 397 2203 397 
Q 2534 397 2845 478 
Q 3156 559 3463 722 
L 3463 178 
Q 3153 47 2828 -22 
Q 2503 -91 2169 -91 
Q 1331 -91 842 396 
Q 353 884 353 1716 
Q 353 2575 817 3079 
Q 1281 3584 2069 3584 
Q 2775 3584 3186 3129 
Q 3597 2675 3597 1894 
z
M 3022 2063 
Q 3016 2534 2758 2815 
Q 2500 3097 2075 3097 
Q 1594 3097 1305 2825 
Q 1016 2553 972 2059 
L 3022 2063 
z
" transform="scale(0.015625)"/>
      <path id="DejaVuSans-70" d="M 1159 525 
L 1159 -1331 
L 581 -1331 
L 581 3500 
L 1159 3500 
L 1159 2969 
Q 1341 3281 1617 3432 
Q 1894 3584 2278 3584 
Q 2916 3584 3314 3078 
Q 3713 2572 3713 1747 
Q 3713 922 3314 415 
Q 2916 -91 2278 -91 
Q 1894 -91 1617 61 
Q 1341 213 1159 525 
z
M 3116 1747 
Q 3116 2381 2855 2742 
Q 2594 3103 2138 3103 
Q 1681 3103 1420 2742 
Q 1159 2381 1159 1747 
Q 1159 1113 1420 752 
Q 1681 391 2138 391 
Q 2594 391 2855 752 
Q 3116 1113 3116 1747 
z
" transform="scale(0.015625)"/>
      <path id="DejaVuSans-73" d="M 2834 3397 
L 2834 2853 
Q 2591 2978 2328 3040 
Q 2066 3103 1784 3103 
Q 1356 3103 1142 2972 
Q 928 2841 928 2578 
Q 928 2378 1081 2264 
Q 1234 2150 1697 2047 
L 1894 2003 
Q 2506 1872 2764 1633 
Q 3022 1394 3022 966 
Q 3022 478 2636 193 
Q 2250 -91 1575 -91 
Q 1294 -91 989 -36 
Q 684 19 347 128 
L 347 722 
Q 666 556 975 473 
Q 1284 391 1588 391 
Q 1994 391 2212 530 
Q 2431 669 2431 922 
Q 2431 1156 2273 1281 
Q 2116 1406 1581 1522 
L 1381 1569 
Q 847 1681 609 1914 
Q 372 2147 372 2553 
Q 372 3047 722 3315 
Q 1072 3584 1716 3584 
Q 2034 3584 2315 3537 
Q 2597 3491 2834 3397 
z
" transform="scale(0.015625)"/>
      <path id="DejaVuSans-20" transform="scale(0.015625)"/>
     </defs>
     <use xlink:href="#DejaVuSans-65"/>
     <use xlink:href="#DejaVuSans-70" x="61.523438"/>
     <use xlink:href="#DejaVuSans-73" x="125"/>
     <use xlink:href="#DejaVuSans-2e" x="177.099609"/>
     <use xlink:href="#DejaVuSans-20" x="208.886719"/>
     <use xlink:href="#DejaVuSans-30" x="240.673828"/>
    </g>
   </g>
   <g id="legend_1">
    <g id="patch_7">
     <path d="M 130.803068 32.885625 
L 191.763068 32.885625 
Q 192.963068 32.885625 192.963068 31.685625 
L 192.963068 23.47875 
Q 192.963068 22.27875 191.763068 22.27875 
L 130.803068 22.27875 
Q 129.603068 22.27875 129.603068 23.47875 
L 129.603068 31.685625 
Q 129.603068 32.885625 130.803068 32.885625 
z
" style="fill: #ffffff; opacity: 0.8; stroke: #cccccc; stroke-linejoin: miter"/>
    </g>
    <g id="line2d_10">
     <path d="M 132.003068 27.137813 
L 138.003068 27.137813 
L 144.003068 27.137813 
" style="fill: none; stroke: #1f77b4; stroke-linecap: square"/>
    </g>
    <g id="text_5">
     <!-- $\tau_0$ -->
     <g transform="translate(148.803068 29.237813)scale(0.06 -0.06)">
      <defs>
       <path id="DejaVuSans-Oblique-3c4" d="M 2103 638 
Q 2188 488 2525 488 
L 2800 488 
L 2706 0 
L 2363 0 
Q 1800 0 1600 300 
Q 1403 606 1534 1269 
L 1856 2925 
L 541 2925 
L 653 3500 
L 3881 3500 
L 3769 2925 
L 2444 2925 
L 2113 1234 
Q 2025 781 2103 638 
z
" transform="scale(0.015625)"/>
      </defs>
      <use xlink:href="#DejaVuSans-Oblique-3c4" transform="translate(0 0.3125)"/>
      <use xlink:href="#DejaVuSans-30" transform="translate(60.205078 -16.09375)scale(0.7)"/>
     </g>
    </g>
    <g id="line2d_11">
     <path d="M 167.283068 27.137813 
L 173.283068 27.137813 
L 179.283068 27.137813 
" style="fill: none; stroke: #ff7f0e; stroke-linecap: square"/>
    </g>
    <g id="text_6">
     <!-- $\tau_1$ -->
     <g transform="translate(184.083068 29.237813)scale(0.06 -0.06)">
      <defs>
       <path id="DejaVuSans-31" d="M 794 531 
L 1825 531 
L 1825 4091 
L 703 3866 
L 703 4441 
L 1819 4666 
L 2450 4666 
L 2450 531 
L 3481 531 
L 3481 0 
L 794 0 
L 794 531 
z
" transform="scale(0.015625)"/>
      </defs>
      <use xlink:href="#DejaVuSans-Oblique-3c4" transform="translate(0 0.3125)"/>
      <use xlink:href="#DejaVuSans-31" transform="translate(60.205078 -16.09375)scale(0.7)"/>
     </g>
    </g>
   </g>
  </g>
  <g id="axes_2">
   <g id="patch_8">
    <path d="M 226.399432 94.87875 
L 378.58125 94.87875 
L 378.58125 19.27875 
L 226.399432 19.27875 
z
" style="fill: #ffffff"/>
   </g>
   <g id="matplotlib.axis_3">
    <g id="xtick_6">
     <g id="line2d_12">
      <g>
       <use xlink:href="#mb4e1993329" x="226.399432" y="94.87875" style="stroke: #000000; stroke-width: 0.8"/>
      </g>
     </g>
    </g>
    <g id="xtick_7">
     <g id="line2d_13">
      <g>
       <use xlink:href="#mb4e1993329" x="264.444886" y="94.87875" style="stroke: #000000; stroke-width: 0.8"/>
      </g>
     </g>
    </g>
    <g id="xtick_8">
     <g id="line2d_14">
      <g>
       <use xlink:href="#mb4e1993329" x="302.490341" y="94.87875" style="stroke: #000000; stroke-width: 0.8"/>
      </g>
     </g>
    </g>
    <g id="xtick_9">
     <g id="line2d_15">
      <g>
       <use xlink:href="#mb4e1993329" x="340.535795" y="94.87875" style="stroke: #000000; stroke-width: 0.8"/>
      </g>
     </g>
    </g>
    <g id="xtick_10">
     <g id="line2d_16">
      <g>
       <use xlink:href="#mb4e1993329" x="378.58125" y="94.87875" style="stroke: #000000; stroke-width: 0.8"/>
      </g>
     </g>
    </g>
   </g>
   <g id="matplotlib.axis_4">
    <g id="ytick_3">
     <g id="line2d_17">
      <g>
       <use xlink:href="#m6602b16ee8" x="226.399432" y="70.8908" style="stroke: #000000; stroke-width: 0.8"/>
      </g>
     </g>
    </g>
    <g id="ytick_4">
     <g id="line2d_18">
      <g>
       <use xlink:href="#m6602b16ee8" x="226.399432" y="43.407049" style="stroke: #000000; stroke-width: 0.8"/>
      </g>
     </g>
    </g>
   </g>
   <g id="line2d_19">
    <path d="M 226.399432 67.416737 
L 227.160341 63.811 
L 227.92125 59.822793 
L 228.301705 59.219675 
L 228.682159 59.846545 
L 229.823523 64.470045 
L 230.203977 64.401047 
L 230.584432 63.094405 
L 231.345341 51.67673 
L 231.725795 49.010885 
L 232.10625 47.716269 
L 232.486705 47.346253 
L 232.867159 48.186461 
L 233.628068 54.148262 
L 234.008523 54.753967 
L 234.388977 53.084234 
L 234.769432 50.66627 
L 235.149886 48.980087 
L 235.910795 47.168857 
L 236.29125 47.239244 
L 236.671705 48.769781 
L 237.432614 54.797806 
L 238.573977 64.756 
L 238.954432 66.089714 
L 239.334886 66.863382 
L 239.715341 67.240569 
L 240.095795 67.167912 
L 240.856705 63.763943 
L 241.617614 59.221083 
L 241.998068 58.335746 
L 242.378523 58.533665 
L 243.139432 61.609065 
L 243.519886 63.153535 
L 243.900341 63.585349 
L 244.280795 63.028607 
L 245.041705 51.359198 
L 245.422159 48.398547 
L 245.802614 46.813394 
L 246.183068 46.369642 
L 246.563523 47.139199 
L 246.943977 49.556445 
L 247.324432 53.185782 
L 247.704886 54.587361 
L 248.085341 52.937219 
L 248.465795 50.286797 
L 248.84625 48.539318 
L 249.607159 46.724654 
L 249.987614 46.97474 
L 250.368068 48.870664 
L 252.270341 65.523867 
L 252.650795 66.747284 
L 253.792159 67.979282 
L 254.553068 64.96436 
L 255.313977 60.7001 
L 255.694432 60.053911 
L 256.074886 60.173973 
L 256.455341 61.314092 
L 256.835795 63.060849 
L 257.21625 64.24414 
L 257.596705 64.187248 
L 257.977159 63.648759 
L 259.118523 50.663507 
L 259.498977 48.870284 
L 259.879432 48.282506 
L 260.259886 49.089212 
L 261.020795 53.853926 
L 261.40125 53.920936 
L 261.781705 52.6023 
L 262.542614 48.543849 
L 262.923068 47.539444 
L 263.303523 46.93275 
L 263.683977 47.055247 
L 264.064432 48.509878 
L 264.825341 55.003444 
L 265.205795 57.582919 
L 265.966705 64.329889 
L 266.347159 66.276979 
L 266.727614 67.136134 
L 267.108068 67.614877 
L 267.488523 67.715023 
L 267.868977 66.499135 
L 268.629886 62.871163 
L 269.010341 60.695326 
L 269.390795 59.759301 
L 269.77125 59.911608 
L 270.151705 61.195804 
L 270.912614 64.282428 
L 271.293068 64.464189 
L 271.673523 64.20722 
L 272.053977 61.462769 
L 272.814886 51.530693 
L 273.195341 49.235545 
L 273.575795 48.344324 
L 273.95625 48.512702 
L 274.336705 49.99395 
L 274.717159 52.665417 
L 275.097614 53.483438 
L 275.478068 52.618223 
L 276.619432 47.723345 
L 276.999886 46.921235 
L 277.380341 46.857618 
L 277.760795 48.417192 
L 278.521705 54.53585 
L 278.902159 56.629386 
L 280.043523 65.618777 
L 280.423977 67.127993 
L 280.804432 67.840075 
L 281.184886 67.849997 
L 281.565341 67.106945 
L 282.32625 64.344602 
L 282.706705 62.494089 
L 283.087159 61.509576 
L 283.467614 61.543614 
L 283.848068 62.232423 
L 284.608977 64.797356 
L 284.989432 64.791347 
L 285.369886 64.277429 
L 285.750341 63.392975 
L 286.891705 52.231231 
L 287.272159 51.023058 
L 287.652614 50.827605 
L 288.033068 51.862372 
L 288.413523 53.531102 
L 288.793977 53.726874 
L 289.174432 53.317232 
L 289.554886 52.028989 
L 290.315795 48.480855 
L 290.69625 47.54552 
L 291.076705 47.104309 
L 291.457159 47.233673 
L 291.837614 47.804793 
L 292.218068 49.824556 
L 293.739886 62.080588 
L 294.120341 64.732525 
L 294.500795 66.257015 
L 294.88125 67.002366 
L 295.261705 67.037148 
L 295.642159 66.23081 
L 296.783523 61.633789 
L 297.163977 60.088421 
L 297.544432 59.713709 
L 297.924886 59.988865 
L 298.685795 63.153043 
L 299.446705 66.386438 
L 299.827159 66.593127 
L 300.207614 65.21622 
L 300.968523 53.214821 
L 301.348977 50.323944 
L 301.729432 48.966918 
L 302.109886 48.888741 
L 302.490341 50.594545 
L 302.870795 53.727213 
L 303.25125 54.197355 
L 303.631705 52.915094 
L 304.392614 47.466977 
L 304.773068 46.05772 
L 305.153523 45.434805 
L 305.533977 45.584046 
L 305.914432 47.083915 
L 306.675341 53.66113 
L 307.055795 56.208134 
L 307.816705 64.062146 
L 308.197159 65.873219 
L 308.958068 66.717661 
L 309.338523 67.047954 
L 309.718977 67.181405 
L 310.099432 65.877791 
L 310.860341 61.580944 
L 311.240795 60.943899 
L 311.62125 61.278205 
L 312.382159 64.354432 
L 313.143068 64.640301 
L 313.523523 63.665667 
L 314.284432 53.531211 
L 314.664886 50.496008 
L 315.045341 48.968055 
L 315.425795 48.775551 
L 315.80625 49.87721 
L 316.186705 52.13 
L 316.567159 53.408498 
L 316.947614 52.705899 
L 317.708523 49.105727 
L 318.088977 47.495419 
L 318.469432 46.772212 
L 318.849886 46.699044 
L 319.230341 47.263855 
L 320.752159 59.149891 
L 321.513068 64.85168 
L 321.893523 66.549182 
L 322.273977 67.401964 
L 322.654432 67.45145 
L 323.034886 66.62859 
L 323.795795 63.612697 
L 324.556705 60.181625 
L 324.937159 59.827168 
L 325.317614 59.985573 
L 325.698068 61.013044 
L 326.458977 64.279056 
L 326.839432 64.533226 
L 327.219886 63.945187 
L 327.600341 59.983812 
L 327.980795 54.530626 
L 328.36125 50.77417 
L 328.741705 49.001441 
L 329.122159 48.232861 
L 329.502614 48.622252 
L 329.883068 50.454297 
L 330.263523 53.48497 
L 330.643977 54.442169 
L 331.024432 53.315713 
L 331.785341 48.637944 
L 332.165795 47.406372 
L 332.54625 46.706945 
L 332.926705 46.364033 
L 333.307159 46.709607 
L 333.687614 48.76288 
L 334.068068 52.793865 
L 334.828977 58.576796 
L 335.209432 62.32159 
L 335.589886 64.930241 
L 335.970341 66.276702 
L 336.73125 67.430624 
L 337.111705 67.476263 
L 337.492159 66.320039 
L 338.253068 62.515004 
L 338.633523 60.606843 
L 339.013977 60.23245 
L 339.394432 60.834569 
L 340.155341 64.065163 
L 340.535795 64.579005 
L 340.91625 64.570464 
L 341.296705 63.9671 
L 342.438068 50.537828 
L 342.818523 48.916706 
L 343.198977 48.337914 
L 343.579432 49.049019 
L 344.340341 53.30055 
L 344.720795 53.229376 
L 345.10125 51.694423 
L 345.862159 47.835732 
L 346.242614 46.762612 
L 346.623068 46.539776 
L 347.003523 47.095869 
L 348.525341 58.26716 
L 349.28625 64.729163 
L 349.666705 66.69914 
L 350.047159 67.690123 
L 350.427614 68.078557 
L 350.808068 67.555427 
L 351.568977 64.948412 
L 352.329886 61.485756 
L 352.710341 60.961666 
L 353.090795 61.230952 
L 353.47125 62.060052 
L 354.232159 65.232599 
L 354.612614 65.412061 
L 354.993068 65.370199 
L 355.373523 61.974014 
L 356.134432 53.778295 
L 356.514886 52.052866 
L 356.895341 51.372922 
L 357.275795 52.155956 
L 357.65625 54.007543 
L 358.036705 54.144672 
L 358.417159 52.702624 
L 359.178068 47.784864 
L 359.558523 46.057378 
L 359.938977 45.409375 
L 360.319432 45.432352 
L 360.699886 46.232655 
L 361.080341 49.152071 
L 361.460795 53.043674 
L 361.84125 55.566554 
L 362.982614 65.657537 
L 363.363068 66.822953 
L 364.123977 67.854203 
L 364.504432 68.138782 
L 364.884886 67.121444 
L 365.265341 65.682713 
L 365.645795 63.769744 
L 366.02625 62.530773 
L 366.406705 62.27193 
L 366.787159 62.971494 
L 367.548068 65.468597 
L 367.928523 65.544364 
L 368.308977 65.330224 
L 368.689432 64.414808 
L 369.830795 53.336542 
L 370.21125 52.012531 
L 370.591705 51.836613 
L 371.352614 53.997574 
L 371.733068 53.353255 
L 372.113523 52.223624 
L 373.254886 47.842167 
L 373.635341 47.280874 
L 374.015795 47.421902 
L 374.39625 48.177657 
L 374.776705 50.253165 
L 376.678977 63.544513 
L 377.059432 65.428538 
L 377.439886 66.495664 
L 377.820341 66.927437 
L 378.200795 66.708257 
L 378.200795 66.708257 
" clip-path="url(#p1cebe02607)" style="fill: none; stroke: #1f77b4; stroke-linecap: square"/>
   </g>
   <g id="line2d_20">
    <path d="M 226.399432 67.416737 
L 227.160341 63.812059 
L 227.92125 59.822517 
L 228.301705 59.22463 
L 228.682159 59.858039 
L 229.823523 64.453947 
L 230.203977 64.461118 
L 230.584432 63.105418 
L 231.345341 51.620786 
L 231.725795 48.959064 
L 232.10625 47.661036 
L 232.486705 47.322873 
L 232.867159 48.278884 
L 233.628068 54.2807 
L 234.008523 54.48935 
L 235.149886 48.73718 
L 235.910795 47.014371 
L 236.29125 47.257226 
L 236.671705 49.479278 
L 237.052159 52.903121 
L 237.432614 55.049577 
L 238.573977 65.046523 
L 238.954432 66.265925 
L 239.334886 67.040932 
L 239.715341 67.432534 
L 240.095795 67.285818 
L 240.856705 64.045401 
L 241.617614 59.875259 
L 241.998068 59.393426 
L 242.378523 59.884499 
L 243.519886 63.90677 
L 243.900341 63.563753 
L 244.280795 61.70858 
L 245.041705 50.782167 
L 245.422159 48.519683 
L 245.802614 47.363946 
L 246.183068 47.162782 
L 246.563523 48.167766 
L 247.324432 53.70647 
L 247.704886 53.959433 
L 248.085341 52.547098 
L 248.84625 48.703592 
L 249.607159 47.119058 
L 249.987614 47.328116 
L 250.368068 48.797367 
L 251.889886 62.01989 
L 252.270341 64.89434 
L 252.650795 66.520838 
L 253.03125 67.294433 
L 253.411705 67.778921 
L 253.792159 67.820807 
L 254.172614 66.384404 
L 255.313977 60.098022 
L 255.694432 58.889576 
L 256.074886 58.589784 
L 256.455341 59.013437 
L 257.596705 64.185191 
L 257.977159 64.178734 
L 258.357614 63.218872 
L 259.118523 52.02824 
L 259.498977 49.215171 
L 259.879432 47.833737 
L 260.259886 47.503698 
L 260.640341 48.631399 
L 261.40125 54.431829 
L 261.781705 54.336331 
L 262.923068 48.302548 
L 263.683977 46.585498 
L 264.064432 46.720759 
L 264.444886 48.220807 
L 265.966705 62.372422 
L 266.347159 65.213955 
L 266.727614 66.52979 
L 267.488523 67.431091 
L 267.868977 67.719579 
L 268.249432 66.568894 
L 269.010341 62.573698 
L 269.390795 60.224178 
L 269.77125 59.664043 
L 270.151705 59.746223 
L 270.532159 61.036375 
L 270.912614 62.745994 
L 271.293068 63.898138 
L 271.673523 63.849024 
L 272.053977 63.205583 
L 273.195341 49.720795 
L 273.575795 48.097338 
L 273.95625 47.380006 
L 274.336705 47.840574 
L 274.717159 49.697726 
L 275.097614 52.551635 
L 275.478068 54.235532 
L 275.858523 53.240944 
L 276.619432 48.898831 
L 277.380341 46.894764 
L 277.760795 46.790663 
L 278.14125 47.276921 
L 278.521705 50.061243 
L 278.902159 53.692586 
L 279.282614 56.24591 
L 280.043523 63.883848 
L 280.423977 66.242921 
L 280.804432 67.174944 
L 281.565341 68.236858 
L 281.945795 67.557147 
L 283.467614 59.791294 
L 283.848068 59.531774 
L 284.228523 59.499429 
L 284.608977 60.922483 
L 285.369886 64.441762 
L 285.750341 64.626668 
L 286.130795 64.297908 
L 287.272159 50.245406 
L 287.652614 48.591406 
L 288.033068 48.06945 
L 288.413523 49.041118 
L 289.174432 54.199473 
L 289.554886 54.324084 
L 289.935341 52.226395 
L 290.315795 49.406926 
L 290.69625 47.761151 
L 291.076705 46.693184 
L 291.457159 46.085389 
L 291.837614 46.191719 
L 292.218068 48.132038 
L 292.978977 54.155299 
L 294.120341 65.221264 
L 294.500795 66.549076 
L 294.88125 67.24146 
L 295.261705 67.578606 
L 295.642159 67.689396 
L 296.403068 64.84273 
L 296.783523 62.337062 
L 297.163977 60.872648 
L 297.544432 60.60595 
L 297.924886 61.496756 
L 298.305341 63.17154 
L 298.685795 64.282551 
L 299.06625 64.363887 
L 299.446705 64.010101 
L 300.588068 49.74828 
L 300.968523 47.952166 
L 301.348977 47.378166 
L 301.729432 47.755226 
L 302.109886 49.764221 
L 302.490341 52.936313 
L 302.870795 54.045206 
L 303.25125 52.896254 
L 304.012159 48.673618 
L 304.773068 47.04695 
L 305.153523 47.171077 
L 305.533977 48.579823 
L 306.294886 55.035656 
L 306.675341 57.920827 
L 307.43625 64.940894 
L 307.816705 66.719054 
L 308.197159 67.537713 
L 308.577614 68.017783 
L 308.958068 67.774326 
L 309.718977 64.74321 
L 310.479886 60.586426 
L 310.860341 60.053608 
L 311.240795 59.982222 
L 311.62125 61.177104 
L 312.382159 64.074412 
L 312.762614 64.245385 
L 313.143068 63.582401 
L 313.523523 59.713516 
L 313.903977 53.825738 
L 314.284432 50.117735 
L 314.664886 48.164451 
L 315.045341 47.494158 
L 315.425795 47.92841 
L 315.80625 49.812111 
L 316.186705 52.539687 
L 316.567159 54.102618 
L 316.947614 52.978838 
L 317.708523 48.358621 
L 318.088977 47.156197 
L 318.469432 46.470412 
L 318.849886 46.381521 
L 319.230341 47.246452 
L 321.513068 66.468786 
L 321.893523 67.444456 
L 322.273977 68.089275 
L 322.654432 68.262231 
L 323.034886 67.185825 
L 323.795795 63.75066 
L 324.17625 61.635399 
L 324.556705 61.022618 
L 324.937159 61.404935 
L 325.698068 64.12638 
L 326.078523 64.783291 
L 326.458977 64.505605 
L 326.839432 63.723646 
L 327.219886 59.771019 
L 327.600341 54.251449 
L 327.980795 50.582086 
L 328.36125 48.999204 
L 328.741705 48.243517 
L 329.122159 48.482993 
L 329.502614 50.086681 
L 329.883068 52.609778 
L 330.263523 53.737309 
L 330.643977 53.048151 
L 331.785341 48.259261 
L 332.165795 47.345509 
L 332.54625 47.222994 
L 332.926705 47.66694 
L 333.307159 50.159446 
L 334.068068 56.157376 
L 335.209432 65.279453 
L 335.589886 66.984547 
L 335.970341 67.727107 
L 336.350795 67.914614 
L 336.73125 67.066625 
L 337.492159 63.791491 
L 338.253068 60.013453 
L 338.633523 59.482883 
L 339.013977 59.659763 
L 339.394432 60.681697 
L 340.535795 64.942403 
L 340.91625 64.654698 
L 341.296705 63.613301 
L 342.057614 52.935827 
L 342.438068 50.027447 
L 342.818523 48.720616 
L 343.198977 48.374565 
L 343.579432 49.405753 
L 344.340341 54.271424 
L 344.720795 54.127256 
L 345.10125 52.263268 
L 345.862159 47.781061 
L 346.242614 46.816285 
L 346.623068 46.26267 
L 347.003523 46.30001 
L 347.383977 47.246154 
L 348.144886 54.327119 
L 348.525341 56.640557 
L 349.28625 64.286211 
L 349.666705 66.379205 
L 350.047159 67.176512 
L 350.808068 68.094546 
L 351.188523 67.037575 
L 352.329886 60.851961 
L 352.710341 59.990862 
L 353.090795 59.723508 
L 353.47125 60.824694 
L 354.232159 64.325163 
L 354.612614 65.06536 
L 354.993068 64.795588 
L 355.373523 61.242444 
L 355.753977 54.579435 
L 356.134432 50.35601 
L 356.514886 48.343407 
L 356.895341 47.385326 
L 357.275795 47.589738 
L 357.65625 49.383918 
L 358.036705 53.0625 
L 358.417159 54.832815 
L 358.797614 53.956799 
L 359.558523 49.329716 
L 360.319432 47.359154 
L 360.699886 46.803696 
L 361.080341 47.530172 
L 362.221705 55.873528 
L 362.982614 63.488071 
L 363.363068 65.555605 
L 363.743523 66.537196 
L 364.504432 67.3588 
L 364.884886 66.967762 
L 365.645795 63.493622 
L 366.02625 60.995211 
L 366.406705 59.851216 
L 366.787159 59.540715 
L 367.167614 60.605493 
L 367.928523 63.483817 
L 368.308977 63.741147 
L 368.689432 63.35602 
L 369.069886 59.225646 
L 369.450341 53.394307 
L 369.830795 49.798891 
L 370.21125 47.930951 
L 370.591705 47.25739 
L 370.972159 47.656515 
L 371.352614 49.347517 
L 371.733068 52.506298 
L 372.113523 54.011544 
L 372.493977 53.099475 
L 373.635341 47.705325 
L 374.015795 47.146079 
L 374.39625 47.049628 
L 374.776705 47.593462 
L 377.059432 66.406891 
L 377.439886 67.364831 
L 377.820341 67.853523 
L 378.200795 67.918509 
L 378.200795 67.918509 
" clip-path="url(#p1cebe02607)" style="fill: none; stroke: #ff7f0e; stroke-linecap: square"/>
   </g>
   <g id="patch_9">
    <path d="M 226.399432 94.87875 
L 226.399432 19.27875 
" style="fill: none; stroke: #000000; stroke-width: 0.8; stroke-linejoin: miter; stroke-linecap: square"/>
   </g>
   <g id="patch_10">
    <path d="M 378.58125 94.87875 
L 378.58125 19.27875 
" style="fill: none; stroke: #000000; stroke-width: 0.8; stroke-linejoin: miter; stroke-linecap: square"/>
   </g>
   <g id="patch_11">
    <path d="M 226.399432 94.87875 
L 378.58125 94.87875 
" style="fill: none; stroke: #000000; stroke-width: 0.8; stroke-linejoin: miter; stroke-linecap: square"/>
   </g>
   <g id="patch_12">
    <path d="M 226.399432 19.27875 
L 378.58125 19.27875 
" style="fill: none; stroke: #000000; stroke-width: 0.8; stroke-linejoin: miter; stroke-linecap: square"/>
   </g>
   <g id="text_7">
    <!-- eps. 4 -->
    <g transform="translate(290.318466 13.27875)scale(0.08 -0.08)">
     <use xlink:href="#DejaVuSans-65"/>
     <use xlink:href="#DejaVuSans-70" x="61.523438"/>
     <use xlink:href="#DejaVuSans-73" x="125"/>
     <use xlink:href="#DejaVuSans-2e" x="177.099609"/>
     <use xlink:href="#DejaVuSans-20" x="208.886719"/>
     <use xlink:href="#DejaVuSans-34" x="240.673828"/>
    </g>
   </g>
  </g>
  <g id="axes_3">
   <g id="patch_13">
    <path d="M 43.78125 185.59875 
L 195.963068 185.59875 
L 195.963068 109.99875 
L 43.78125 109.99875 
z
" style="fill: #ffffff"/>
   </g>
   <g id="matplotlib.axis_5">
    <g id="xtick_11">
     <g id="line2d_21">
      <g>
       <use xlink:href="#mb4e1993329" x="43.78125" y="185.59875" style="stroke: #000000; stroke-width: 0.8"/>
      </g>
     </g>
     <g id="text_8">
      <!-- 0 -->
      <g transform="translate(40.6 200.197188)scale(0.1 -0.1)">
       <use xlink:href="#DejaVuSans-30"/>
      </g>
     </g>
    </g>
    <g id="xtick_12">
     <g id="line2d_22">
      <g>
       <use xlink:href="#mb4e1993329" x="81.826705" y="185.59875" style="stroke: #000000; stroke-width: 0.8"/>
      </g>
     </g>
     <g id="text_9">
      <!-- 100 -->
      <g transform="translate(72.282955 200.197188)scale(0.1 -0.1)">
       <use xlink:href="#DejaVuSans-31"/>
       <use xlink:href="#DejaVuSans-30" x="63.623047"/>
       <use xlink:href="#DejaVuSans-30" x="127.246094"/>
      </g>
     </g>
    </g>
    <g id="xtick_13">
     <g id="line2d_23">
      <g>
       <use xlink:href="#mb4e1993329" x="119.872159" y="185.59875" style="stroke: #000000; stroke-width: 0.8"/>
      </g>
     </g>
     <g id="text_10">
      <!-- 200 -->
      <g transform="translate(110.328409 200.197188)scale(0.1 -0.1)">
       <defs>
        <path id="DejaVuSans-32" d="M 1228 531 
L 3431 531 
L 3431 0 
L 469 0 
L 469 531 
Q 828 903 1448 1529 
Q 2069 2156 2228 2338 
Q 2531 2678 2651 2914 
Q 2772 3150 2772 3378 
Q 2772 3750 2511 3984 
Q 2250 4219 1831 4219 
Q 1534 4219 1204 4116 
Q 875 4013 500 3803 
L 500 4441 
Q 881 4594 1212 4672 
Q 1544 4750 1819 4750 
Q 2544 4750 2975 4387 
Q 3406 4025 3406 3419 
Q 3406 3131 3298 2873 
Q 3191 2616 2906 2266 
Q 2828 2175 2409 1742 
Q 1991 1309 1228 531 
z
" transform="scale(0.015625)"/>
       </defs>
       <use xlink:href="#DejaVuSans-32"/>
       <use xlink:href="#DejaVuSans-30" x="63.623047"/>
       <use xlink:href="#DejaVuSans-30" x="127.246094"/>
      </g>
     </g>
    </g>
    <g id="xtick_14">
     <g id="line2d_24">
      <g>
       <use xlink:href="#mb4e1993329" x="157.917614" y="185.59875" style="stroke: #000000; stroke-width: 0.8"/>
      </g>
     </g>
     <g id="text_11">
      <!-- 300 -->
      <g transform="translate(148.373864 200.197188)scale(0.1 -0.1)">
       <defs>
        <path id="DejaVuSans-33" d="M 2597 2516 
Q 3050 2419 3304 2112 
Q 3559 1806 3559 1356 
Q 3559 666 3084 287 
Q 2609 -91 1734 -91 
Q 1441 -91 1130 -33 
Q 819 25 488 141 
L 488 750 
Q 750 597 1062 519 
Q 1375 441 1716 441 
Q 2309 441 2620 675 
Q 2931 909 2931 1356 
Q 2931 1769 2642 2001 
Q 2353 2234 1838 2234 
L 1294 2234 
L 1294 2753 
L 1863 2753 
Q 2328 2753 2575 2939 
Q 2822 3125 2822 3475 
Q 2822 3834 2567 4026 
Q 2313 4219 1838 4219 
Q 1578 4219 1281 4162 
Q 984 4106 628 3988 
L 628 4550 
Q 988 4650 1302 4700 
Q 1616 4750 1894 4750 
Q 2613 4750 3031 4423 
Q 3450 4097 3450 3541 
Q 3450 3153 3228 2886 
Q 3006 2619 2597 2516 
z
" transform="scale(0.015625)"/>
       </defs>
       <use xlink:href="#DejaVuSans-33"/>
       <use xlink:href="#DejaVuSans-30" x="63.623047"/>
       <use xlink:href="#DejaVuSans-30" x="127.246094"/>
      </g>
     </g>
    </g>
    <g id="xtick_15">
     <g id="line2d_25">
      <g>
       <use xlink:href="#mb4e1993329" x="195.963068" y="185.59875" style="stroke: #000000; stroke-width: 0.8"/>
      </g>
     </g>
     <g id="text_12">
      <!-- 400 -->
      <g transform="translate(186.419318 200.197188)scale(0.1 -0.1)">
       <use xlink:href="#DejaVuSans-34"/>
       <use xlink:href="#DejaVuSans-30" x="63.623047"/>
       <use xlink:href="#DejaVuSans-30" x="127.246094"/>
      </g>
     </g>
    </g>
    <g id="text_13">
     <!-- interaction -->
     <g transform="translate(92.831534 213.875313)scale(0.1 -0.1)">
      <defs>
       <path id="DejaVuSans-69" d="M 603 3500 
L 1178 3500 
L 1178 0 
L 603 0 
L 603 3500 
z
M 603 4863 
L 1178 4863 
L 1178 4134 
L 603 4134 
L 603 4863 
z
" transform="scale(0.015625)"/>
       <path id="DejaVuSans-6e" d="M 3513 2113 
L 3513 0 
L 2938 0 
L 2938 2094 
Q 2938 2591 2744 2837 
Q 2550 3084 2163 3084 
Q 1697 3084 1428 2787 
Q 1159 2491 1159 1978 
L 1159 0 
L 581 0 
L 581 3500 
L 1159 3500 
L 1159 2956 
Q 1366 3272 1645 3428 
Q 1925 3584 2291 3584 
Q 2894 3584 3203 3211 
Q 3513 2838 3513 2113 
z
" transform="scale(0.015625)"/>
       <path id="DejaVuSans-74" d="M 1172 4494 
L 1172 3500 
L 2356 3500 
L 2356 3053 
L 1172 3053 
L 1172 1153 
Q 1172 725 1289 603 
Q 1406 481 1766 481 
L 2356 481 
L 2356 0 
L 1766 0 
Q 1100 0 847 248 
Q 594 497 594 1153 
L 594 3053 
L 172 3053 
L 172 3500 
L 594 3500 
L 594 4494 
L 1172 4494 
z
" transform="scale(0.015625)"/>
       <path id="DejaVuSans-72" d="M 2631 2963 
Q 2534 3019 2420 3045 
Q 2306 3072 2169 3072 
Q 1681 3072 1420 2755 
Q 1159 2438 1159 1844 
L 1159 0 
L 581 0 
L 581 3500 
L 1159 3500 
L 1159 2956 
Q 1341 3275 1631 3429 
Q 1922 3584 2338 3584 
Q 2397 3584 2469 3576 
Q 2541 3569 2628 3553 
L 2631 2963 
z
" transform="scale(0.015625)"/>
       <path id="DejaVuSans-61" d="M 2194 1759 
Q 1497 1759 1228 1600 
Q 959 1441 959 1056 
Q 959 750 1161 570 
Q 1363 391 1709 391 
Q 2188 391 2477 730 
Q 2766 1069 2766 1631 
L 2766 1759 
L 2194 1759 
z
M 3341 1997 
L 3341 0 
L 2766 0 
L 2766 531 
Q 2569 213 2275 61 
Q 1981 -91 1556 -91 
Q 1019 -91 701 211 
Q 384 513 384 1019 
Q 384 1609 779 1909 
Q 1175 2209 1959 2209 
L 2766 2209 
L 2766 2266 
Q 2766 2663 2505 2880 
Q 2244 3097 1772 3097 
Q 1472 3097 1187 3025 
Q 903 2953 641 2809 
L 641 3341 
Q 956 3463 1253 3523 
Q 1550 3584 1831 3584 
Q 2591 3584 2966 3190 
Q 3341 2797 3341 1997 
z
" transform="scale(0.015625)"/>
       <path id="DejaVuSans-63" d="M 3122 3366 
L 3122 2828 
Q 2878 2963 2633 3030 
Q 2388 3097 2138 3097 
Q 1578 3097 1268 2742 
Q 959 2388 959 1747 
Q 959 1106 1268 751 
Q 1578 397 2138 397 
Q 2388 397 2633 464 
Q 2878 531 3122 666 
L 3122 134 
Q 2881 22 2623 -34 
Q 2366 -91 2075 -91 
Q 1284 -91 818 406 
Q 353 903 353 1747 
Q 353 2603 823 3093 
Q 1294 3584 2113 3584 
Q 2378 3584 2631 3529 
Q 2884 3475 3122 3366 
z
" transform="scale(0.015625)"/>
       <path id="DejaVuSans-6f" d="M 1959 3097 
Q 1497 3097 1228 2736 
Q 959 2375 959 1747 
Q 959 1119 1226 758 
Q 1494 397 1959 397 
Q 2419 397 2687 759 
Q 2956 1122 2956 1747 
Q 2956 2369 2687 2733 
Q 2419 3097 1959 3097 
z
M 1959 3584 
Q 2709 3584 3137 3096 
Q 3566 2609 3566 1747 
Q 3566 888 3137 398 
Q 2709 -91 1959 -91 
Q 1206 -91 779 398 
Q 353 888 353 1747 
Q 353 2609 779 3096 
Q 1206 3584 1959 3584 
z
" transform="scale(0.015625)"/>
      </defs>
      <use xlink:href="#DejaVuSans-69"/>
      <use xlink:href="#DejaVuSans-6e" x="27.783203"/>
      <use xlink:href="#DejaVuSans-74" x="91.162109"/>
      <use xlink:href="#DejaVuSans-65" x="130.371094"/>
      <use xlink:href="#DejaVuSans-72" x="191.894531"/>
      <use xlink:href="#DejaVuSans-61" x="233.007812"/>
      <use xlink:href="#DejaVuSans-63" x="294.287109"/>
      <use xlink:href="#DejaVuSans-74" x="349.267578"/>
      <use xlink:href="#DejaVuSans-69" x="388.476562"/>
      <use xlink:href="#DejaVuSans-6f" x="416.259766"/>
      <use xlink:href="#DejaVuSans-6e" x="477.441406"/>
     </g>
    </g>
   </g>
   <g id="matplotlib.axis_6">
    <g id="ytick_5">
     <g id="line2d_26">
      <g>
       <use xlink:href="#m6602b16ee8" x="43.78125" y="161.6108" style="stroke: #000000; stroke-width: 0.8"/>
      </g>
     </g>
     <g id="text_14">
      <!-- 0.4 -->
      <g transform="translate(20.878125 165.410019)scale(0.1 -0.1)">
       <use xlink:href="#DejaVuSans-30"/>
       <use xlink:href="#DejaVuSans-2e" x="63.623047"/>
       <use xlink:href="#DejaVuSans-34" x="95.410156"/>
      </g>
     </g>
    </g>
    <g id="ytick_6">
     <g id="line2d_27">
      <g>
       <use xlink:href="#m6602b16ee8" x="43.78125" y="134.127049" style="stroke: #000000; stroke-width: 0.8"/>
      </g>
     </g>
     <g id="text_15">
      <!-- 0.6 -->
      <g transform="translate(20.878125 137.926268)scale(0.1 -0.1)">
       <use xlink:href="#DejaVuSans-30"/>
       <use xlink:href="#DejaVuSans-2e" x="63.623047"/>
       <use xlink:href="#DejaVuSans-36" x="95.410156"/>
      </g>
     </g>
    </g>
    <g id="text_16">
     <!-- $E[ \tilde{\omega} ]$ -->
     <g transform="translate(14.798438 159.04875)rotate(-90)scale(0.1 -0.1)">
      <use xlink:href="#DejaVuSans-Oblique-45" transform="translate(0 0.046875)"/>
      <use xlink:href="#DejaVuSans-5b" transform="translate(63.183594 0.046875)"/>
      <use xlink:href="#DejaVuSans-303" transform="translate(179.351074 3.3125)"/>
      <use xlink:href="#DejaVuSans-Oblique-3c9" transform="translate(102.197266 0.046875)"/>
      <use xlink:href="#DejaVuSans-5d" transform="translate(185.9375 0.046875)"/>
     </g>
    </g>
   </g>
   <g id="line2d_28">
    <path d="M 43.78125 160.639973 
L 44.161705 162.96638 
L 44.542159 162.731643 
L 45.303068 158.460456 
L 45.683523 154.682826 
L 46.063977 152.960681 
L 46.444432 152.316276 
L 47.205341 151.624161 
L 47.585795 150.713711 
L 47.96625 148.106072 
L 48.727159 141.40549 
L 49.488068 137.843228 
L 50.248977 132.575354 
L 50.629432 132.977502 
L 51.009886 135.836997 
L 51.390341 137.730337 
L 51.770795 137.613722 
L 52.531705 135.43764 
L 52.912159 135.302985 
L 53.292614 134.676582 
L 54.053523 134.903593 
L 54.814432 139.875337 
L 55.194886 141.631422 
L 55.575341 145.841151 
L 55.955795 152.823903 
L 56.33625 156.928861 
L 56.716705 159.227841 
L 57.477614 160.888793 
L 57.858068 162.526524 
L 58.238523 161.722101 
L 58.618977 159.162285 
L 58.999432 155.776558 
L 59.379886 151.125596 
L 59.760341 149.344189 
L 60.140795 148.727283 
L 60.52125 148.600768 
L 60.901705 148.674256 
L 61.282159 148.585128 
L 61.662614 147.784776 
L 62.803977 142.293297 
L 63.184432 141.259573 
L 63.564886 139.510265 
L 64.325795 134.413086 
L 64.70625 135.225587 
L 65.086705 137.22199 
L 65.467159 138.276545 
L 65.847614 137.228191 
L 66.228068 134.827386 
L 66.608523 133.345576 
L 66.988977 132.47974 
L 67.369432 132.386964 
L 67.749886 132.629557 
L 68.510795 138.126265 
L 68.89125 140.312196 
L 69.271705 145.011642 
L 70.032614 159.486201 
L 70.413068 162.42368 
L 71.173977 165.421907 
L 71.554432 165.558154 
L 71.934886 164.449828 
L 72.695795 159.504114 
L 73.456705 152.428656 
L 73.837159 151.181929 
L 74.217614 150.380068 
L 74.598068 150.26975 
L 74.978523 149.807853 
L 75.358977 147.880633 
L 76.119886 140.711359 
L 77.641705 132.48193 
L 78.022159 133.17753 
L 78.402614 135.377568 
L 78.783068 136.792441 
L 79.163523 137.033887 
L 80.685341 134.239551 
L 81.065795 133.880311 
L 81.44625 134.590515 
L 81.826705 138.248604 
L 82.207159 139.851309 
L 82.587614 142.95691 
L 83.728977 160.996964 
L 84.109432 163.049479 
L 84.489886 163.889661 
L 85.250795 166.044743 
L 85.63125 165.445618 
L 86.011705 163.440586 
L 86.392159 160.804404 
L 87.153068 158.023667 
L 87.913977 156.740046 
L 88.294432 155.475688 
L 88.674886 151.856009 
L 89.435795 141.483044 
L 89.81625 138.098141 
L 90.957614 130.866755 
L 91.338068 130.906064 
L 92.098977 136.755219 
L 92.479432 137.471877 
L 92.859886 135.839248 
L 93.240341 133.589259 
L 93.620795 132.168616 
L 94.00125 131.951316 
L 94.762159 132.151194 
L 95.142614 133.499423 
L 95.523068 137.66519 
L 95.903523 139.489983 
L 96.283977 142.673551 
L 97.044886 158.893988 
L 97.425341 163.068983 
L 97.805795 165.110678 
L 98.566705 166.721358 
L 98.947159 166.39394 
L 99.327614 164.597823 
L 100.088523 159.896645 
L 101.229886 155.069889 
L 101.610341 154.621359 
L 101.990795 153.520107 
L 102.37125 151.997253 
L 103.512614 139.779214 
L 104.273523 135.812468 
L 105.034432 131.239605 
L 105.414886 132.622636 
L 105.795341 135.163269 
L 106.175795 136.736073 
L 106.55625 136.623416 
L 107.317159 135.08014 
L 107.697614 134.950712 
L 108.078068 134.484798 
L 108.838977 135.038438 
L 109.599886 140.335611 
L 109.980341 142.317685 
L 110.360795 147.069518 
L 110.74125 154.589536 
L 111.121705 159.292425 
L 111.502159 161.762914 
L 111.882614 162.415169 
L 112.643523 165.602007 
L 113.023977 164.116431 
L 113.784886 157.967321 
L 114.165341 152.858954 
L 114.545795 150.073807 
L 114.92625 149.165843 
L 115.306705 148.83347 
L 116.067614 148.988126 
L 116.448068 148.315965 
L 116.828523 145.968657 
L 117.208977 142.048021 
L 117.969886 137.088525 
L 118.730795 133.447556 
L 119.11125 133.216036 
L 119.491705 135.096858 
L 119.872159 137.679374 
L 120.252614 138.83191 
L 121.393977 139.615568 
L 121.774432 138.965565 
L 122.154886 138.09503 
L 122.535341 137.745336 
L 122.915795 140.458978 
L 123.29625 141.604438 
L 123.676705 143.507518 
L 124.818068 154.186541 
L 125.198523 155.738333 
L 125.578977 155.744856 
L 125.959432 155.205342 
L 126.339886 154.456861 
L 126.720341 154.192216 
L 127.100795 152.596478 
L 127.48125 149.365726 
L 127.861705 148.348657 
L 128.622614 148.127993 
L 129.383523 148.388729 
L 129.763977 147.900681 
L 130.144432 145.948898 
L 130.905341 140.06299 
L 132.046705 133.673587 
L 132.427159 132.680807 
L 132.807614 134.208201 
L 133.188068 137.41105 
L 133.568523 138.853216 
L 133.948977 138.576404 
L 134.329432 137.579857 
L 134.709886 137.039566 
L 135.090341 136.17146 
L 135.85125 134.971202 
L 136.231705 137.466149 
L 136.612159 138.668345 
L 136.992614 141.280841 
L 137.373068 146.386804 
L 137.753523 153.406324 
L 138.133977 158.315495 
L 138.514432 160.878861 
L 138.894886 162.244226 
L 139.275341 163.156745 
L 139.655795 164.417049 
L 140.03625 164.357463 
L 140.416705 163.16662 
L 141.558068 156.077468 
L 142.699432 154.422192 
L 143.079886 151.999871 
L 143.840795 142.966633 
L 144.601705 136.989455 
L 145.362614 132.023662 
L 145.743068 131.645302 
L 146.503977 136.747654 
L 146.884432 139.124881 
L 147.264886 137.578344 
L 148.40625 127.877402 
L 148.786705 126.77961 
L 149.167159 126.380594 
L 149.547614 128.102767 
L 150.308523 135.362726 
L 150.688977 141.24438 
L 151.449886 159.928594 
L 151.830341 164.687453 
L 152.210795 166.70947 
L 152.59125 167.363594 
L 152.971705 166.621672 
L 153.352159 164.756833 
L 153.732614 163.878358 
L 154.493523 158.658911 
L 154.873977 157.771108 
L 155.254432 159.580879 
L 155.634886 162.747658 
L 156.015341 163.678125 
L 156.395795 162.598461 
L 156.77625 159.047643 
L 157.537159 146.875264 
L 159.058977 137.304238 
L 159.819886 134.697043 
L 160.200341 135.275269 
L 160.580795 136.072081 
L 161.722159 128.984001 
L 162.102614 128.04053 
L 162.483068 127.985746 
L 162.863523 128.310686 
L 163.624432 131.342939 
L 164.385341 137.302911 
L 165.907159 154.615534 
L 166.287614 157.610107 
L 166.668068 158.733284 
L 167.048523 159.000495 
L 167.809432 157.949773 
L 168.189886 157.606987 
L 168.950795 156.284976 
L 169.33125 157.545439 
L 169.711705 159.726943 
L 170.092159 160.116638 
L 170.472614 158.766136 
L 170.853068 155.645246 
L 171.613977 146.478209 
L 173.135795 140.264651 
L 173.51625 138.358614 
L 173.896705 137.041333 
L 174.277159 137.055674 
L 174.657614 135.749468 
L 175.418523 130.654899 
L 175.798977 129.045345 
L 176.179432 128.568417 
L 176.559886 128.800045 
L 176.940341 129.390567 
L 177.320795 130.373999 
L 177.70125 132.355624 
L 178.081705 135.354193 
L 178.842614 142.752147 
L 179.223068 144.512132 
L 179.983977 146.298718 
L 180.744886 151.15799 
L 181.125341 152.419959 
L 181.505795 152.835852 
L 181.88625 152.822365 
L 182.647159 154.085563 
L 183.408068 155.809153 
L 183.788523 157.141026 
L 184.549432 161.678739 
L 184.929886 162.68293 
L 185.310341 160.630605 
L 185.690795 156.607239 
L 186.07125 150.956409 
L 187.212614 140.452393 
L 187.973523 135.169599 
L 188.353977 135.078114 
L 188.734432 135.791709 
L 189.114886 136.972304 
L 189.495341 134.914112 
L 189.875795 133.49261 
L 191.017159 124.737726 
L 191.397614 123.889586 
L 191.778068 124.005507 
L 192.158523 125.815339 
L 193.299886 137.717784 
L 193.680341 139.547482 
L 194.060795 143.66115 
L 194.821705 155.851045 
L 195.202159 158.283968 
L 195.582614 159.669932 
L 195.582614 159.669932 
" clip-path="url(#pd057fcf669)" style="fill: none; stroke: #1f77b4; stroke-linecap: square"/>
   </g>
   <g id="line2d_29">
    <path d="M 43.78125 160.639973 
L 44.161705 162.970014 
L 44.542159 162.740613 
L 45.303068 158.484254 
L 45.683523 154.75124 
L 46.063977 153.057753 
L 46.444432 152.42446 
L 47.205341 151.729141 
L 47.585795 150.645242 
L 47.96625 147.801038 
L 48.346705 143.66796 
L 48.727159 140.978215 
L 49.488068 137.375376 
L 50.248977 132.390197 
L 50.629432 133.177192 
L 51.009886 135.922739 
L 51.390341 137.374009 
L 51.770795 137.186478 
L 52.531705 134.432162 
L 52.912159 134.084457 
L 53.292614 133.413227 
L 53.673068 133.107298 
L 54.053523 133.661621 
L 54.433977 137.745592 
L 54.814432 139.138234 
L 55.194886 141.624268 
L 55.575341 146.630901 
L 55.955795 153.376695 
L 56.33625 156.699182 
L 56.716705 158.736212 
L 57.477614 160.727727 
L 57.858068 162.661033 
L 58.238523 163.016988 
L 58.618977 161.597569 
L 59.379886 157.978089 
L 59.760341 156.546467 
L 60.140795 156.125577 
L 60.52125 155.880654 
L 60.901705 155.193435 
L 61.282159 152.270454 
L 62.043068 142.132365 
L 62.423523 138.992511 
L 63.945341 131.811839 
L 64.325795 133.898861 
L 64.70625 136.972532 
L 65.086705 137.458178 
L 65.467159 135.606158 
L 66.228068 129.604034 
L 66.608523 128.171253 
L 66.988977 127.761212 
L 67.369432 127.87557 
L 67.749886 129.807259 
L 68.89125 141.84434 
L 69.271705 149.53823 
L 69.652159 159.586832 
L 70.032614 165.082207 
L 70.413068 166.417378 
L 70.793523 167.080099 
L 71.173977 166.623651 
L 71.554432 165.603353 
L 71.934886 163.922747 
L 72.695795 158.368166 
L 73.07625 156.768242 
L 73.456705 157.354907 
L 74.217614 163.136016 
L 74.598068 163.475187 
L 74.978523 161.444664 
L 75.358977 156.67777 
L 76.119886 144.369769 
L 76.880795 137.192104 
L 77.641705 132.257293 
L 78.022159 131.9492 
L 78.402614 133.769766 
L 78.783068 136.565566 
L 79.163523 136.724315 
L 79.543977 134.140665 
L 80.304886 127.913516 
L 80.685341 126.240249 
L 81.065795 125.97408 
L 81.44625 126.156071 
L 81.826705 128.038495 
L 82.587614 135.691367 
L 82.968068 139.146296 
L 83.348523 145.803402 
L 83.728977 156.12491 
L 84.109432 162.360284 
L 84.489886 164.559416 
L 84.870341 165.559897 
L 85.250795 165.892567 
L 86.011705 165.561252 
L 87.153068 158.901485 
L 87.533523 160.451185 
L 87.913977 163.344526 
L 88.294432 164.608338 
L 88.674886 163.342345 
L 89.055341 159.855409 
L 89.81625 146.986563 
L 91.338068 135.705786 
L 91.718523 134.296667 
L 92.098977 134.298066 
L 92.859886 137.007685 
L 93.620795 132.228982 
L 94.00125 129.653849 
L 95.142614 125.592954 
L 95.523068 126.03163 
L 95.903523 128.23523 
L 96.664432 136.433984 
L 97.425341 149.024798 
L 97.805795 156.076516 
L 98.18625 159.890295 
L 98.566705 161.364666 
L 98.947159 161.401556 
L 99.327614 161.015368 
L 100.088523 158.786521 
L 100.468977 158.356413 
L 101.229886 155.362789 
L 101.610341 156.138348 
L 101.990795 158.830873 
L 102.37125 162.399279 
L 102.751705 162.272016 
L 103.132159 160.152454 
L 104.273523 142.840386 
L 105.414886 134.917279 
L 105.795341 133.569112 
L 106.175795 133.670138 
L 106.55625 135.368989 
L 106.936705 135.745711 
L 107.697614 131.008747 
L 108.078068 127.328978 
L 108.458523 124.896514 
L 108.838977 123.402153 
L 109.219432 122.66275 
L 109.599886 124.190861 
L 109.980341 127.069981 
L 110.74125 134.063311 
L 111.121705 136.985995 
L 112.263068 158.87057 
L 113.023977 162.503877 
L 113.784886 164.123776 
L 114.165341 164.545947 
L 114.545795 163.482193 
L 114.92625 162.056044 
L 115.306705 162.751718 
L 115.687159 163.79604 
L 116.067614 163.09535 
L 116.448068 160.336574 
L 117.589432 143.279555 
L 118.730795 137.381079 
L 119.11125 135.963011 
L 119.491705 135.599683 
L 119.872159 136.811559 
L 120.252614 137.147353 
L 121.393977 128.325183 
L 121.774432 127.26059 
L 122.154886 126.678663 
L 122.535341 126.745363 
L 122.915795 127.773174 
L 123.29625 130.023749 
L 124.818068 145.908977 
L 125.578977 156.314068 
L 125.959432 158.475375 
L 126.339886 159.521204 
L 126.720341 159.72444 
L 127.100795 159.26825 
L 127.48125 159.125824 
L 127.861705 159.121448 
L 128.242159 157.855998 
L 128.622614 158.16489 
L 129.003068 159.584142 
L 129.383523 161.67601 
L 129.763977 161.985216 
L 130.144432 160.200695 
L 130.524886 156.054795 
L 130.905341 149.290213 
L 131.66625 142.955802 
L 132.427159 137.235518 
L 132.807614 135.256486 
L 133.188068 134.552393 
L 133.568523 135.227599 
L 133.948977 136.695273 
L 134.329432 134.611779 
L 135.470795 127.1931 
L 135.85125 126.495693 
L 136.231705 126.051146 
L 136.612159 125.839066 
L 136.992614 127.010231 
L 137.373068 130.047437 
L 138.894886 146.945071 
L 139.275341 152.86241 
L 139.655795 156.638311 
L 140.03625 158.628222 
L 140.416705 159.564949 
L 140.797159 159.468283 
L 141.558068 159.536613 
L 141.938523 159.85421 
L 142.318977 159.755403 
L 143.079886 161.864338 
L 143.460341 161.421955 
L 143.840795 159.694059 
L 144.22125 155.959042 
L 144.601705 150.569829 
L 144.982159 147.146968 
L 146.884432 137.543795 
L 147.264886 137.402191 
L 147.645341 137.419429 
L 148.025795 135.517788 
L 148.786705 129.907529 
L 149.167159 128.144078 
L 149.547614 127.911257 
L 149.928068 128.206336 
L 150.308523 128.821644 
L 150.688977 130.483212 
L 151.069432 133.132534 
L 152.210795 144.531503 
L 152.971705 147.467235 
L 153.352159 148.755057 
L 153.732614 151.534606 
L 154.113068 153.270715 
L 154.493523 153.67528 
L 155.254432 153.291842 
L 155.634886 153.375696 
L 156.015341 153.770129 
L 156.395795 153.986133 
L 156.77625 155.193126 
L 157.917614 161.295615 
L 158.298068 160.725175 
L 158.678523 158.22871 
L 159.439432 149.105556 
L 160.96125 137.811779 
L 161.341705 136.371771 
L 161.722159 136.406474 
L 162.102614 137.201767 
L 162.483068 135.986505 
L 163.243977 130.884584 
L 163.624432 128.785414 
L 164.765795 125.402644 
L 165.14625 125.667301 
L 165.526705 127.93451 
L 166.287614 135.787 
L 167.048523 141.511969 
L 167.809432 152.385203 
L 168.189886 155.932044 
L 168.570341 158.000486 
L 168.950795 159.01606 
L 169.33125 158.891983 
L 169.711705 159.579734 
L 170.092159 160.571446 
L 170.472614 160.502934 
L 170.853068 160.690307 
L 171.233523 162.582965 
L 171.994432 167.208174 
L 172.374886 165.171423 
L 172.755341 160.790086 
L 173.51625 146.981273 
L 175.038068 135.329153 
L 175.418523 134.162072 
L 176.179432 137.011852 
L 176.559886 135.390436 
L 178.081705 124.816083 
L 178.462159 124.176517 
L 178.842614 124.522091 
L 179.223068 127.142305 
L 179.983977 135.606887 
L 180.364432 137.274161 
L 180.744886 139.606511 
L 181.88625 159.906114 
L 182.266705 161.855547 
L 183.027614 163.847506 
L 183.408068 164.368344 
L 183.788523 164.483718 
L 184.549432 160.387473 
L 184.929886 160.90146 
L 185.310341 162.789881 
L 185.690795 163.352094 
L 186.07125 161.566941 
L 186.451705 156.858306 
L 186.832159 149.91664 
L 187.212614 145.381015 
L 188.734432 136.770052 
L 189.114886 136.016238 
L 189.495341 136.421036 
L 189.875795 137.551903 
L 190.25625 135.66376 
L 191.017159 129.547385 
L 191.397614 127.620694 
L 191.778068 127.104995 
L 192.158523 126.921682 
L 192.538977 127.411481 
L 192.919432 128.823404 
L 193.680341 135.506142 
L 194.44125 142.929596 
L 195.202159 154.212178 
L 195.582614 157.506463 
L 195.582614 157.506463 
" clip-path="url(#pd057fcf669)" style="fill: none; stroke: #ff7f0e; stroke-linecap: square"/>
   </g>
   <g id="patch_14">
    <path d="M 43.78125 185.59875 
L 43.78125 109.99875 
" style="fill: none; stroke: #000000; stroke-width: 0.8; stroke-linejoin: miter; stroke-linecap: square"/>
   </g>
   <g id="patch_15">
    <path d="M 195.963068 185.59875 
L 195.963068 109.99875 
" style="fill: none; stroke: #000000; stroke-width: 0.8; stroke-linejoin: miter; stroke-linecap: square"/>
   </g>
   <g id="patch_16">
    <path d="M 43.78125 185.59875 
L 195.963068 185.59875 
" style="fill: none; stroke: #000000; stroke-width: 0.8; stroke-linejoin: miter; stroke-linecap: square"/>
   </g>
   <g id="patch_17">
    <path d="M 43.78125 109.99875 
L 195.963068 109.99875 
" style="fill: none; stroke: #000000; stroke-width: 0.8; stroke-linejoin: miter; stroke-linecap: square"/>
   </g>
   <g id="text_17">
    <!-- eps. 8 -->
    <g transform="translate(107.700284 103.99875)scale(0.08 -0.08)">
     <defs>
      <path id="DejaVuSans-38" d="M 2034 2216 
Q 1584 2216 1326 1975 
Q 1069 1734 1069 1313 
Q 1069 891 1326 650 
Q 1584 409 2034 409 
Q 2484 409 2743 651 
Q 3003 894 3003 1313 
Q 3003 1734 2745 1975 
Q 2488 2216 2034 2216 
z
M 1403 2484 
Q 997 2584 770 2862 
Q 544 3141 544 3541 
Q 544 4100 942 4425 
Q 1341 4750 2034 4750 
Q 2731 4750 3128 4425 
Q 3525 4100 3525 3541 
Q 3525 3141 3298 2862 
Q 3072 2584 2669 2484 
Q 3125 2378 3379 2068 
Q 3634 1759 3634 1313 
Q 3634 634 3220 271 
Q 2806 -91 2034 -91 
Q 1263 -91 848 271 
Q 434 634 434 1313 
Q 434 1759 690 2068 
Q 947 2378 1403 2484 
z
M 1172 3481 
Q 1172 3119 1398 2916 
Q 1625 2713 2034 2713 
Q 2441 2713 2670 2916 
Q 2900 3119 2900 3481 
Q 2900 3844 2670 4047 
Q 2441 4250 2034 4250 
Q 1625 4250 1398 4047 
Q 1172 3844 1172 3481 
z
" transform="scale(0.015625)"/>
     </defs>
     <use xlink:href="#DejaVuSans-65"/>
     <use xlink:href="#DejaVuSans-70" x="61.523438"/>
     <use xlink:href="#DejaVuSans-73" x="125"/>
     <use xlink:href="#DejaVuSans-2e" x="177.099609"/>
     <use xlink:href="#DejaVuSans-20" x="208.886719"/>
     <use xlink:href="#DejaVuSans-38" x="240.673828"/>
    </g>
   </g>
  </g>
  <g id="axes_4">
   <g id="patch_18">
    <path d="M 226.399432 185.59875 
L 378.58125 185.59875 
L 378.58125 109.99875 
L 226.399432 109.99875 
z
" style="fill: #ffffff"/>
   </g>
   <g id="matplotlib.axis_7">
    <g id="xtick_16">
     <g id="line2d_30">
      <g>
       <use xlink:href="#mb4e1993329" x="226.399432" y="185.59875" style="stroke: #000000; stroke-width: 0.8"/>
      </g>
     </g>
     <g id="text_18">
      <!-- 0 -->
      <g transform="translate(223.218182 200.197188)scale(0.1 -0.1)">
       <use xlink:href="#DejaVuSans-30"/>
      </g>
     </g>
    </g>
    <g id="xtick_17">
     <g id="line2d_31">
      <g>
       <use xlink:href="#mb4e1993329" x="264.444886" y="185.59875" style="stroke: #000000; stroke-width: 0.8"/>
      </g>
     </g>
     <g id="text_19">
      <!-- 100 -->
      <g transform="translate(254.901136 200.197188)scale(0.1 -0.1)">
       <use xlink:href="#DejaVuSans-31"/>
       <use xlink:href="#DejaVuSans-30" x="63.623047"/>
       <use xlink:href="#DejaVuSans-30" x="127.246094"/>
      </g>
     </g>
    </g>
    <g id="xtick_18">
     <g id="line2d_32">
      <g>
       <use xlink:href="#mb4e1993329" x="302.490341" y="185.59875" style="stroke: #000000; stroke-width: 0.8"/>
      </g>
     </g>
     <g id="text_20">
      <!-- 200 -->
      <g transform="translate(292.946591 200.197188)scale(0.1 -0.1)">
       <use xlink:href="#DejaVuSans-32"/>
       <use xlink:href="#DejaVuSans-30" x="63.623047"/>
       <use xlink:href="#DejaVuSans-30" x="127.246094"/>
      </g>
     </g>
    </g>
    <g id="xtick_19">
     <g id="line2d_33">
      <g>
       <use xlink:href="#mb4e1993329" x="340.535795" y="185.59875" style="stroke: #000000; stroke-width: 0.8"/>
      </g>
     </g>
     <g id="text_21">
      <!-- 300 -->
      <g transform="translate(330.992045 200.197188)scale(0.1 -0.1)">
       <use xlink:href="#DejaVuSans-33"/>
       <use xlink:href="#DejaVuSans-30" x="63.623047"/>
       <use xlink:href="#DejaVuSans-30" x="127.246094"/>
      </g>
     </g>
    </g>
    <g id="xtick_20">
     <g id="line2d_34">
      <g>
       <use xlink:href="#mb4e1993329" x="378.58125" y="185.59875" style="stroke: #000000; stroke-width: 0.8"/>
      </g>
     </g>
     <g id="text_22">
      <!-- 400 -->
      <g transform="translate(369.0375 200.197188)scale(0.1 -0.1)">
       <use xlink:href="#DejaVuSans-34"/>
       <use xlink:href="#DejaVuSans-30" x="63.623047"/>
       <use xlink:href="#DejaVuSans-30" x="127.246094"/>
      </g>
     </g>
    </g>
    <g id="text_23">
     <!-- interaction -->
     <g transform="translate(275.449716 213.875313)scale(0.1 -0.1)">
      <use xlink:href="#DejaVuSans-69"/>
      <use xlink:href="#DejaVuSans-6e" x="27.783203"/>
      <use xlink:href="#DejaVuSans-74" x="91.162109"/>
      <use xlink:href="#DejaVuSans-65" x="130.371094"/>
      <use xlink:href="#DejaVuSans-72" x="191.894531"/>
      <use xlink:href="#DejaVuSans-61" x="233.007812"/>
      <use xlink:href="#DejaVuSans-63" x="294.287109"/>
      <use xlink:href="#DejaVuSans-74" x="349.267578"/>
      <use xlink:href="#DejaVuSans-69" x="388.476562"/>
      <use xlink:href="#DejaVuSans-6f" x="416.259766"/>
      <use xlink:href="#DejaVuSans-6e" x="477.441406"/>
     </g>
    </g>
   </g>
   <g id="matplotlib.axis_8">
    <g id="ytick_7">
     <g id="line2d_35">
      <g>
       <use xlink:href="#m6602b16ee8" x="226.399432" y="161.6108" style="stroke: #000000; stroke-width: 0.8"/>
      </g>
     </g>
    </g>
    <g id="ytick_8">
     <g id="line2d_36">
      <g>
       <use xlink:href="#m6602b16ee8" x="226.399432" y="134.127049" style="stroke: #000000; stroke-width: 0.8"/>
      </g>
     </g>
    </g>
   </g>
   <g id="line2d_37">
    <path d="M 226.399432 150.724418 
L 226.779886 157.401128 
L 227.160341 170.97222 
L 227.540795 175.724583 
L 227.92125 168.984374 
L 228.301705 155.62097 
L 228.682159 150.59988 
L 229.062614 149.207361 
L 229.443068 148.911473 
L 229.823523 148.394874 
L 230.584432 147.859052 
L 230.964886 147.264498 
L 231.345341 146.282415 
L 231.725795 143.255212 
L 232.486705 129.366992 
L 232.867159 122.119323 
L 233.247614 122.415948 
L 234.388977 134.988005 
L 234.769432 137.701218 
L 235.149886 139.279385 
L 235.530341 139.733732 
L 236.29125 142.145001 
L 237.052159 134.786798 
L 237.432614 141.23486 
L 238.193523 150.404631 
L 238.573977 150.602973 
L 239.334886 149.466233 
L 239.715341 149.466839 
L 240.095795 150.049782 
L 240.47625 153.572088 
L 241.237159 172.511623 
L 241.998068 150.85508 
L 242.378523 148.396627 
L 242.758977 148.031908 
L 245.041705 147.545963 
L 245.422159 146.89271 
L 245.802614 144.921225 
L 246.183068 139.323238 
L 246.563523 129.650515 
L 246.943977 123.051131 
L 247.324432 123.474787 
L 247.704886 128.498434 
L 248.085341 128.507631 
L 248.465795 126.137438 
L 248.84625 127.440445 
L 249.226705 129.146456 
L 249.987614 135.013687 
L 250.748523 128.615254 
L 251.509432 141.581642 
L 251.889886 153.668248 
L 252.270341 161.924338 
L 252.650795 161.631163 
L 253.03125 158.867692 
L 253.411705 157.079969 
L 253.792159 158.769335 
L 254.553068 174.261842 
L 254.933523 177.736713 
L 255.313977 173.781707 
L 255.694432 165.399972 
L 256.074886 153.625995 
L 256.455341 150.032194 
L 256.835795 149.0254 
L 257.21625 148.438027 
L 258.357614 147.356168 
L 258.738068 146.593934 
L 259.118523 144.028592 
L 259.498977 137.514473 
L 260.259886 122.271691 
L 260.640341 122.079676 
L 261.020795 125.477917 
L 261.40125 129.880798 
L 261.781705 130.121413 
L 262.162159 130.513698 
L 262.542614 130.289299 
L 262.923068 131.621561 
L 263.303523 133.644248 
L 263.683977 130.481991 
L 264.064432 124.72115 
L 264.444886 128.697048 
L 265.205795 148.142526 
L 265.58625 159.217181 
L 265.966705 161.82914 
L 266.727614 159.750617 
L 267.108068 160.486196 
L 267.488523 164.733036 
L 267.868977 174.21179 
L 268.249432 180.438669 
L 268.629886 182.162386 
L 269.77125 172.01897 
L 270.151705 170.775643 
L 273.575795 121.896019 
L 273.95625 122.500109 
L 274.336705 125.878758 
L 274.717159 130.483785 
L 275.097614 126.313717 
L 275.478068 120.482821 
L 275.858523 117.926557 
L 276.238977 118.140979 
L 276.999886 122.926492 
L 277.380341 122.129942 
L 277.760795 120.655697 
L 278.14125 123.874588 
L 278.521705 132.970622 
L 279.282614 165.120093 
L 279.663068 169.721789 
L 280.423977 169.563009 
L 280.804432 171.036818 
L 281.565341 176.952414 
L 281.945795 178.33074 
L 282.32625 177.561271 
L 283.087159 172.032308 
L 283.467614 172.817762 
L 283.848068 174.126019 
L 284.228523 171.094921 
L 284.989432 156.825077 
L 286.130795 140.849275 
L 287.272159 126.321121 
L 287.652614 126.319361 
L 288.033068 129.179391 
L 288.413523 133.432529 
L 288.793977 130.549928 
L 289.554886 115.855948 
L 289.935341 114.732463 
L 290.315795 115.856116 
L 290.69625 117.766521 
L 291.076705 118.451773 
L 291.457159 119.65187 
L 291.837614 122.930745 
L 292.218068 128.983235 
L 292.598523 141.386869 
L 292.978977 161.151403 
L 293.359432 170.03474 
L 293.739886 171.04329 
L 294.500795 170.850577 
L 294.88125 172.031949 
L 296.022614 169.927226 
L 296.783523 167.940813 
L 297.163977 167.351035 
L 297.924886 173.834207 
L 298.305341 168.804542 
L 299.446705 147.593324 
L 300.207614 136.258756 
L 301.348977 122.815146 
L 301.729432 124.579079 
L 302.109886 127.166517 
L 302.490341 127.916629 
L 303.25125 115.154144 
L 303.631705 113.435114 
L 304.012159 114.423275 
L 304.392614 116.519218 
L 304.773068 116.239321 
L 305.153523 116.184475 
L 305.533977 117.519873 
L 305.914432 121.810993 
L 306.294886 132.754371 
L 306.675341 153.504239 
L 307.055795 163.184623 
L 307.43625 163.787914 
L 307.816705 162.882748 
L 308.197159 164.681202 
L 308.958068 174.040915 
L 309.338523 177.0582 
L 309.718977 177.000672 
L 310.479886 171.099023 
L 310.860341 172.115841 
L 311.240795 172.164889 
L 311.62125 167.890037 
L 313.143068 140.359157 
L 313.903977 135.375075 
L 314.284432 131.69238 
L 314.664886 131.549859 
L 315.425795 135.973799 
L 315.80625 137.213363 
L 316.186705 132.001281 
L 316.567159 123.568294 
L 316.947614 118.720945 
L 317.328068 117.872044 
L 317.708523 118.885571 
L 318.088977 120.918304 
L 318.469432 121.848972 
L 318.849886 123.710275 
L 319.230341 127.276423 
L 319.610795 135.220469 
L 320.371705 158.576407 
L 320.752159 164.249587 
L 321.132614 166.175293 
L 321.513068 167.00732 
L 321.893523 166.233344 
L 323.034886 159.731673 
L 323.415341 156.972277 
L 323.795795 155.711671 
L 324.17625 153.428191 
L 324.937159 146.671443 
L 325.698068 139.33369 
L 326.078523 137.62773 
L 326.458977 136.8928 
L 326.839432 136.980982 
L 327.980795 139.388763 
L 328.36125 139.319814 
L 329.122159 133.797293 
L 329.883068 126.098416 
L 330.263523 124.898314 
L 330.643977 125.880343 
L 331.024432 128.401802 
L 331.404886 132.507604 
L 331.785341 134.978557 
L 332.165795 135.666354 
L 332.54625 135.700336 
L 332.926705 136.185239 
L 333.307159 136.949245 
L 333.687614 138.386414 
L 334.068068 138.741129 
L 334.448523 141.056004 
L 334.828977 142.362619 
L 335.209432 143.054087 
L 335.589886 143.449347 
L 335.970341 144.572725 
L 337.111705 148.771072 
L 338.253068 151.032588 
L 338.633523 151.391546 
L 339.394432 150.035072 
L 340.155341 145.826179 
L 340.535795 144.775378 
L 341.296705 144.013949 
L 341.677159 143.687724 
L 342.438068 140.405663 
L 342.818523 139.822101 
L 343.198977 137.475672 
L 343.959886 130.023709 
L 344.340341 128.124712 
L 344.720795 127.278471 
L 345.10125 128.453185 
L 345.481705 130.290574 
L 346.242614 137.492773 
L 346.623068 138.123504 
L 347.003523 137.858335 
L 347.383977 139.492198 
L 348.144886 147.897395 
L 348.525341 149.218634 
L 348.905795 148.747467 
L 349.666705 151.213813 
L 350.047159 150.581423 
L 350.427614 150.656924 
L 351.949432 157.535919 
L 352.710341 162.162921 
L 353.090795 163.191523 
L 353.47125 163.418248 
L 354.612614 151.499428 
L 355.373523 148.143225 
L 355.753977 147.301965 
L 356.134432 147.971126 
L 357.65625 139.30928 
L 358.417159 128.879198 
L 358.797614 126.012628 
L 359.178068 125.270977 
L 359.558523 126.98571 
L 360.319432 133.493654 
L 360.699886 138.115662 
L 361.080341 137.74426 
L 361.460795 136.750212 
L 361.84125 140.253549 
L 362.602159 151.131493 
L 362.982614 151.156502 
L 363.743523 155.210308 
L 364.123977 155.79129 
L 364.504432 155.289838 
L 364.884886 156.699568 
L 365.645795 161.606781 
L 366.02625 162.687023 
L 367.167614 171.457299 
L 367.548068 172.673674 
L 367.928523 170.367069 
L 369.450341 143.030736 
L 370.591705 132.389686 
L 370.972159 131.044574 
L 371.352614 133.354165 
L 371.733068 136.645496 
L 372.113523 136.01137 
L 372.493977 122.33022 
L 372.874432 115.039568 
L 373.254886 114.154438 
L 373.635341 115.64771 
L 374.39625 121.030698 
L 374.776705 119.873325 
L 375.157159 120.958913 
L 375.537614 123.844219 
L 376.678977 148.020665 
L 377.059432 150.888059 
L 377.439886 151.869975 
L 377.820341 154.430989 
L 378.200795 158.766159 
L 378.200795 158.766159 
" clip-path="url(#p9549d484f4)" style="fill: none; stroke: #1f77b4; stroke-linecap: square"/>
   </g>
   <g id="line2d_38">
    <path d="M 226.399432 150.724418 
L 226.779886 157.414063 
L 227.160341 171.010894 
L 227.540795 175.746355 
L 227.92125 169.172012 
L 228.301705 155.843794 
L 228.682159 150.73849 
L 229.062614 149.300193 
L 229.443068 149.006636 
L 229.823523 148.441621 
L 230.584432 147.796421 
L 230.964886 147.070857 
L 231.345341 145.885826 
L 231.725795 142.096853 
L 232.867159 121.678797 
L 233.247614 122.590326 
L 234.008523 131.694648 
L 234.769432 136.589427 
L 235.149886 137.170692 
L 235.530341 137.447009 
L 235.910795 138.458659 
L 236.29125 136.20846 
L 236.671705 128.944462 
L 237.052159 131.318162 
L 237.813068 146.544441 
L 238.193523 151.038145 
L 238.573977 150.698789 
L 238.954432 150.013318 
L 239.334886 149.624581 
L 239.715341 149.748981 
L 240.095795 150.903375 
L 240.47625 155.721105 
L 240.856705 169.567296 
L 241.237159 174.566704 
L 241.617614 169.955988 
L 242.378523 158.188342 
L 243.139432 155.499604 
L 243.519886 152.005774 
L 244.280795 147.991497 
L 245.041705 141.260998 
L 245.422159 136.280652 
L 246.183068 123.608504 
L 246.563523 121.747722 
L 246.943977 124.499651 
L 247.324432 128.39186 
L 247.704886 127.641075 
L 248.085341 123.102504 
L 248.465795 121.525485 
L 248.84625 122.133627 
L 249.226705 123.459413 
L 249.607159 125.845986 
L 249.987614 126.107787 
L 250.368068 123.061972 
L 250.748523 125.65874 
L 251.509432 147.113305 
L 251.889886 164.067632 
L 252.270341 169.644673 
L 252.650795 170.343156 
L 253.03125 170.012087 
L 253.411705 170.684814 
L 254.172614 175.781452 
L 254.553068 176.494853 
L 254.933523 175.032267 
L 255.313977 172.897266 
L 255.694432 169.462818 
L 256.074886 169.233015 
L 256.835795 172.804314 
L 257.21625 170.722261 
L 257.977159 157.040777 
L 259.879432 130.859896 
L 260.259886 127.254361 
L 260.640341 129.576757 
L 261.40125 135.693491 
L 261.781705 134.36216 
L 262.542614 116.850771 
L 262.923068 114.694174 
L 263.303523 115.18943 
L 264.444886 119.319781 
L 264.825341 122.208576 
L 265.205795 127.622763 
L 266.347159 168.398793 
L 266.727614 170.408679 
L 267.108068 170.951601 
L 267.488523 170.723925 
L 267.868977 170.78581 
L 269.010341 165.364248 
L 269.390795 162.651916 
L 270.151705 159.461654 
L 270.532159 159.132623 
L 270.912614 159.103644 
L 271.293068 157.495713 
L 272.434432 143.312671 
L 272.814886 141.308902 
L 273.195341 140.848166 
L 273.95625 140.279461 
L 274.336705 139.849219 
L 274.717159 139.14792 
L 275.478068 136.631102 
L 276.619432 125.314427 
L 276.999886 124.63514 
L 277.380341 125.032261 
L 277.760795 126.829328 
L 278.521705 133.190192 
L 280.423977 140.684852 
L 280.804432 143.337629 
L 281.184886 144.766087 
L 281.565341 145.104612 
L 282.32625 144.563721 
L 282.706705 144.593201 
L 283.087159 145.919216 
L 284.228523 150.919266 
L 285.369886 153.810532 
L 285.750341 153.328563 
L 286.130795 152.451538 
L 286.891705 143.029914 
L 287.652614 140.443533 
L 288.033068 139.933613 
L 288.413523 138.979785 
L 289.174432 136.181102 
L 289.554886 137.099147 
L 289.935341 136.60558 
L 290.315795 133.000006 
L 291.076705 120.851182 
L 291.457159 118.96331 
L 291.837614 119.805591 
L 292.218068 121.848197 
L 292.978977 128.697276 
L 293.739886 133.291413 
L 294.120341 137.19923 
L 294.88125 149.192309 
L 295.261705 150.840513 
L 295.642159 155.088676 
L 296.022614 157.433233 
L 296.403068 157.67847 
L 296.783523 157.153913 
L 297.544432 156.592318 
L 298.305341 155.645635 
L 299.06625 157.321614 
L 299.446705 155.614523 
L 299.827159 154.659769 
L 300.588068 144.610219 
L 300.968523 142.921685 
L 301.348977 142.997594 
L 301.729432 143.463192 
L 302.109886 144.170567 
L 302.490341 144.268893 
L 303.631705 139.060987 
L 304.012159 134.890662 
L 304.773068 124.019136 
L 305.153523 122.778341 
L 305.533977 123.159187 
L 305.914432 126.150895 
L 306.675341 136.367125 
L 307.055795 139.021163 
L 307.43625 139.284291 
L 307.816705 140.717088 
L 308.577614 145.395636 
L 308.958068 145.026916 
L 309.338523 147.247138 
L 309.718977 148.805774 
L 310.099432 149.397764 
L 310.479886 149.015675 
L 310.860341 150.218649 
L 311.62125 155.100421 
L 312.001705 155.951481 
L 312.762614 160.036179 
L 313.523523 162.265623 
L 313.903977 160.192267 
L 314.664886 148.297109 
L 315.045341 144.970969 
L 315.425795 143.872833 
L 315.80625 143.763294 
L 316.186705 143.938841 
L 316.567159 142.848576 
L 316.947614 140.344142 
L 317.328068 138.965358 
L 317.708523 137.004186 
L 318.088977 132.888976 
L 318.849886 121.668148 
L 319.230341 119.877908 
L 319.610795 121.818443 
L 319.99125 124.763739 
L 320.752159 133.820083 
L 321.132614 135.658297 
L 321.513068 136.557178 
L 321.893523 139.704107 
L 322.654432 150.126063 
L 323.034886 150.28504 
L 323.415341 153.286975 
L 323.795795 154.830175 
L 324.17625 154.618041 
L 324.556705 153.140341 
L 324.937159 153.617444 
L 325.698068 156.609483 
L 326.078523 157.109372 
L 326.458977 158.928458 
L 327.219886 163.918433 
L 327.600341 165.331517 
L 327.980795 162.729087 
L 329.122159 142.354895 
L 329.883068 140.501644 
L 330.263523 140.101614 
L 330.643977 139.084399 
L 331.024432 138.871816 
L 331.404886 138.236517 
L 331.785341 136.694192 
L 332.165795 132.658103 
L 332.54625 123.903891 
L 332.926705 119.004797 
L 333.307159 118.025042 
L 333.687614 119.784754 
L 334.828977 131.444234 
L 335.589886 135.63868 
L 336.350795 146.48226 
L 336.73125 149.438234 
L 337.111705 154.214044 
L 337.492159 156.890915 
L 337.872614 157.599299 
L 338.633523 154.911844 
L 339.013977 153.908351 
L 340.155341 152.919425 
L 340.535795 152.835209 
L 340.91625 152.203088 
L 341.296705 150.959057 
L 341.677159 148.924241 
L 342.057614 145.712867 
L 342.438068 144.445193 
L 342.818523 144.574984 
L 343.198977 145.22577 
L 343.959886 147.490639 
L 344.340341 147.487692 
L 344.720795 144.589395 
L 345.10125 142.591643 
L 345.481705 139.832214 
L 346.242614 131.00757 
L 346.623068 128.886704 
L 347.003523 128.576773 
L 347.383977 129.966804 
L 347.764432 133.095758 
L 348.144886 137.852242 
L 348.525341 141.010015 
L 348.905795 141.394961 
L 349.666705 141.681678 
L 350.427614 143.28065 
L 351.188523 140.287929 
L 352.329886 142.71068 
L 352.710341 144.204941 
L 353.851705 152.211145 
L 354.232159 153.434861 
L 354.993068 157.579356 
L 355.753977 158.211923 
L 356.134432 153.628918 
L 356.514886 147.417458 
L 356.895341 144.567532 
L 357.275795 143.28814 
L 358.036705 142.344976 
L 358.797614 139.206737 
L 359.178068 139.530805 
L 359.558523 137.796831 
L 359.938977 135.113911 
L 360.699886 121.078659 
L 361.080341 118.966597 
L 361.460795 119.642221 
L 361.84125 121.853613 
L 362.602159 129.94364 
L 362.982614 129.283769 
L 363.363068 130.857851 
L 364.123977 145.268937 
L 364.504432 150.255779 
L 364.884886 151.539434 
L 366.02625 160.324144 
L 366.406705 161.420206 
L 367.167614 165.384021 
L 367.548068 165.320259 
L 367.928523 166.561677 
L 368.689432 170.29949 
L 369.069886 172.207246 
L 369.450341 170.158686 
L 370.972159 147.391144 
L 371.352614 143.009511 
L 371.733068 140.337777 
L 372.493977 136.712426 
L 373.254886 141.685715 
L 373.635341 140.088274 
L 374.015795 135.377328 
L 374.39625 125.710459 
L 374.776705 120.288915 
L 375.157159 119.439565 
L 375.537614 120.567097 
L 375.918068 123.24899 
L 376.298523 124.737922 
L 376.678977 124.007776 
L 377.059432 123.69099 
L 377.439886 128.067605 
L 377.820341 136.19932 
L 378.200795 148.253104 
L 378.200795 148.253104 
" clip-path="url(#p9549d484f4)" style="fill: none; stroke: #ff7f0e; stroke-linecap: square"/>
   </g>
   <g id="patch_19">
    <path d="M 226.399432 185.59875 
L 226.399432 109.99875 
" style="fill: none; stroke: #000000; stroke-width: 0.8; stroke-linejoin: miter; stroke-linecap: square"/>
   </g>
   <g id="patch_20">
    <path d="M 378.58125 185.59875 
L 378.58125 109.99875 
" style="fill: none; stroke: #000000; stroke-width: 0.8; stroke-linejoin: miter; stroke-linecap: square"/>
   </g>
   <g id="patch_21">
    <path d="M 226.399432 185.59875 
L 378.58125 185.59875 
" style="fill: none; stroke: #000000; stroke-width: 0.8; stroke-linejoin: miter; stroke-linecap: square"/>
   </g>
   <g id="patch_22">
    <path d="M 226.399432 109.99875 
L 378.58125 109.99875 
" style="fill: none; stroke: #000000; stroke-width: 0.8; stroke-linejoin: miter; stroke-linecap: square"/>
   </g>
   <g id="text_24">
    <!-- eps. 12 -->
    <g transform="translate(287.773466 103.99875)scale(0.08 -0.08)">
     <use xlink:href="#DejaVuSans-65"/>
     <use xlink:href="#DejaVuSans-70" x="61.523438"/>
     <use xlink:href="#DejaVuSans-73" x="125"/>
     <use xlink:href="#DejaVuSans-2e" x="177.099609"/>
     <use xlink:href="#DejaVuSans-20" x="208.886719"/>
     <use xlink:href="#DejaVuSans-31" x="240.673828"/>
     <use xlink:href="#DejaVuSans-32" x="304.296875"/>
    </g>
   </g>
  </g>
 </g>
 <defs>
  <clipPath id="pee8288d459">
   <rect x="43.78125" y="19.27875" width="152.181818" height="75.6"/>
  </clipPath>
  <clipPath id="p1cebe02607">
   <rect x="226.399432" y="19.27875" width="152.181818" height="75.6"/>
  </clipPath>
  <clipPath id="pd057fcf669">
   <rect x="43.78125" y="109.99875" width="152.181818" height="75.6"/>
  </clipPath>
  <clipPath id="p9549d484f4">
   <rect x="226.399432" y="109.99875" width="152.181818" height="75.6"/>
  </clipPath>
 </defs>
</svg>
