<?xml version="1.0" encoding="utf-8" standalone="no"?>
<!DOCTYPE svg PUBLIC "-//W3C//DTD SVG 1.1//EN"
  "http://www.w3.org/Graphics/SVG/1.1/DTD/svg11.dtd">
<svg xmlns:xlink="http://www.w3.org/1999/xlink" width="403.704687pt" height="223.155pt" viewBox="0 0 403.704687 223.155" xmlns="http://www.w3.org/2000/svg" version="1.1">
 <metadata>
  <rdf:RDF xmlns:dc="http://purl.org/dc/elements/1.1/" xmlns:cc="http://creativecommons.org/ns#" xmlns:rdf="http://www.w3.org/1999/02/22-rdf-syntax-ns#">
   <cc:Work>
    <dc:type rdf:resource="http://purl.org/dc/dcmitype/StillImage"/>
    <dc:date>2023-02-27T21:54:39.903354</dc:date>
    <dc:format>image/svg+xml</dc:format>
    <dc:creator>
     <cc:Agent>
      <dc:title>Matplotlib v3.5.1, https://matplotlib.org/</dc:title>
     </cc:Agent>
    </dc:creator>
   </cc:Work>
  </rdf:RDF>
 </metadata>
 <defs>
  <style type="text/css">*{stroke-linejoin: round; stroke-linecap: butt}</style>
 </defs>
 <g id="figure_1">
  <g id="patch_1">
   <path d="M 0 223.155 
L 403.704687 223.155 
L 403.704687 0 
L 0 0 
z
" style="fill: #ffffff"/>
  </g>
  <g id="axes_1">
   <g id="patch_2">
    <path d="M 52.160938 94.87875 
L 204.342756 94.87875 
L 204.342756 19.27875 
L 52.160938 19.27875 
z
" style="fill: #ffffff"/>
   </g>
   <g id="matplotlib.axis_1">
    <g id="xtick_1">
     <g id="line2d_1">
      <defs>
       <path id="m3395152588" d="M 0 0 
L 0 3.5 
" style="stroke: #000000; stroke-width: 0.8"/>
      </defs>
      <g>
       <use xlink:href="#m3395152588" x="52.160938" y="94.87875" style="stroke: #000000; stroke-width: 0.8"/>
      </g>
     </g>
    </g>
    <g id="xtick_2">
     <g id="line2d_2">
      <g>
       <use xlink:href="#m3395152588" x="90.206392" y="94.87875" style="stroke: #000000; stroke-width: 0.8"/>
      </g>
     </g>
    </g>
    <g id="xtick_3">
     <g id="line2d_3">
      <g>
       <use xlink:href="#m3395152588" x="128.251847" y="94.87875" style="stroke: #000000; stroke-width: 0.8"/>
      </g>
     </g>
    </g>
    <g id="xtick_4">
     <g id="line2d_4">
      <g>
       <use xlink:href="#m3395152588" x="166.297301" y="94.87875" style="stroke: #000000; stroke-width: 0.8"/>
      </g>
     </g>
    </g>
    <g id="xtick_5">
     <g id="line2d_5">
      <g>
       <use xlink:href="#m3395152588" x="204.342756" y="94.87875" style="stroke: #000000; stroke-width: 0.8"/>
      </g>
     </g>
    </g>
   </g>
   <g id="matplotlib.axis_2">
    <g id="ytick_1">
     <g id="line2d_6">
      <defs>
       <path id="m1b472440d3" d="M 0 0 
L -3.5 0 
" style="stroke: #000000; stroke-width: 0.8"/>
      </defs>
      <g>
       <use xlink:href="#m1b472440d3" x="52.160938" y="84.176975" style="stroke: #000000; stroke-width: 0.8"/>
      </g>
     </g>
     <g id="text_1">
      <!-- −0.4 -->
      <g transform="translate(20.878125 87.976194)scale(0.1 -0.1)">
       <defs>
        <path id="DejaVuSans-2212" d="M 678 2272 
L 4684 2272 
L 4684 1741 
L 678 1741 
L 678 2272 
z
" transform="scale(0.015625)"/>
        <path id="DejaVuSans-30" d="M 2034 4250 
Q 1547 4250 1301 3770 
Q 1056 3291 1056 2328 
Q 1056 1369 1301 889 
Q 1547 409 2034 409 
Q 2525 409 2770 889 
Q 3016 1369 3016 2328 
Q 3016 3291 2770 3770 
Q 2525 4250 2034 4250 
z
M 2034 4750 
Q 2819 4750 3233 4129 
Q 3647 3509 3647 2328 
Q 3647 1150 3233 529 
Q 2819 -91 2034 -91 
Q 1250 -91 836 529 
Q 422 1150 422 2328 
Q 422 3509 836 4129 
Q 1250 4750 2034 4750 
z
" transform="scale(0.015625)"/>
        <path id="DejaVuSans-2e" d="M 684 794 
L 1344 794 
L 1344 0 
L 684 0 
L 684 794 
z
" transform="scale(0.015625)"/>
        <path id="DejaVuSans-34" d="M 2419 4116 
L 825 1625 
L 2419 1625 
L 2419 4116 
z
M 2253 4666 
L 3047 4666 
L 3047 1625 
L 3713 1625 
L 3713 1100 
L 3047 1100 
L 3047 0 
L 2419 0 
L 2419 1100 
L 313 1100 
L 313 1709 
L 2253 4666 
z
" transform="scale(0.015625)"/>
       </defs>
       <use xlink:href="#DejaVuSans-2212"/>
       <use xlink:href="#DejaVuSans-30" x="83.789062"/>
       <use xlink:href="#DejaVuSans-2e" x="147.412109"/>
       <use xlink:href="#DejaVuSans-34" x="179.199219"/>
      </g>
     </g>
    </g>
    <g id="ytick_2">
     <g id="line2d_7">
      <g>
       <use xlink:href="#m1b472440d3" x="52.160938" y="53.445967" style="stroke: #000000; stroke-width: 0.8"/>
      </g>
     </g>
     <g id="text_2">
      <!-- −0.2 -->
      <g transform="translate(20.878125 57.245185)scale(0.1 -0.1)">
       <defs>
        <path id="DejaVuSans-32" d="M 1228 531 
L 3431 531 
L 3431 0 
L 469 0 
L 469 531 
Q 828 903 1448 1529 
Q 2069 2156 2228 2338 
Q 2531 2678 2651 2914 
Q 2772 3150 2772 3378 
Q 2772 3750 2511 3984 
Q 2250 4219 1831 4219 
Q 1534 4219 1204 4116 
Q 875 4013 500 3803 
L 500 4441 
Q 881 4594 1212 4672 
Q 1544 4750 1819 4750 
Q 2544 4750 2975 4387 
Q 3406 4025 3406 3419 
Q 3406 3131 3298 2873 
Q 3191 2616 2906 2266 
Q 2828 2175 2409 1742 
Q 1991 1309 1228 531 
z
" transform="scale(0.015625)"/>
       </defs>
       <use xlink:href="#DejaVuSans-2212"/>
       <use xlink:href="#DejaVuSans-30" x="83.789062"/>
       <use xlink:href="#DejaVuSans-2e" x="147.412109"/>
       <use xlink:href="#DejaVuSans-32" x="179.199219"/>
      </g>
     </g>
    </g>
    <g id="ytick_3">
     <g id="line2d_8">
      <g>
       <use xlink:href="#m1b472440d3" x="52.160938" y="22.714958" style="stroke: #000000; stroke-width: 0.8"/>
      </g>
     </g>
     <g id="text_3">
      <!-- 0.0 -->
      <g transform="translate(29.257812 26.514177)scale(0.1 -0.1)">
       <use xlink:href="#DejaVuSans-30"/>
       <use xlink:href="#DejaVuSans-2e" x="63.623047"/>
       <use xlink:href="#DejaVuSans-30" x="95.410156"/>
      </g>
     </g>
    </g>
    <g id="text_4">
     <!-- Entropy -->
     <g transform="translate(14.798437 76.502969)rotate(-90)scale(0.1 -0.1)">
      <defs>
       <path id="DejaVuSans-45" d="M 628 4666 
L 3578 4666 
L 3578 4134 
L 1259 4134 
L 1259 2753 
L 3481 2753 
L 3481 2222 
L 1259 2222 
L 1259 531 
L 3634 531 
L 3634 0 
L 628 0 
L 628 4666 
z
" transform="scale(0.015625)"/>
       <path id="DejaVuSans-6e" d="M 3513 2113 
L 3513 0 
L 2938 0 
L 2938 2094 
Q 2938 2591 2744 2837 
Q 2550 3084 2163 3084 
Q 1697 3084 1428 2787 
Q 1159 2491 1159 1978 
L 1159 0 
L 581 0 
L 581 3500 
L 1159 3500 
L 1159 2956 
Q 1366 3272 1645 3428 
Q 1925 3584 2291 3584 
Q 2894 3584 3203 3211 
Q 3513 2838 3513 2113 
z
" transform="scale(0.015625)"/>
       <path id="DejaVuSans-74" d="M 1172 4494 
L 1172 3500 
L 2356 3500 
L 2356 3053 
L 1172 3053 
L 1172 1153 
Q 1172 725 1289 603 
Q 1406 481 1766 481 
L 2356 481 
L 2356 0 
L 1766 0 
Q 1100 0 847 248 
Q 594 497 594 1153 
L 594 3053 
L 172 3053 
L 172 3500 
L 594 3500 
L 594 4494 
L 1172 4494 
z
" transform="scale(0.015625)"/>
       <path id="DejaVuSans-72" d="M 2631 2963 
Q 2534 3019 2420 3045 
Q 2306 3072 2169 3072 
Q 1681 3072 1420 2755 
Q 1159 2438 1159 1844 
L 1159 0 
L 581 0 
L 581 3500 
L 1159 3500 
L 1159 2956 
Q 1341 3275 1631 3429 
Q 1922 3584 2338 3584 
Q 2397 3584 2469 3576 
Q 2541 3569 2628 3553 
L 2631 2963 
z
" transform="scale(0.015625)"/>
       <path id="DejaVuSans-6f" d="M 1959 3097 
Q 1497 3097 1228 2736 
Q 959 2375 959 1747 
Q 959 1119 1226 758 
Q 1494 397 1959 397 
Q 2419 397 2687 759 
Q 2956 1122 2956 1747 
Q 2956 2369 2687 2733 
Q 2419 3097 1959 3097 
z
M 1959 3584 
Q 2709 3584 3137 3096 
Q 3566 2609 3566 1747 
Q 3566 888 3137 398 
Q 2709 -91 1959 -91 
Q 1206 -91 779 398 
Q 353 888 353 1747 
Q 353 2609 779 3096 
Q 1206 3584 1959 3584 
z
" transform="scale(0.015625)"/>
       <path id="DejaVuSans-70" d="M 1159 525 
L 1159 -1331 
L 581 -1331 
L 581 3500 
L 1159 3500 
L 1159 2969 
Q 1341 3281 1617 3432 
Q 1894 3584 2278 3584 
Q 2916 3584 3314 3078 
Q 3713 2572 3713 1747 
Q 3713 922 3314 415 
Q 2916 -91 2278 -91 
Q 1894 -91 1617 61 
Q 1341 213 1159 525 
z
M 3116 1747 
Q 3116 2381 2855 2742 
Q 2594 3103 2138 3103 
Q 1681 3103 1420 2742 
Q 1159 2381 1159 1747 
Q 1159 1113 1420 752 
Q 1681 391 2138 391 
Q 2594 391 2855 752 
Q 3116 1113 3116 1747 
z
" transform="scale(0.015625)"/>
       <path id="DejaVuSans-79" d="M 2059 -325 
Q 1816 -950 1584 -1140 
Q 1353 -1331 966 -1331 
L 506 -1331 
L 506 -850 
L 844 -850 
Q 1081 -850 1212 -737 
Q 1344 -625 1503 -206 
L 1606 56 
L 191 3500 
L 800 3500 
L 1894 763 
L 2988 3500 
L 3597 3500 
L 2059 -325 
z
" transform="scale(0.015625)"/>
      </defs>
      <use xlink:href="#DejaVuSans-45"/>
      <use xlink:href="#DejaVuSans-6e" x="63.183594"/>
      <use xlink:href="#DejaVuSans-74" x="126.5625"/>
      <use xlink:href="#DejaVuSans-72" x="165.771484"/>
      <use xlink:href="#DejaVuSans-6f" x="204.634766"/>
      <use xlink:href="#DejaVuSans-70" x="265.816406"/>
      <use xlink:href="#DejaVuSans-79" x="329.292969"/>
     </g>
    </g>
   </g>
   <g id="line2d_9">
    <path d="M 52.160938 34.618304 
L 53.682756 34.694763 
L 56.726392 34.614378 
L 58.24821 34.662464 
L 61.291847 34.683829 
L 63.194119 34.648376 
L 65.096392 34.573869 
L 67.759574 34.687865 
L 71.944574 34.589081 
L 73.846847 34.649724 
L 75.368665 34.696989 
L 77.270938 34.596673 
L 78.792756 34.60676 
L 81.075483 34.72091 
L 84.880028 34.582905 
L 90.586847 34.625712 
L 92.489119 34.599917 
L 94.771847 34.699546 
L 98.576392 34.585185 
L 103.902756 34.649477 
L 105.805028 34.551 
L 109.229119 34.630329 
L 111.131392 34.570028 
L 113.414119 34.63491 
L 121.403665 34.647255 
L 122.164574 34.731814 
L 129.012756 34.584445 
L 130.534574 34.692286 
L 133.57821 34.678489 
L 135.100028 34.741629 
L 137.002301 34.631434 
L 138.143665 34.569127 
L 143.470028 34.645267 
L 145.372301 34.595241 
L 147.274574 34.585836 
L 149.937756 34.645824 
L 152.600938 34.597379 
L 164.014574 34.646874 
L 165.916847 34.568811 
L 167.438665 34.579942 
L 169.721392 34.625304 
L 171.623665 34.695825 
L 174.667301 34.585278 
L 177.330483 34.66657 
L 182.276392 34.507575 
L 185.320028 34.707719 
L 187.98321 34.660173 
L 190.265938 34.712208 
L 193.690028 34.573427 
L 200.157756 34.569109 
L 201.679574 34.58915 
L 203.962301 34.669977 
L 203.962301 34.669977 
" clip-path="url(#pc771a09530)" style="fill: none; stroke: #1f77b4; stroke-linecap: square"/>
   </g>
   <g id="line2d_10">
    <path d="M 52.160938 34.618304 
L 53.682756 34.694498 
L 56.726392 34.606942 
L 58.24821 34.657757 
L 60.911392 34.684855 
L 63.194119 34.641014 
L 64.715938 34.562287 
L 68.900937 34.613433 
L 70.042301 34.584462 
L 75.749119 34.692926 
L 77.270938 34.610114 
L 78.792756 34.565686 
L 82.216847 34.663725 
L 84.499574 34.591102 
L 96.293665 34.611932 
L 97.435028 34.583521 
L 100.09821 34.558463 
L 101.239574 34.577855 
L 103.141847 34.698341 
L 105.044119 34.577306 
L 106.565938 34.599078 
L 109.229119 34.702714 
L 112.272756 34.589634 
L 115.696847 34.620477 
L 117.979574 34.687043 
L 119.881847 34.654861 
L 121.784119 34.716296 
L 128.251847 34.565733 
L 130.154119 34.647906 
L 136.241392 34.646601 
L 138.524119 34.579024 
L 141.187301 34.547509 
L 154.122756 34.553514 
L 155.264119 34.5164 
L 157.927301 34.677055 
L 168.960483 34.587775 
L 170.862756 34.687863 
L 186.461392 34.547887 
L 187.98321 34.557888 
L 190.265938 34.688688 
L 193.309574 34.600231 
L 198.255483 34.684732 
L 199.396847 34.648408 
L 201.299119 34.57511 
L 203.962301 34.665711 
L 203.962301 34.665711 
" clip-path="url(#pc771a09530)" style="fill: none; stroke: #ff7f0e; stroke-linecap: square"/>
   </g>
   <g id="patch_3">
    <path d="M 52.160938 94.87875 
L 52.160938 19.27875 
" style="fill: none; stroke: #000000; stroke-width: 0.8; stroke-linejoin: miter; stroke-linecap: square"/>
   </g>
   <g id="patch_4">
    <path d="M 204.342756 94.87875 
L 204.342756 19.27875 
" style="fill: none; stroke: #000000; stroke-width: 0.8; stroke-linejoin: miter; stroke-linecap: square"/>
   </g>
   <g id="patch_5">
    <path d="M 52.160938 94.87875 
L 204.342756 94.87875 
" style="fill: none; stroke: #000000; stroke-width: 0.8; stroke-linejoin: miter; stroke-linecap: square"/>
   </g>
   <g id="patch_6">
    <path d="M 52.160938 19.27875 
L 204.342756 19.27875 
" style="fill: none; stroke: #000000; stroke-width: 0.8; stroke-linejoin: miter; stroke-linecap: square"/>
   </g>
   <g id="text_5">
    <!-- eps. 0 -->
    <g transform="translate(116.079972 13.27875)scale(0.08 -0.08)">
     <defs>
      <path id="DejaVuSans-65" d="M 3597 1894 
L 3597 1613 
L 953 1613 
Q 991 1019 1311 708 
Q 1631 397 2203 397 
Q 2534 397 2845 478 
Q 3156 559 3463 722 
L 3463 178 
Q 3153 47 2828 -22 
Q 2503 -91 2169 -91 
Q 1331 -91 842 396 
Q 353 884 353 1716 
Q 353 2575 817 3079 
Q 1281 3584 2069 3584 
Q 2775 3584 3186 3129 
Q 3597 2675 3597 1894 
z
M 3022 2063 
Q 3016 2534 2758 2815 
Q 2500 3097 2075 3097 
Q 1594 3097 1305 2825 
Q 1016 2553 972 2059 
L 3022 2063 
z
" transform="scale(0.015625)"/>
      <path id="DejaVuSans-73" d="M 2834 3397 
L 2834 2853 
Q 2591 2978 2328 3040 
Q 2066 3103 1784 3103 
Q 1356 3103 1142 2972 
Q 928 2841 928 2578 
Q 928 2378 1081 2264 
Q 1234 2150 1697 2047 
L 1894 2003 
Q 2506 1872 2764 1633 
Q 3022 1394 3022 966 
Q 3022 478 2636 193 
Q 2250 -91 1575 -91 
Q 1294 -91 989 -36 
Q 684 19 347 128 
L 347 722 
Q 666 556 975 473 
Q 1284 391 1588 391 
Q 1994 391 2212 530 
Q 2431 669 2431 922 
Q 2431 1156 2273 1281 
Q 2116 1406 1581 1522 
L 1381 1569 
Q 847 1681 609 1914 
Q 372 2147 372 2553 
Q 372 3047 722 3315 
Q 1072 3584 1716 3584 
Q 2034 3584 2315 3537 
Q 2597 3491 2834 3397 
z
" transform="scale(0.015625)"/>
      <path id="DejaVuSans-20" transform="scale(0.015625)"/>
     </defs>
     <use xlink:href="#DejaVuSans-65"/>
     <use xlink:href="#DejaVuSans-70" x="61.523438"/>
     <use xlink:href="#DejaVuSans-73" x="125"/>
     <use xlink:href="#DejaVuSans-2e" x="177.099609"/>
     <use xlink:href="#DejaVuSans-20" x="208.886719"/>
     <use xlink:href="#DejaVuSans-30" x="240.673828"/>
    </g>
   </g>
   <g id="legend_1">
    <g id="patch_7">
     <path d="M 139.182756 32.885625 
L 200.142756 32.885625 
Q 201.342756 32.885625 201.342756 31.685625 
L 201.342756 23.47875 
Q 201.342756 22.27875 200.142756 22.27875 
L 139.182756 22.27875 
Q 137.982756 22.27875 137.982756 23.47875 
L 137.982756 31.685625 
Q 137.982756 32.885625 139.182756 32.885625 
z
" style="fill: #ffffff; opacity: 0.8; stroke: #cccccc; stroke-linejoin: miter"/>
    </g>
    <g id="line2d_11">
     <path d="M 140.382756 27.137813 
L 146.382756 27.137813 
L 152.382756 27.137813 
" style="fill: none; stroke: #1f77b4; stroke-linecap: square"/>
    </g>
    <g id="text_6">
     <!-- $\tau_0$ -->
     <g transform="translate(157.182756 29.237813)scale(0.06 -0.06)">
      <defs>
       <path id="DejaVuSans-Oblique-3c4" d="M 2103 638 
Q 2188 488 2525 488 
L 2800 488 
L 2706 0 
L 2363 0 
Q 1800 0 1600 300 
Q 1403 606 1534 1269 
L 1856 2925 
L 541 2925 
L 653 3500 
L 3881 3500 
L 3769 2925 
L 2444 2925 
L 2113 1234 
Q 2025 781 2103 638 
z
" transform="scale(0.015625)"/>
      </defs>
      <use xlink:href="#DejaVuSans-Oblique-3c4" transform="translate(0 0.3125)"/>
      <use xlink:href="#DejaVuSans-30" transform="translate(60.205078 -16.09375)scale(0.7)"/>
     </g>
    </g>
    <g id="line2d_12">
     <path d="M 175.662756 27.137813 
L 181.662756 27.137813 
L 187.662756 27.137813 
" style="fill: none; stroke: #ff7f0e; stroke-linecap: square"/>
    </g>
    <g id="text_7">
     <!-- $\tau_1$ -->
     <g transform="translate(192.462756 29.237813)scale(0.06 -0.06)">
      <defs>
       <path id="DejaVuSans-31" d="M 794 531 
L 1825 531 
L 1825 4091 
L 703 3866 
L 703 4441 
L 1819 4666 
L 2450 4666 
L 2450 531 
L 3481 531 
L 3481 0 
L 794 0 
L 794 531 
z
" transform="scale(0.015625)"/>
      </defs>
      <use xlink:href="#DejaVuSans-Oblique-3c4" transform="translate(0 0.3125)"/>
      <use xlink:href="#DejaVuSans-31" transform="translate(60.205078 -16.09375)scale(0.7)"/>
     </g>
    </g>
   </g>
  </g>
  <g id="axes_2">
   <g id="patch_8">
    <path d="M 234.779119 94.87875 
L 386.960937 94.87875 
L 386.960937 19.27875 
L 234.779119 19.27875 
z
" style="fill: #ffffff"/>
   </g>
   <g id="matplotlib.axis_3">
    <g id="xtick_6">
     <g id="line2d_13">
      <g>
       <use xlink:href="#m3395152588" x="234.779119" y="94.87875" style="stroke: #000000; stroke-width: 0.8"/>
      </g>
     </g>
    </g>
    <g id="xtick_7">
     <g id="line2d_14">
      <g>
       <use xlink:href="#m3395152588" x="272.824574" y="94.87875" style="stroke: #000000; stroke-width: 0.8"/>
      </g>
     </g>
    </g>
    <g id="xtick_8">
     <g id="line2d_15">
      <g>
       <use xlink:href="#m3395152588" x="310.870028" y="94.87875" style="stroke: #000000; stroke-width: 0.8"/>
      </g>
     </g>
    </g>
    <g id="xtick_9">
     <g id="line2d_16">
      <g>
       <use xlink:href="#m3395152588" x="348.915483" y="94.87875" style="stroke: #000000; stroke-width: 0.8"/>
      </g>
     </g>
    </g>
    <g id="xtick_10">
     <g id="line2d_17">
      <g>
       <use xlink:href="#m3395152588" x="386.960937" y="94.87875" style="stroke: #000000; stroke-width: 0.8"/>
      </g>
     </g>
    </g>
   </g>
   <g id="matplotlib.axis_4">
    <g id="ytick_4">
     <g id="line2d_18">
      <g>
       <use xlink:href="#m1b472440d3" x="234.779119" y="84.176975" style="stroke: #000000; stroke-width: 0.8"/>
      </g>
     </g>
    </g>
    <g id="ytick_5">
     <g id="line2d_19">
      <g>
       <use xlink:href="#m1b472440d3" x="234.779119" y="53.445967" style="stroke: #000000; stroke-width: 0.8"/>
      </g>
     </g>
    </g>
    <g id="ytick_6">
     <g id="line2d_20">
      <g>
       <use xlink:href="#m1b472440d3" x="234.779119" y="22.714958" style="stroke: #000000; stroke-width: 0.8"/>
      </g>
     </g>
    </g>
   </g>
   <g id="line2d_21">
    <path d="M 234.779119 44.127214 
L 235.159574 42.596723 
L 235.920483 36.224806 
L 236.300937 34.438353 
L 236.681392 33.205675 
L 237.061847 32.625649 
L 237.442301 33.104183 
L 238.20321 35.947094 
L 238.583665 36.172762 
L 238.964119 35.270123 
L 239.344574 31.840568 
L 239.725028 31.644263 
L 240.866392 33.948238 
L 241.627301 34.717744 
L 242.007756 35.691982 
L 243.529574 41.708453 
L 243.910028 42.212632 
L 244.290483 42.328426 
L 244.670937 40.668446 
L 245.431847 30.382286 
L 245.812301 28.482414 
L 246.192756 29.708846 
L 246.57321 32.818056 
L 246.953665 37.293145 
L 247.334119 40.181514 
L 247.714574 42.08145 
L 248.095028 43.16591 
L 248.475483 43.619401 
L 248.855937 42.318293 
L 249.997301 34.00775 
L 250.377756 32.705078 
L 250.75821 31.867499 
L 251.138665 32.072666 
L 251.519119 33.193448 
L 251.899574 34.8288 
L 252.280028 35.63586 
L 252.660483 35.499551 
L 253.040937 32.300612 
L 253.421392 32.348154 
L 254.562756 35.142513 
L 254.94321 35.341769 
L 255.323665 35.174691 
L 255.704119 35.5746 
L 256.465028 38.15777 
L 257.225937 41.310808 
L 257.606392 41.883478 
L 257.986847 42.057169 
L 258.367301 39.765801 
L 259.12821 30.36024 
L 259.508665 28.410417 
L 259.889119 29.826184 
L 261.030483 40.750028 
L 261.791392 43.726218 
L 262.171847 44.758231 
L 262.552301 43.631163 
L 262.932756 41.35129 
L 263.693665 36.158708 
L 264.074119 35.02702 
L 264.454574 34.244582 
L 264.835028 34.280801 
L 265.215483 35.169679 
L 265.595937 36.395634 
L 265.976392 36.636649 
L 266.356847 36.544579 
L 266.737301 34.298035 
L 267.117756 33.176247 
L 267.49821 33.600816 
L 268.639574 35.232612 
L 269.400483 36.169545 
L 270.922301 41.881618 
L 271.302756 42.522832 
L 271.68321 42.474335 
L 272.063665 41.11 
L 272.444119 36.973322 
L 272.824574 31.550871 
L 273.205028 28.606454 
L 273.585483 29.544232 
L 273.965937 32.119682 
L 274.726847 39.736907 
L 275.107301 41.960922 
L 275.487756 43.450108 
L 275.86821 44.26061 
L 276.248665 43.27582 
L 276.629119 41.065795 
L 277.390028 35.757615 
L 277.770483 34.527091 
L 278.150937 33.828687 
L 278.531392 33.867632 
L 279.672756 36.432511 
L 280.05321 36.55047 
L 280.814119 32.422528 
L 281.194574 32.492172 
L 281.955483 33.7817 
L 283.096847 35.440094 
L 284.23821 39.614517 
L 284.618665 41.160037 
L 284.999119 41.947362 
L 285.379574 42.208473 
L 285.760028 41.278444 
L 286.140483 37.76244 
L 286.901392 29.369167 
L 287.281847 29.471855 
L 287.662301 31.353025 
L 288.803665 41.244184 
L 289.184119 43.098532 
L 289.564574 43.891857 
L 289.945028 43.452677 
L 290.325483 41.859033 
L 291.086392 37.410021 
L 291.466847 36.366085 
L 291.847301 35.767153 
L 292.227756 35.667381 
L 292.988665 37.149557 
L 293.369119 37.305076 
L 293.749574 37.077402 
L 294.130028 36.601872 
L 294.510483 34.159466 
L 294.890937 32.804269 
L 295.271392 32.850289 
L 296.032301 33.987546 
L 297.554119 38.158902 
L 299.075937 42.806522 
L 299.456392 42.799314 
L 299.836847 41.95993 
L 300.217301 40.511402 
L 300.597756 37.13758 
L 300.97821 32.642063 
L 301.358665 29.644044 
L 301.739119 30.337337 
L 302.500028 36.677285 
L 303.260937 41.97209 
L 303.641392 43.145597 
L 304.021847 43.057938 
L 304.402301 42.104705 
L 305.16321 38.358371 
L 305.543665 36.360284 
L 306.304574 34.171693 
L 306.685028 33.886092 
L 307.065483 34.652037 
L 307.826392 37.791348 
L 308.206847 38.122981 
L 308.587301 36.804457 
L 308.967756 32.489003 
L 309.34821 31.457783 
L 309.728665 32.086151 
L 310.489574 33.62452 
L 310.870028 33.98321 
L 311.250483 34.670765 
L 312.011392 37.903556 
L 312.772301 42.465777 
L 313.152756 43.770079 
L 313.53321 43.802377 
L 313.913665 41.93492 
L 315.055028 28.404089 
L 315.435483 28.833832 
L 315.815937 31.4374 
L 316.576847 39.476155 
L 316.957301 41.210476 
L 317.71821 43.349258 
L 318.098665 43.875094 
L 318.479119 41.986914 
L 319.240028 35.855815 
L 319.620483 34.874775 
L 320.000937 34.419767 
L 320.381392 34.990836 
L 320.761847 36.129518 
L 321.522756 37.09322 
L 321.90321 36.564676 
L 322.283665 33.764313 
L 322.664119 32.91872 
L 323.425028 33.816535 
L 324.566392 35.466157 
L 324.946847 36.510286 
L 326.468665 42.706422 
L 326.849119 43.022596 
L 327.229574 42.309463 
L 327.610028 40.422652 
L 328.370937 30.655014 
L 328.751392 29.315256 
L 329.131847 30.936953 
L 330.653665 42.17574 
L 331.034119 43.0345 
L 331.414574 42.713721 
L 331.795028 41.37232 
L 332.555937 36.795578 
L 332.936392 35.562004 
L 333.697301 34.305065 
L 334.077756 34.253676 
L 334.838665 36.359823 
L 335.219119 36.648652 
L 335.599574 36.332882 
L 335.980028 33.588336 
L 336.360483 31.831755 
L 336.740937 32.34898 
L 338.262756 35.227355 
L 338.64321 35.769104 
L 339.404119 38.622228 
L 340.165028 42.260527 
L 340.545483 43.312537 
L 340.925937 43.563021 
L 341.306392 43.095702 
L 341.686847 41.141075 
L 342.447756 30.338135 
L 342.82821 28.574486 
L 343.208665 30.013794 
L 344.730483 41.967607 
L 345.110937 43.226662 
L 345.491392 43.889349 
L 345.871847 42.969162 
L 347.01321 35.090466 
L 347.393665 34.19978 
L 347.774119 33.879365 
L 348.154574 34.572904 
L 348.535028 35.766627 
L 348.915483 36.465581 
L 349.295937 36.741336 
L 349.676392 36.42011 
L 350.056847 33.278426 
L 350.437301 32.022953 
L 351.19821 33.171219 
L 351.578665 33.928698 
L 352.339574 35.07028 
L 352.720028 35.881474 
L 354.241847 41.915255 
L 354.622301 42.630798 
L 355.002756 42.164997 
L 355.38321 40.216629 
L 356.144119 31.047499 
L 356.524574 29.042118 
L 356.905028 30.182654 
L 357.285483 32.787005 
L 358.046392 39.772516 
L 358.426847 42.175924 
L 358.807301 43.741723 
L 359.187756 43.933566 
L 359.56821 42.989092 
L 360.709574 37.642255 
L 361.090028 36.68312 
L 361.470483 36.144472 
L 361.850937 35.915994 
L 362.611847 37.646906 
L 363.372756 38.127566 
L 364.133665 34.050653 
L 364.514119 33.929616 
L 365.275028 34.696779 
L 365.655483 35.154129 
L 366.035937 35.43446 
L 366.416392 36.452276 
L 367.177301 39.747782 
L 367.93821 43.643448 
L 368.318665 44.032643 
L 368.699119 43.212632 
L 369.079574 40.645543 
L 369.840483 30.398695 
L 370.220937 28.993033 
L 370.601392 30.575514 
L 371.742756 40.633141 
L 372.503665 43.750039 
L 372.884119 44.613304 
L 373.264574 43.554997 
L 374.405937 36.781036 
L 374.786392 35.991435 
L 375.166847 35.856618 
L 375.927756 37.507883 
L 376.30821 37.789142 
L 376.688665 37.799009 
L 377.069119 37.170509 
L 377.830028 32.916622 
L 378.210483 32.660905 
L 378.590937 32.921537 
L 378.971392 33.443843 
L 379.732301 35.216351 
L 381.634574 41.910507 
L 382.015028 42.187884 
L 382.395483 41.522161 
L 382.775937 40.130564 
L 383.156392 37.305983 
L 383.536847 33.395307 
L 383.917301 30.687344 
L 384.297756 30.48982 
L 384.67821 32.190983 
L 385.819574 39.823961 
L 386.200028 41.175081 
L 386.580483 41.607546 
L 386.580483 41.607546 
" clip-path="url(#p4089c6e142)" style="fill: none; stroke: #1f77b4; stroke-linecap: square"/>
   </g>
   <g id="line2d_22">
    <path d="M 234.779119 44.127214 
L 235.159574 42.596355 
L 235.920483 36.225493 
L 236.300937 34.431295 
L 236.681392 33.212615 
L 237.061847 32.639185 
L 237.442301 33.127741 
L 238.20321 35.969977 
L 238.583665 36.232193 
L 238.964119 35.284105 
L 239.344574 31.853252 
L 239.725028 31.720602 
L 240.866392 34.030744 
L 241.627301 34.634343 
L 242.007756 35.665577 
L 243.149119 40.494127 
L 243.529574 41.665655 
L 243.910028 42.110166 
L 244.290483 42.110769 
L 244.670937 39.830856 
L 245.431847 29.551973 
L 245.812301 28.655591 
L 246.192756 30.121397 
L 246.57321 33.36759 
L 246.953665 37.941521 
L 247.334119 40.630653 
L 247.714574 42.466996 
L 248.095028 43.49451 
L 248.475483 43.760974 
L 248.855937 42.087707 
L 249.616847 35.910585 
L 249.997301 34.292245 
L 250.377756 33.344516 
L 250.75821 32.827212 
L 251.138665 33.4602 
L 251.899574 35.917893 
L 252.280028 35.933204 
L 252.660483 34.812857 
L 253.040937 32.130675 
L 253.421392 32.463291 
L 254.562756 34.65458 
L 255.323665 35.533225 
L 255.704119 36.240448 
L 257.225937 41.678445 
L 257.606392 42.18683 
L 257.986847 42.22074 
L 258.367301 40.690963 
L 259.508665 28.557071 
L 259.889119 29.639271 
L 260.269574 32.513873 
L 261.030483 39.760014 
L 261.791392 43.367275 
L 262.171847 44.186049 
L 262.552301 43.048009 
L 264.074119 34.628088 
L 264.454574 33.584153 
L 264.835028 32.886641 
L 265.215483 33.246737 
L 265.976392 35.909531 
L 266.356847 36.222553 
L 266.737301 35.727012 
L 267.117756 32.443641 
L 267.49821 32.331313 
L 268.259119 34.077168 
L 268.639574 34.71911 
L 269.400483 35.439201 
L 269.780937 36.01048 
L 270.541847 38.950714 
L 270.922301 40.869642 
L 271.302756 42.1075 
L 271.68321 42.754138 
L 272.063665 42.839377 
L 272.444119 41.078582 
L 273.585483 28.444437 
L 273.965937 29.86955 
L 275.107301 40.724338 
L 275.86821 43.415965 
L 276.248665 44.220189 
L 276.629119 43.253992 
L 277.770483 34.877592 
L 278.531392 33.072217 
L 278.911847 33.32646 
L 279.672756 35.803121 
L 280.05321 36.141221 
L 280.433665 35.964438 
L 280.814119 33.331986 
L 281.194574 32.217576 
L 283.096847 35.779382 
L 283.477301 36.142212 
L 284.618665 39.873796 
L 284.999119 41.447572 
L 285.379574 42.224053 
L 285.760028 42.606289 
L 286.140483 41.778943 
L 286.520937 39.162223 
L 287.281847 29.627274 
L 287.662301 28.72609 
L 288.042756 30.896112 
L 288.803665 39.021249 
L 289.184119 41.580032 
L 289.945028 44.663212 
L 290.325483 44.403453 
L 290.705937 42.633869 
L 291.466847 37.405617 
L 291.847301 35.802914 
L 292.60821 33.718245 
L 292.988665 33.731038 
L 293.749574 36.347604 
L 294.130028 36.791286 
L 294.510483 36.786437 
L 294.890937 33.772742 
L 295.271392 32.665655 
L 296.79321 35.273447 
L 297.554119 36.276709 
L 298.315028 39.370548 
L 298.695483 41.402643 
L 299.075937 42.799347 
L 299.456392 43.438305 
L 299.836847 43.166461 
L 300.217301 40.939741 
L 300.97821 30.140073 
L 301.358665 28.709499 
L 301.739119 29.908502 
L 302.119574 33.305079 
L 302.500028 38.397974 
L 302.880483 41.211999 
L 303.260937 42.938617 
L 303.641392 43.957656 
L 304.021847 44.520966 
L 304.402301 42.984801 
L 304.782756 40.305529 
L 305.16321 36.597351 
L 305.543665 34.690674 
L 305.924119 33.767131 
L 306.304574 33.646304 
L 307.445937 36.441361 
L 307.826392 36.490432 
L 308.206847 33.635377 
L 308.587301 32.455205 
L 309.728665 34.427587 
L 310.109119 34.789806 
L 310.489574 34.975316 
L 310.870028 35.511692 
L 311.630937 38.136558 
L 312.391847 41.336637 
L 312.772301 41.927675 
L 313.152756 42.135326 
L 313.53321 40.662879 
L 313.913665 36.646157 
L 314.294119 31.383195 
L 314.674574 28.623843 
L 315.055028 29.942565 
L 315.435483 32.991828 
L 316.196392 40.908465 
L 316.576847 42.956009 
L 316.957301 44.300884 
L 317.337756 44.51695 
L 317.71821 43.256983 
L 318.859574 35.594553 
L 319.620483 33.635922 
L 320.000937 33.751684 
L 320.381392 34.723498 
L 320.761847 36.049584 
L 321.142301 36.583537 
L 321.522756 36.328379 
L 321.90321 33.959594 
L 322.283665 32.381309 
L 323.044574 34.109313 
L 323.805483 35.564364 
L 324.185937 36.079975 
L 324.566392 36.261059 
L 325.327301 38.743771 
L 326.08821 42.071473 
L 326.468665 42.973032 
L 326.849119 43.087697 
L 327.229574 42.042217 
L 327.610028 38.642044 
L 328.370937 28.855853 
L 328.751392 29.259637 
L 329.131847 31.700699 
L 329.892756 40.538906 
L 330.27321 42.852377 
L 330.653665 44.391806 
L 331.034119 45.065544 
L 331.414574 44.016473 
L 331.795028 41.803846 
L 332.555937 35.90496 
L 332.936392 34.83651 
L 333.316847 34.342802 
L 333.697301 34.625814 
L 334.45821 36.45777 
L 334.838665 36.552377 
L 335.219119 36.201465 
L 335.599574 33.553245 
L 335.980028 31.803584 
L 336.740937 32.816988 
L 337.882301 35.008242 
L 338.262756 35.820551 
L 340.165028 41.84637 
L 340.545483 42.277613 
L 340.925937 41.676618 
L 341.306392 39.906172 
L 342.067301 30.929683 
L 342.447756 28.933095 
L 342.82821 30.458639 
L 344.350028 42.644659 
L 344.730483 43.865097 
L 345.110937 43.555245 
L 345.491392 42.274616 
L 346.632756 35.884466 
L 347.01321 34.873822 
L 347.393665 34.185243 
L 347.774119 33.92321 
L 348.154574 34.479297 
L 348.915483 36.702229 
L 349.295937 36.73872 
L 349.676392 36.04865 
L 350.056847 32.633342 
L 350.437301 31.814192 
L 352.339574 35.675547 
L 352.720028 36.517995 
L 354.241847 42.920659 
L 354.622301 43.551471 
L 355.002756 43.461515 
L 355.38321 42.206491 
L 355.763665 38.57292 
L 356.144119 32.594997 
L 356.524574 28.692477 
L 356.905028 28.959301 
L 357.285483 31.545585 
L 358.046392 39.84971 
L 358.426847 42.124564 
L 359.187756 44.829859 
L 359.56821 44.046343 
L 359.948665 41.737251 
L 360.709574 35.781102 
L 361.470483 33.326496 
L 361.850937 33.10602 
L 362.231392 33.924197 
L 362.611847 35.50686 
L 362.992301 36.579665 
L 363.372756 36.61524 
L 364.133665 31.463184 
L 364.894574 32.716265 
L 365.655483 34.191886 
L 366.035937 34.318014 
L 366.416392 34.889907 
L 367.177301 37.886397 
L 367.93821 41.2663 
L 368.318665 42.04079 
L 368.699119 42.336438 
L 369.079574 41.80172 
L 369.460028 38.210918 
L 369.840483 32.45777 
L 370.220937 28.68494 
L 370.601392 28.820439 
L 370.981847 31.005784 
L 371.742756 39.035095 
L 372.12321 41.3019 
L 372.884119 43.570826 
L 373.264574 43.547248 
L 373.645028 41.447541 
L 374.405937 35.354366 
L 375.166847 33.171613 
L 375.547301 33.197601 
L 375.927756 34.133142 
L 376.30821 35.478946 
L 376.688665 36.150855 
L 377.069119 36.190054 
L 377.449574 33.876432 
L 377.830028 32.595852 
L 378.971392 34.561497 
L 380.112756 35.698557 
L 380.873665 38.213006 
L 382.015028 42.410634 
L 382.395483 42.526933 
L 382.775937 41.76662 
L 383.156392 39.150514 
L 383.917301 29.240729 
L 384.297756 29.390668 
L 384.67821 31.819466 
L 385.439119 39.689801 
L 385.819574 42.13333 
L 386.200028 43.782214 
L 386.580483 44.679175 
L 386.580483 44.679175 
" clip-path="url(#p4089c6e142)" style="fill: none; stroke: #ff7f0e; stroke-linecap: square"/>
   </g>
   <g id="patch_9">
    <path d="M 234.779119 94.87875 
L 234.779119 19.27875 
" style="fill: none; stroke: #000000; stroke-width: 0.8; stroke-linejoin: miter; stroke-linecap: square"/>
   </g>
   <g id="patch_10">
    <path d="M 386.960937 94.87875 
L 386.960937 19.27875 
" style="fill: none; stroke: #000000; stroke-width: 0.8; stroke-linejoin: miter; stroke-linecap: square"/>
   </g>
   <g id="patch_11">
    <path d="M 234.779119 94.87875 
L 386.960937 94.87875 
" style="fill: none; stroke: #000000; stroke-width: 0.8; stroke-linejoin: miter; stroke-linecap: square"/>
   </g>
   <g id="patch_12">
    <path d="M 234.779119 19.27875 
L 386.960937 19.27875 
" style="fill: none; stroke: #000000; stroke-width: 0.8; stroke-linejoin: miter; stroke-linecap: square"/>
   </g>
   <g id="text_8">
    <!-- eps. 4 -->
    <g transform="translate(298.698153 13.27875)scale(0.08 -0.08)">
     <use xlink:href="#DejaVuSans-65"/>
     <use xlink:href="#DejaVuSans-70" x="61.523438"/>
     <use xlink:href="#DejaVuSans-73" x="125"/>
     <use xlink:href="#DejaVuSans-2e" x="177.099609"/>
     <use xlink:href="#DejaVuSans-20" x="208.886719"/>
     <use xlink:href="#DejaVuSans-34" x="240.673828"/>
    </g>
   </g>
  </g>
  <g id="axes_3">
   <g id="patch_13">
    <path d="M 52.160938 185.59875 
L 204.342756 185.59875 
L 204.342756 109.99875 
L 52.160938 109.99875 
z
" style="fill: #ffffff"/>
   </g>
   <g id="matplotlib.axis_5">
    <g id="xtick_11">
     <g id="line2d_23">
      <g>
       <use xlink:href="#m3395152588" x="52.160938" y="185.59875" style="stroke: #000000; stroke-width: 0.8"/>
      </g>
     </g>
     <g id="text_9">
      <!-- 0 -->
      <g transform="translate(48.979688 200.197188)scale(0.1 -0.1)">
       <use xlink:href="#DejaVuSans-30"/>
      </g>
     </g>
    </g>
    <g id="xtick_12">
     <g id="line2d_24">
      <g>
       <use xlink:href="#m3395152588" x="90.206392" y="185.59875" style="stroke: #000000; stroke-width: 0.8"/>
      </g>
     </g>
     <g id="text_10">
      <!-- 100 -->
      <g transform="translate(80.662642 200.197188)scale(0.1 -0.1)">
       <use xlink:href="#DejaVuSans-31"/>
       <use xlink:href="#DejaVuSans-30" x="63.623047"/>
       <use xlink:href="#DejaVuSans-30" x="127.246094"/>
      </g>
     </g>
    </g>
    <g id="xtick_13">
     <g id="line2d_25">
      <g>
       <use xlink:href="#m3395152588" x="128.251847" y="185.59875" style="stroke: #000000; stroke-width: 0.8"/>
      </g>
     </g>
     <g id="text_11">
      <!-- 200 -->
      <g transform="translate(118.708097 200.197188)scale(0.1 -0.1)">
       <use xlink:href="#DejaVuSans-32"/>
       <use xlink:href="#DejaVuSans-30" x="63.623047"/>
       <use xlink:href="#DejaVuSans-30" x="127.246094"/>
      </g>
     </g>
    </g>
    <g id="xtick_14">
     <g id="line2d_26">
      <g>
       <use xlink:href="#m3395152588" x="166.297301" y="185.59875" style="stroke: #000000; stroke-width: 0.8"/>
      </g>
     </g>
     <g id="text_12">
      <!-- 300 -->
      <g transform="translate(156.753551 200.197188)scale(0.1 -0.1)">
       <defs>
        <path id="DejaVuSans-33" d="M 2597 2516 
Q 3050 2419 3304 2112 
Q 3559 1806 3559 1356 
Q 3559 666 3084 287 
Q 2609 -91 1734 -91 
Q 1441 -91 1130 -33 
Q 819 25 488 141 
L 488 750 
Q 750 597 1062 519 
Q 1375 441 1716 441 
Q 2309 441 2620 675 
Q 2931 909 2931 1356 
Q 2931 1769 2642 2001 
Q 2353 2234 1838 2234 
L 1294 2234 
L 1294 2753 
L 1863 2753 
Q 2328 2753 2575 2939 
Q 2822 3125 2822 3475 
Q 2822 3834 2567 4026 
Q 2313 4219 1838 4219 
Q 1578 4219 1281 4162 
Q 984 4106 628 3988 
L 628 4550 
Q 988 4650 1302 4700 
Q 1616 4750 1894 4750 
Q 2613 4750 3031 4423 
Q 3450 4097 3450 3541 
Q 3450 3153 3228 2886 
Q 3006 2619 2597 2516 
z
" transform="scale(0.015625)"/>
       </defs>
       <use xlink:href="#DejaVuSans-33"/>
       <use xlink:href="#DejaVuSans-30" x="63.623047"/>
       <use xlink:href="#DejaVuSans-30" x="127.246094"/>
      </g>
     </g>
    </g>
    <g id="xtick_15">
     <g id="line2d_27">
      <g>
       <use xlink:href="#m3395152588" x="204.342756" y="185.59875" style="stroke: #000000; stroke-width: 0.8"/>
      </g>
     </g>
     <g id="text_13">
      <!-- 400 -->
      <g transform="translate(194.799006 200.197188)scale(0.1 -0.1)">
       <use xlink:href="#DejaVuSans-34"/>
       <use xlink:href="#DejaVuSans-30" x="63.623047"/>
       <use xlink:href="#DejaVuSans-30" x="127.246094"/>
      </g>
     </g>
    </g>
    <g id="text_14">
     <!-- interaction -->
     <g transform="translate(101.211222 213.875313)scale(0.1 -0.1)">
      <defs>
       <path id="DejaVuSans-69" d="M 603 3500 
L 1178 3500 
L 1178 0 
L 603 0 
L 603 3500 
z
M 603 4863 
L 1178 4863 
L 1178 4134 
L 603 4134 
L 603 4863 
z
" transform="scale(0.015625)"/>
       <path id="DejaVuSans-61" d="M 2194 1759 
Q 1497 1759 1228 1600 
Q 959 1441 959 1056 
Q 959 750 1161 570 
Q 1363 391 1709 391 
Q 2188 391 2477 730 
Q 2766 1069 2766 1631 
L 2766 1759 
L 2194 1759 
z
M 3341 1997 
L 3341 0 
L 2766 0 
L 2766 531 
Q 2569 213 2275 61 
Q 1981 -91 1556 -91 
Q 1019 -91 701 211 
Q 384 513 384 1019 
Q 384 1609 779 1909 
Q 1175 2209 1959 2209 
L 2766 2209 
L 2766 2266 
Q 2766 2663 2505 2880 
Q 2244 3097 1772 3097 
Q 1472 3097 1187 3025 
Q 903 2953 641 2809 
L 641 3341 
Q 956 3463 1253 3523 
Q 1550 3584 1831 3584 
Q 2591 3584 2966 3190 
Q 3341 2797 3341 1997 
z
" transform="scale(0.015625)"/>
       <path id="DejaVuSans-63" d="M 3122 3366 
L 3122 2828 
Q 2878 2963 2633 3030 
Q 2388 3097 2138 3097 
Q 1578 3097 1268 2742 
Q 959 2388 959 1747 
Q 959 1106 1268 751 
Q 1578 397 2138 397 
Q 2388 397 2633 464 
Q 2878 531 3122 666 
L 3122 134 
Q 2881 22 2623 -34 
Q 2366 -91 2075 -91 
Q 1284 -91 818 406 
Q 353 903 353 1747 
Q 353 2603 823 3093 
Q 1294 3584 2113 3584 
Q 2378 3584 2631 3529 
Q 2884 3475 3122 3366 
z
" transform="scale(0.015625)"/>
      </defs>
      <use xlink:href="#DejaVuSans-69"/>
      <use xlink:href="#DejaVuSans-6e" x="27.783203"/>
      <use xlink:href="#DejaVuSans-74" x="91.162109"/>
      <use xlink:href="#DejaVuSans-65" x="130.371094"/>
      <use xlink:href="#DejaVuSans-72" x="191.894531"/>
      <use xlink:href="#DejaVuSans-61" x="233.007812"/>
      <use xlink:href="#DejaVuSans-63" x="294.287109"/>
      <use xlink:href="#DejaVuSans-74" x="349.267578"/>
      <use xlink:href="#DejaVuSans-69" x="388.476562"/>
      <use xlink:href="#DejaVuSans-6f" x="416.259766"/>
      <use xlink:href="#DejaVuSans-6e" x="477.441406"/>
     </g>
    </g>
   </g>
   <g id="matplotlib.axis_6">
    <g id="ytick_7">
     <g id="line2d_28">
      <g>
       <use xlink:href="#m1b472440d3" x="52.160938" y="174.896975" style="stroke: #000000; stroke-width: 0.8"/>
      </g>
     </g>
     <g id="text_15">
      <!-- −0.4 -->
      <g transform="translate(20.878125 178.696194)scale(0.1 -0.1)">
       <use xlink:href="#DejaVuSans-2212"/>
       <use xlink:href="#DejaVuSans-30" x="83.789062"/>
       <use xlink:href="#DejaVuSans-2e" x="147.412109"/>
       <use xlink:href="#DejaVuSans-34" x="179.199219"/>
      </g>
     </g>
    </g>
    <g id="ytick_8">
     <g id="line2d_29">
      <g>
       <use xlink:href="#m1b472440d3" x="52.160938" y="144.165967" style="stroke: #000000; stroke-width: 0.8"/>
      </g>
     </g>
     <g id="text_16">
      <!-- −0.2 -->
      <g transform="translate(20.878125 147.965185)scale(0.1 -0.1)">
       <use xlink:href="#DejaVuSans-2212"/>
       <use xlink:href="#DejaVuSans-30" x="83.789062"/>
       <use xlink:href="#DejaVuSans-2e" x="147.412109"/>
       <use xlink:href="#DejaVuSans-32" x="179.199219"/>
      </g>
     </g>
    </g>
    <g id="ytick_9">
     <g id="line2d_30">
      <g>
       <use xlink:href="#m1b472440d3" x="52.160938" y="113.434958" style="stroke: #000000; stroke-width: 0.8"/>
      </g>
     </g>
     <g id="text_17">
      <!-- 0.0 -->
      <g transform="translate(29.257812 117.234177)scale(0.1 -0.1)">
       <use xlink:href="#DejaVuSans-30"/>
       <use xlink:href="#DejaVuSans-2e" x="63.623047"/>
       <use xlink:href="#DejaVuSans-30" x="95.410156"/>
      </g>
     </g>
    </g>
    <g id="text_18">
     <!-- Entropy -->
     <g transform="translate(14.798437 167.222969)rotate(-90)scale(0.1 -0.1)">
      <use xlink:href="#DejaVuSans-45"/>
      <use xlink:href="#DejaVuSans-6e" x="63.183594"/>
      <use xlink:href="#DejaVuSans-74" x="126.5625"/>
      <use xlink:href="#DejaVuSans-72" x="165.771484"/>
      <use xlink:href="#DejaVuSans-6f" x="204.634766"/>
      <use xlink:href="#DejaVuSans-70" x="265.816406"/>
      <use xlink:href="#DejaVuSans-79" x="329.292969"/>
     </g>
    </g>
   </g>
   <g id="line2d_31">
    <path d="M 52.160938 124.822588 
L 52.541392 129.89726 
L 52.921847 131.468607 
L 53.302301 130.225682 
L 53.682756 128.406454 
L 54.06321 119.753339 
L 54.443665 116.288361 
L 54.824119 115.257651 
L 55.204574 114.887929 
L 56.345938 114.466923 
L 57.487301 118.089233 
L 57.867756 120.203616 
L 58.24821 123.886922 
L 58.628665 128.992232 
L 59.009119 129.791923 
L 60.150483 123.202169 
L 60.530938 122.65918 
L 60.911392 123.447048 
L 61.291847 123.227488 
L 61.672301 123.99494 
L 62.052756 123.649362 
L 62.43321 123.544815 
L 63.194119 117.525964 
L 63.955028 114.998459 
L 64.335483 116.882231 
L 65.096392 122.560074 
L 65.857301 124.833458 
L 66.237756 128.35357 
L 66.61821 128.491211 
L 66.998665 126.193471 
L 67.379119 122.666388 
L 67.759574 115.792672 
L 68.140028 113.905801 
L 68.520483 113.579266 
L 69.281392 113.532366 
L 70.042301 113.617786 
L 70.422756 113.908886 
L 70.80321 114.542586 
L 71.944574 117.98561 
L 72.705483 125.734744 
L 73.085938 126.673332 
L 73.466392 126.302797 
L 73.846847 124.86687 
L 74.227301 124.627284 
L 74.607756 126.361115 
L 74.98821 127.432693 
L 75.368665 128.162066 
L 75.749119 127.981759 
L 76.129574 127.418307 
L 76.510028 122.571388 
L 76.890483 119.571357 
L 77.651392 116.249028 
L 78.031847 118.565938 
L 78.412301 124.61774 
L 78.792756 128.375132 
L 79.934119 135.542043 
L 80.314574 135.051729 
L 81.075483 129.935252 
L 81.455938 121.571334 
L 81.836392 116.043919 
L 82.216847 114.592102 
L 82.597301 114.080082 
L 83.35821 114.065652 
L 83.738665 114.114928 
L 84.119119 115.115049 
L 85.640938 124.66883 
L 86.021392 128.550868 
L 86.401847 128.107545 
L 87.54321 122.467339 
L 87.923665 122.30335 
L 88.684574 123.25803 
L 89.065028 124.567059 
L 89.445483 125.090029 
L 89.825938 123.986288 
L 90.206392 119.177717 
L 90.967301 115.805395 
L 91.347756 115.543336 
L 92.108665 125.382343 
L 92.489119 128.438538 
L 92.869574 129.881434 
L 93.630483 136.252809 
L 94.010938 137.606078 
L 94.391392 136.609603 
L 94.771847 132.597547 
L 95.532756 122.278829 
L 95.91321 120.628924 
L 96.293665 119.8714 
L 96.674119 118.84687 
L 97.054574 117.208397 
L 97.435028 117.775992 
L 97.815483 120.662009 
L 98.576392 124.310573 
L 99.337301 133.413078 
L 99.717756 135.054674 
L 100.859119 126.303952 
L 101.239574 125.805116 
L 102.000483 128.953953 
L 102.380938 128.799634 
L 102.761392 128.33226 
L 103.141847 128.183593 
L 103.522301 125.883475 
L 103.902756 119.96427 
L 104.663665 116.564814 
L 105.044119 117.247082 
L 105.805028 130.027148 
L 106.185483 133.399589 
L 106.565938 135.072217 
L 106.946392 137.961516 
L 107.326847 139.468336 
L 107.707301 138.780327 
L 108.087756 136.994741 
L 108.46821 134.248012 
L 109.229119 120.120208 
L 109.609574 117.89943 
L 110.750938 115.742382 
L 111.131392 115.384583 
L 111.892301 119.192242 
L 112.272756 120.598364 
L 112.65321 123.322983 
L 113.414119 131.860586 
L 113.794574 130.682966 
L 114.935938 123.646677 
L 115.316392 123.445199 
L 115.696847 123.790271 
L 116.077301 123.675037 
L 116.457756 124.244579 
L 116.83821 123.685218 
L 117.218665 123.333313 
L 117.599119 119.546321 
L 117.979574 117.108114 
L 118.740483 114.998957 
L 119.120938 118.38884 
L 119.501392 123.111693 
L 119.881847 126.442828 
L 120.262301 127.390286 
L 121.02321 135.194815 
L 121.403665 134.716885 
L 121.784119 132.156807 
L 122.164574 128.002943 
L 122.545028 118.769038 
L 122.925483 114.542293 
L 123.305938 113.725707 
L 123.686392 113.564934 
L 124.447301 113.608046 
L 124.827756 113.684135 
L 125.20821 114.093149 
L 125.969119 118.439314 
L 127.110483 126.382205 
L 127.490938 127.171248 
L 127.871392 125.040508 
L 128.251847 121.639574 
L 128.632301 119.468022 
L 129.012756 118.537528 
L 129.39321 117.912813 
L 129.773665 117.668161 
L 130.154119 118.294564 
L 130.534574 119.231692 
L 130.915028 119.633108 
L 131.295483 116.834906 
L 132.436847 113.93828 
L 132.817301 114.939458 
L 133.57821 117.666395 
L 133.958665 117.643121 
L 134.719574 116.68536 
L 135.100028 116.972651 
L 135.480483 116.336602 
L 135.860938 114.198197 
L 136.241392 113.560059 
L 137.002301 113.457447 
L 138.143665 113.573672 
L 138.524119 113.954961 
L 139.285028 117.601457 
L 140.045938 122.277943 
L 140.426392 126.19544 
L 140.806847 128.479013 
L 141.187301 127.187272 
L 141.94821 121.424063 
L 142.328665 120.063164 
L 143.089574 120.768669 
L 143.850483 122.504541 
L 144.230938 123.408132 
L 144.611392 120.067379 
L 144.991847 118.823661 
L 145.752756 115.11093 
L 146.13321 117.070192 
L 146.894119 124.62024 
L 147.655028 128.51735 
L 148.035483 131.711342 
L 148.415938 133.116051 
L 148.796392 133.277373 
L 149.176847 130.039861 
L 149.557301 123.392589 
L 149.937756 119.248201 
L 150.31821 118.283693 
L 150.698665 117.67958 
L 151.079119 117.60621 
L 151.459574 116.996728 
L 151.840028 117.306436 
L 152.220483 119.449221 
L 152.600938 120.748116 
L 152.981392 122.966846 
L 153.361847 127.288604 
L 153.742301 132.885704 
L 154.122756 135.839922 
L 154.50321 135.321968 
L 155.264119 133.205121 
L 155.644574 134.112933 
L 156.025028 136.532928 
L 156.405483 140.125997 
L 156.785938 141.876585 
L 157.166392 142.417158 
L 157.546847 142.45459 
L 157.927301 138.062946 
L 158.68821 125.708988 
L 159.068665 122.753398 
L 159.449119 125.165439 
L 159.829574 134.758176 
L 160.210028 140.49622 
L 160.590483 143.651889 
L 160.970938 145.621752 
L 161.351392 146.228499 
L 161.731847 146.104577 
L 162.112301 147.314847 
L 162.87321 146.495324 
L 163.253665 144.761804 
L 164.014574 142.974707 
L 164.395028 141.309931 
L 164.775483 137.777604 
L 165.536392 127.482124 
L 165.916847 126.847684 
L 166.297301 126.817787 
L 166.677756 127.599619 
L 167.05821 129.521694 
L 168.199574 138.407344 
L 168.580028 139.432313 
L 168.960483 140.125297 
L 169.340937 143.950049 
L 170.101847 152.926615 
L 170.482301 154.407731 
L 170.862756 153.85665 
L 171.24321 152.373582 
L 172.004119 143.788533 
L 172.765028 133.437375 
L 173.145483 132.562767 
L 173.906392 134.874409 
L 175.047756 141.654211 
L 176.189119 147.498787 
L 176.569574 148.31153 
L 176.950028 148.460139 
L 177.330483 148.273152 
L 177.710938 147.845436 
L 178.091392 147.162984 
L 178.471847 145.431603 
L 178.852301 142.015488 
L 179.61321 133.272409 
L 179.993665 131.919022 
L 180.374119 131.224498 
L 180.754574 131.113011 
L 181.135028 132.118891 
L 183.037301 142.564929 
L 184.178665 154.794375 
L 184.559119 155.91176 
L 184.939574 155.272341 
L 185.320028 153.411833 
L 185.700483 150.835452 
L 186.461392 141.308554 
L 186.841847 135.74548 
L 187.222301 132.94061 
L 187.602756 133.467164 
L 188.363665 135.856999 
L 189.124574 138.531075 
L 189.505028 139.981456 
L 190.265938 143.64272 
L 191.026847 145.616919 
L 191.407301 146.285822 
L 192.16821 145.600739 
L 192.929119 145.604989 
L 193.309574 143.832009 
L 194.450938 128.969179 
L 194.831392 127.358962 
L 195.211847 127.929792 
L 195.592301 129.760291 
L 196.35321 136.859369 
L 196.733665 137.978054 
L 197.114119 138.09722 
L 197.494574 137.455881 
L 198.635938 144.959961 
L 199.016392 148.914798 
L 199.396847 151.587262 
L 199.777301 150.704932 
L 200.157756 149.023881 
L 200.53821 143.654537 
L 201.299119 123.886701 
L 201.679574 121.090262 
L 202.440483 119.382104 
L 202.820938 119.576478 
L 203.201392 123.565274 
L 203.962301 127.957482 
L 203.962301 127.957482 
" clip-path="url(#pfb3009467e)" style="fill: none; stroke: #1f77b4; stroke-linecap: square"/>
   </g>
   <g id="line2d_32">
    <path d="M 52.160938 124.822588 
L 52.541392 129.905974 
L 52.921847 131.497638 
L 53.302301 130.265015 
L 53.682756 128.509361 
L 54.06321 119.870696 
L 54.443665 116.386586 
L 54.824119 115.342468 
L 55.204574 114.986043 
L 56.345938 114.64329 
L 56.726392 116.175738 
L 57.106847 117.246708 
L 57.487301 118.740059 
L 57.867756 120.800844 
L 58.24821 124.343366 
L 58.628665 129.285898 
L 59.009119 129.254279 
L 60.150483 123.35458 
L 60.530938 123.727819 
L 60.911392 125.006036 
L 61.291847 125.118841 
L 61.672301 126.018078 
L 62.052756 126.444387 
L 62.43321 125.506574 
L 62.813665 119.768126 
L 63.194119 118.366721 
L 63.955028 115.075678 
L 65.476847 123.185537 
L 65.857301 124.661046 
L 66.237756 128.836374 
L 66.61821 131.279859 
L 66.998665 131.508829 
L 67.379119 130.752635 
L 67.759574 124.245855 
L 68.140028 120.317075 
L 68.520483 119.113857 
L 69.281392 118.382794 
L 69.661847 117.27325 
L 70.042301 117.106099 
L 70.422756 119.802474 
L 71.183665 122.304932 
L 72.325028 132.700599 
L 72.705483 131.433745 
L 73.085938 129.358855 
L 73.466392 128.119059 
L 73.846847 128.815932 
L 74.607756 136.169588 
L 74.98821 137.975775 
L 75.368665 138.281663 
L 75.749119 137.640206 
L 76.129574 133.446139 
L 76.510028 125.616003 
L 76.890483 121.240723 
L 77.270938 118.496433 
L 77.651392 119.177829 
L 78.412301 136.916787 
L 79.553665 142.719495 
L 79.934119 144.441983 
L 80.314574 144.790709 
L 80.695028 144.468416 
L 81.075483 143.502795 
L 81.455938 142.008969 
L 81.836392 139.83703 
L 82.216847 136.710182 
L 82.597301 135.635084 
L 82.977756 133.864928 
L 83.35821 129.815556 
L 83.738665 124.089732 
L 84.119119 121.330865 
L 84.499574 123.729367 
L 84.880028 124.393877 
L 85.260483 126.303216 
L 85.640938 129.353363 
L 86.021392 133.854193 
L 86.401847 135.786242 
L 86.782301 134.438659 
L 87.162756 131.73875 
L 87.54321 131.138558 
L 87.923665 132.420881 
L 88.684574 140.075957 
L 89.065028 142.622286 
L 89.445483 142.495312 
L 89.825938 141.740996 
L 90.206392 137.260741 
L 90.586847 128.383207 
L 90.967301 123.438747 
L 91.347756 120.425103 
L 91.72821 118.7456 
L 92.869574 134.990431 
L 93.630483 139.123131 
L 94.391392 144.847746 
L 94.771847 144.779041 
L 95.152301 144.007402 
L 95.532756 143.548978 
L 95.91321 143.447315 
L 96.674119 141.779816 
L 97.054574 138.057449 
L 97.815483 126.974555 
L 98.195938 126.065081 
L 98.576392 126.225599 
L 98.956847 126.880929 
L 99.337301 129.224023 
L 100.09821 135.836009 
L 100.478665 137.38645 
L 101.239574 137.118811 
L 101.620028 140.083886 
L 102.761392 150.885098 
L 103.141847 151.670004 
L 103.522301 151.558858 
L 103.902756 148.624224 
L 105.044119 127.382635 
L 105.424574 125.644197 
L 105.805028 128.285385 
L 106.185483 133.589944 
L 106.565938 136.463488 
L 108.848665 147.866725 
L 109.229119 148.034188 
L 109.609574 147.370681 
L 110.370483 145.125487 
L 110.750938 144.941152 
L 111.131392 141.668917 
L 111.511847 136.845171 
L 111.892301 130.510828 
L 112.272756 129.522819 
L 113.033665 131.3718 
L 113.414119 133.350243 
L 113.794574 136.363159 
L 114.175028 137.825138 
L 114.555483 138.379916 
L 114.935938 137.121049 
L 115.316392 137.118326 
L 116.077301 143.447855 
L 116.457756 149.409472 
L 116.83821 152.892459 
L 117.218665 154.624735 
L 117.599119 155.076319 
L 117.979574 149.274222 
L 118.740483 132.717372 
L 119.120938 128.692231 
L 119.881847 124.09159 
L 121.403665 133.895086 
L 122.545028 145.130303 
L 122.925483 146.67426 
L 123.305938 147.729506 
L 123.686392 148.147644 
L 124.066847 147.845435 
L 124.447301 144.33952 
L 125.20821 131.67613 
L 125.588665 129.934448 
L 125.969119 130.04474 
L 126.349574 130.003755 
L 126.730028 130.58476 
L 127.871392 135.013261 
L 128.251847 134.769493 
L 128.632301 135.070983 
L 129.39321 144.612614 
L 129.773665 150.068511 
L 130.154119 152.674351 
L 130.534574 153.832025 
L 130.915028 153.432065 
L 131.295483 149.616375 
L 132.436847 129.589784 
L 132.817301 129.754904 
L 134.339119 136.251681 
L 135.100028 140.390074 
L 136.241392 147.066695 
L 136.621847 147.601877 
L 137.002301 147.23252 
L 137.382756 147.023385 
L 137.76321 147.318512 
L 138.143665 145.224417 
L 138.524119 140.969094 
L 139.285028 131.126547 
L 139.665483 130.513983 
L 140.045938 130.809638 
L 140.426392 132.418117 
L 141.187301 137.492015 
L 141.567756 138.904133 
L 141.94821 139.275735 
L 142.328665 138.595837 
L 142.709119 141.176215 
L 143.089574 145.029524 
L 143.470028 150.241373 
L 143.850483 153.580253 
L 144.230938 154.607024 
L 144.611392 154.998526 
L 144.991847 153.528535 
L 145.372301 148.236385 
L 146.13321 133.04744 
L 146.513665 129.909995 
L 146.894119 130.357888 
L 148.035483 133.872293 
L 148.796392 138.104547 
L 150.31821 148.31393 
L 150.698665 148.854017 
L 151.459574 148.025515 
L 151.840028 146.061805 
L 152.220483 142.430481 
L 152.981392 132.217288 
L 153.361847 130.739354 
L 153.742301 130.218796 
L 154.122756 130.602995 
L 154.50321 132.144155 
L 155.264119 136.57416 
L 156.025028 139.311732 
L 156.405483 142.119697 
L 157.546847 155.073019 
L 157.927301 155.412654 
L 158.307756 154.607538 
L 158.68821 152.947885 
L 159.068665 149.224686 
L 159.829574 137.552705 
L 160.210028 132.221613 
L 160.590483 130.964371 
L 162.112301 136.26069 
L 162.492756 137.999964 
L 163.634119 145.404771 
L 164.014574 146.207839 
L 164.775483 146.765914 
L 165.155937 146.418765 
L 165.536392 145.773432 
L 165.916847 145.510764 
L 166.297301 145.10171 
L 166.677756 141.773302 
L 167.819119 129.161904 
L 168.199574 128.521694 
L 168.580028 129.335335 
L 168.960483 131.412583 
L 169.340937 134.871518 
L 169.721392 136.878825 
L 170.101847 137.881248 
L 170.482301 138.117879 
L 170.862756 139.652727 
L 172.004119 150.599146 
L 172.384574 152.443818 
L 172.765028 152.416303 
L 173.145483 151.982635 
L 173.525937 149.060775 
L 173.906392 141.774513 
L 174.286847 132.252008 
L 174.667301 125.72103 
L 175.047756 123.516301 
L 175.42821 123.25511 
L 176.189119 126.409102 
L 176.569574 128.079737 
L 177.710938 136.675877 
L 178.471847 143.242371 
L 179.232756 145.525576 
L 179.61321 146.456855 
L 179.993665 147.085119 
L 180.374119 146.79335 
L 180.754574 141.180836 
L 181.515483 126.816791 
L 181.895938 125.130748 
L 182.276392 124.59975 
L 182.656847 124.347625 
L 183.037301 126.401471 
L 183.79821 133.443312 
L 184.178665 133.32444 
L 184.559119 132.631263 
L 184.939574 133.853245 
L 185.320028 136.43797 
L 186.461392 147.767955 
L 186.841847 148.132799 
L 187.222301 146.535583 
L 187.602756 139.541621 
L 187.98321 129.3753 
L 188.363665 123.232588 
L 189.124574 120.025099 
L 189.505028 118.580048 
L 189.885483 121.925656 
L 190.265938 127.310545 
L 191.026847 132.157603 
L 192.16821 145.19094 
L 192.929119 146.681249 
L 193.309574 146.374163 
L 193.690028 146.515707 
L 194.070483 143.995447 
L 194.450938 139.540179 
L 194.831392 132.689634 
L 195.211847 128.810298 
L 195.592301 128.187351 
L 195.972756 128.045319 
L 196.35321 128.689451 
L 196.733665 130.228033 
L 197.114119 132.865449 
L 197.494574 134.440218 
L 197.875028 135.090959 
L 198.255483 135.040487 
L 198.635938 137.697356 
L 199.777301 152.373882 
L 200.157756 153.577292 
L 200.53821 153.445187 
L 200.918665 151.765086 
L 201.299119 145.998672 
L 202.060028 130.455564 
L 202.440483 127.299785 
L 202.820938 128.065303 
L 203.581847 132.598475 
L 203.962301 133.948934 
L 203.962301 133.948934 
" clip-path="url(#pfb3009467e)" style="fill: none; stroke: #ff7f0e; stroke-linecap: square"/>
   </g>
   <g id="patch_14">
    <path d="M 52.160938 185.59875 
L 52.160938 109.99875 
" style="fill: none; stroke: #000000; stroke-width: 0.8; stroke-linejoin: miter; stroke-linecap: square"/>
   </g>
   <g id="patch_15">
    <path d="M 204.342756 185.59875 
L 204.342756 109.99875 
" style="fill: none; stroke: #000000; stroke-width: 0.8; stroke-linejoin: miter; stroke-linecap: square"/>
   </g>
   <g id="patch_16">
    <path d="M 52.160938 185.59875 
L 204.342756 185.59875 
" style="fill: none; stroke: #000000; stroke-width: 0.8; stroke-linejoin: miter; stroke-linecap: square"/>
   </g>
   <g id="patch_17">
    <path d="M 52.160938 109.99875 
L 204.342756 109.99875 
" style="fill: none; stroke: #000000; stroke-width: 0.8; stroke-linejoin: miter; stroke-linecap: square"/>
   </g>
   <g id="text_19">
    <!-- eps. 8 -->
    <g transform="translate(116.079972 103.99875)scale(0.08 -0.08)">
     <defs>
      <path id="DejaVuSans-38" d="M 2034 2216 
Q 1584 2216 1326 1975 
Q 1069 1734 1069 1313 
Q 1069 891 1326 650 
Q 1584 409 2034 409 
Q 2484 409 2743 651 
Q 3003 894 3003 1313 
Q 3003 1734 2745 1975 
Q 2488 2216 2034 2216 
z
M 1403 2484 
Q 997 2584 770 2862 
Q 544 3141 544 3541 
Q 544 4100 942 4425 
Q 1341 4750 2034 4750 
Q 2731 4750 3128 4425 
Q 3525 4100 3525 3541 
Q 3525 3141 3298 2862 
Q 3072 2584 2669 2484 
Q 3125 2378 3379 2068 
Q 3634 1759 3634 1313 
Q 3634 634 3220 271 
Q 2806 -91 2034 -91 
Q 1263 -91 848 271 
Q 434 634 434 1313 
Q 434 1759 690 2068 
Q 947 2378 1403 2484 
z
M 1172 3481 
Q 1172 3119 1398 2916 
Q 1625 2713 2034 2713 
Q 2441 2713 2670 2916 
Q 2900 3119 2900 3481 
Q 2900 3844 2670 4047 
Q 2441 4250 2034 4250 
Q 1625 4250 1398 4047 
Q 1172 3844 1172 3481 
z
" transform="scale(0.015625)"/>
     </defs>
     <use xlink:href="#DejaVuSans-65"/>
     <use xlink:href="#DejaVuSans-70" x="61.523438"/>
     <use xlink:href="#DejaVuSans-73" x="125"/>
     <use xlink:href="#DejaVuSans-2e" x="177.099609"/>
     <use xlink:href="#DejaVuSans-20" x="208.886719"/>
     <use xlink:href="#DejaVuSans-38" x="240.673828"/>
    </g>
   </g>
  </g>
  <g id="axes_4">
   <g id="patch_18">
    <path d="M 234.779119 185.59875 
L 386.960937 185.59875 
L 386.960937 109.99875 
L 234.779119 109.99875 
z
" style="fill: #ffffff"/>
   </g>
   <g id="matplotlib.axis_7">
    <g id="xtick_16">
     <g id="line2d_33">
      <g>
       <use xlink:href="#m3395152588" x="234.779119" y="185.59875" style="stroke: #000000; stroke-width: 0.8"/>
      </g>
     </g>
     <g id="text_20">
      <!-- 0 -->
      <g transform="translate(231.597869 200.197188)scale(0.1 -0.1)">
       <use xlink:href="#DejaVuSans-30"/>
      </g>
     </g>
    </g>
    <g id="xtick_17">
     <g id="line2d_34">
      <g>
       <use xlink:href="#m3395152588" x="272.824574" y="185.59875" style="stroke: #000000; stroke-width: 0.8"/>
      </g>
     </g>
     <g id="text_21">
      <!-- 100 -->
      <g transform="translate(263.280824 200.197188)scale(0.1 -0.1)">
       <use xlink:href="#DejaVuSans-31"/>
       <use xlink:href="#DejaVuSans-30" x="63.623047"/>
       <use xlink:href="#DejaVuSans-30" x="127.246094"/>
      </g>
     </g>
    </g>
    <g id="xtick_18">
     <g id="line2d_35">
      <g>
       <use xlink:href="#m3395152588" x="310.870028" y="185.59875" style="stroke: #000000; stroke-width: 0.8"/>
      </g>
     </g>
     <g id="text_22">
      <!-- 200 -->
      <g transform="translate(301.326278 200.197188)scale(0.1 -0.1)">
       <use xlink:href="#DejaVuSans-32"/>
       <use xlink:href="#DejaVuSans-30" x="63.623047"/>
       <use xlink:href="#DejaVuSans-30" x="127.246094"/>
      </g>
     </g>
    </g>
    <g id="xtick_19">
     <g id="line2d_36">
      <g>
       <use xlink:href="#m3395152588" x="348.915483" y="185.59875" style="stroke: #000000; stroke-width: 0.8"/>
      </g>
     </g>
     <g id="text_23">
      <!-- 300 -->
      <g transform="translate(339.371733 200.197188)scale(0.1 -0.1)">
       <use xlink:href="#DejaVuSans-33"/>
       <use xlink:href="#DejaVuSans-30" x="63.623047"/>
       <use xlink:href="#DejaVuSans-30" x="127.246094"/>
      </g>
     </g>
    </g>
    <g id="xtick_20">
     <g id="line2d_37">
      <g>
       <use xlink:href="#m3395152588" x="386.960937" y="185.59875" style="stroke: #000000; stroke-width: 0.8"/>
      </g>
     </g>
     <g id="text_24">
      <!-- 400 -->
      <g transform="translate(377.417187 200.197188)scale(0.1 -0.1)">
       <use xlink:href="#DejaVuSans-34"/>
       <use xlink:href="#DejaVuSans-30" x="63.623047"/>
       <use xlink:href="#DejaVuSans-30" x="127.246094"/>
      </g>
     </g>
    </g>
    <g id="text_25">
     <!-- interaction -->
     <g transform="translate(283.829403 213.875313)scale(0.1 -0.1)">
      <use xlink:href="#DejaVuSans-69"/>
      <use xlink:href="#DejaVuSans-6e" x="27.783203"/>
      <use xlink:href="#DejaVuSans-74" x="91.162109"/>
      <use xlink:href="#DejaVuSans-65" x="130.371094"/>
      <use xlink:href="#DejaVuSans-72" x="191.894531"/>
      <use xlink:href="#DejaVuSans-61" x="233.007812"/>
      <use xlink:href="#DejaVuSans-63" x="294.287109"/>
      <use xlink:href="#DejaVuSans-74" x="349.267578"/>
      <use xlink:href="#DejaVuSans-69" x="388.476562"/>
      <use xlink:href="#DejaVuSans-6f" x="416.259766"/>
      <use xlink:href="#DejaVuSans-6e" x="477.441406"/>
     </g>
    </g>
   </g>
   <g id="matplotlib.axis_8">
    <g id="ytick_10">
     <g id="line2d_38">
      <g>
       <use xlink:href="#m1b472440d3" x="234.779119" y="174.896975" style="stroke: #000000; stroke-width: 0.8"/>
      </g>
     </g>
    </g>
    <g id="ytick_11">
     <g id="line2d_39">
      <g>
       <use xlink:href="#m1b472440d3" x="234.779119" y="144.165967" style="stroke: #000000; stroke-width: 0.8"/>
      </g>
     </g>
    </g>
    <g id="ytick_12">
     <g id="line2d_40">
      <g>
       <use xlink:href="#m1b472440d3" x="234.779119" y="113.434958" style="stroke: #000000; stroke-width: 0.8"/>
      </g>
     </g>
    </g>
   </g>
   <g id="line2d_41">
    <path d="M 234.779119 113.966026 
L 235.159574 118.983712 
L 235.540028 143.891471 
L 235.920483 157.562324 
L 236.681392 117.26128 
L 237.061847 113.936748 
L 237.442301 113.556778 
L 238.964119 113.440525 
L 239.725028 113.604264 
L 240.105483 114.786611 
L 240.485937 120.561415 
L 240.866392 133.241577 
L 241.246847 151.168221 
L 241.627301 150.638293 
L 242.38821 128.891031 
L 242.768665 123.313359 
L 243.149119 119.659695 
L 243.529574 117.916867 
L 243.910028 117.464659 
L 244.670937 115.468429 
L 245.051392 118.392808 
L 245.431847 123.548281 
L 245.812301 116.185474 
L 246.192756 113.867462 
L 246.57321 113.975038 
L 246.953665 113.951306 
L 247.714574 113.603722 
L 248.095028 113.602985 
L 248.475483 113.744695 
L 248.855937 115.475603 
L 249.236392 129.178093 
L 249.616847 147.960692 
L 249.997301 126.864249 
L 250.377756 114.049374 
L 250.75821 113.456529 
L 253.040937 113.436569 
L 253.801847 113.497589 
L 254.182301 113.990339 
L 254.562756 117.888398 
L 255.323665 148.713576 
L 255.704119 148.284056 
L 256.084574 136.88069 
L 256.465028 135.856739 
L 256.845483 140.793206 
L 257.606392 133.686424 
L 258.367301 123.250516 
L 258.747756 128.258524 
L 259.12821 134.815328 
L 259.508665 123.617145 
L 259.889119 116.691209 
L 260.269574 117.038123 
L 260.650028 125.636781 
L 261.030483 124.807839 
L 261.410937 120.759428 
L 261.791392 118.618491 
L 262.171847 120.613711 
L 262.552301 133.009239 
L 262.932756 152.915878 
L 263.31321 164.013076 
L 263.693665 151.942229 
L 264.454574 115.585863 
L 264.835028 113.751382 
L 265.215483 113.526656 
L 265.976392 113.440104 
L 267.117756 113.544957 
L 267.49821 114.374269 
L 267.878665 119.891578 
L 268.639574 150.492971 
L 269.020028 151.251294 
L 269.780937 132.885229 
L 270.541847 130.901785 
L 270.922301 131.297799 
L 271.302756 128.777695 
L 271.68321 125.320873 
L 272.063665 130.927879 
L 272.444119 143.856292 
L 272.824574 134.670963 
L 273.205028 120.292197 
L 273.585483 114.661395 
L 273.965937 121.794423 
L 274.346392 125.139594 
L 274.726847 123.155732 
L 275.107301 121.889663 
L 275.487756 122.920801 
L 275.86821 130.028915 
L 276.629119 173.934941 
L 277.009574 182.162386 
L 278.150937 148.508026 
L 278.531392 144.379194 
L 279.292301 121.504737 
L 279.672756 116.789792 
L 280.05321 115.139741 
L 280.433665 116.37488 
L 280.814119 120.482633 
L 281.194574 128.51552 
L 281.955483 154.337094 
L 282.335937 155.155147 
L 282.716392 150.71485 
L 283.096847 142.616859 
L 283.477301 145.803904 
L 283.857756 157.818242 
L 284.23821 164.664488 
L 284.618665 163.559623 
L 285.379574 148.915277 
L 285.760028 151.395987 
L 286.140483 155.948106 
L 286.520937 147.04368 
L 286.901392 128.910441 
L 287.281847 118.752747 
L 287.662301 133.808952 
L 288.042756 141.972156 
L 288.42321 141.257632 
L 288.803665 140.830993 
L 289.184119 144.753884 
L 290.325483 174.070193 
L 290.705937 177.092469 
L 291.086392 174.646022 
L 291.847301 161.388321 
L 292.227756 158.3328 
L 292.60821 147.42974 
L 292.988665 130.042988 
L 293.369119 121.214227 
L 293.749574 117.518194 
L 294.130028 117.79871 
L 294.510483 119.612792 
L 294.890937 125.110388 
L 295.271392 133.11695 
L 295.651847 144.564275 
L 296.032301 148.08078 
L 296.412756 146.861157 
L 296.79321 144.097644 
L 297.173665 145.01673 
L 297.554119 157.743546 
L 297.934574 174.844398 
L 298.315028 178.035581 
L 298.695483 173.618005 
L 299.075937 166.798349 
L 299.456392 165.529784 
L 299.836847 162.088218 
L 300.217301 152.230439 
L 300.97821 124.705083 
L 301.358665 132.915175 
L 301.739119 146.236703 
L 302.119574 146.788528 
L 302.500028 146.234208 
L 302.880483 147.142974 
L 304.402301 169.486831 
L 304.782756 171.968473 
L 305.16321 171.50871 
L 305.543665 166.564176 
L 306.304574 160.350658 
L 307.065483 127.895778 
L 307.445937 120.2068 
L 307.826392 118.366432 
L 308.206847 121.166085 
L 308.587301 126.058438 
L 308.967756 133.474518 
L 309.728665 153.469218 
L 310.109119 152.052614 
L 310.489574 149.079229 
L 310.870028 147.164267 
L 311.250483 155.876467 
L 311.630937 175.52527 
L 312.011392 181.653438 
L 312.391847 177.713787 
L 312.772301 170.132674 
L 313.152756 171.94107 
L 313.53321 172.452153 
L 313.913665 167.598318 
L 314.294119 154.928049 
L 314.674574 133.119076 
L 315.055028 124.618955 
L 315.435483 130.43365 
L 315.815937 129.448565 
L 316.196392 127.324266 
L 316.576847 130.462853 
L 318.098665 173.141767 
L 318.479119 173.206844 
L 319.240028 166.388669 
L 319.620483 158.609664 
L 320.381392 129.905474 
L 320.761847 122.097019 
L 321.142301 121.107677 
L 321.90321 127.372508 
L 322.283665 132.140734 
L 322.664119 140.466806 
L 323.044574 145.578995 
L 323.805483 146.787031 
L 324.185937 147.430203 
L 324.566392 152.717889 
L 325.327301 175.941709 
L 325.707756 177.868339 
L 326.08821 176.251085 
L 326.468665 172.49597 
L 326.849119 170.655198 
L 327.229574 167.139236 
L 327.610028 160.87637 
L 327.990483 151.277232 
L 328.370937 145.213643 
L 329.131847 148.066729 
L 329.512301 148.419642 
L 329.892756 150.371377 
L 330.27321 153.24937 
L 331.795028 170.488088 
L 332.175483 171.660008 
L 332.555937 171.129076 
L 333.316847 166.537173 
L 333.697301 162.19217 
L 334.45821 156.500569 
L 334.838665 154.815198 
L 335.599574 154.658589 
L 335.980028 154.822982 
L 336.740937 156.136779 
L 337.121392 158.034483 
L 337.501847 161.374929 
L 338.262756 172.723405 
L 338.64321 175.269886 
L 339.023665 174.993625 
L 339.404119 172.315087 
L 339.784574 167.918848 
L 340.165028 166.076557 
L 340.545483 165.290759 
L 340.925937 164.990565 
L 341.686847 163.679092 
L 342.067301 162.986653 
L 342.447756 163.308693 
L 342.82821 163.019107 
L 343.208665 163.808288 
L 344.730483 170.719564 
L 345.491392 172.591647 
L 345.871847 172.852325 
L 346.252301 172.399029 
L 346.632756 171.018514 
L 347.774119 164.431877 
L 348.535028 159.450627 
L 349.295937 156.24598 
L 349.676392 155.368509 
L 350.056847 155.958683 
L 350.817756 159.383159 
L 351.19821 160.521714 
L 351.959119 166.280318 
L 352.339574 169.173667 
L 352.720028 170.371023 
L 353.100483 169.776165 
L 353.861392 160.415494 
L 354.241847 155.186907 
L 354.622301 151.583049 
L 355.002756 150.588734 
L 355.38321 150.250237 
L 356.144119 145.259724 
L 356.524574 144.655201 
L 356.905028 142.977243 
L 357.285483 139.427558 
L 357.665937 138.59564 
L 358.046392 141.057292 
L 358.807301 151.266398 
L 359.56821 162.318291 
L 359.948665 165.64774 
L 360.329119 166.798884 
L 361.090028 164.417004 
L 361.470483 160.420421 
L 361.850937 153.742135 
L 362.611847 137.120471 
L 362.992301 133.061979 
L 363.372756 132.249959 
L 363.75321 134.766897 
L 364.514119 143.569289 
L 366.035937 156.198499 
L 366.796847 168.005849 
L 367.177301 171.271822 
L 367.557756 170.487073 
L 368.318665 157.873366 
L 368.699119 151.154306 
L 369.079574 146.659894 
L 369.460028 145.588995 
L 369.840483 143.244961 
L 370.220937 139.290509 
L 370.601392 136.93456 
L 370.981847 137.53287 
L 371.362301 133.593225 
L 371.742756 132.200547 
L 372.12321 133.606429 
L 372.503665 137.031511 
L 373.264574 149.964442 
L 374.025483 163.445313 
L 374.405937 166.747354 
L 374.786392 167.249872 
L 375.166847 166.933328 
L 375.547301 163.646097 
L 375.927756 158.917883 
L 376.30821 149.512829 
L 376.688665 135.174377 
L 377.069119 126.003009 
L 377.449574 123.072278 
L 377.830028 125.082169 
L 378.210483 128.846947 
L 378.590937 134.790042 
L 378.971392 145.825928 
L 379.351847 150.447167 
L 379.732301 151.361868 
L 380.49321 148.608483 
L 380.873665 160.995654 
L 381.254119 177.36654 
L 381.634574 179.113873 
L 382.015028 172.861565 
L 382.775937 154.998365 
L 383.156392 159.13161 
L 383.536847 155.592162 
L 383.917301 147.000828 
L 384.297756 129.124714 
L 384.67821 118.984041 
L 385.058665 114.790351 
L 385.439119 114.606727 
L 385.819574 114.787231 
L 386.200028 116.440134 
L 386.580483 121.030261 
L 386.580483 121.030261 
" clip-path="url(#p4b2729939b)" style="fill: none; stroke: #1f77b4; stroke-linecap: square"/>
   </g>
   <g id="line2d_42">
    <path d="M 234.779119 113.966026 
L 235.159574 118.998372 
L 235.540028 143.991975 
L 235.920483 157.632763 
L 236.681392 117.476481 
L 237.061847 113.987828 
L 237.442301 113.573999 
L 238.964119 113.442942 
L 239.344574 113.488794 
L 239.725028 113.69641 
L 240.105483 115.529075 
L 240.485937 122.552357 
L 241.246847 152.410036 
L 241.627301 150.068252 
L 242.38821 129.108068 
L 242.768665 124.131135 
L 243.149119 121.039464 
L 243.529574 120.291715 
L 243.910028 119.950129 
L 244.290483 118.784505 
L 244.670937 121.534901 
L 245.051392 134.012626 
L 245.431847 129.371453 
L 245.812301 117.656242 
L 246.192756 113.738526 
L 246.57321 114.201399 
L 247.714574 113.63696 
L 248.095028 113.665434 
L 248.475483 114.028271 
L 248.855937 117.232037 
L 249.236392 140.345583 
L 249.616847 154.084465 
L 250.75821 120.001445 
L 251.138665 118.236353 
L 251.519119 117.077893 
L 251.899574 114.5971 
L 252.280028 113.89947 
L 252.660483 113.644768 
L 253.040937 114.309122 
L 253.421392 116.398789 
L 253.801847 121.762657 
L 254.562756 147.83094 
L 254.94321 154.031112 
L 255.323665 148.41909 
L 255.704119 140.633753 
L 256.084574 139.972989 
L 256.465028 149.156835 
L 256.845483 152.972333 
L 257.225937 151.010009 
L 257.606392 147.274877 
L 257.986847 141.189785 
L 258.367301 140.641919 
L 258.747756 148.649255 
L 259.12821 142.092198 
L 259.508665 124.27731 
L 259.889119 116.582075 
L 260.650028 141.511767 
L 261.030483 142.750534 
L 261.410937 141.820154 
L 261.791392 143.613539 
L 262.932756 169.888884 
L 263.31321 173.17804 
L 263.693665 172.508614 
L 264.074119 168.396388 
L 264.835028 156.514181 
L 265.215483 153.641686 
L 265.595937 145.905729 
L 265.976392 129.852485 
L 266.356847 121.052201 
L 266.737301 117.440049 
L 267.117756 117.767894 
L 267.49821 120.409619 
L 267.878665 125.914978 
L 268.639574 145.562082 
L 269.020028 146.73889 
L 269.780937 144.657237 
L 270.161392 144.301797 
L 270.541847 154.256639 
L 270.922301 173.178371 
L 271.302756 179.26189 
L 271.68321 176.917777 
L 272.063665 172.253989 
L 272.444119 170.501539 
L 272.824574 167.123885 
L 273.205028 158.605425 
L 273.585483 147.265386 
L 273.965937 132.221872 
L 274.726847 145.994222 
L 275.107301 147.482183 
L 275.487756 147.989685 
L 275.86821 148.794798 
L 276.629119 156.872429 
L 277.390028 167.203404 
L 277.770483 169.916008 
L 278.150937 170.658486 
L 278.531392 169.531855 
L 278.911847 166.119489 
L 279.292301 160.797075 
L 280.05321 145.359722 
L 280.433665 140.65125 
L 280.814119 138.62821 
L 281.194574 138.609978 
L 281.575028 140.167119 
L 281.955483 143.240452 
L 282.335937 147.827275 
L 283.096847 152.746561 
L 283.857756 158.769126 
L 284.999119 174.820625 
L 285.379574 175.837419 
L 285.760028 175.377785 
L 286.140483 172.490562 
L 286.901392 164.538377 
L 287.662301 160.756946 
L 288.42321 158.82741 
L 288.803665 159.118545 
L 289.184119 158.824123 
L 289.564574 159.592053 
L 289.945028 161.542259 
L 291.086392 169.695223 
L 291.466847 171.053759 
L 291.847301 171.813423 
L 292.60821 172.486256 
L 292.988665 172.204378 
L 293.369119 171.284543 
L 293.749574 169.517052 
L 294.130028 165.796046 
L 294.890937 155.94445 
L 295.651847 151.141839 
L 296.032301 150.525423 
L 296.412756 152.697578 
L 296.79321 153.762521 
L 297.554119 157.87508 
L 298.315028 158.164788 
L 298.695483 161.11848 
L 299.075937 167.969542 
L 299.456392 177.49543 
L 299.836847 180.223006 
L 300.217301 177.113628 
L 300.597756 172.308969 
L 301.358665 160.778389 
L 302.119574 154.692689 
L 302.880483 144.45129 
L 303.260937 140.896621 
L 303.641392 134.040284 
L 304.021847 132.278189 
L 304.402301 134.042966 
L 304.782756 138.078539 
L 305.543665 152.44696 
L 305.924119 159.96333 
L 306.304574 164.904887 
L 306.685028 168.340784 
L 307.065483 168.711218 
L 307.445937 166.899964 
L 307.826392 163.319381 
L 308.587301 150.102161 
L 309.34821 143.536406 
L 309.728665 142.824857 
L 310.109119 144.013863 
L 310.489574 146.062817 
L 310.870028 147.288615 
L 312.011392 154.037289 
L 312.391847 158.638697 
L 313.152756 174.188944 
L 313.53321 176.401812 
L 313.913665 175.118855 
L 315.055028 156.688996 
L 315.435483 154.153529 
L 315.815937 153.774207 
L 316.196392 153.159805 
L 316.576847 151.373885 
L 316.957301 150.353985 
L 317.337756 148.293508 
L 317.71821 145.482541 
L 318.098665 145.892969 
L 318.479119 148.570741 
L 319.620483 163.028122 
L 320.381392 169.06414 
L 320.761847 168.894421 
L 321.142301 167.397373 
L 321.522756 164.85812 
L 321.90321 158.651532 
L 322.664119 141.100262 
L 323.044574 136.40172 
L 323.425028 134.888439 
L 323.805483 135.583943 
L 324.185937 137.975035 
L 324.946847 146.279521 
L 326.468665 160.96593 
L 327.229574 177.727827 
L 327.610028 180.260106 
L 327.990483 174.64201 
L 329.131847 153.373374 
L 330.27321 145.514351 
L 330.653665 142.480002 
L 331.034119 142.530816 
L 331.414574 138.395001 
L 331.795028 136.853408 
L 332.175483 138.500483 
L 332.555937 142.704629 
L 334.077756 166.452721 
L 334.45821 169.119003 
L 334.838665 168.72266 
L 335.219119 166.85021 
L 335.599574 163.259468 
L 335.980028 156.146249 
L 336.740937 135.107811 
L 337.121392 129.701032 
L 337.501847 130.703641 
L 337.882301 131.176594 
L 338.262756 132.610899 
L 338.64321 136.508448 
L 339.023665 142.679928 
L 339.784574 149.189637 
L 340.165028 151.896523 
L 340.545483 156.673203 
L 341.306392 179.8152 
L 341.686847 182.022662 
L 342.067301 177.663409 
L 343.208665 158.39406 
L 343.969574 153.021772 
L 344.350028 147.86612 
L 344.730483 145.273265 
L 345.110937 140.809742 
L 345.491392 137.859052 
L 345.871847 138.975075 
L 346.252301 142.352117 
L 346.632756 147.564074 
L 347.393665 160.829322 
L 347.774119 165.958411 
L 348.154574 169.221021 
L 348.535028 170.401105 
L 348.915483 169.468118 
L 349.295937 167.37739 
L 350.056847 161.248762 
L 351.19821 152.270972 
L 351.578665 150.603855 
L 351.959119 149.522864 
L 352.339574 149.755837 
L 352.720028 150.132284 
L 353.100483 151.380953 
L 353.480937 153.190142 
L 353.861392 156.155978 
L 355.002756 170.157167 
L 355.38321 171.257256 
L 355.763665 169.62155 
L 356.144119 166.717931 
L 356.524574 162.362374 
L 356.905028 159.618738 
L 358.426847 157.385935 
L 358.807301 157.45644 
L 359.187756 158.68753 
L 359.56821 160.298165 
L 359.948665 160.732925 
L 360.329119 162.274099 
L 361.470483 168.029577 
L 362.611847 170.178246 
L 362.992301 168.971195 
L 363.372756 167.001422 
L 363.75321 164.44465 
L 364.894574 147.510835 
L 365.275028 145.344962 
L 365.655483 145.829449 
L 366.416392 149.10699 
L 367.177301 152.76864 
L 367.557756 153.395971 
L 368.318665 156.154982 
L 368.699119 163.235762 
L 369.079574 173.284354 
L 369.460028 175.303236 
L 369.840483 171.251918 
L 370.220937 164.67312 
L 370.601392 154.985503 
L 370.981847 148.61442 
L 371.362301 147.03266 
L 371.742756 142.193507 
L 372.12321 131.224207 
L 372.884119 122.555909 
L 373.264574 120.174256 
L 373.645028 120.236125 
L 374.025483 123.403508 
L 374.786392 133.799378 
L 375.927756 160.243198 
L 376.30821 163.353579 
L 376.688665 164.696419 
L 377.069119 162.157643 
L 377.449574 157.993891 
L 377.830028 148.819121 
L 378.590937 125.493683 
L 378.971392 121.171767 
L 379.351847 120.521136 
L 379.732301 122.163638 
L 380.112756 126.931919 
L 380.873665 141.715952 
L 381.634574 145.008053 
L 382.015028 148.049268 
L 382.395483 152.06166 
L 383.156392 172.07737 
L 383.536847 170.982547 
L 383.917301 165.818901 
L 384.297756 158.978642 
L 384.67821 155.880402 
L 385.058665 155.346284 
L 385.439119 154.174477 
L 386.580483 127.060039 
L 386.580483 127.060039 
" clip-path="url(#p4b2729939b)" style="fill: none; stroke: #ff7f0e; stroke-linecap: square"/>
   </g>
   <g id="patch_19">
    <path d="M 234.779119 185.59875 
L 234.779119 109.99875 
" style="fill: none; stroke: #000000; stroke-width: 0.8; stroke-linejoin: miter; stroke-linecap: square"/>
   </g>
   <g id="patch_20">
    <path d="M 386.960937 185.59875 
L 386.960937 109.99875 
" style="fill: none; stroke: #000000; stroke-width: 0.8; stroke-linejoin: miter; stroke-linecap: square"/>
   </g>
   <g id="patch_21">
    <path d="M 234.779119 185.59875 
L 386.960937 185.59875 
" style="fill: none; stroke: #000000; stroke-width: 0.8; stroke-linejoin: miter; stroke-linecap: square"/>
   </g>
   <g id="patch_22">
    <path d="M 234.779119 109.99875 
L 386.960937 109.99875 
" style="fill: none; stroke: #000000; stroke-width: 0.8; stroke-linejoin: miter; stroke-linecap: square"/>
   </g>
   <g id="text_26">
    <!-- eps. 12 -->
    <g transform="translate(296.153153 103.99875)scale(0.08 -0.08)">
     <use xlink:href="#DejaVuSans-65"/>
     <use xlink:href="#DejaVuSans-70" x="61.523438"/>
     <use xlink:href="#DejaVuSans-73" x="125"/>
     <use xlink:href="#DejaVuSans-2e" x="177.099609"/>
     <use xlink:href="#DejaVuSans-20" x="208.886719"/>
     <use xlink:href="#DejaVuSans-31" x="240.673828"/>
     <use xlink:href="#DejaVuSans-32" x="304.296875"/>
    </g>
   </g>
  </g>
 </g>
 <defs>
  <clipPath id="pc771a09530">
   <rect x="52.160938" y="19.27875" width="152.181818" height="75.6"/>
  </clipPath>
  <clipPath id="p4089c6e142">
   <rect x="234.779119" y="19.27875" width="152.181818" height="75.6"/>
  </clipPath>
  <clipPath id="pfb3009467e">
   <rect x="52.160938" y="109.99875" width="152.181818" height="75.6"/>
  </clipPath>
  <clipPath id="p4b2729939b">
   <rect x="234.779119" y="109.99875" width="152.181818" height="75.6"/>
  </clipPath>
 </defs>
</svg>
