<?xml version="1.0" encoding="utf-8" standalone="no"?>
<!DOCTYPE svg PUBLIC "-//W3C//DTD SVG 1.1//EN"
  "http://www.w3.org/Graphics/SVG/1.1/DTD/svg11.dtd">
<svg xmlns:xlink="http://www.w3.org/1999/xlink" width="408.05pt" height="223.155pt" viewBox="0 0 408.05 223.155" xmlns="http://www.w3.org/2000/svg" version="1.1">
 <metadata>
  <rdf:RDF xmlns:dc="http://purl.org/dc/elements/1.1/" xmlns:cc="http://creativecommons.org/ns#" xmlns:rdf="http://www.w3.org/1999/02/22-rdf-syntax-ns#">
   <cc:Work>
    <dc:type rdf:resource="http://purl.org/dc/dcmitype/StillImage"/>
    <dc:date>2023-02-27T21:51:54.681179</dc:date>
    <dc:format>image/svg+xml</dc:format>
    <dc:creator>
     <cc:Agent>
      <dc:title>Matplotlib v3.5.1, https://matplotlib.org/</dc:title>
     </cc:Agent>
    </dc:creator>
   </cc:Work>
  </rdf:RDF>
 </metadata>
 <defs>
  <style type="text/css">*{stroke-linejoin: round; stroke-linecap: butt}</style>
 </defs>
 <g id="figure_1">
  <g id="patch_1">
   <path d="M 0 223.155 
L 408.05 223.155 
L 408.05 0 
L 0 0 
z
" style="fill: #ffffff"/>
  </g>
  <g id="axes_1">
   <g id="patch_2">
    <path d="M 56.50625 94.87875 
L 208.688068 94.87875 
L 208.688068 19.27875 
L 56.50625 19.27875 
z
" style="fill: #ffffff"/>
   </g>
   <g id="matplotlib.axis_1">
    <g id="xtick_1">
     <g id="line2d_1">
      <defs>
       <path id="mcd15f50cae" d="M 0 0 
L 0 3.5 
" style="stroke: #000000; stroke-width: 0.8"/>
      </defs>
      <g>
       <use xlink:href="#mcd15f50cae" x="56.50625" y="94.87875" style="stroke: #000000; stroke-width: 0.8"/>
      </g>
     </g>
    </g>
    <g id="xtick_2">
     <g id="line2d_2">
      <g>
       <use xlink:href="#mcd15f50cae" x="94.551705" y="94.87875" style="stroke: #000000; stroke-width: 0.8"/>
      </g>
     </g>
    </g>
    <g id="xtick_3">
     <g id="line2d_3">
      <g>
       <use xlink:href="#mcd15f50cae" x="132.597159" y="94.87875" style="stroke: #000000; stroke-width: 0.8"/>
      </g>
     </g>
    </g>
    <g id="xtick_4">
     <g id="line2d_4">
      <g>
       <use xlink:href="#mcd15f50cae" x="170.642614" y="94.87875" style="stroke: #000000; stroke-width: 0.8"/>
      </g>
     </g>
    </g>
    <g id="xtick_5">
     <g id="line2d_5">
      <g>
       <use xlink:href="#mcd15f50cae" x="208.688068" y="94.87875" style="stroke: #000000; stroke-width: 0.8"/>
      </g>
     </g>
    </g>
   </g>
   <g id="matplotlib.axis_2">
    <g id="ytick_1">
     <g id="line2d_6">
      <defs>
       <path id="m5b6ffeb683" d="M 0 0 
L -3.5 0 
" style="stroke: #000000; stroke-width: 0.8"/>
      </defs>
      <g>
       <use xlink:href="#m5b6ffeb683" x="56.50625" y="94.727832" style="stroke: #000000; stroke-width: 0.8"/>
      </g>
     </g>
     <g id="text_1">
      <!-- 0.025 -->
      <g transform="translate(20.878125 98.52705)scale(0.1 -0.1)">
       <defs>
        <path id="DejaVuSans-30" d="M 2034 4250 
Q 1547 4250 1301 3770 
Q 1056 3291 1056 2328 
Q 1056 1369 1301 889 
Q 1547 409 2034 409 
Q 2525 409 2770 889 
Q 3016 1369 3016 2328 
Q 3016 3291 2770 3770 
Q 2525 4250 2034 4250 
z
M 2034 4750 
Q 2819 4750 3233 4129 
Q 3647 3509 3647 2328 
Q 3647 1150 3233 529 
Q 2819 -91 2034 -91 
Q 1250 -91 836 529 
Q 422 1150 422 2328 
Q 422 3509 836 4129 
Q 1250 4750 2034 4750 
z
" transform="scale(0.015625)"/>
        <path id="DejaVuSans-2e" d="M 684 794 
L 1344 794 
L 1344 0 
L 684 0 
L 684 794 
z
" transform="scale(0.015625)"/>
        <path id="DejaVuSans-32" d="M 1228 531 
L 3431 531 
L 3431 0 
L 469 0 
L 469 531 
Q 828 903 1448 1529 
Q 2069 2156 2228 2338 
Q 2531 2678 2651 2914 
Q 2772 3150 2772 3378 
Q 2772 3750 2511 3984 
Q 2250 4219 1831 4219 
Q 1534 4219 1204 4116 
Q 875 4013 500 3803 
L 500 4441 
Q 881 4594 1212 4672 
Q 1544 4750 1819 4750 
Q 2544 4750 2975 4387 
Q 3406 4025 3406 3419 
Q 3406 3131 3298 2873 
Q 3191 2616 2906 2266 
Q 2828 2175 2409 1742 
Q 1991 1309 1228 531 
z
" transform="scale(0.015625)"/>
        <path id="DejaVuSans-35" d="M 691 4666 
L 3169 4666 
L 3169 4134 
L 1269 4134 
L 1269 2991 
Q 1406 3038 1543 3061 
Q 1681 3084 1819 3084 
Q 2600 3084 3056 2656 
Q 3513 2228 3513 1497 
Q 3513 744 3044 326 
Q 2575 -91 1722 -91 
Q 1428 -91 1123 -41 
Q 819 9 494 109 
L 494 744 
Q 775 591 1075 516 
Q 1375 441 1709 441 
Q 2250 441 2565 725 
Q 2881 1009 2881 1497 
Q 2881 1984 2565 2268 
Q 2250 2553 1709 2553 
Q 1456 2553 1204 2497 
Q 953 2441 691 2322 
L 691 4666 
z
" transform="scale(0.015625)"/>
       </defs>
       <use xlink:href="#DejaVuSans-30"/>
       <use xlink:href="#DejaVuSans-2e" x="63.623047"/>
       <use xlink:href="#DejaVuSans-30" x="95.410156"/>
       <use xlink:href="#DejaVuSans-32" x="159.033203"/>
       <use xlink:href="#DejaVuSans-35" x="222.65625"/>
      </g>
     </g>
    </g>
    <g id="ytick_2">
     <g id="line2d_7">
      <g>
       <use xlink:href="#m5b6ffeb683" x="56.50625" y="63.820764" style="stroke: #000000; stroke-width: 0.8"/>
      </g>
     </g>
     <g id="text_2">
      <!-- 0.050 -->
      <g transform="translate(20.878125 67.619982)scale(0.1 -0.1)">
       <use xlink:href="#DejaVuSans-30"/>
       <use xlink:href="#DejaVuSans-2e" x="63.623047"/>
       <use xlink:href="#DejaVuSans-30" x="95.410156"/>
       <use xlink:href="#DejaVuSans-35" x="159.033203"/>
       <use xlink:href="#DejaVuSans-30" x="222.65625"/>
      </g>
     </g>
    </g>
    <g id="ytick_3">
     <g id="line2d_8">
      <g>
       <use xlink:href="#m5b6ffeb683" x="56.50625" y="32.913696" style="stroke: #000000; stroke-width: 0.8"/>
      </g>
     </g>
     <g id="text_3">
      <!-- 0.075 -->
      <g transform="translate(20.878125 36.712914)scale(0.1 -0.1)">
       <defs>
        <path id="DejaVuSans-37" d="M 525 4666 
L 3525 4666 
L 3525 4397 
L 1831 0 
L 1172 0 
L 2766 4134 
L 525 4134 
L 525 4666 
z
" transform="scale(0.015625)"/>
       </defs>
       <use xlink:href="#DejaVuSans-30"/>
       <use xlink:href="#DejaVuSans-2e" x="63.623047"/>
       <use xlink:href="#DejaVuSans-30" x="95.410156"/>
       <use xlink:href="#DejaVuSans-37" x="159.033203"/>
       <use xlink:href="#DejaVuSans-35" x="222.65625"/>
      </g>
     </g>
    </g>
    <g id="text_4">
     <!-- $Var(\tilde{\omega})$ -->
     <g transform="translate(14.798437 73.72875)rotate(-90)scale(0.1 -0.1)">
      <defs>
       <path id="DejaVuSans-Oblique-56" d="M 1319 0 
L 500 4666 
L 1119 4666 
L 1797 653 
L 4063 4666 
L 4750 4666 
L 2053 0 
L 1319 0 
z
" transform="scale(0.015625)"/>
       <path id="DejaVuSans-Oblique-61" d="M 3438 1997 
L 3047 0 
L 2472 0 
L 2578 531 
Q 2325 219 2001 64 
Q 1678 -91 1281 -91 
Q 834 -91 548 182 
Q 263 456 263 884 
Q 263 1497 752 1853 
Q 1241 2209 2100 2209 
L 2900 2209 
L 2931 2363 
Q 2938 2388 2941 2417 
Q 2944 2447 2944 2509 
Q 2944 2788 2717 2942 
Q 2491 3097 2081 3097 
Q 1800 3097 1504 3025 
Q 1209 2953 897 2809 
L 997 3341 
Q 1322 3463 1633 3523 
Q 1944 3584 2234 3584 
Q 2853 3584 3176 3315 
Q 3500 3047 3500 2534 
Q 3500 2431 3484 2292 
Q 3469 2153 3438 1997 
z
M 2816 1759 
L 2241 1759 
Q 1534 1759 1195 1570 
Q 856 1381 856 984 
Q 856 709 1029 553 
Q 1203 397 1509 397 
Q 1978 397 2328 733 
Q 2678 1069 2791 1631 
L 2816 1759 
z
" transform="scale(0.015625)"/>
       <path id="DejaVuSans-Oblique-72" d="M 2853 2969 
Q 2766 3016 2653 3041 
Q 2541 3066 2413 3066 
Q 1953 3066 1609 2717 
Q 1266 2369 1153 1784 
L 800 0 
L 225 0 
L 909 3500 
L 1484 3500 
L 1375 2956 
Q 1603 3259 1920 3421 
Q 2238 3584 2597 3584 
Q 2691 3584 2781 3573 
Q 2872 3563 2963 3538 
L 2853 2969 
z
" transform="scale(0.015625)"/>
       <path id="DejaVuSans-28" d="M 1984 4856 
Q 1566 4138 1362 3434 
Q 1159 2731 1159 2009 
Q 1159 1288 1364 580 
Q 1569 -128 1984 -844 
L 1484 -844 
Q 1016 -109 783 600 
Q 550 1309 550 2009 
Q 550 2706 781 3412 
Q 1013 4119 1484 4856 
L 1984 4856 
z
" transform="scale(0.015625)"/>
       <path id="DejaVuSans-303" d="M -1619 4281 
L -1797 4453 
Q -1866 4516 -1917 4545 
Q -1969 4575 -2009 4575 
Q -2128 4575 -2184 4461 
Q -2241 4347 -2247 4091 
L -2638 4091 
Q -2631 4513 -2472 4742 
Q -2313 4972 -2028 4972 
Q -1909 4972 -1809 4928 
Q -1709 4884 -1594 4781 
L -1416 4609 
Q -1347 4547 -1295 4517 
Q -1244 4488 -1203 4488 
Q -1084 4488 -1028 4602 
Q -972 4716 -966 4972 
L -575 4972 
Q -581 4550 -740 4320 
Q -900 4091 -1184 4091 
Q -1303 4091 -1403 4134 
Q -1503 4178 -1619 4281 
z
" transform="scale(0.015625)"/>
       <path id="DejaVuSans-Oblique-3c9" d="M 1369 -91 
Q 72 -91 434 1766 
Q 575 2500 1256 3500 
L 1875 3500 
Q 1231 2500 1088 1750 
Q 819 397 1519 397 
Q 2166 397 2478 2078 
L 3009 2078 
Q 2669 388 3316 397 
Q 4013 403 4275 1750 
Q 4419 2500 4169 3500 
L 4788 3500 
Q 5075 2500 4934 1766 
Q 4578 -94 3278 -91 
Q 2428 -88 2503 844 
Q 2194 -91 1369 -91 
z
" transform="scale(0.015625)"/>
       <path id="DejaVuSans-29" d="M 513 4856 
L 1013 4856 
Q 1481 4119 1714 3412 
Q 1947 2706 1947 2009 
Q 1947 1309 1714 600 
Q 1481 -109 1013 -844 
L 513 -844 
Q 928 -128 1133 580 
Q 1338 1288 1338 2009 
Q 1338 2731 1133 3434 
Q 928 4138 513 4856 
z
" transform="scale(0.015625)"/>
      </defs>
      <use xlink:href="#DejaVuSans-Oblique-56" transform="translate(0 0.046875)"/>
      <use xlink:href="#DejaVuSans-Oblique-61" transform="translate(68.408203 0.046875)"/>
      <use xlink:href="#DejaVuSans-Oblique-72" transform="translate(129.6875 0.046875)"/>
      <use xlink:href="#DejaVuSans-28" transform="translate(170.800781 0.046875)"/>
      <use xlink:href="#DejaVuSans-303" transform="translate(286.968262 3.3125)"/>
      <use xlink:href="#DejaVuSans-Oblique-3c9" transform="translate(209.814453 0.046875)"/>
      <use xlink:href="#DejaVuSans-29" transform="translate(293.554688 0.046875)"/>
     </g>
    </g>
   </g>
   <g id="line2d_9">
    <path d="M 56.50625 55.053969 
L 58.028068 55.191519 
L 61.832614 55.066901 
L 64.87625 55.167199 
L 66.778523 55.203639 
L 69.441705 54.98938 
L 72.104886 55.182983 
L 77.050795 54.968827 
L 77.811705 55.060226 
L 78.953068 55.212238 
L 80.855341 55.110761 
L 82.377159 54.995543 
L 84.279432 55.137459 
L 85.420795 55.21538 
L 90.366705 55.004948 
L 91.508068 55.040555 
L 93.029886 55.188263 
L 94.932159 55.076309 
L 96.453977 55.001503 
L 99.878068 55.13687 
L 101.780341 55.0105 
L 104.443523 55.001707 
L 105.584886 55.115919 
L 107.106705 55.199038 
L 108.248068 55.114086 
L 109.769886 54.961635 
L 111.672159 55.106153 
L 113.193977 55.149638 
L 115.476705 55.018237 
L 121.183523 55.177809 
L 122.705341 55.013191 
L 124.607614 54.922035 
L 127.270795 55.175155 
L 129.553523 54.984152 
L 131.075341 54.965255 
L 132.597159 54.910937 
L 134.879886 55.208631 
L 137.543068 55.081542 
L 139.825795 55.231248 
L 141.347614 55.113543 
L 142.488977 55.033103 
L 145.913068 54.997064 
L 148.195795 55.153332 
L 149.337159 55.080051 
L 151.239432 54.976735 
L 153.902614 55.15252 
L 159.228977 54.9518 
L 160.370341 55.096158 
L 161.511705 55.173759 
L 163.413977 55.077804 
L 164.935795 55.028518 
L 167.598977 55.195961 
L 172.544886 54.961471 
L 173.68625 55.042686 
L 174.827614 55.180669 
L 176.349432 55.143582 
L 177.87125 54.980684 
L 179.393068 55.052099 
L 181.675795 55.154535 
L 186.621705 54.911469 
L 188.904432 55.235005 
L 190.045795 55.164452 
L 191.567614 55.041488 
L 195.752614 55.090651 
L 196.893977 55.017578 
L 204.122614 55.023152 
L 205.644432 54.987266 
L 208.307614 55.160469 
L 208.307614 55.160469 
" clip-path="url(#p48c9f25651)" style="fill: none; stroke: #1f77b4; stroke-linecap: square"/>
   </g>
   <g id="line2d_10">
    <path d="M 56.50625 55.053969 
L 58.028068 55.191301 
L 61.832614 55.056043 
L 67.919886 55.038358 
L 69.06125 54.975373 
L 73.24625 55.089829 
L 74.768068 55.036339 
L 81.235795 55.092763 
L 83.138068 54.978507 
L 86.562159 55.153236 
L 89.605795 55.000336 
L 91.508068 54.97411 
L 93.029886 55.172783 
L 105.965341 55.099754 
L 106.72625 55.200156 
L 108.248068 55.160336 
L 110.150341 54.983054 
L 112.052614 55.139837 
L 113.193977 55.214171 
L 119.28125 54.948463 
L 120.422614 55.161125 
L 122.324886 55.159099 
L 123.846705 55.059795 
L 126.129432 55.20128 
L 128.031705 55.051648 
L 129.173068 55.035419 
L 131.455795 54.942993 
L 132.597159 55.010792 
L 133.738523 55.159005 
L 136.02125 55.046728 
L 137.162614 55.021539 
L 140.586705 55.131326 
L 142.869432 55.03359 
L 146.673977 55.075562 
L 147.815341 55.170783 
L 149.717614 55.061987 
L 151.239432 54.981944 
L 155.043977 55.129774 
L 156.94625 55.034796 
L 159.609432 54.931823 
L 161.13125 55.167802 
L 163.033523 55.107459 
L 164.555341 55.047848 
L 166.838068 55.195895 
L 168.740341 55.04631 
L 169.881705 55.013134 
L 173.68625 55.1133 
L 174.827614 55.190294 
L 175.968977 55.144946 
L 177.490795 55.005828 
L 179.393068 55.116854 
L 180.914886 55.188196 
L 184.338977 55.007694 
L 186.621705 55.041038 
L 188.523977 55.206152 
L 189.665341 55.11945 
L 191.187159 54.933007 
L 192.708977 55.027929 
L 194.230795 55.197535 
L 200.318068 55.044921 
L 201.839886 55.185831 
L 203.742159 55.106531 
L 205.644432 54.992674 
L 208.307614 55.156813 
L 208.307614 55.156813 
" clip-path="url(#p48c9f25651)" style="fill: none; stroke: #ff7f0e; stroke-linecap: square"/>
   </g>
   <g id="patch_3">
    <path d="M 56.50625 94.87875 
L 56.50625 19.27875 
" style="fill: none; stroke: #000000; stroke-width: 0.8; stroke-linejoin: miter; stroke-linecap: square"/>
   </g>
   <g id="patch_4">
    <path d="M 208.688068 94.87875 
L 208.688068 19.27875 
" style="fill: none; stroke: #000000; stroke-width: 0.8; stroke-linejoin: miter; stroke-linecap: square"/>
   </g>
   <g id="patch_5">
    <path d="M 56.50625 94.87875 
L 208.688068 94.87875 
" style="fill: none; stroke: #000000; stroke-width: 0.8; stroke-linejoin: miter; stroke-linecap: square"/>
   </g>
   <g id="patch_6">
    <path d="M 56.50625 19.27875 
L 208.688068 19.27875 
" style="fill: none; stroke: #000000; stroke-width: 0.8; stroke-linejoin: miter; stroke-linecap: square"/>
   </g>
   <g id="text_5">
    <!-- eps. 0 -->
    <g transform="translate(120.425284 13.27875)scale(0.08 -0.08)">
     <defs>
      <path id="DejaVuSans-65" d="M 3597 1894 
L 3597 1613 
L 953 1613 
Q 991 1019 1311 708 
Q 1631 397 2203 397 
Q 2534 397 2845 478 
Q 3156 559 3463 722 
L 3463 178 
Q 3153 47 2828 -22 
Q 2503 -91 2169 -91 
Q 1331 -91 842 396 
Q 353 884 353 1716 
Q 353 2575 817 3079 
Q 1281 3584 2069 3584 
Q 2775 3584 3186 3129 
Q 3597 2675 3597 1894 
z
M 3022 2063 
Q 3016 2534 2758 2815 
Q 2500 3097 2075 3097 
Q 1594 3097 1305 2825 
Q 1016 2553 972 2059 
L 3022 2063 
z
" transform="scale(0.015625)"/>
      <path id="DejaVuSans-70" d="M 1159 525 
L 1159 -1331 
L 581 -1331 
L 581 3500 
L 1159 3500 
L 1159 2969 
Q 1341 3281 1617 3432 
Q 1894 3584 2278 3584 
Q 2916 3584 3314 3078 
Q 3713 2572 3713 1747 
Q 3713 922 3314 415 
Q 2916 -91 2278 -91 
Q 1894 -91 1617 61 
Q 1341 213 1159 525 
z
M 3116 1747 
Q 3116 2381 2855 2742 
Q 2594 3103 2138 3103 
Q 1681 3103 1420 2742 
Q 1159 2381 1159 1747 
Q 1159 1113 1420 752 
Q 1681 391 2138 391 
Q 2594 391 2855 752 
Q 3116 1113 3116 1747 
z
" transform="scale(0.015625)"/>
      <path id="DejaVuSans-73" d="M 2834 3397 
L 2834 2853 
Q 2591 2978 2328 3040 
Q 2066 3103 1784 3103 
Q 1356 3103 1142 2972 
Q 928 2841 928 2578 
Q 928 2378 1081 2264 
Q 1234 2150 1697 2047 
L 1894 2003 
Q 2506 1872 2764 1633 
Q 3022 1394 3022 966 
Q 3022 478 2636 193 
Q 2250 -91 1575 -91 
Q 1294 -91 989 -36 
Q 684 19 347 128 
L 347 722 
Q 666 556 975 473 
Q 1284 391 1588 391 
Q 1994 391 2212 530 
Q 2431 669 2431 922 
Q 2431 1156 2273 1281 
Q 2116 1406 1581 1522 
L 1381 1569 
Q 847 1681 609 1914 
Q 372 2147 372 2553 
Q 372 3047 722 3315 
Q 1072 3584 1716 3584 
Q 2034 3584 2315 3537 
Q 2597 3491 2834 3397 
z
" transform="scale(0.015625)"/>
      <path id="DejaVuSans-20" transform="scale(0.015625)"/>
     </defs>
     <use xlink:href="#DejaVuSans-65"/>
     <use xlink:href="#DejaVuSans-70" x="61.523438"/>
     <use xlink:href="#DejaVuSans-73" x="125"/>
     <use xlink:href="#DejaVuSans-2e" x="177.099609"/>
     <use xlink:href="#DejaVuSans-20" x="208.886719"/>
     <use xlink:href="#DejaVuSans-30" x="240.673828"/>
    </g>
   </g>
   <g id="legend_1">
    <g id="patch_7">
     <path d="M 143.528068 32.885625 
L 204.488068 32.885625 
Q 205.688068 32.885625 205.688068 31.685625 
L 205.688068 23.47875 
Q 205.688068 22.27875 204.488068 22.27875 
L 143.528068 22.27875 
Q 142.328068 22.27875 142.328068 23.47875 
L 142.328068 31.685625 
Q 142.328068 32.885625 143.528068 32.885625 
z
" style="fill: #ffffff; opacity: 0.8; stroke: #cccccc; stroke-linejoin: miter"/>
    </g>
    <g id="line2d_11">
     <path d="M 144.728068 27.137813 
L 150.728068 27.137813 
L 156.728068 27.137813 
" style="fill: none; stroke: #1f77b4; stroke-linecap: square"/>
    </g>
    <g id="text_6">
     <!-- $\tau_0$ -->
     <g transform="translate(161.528068 29.237813)scale(0.06 -0.06)">
      <defs>
       <path id="DejaVuSans-Oblique-3c4" d="M 2103 638 
Q 2188 488 2525 488 
L 2800 488 
L 2706 0 
L 2363 0 
Q 1800 0 1600 300 
Q 1403 606 1534 1269 
L 1856 2925 
L 541 2925 
L 653 3500 
L 3881 3500 
L 3769 2925 
L 2444 2925 
L 2113 1234 
Q 2025 781 2103 638 
z
" transform="scale(0.015625)"/>
      </defs>
      <use xlink:href="#DejaVuSans-Oblique-3c4" transform="translate(0 0.3125)"/>
      <use xlink:href="#DejaVuSans-30" transform="translate(60.205078 -16.09375)scale(0.7)"/>
     </g>
    </g>
    <g id="line2d_12">
     <path d="M 180.008068 27.137813 
L 186.008068 27.137813 
L 192.008068 27.137813 
" style="fill: none; stroke: #ff7f0e; stroke-linecap: square"/>
    </g>
    <g id="text_7">
     <!-- $\tau_1$ -->
     <g transform="translate(196.808068 29.237813)scale(0.06 -0.06)">
      <defs>
       <path id="DejaVuSans-31" d="M 794 531 
L 1825 531 
L 1825 4091 
L 703 3866 
L 703 4441 
L 1819 4666 
L 2450 4666 
L 2450 531 
L 3481 531 
L 3481 0 
L 794 0 
L 794 531 
z
" transform="scale(0.015625)"/>
      </defs>
      <use xlink:href="#DejaVuSans-Oblique-3c4" transform="translate(0 0.3125)"/>
      <use xlink:href="#DejaVuSans-31" transform="translate(60.205078 -16.09375)scale(0.7)"/>
     </g>
    </g>
   </g>
  </g>
  <g id="axes_2">
   <g id="patch_8">
    <path d="M 239.124432 94.87875 
L 391.30625 94.87875 
L 391.30625 19.27875 
L 239.124432 19.27875 
z
" style="fill: #ffffff"/>
   </g>
   <g id="matplotlib.axis_3">
    <g id="xtick_6">
     <g id="line2d_13">
      <g>
       <use xlink:href="#mcd15f50cae" x="239.124432" y="94.87875" style="stroke: #000000; stroke-width: 0.8"/>
      </g>
     </g>
    </g>
    <g id="xtick_7">
     <g id="line2d_14">
      <g>
       <use xlink:href="#mcd15f50cae" x="277.169886" y="94.87875" style="stroke: #000000; stroke-width: 0.8"/>
      </g>
     </g>
    </g>
    <g id="xtick_8">
     <g id="line2d_15">
      <g>
       <use xlink:href="#mcd15f50cae" x="315.215341" y="94.87875" style="stroke: #000000; stroke-width: 0.8"/>
      </g>
     </g>
    </g>
    <g id="xtick_9">
     <g id="line2d_16">
      <g>
       <use xlink:href="#mcd15f50cae" x="353.260795" y="94.87875" style="stroke: #000000; stroke-width: 0.8"/>
      </g>
     </g>
    </g>
    <g id="xtick_10">
     <g id="line2d_17">
      <g>
       <use xlink:href="#mcd15f50cae" x="391.30625" y="94.87875" style="stroke: #000000; stroke-width: 0.8"/>
      </g>
     </g>
    </g>
   </g>
   <g id="matplotlib.axis_4">
    <g id="ytick_4">
     <g id="line2d_18">
      <g>
       <use xlink:href="#m5b6ffeb683" x="239.124432" y="94.727832" style="stroke: #000000; stroke-width: 0.8"/>
      </g>
     </g>
    </g>
    <g id="ytick_5">
     <g id="line2d_19">
      <g>
       <use xlink:href="#m5b6ffeb683" x="239.124432" y="63.820764" style="stroke: #000000; stroke-width: 0.8"/>
      </g>
     </g>
    </g>
    <g id="ytick_6">
     <g id="line2d_20">
      <g>
       <use xlink:href="#m5b6ffeb683" x="239.124432" y="32.913696" style="stroke: #000000; stroke-width: 0.8"/>
      </g>
     </g>
    </g>
   </g>
   <g id="line2d_21">
    <path d="M 239.124432 63.923511 
L 239.504886 62.945589 
L 240.64625 54.689511 
L 241.026705 53.033606 
L 241.407159 52.051994 
L 241.787614 52.337199 
L 242.548523 55.183016 
L 242.928977 55.538753 
L 243.309432 54.8761 
L 243.689886 51.137411 
L 244.070341 49.455041 
L 244.450795 48.939996 
L 244.83125 48.885496 
L 245.211705 50.057191 
L 245.592159 51.68191 
L 246.733523 58.458712 
L 247.494432 61.260544 
L 247.874886 62.121023 
L 248.255341 62.298474 
L 248.635795 62.014638 
L 249.01625 60.039401 
L 250.157614 44.932459 
L 250.538068 47.549101 
L 251.679432 59.959035 
L 252.059886 61.860058 
L 252.440341 62.92794 
L 252.820795 63.476256 
L 253.20125 62.666223 
L 254.723068 52.402199 
L 255.103523 51.100615 
L 255.483977 51.184857 
L 255.864432 52.411163 
L 256.244886 54.21776 
L 256.625341 55.177409 
L 257.005795 55.226345 
L 257.38625 51.84315 
L 257.766705 50.475383 
L 258.147159 50.096878 
L 258.527614 50.281334 
L 258.908068 51.118048 
L 259.288523 52.295427 
L 260.049432 55.957697 
L 260.810341 59.186023 
L 261.57125 61.476387 
L 261.951705 61.706164 
L 262.332159 61.450524 
L 262.712614 58.716026 
L 263.473523 47.41707 
L 263.853977 44.818878 
L 264.234432 47.718848 
L 265.375795 60.316111 
L 266.136705 63.380482 
L 266.517159 64.345135 
L 266.897614 63.728926 
L 267.278068 61.849315 
L 268.038977 56.824782 
L 268.799886 54.34993 
L 269.180341 54.111516 
L 269.560795 54.747724 
L 269.94125 55.928383 
L 270.321705 56.28729 
L 270.702159 56.40402 
L 271.463068 52.818398 
L 271.843523 52.121514 
L 272.223977 51.917561 
L 272.604432 52.408092 
L 272.984886 53.692516 
L 273.365341 55.580545 
L 273.745795 56.891537 
L 274.506705 59.934048 
L 274.887159 61.269522 
L 275.267614 62.140783 
L 275.648068 62.425577 
L 276.028523 62.062119 
L 276.408977 60.483076 
L 276.789432 55.880999 
L 277.169886 49.489706 
L 277.550341 45.239798 
L 277.930795 47.27523 
L 278.691705 55.255721 
L 279.072159 59.303184 
L 279.452614 61.576027 
L 279.833068 63.06265 
L 280.213523 63.926059 
L 280.593977 63.397135 
L 280.974432 61.599215 
L 281.735341 56.300075 
L 282.115795 54.823741 
L 282.49625 53.813436 
L 282.876705 53.550745 
L 283.257159 54.251176 
L 283.637614 55.292366 
L 284.018068 55.870053 
L 284.398523 56.159738 
L 284.778977 54.730918 
L 285.159432 51.957317 
L 285.539886 50.803953 
L 285.920341 50.451748 
L 286.300795 50.758106 
L 286.68125 51.746749 
L 288.583523 60.371277 
L 288.963977 61.43383 
L 289.344432 61.845403 
L 289.724886 61.741277 
L 290.105341 60.576143 
L 290.485795 56.925249 
L 291.246705 46.584874 
L 291.627159 47.1392 
L 292.007614 50.042554 
L 293.148977 60.713817 
L 293.529432 62.536039 
L 293.909886 63.443081 
L 294.290341 63.318041 
L 294.670795 62.057031 
L 295.431705 57.959378 
L 296.192614 56.100424 
L 296.573068 55.753674 
L 296.953523 56.092872 
L 297.333977 56.686721 
L 297.714432 56.90035 
L 298.094886 56.842125 
L 298.475341 56.587165 
L 299.23625 52.457019 
L 299.616705 51.703455 
L 299.997159 51.960805 
L 300.377614 52.811175 
L 301.138523 56.240391 
L 301.899432 59.267811 
L 303.040795 62.450056 
L 303.42125 62.753747 
L 303.801705 62.530323 
L 304.182159 61.612942 
L 304.562614 60.157909 
L 304.943068 56.830734 
L 305.703977 47.40985 
L 306.084432 48.560698 
L 307.225795 59.315198 
L 307.60625 61.659724 
L 307.986705 63.00427 
L 308.367159 63.269638 
L 308.747614 62.757084 
L 309.128068 61.399952 
L 310.269432 55.683869 
L 310.649886 54.285124 
L 311.030341 53.500467 
L 311.410795 53.960327 
L 312.171705 56.649982 
L 312.552159 56.975575 
L 312.932614 55.984576 
L 313.313068 52.037139 
L 313.693523 49.837505 
L 314.073977 49.379865 
L 314.454432 49.914657 
L 314.834886 50.954798 
L 315.595795 54.857268 
L 316.737159 60.766594 
L 317.117614 62.32462 
L 317.498068 63.092417 
L 317.878523 62.761416 
L 318.258977 60.577279 
L 318.639432 55.46452 
L 319.019886 48.614343 
L 319.400341 44.334366 
L 319.780795 45.909829 
L 320.16125 49.964552 
L 320.922159 59.186227 
L 321.302614 61.085264 
L 322.063523 63.229596 
L 322.443977 63.755174 
L 322.824432 62.208955 
L 323.585341 56.208424 
L 323.965795 55.048438 
L 324.34625 54.320072 
L 324.726705 54.574486 
L 325.487614 56.167129 
L 325.868068 56.689296 
L 326.248523 56.42397 
L 326.628977 53.932487 
L 327.009432 52.265687 
L 327.389886 51.576542 
L 327.770341 51.343141 
L 328.150795 52.120015 
L 328.53125 53.526006 
L 329.672614 59.002365 
L 330.433523 61.726444 
L 330.813977 62.615573 
L 331.194432 62.617274 
L 331.574886 61.738733 
L 331.955341 59.74411 
L 332.71625 48.61696 
L 333.096705 46.809028 
L 333.857614 52.951963 
L 334.618523 59.721911 
L 334.998977 61.688426 
L 335.379432 62.669849 
L 335.759886 62.705615 
L 336.140341 61.813567 
L 336.90125 57.426886 
L 337.281705 56.146506 
L 338.042614 54.473043 
L 338.423068 54.15928 
L 339.183977 55.8616 
L 339.564432 56.134697 
L 339.944886 55.983589 
L 340.705795 50.834307 
L 341.08625 50.136063 
L 341.466705 50.133524 
L 341.847159 50.928409 
L 342.227614 52.358695 
L 343.368977 58.270494 
L 344.510341 62.611297 
L 344.890795 63.26173 
L 345.27125 63.203768 
L 345.651705 62.480567 
L 346.032159 60.315852 
L 346.793068 47.706842 
L 347.173523 45.262104 
L 347.553977 48.018216 
L 348.695341 59.758956 
L 349.075795 61.676526 
L 349.45625 62.901689 
L 349.836705 63.629612 
L 350.217159 63.132318 
L 350.597614 60.723635 
L 350.978068 57.548435 
L 351.358523 55.425264 
L 351.738977 54.274341 
L 352.119432 53.670739 
L 352.499886 54.139669 
L 353.260795 55.857226 
L 353.64125 56.243622 
L 354.021705 56.09339 
L 354.782614 50.932986 
L 355.163068 50.291377 
L 355.543523 50.192316 
L 355.923977 51.007174 
L 356.304432 52.411427 
L 357.445795 58.242573 
L 358.206705 60.916527 
L 358.587159 61.861806 
L 358.967614 62.154722 
L 359.348068 61.474025 
L 359.728523 59.380024 
L 360.869886 46.211053 
L 361.250341 48.353761 
L 362.772159 61.526611 
L 363.152614 63.149495 
L 363.533068 63.64007 
L 363.913523 63.170216 
L 365.435341 57.442932 
L 366.19625 56.145977 
L 366.957159 57.132932 
L 367.337614 57.344705 
L 367.718068 57.701904 
L 368.478977 54.392249 
L 368.859432 53.823971 
L 369.239886 53.791107 
L 369.620341 54.126118 
L 370.38125 55.955866 
L 371.522614 60.297184 
L 371.903068 61.876434 
L 372.283523 62.9458 
L 372.663977 63.016074 
L 373.044432 62.056044 
L 373.424886 59.370356 
L 374.185795 47.930919 
L 374.56625 46.120291 
L 374.946705 48.949672 
L 376.088068 60.129357 
L 376.848977 63.279737 
L 377.229432 64.102943 
L 377.609886 63.426115 
L 378.75125 57.138544 
L 379.131705 56.17886 
L 379.512159 55.743862 
L 379.892614 56.140971 
L 380.273068 56.815297 
L 380.653523 57.155197 
L 381.033977 57.28534 
L 381.414432 56.902824 
L 382.175341 52.75211 
L 382.555795 51.811629 
L 382.93625 51.722026 
L 383.316705 52.456844 
L 385.218977 60.041199 
L 385.599432 61.18594 
L 385.979886 61.859318 
L 386.360341 61.907149 
L 386.740795 61.188463 
L 387.12125 59.880292 
L 387.501705 57.250819 
L 388.262614 49.173866 
L 388.643068 48.911184 
L 389.023523 51.143353 
L 389.784432 57.050728 
L 390.164886 59.29317 
L 390.545341 60.740166 
L 390.925795 61.377421 
L 390.925795 61.377421 
" clip-path="url(#p084987b595)" style="fill: none; stroke: #1f77b4; stroke-linecap: square"/>
   </g>
   <g id="line2d_22">
    <path d="M 239.124432 63.923511 
L 239.504886 62.945172 
L 240.64625 54.679761 
L 241.026705 53.043007 
L 241.407159 52.070111 
L 241.787614 52.365649 
L 242.548523 55.224156 
L 242.928977 55.591409 
L 243.309432 54.89124 
L 243.689886 51.153636 
L 244.070341 49.556056 
L 244.450795 49.016589 
L 244.83125 48.990103 
L 245.211705 50.183229 
L 245.592159 51.755385 
L 247.113977 59.937805 
L 247.494432 61.205866 
L 247.874886 61.973399 
L 248.255341 62.075159 
L 248.635795 61.675508 
L 249.01625 58.980914 
L 249.777159 46.279521 
L 250.157614 45.349597 
L 250.538068 48.22901 
L 251.679432 60.4224 
L 252.059886 62.221792 
L 252.440341 63.206184 
L 252.820795 63.578421 
L 253.20125 62.404695 
L 254.342614 54.476234 
L 254.723068 53.208663 
L 255.103523 52.349042 
L 255.483977 52.894356 
L 256.244886 55.424696 
L 256.625341 55.603146 
L 257.005795 54.743499 
L 257.38625 51.465348 
L 257.766705 50.334868 
L 258.147159 49.977691 
L 258.527614 50.178436 
L 258.908068 51.134409 
L 259.288523 52.769301 
L 260.049432 56.953585 
L 260.810341 60.024586 
L 261.190795 61.210276 
L 261.57125 61.974162 
L 261.951705 62.158098 
L 262.332159 61.861774 
L 262.712614 60.118673 
L 263.093068 55.521192 
L 263.473523 49.259811 
L 263.853977 45.224571 
L 264.234432 47.401685 
L 265.375795 59.197325 
L 265.75625 61.377072 
L 266.136705 62.881088 
L 266.517159 63.789537 
L 266.897614 63.192735 
L 267.278068 61.42182 
L 268.038977 56.582669 
L 268.799886 53.662456 
L 269.180341 52.593327 
L 269.560795 52.796274 
L 269.94125 53.847763 
L 270.321705 55.276846 
L 270.702159 55.719818 
L 271.082614 55.464829 
L 271.463068 52.064245 
L 271.843523 50.783901 
L 272.223977 50.587994 
L 272.604432 50.796456 
L 272.984886 51.591894 
L 273.365341 53.063092 
L 274.12625 56.789487 
L 274.887159 59.990083 
L 275.267614 61.435898 
L 275.648068 62.296565 
L 276.028523 62.589476 
L 276.408977 62.303056 
L 276.789432 60.244295 
L 277.169886 54.967598 
L 277.550341 48.095742 
L 277.930795 44.861876 
L 278.31125 47.812018 
L 279.452614 60.401019 
L 280.213523 63.117648 
L 280.593977 63.878755 
L 280.974432 63.342196 
L 281.354886 60.998031 
L 282.115795 55.217265 
L 282.876705 52.743926 
L 283.257159 52.800431 
L 283.637614 53.863404 
L 284.018068 55.267298 
L 284.398523 55.763137 
L 284.778977 55.798357 
L 285.539886 51.02604 
L 285.920341 50.443352 
L 286.300795 50.52441 
L 286.68125 51.277181 
L 287.061705 52.785847 
L 287.822614 56.541717 
L 288.583523 59.660546 
L 289.344432 61.788372 
L 289.724886 62.18476 
L 290.105341 62.196912 
L 290.485795 61.151452 
L 290.86625 58.11092 
L 291.627159 46.779228 
L 292.007614 45.705804 
L 292.388068 49.241361 
L 293.148977 58.399604 
L 293.529432 61.097195 
L 294.290341 64.107169 
L 294.670795 64.161515 
L 295.05125 63.041896 
L 295.812159 58.213444 
L 296.573068 55.253212 
L 296.953523 53.730894 
L 297.333977 53.431003 
L 297.714432 54.41191 
L 298.094886 55.763063 
L 298.475341 56.283846 
L 298.855795 56.43912 
L 299.616705 51.935407 
L 299.997159 51.467359 
L 300.377614 51.536464 
L 300.758068 52.244467 
L 301.899432 57.093803 
L 302.660341 60.46179 
L 303.040795 61.935972 
L 303.42125 62.845072 
L 303.801705 63.054447 
L 304.182159 62.404143 
L 304.562614 59.724406 
L 305.323523 46.686029 
L 305.703977 45.17255 
L 306.084432 47.929383 
L 307.225795 60.984291 
L 307.60625 62.666835 
L 307.986705 63.655558 
L 308.367159 64.227039 
L 308.747614 63.146931 
L 309.128068 60.674344 
L 309.508523 56.96128 
L 309.888977 54.811472 
L 310.269432 53.568109 
L 310.649886 53.130292 
L 311.030341 53.963537 
L 311.410795 55.317706 
L 311.79125 55.932776 
L 312.171705 56.169965 
L 312.932614 51.485772 
L 313.313068 50.78062 
L 313.693523 50.530446 
L 314.073977 50.95778 
L 314.454432 51.948586 
L 316.356705 60.470907 
L 316.737159 61.565022 
L 317.117614 61.851682 
L 317.498068 61.722256 
L 317.878523 59.992628 
L 318.258977 55.457151 
L 318.639432 49.203416 
L 319.019886 45.282937 
L 319.400341 47.96638 
L 320.541705 60.526458 
L 320.922159 62.533637 
L 321.302614 63.816724 
L 321.683068 64.180944 
L 322.063523 63.407046 
L 322.443977 61.295609 
L 322.824432 58.135887 
L 323.204886 56.107671 
L 323.965795 53.521839 
L 324.34625 53.387006 
L 324.726705 54.226466 
L 325.107159 55.528883 
L 325.487614 56.186861 
L 325.868068 56.138814 
L 326.628977 51.52208 
L 327.009432 51.036122 
L 327.389886 51.162852 
L 327.770341 51.894555 
L 328.150795 53.359141 
L 328.53125 55.363687 
L 328.911705 56.694936 
L 329.672614 59.896304 
L 330.433523 62.279517 
L 330.813977 62.756315 
L 331.194432 62.530363 
L 331.574886 61.230827 
L 331.955341 57.384129 
L 332.71625 45.377452 
L 333.096705 46.712994 
L 333.477159 50.517213 
L 334.238068 60.204776 
L 334.618523 62.462406 
L 334.998977 63.881302 
L 335.379432 64.539634 
L 335.759886 63.90978 
L 336.140341 62.0957 
L 336.90125 56.258555 
L 337.281705 54.975124 
L 337.662159 54.172654 
L 338.042614 54.118609 
L 338.803523 55.738229 
L 339.183977 56.015517 
L 339.564432 55.903158 
L 340.325341 50.722629 
L 340.705795 49.853523 
L 341.08625 49.633033 
L 341.466705 50.16462 
L 342.227614 53.956215 
L 342.988523 58.01191 
L 343.749432 60.621162 
L 344.129886 61.474606 
L 344.510341 61.976684 
L 344.890795 62.045348 
L 345.27125 61.268376 
L 345.651705 59.321447 
L 346.793068 46.094277 
L 347.173523 48.681999 
L 348.314886 59.903343 
L 348.695341 62.065313 
L 349.075795 63.378743 
L 349.45625 63.452267 
L 349.836705 62.682407 
L 351.358523 55.343516 
L 351.738977 54.365286 
L 352.119432 53.774242 
L 352.499886 54.078921 
L 353.260795 55.994212 
L 353.64125 56.197113 
L 354.021705 55.741256 
L 354.402159 52.315098 
L 354.782614 50.322558 
L 355.163068 49.973338 
L 355.543523 50.306346 
L 355.923977 51.527753 
L 357.82625 60.684552 
L 358.587159 62.991253 
L 358.967614 63.246172 
L 359.348068 62.850196 
L 359.728523 61.381737 
L 360.108977 57.288618 
L 360.869886 45.201439 
L 361.250341 46.186093 
L 362.01125 55.009741 
L 362.391705 59.390509 
L 362.772159 61.749134 
L 363.533068 64.365828 
L 363.913523 64.010645 
L 364.293977 62.251282 
L 365.054886 56.295758 
L 365.815795 53.123224 
L 366.19625 52.532275 
L 366.576705 53.16765 
L 367.337614 55.754065 
L 367.718068 55.952052 
L 368.098523 53.557684 
L 368.478977 50.252728 
L 368.859432 49.243624 
L 369.239886 48.821086 
L 369.620341 49.391771 
L 370.38125 52.465856 
L 371.142159 57.251501 
L 371.903068 60.575033 
L 372.283523 61.750118 
L 372.663977 62.202387 
L 373.044432 62.120968 
L 373.424886 61.186622 
L 373.805341 56.981095 
L 374.56625 44.875822 
L 374.946705 45.840248 
L 375.327159 49.429997 
L 376.088068 58.786826 
L 376.468523 61.098426 
L 377.229432 63.32921 
L 377.609886 63.489408 
L 377.990341 61.825084 
L 378.75125 55.690609 
L 379.512159 52.929807 
L 379.892614 52.730548 
L 380.273068 53.586089 
L 380.653523 55.001661 
L 381.033977 55.82553 
L 381.414432 56.045436 
L 382.175341 51.728876 
L 382.555795 51.018091 
L 382.93625 50.729679 
L 383.316705 51.069188 
L 383.697159 52.185336 
L 385.599432 60.583808 
L 385.979886 61.739441 
L 386.360341 62.375048 
L 386.740795 62.235279 
L 387.12125 61.28236 
L 387.501705 58.29584 
L 388.262614 46.329101 
L 388.643068 47.004501 
L 389.403977 54.915758 
L 389.784432 59.171631 
L 390.164886 61.658182 
L 390.545341 63.31673 
L 390.925795 64.288404 
L 390.925795 64.288404 
" clip-path="url(#p084987b595)" style="fill: none; stroke: #ff7f0e; stroke-linecap: square"/>
   </g>
   <g id="patch_9">
    <path d="M 239.124432 94.87875 
L 239.124432 19.27875 
" style="fill: none; stroke: #000000; stroke-width: 0.8; stroke-linejoin: miter; stroke-linecap: square"/>
   </g>
   <g id="patch_10">
    <path d="M 391.30625 94.87875 
L 391.30625 19.27875 
" style="fill: none; stroke: #000000; stroke-width: 0.8; stroke-linejoin: miter; stroke-linecap: square"/>
   </g>
   <g id="patch_11">
    <path d="M 239.124432 94.87875 
L 391.30625 94.87875 
" style="fill: none; stroke: #000000; stroke-width: 0.8; stroke-linejoin: miter; stroke-linecap: square"/>
   </g>
   <g id="patch_12">
    <path d="M 239.124432 19.27875 
L 391.30625 19.27875 
" style="fill: none; stroke: #000000; stroke-width: 0.8; stroke-linejoin: miter; stroke-linecap: square"/>
   </g>
   <g id="text_8">
    <!-- eps. 4 -->
    <g transform="translate(303.043466 13.27875)scale(0.08 -0.08)">
     <defs>
      <path id="DejaVuSans-34" d="M 2419 4116 
L 825 1625 
L 2419 1625 
L 2419 4116 
z
M 2253 4666 
L 3047 4666 
L 3047 1625 
L 3713 1625 
L 3713 1100 
L 3047 1100 
L 3047 0 
L 2419 0 
L 2419 1100 
L 313 1100 
L 313 1709 
L 2253 4666 
z
" transform="scale(0.015625)"/>
     </defs>
     <use xlink:href="#DejaVuSans-65"/>
     <use xlink:href="#DejaVuSans-70" x="61.523438"/>
     <use xlink:href="#DejaVuSans-73" x="125"/>
     <use xlink:href="#DejaVuSans-2e" x="177.099609"/>
     <use xlink:href="#DejaVuSans-20" x="208.886719"/>
     <use xlink:href="#DejaVuSans-34" x="240.673828"/>
    </g>
   </g>
  </g>
  <g id="axes_3">
   <g id="patch_13">
    <path d="M 56.50625 185.59875 
L 208.688068 185.59875 
L 208.688068 109.99875 
L 56.50625 109.99875 
z
" style="fill: #ffffff"/>
   </g>
   <g id="matplotlib.axis_5">
    <g id="xtick_11">
     <g id="line2d_23">
      <g>
       <use xlink:href="#mcd15f50cae" x="56.50625" y="185.59875" style="stroke: #000000; stroke-width: 0.8"/>
      </g>
     </g>
     <g id="text_9">
      <!-- 0 -->
      <g transform="translate(53.325 200.197188)scale(0.1 -0.1)">
       <use xlink:href="#DejaVuSans-30"/>
      </g>
     </g>
    </g>
    <g id="xtick_12">
     <g id="line2d_24">
      <g>
       <use xlink:href="#mcd15f50cae" x="94.551705" y="185.59875" style="stroke: #000000; stroke-width: 0.8"/>
      </g>
     </g>
     <g id="text_10">
      <!-- 100 -->
      <g transform="translate(85.007955 200.197188)scale(0.1 -0.1)">
       <use xlink:href="#DejaVuSans-31"/>
       <use xlink:href="#DejaVuSans-30" x="63.623047"/>
       <use xlink:href="#DejaVuSans-30" x="127.246094"/>
      </g>
     </g>
    </g>
    <g id="xtick_13">
     <g id="line2d_25">
      <g>
       <use xlink:href="#mcd15f50cae" x="132.597159" y="185.59875" style="stroke: #000000; stroke-width: 0.8"/>
      </g>
     </g>
     <g id="text_11">
      <!-- 200 -->
      <g transform="translate(123.053409 200.197188)scale(0.1 -0.1)">
       <use xlink:href="#DejaVuSans-32"/>
       <use xlink:href="#DejaVuSans-30" x="63.623047"/>
       <use xlink:href="#DejaVuSans-30" x="127.246094"/>
      </g>
     </g>
    </g>
    <g id="xtick_14">
     <g id="line2d_26">
      <g>
       <use xlink:href="#mcd15f50cae" x="170.642614" y="185.59875" style="stroke: #000000; stroke-width: 0.8"/>
      </g>
     </g>
     <g id="text_12">
      <!-- 300 -->
      <g transform="translate(161.098864 200.197188)scale(0.1 -0.1)">
       <defs>
        <path id="DejaVuSans-33" d="M 2597 2516 
Q 3050 2419 3304 2112 
Q 3559 1806 3559 1356 
Q 3559 666 3084 287 
Q 2609 -91 1734 -91 
Q 1441 -91 1130 -33 
Q 819 25 488 141 
L 488 750 
Q 750 597 1062 519 
Q 1375 441 1716 441 
Q 2309 441 2620 675 
Q 2931 909 2931 1356 
Q 2931 1769 2642 2001 
Q 2353 2234 1838 2234 
L 1294 2234 
L 1294 2753 
L 1863 2753 
Q 2328 2753 2575 2939 
Q 2822 3125 2822 3475 
Q 2822 3834 2567 4026 
Q 2313 4219 1838 4219 
Q 1578 4219 1281 4162 
Q 984 4106 628 3988 
L 628 4550 
Q 988 4650 1302 4700 
Q 1616 4750 1894 4750 
Q 2613 4750 3031 4423 
Q 3450 4097 3450 3541 
Q 3450 3153 3228 2886 
Q 3006 2619 2597 2516 
z
" transform="scale(0.015625)"/>
       </defs>
       <use xlink:href="#DejaVuSans-33"/>
       <use xlink:href="#DejaVuSans-30" x="63.623047"/>
       <use xlink:href="#DejaVuSans-30" x="127.246094"/>
      </g>
     </g>
    </g>
    <g id="xtick_15">
     <g id="line2d_27">
      <g>
       <use xlink:href="#mcd15f50cae" x="208.688068" y="185.59875" style="stroke: #000000; stroke-width: 0.8"/>
      </g>
     </g>
     <g id="text_13">
      <!-- 400 -->
      <g transform="translate(199.144318 200.197188)scale(0.1 -0.1)">
       <use xlink:href="#DejaVuSans-34"/>
       <use xlink:href="#DejaVuSans-30" x="63.623047"/>
       <use xlink:href="#DejaVuSans-30" x="127.246094"/>
      </g>
     </g>
    </g>
    <g id="text_14">
     <!-- interaction -->
     <g transform="translate(105.556534 213.875313)scale(0.1 -0.1)">
      <defs>
       <path id="DejaVuSans-69" d="M 603 3500 
L 1178 3500 
L 1178 0 
L 603 0 
L 603 3500 
z
M 603 4863 
L 1178 4863 
L 1178 4134 
L 603 4134 
L 603 4863 
z
" transform="scale(0.015625)"/>
       <path id="DejaVuSans-6e" d="M 3513 2113 
L 3513 0 
L 2938 0 
L 2938 2094 
Q 2938 2591 2744 2837 
Q 2550 3084 2163 3084 
Q 1697 3084 1428 2787 
Q 1159 2491 1159 1978 
L 1159 0 
L 581 0 
L 581 3500 
L 1159 3500 
L 1159 2956 
Q 1366 3272 1645 3428 
Q 1925 3584 2291 3584 
Q 2894 3584 3203 3211 
Q 3513 2838 3513 2113 
z
" transform="scale(0.015625)"/>
       <path id="DejaVuSans-74" d="M 1172 4494 
L 1172 3500 
L 2356 3500 
L 2356 3053 
L 1172 3053 
L 1172 1153 
Q 1172 725 1289 603 
Q 1406 481 1766 481 
L 2356 481 
L 2356 0 
L 1766 0 
Q 1100 0 847 248 
Q 594 497 594 1153 
L 594 3053 
L 172 3053 
L 172 3500 
L 594 3500 
L 594 4494 
L 1172 4494 
z
" transform="scale(0.015625)"/>
       <path id="DejaVuSans-72" d="M 2631 2963 
Q 2534 3019 2420 3045 
Q 2306 3072 2169 3072 
Q 1681 3072 1420 2755 
Q 1159 2438 1159 1844 
L 1159 0 
L 581 0 
L 581 3500 
L 1159 3500 
L 1159 2956 
Q 1341 3275 1631 3429 
Q 1922 3584 2338 3584 
Q 2397 3584 2469 3576 
Q 2541 3569 2628 3553 
L 2631 2963 
z
" transform="scale(0.015625)"/>
       <path id="DejaVuSans-61" d="M 2194 1759 
Q 1497 1759 1228 1600 
Q 959 1441 959 1056 
Q 959 750 1161 570 
Q 1363 391 1709 391 
Q 2188 391 2477 730 
Q 2766 1069 2766 1631 
L 2766 1759 
L 2194 1759 
z
M 3341 1997 
L 3341 0 
L 2766 0 
L 2766 531 
Q 2569 213 2275 61 
Q 1981 -91 1556 -91 
Q 1019 -91 701 211 
Q 384 513 384 1019 
Q 384 1609 779 1909 
Q 1175 2209 1959 2209 
L 2766 2209 
L 2766 2266 
Q 2766 2663 2505 2880 
Q 2244 3097 1772 3097 
Q 1472 3097 1187 3025 
Q 903 2953 641 2809 
L 641 3341 
Q 956 3463 1253 3523 
Q 1550 3584 1831 3584 
Q 2591 3584 2966 3190 
Q 3341 2797 3341 1997 
z
" transform="scale(0.015625)"/>
       <path id="DejaVuSans-63" d="M 3122 3366 
L 3122 2828 
Q 2878 2963 2633 3030 
Q 2388 3097 2138 3097 
Q 1578 3097 1268 2742 
Q 959 2388 959 1747 
Q 959 1106 1268 751 
Q 1578 397 2138 397 
Q 2388 397 2633 464 
Q 2878 531 3122 666 
L 3122 134 
Q 2881 22 2623 -34 
Q 2366 -91 2075 -91 
Q 1284 -91 818 406 
Q 353 903 353 1747 
Q 353 2603 823 3093 
Q 1294 3584 2113 3584 
Q 2378 3584 2631 3529 
Q 2884 3475 3122 3366 
z
" transform="scale(0.015625)"/>
       <path id="DejaVuSans-6f" d="M 1959 3097 
Q 1497 3097 1228 2736 
Q 959 2375 959 1747 
Q 959 1119 1226 758 
Q 1494 397 1959 397 
Q 2419 397 2687 759 
Q 2956 1122 2956 1747 
Q 2956 2369 2687 2733 
Q 2419 3097 1959 3097 
z
M 1959 3584 
Q 2709 3584 3137 3096 
Q 3566 2609 3566 1747 
Q 3566 888 3137 398 
Q 2709 -91 1959 -91 
Q 1206 -91 779 398 
Q 353 888 353 1747 
Q 353 2609 779 3096 
Q 1206 3584 1959 3584 
z
" transform="scale(0.015625)"/>
      </defs>
      <use xlink:href="#DejaVuSans-69"/>
      <use xlink:href="#DejaVuSans-6e" x="27.783203"/>
      <use xlink:href="#DejaVuSans-74" x="91.162109"/>
      <use xlink:href="#DejaVuSans-65" x="130.371094"/>
      <use xlink:href="#DejaVuSans-72" x="191.894531"/>
      <use xlink:href="#DejaVuSans-61" x="233.007812"/>
      <use xlink:href="#DejaVuSans-63" x="294.287109"/>
      <use xlink:href="#DejaVuSans-74" x="349.267578"/>
      <use xlink:href="#DejaVuSans-69" x="388.476562"/>
      <use xlink:href="#DejaVuSans-6f" x="416.259766"/>
      <use xlink:href="#DejaVuSans-6e" x="477.441406"/>
     </g>
    </g>
   </g>
   <g id="matplotlib.axis_6">
    <g id="ytick_7">
     <g id="line2d_28">
      <g>
       <use xlink:href="#m5b6ffeb683" x="56.50625" y="185.447832" style="stroke: #000000; stroke-width: 0.8"/>
      </g>
     </g>
     <g id="text_15">
      <!-- 0.025 -->
      <g transform="translate(20.878125 189.24705)scale(0.1 -0.1)">
       <use xlink:href="#DejaVuSans-30"/>
       <use xlink:href="#DejaVuSans-2e" x="63.623047"/>
       <use xlink:href="#DejaVuSans-30" x="95.410156"/>
       <use xlink:href="#DejaVuSans-32" x="159.033203"/>
       <use xlink:href="#DejaVuSans-35" x="222.65625"/>
      </g>
     </g>
    </g>
    <g id="ytick_8">
     <g id="line2d_29">
      <g>
       <use xlink:href="#m5b6ffeb683" x="56.50625" y="154.540764" style="stroke: #000000; stroke-width: 0.8"/>
      </g>
     </g>
     <g id="text_16">
      <!-- 0.050 -->
      <g transform="translate(20.878125 158.339982)scale(0.1 -0.1)">
       <use xlink:href="#DejaVuSans-30"/>
       <use xlink:href="#DejaVuSans-2e" x="63.623047"/>
       <use xlink:href="#DejaVuSans-30" x="95.410156"/>
       <use xlink:href="#DejaVuSans-35" x="159.033203"/>
       <use xlink:href="#DejaVuSans-30" x="222.65625"/>
      </g>
     </g>
    </g>
    <g id="ytick_9">
     <g id="line2d_30">
      <g>
       <use xlink:href="#m5b6ffeb683" x="56.50625" y="123.633696" style="stroke: #000000; stroke-width: 0.8"/>
      </g>
     </g>
     <g id="text_17">
      <!-- 0.075 -->
      <g transform="translate(20.878125 127.432914)scale(0.1 -0.1)">
       <use xlink:href="#DejaVuSans-30"/>
       <use xlink:href="#DejaVuSans-2e" x="63.623047"/>
       <use xlink:href="#DejaVuSans-30" x="95.410156"/>
       <use xlink:href="#DejaVuSans-37" x="159.033203"/>
       <use xlink:href="#DejaVuSans-35" x="222.65625"/>
      </g>
     </g>
    </g>
    <g id="text_18">
     <!-- $Var(\tilde{\omega})$ -->
     <g transform="translate(14.798437 164.44875)rotate(-90)scale(0.1 -0.1)">
      <use xlink:href="#DejaVuSans-Oblique-56" transform="translate(0 0.046875)"/>
      <use xlink:href="#DejaVuSans-Oblique-61" transform="translate(68.408203 0.046875)"/>
      <use xlink:href="#DejaVuSans-Oblique-72" transform="translate(129.6875 0.046875)"/>
      <use xlink:href="#DejaVuSans-28" transform="translate(170.800781 0.046875)"/>
      <use xlink:href="#DejaVuSans-303" transform="translate(286.968262 3.3125)"/>
      <use xlink:href="#DejaVuSans-Oblique-3c9" transform="translate(209.814453 0.046875)"/>
      <use xlink:href="#DejaVuSans-29" transform="translate(293.554688 0.046875)"/>
     </g>
    </g>
   </g>
   <g id="line2d_31">
    <path d="M 56.50625 136.124213 
L 56.886705 142.693478 
L 57.267159 146.104563 
L 57.647614 146.864286 
L 58.028068 146.204408 
L 58.408523 133.905557 
L 58.788977 125.959326 
L 59.169432 122.505315 
L 59.549886 121.255621 
L 59.930341 121.028798 
L 60.310795 121.380395 
L 60.69125 122.847391 
L 61.071705 125.603661 
L 61.452159 125.546515 
L 61.832614 126.562016 
L 62.213068 129.210771 
L 62.593523 133.839188 
L 62.973977 140.15929 
L 63.354432 142.906496 
L 63.734886 143.364043 
L 64.115341 140.728207 
L 64.87625 133.830606 
L 65.256705 132.968957 
L 65.637159 131.681208 
L 66.017614 132.039693 
L 66.398068 131.422438 
L 66.778523 131.227592 
L 67.539432 124.165905 
L 67.919886 123.551364 
L 68.300341 124.413366 
L 69.06125 131.323635 
L 69.441705 133.345312 
L 69.822159 134.170554 
L 70.202614 135.469675 
L 70.583068 140.27842 
L 70.963523 142.277843 
L 71.343977 141.806465 
L 71.724432 138.960073 
L 72.104886 126.416937 
L 72.485341 119.007122 
L 72.865795 116.389875 
L 73.24625 115.600875 
L 73.626705 115.698797 
L 74.007159 116.34624 
L 74.768068 118.506484 
L 75.148523 119.688428 
L 75.528977 121.52407 
L 75.909432 122.638767 
L 76.289886 125.206342 
L 77.43125 140.732383 
L 77.811705 142.768467 
L 78.572614 139.666376 
L 78.953068 139.313082 
L 80.094432 136.661504 
L 80.474886 135.778828 
L 80.855341 130.67155 
L 81.235795 127.571301 
L 81.61625 127.019626 
L 81.996705 128.225553 
L 82.757614 138.112785 
L 84.279432 148.19766 
L 84.659886 149.356906 
L 85.040341 148.884717 
L 85.420795 147.547093 
L 86.181705 125.828315 
L 86.562159 120.948033 
L 86.942614 118.835938 
L 87.323068 118.690764 
L 87.703523 119.651396 
L 88.083977 121.054217 
L 89.98625 134.129964 
L 90.366705 138.723444 
L 90.747159 139.599375 
L 91.127614 139.870089 
L 91.508068 137.637729 
L 91.888523 134.343396 
L 92.268977 132.039462 
L 92.649432 131.290554 
L 93.029886 131.230348 
L 93.410341 132.349119 
L 93.790795 132.764075 
L 94.17125 131.609829 
L 94.551705 126.187332 
L 94.932159 124.948038 
L 95.312614 124.261361 
L 95.693068 126.705983 
L 96.073523 132.98299 
L 96.453977 136.705217 
L 96.834432 139.065974 
L 97.214886 140.276742 
L 97.595341 143.796329 
L 98.35625 151.768972 
L 98.736705 152.916667 
L 99.117159 150.126293 
L 99.878068 135.208434 
L 100.258523 132.171983 
L 100.638977 131.060613 
L 101.019432 130.371853 
L 101.399886 130.174079 
L 101.780341 132.820789 
L 102.160795 136.340478 
L 102.54125 136.115684 
L 102.921705 136.384857 
L 103.682614 145.656191 
L 104.063068 148.725941 
L 104.443523 148.372918 
L 104.823977 146.818707 
L 105.584886 139.972458 
L 105.965341 139.136904 
L 106.345795 138.806937 
L 107.106705 136.616532 
L 107.487159 136.327927 
L 107.867614 134.081556 
L 108.248068 127.556668 
L 108.628523 126.362132 
L 109.008977 126.830292 
L 109.389432 131.216759 
L 109.769886 138.344597 
L 110.150341 142.744519 
L 110.530795 145.059869 
L 110.91125 146.570173 
L 111.672159 153.066002 
L 112.052614 154.49165 
L 112.433068 154.599926 
L 112.813523 152.951319 
L 113.574432 133.0743 
L 113.954886 128.030634 
L 114.715795 124.866923 
L 115.09625 125.252263 
L 115.476705 126.449078 
L 115.857159 130.062995 
L 116.618068 130.961963 
L 116.998523 133.741108 
L 117.759432 143.300105 
L 118.139886 143.981623 
L 118.520341 143.525075 
L 119.661705 133.932734 
L 120.422614 131.962817 
L 120.803068 132.178509 
L 121.183523 131.395097 
L 121.563977 130.960843 
L 121.944432 126.630857 
L 122.324886 123.614477 
L 122.705341 123.229329 
L 123.085795 124.979187 
L 123.846705 134.773763 
L 124.227159 137.478323 
L 124.607614 138.156059 
L 124.988068 141.834337 
L 125.368523 147.467036 
L 125.748977 149.33891 
L 126.129432 148.961902 
L 126.509886 146.010542 
L 127.270795 122.19944 
L 127.65125 117.600902 
L 128.031705 116.019579 
L 128.412159 115.811803 
L 128.792614 116.43337 
L 129.173068 117.902914 
L 129.553523 119.892826 
L 129.933977 123.838302 
L 131.83625 137.210474 
L 132.216705 136.704895 
L 133.738523 124.589396 
L 134.118977 123.886302 
L 134.499432 124.604601 
L 134.879886 125.769852 
L 135.260341 126.26181 
L 135.640795 122.43222 
L 136.401705 120.275624 
L 136.782159 119.827878 
L 137.543068 123.782178 
L 137.923523 125.346186 
L 138.303977 125.211402 
L 139.064886 124.49667 
L 139.445341 126.37084 
L 139.825795 126.680425 
L 140.586705 116.475861 
L 140.967159 115.098418 
L 141.347614 114.614738 
L 141.728068 114.731145 
L 142.108523 115.449814 
L 142.488977 116.805988 
L 142.869432 118.82852 
L 143.630341 125.241485 
L 144.39125 131.054603 
L 144.771705 135.822986 
L 145.152159 139.150336 
L 145.532614 139.882772 
L 145.913068 138.848008 
L 146.673977 130.726579 
L 147.054432 129.255745 
L 147.434886 128.630545 
L 148.57625 130.964018 
L 148.956705 127.19327 
L 149.717614 124.856781 
L 150.098068 125.16388 
L 150.478523 128.073511 
L 150.858977 132.257329 
L 151.619886 136.725859 
L 152.000341 138.947569 
L 152.76125 146.178002 
L 153.141705 148.448427 
L 153.522159 146.441874 
L 154.283068 130.481867 
L 154.663523 128.413422 
L 155.043977 127.577697 
L 155.424432 128.24833 
L 155.804886 129.454067 
L 156.565795 134.924629 
L 156.94625 134.272485 
L 157.326705 135.564026 
L 157.707159 140.260934 
L 158.087614 146.951289 
L 158.468068 151.076848 
L 158.848523 152.787631 
L 159.228977 153.455693 
L 159.609432 153.489199 
L 159.989886 153.807174 
L 160.750795 155.227186 
L 161.13125 154.179883 
L 161.511705 152.776691 
L 161.892159 151.806377 
L 162.272614 147.99135 
L 162.653068 142.543863 
L 163.033523 138.908816 
L 163.413977 140.146625 
L 163.794432 145.441312 
L 164.174886 153.540413 
L 164.555341 156.522749 
L 165.696705 161.137751 
L 166.838068 164.987259 
L 167.218523 165.378446 
L 167.979432 162.903698 
L 168.740341 158.313789 
L 169.120795 155.161304 
L 169.881705 147.911579 
L 170.262159 147.848342 
L 170.642614 147.473769 
L 171.023068 147.846196 
L 171.403523 149.360429 
L 172.544886 156.964317 
L 173.305795 159.422264 
L 174.447159 167.337851 
L 174.827614 168.008394 
L 175.208068 167.505917 
L 175.588523 166.433045 
L 175.968977 163.935539 
L 177.110341 152.878035 
L 177.490795 153.634009 
L 177.87125 155.49152 
L 178.251705 156.699435 
L 179.012614 159.921969 
L 179.393068 161.221191 
L 180.534432 166.344263 
L 180.914886 167.042232 
L 181.295341 167.305162 
L 181.675795 167.263787 
L 182.05625 166.699992 
L 182.436705 165.616125 
L 182.817159 164.061934 
L 183.197614 161.53722 
L 183.958523 155.036129 
L 184.338977 153.725154 
L 184.719432 152.835883 
L 185.099886 152.490069 
L 185.480341 153.286543 
L 187.382614 161.587873 
L 188.523977 168.902712 
L 188.904432 169.535168 
L 189.284886 169.153107 
L 189.665341 167.970455 
L 190.045795 166.353867 
L 190.806705 160.247001 
L 191.187159 156.282605 
L 191.567614 154.313654 
L 191.948068 155.161899 
L 192.708977 157.683507 
L 193.850341 161.16811 
L 194.61125 164.180395 
L 194.991705 165.035169 
L 195.752614 165.971366 
L 196.133068 165.581542 
L 196.893977 164.435676 
L 197.274432 163.615242 
L 197.654886 161.513643 
L 199.176705 148.507595 
L 199.557159 148.74848 
L 199.937614 149.969369 
L 200.698523 155.553506 
L 201.078977 156.727005 
L 201.459432 157.243902 
L 201.839886 157.143146 
L 202.220341 158.505111 
L 202.600795 159.409898 
L 203.361705 162.195967 
L 203.742159 162.022433 
L 204.503068 156.979981 
L 204.883523 152.46657 
L 205.644432 134.340927 
L 206.024886 131.919757 
L 206.405341 133.111514 
L 206.785795 135.221031 
L 207.16625 136.48914 
L 207.546705 140.547924 
L 208.307614 144.287898 
L 208.307614 144.287898 
" clip-path="url(#pe22921378b)" style="fill: none; stroke: #1f77b4; stroke-linecap: square"/>
   </g>
   <g id="line2d_32">
    <path d="M 56.50625 136.124213 
L 56.886705 142.703936 
L 57.267159 146.140686 
L 57.647614 146.911115 
L 58.028068 146.338103 
L 58.408523 134.107093 
L 58.788977 126.179592 
L 59.169432 122.726778 
L 59.549886 121.540459 
L 59.930341 121.34775 
L 60.310795 121.719813 
L 60.69125 123.645643 
L 61.071705 126.777148 
L 61.452159 126.218923 
L 61.832614 127.615895 
L 62.213068 129.976223 
L 62.593523 134.331926 
L 62.973977 140.370573 
L 63.354432 142.203763 
L 63.734886 142.569712 
L 64.87625 134.839867 
L 65.256705 134.683959 
L 65.637159 133.773642 
L 66.017614 134.197977 
L 66.398068 134.399676 
L 66.778523 133.384729 
L 67.158977 126.958577 
L 67.919886 124.584686 
L 68.300341 125.132665 
L 68.680795 128.423 
L 69.441705 132.085789 
L 69.822159 133.409629 
L 70.202614 135.432359 
L 70.963523 145.294901 
L 71.343977 147.724109 
L 71.724432 148.544895 
L 72.485341 132.721361 
L 72.865795 129.957834 
L 73.24625 129.422193 
L 73.626705 129.427725 
L 74.007159 129.998843 
L 74.387614 131.330295 
L 74.768068 135.057396 
L 75.148523 134.081293 
L 75.528977 134.040601 
L 75.909432 137.4071 
L 76.670341 146.244223 
L 77.050795 147.309671 
L 77.43125 147.349955 
L 77.811705 145.926078 
L 78.192159 145.174726 
L 78.572614 146.921945 
L 78.953068 148.111791 
L 79.333523 148.009207 
L 79.713977 147.396184 
L 80.094432 146.290954 
L 80.474886 142.728123 
L 80.855341 135.561759 
L 81.235795 131.836053 
L 81.61625 131.651014 
L 81.996705 135.776373 
L 82.377159 145.575725 
L 82.757614 151.281476 
L 83.138068 152.369163 
L 83.898977 157.13049 
L 84.279432 160.133324 
L 85.040341 162.934539 
L 85.420795 162.973096 
L 85.80125 162.118859 
L 86.181705 160.000839 
L 86.942614 151.937902 
L 87.703523 145.170819 
L 88.083977 140.744904 
L 88.464432 139.653268 
L 88.844886 143.156446 
L 89.225341 142.367269 
L 89.605795 142.736446 
L 89.98625 144.569087 
L 90.366705 148.912544 
L 90.747159 151.388557 
L 91.127614 151.524156 
L 91.508068 150.30384 
L 92.268977 149.090415 
L 92.649432 149.991859 
L 93.029886 151.347442 
L 93.410341 151.72545 
L 94.17125 149.61118 
L 94.551705 145.961244 
L 94.932159 138.203816 
L 95.312614 133.744903 
L 95.693068 132.936202 
L 96.073523 134.793399 
L 96.453977 142.157503 
L 96.834432 147.150318 
L 97.975795 153.32128 
L 98.736705 160.596896 
L 99.117159 162.141215 
L 99.497614 162.721131 
L 99.878068 162.849242 
L 100.258523 162.204329 
L 101.019432 158.077813 
L 101.399886 154.852567 
L 102.160795 147.053442 
L 102.921705 146.646798 
L 103.302159 146.603795 
L 103.682614 148.275363 
L 104.823977 155.578505 
L 105.204432 156.348021 
L 105.584886 156.809236 
L 106.345795 161.249086 
L 106.72625 163.831683 
L 107.106705 164.969975 
L 107.487159 164.530427 
L 107.867614 163.156527 
L 108.248068 160.341974 
L 109.389432 143.739035 
L 109.769886 145.158932 
L 110.530795 154.127423 
L 111.672159 158.427875 
L 112.813523 165.212852 
L 113.193977 166.535092 
L 113.574432 166.981954 
L 113.954886 166.736479 
L 114.335341 165.71875 
L 115.09625 162.69389 
L 115.857159 155.786662 
L 116.237614 151.380868 
L 116.618068 151.089293 
L 117.378977 151.753859 
L 117.759432 152.784153 
L 118.139886 154.82754 
L 118.900795 156.262162 
L 119.28125 155.964111 
L 119.661705 156.176097 
L 120.042159 158.303711 
L 120.422614 159.791725 
L 120.803068 162.781595 
L 121.183523 163.745052 
L 121.563977 163.559139 
L 121.944432 162.796513 
L 122.705341 151.914619 
L 123.085795 144.9202 
L 123.46625 142.760243 
L 123.846705 142.45276 
L 124.227159 143.798221 
L 124.607614 146.214259 
L 125.368523 147.634273 
L 125.748977 150.213091 
L 126.890341 161.637941 
L 127.65125 165.2781 
L 128.031705 165.341546 
L 128.412159 164.594749 
L 128.792614 161.768137 
L 129.553523 152.586467 
L 129.933977 151.578122 
L 130.314432 151.206694 
L 130.694886 150.559401 
L 131.075341 150.382209 
L 132.216705 153.705178 
L 132.977614 154.66857 
L 134.118977 164.325928 
L 134.499432 165.927996 
L 134.879886 166.521733 
L 135.260341 166.207722 
L 135.640795 163.416326 
L 136.782159 148.14792 
L 137.543068 153.034582 
L 137.923523 154.362183 
L 138.684432 156.011199 
L 139.064886 157.512879 
L 140.586705 165.711488 
L 140.967159 166.445226 
L 141.347614 166.086731 
L 142.108523 165.08323 
L 142.488977 163.144356 
L 142.869432 160.003202 
L 143.630341 152.866961 
L 144.010795 152.121755 
L 144.39125 152.013569 
L 144.771705 152.915847 
L 145.532614 156.304251 
L 145.913068 157.409459 
L 146.293523 158.172786 
L 146.673977 158.181554 
L 147.054432 159.763879 
L 147.434886 161.996021 
L 147.815341 164.970425 
L 148.195795 166.701689 
L 148.57625 167.078395 
L 148.956705 167.063913 
L 149.337159 165.472815 
L 150.098068 155.817686 
L 150.478523 149.902074 
L 150.858977 148.946221 
L 151.619886 153.364847 
L 152.000341 154.02803 
L 152.380795 154.222499 
L 152.76125 155.387261 
L 153.522159 159.915502 
L 154.283068 164.784715 
L 154.663523 166.494204 
L 155.043977 166.942713 
L 155.804886 165.598468 
L 156.185341 164.117123 
L 156.565795 161.579264 
L 157.326705 153.932947 
L 157.707159 152.473674 
L 158.087614 151.745792 
L 158.468068 151.868032 
L 158.848523 153.08085 
L 159.989886 158.029835 
L 160.370341 159.175861 
L 160.750795 161.083428 
L 161.892159 168.62353 
L 162.272614 168.762072 
L 162.653068 168.277384 
L 163.033523 167.258671 
L 163.413977 165.016876 
L 163.794432 161.811924 
L 164.555341 153.106222 
L 164.935795 152.487119 
L 166.077159 156.882303 
L 166.457614 157.888299 
L 166.838068 159.267739 
L 167.979432 165.514814 
L 168.359886 166.12167 
L 169.120795 166.472064 
L 169.50125 166.037586 
L 170.642614 163.333593 
L 171.403523 157.239955 
L 171.783977 153.167459 
L 172.164432 150.657019 
L 172.544886 149.88221 
L 172.925341 150.407017 
L 173.305795 151.999234 
L 173.68625 154.769379 
L 174.447159 157.322753 
L 174.827614 157.915809 
L 175.208068 158.920724 
L 176.349432 165.16576 
L 176.729886 165.992721 
L 177.110341 165.028349 
L 177.490795 163.386394 
L 177.87125 160.342329 
L 178.251705 154.128772 
L 179.012614 139.708258 
L 179.393068 139.096329 
L 179.773523 141.181838 
L 180.153977 145.473289 
L 180.534432 146.680874 
L 180.914886 147.474748 
L 181.295341 149.770675 
L 182.817159 161.969913 
L 183.197614 163.165074 
L 183.578068 163.937814 
L 183.958523 163.963038 
L 184.338977 163.137838 
L 184.719432 161.19245 
L 185.099886 156.85914 
L 185.860795 146.716272 
L 186.621705 144.334073 
L 187.002159 142.361577 
L 187.382614 143.645812 
L 188.143523 150.557214 
L 188.523977 151.694143 
L 188.904432 151.735177 
L 189.284886 152.145905 
L 189.665341 153.075388 
L 190.045795 154.615185 
L 190.42625 156.640801 
L 190.806705 156.963477 
L 191.187159 155.926178 
L 191.567614 154.027555 
L 191.948068 148.144532 
L 192.328523 139.080118 
L 192.708977 132.8111 
L 193.089432 131.939969 
L 193.469886 132.629539 
L 193.850341 134.693706 
L 194.991705 144.903261 
L 195.372159 146.995063 
L 196.513523 161.739122 
L 196.893977 163.707955 
L 197.274432 165.015777 
L 197.654886 164.580876 
L 198.035341 163.918363 
L 198.415795 161.288129 
L 198.79625 157.854492 
L 199.176705 152.794774 
L 199.557159 150.176124 
L 200.318068 148.735185 
L 200.698523 148.69485 
L 201.078977 149.737903 
L 201.459432 151.8718 
L 202.220341 154.299803 
L 202.600795 154.833682 
L 202.98125 156.754061 
L 204.122614 165.93406 
L 204.503068 166.631078 
L 204.883523 166.365179 
L 205.263977 165.199784 
L 205.644432 160.618542 
L 206.405341 147.62179 
L 206.785795 146.139439 
L 207.927159 153.644015 
L 208.307614 153.936201 
L 208.307614 153.936201 
" clip-path="url(#pe22921378b)" style="fill: none; stroke: #ff7f0e; stroke-linecap: square"/>
   </g>
   <g id="patch_14">
    <path d="M 56.50625 185.59875 
L 56.50625 109.99875 
" style="fill: none; stroke: #000000; stroke-width: 0.8; stroke-linejoin: miter; stroke-linecap: square"/>
   </g>
   <g id="patch_15">
    <path d="M 208.688068 185.59875 
L 208.688068 109.99875 
" style="fill: none; stroke: #000000; stroke-width: 0.8; stroke-linejoin: miter; stroke-linecap: square"/>
   </g>
   <g id="patch_16">
    <path d="M 56.50625 185.59875 
L 208.688068 185.59875 
" style="fill: none; stroke: #000000; stroke-width: 0.8; stroke-linejoin: miter; stroke-linecap: square"/>
   </g>
   <g id="patch_17">
    <path d="M 56.50625 109.99875 
L 208.688068 109.99875 
" style="fill: none; stroke: #000000; stroke-width: 0.8; stroke-linejoin: miter; stroke-linecap: square"/>
   </g>
   <g id="text_19">
    <!-- eps. 8 -->
    <g transform="translate(120.425284 103.99875)scale(0.08 -0.08)">
     <defs>
      <path id="DejaVuSans-38" d="M 2034 2216 
Q 1584 2216 1326 1975 
Q 1069 1734 1069 1313 
Q 1069 891 1326 650 
Q 1584 409 2034 409 
Q 2484 409 2743 651 
Q 3003 894 3003 1313 
Q 3003 1734 2745 1975 
Q 2488 2216 2034 2216 
z
M 1403 2484 
Q 997 2584 770 2862 
Q 544 3141 544 3541 
Q 544 4100 942 4425 
Q 1341 4750 2034 4750 
Q 2731 4750 3128 4425 
Q 3525 4100 3525 3541 
Q 3525 3141 3298 2862 
Q 3072 2584 2669 2484 
Q 3125 2378 3379 2068 
Q 3634 1759 3634 1313 
Q 3634 634 3220 271 
Q 2806 -91 2034 -91 
Q 1263 -91 848 271 
Q 434 634 434 1313 
Q 434 1759 690 2068 
Q 947 2378 1403 2484 
z
M 1172 3481 
Q 1172 3119 1398 2916 
Q 1625 2713 2034 2713 
Q 2441 2713 2670 2916 
Q 2900 3119 2900 3481 
Q 2900 3844 2670 4047 
Q 2441 4250 2034 4250 
Q 1625 4250 1398 4047 
Q 1172 3844 1172 3481 
z
" transform="scale(0.015625)"/>
     </defs>
     <use xlink:href="#DejaVuSans-65"/>
     <use xlink:href="#DejaVuSans-70" x="61.523438"/>
     <use xlink:href="#DejaVuSans-73" x="125"/>
     <use xlink:href="#DejaVuSans-2e" x="177.099609"/>
     <use xlink:href="#DejaVuSans-20" x="208.886719"/>
     <use xlink:href="#DejaVuSans-38" x="240.673828"/>
    </g>
   </g>
  </g>
  <g id="axes_4">
   <g id="patch_18">
    <path d="M 239.124432 185.59875 
L 391.30625 185.59875 
L 391.30625 109.99875 
L 239.124432 109.99875 
z
" style="fill: #ffffff"/>
   </g>
   <g id="matplotlib.axis_7">
    <g id="xtick_16">
     <g id="line2d_33">
      <g>
       <use xlink:href="#mcd15f50cae" x="239.124432" y="185.59875" style="stroke: #000000; stroke-width: 0.8"/>
      </g>
     </g>
     <g id="text_20">
      <!-- 0 -->
      <g transform="translate(235.943182 200.197188)scale(0.1 -0.1)">
       <use xlink:href="#DejaVuSans-30"/>
      </g>
     </g>
    </g>
    <g id="xtick_17">
     <g id="line2d_34">
      <g>
       <use xlink:href="#mcd15f50cae" x="277.169886" y="185.59875" style="stroke: #000000; stroke-width: 0.8"/>
      </g>
     </g>
     <g id="text_21">
      <!-- 100 -->
      <g transform="translate(267.626136 200.197188)scale(0.1 -0.1)">
       <use xlink:href="#DejaVuSans-31"/>
       <use xlink:href="#DejaVuSans-30" x="63.623047"/>
       <use xlink:href="#DejaVuSans-30" x="127.246094"/>
      </g>
     </g>
    </g>
    <g id="xtick_18">
     <g id="line2d_35">
      <g>
       <use xlink:href="#mcd15f50cae" x="315.215341" y="185.59875" style="stroke: #000000; stroke-width: 0.8"/>
      </g>
     </g>
     <g id="text_22">
      <!-- 200 -->
      <g transform="translate(305.671591 200.197188)scale(0.1 -0.1)">
       <use xlink:href="#DejaVuSans-32"/>
       <use xlink:href="#DejaVuSans-30" x="63.623047"/>
       <use xlink:href="#DejaVuSans-30" x="127.246094"/>
      </g>
     </g>
    </g>
    <g id="xtick_19">
     <g id="line2d_36">
      <g>
       <use xlink:href="#mcd15f50cae" x="353.260795" y="185.59875" style="stroke: #000000; stroke-width: 0.8"/>
      </g>
     </g>
     <g id="text_23">
      <!-- 300 -->
      <g transform="translate(343.717045 200.197188)scale(0.1 -0.1)">
       <use xlink:href="#DejaVuSans-33"/>
       <use xlink:href="#DejaVuSans-30" x="63.623047"/>
       <use xlink:href="#DejaVuSans-30" x="127.246094"/>
      </g>
     </g>
    </g>
    <g id="xtick_20">
     <g id="line2d_37">
      <g>
       <use xlink:href="#mcd15f50cae" x="391.30625" y="185.59875" style="stroke: #000000; stroke-width: 0.8"/>
      </g>
     </g>
     <g id="text_24">
      <!-- 400 -->
      <g transform="translate(381.7625 200.197188)scale(0.1 -0.1)">
       <use xlink:href="#DejaVuSans-34"/>
       <use xlink:href="#DejaVuSans-30" x="63.623047"/>
       <use xlink:href="#DejaVuSans-30" x="127.246094"/>
      </g>
     </g>
    </g>
    <g id="text_25">
     <!-- interaction -->
     <g transform="translate(288.174716 213.875313)scale(0.1 -0.1)">
      <use xlink:href="#DejaVuSans-69"/>
      <use xlink:href="#DejaVuSans-6e" x="27.783203"/>
      <use xlink:href="#DejaVuSans-74" x="91.162109"/>
      <use xlink:href="#DejaVuSans-65" x="130.371094"/>
      <use xlink:href="#DejaVuSans-72" x="191.894531"/>
      <use xlink:href="#DejaVuSans-61" x="233.007812"/>
      <use xlink:href="#DejaVuSans-63" x="294.287109"/>
      <use xlink:href="#DejaVuSans-74" x="349.267578"/>
      <use xlink:href="#DejaVuSans-69" x="388.476562"/>
      <use xlink:href="#DejaVuSans-6f" x="416.259766"/>
      <use xlink:href="#DejaVuSans-6e" x="477.441406"/>
     </g>
    </g>
   </g>
   <g id="matplotlib.axis_8">
    <g id="ytick_10">
     <g id="line2d_38">
      <g>
       <use xlink:href="#m5b6ffeb683" x="239.124432" y="185.447832" style="stroke: #000000; stroke-width: 0.8"/>
      </g>
     </g>
    </g>
    <g id="ytick_11">
     <g id="line2d_39">
      <g>
       <use xlink:href="#m5b6ffeb683" x="239.124432" y="154.540764" style="stroke: #000000; stroke-width: 0.8"/>
      </g>
     </g>
    </g>
    <g id="ytick_12">
     <g id="line2d_40">
      <g>
       <use xlink:href="#m5b6ffeb683" x="239.124432" y="123.633696" style="stroke: #000000; stroke-width: 0.8"/>
      </g>
     </g>
    </g>
   </g>
   <g id="line2d_41">
    <path d="M 239.124432 116.621398 
L 239.504886 125.554873 
L 239.885341 148.875393 
L 240.265795 158.707023 
L 240.64625 146.092874 
L 241.026705 123.627704 
L 241.407159 116.703827 
L 241.787614 114.92431 
L 242.928977 113.806002 
L 243.309432 114.025287 
L 243.689886 114.447878 
L 244.070341 115.194467 
L 244.450795 118.721658 
L 244.83125 127.468648 
L 245.592159 154.30344 
L 245.972614 154.511751 
L 247.113977 130.630785 
L 247.494432 126.189004 
L 247.874886 123.829548 
L 248.255341 123.164375 
L 249.01625 119.937233 
L 249.396705 124.491096 
L 249.777159 130.669603 
L 250.157614 121.422796 
L 250.538068 117.338036 
L 250.918523 117.793948 
L 252.059886 115.135447 
L 252.440341 115.113577 
L 252.820795 115.766916 
L 253.20125 120.096691 
L 253.962159 151.842171 
L 254.723068 117.245719 
L 255.103523 114.105561 
L 255.483977 113.599133 
L 256.244886 113.453664 
L 257.005795 113.469285 
L 257.766705 113.705111 
L 258.147159 114.384373 
L 258.527614 116.582609 
L 258.908068 123.866251 
L 259.668977 152.906619 
L 260.049432 153.827927 
L 260.429886 146.629849 
L 260.810341 144.164332 
L 261.190795 147.162503 
L 261.951705 140.566113 
L 262.712614 130.477165 
L 263.473523 141.55326 
L 263.853977 131.620961 
L 264.234432 125.284162 
L 264.614886 127.565866 
L 264.995341 134.511018 
L 265.375795 132.697884 
L 265.75625 127.843785 
L 266.136705 125.022733 
L 266.517159 127.591344 
L 267.658523 162.54862 
L 268.038977 155.381085 
L 268.799886 120.745175 
L 269.180341 115.967477 
L 269.560795 114.721437 
L 269.94125 114.090262 
L 270.321705 113.815453 
L 270.702159 113.865684 
L 271.082614 114.19337 
L 271.463068 114.827819 
L 271.843523 117.702423 
L 272.223977 126.517142 
L 272.984886 153.357117 
L 273.365341 154.301922 
L 273.745795 148.906474 
L 274.12625 141.470275 
L 274.506705 139.092845 
L 274.887159 138.001235 
L 275.267614 138.245213 
L 275.648068 135.909397 
L 276.028523 132.541031 
L 276.408977 137.926455 
L 276.789432 148.518003 
L 277.169886 141.506068 
L 277.550341 128.555802 
L 277.930795 123.7106 
L 278.31125 130.820142 
L 278.691705 133.094374 
L 279.072159 130.57306 
L 279.452614 129.02843 
L 279.833068 130.173855 
L 280.213523 137.384967 
L 280.974432 168.60809 
L 281.354886 174.456309 
L 281.735341 170.067381 
L 282.49625 155.198959 
L 282.876705 151.056271 
L 283.637614 131.104506 
L 284.018068 126.331787 
L 284.398523 125.289205 
L 284.778977 128.13652 
L 285.159432 132.055513 
L 285.539886 139.303709 
L 286.300795 159.863402 
L 286.68125 162.572473 
L 287.061705 162.575735 
L 287.442159 158.44309 
L 287.822614 157.093991 
L 288.203068 161.235492 
L 288.583523 163.555484 
L 288.963977 162.306369 
L 289.724886 152.777714 
L 290.105341 154.930143 
L 290.485795 158.272908 
L 290.86625 152.699056 
L 291.246705 140.985871 
L 291.627159 135.091763 
L 292.007614 145.872748 
L 292.388068 149.617927 
L 292.768523 148.070968 
L 293.148977 147.444138 
L 293.529432 150.845756 
L 294.670795 174.472173 
L 295.05125 177.950312 
L 295.431705 178.465519 
L 295.812159 175.397169 
L 296.573068 164.884079 
L 296.953523 155.989752 
L 297.333977 142.282577 
L 297.714432 134.585358 
L 298.094886 131.600403 
L 298.855795 133.323828 
L 299.616705 145.112366 
L 299.997159 155.273379 
L 300.377614 160.08738 
L 300.758068 161.851078 
L 301.138523 161.96265 
L 301.518977 161.065342 
L 301.899432 165.508948 
L 302.279886 172.067186 
L 302.660341 172.821014 
L 303.040795 170.4089 
L 303.42125 166.69209 
L 303.801705 166.953705 
L 304.182159 165.398771 
L 304.562614 159.342818 
L 305.323523 143.442719 
L 306.084432 156.55011 
L 306.464886 155.01916 
L 306.845341 154.250229 
L 307.225795 156.132926 
L 308.747614 177.694555 
L 309.128068 179.536671 
L 309.508523 179.531883 
L 309.888977 176.82172 
L 310.269432 172.996636 
L 310.649886 167.671234 
L 311.410795 142.18065 
L 311.79125 135.291743 
L 312.171705 134.276587 
L 312.552159 137.131515 
L 312.932614 141.123054 
L 313.313068 146.890174 
L 314.073977 160.921701 
L 314.454432 162.339367 
L 314.834886 162.264004 
L 315.215341 160.975963 
L 315.595795 162.147011 
L 315.97625 170.693363 
L 316.356705 173.134585 
L 316.737159 171.135454 
L 317.117614 167.408433 
L 317.498068 169.259842 
L 317.878523 169.832131 
L 318.258977 167.089935 
L 318.639432 160.579972 
L 319.019886 148.453607 
L 319.400341 143.727012 
L 319.780795 143.340136 
L 320.541705 136.389572 
L 320.922159 139.07777 
L 322.063523 168.85062 
L 322.443977 175.463738 
L 322.824432 178.154117 
L 323.204886 177.563801 
L 323.585341 174.524857 
L 323.965795 168.032481 
L 324.726705 146.525009 
L 325.107159 139.643383 
L 325.487614 139.359635 
L 326.248523 145.148698 
L 326.628977 149.895496 
L 327.389886 162.303738 
L 328.150795 165.300786 
L 328.53125 166.154444 
L 328.911705 168.614913 
L 329.292159 174.162503 
L 329.672614 177.630313 
L 330.053068 178.218269 
L 330.433523 178.008521 
L 330.813977 177.002657 
L 331.194432 176.378449 
L 331.574886 175.118332 
L 331.955341 172.613824 
L 332.71625 165.67212 
L 333.096705 165.613321 
L 333.857614 163.685075 
L 334.238068 164.916952 
L 334.618523 167.898803 
L 335.379432 175.760737 
L 336.140341 180.714909 
L 336.520795 181.378336 
L 336.90125 181.237928 
L 337.281705 180.328975 
L 337.662159 179.050988 
L 338.423068 174.629036 
L 338.803523 172.67095 
L 339.183977 171.439011 
L 339.944886 171.491149 
L 340.325341 171.738367 
L 341.08625 172.672611 
L 341.466705 173.530649 
L 341.847159 175.046637 
L 342.608068 179.704625 
L 342.988523 180.730113 
L 343.368977 180.894619 
L 343.749432 180.133377 
L 344.129886 178.605873 
L 344.510341 177.991435 
L 344.890795 177.652396 
L 345.27125 177.489212 
L 346.032159 176.915199 
L 346.412614 176.68934 
L 346.793068 176.90824 
L 347.173523 176.944448 
L 347.553977 177.463063 
L 349.075795 181.142613 
L 349.836705 182.046914 
L 350.217159 182.162386 
L 350.597614 181.936588 
L 350.978068 181.262645 
L 352.119432 177.92483 
L 352.880341 175.13615 
L 353.64125 173.155505 
L 354.021705 172.592022 
L 354.402159 172.945031 
L 355.163068 174.792829 
L 355.543523 175.412101 
L 356.684886 178.79162 
L 357.065341 178.982903 
L 357.445795 178.388231 
L 358.967614 169.317682 
L 359.348068 168.725445 
L 359.728523 168.428799 
L 360.489432 165.535626 
L 360.869886 165.246207 
L 361.250341 163.90638 
L 361.630795 160.957049 
L 362.01125 160.161013 
L 362.391705 162.21586 
L 363.913523 176.58159 
L 364.293977 178.330027 
L 364.674432 178.766342 
L 365.435341 176.819499 
L 365.815795 174.167031 
L 366.576705 163.756407 
L 366.957159 158.258315 
L 367.337614 154.704668 
L 367.718068 154.04389 
L 368.098523 156.670408 
L 368.478977 161.204596 
L 368.859432 164.397845 
L 371.142159 177.831015 
L 371.522614 178.839644 
L 371.903068 178.090492 
L 372.663977 171.591818 
L 373.044432 167.954602 
L 373.424886 165.762837 
L 373.805341 164.818223 
L 374.946705 158.656029 
L 375.327159 159.122688 
L 375.707614 155.300136 
L 376.088068 153.473642 
L 376.468523 154.441695 
L 376.848977 157.786949 
L 377.990341 172.924355 
L 378.370795 176.353518 
L 378.75125 178.052813 
L 379.131705 177.735558 
L 379.512159 176.499512 
L 379.892614 172.92535 
L 380.273068 167.745051 
L 380.653523 160.44996 
L 381.033977 150.86188 
L 381.414432 144.733586 
L 381.794886 142.595537 
L 382.175341 144.728687 
L 382.555795 148.168676 
L 382.93625 153.86122 
L 383.316705 163.017606 
L 383.697159 166.374136 
L 384.077614 168.066454 
L 384.458068 167.841957 
L 384.838523 166.760161 
L 385.218977 168.888993 
L 385.599432 172.910331 
L 385.979886 172.235836 
L 386.360341 168.334568 
L 387.12125 157.941046 
L 387.501705 161.348305 
L 387.882159 158.867395 
L 388.262614 152.466052 
L 388.643068 138.448256 
L 389.403977 124.256939 
L 389.784432 121.532731 
L 390.164886 120.723874 
L 390.545341 123.308661 
L 390.925795 129.471671 
L 390.925795 129.471671 
" clip-path="url(#pfc7d98371f)" style="fill: none; stroke: #1f77b4; stroke-linecap: square"/>
   </g>
   <g id="line2d_42">
    <path d="M 239.124432 116.621398 
L 239.504886 125.574766 
L 239.885341 148.953787 
L 240.265795 158.756237 
L 240.64625 146.480612 
L 241.026705 123.960598 
L 241.407159 116.879595 
L 241.787614 115.034711 
L 242.168068 114.657167 
L 242.548523 114.078295 
L 242.928977 113.857537 
L 243.309432 114.148385 
L 243.689886 114.672867 
L 244.070341 115.638956 
L 244.450795 120.230192 
L 244.83125 129.772222 
L 245.592159 155.090347 
L 245.972614 153.981964 
L 247.113977 131.4657 
L 247.494432 127.866708 
L 247.874886 126.930231 
L 248.255341 126.495416 
L 248.635795 125.014414 
L 249.01625 128.416546 
L 249.396705 140.595671 
L 249.777159 136.57486 
L 250.157614 123.924603 
L 250.538068 117.697184 
L 250.918523 118.312937 
L 251.679432 115.807642 
L 252.059886 115.283942 
L 252.440341 115.40799 
L 252.820795 116.76279 
L 253.20125 123.004392 
L 253.581705 146.019561 
L 253.962159 156.537305 
L 254.342614 148.373048 
L 255.103523 127.241485 
L 255.483977 124.705491 
L 255.864432 123.025002 
L 256.244886 118.838973 
L 256.625341 117.617524 
L 257.005795 117.601142 
L 257.38625 119.793271 
L 257.766705 122.91866 
L 258.147159 129.784648 
L 258.908068 153.370531 
L 259.288523 158.853372 
L 259.668977 157.24428 
L 260.049432 153.216476 
L 260.429886 150.509988 
L 260.810341 154.209504 
L 261.190795 155.680766 
L 261.57125 153.966415 
L 261.951705 151.243203 
L 262.332159 146.811555 
L 262.712614 146.577976 
L 263.093068 152.797066 
L 263.473523 148.416031 
L 263.853977 134.998652 
L 264.234432 129.985655 
L 264.614886 142.765959 
L 264.995341 148.831864 
L 265.375795 148.920362 
L 265.75625 148.001743 
L 266.136705 149.574472 
L 267.278068 173.284846 
L 267.658523 177.322256 
L 268.038977 178.219942 
L 268.419432 177.203814 
L 268.799886 173.375229 
L 269.94125 154.34347 
L 270.321705 141.527814 
L 270.702159 133.821753 
L 271.082614 130.955584 
L 271.463068 132.63351 
L 271.843523 135.378494 
L 272.223977 140.567589 
L 272.984886 158.270302 
L 273.365341 162.053466 
L 273.745795 163.132855 
L 274.12625 163.42463 
L 274.506705 162.58741 
L 274.887159 165.746821 
L 275.267614 172.53892 
L 275.648068 174.271122 
L 276.408977 171.10885 
L 276.789432 171.530336 
L 277.169886 170.731153 
L 277.930795 160.768564 
L 278.31125 153.481963 
L 278.691705 157.476769 
L 279.072159 158.92782 
L 279.452614 157.635137 
L 279.833068 157.239991 
L 280.213523 158.888047 
L 281.735341 177.753775 
L 282.115795 179.781475 
L 282.49625 180.416555 
L 282.876705 180.001322 
L 283.257159 178.230221 
L 283.637614 175.191251 
L 284.778977 162.011244 
L 285.159432 159.968111 
L 285.539886 159.614491 
L 285.920341 160.928202 
L 286.300795 163.513353 
L 286.68125 167.064831 
L 287.442159 170.410542 
L 288.583523 176.323136 
L 288.963977 178.846919 
L 289.344432 180.621087 
L 289.724886 180.953292 
L 290.105341 180.834877 
L 290.485795 179.801898 
L 291.246705 176.817494 
L 292.007614 175.106522 
L 292.768523 174.347712 
L 293.148977 174.659812 
L 293.529432 174.672267 
L 293.909886 175.187964 
L 294.290341 176.318651 
L 295.431705 180.61245 
L 295.812159 181.302548 
L 296.192614 181.680807 
L 296.953523 181.967585 
L 297.333977 181.809507 
L 297.714432 181.331512 
L 298.094886 180.426418 
L 298.475341 178.536196 
L 299.23625 173.050069 
L 299.997159 169.610274 
L 300.377614 169.049054 
L 300.758068 170.486056 
L 301.138523 171.073691 
L 301.899432 173.312204 
L 302.279886 173.574182 
L 302.660341 173.568189 
L 303.040795 174.715687 
L 303.801705 180.234496 
L 304.182159 180.73968 
L 304.943068 177.514132 
L 305.703977 173.178034 
L 306.464886 170.509169 
L 307.60625 162.199772 
L 307.986705 155.791775 
L 308.367159 153.018485 
L 308.747614 154.074901 
L 309.128068 158.208217 
L 310.269432 175.01271 
L 310.649886 177.868753 
L 311.030341 179.724855 
L 311.410795 179.848791 
L 311.79125 178.840009 
L 312.171705 177.040356 
L 313.313068 166.55111 
L 313.693523 164.095718 
L 314.073977 163.527866 
L 314.454432 164.534608 
L 314.834886 166.181339 
L 315.215341 167.102859 
L 316.356705 171.268911 
L 316.737159 173.555968 
L 317.498068 179.788736 
L 317.878523 180.548446 
L 318.258977 179.96852 
L 319.019886 175.030739 
L 319.400341 172.58169 
L 319.780795 171.340703 
L 320.541705 170.892788 
L 320.922159 169.932785 
L 321.302614 169.348446 
L 321.683068 167.879534 
L 322.063523 165.875547 
L 322.443977 166.180839 
L 322.824432 168.129223 
L 323.585341 174.796401 
L 324.34625 178.807134 
L 324.726705 180.07293 
L 325.107159 179.820403 
L 325.487614 178.810505 
L 325.868068 177.233226 
L 326.248523 173.25259 
L 327.009432 161.866384 
L 327.389886 158.235042 
L 327.770341 156.644902 
L 328.150795 157.194186 
L 328.53125 159.433594 
L 328.911705 163.60391 
L 329.672614 168.591622 
L 330.813977 174.594631 
L 331.194432 178.247085 
L 331.574886 180.804258 
L 331.955341 181.342653 
L 332.335795 179.011513 
L 333.477159 169.71607 
L 334.238068 167.266584 
L 334.998977 163.449098 
L 335.379432 163.508682 
L 335.759886 159.975708 
L 336.140341 158.190132 
L 336.520795 159.428135 
L 337.281705 167.970929 
L 338.042614 176.390084 
L 338.423068 178.66503 
L 338.803523 180.013248 
L 339.183977 179.639426 
L 339.564432 178.299325 
L 339.944886 175.76042 
L 340.325341 170.563969 
L 341.08625 155.813432 
L 341.466705 151.30456 
L 341.847159 151.742064 
L 342.227614 152.008266 
L 342.608068 153.341355 
L 342.988523 157.315057 
L 343.368977 162.725331 
L 344.129886 167.722643 
L 344.510341 169.37765 
L 344.890795 171.711523 
L 345.27125 177.125405 
L 345.651705 180.510925 
L 346.032159 181.198142 
L 346.412614 179.674919 
L 347.553977 172.523715 
L 347.934432 171.41043 
L 348.314886 169.941602 
L 348.695341 167.208808 
L 349.075795 165.700754 
L 349.836705 158.96148 
L 350.217159 159.334669 
L 350.597614 162.196938 
L 351.738977 175.75511 
L 352.119432 178.611413 
L 352.499886 180.306074 
L 352.880341 180.902974 
L 353.260795 180.444821 
L 353.64125 179.410631 
L 354.021705 178.022816 
L 355.543523 170.611672 
L 355.923977 169.513447 
L 356.304432 168.800111 
L 357.065341 169.244236 
L 357.445795 170.013791 
L 357.82625 171.092877 
L 358.206705 172.745869 
L 358.967614 177.607933 
L 359.348068 179.06558 
L 359.728523 179.598562 
L 360.108977 179.028184 
L 360.489432 178.04436 
L 361.250341 174.98554 
L 362.772159 173.758234 
L 363.152614 173.84607 
L 364.674432 176.582477 
L 365.435341 179.097184 
L 365.815795 179.818416 
L 366.576705 180.608508 
L 366.957159 180.771929 
L 367.337614 180.066727 
L 368.098523 177.441692 
L 369.239886 167.384652 
L 369.620341 165.663456 
L 370.000795 165.929713 
L 370.38125 167.3048 
L 371.903068 170.904393 
L 372.283523 171.559824 
L 372.663977 171.98022 
L 373.424886 177.663422 
L 373.805341 177.391111 
L 374.185795 174.925273 
L 374.56625 171.723068 
L 375.327159 164.128963 
L 375.707614 162.112975 
L 376.088068 158.303877 
L 376.468523 150.807537 
L 376.848977 146.969233 
L 377.609886 137.081573 
L 377.990341 135.20494 
L 378.370795 137.844662 
L 378.75125 143.471532 
L 380.273068 173.441482 
L 380.653523 175.068694 
L 381.033977 175.324356 
L 381.414432 172.547849 
L 381.794886 167.38546 
L 382.555795 150.749916 
L 382.93625 142.685992 
L 383.316705 138.837613 
L 383.697159 138.454696 
L 384.077614 140.143034 
L 384.458068 146.167052 
L 384.838523 155.324315 
L 385.218977 161.174665 
L 385.979886 165.109243 
L 386.740795 169.188653 
L 387.12125 173.640706 
L 387.501705 176.191818 
L 387.882159 174.478214 
L 388.643068 168.023078 
L 389.403977 165.254327 
L 389.784432 163.487451 
L 390.925795 148.141809 
L 390.925795 148.141809 
" clip-path="url(#pfc7d98371f)" style="fill: none; stroke: #ff7f0e; stroke-linecap: square"/>
   </g>
   <g id="patch_19">
    <path d="M 239.124432 185.59875 
L 239.124432 109.99875 
" style="fill: none; stroke: #000000; stroke-width: 0.8; stroke-linejoin: miter; stroke-linecap: square"/>
   </g>
   <g id="patch_20">
    <path d="M 391.30625 185.59875 
L 391.30625 109.99875 
" style="fill: none; stroke: #000000; stroke-width: 0.8; stroke-linejoin: miter; stroke-linecap: square"/>
   </g>
   <g id="patch_21">
    <path d="M 239.124432 185.59875 
L 391.30625 185.59875 
" style="fill: none; stroke: #000000; stroke-width: 0.8; stroke-linejoin: miter; stroke-linecap: square"/>
   </g>
   <g id="patch_22">
    <path d="M 239.124432 109.99875 
L 391.30625 109.99875 
" style="fill: none; stroke: #000000; stroke-width: 0.8; stroke-linejoin: miter; stroke-linecap: square"/>
   </g>
   <g id="text_26">
    <!-- eps. 12 -->
    <g transform="translate(300.498466 103.99875)scale(0.08 -0.08)">
     <use xlink:href="#DejaVuSans-65"/>
     <use xlink:href="#DejaVuSans-70" x="61.523438"/>
     <use xlink:href="#DejaVuSans-73" x="125"/>
     <use xlink:href="#DejaVuSans-2e" x="177.099609"/>
     <use xlink:href="#DejaVuSans-20" x="208.886719"/>
     <use xlink:href="#DejaVuSans-31" x="240.673828"/>
     <use xlink:href="#DejaVuSans-32" x="304.296875"/>
    </g>
   </g>
  </g>
 </g>
 <defs>
  <clipPath id="p48c9f25651">
   <rect x="56.50625" y="19.27875" width="152.181818" height="75.6"/>
  </clipPath>
  <clipPath id="p084987b595">
   <rect x="239.124432" y="19.27875" width="152.181818" height="75.6"/>
  </clipPath>
  <clipPath id="pe22921378b">
   <rect x="56.50625" y="109.99875" width="152.181818" height="75.6"/>
  </clipPath>
  <clipPath id="pfc7d98371f">
   <rect x="239.124432" y="109.99875" width="152.181818" height="75.6"/>
  </clipPath>
 </defs>
</svg>
