<?xml version="1.0" encoding="utf-8" standalone="no"?>
<!DOCTYPE svg PUBLIC "-//W3C//DTD SVG 1.1//EN"
  "http://www.w3.org/Graphics/SVG/1.1/DTD/svg11.dtd">
<svg xmlns:xlink="http://www.w3.org/1999/xlink" width="403.704687pt" height="223.155pt" viewBox="0 0 403.704687 223.155" xmlns="http://www.w3.org/2000/svg" version="1.1">
 <metadata>
  <rdf:RDF xmlns:dc="http://purl.org/dc/elements/1.1/" xmlns:cc="http://creativecommons.org/ns#" xmlns:rdf="http://www.w3.org/1999/02/22-rdf-syntax-ns#">
   <cc:Work>
    <dc:type rdf:resource="http://purl.org/dc/dcmitype/StillImage"/>
    <dc:date>2023-02-27T21:42:48.381180</dc:date>
    <dc:format>image/svg+xml</dc:format>
    <dc:creator>
     <cc:Agent>
      <dc:title>Matplotlib v3.5.1, https://matplotlib.org/</dc:title>
     </cc:Agent>
    </dc:creator>
   </cc:Work>
  </rdf:RDF>
 </metadata>
 <defs>
  <style type="text/css">*{stroke-linejoin: round; stroke-linecap: butt}</style>
 </defs>
 <g id="figure_1">
  <g id="patch_1">
   <path d="M 0 223.155 
L 403.704687 223.155 
L 403.704687 0 
L 0 0 
z
" style="fill: #ffffff"/>
  </g>
  <g id="axes_1">
   <g id="patch_2">
    <path d="M 52.160938 94.87875 
L 204.342756 94.87875 
L 204.342756 19.27875 
L 52.160938 19.27875 
z
" style="fill: #ffffff"/>
   </g>
   <g id="matplotlib.axis_1">
    <g id="xtick_1">
     <g id="line2d_1">
      <defs>
       <path id="mf4ce15a4a3" d="M 0 0 
L 0 3.5 
" style="stroke: #000000; stroke-width: 0.8"/>
      </defs>
      <g>
       <use xlink:href="#mf4ce15a4a3" x="52.160938" y="94.87875" style="stroke: #000000; stroke-width: 0.8"/>
      </g>
     </g>
    </g>
    <g id="xtick_2">
     <g id="line2d_2">
      <g>
       <use xlink:href="#mf4ce15a4a3" x="90.206392" y="94.87875" style="stroke: #000000; stroke-width: 0.8"/>
      </g>
     </g>
    </g>
    <g id="xtick_3">
     <g id="line2d_3">
      <g>
       <use xlink:href="#mf4ce15a4a3" x="128.251847" y="94.87875" style="stroke: #000000; stroke-width: 0.8"/>
      </g>
     </g>
    </g>
    <g id="xtick_4">
     <g id="line2d_4">
      <g>
       <use xlink:href="#mf4ce15a4a3" x="166.297301" y="94.87875" style="stroke: #000000; stroke-width: 0.8"/>
      </g>
     </g>
    </g>
    <g id="xtick_5">
     <g id="line2d_5">
      <g>
       <use xlink:href="#mf4ce15a4a3" x="204.342756" y="94.87875" style="stroke: #000000; stroke-width: 0.8"/>
      </g>
     </g>
    </g>
   </g>
   <g id="matplotlib.axis_2">
    <g id="ytick_1">
     <g id="line2d_6">
      <defs>
       <path id="m3d286526d9" d="M 0 0 
L -3.5 0 
" style="stroke: #000000; stroke-width: 0.8"/>
      </defs>
      <g>
       <use xlink:href="#m3d286526d9" x="52.160938" y="89.247572" style="stroke: #000000; stroke-width: 0.8"/>
      </g>
     </g>
     <g id="text_1">
      <!-- −0.2 -->
      <g transform="translate(20.878125 93.046791)scale(0.1 -0.1)">
       <defs>
        <path id="DejaVuSans-2212" d="M 678 2272 
L 4684 2272 
L 4684 1741 
L 678 1741 
L 678 2272 
z
" transform="scale(0.015625)"/>
        <path id="DejaVuSans-30" d="M 2034 4250 
Q 1547 4250 1301 3770 
Q 1056 3291 1056 2328 
Q 1056 1369 1301 889 
Q 1547 409 2034 409 
Q 2525 409 2770 889 
Q 3016 1369 3016 2328 
Q 3016 3291 2770 3770 
Q 2525 4250 2034 4250 
z
M 2034 4750 
Q 2819 4750 3233 4129 
Q 3647 3509 3647 2328 
Q 3647 1150 3233 529 
Q 2819 -91 2034 -91 
Q 1250 -91 836 529 
Q 422 1150 422 2328 
Q 422 3509 836 4129 
Q 1250 4750 2034 4750 
z
" transform="scale(0.015625)"/>
        <path id="DejaVuSans-2e" d="M 684 794 
L 1344 794 
L 1344 0 
L 684 0 
L 684 794 
z
" transform="scale(0.015625)"/>
        <path id="DejaVuSans-32" d="M 1228 531 
L 3431 531 
L 3431 0 
L 469 0 
L 469 531 
Q 828 903 1448 1529 
Q 2069 2156 2228 2338 
Q 2531 2678 2651 2914 
Q 2772 3150 2772 3378 
Q 2772 3750 2511 3984 
Q 2250 4219 1831 4219 
Q 1534 4219 1204 4116 
Q 875 4013 500 3803 
L 500 4441 
Q 881 4594 1212 4672 
Q 1544 4750 1819 4750 
Q 2544 4750 2975 4387 
Q 3406 4025 3406 3419 
Q 3406 3131 3298 2873 
Q 3191 2616 2906 2266 
Q 2828 2175 2409 1742 
Q 1991 1309 1228 531 
z
" transform="scale(0.015625)"/>
       </defs>
       <use xlink:href="#DejaVuSans-2212"/>
       <use xlink:href="#DejaVuSans-30" x="83.789062"/>
       <use xlink:href="#DejaVuSans-2e" x="147.412109"/>
       <use xlink:href="#DejaVuSans-32" x="179.199219"/>
      </g>
     </g>
    </g>
    <g id="ytick_2">
     <g id="line2d_7">
      <g>
       <use xlink:href="#m3d286526d9" x="52.160938" y="58.704432" style="stroke: #000000; stroke-width: 0.8"/>
      </g>
     </g>
     <g id="text_2">
      <!-- −0.1 -->
      <g transform="translate(20.878125 62.503651)scale(0.1 -0.1)">
       <defs>
        <path id="DejaVuSans-31" d="M 794 531 
L 1825 531 
L 1825 4091 
L 703 3866 
L 703 4441 
L 1819 4666 
L 2450 4666 
L 2450 531 
L 3481 531 
L 3481 0 
L 794 0 
L 794 531 
z
" transform="scale(0.015625)"/>
       </defs>
       <use xlink:href="#DejaVuSans-2212"/>
       <use xlink:href="#DejaVuSans-30" x="83.789062"/>
       <use xlink:href="#DejaVuSans-2e" x="147.412109"/>
       <use xlink:href="#DejaVuSans-31" x="179.199219"/>
      </g>
     </g>
    </g>
    <g id="ytick_3">
     <g id="line2d_8">
      <g>
       <use xlink:href="#m3d286526d9" x="52.160938" y="28.161292" style="stroke: #000000; stroke-width: 0.8"/>
      </g>
     </g>
     <g id="text_3">
      <!-- 0.0 -->
      <g transform="translate(29.257812 31.960511)scale(0.1 -0.1)">
       <use xlink:href="#DejaVuSans-30"/>
       <use xlink:href="#DejaVuSans-2e" x="63.623047"/>
       <use xlink:href="#DejaVuSans-30" x="95.410156"/>
      </g>
     </g>
    </g>
    <g id="text_4">
     <!-- $r$ -->
     <g transform="translate(14.798438 59.17875)rotate(-90)scale(0.1 -0.1)">
      <defs>
       <path id="DejaVuSans-Oblique-72" d="M 2853 2969 
Q 2766 3016 2653 3041 
Q 2541 3066 2413 3066 
Q 1953 3066 1609 2717 
Q 1266 2369 1153 1784 
L 800 0 
L 225 0 
L 909 3500 
L 1484 3500 
L 1375 2956 
Q 1603 3259 1920 3421 
Q 2238 3584 2597 3584 
Q 2691 3584 2781 3573 
Q 2872 3563 2963 3538 
L 2853 2969 
z
" transform="scale(0.015625)"/>
      </defs>
      <use xlink:href="#DejaVuSans-Oblique-72"/>
     </g>
    </g>
   </g>
   <g id="line2d_9">
    <path d="M 52.160938 51.279526 
L 52.921847 55.075153 
L 53.302301 55.45085 
L 53.682756 62.068463 
L 54.06321 63.666639 
L 54.443665 68.832658 
L 54.824119 68.904144 
L 55.204574 72.084139 
L 55.585028 77.511644 
L 55.965483 73.506764 
L 56.345938 65.953131 
L 57.487301 52.716573 
L 57.867756 50.515501 
L 58.24821 49.680729 
L 58.628665 49.157283 
L 59.009119 49.06298 
L 59.389574 49.188272 
L 59.770028 51.149728 
L 60.150483 51.863712 
L 60.530938 56.279426 
L 61.291847 58.597456 
L 61.672301 62.302171 
L 62.052756 63.691069 
L 62.43321 68.111203 
L 62.813665 73.893252 
L 63.574574 67.48429 
L 63.955028 61.589209 
L 64.715938 57.214469 
L 65.857301 61.51269 
L 66.237756 65.34835 
L 66.61821 67.200476 
L 66.998665 67.762125 
L 67.379119 68.637482 
L 67.759574 68.718205 
L 68.140028 66.768334 
L 68.520483 66.181629 
L 68.900937 67.522277 
L 69.281392 70.181239 
L 69.661847 70.485543 
L 70.042301 68.156787 
L 70.422756 62.570883 
L 70.80321 58.620196 
L 71.183665 57.564473 
L 71.564119 57.285989 
L 71.944574 56.002832 
L 72.325028 56.877414 
L 72.705483 59.854439 
L 73.085938 58.85747 
L 73.466392 64.045303 
L 73.846847 66.378776 
L 74.227301 67.338619 
L 74.607756 68.627938 
L 74.98821 74.484264 
L 75.368665 77.602579 
L 75.749119 77.459667 
L 76.129574 80.348651 
L 76.510028 79.508036 
L 76.890483 73.850143 
L 77.270938 64.731189 
L 77.651392 59.228117 
L 78.031847 58.242055 
L 78.792756 51.637826 
L 79.17321 53.55849 
L 79.934119 61.104156 
L 80.314574 59.820237 
L 80.695028 60.732876 
L 81.075483 60.365449 
L 82.216847 71.509932 
L 82.597301 72.961476 
L 83.35821 78.933047 
L 83.738665 73.922438 
L 84.119119 65.816495 
L 84.880028 58.536304 
L 85.260483 57.27663 
L 85.640938 54.666874 
L 86.021392 53.917012 
L 86.782301 53.421966 
L 87.54321 60.733435 
L 87.923665 59.688665 
L 88.304119 63.893442 
L 88.684574 61.871394 
L 89.065028 63.954791 
L 89.445483 66.693525 
L 89.825938 68.382229 
L 90.206392 73.123489 
L 90.586847 72.986914 
L 90.967301 70.178759 
L 91.347756 61.417059 
L 91.72821 60.971939 
L 92.108665 58.848053 
L 92.489119 58.024411 
L 92.869574 55.65794 
L 93.250028 55.549712 
L 94.010938 58.904416 
L 94.391392 60.589684 
L 94.771847 56.988278 
L 95.152301 56.733217 
L 95.532756 61.693657 
L 96.674119 65.910319 
L 97.435028 71.229512 
L 97.815483 67.281149 
L 98.195938 61.931151 
L 98.576392 59.224313 
L 99.337301 55.787256 
L 99.717756 56.734528 
L 100.09821 54.50544 
L 100.478665 57.471347 
L 100.859119 58.471597 
L 101.239574 56.332267 
L 101.620028 59.431739 
L 102.000483 60.978628 
L 102.380938 59.755841 
L 102.761392 61.804497 
L 103.522301 63.644094 
L 103.902756 68.85205 
L 104.28321 66.060646 
L 105.424574 54.457037 
L 105.805028 51.665468 
L 106.185483 52.861272 
L 106.565938 47.799003 
L 106.946392 47.695765 
L 107.326847 48.088335 
L 107.707301 51.633637 
L 108.087756 50.610191 
L 108.46821 52.201948 
L 108.848665 58.798615 
L 109.609574 65.246265 
L 109.990028 66.475677 
L 110.370483 72.857947 
L 110.750938 76.403144 
L 111.892301 55.515039 
L 112.272756 52.499934 
L 112.65321 45.784961 
L 113.033665 43.696461 
L 113.414119 43.755321 
L 113.794574 43.125764 
L 114.175028 46.123061 
L 114.555483 50.057239 
L 115.696847 66.273624 
L 116.077301 69.606921 
L 116.457756 74.297433 
L 116.83821 74.929517 
L 117.218665 77.539567 
L 117.599119 78.292648 
L 117.979574 72.365875 
L 118.740483 56.720874 
L 119.501392 53.578598 
L 119.881847 52.992079 
L 120.262301 54.449576 
L 120.642756 58.877279 
L 121.02321 60.024378 
L 121.784119 73.551427 
L 122.164574 75.901286 
L 122.545028 80.808216 
L 122.925483 78.74397 
L 123.305938 79.847703 
L 124.066847 83.128425 
L 124.447301 80.014869 
L 124.827756 71.678208 
L 125.20821 67.787928 
L 125.588665 62.444942 
L 125.969119 60.557467 
L 126.349574 57.730952 
L 126.730028 58.073071 
L 127.110483 58.814732 
L 127.490938 61.996348 
L 127.871392 62.065115 
L 128.251847 66.252905 
L 128.632301 64.380412 
L 129.012756 64.445806 
L 129.39321 67.676347 
L 129.773665 66.952456 
L 130.154119 69.594251 
L 130.534574 68.996147 
L 130.915028 72.571559 
L 131.295483 74.681196 
L 131.675938 79.425544 
L 132.056392 74.040117 
L 132.436847 72.090865 
L 132.817301 68.627748 
L 133.197756 69.402016 
L 133.57821 69.205381 
L 133.958665 70.25656 
L 134.339119 74.327201 
L 134.719574 73.466068 
L 135.100028 74.074391 
L 135.480483 77.695444 
L 135.860938 78.899753 
L 136.241392 80.882506 
L 136.621847 84.339948 
L 137.002301 86.617342 
L 137.382756 90.061095 
L 138.143665 76.612281 
L 138.524119 69.220574 
L 138.904574 67.789459 
L 139.285028 60.687093 
L 140.045938 58.254595 
L 140.426392 58.560142 
L 140.806847 60.975264 
L 141.187301 61.24408 
L 141.567756 64.008303 
L 142.328665 68.007309 
L 142.709119 68.463049 
L 143.089574 71.116572 
L 143.470028 72.979304 
L 143.850483 77.273358 
L 144.230938 77.612829 
L 144.611392 84.639673 
L 145.752756 65.779927 
L 146.513665 60.516835 
L 146.894119 60.550525 
L 147.274574 55.36462 
L 147.655028 56.481105 
L 148.035483 60.434177 
L 148.796392 65.323244 
L 149.176847 69.661097 
L 149.557301 66.713023 
L 150.31821 69.156057 
L 150.698665 73.461195 
L 151.079119 74.096416 
L 151.840028 79.10405 
L 152.220483 75.773146 
L 152.600938 68.674171 
L 153.361847 61.592397 
L 153.742301 59.736638 
L 154.50321 61.944242 
L 154.883665 61.535094 
L 155.644574 64.464916 
L 156.025028 63.82314 
L 156.405483 64.769194 
L 156.785938 67.327471 
L 157.166392 64.437976 
L 157.546847 65.814312 
L 157.927301 64.780764 
L 159.068665 72.866184 
L 159.829574 65.031428 
L 160.210028 63.703838 
L 160.590483 65.231129 
L 160.970938 64.47808 
L 161.351392 64.844612 
L 161.731847 63.274821 
L 162.492756 68.933663 
L 162.87321 70.326648 
L 163.253665 73.401873 
L 163.634119 71.361081 
L 164.014574 74.99979 
L 164.395028 71.462154 
L 164.775483 75.380984 
L 165.155937 78.124272 
L 165.536392 73.327116 
L 165.916847 66.328539 
L 166.297301 61.395028 
L 166.677756 61.20448 
L 167.05821 57.412938 
L 167.438665 56.854798 
L 168.199574 57.426996 
L 168.580028 59.109852 
L 168.960483 62.755271 
L 169.340937 61.424115 
L 169.721392 64.775715 
L 170.101847 61.536664 
L 170.482301 66.114423 
L 170.862756 67.423364 
L 171.623665 73.007836 
L 172.004119 78.582929 
L 172.384574 70.055466 
L 172.765028 66.959482 
L 173.145483 62.159411 
L 173.525937 59.232089 
L 173.906392 58.547531 
L 174.286847 58.351541 
L 174.667301 60.48198 
L 175.047756 64.626875 
L 175.808665 70.904191 
L 176.189119 74.666949 
L 176.569574 74.65543 
L 176.950028 77.687017 
L 177.710938 73.124555 
L 178.091392 73.927518 
L 178.471847 74.193688 
L 178.852301 72.825434 
L 179.61321 59.640963 
L 179.993665 60.973459 
L 180.374119 59.15617 
L 180.754574 59.063505 
L 181.135028 59.767237 
L 181.895938 64.189979 
L 182.276392 68.834768 
L 182.656847 69.433027 
L 183.037301 70.352993 
L 183.417756 68.692591 
L 183.79821 71.134968 
L 184.178665 71.137836 
L 184.559119 75.444309 
L 184.939574 74.209864 
L 185.320028 77.621428 
L 185.700483 75.331313 
L 186.461392 65.692526 
L 187.222301 61.900664 
L 187.602756 61.900303 
L 187.98321 64.934364 
L 188.744119 63.028999 
L 189.124574 65.227474 
L 189.505028 65.145567 
L 189.885483 64.775667 
L 190.265938 62.251442 
L 190.646392 64.847442 
L 191.026847 69.0514 
L 191.407301 69.864891 
L 191.787756 69.240448 
L 192.16821 72.819758 
L 192.548665 73.538899 
L 192.929119 69.363394 
L 193.309574 63.668616 
L 193.690028 60.255836 
L 194.070483 60.800947 
L 194.450938 57.496564 
L 194.831392 57.973467 
L 195.211847 56.555738 
L 195.592301 58.275914 
L 195.972756 55.139973 
L 196.35321 58.75454 
L 196.733665 57.668373 
L 197.494574 60.97789 
L 197.875028 59.899895 
L 198.635938 67.359996 
L 199.016392 68.913677 
L 199.396847 71.559477 
L 199.777301 68.965624 
L 200.157756 61.214971 
L 200.53821 58.455837 
L 200.918665 56.663232 
L 201.679574 50.77889 
L 202.060028 54.299291 
L 202.440483 56.668026 
L 202.820938 54.790071 
L 203.581847 57.784586 
L 203.962301 63.396109 
L 203.962301 63.396109 
" clip-path="url(#pabaa3a21a1)" style="fill: none; stroke: #1f77b4; stroke-linecap: square"/>
   </g>
   <g id="line2d_10">
    <path d="M 52.160938 51.279526 
L 52.541392 52.28245 
L 52.921847 52.299892 
L 53.302301 53.942143 
L 53.682756 53.395424 
L 54.06321 59.885191 
L 54.443665 63.201956 
L 54.824119 63.36746 
L 55.204574 64.471569 
L 55.585028 67.170047 
L 55.965483 72.281305 
L 56.345938 65.1076 
L 57.867756 51.223522 
L 58.24821 50.9728 
L 58.628665 51.428797 
L 59.009119 53.100187 
L 59.389574 52.805061 
L 60.150483 54.261977 
L 60.530938 58.310105 
L 60.911392 58.470773 
L 61.672301 60.730539 
L 62.43321 67.512044 
L 62.813665 73.385428 
L 63.194119 66.456096 
L 63.955028 58.016363 
L 64.335483 56.709452 
L 64.715938 53.897508 
L 65.096392 55.216388 
L 65.476847 55.30751 
L 65.857301 55.680372 
L 66.237756 58.920647 
L 66.61821 59.161109 
L 66.998665 60.419584 
L 67.379119 65.324743 
L 67.759574 67.057321 
L 68.520483 75.241499 
L 68.900937 78.556557 
L 69.281392 80.281276 
L 70.042301 69.935343 
L 70.422756 61.797693 
L 71.564119 48.756093 
L 71.944574 48.502115 
L 72.325028 46.336579 
L 72.705483 47.366867 
L 73.085938 46.895849 
L 73.466392 49.153423 
L 74.227301 56.530808 
L 74.98821 64.400578 
L 76.129574 76.357479 
L 76.890483 82.083509 
L 77.270938 73.090933 
L 78.412301 55.626441 
L 78.792756 57.780329 
L 79.17321 55.843174 
L 79.553665 60.642777 
L 79.934119 63.075374 
L 80.314574 66.481075 
L 80.695028 66.823059 
L 81.075483 67.442504 
L 81.455938 70.580545 
L 81.836392 71.233573 
L 82.216847 72.694334 
L 82.597301 73.298613 
L 82.977756 73.360806 
L 83.35821 77.319462 
L 83.738665 75.379565 
L 84.119119 71.173462 
L 84.499574 65.32995 
L 84.880028 62.776523 
L 85.260483 62.13612 
L 85.640938 60.719944 
L 86.021392 62.602201 
L 86.401847 63.810767 
L 86.782301 63.026708 
L 87.162756 67.5425 
L 87.54321 66.249119 
L 87.923665 66.760592 
L 88.304119 70.442382 
L 88.684574 71.105574 
L 89.065028 70.376715 
L 89.445483 75.553171 
L 89.825938 73.200305 
L 90.206392 79.081038 
L 90.586847 79.020392 
L 91.347756 67.748808 
L 92.108665 60.712483 
L 92.489119 59.634829 
L 93.250028 61.375684 
L 93.630483 60.83317 
L 94.391392 68.757237 
L 94.771847 73.968476 
L 95.152301 76.534943 
L 95.532756 76.925999 
L 95.91321 80.20905 
L 96.293665 79.936411 
L 96.674119 80.501318 
L 97.054574 86.581698 
L 97.815483 68.29541 
L 98.195938 63.859245 
L 98.576392 57.598921 
L 99.337301 51.932489 
L 99.717756 52.924015 
L 100.09821 50.890805 
L 100.478665 53.756705 
L 101.239574 60.871754 
L 101.620028 61.195308 
L 102.000483 67.598027 
L 103.141847 74.779639 
L 103.522301 79.968533 
L 103.902756 81.630145 
L 104.28321 84.123216 
L 105.044119 67.627187 
L 105.424574 62.408837 
L 105.805028 61.06644 
L 106.185483 58.462529 
L 106.565938 58.708373 
L 106.946392 62.91199 
L 107.326847 64.610329 
L 107.707301 65.757266 
L 108.46821 76.152073 
L 109.229119 82.734821 
L 109.609574 80.500825 
L 109.990028 82.428611 
L 110.370483 79.983017 
L 110.750938 81.51678 
L 111.131392 77.391799 
L 111.511847 70.235141 
L 111.892301 65.805587 
L 112.272756 63.764151 
L 112.65321 63.025058 
L 113.033665 66.430656 
L 113.414119 65.898801 
L 113.794574 74.104703 
L 114.555483 79.269399 
L 114.935938 79.275938 
L 115.696847 82.935789 
L 116.83821 88.787844 
L 117.218665 87.150622 
L 117.599119 84.070402 
L 117.979574 73.940069 
L 118.740483 66.846333 
L 119.120938 66.343033 
L 119.501392 64.242254 
L 119.881847 64.942281 
L 120.262301 64.336834 
L 120.642756 64.139144 
L 121.02321 69.48866 
L 121.403665 73.12579 
L 121.784119 74.118225 
L 122.164574 70.955436 
L 122.545028 71.51076 
L 122.925483 75.950454 
L 123.305938 73.522822 
L 123.686392 76.9425 
L 124.066847 81.433827 
L 124.447301 82.554212 
L 124.827756 75.227012 
L 125.20821 73.038388 
L 125.588665 67.284666 
L 125.969119 65.422563 
L 126.349574 64.22842 
L 126.730028 66.377856 
L 127.110483 65.421382 
L 127.490938 71.478548 
L 127.871392 74.339485 
L 128.251847 74.153472 
L 128.632301 75.464801 
L 129.012756 77.378917 
L 129.39321 77.459594 
L 130.154119 79.159856 
L 130.915028 84.004149 
L 131.675938 70.766415 
L 132.056392 67.97931 
L 132.436847 61.999722 
L 132.817301 58.865509 
L 133.197756 60.529515 
L 133.57821 57.746529 
L 133.958665 60.163977 
L 134.339119 63.966897 
L 134.719574 65.339287 
L 135.100028 69.204592 
L 135.480483 71.462056 
L 135.860938 71.087933 
L 136.241392 78.065288 
L 136.621847 79.755104 
L 137.382756 90.108024 
L 137.76321 91.442386 
L 138.143665 79.215385 
L 138.524119 72.823281 
L 138.904574 68.737956 
L 139.285028 58.767053 
L 139.665483 55.425127 
L 140.045938 55.621132 
L 140.426392 52.975245 
L 140.806847 53.35028 
L 141.187301 55.556735 
L 141.567756 55.34909 
L 141.94821 57.55726 
L 142.328665 57.857878 
L 143.089574 61.812722 
L 143.470028 68.020644 
L 143.850483 71.605087 
L 144.230938 70.473764 
L 144.991847 80.148658 
L 146.513665 62.328669 
L 147.274574 66.039706 
L 147.655028 69.148717 
L 148.415938 71.988452 
L 148.796392 73.773604 
L 149.176847 77.486179 
L 149.557301 77.86366 
L 149.937756 76.192828 
L 150.31821 78.417216 
L 150.698665 79.282788 
L 151.079119 76.281145 
L 151.459574 78.298932 
L 151.840028 76.044933 
L 152.600938 64.429419 
L 152.981392 64.383559 
L 153.361847 65.221897 
L 153.742301 64.844295 
L 154.122756 67.124673 
L 154.50321 70.209869 
L 154.883665 70.280711 
L 155.264119 71.045067 
L 155.644574 76.872767 
L 156.025028 74.983744 
L 156.405483 77.422861 
L 156.785938 77.718133 
L 157.166392 77.415229 
L 157.546847 77.904999 
L 158.307756 81.258682 
L 159.068665 67.650182 
L 159.449119 67.31371 
L 159.829574 61.779276 
L 160.210028 61.481374 
L 160.590483 64.960496 
L 161.351392 69.600286 
L 161.731847 68.612067 
L 162.112301 69.46411 
L 162.492756 69.839924 
L 162.87321 74.186609 
L 163.253665 75.57021 
L 163.634119 71.198638 
L 164.775483 78.981486 
L 165.155937 77.219182 
L 165.536392 68.632769 
L 166.297301 63.556821 
L 166.677756 58.116439 
L 167.05821 60.502578 
L 167.438665 57.455341 
L 168.199574 57.846733 
L 168.580028 59.844708 
L 168.960483 60.509183 
L 169.721392 59.56837 
L 170.101847 57.615417 
L 170.482301 58.919639 
L 170.862756 57.610209 
L 171.24321 61.194135 
L 171.623665 61.706398 
L 172.004119 63.050716 
L 172.384574 68.577048 
L 173.525937 61.60887 
L 173.906392 63.602554 
L 174.286847 63.290344 
L 174.667301 61.600948 
L 175.047756 64.555131 
L 175.42821 66.098647 
L 175.808665 66.673137 
L 176.569574 69.256787 
L 176.950028 72.228734 
L 177.330483 73.23533 
L 177.710938 72.380618 
L 178.091392 75.967272 
L 178.471847 72.841719 
L 179.232756 60.480232 
L 179.61321 58.449103 
L 179.993665 52.363998 
L 180.374119 50.861388 
L 180.754574 47.783912 
L 181.135028 47.842992 
L 181.515483 48.69583 
L 182.276392 49.555864 
L 182.656847 53.692274 
L 183.037301 55.431833 
L 183.417756 59.017908 
L 183.79821 58.684171 
L 184.178665 64.061603 
L 184.939574 65.976314 
L 185.320028 70.03294 
L 185.700483 71.016539 
L 186.080938 63.905894 
L 187.222301 51.991722 
L 187.602756 54.480094 
L 187.98321 52.403304 
L 188.363665 52.478728 
L 188.744119 56.454185 
L 189.124574 56.933012 
L 189.505028 58.431991 
L 189.885483 58.775459 
L 190.265938 62.328577 
L 190.646392 62.405476 
L 191.407301 69.442763 
L 191.787756 70.272402 
L 192.16821 75.612309 
L 192.548665 71.300786 
L 193.690028 54.401306 
L 194.070483 54.985164 
L 194.450938 54.671845 
L 194.831392 53.853714 
L 195.211847 55.965671 
L 195.592301 54.439729 
L 195.972756 54.946764 
L 196.35321 59.405012 
L 197.114119 61.474024 
L 197.494574 60.260751 
L 197.875028 64.138407 
L 198.255483 61.82554 
L 199.016392 66.176302 
L 199.396847 68.336018 
L 199.777301 67.210563 
L 200.157756 61.901763 
L 200.53821 60.598948 
L 201.299119 55.218931 
L 201.679574 56.299619 
L 202.060028 56.48983 
L 202.440483 57.158709 
L 202.820938 55.924095 
L 203.201392 53.944911 
L 203.962301 55.837727 
L 203.962301 55.837727 
" clip-path="url(#pabaa3a21a1)" style="fill: none; stroke: #ff7f0e; stroke-linecap: square"/>
   </g>
   <g id="patch_3">
    <path d="M 52.160938 94.87875 
L 52.160938 19.27875 
" style="fill: none; stroke: #000000; stroke-width: 0.8; stroke-linejoin: miter; stroke-linecap: square"/>
   </g>
   <g id="patch_4">
    <path d="M 204.342756 94.87875 
L 204.342756 19.27875 
" style="fill: none; stroke: #000000; stroke-width: 0.8; stroke-linejoin: miter; stroke-linecap: square"/>
   </g>
   <g id="patch_5">
    <path d="M 52.160938 94.87875 
L 204.342756 94.87875 
" style="fill: none; stroke: #000000; stroke-width: 0.8; stroke-linejoin: miter; stroke-linecap: square"/>
   </g>
   <g id="patch_6">
    <path d="M 52.160938 19.27875 
L 204.342756 19.27875 
" style="fill: none; stroke: #000000; stroke-width: 0.8; stroke-linejoin: miter; stroke-linecap: square"/>
   </g>
   <g id="text_5">
    <!-- eps. 0 -->
    <g transform="translate(116.079972 13.27875)scale(0.08 -0.08)">
     <defs>
      <path id="DejaVuSans-65" d="M 3597 1894 
L 3597 1613 
L 953 1613 
Q 991 1019 1311 708 
Q 1631 397 2203 397 
Q 2534 397 2845 478 
Q 3156 559 3463 722 
L 3463 178 
Q 3153 47 2828 -22 
Q 2503 -91 2169 -91 
Q 1331 -91 842 396 
Q 353 884 353 1716 
Q 353 2575 817 3079 
Q 1281 3584 2069 3584 
Q 2775 3584 3186 3129 
Q 3597 2675 3597 1894 
z
M 3022 2063 
Q 3016 2534 2758 2815 
Q 2500 3097 2075 3097 
Q 1594 3097 1305 2825 
Q 1016 2553 972 2059 
L 3022 2063 
z
" transform="scale(0.015625)"/>
      <path id="DejaVuSans-70" d="M 1159 525 
L 1159 -1331 
L 581 -1331 
L 581 3500 
L 1159 3500 
L 1159 2969 
Q 1341 3281 1617 3432 
Q 1894 3584 2278 3584 
Q 2916 3584 3314 3078 
Q 3713 2572 3713 1747 
Q 3713 922 3314 415 
Q 2916 -91 2278 -91 
Q 1894 -91 1617 61 
Q 1341 213 1159 525 
z
M 3116 1747 
Q 3116 2381 2855 2742 
Q 2594 3103 2138 3103 
Q 1681 3103 1420 2742 
Q 1159 2381 1159 1747 
Q 1159 1113 1420 752 
Q 1681 391 2138 391 
Q 2594 391 2855 752 
Q 3116 1113 3116 1747 
z
" transform="scale(0.015625)"/>
      <path id="DejaVuSans-73" d="M 2834 3397 
L 2834 2853 
Q 2591 2978 2328 3040 
Q 2066 3103 1784 3103 
Q 1356 3103 1142 2972 
Q 928 2841 928 2578 
Q 928 2378 1081 2264 
Q 1234 2150 1697 2047 
L 1894 2003 
Q 2506 1872 2764 1633 
Q 3022 1394 3022 966 
Q 3022 478 2636 193 
Q 2250 -91 1575 -91 
Q 1294 -91 989 -36 
Q 684 19 347 128 
L 347 722 
Q 666 556 975 473 
Q 1284 391 1588 391 
Q 1994 391 2212 530 
Q 2431 669 2431 922 
Q 2431 1156 2273 1281 
Q 2116 1406 1581 1522 
L 1381 1569 
Q 847 1681 609 1914 
Q 372 2147 372 2553 
Q 372 3047 722 3315 
Q 1072 3584 1716 3584 
Q 2034 3584 2315 3537 
Q 2597 3491 2834 3397 
z
" transform="scale(0.015625)"/>
      <path id="DejaVuSans-20" transform="scale(0.015625)"/>
     </defs>
     <use xlink:href="#DejaVuSans-65"/>
     <use xlink:href="#DejaVuSans-70" x="61.523438"/>
     <use xlink:href="#DejaVuSans-73" x="125"/>
     <use xlink:href="#DejaVuSans-2e" x="177.099609"/>
     <use xlink:href="#DejaVuSans-20" x="208.886719"/>
     <use xlink:href="#DejaVuSans-30" x="240.673828"/>
    </g>
   </g>
   <g id="legend_1">
    <g id="patch_7">
     <path d="M 139.182756 32.885625 
L 200.142756 32.885625 
Q 201.342756 32.885625 201.342756 31.685625 
L 201.342756 23.47875 
Q 201.342756 22.27875 200.142756 22.27875 
L 139.182756 22.27875 
Q 137.982756 22.27875 137.982756 23.47875 
L 137.982756 31.685625 
Q 137.982756 32.885625 139.182756 32.885625 
z
" style="fill: #ffffff; opacity: 0.8; stroke: #cccccc; stroke-linejoin: miter"/>
    </g>
    <g id="line2d_11">
     <path d="M 140.382756 27.137813 
L 146.382756 27.137813 
L 152.382756 27.137813 
" style="fill: none; stroke: #1f77b4; stroke-linecap: square"/>
    </g>
    <g id="text_6">
     <!-- $\tau_0$ -->
     <g transform="translate(157.182756 29.237813)scale(0.06 -0.06)">
      <defs>
       <path id="DejaVuSans-Oblique-3c4" d="M 2103 638 
Q 2188 488 2525 488 
L 2800 488 
L 2706 0 
L 2363 0 
Q 1800 0 1600 300 
Q 1403 606 1534 1269 
L 1856 2925 
L 541 2925 
L 653 3500 
L 3881 3500 
L 3769 2925 
L 2444 2925 
L 2113 1234 
Q 2025 781 2103 638 
z
" transform="scale(0.015625)"/>
      </defs>
      <use xlink:href="#DejaVuSans-Oblique-3c4" transform="translate(0 0.3125)"/>
      <use xlink:href="#DejaVuSans-30" transform="translate(60.205078 -16.09375)scale(0.7)"/>
     </g>
    </g>
    <g id="line2d_12">
     <path d="M 175.662756 27.137813 
L 181.662756 27.137813 
L 187.662756 27.137813 
" style="fill: none; stroke: #ff7f0e; stroke-linecap: square"/>
    </g>
    <g id="text_7">
     <!-- $\tau_1$ -->
     <g transform="translate(192.462756 29.237813)scale(0.06 -0.06)">
      <use xlink:href="#DejaVuSans-Oblique-3c4" transform="translate(0 0.3125)"/>
      <use xlink:href="#DejaVuSans-31" transform="translate(60.205078 -16.09375)scale(0.7)"/>
     </g>
    </g>
   </g>
  </g>
  <g id="axes_2">
   <g id="patch_8">
    <path d="M 234.779119 94.87875 
L 386.960937 94.87875 
L 386.960937 19.27875 
L 234.779119 19.27875 
z
" style="fill: #ffffff"/>
   </g>
   <g id="matplotlib.axis_3">
    <g id="xtick_6">
     <g id="line2d_13">
      <g>
       <use xlink:href="#mf4ce15a4a3" x="234.779119" y="94.87875" style="stroke: #000000; stroke-width: 0.8"/>
      </g>
     </g>
    </g>
    <g id="xtick_7">
     <g id="line2d_14">
      <g>
       <use xlink:href="#mf4ce15a4a3" x="272.824574" y="94.87875" style="stroke: #000000; stroke-width: 0.8"/>
      </g>
     </g>
    </g>
    <g id="xtick_8">
     <g id="line2d_15">
      <g>
       <use xlink:href="#mf4ce15a4a3" x="310.870028" y="94.87875" style="stroke: #000000; stroke-width: 0.8"/>
      </g>
     </g>
    </g>
    <g id="xtick_9">
     <g id="line2d_16">
      <g>
       <use xlink:href="#mf4ce15a4a3" x="348.915483" y="94.87875" style="stroke: #000000; stroke-width: 0.8"/>
      </g>
     </g>
    </g>
    <g id="xtick_10">
     <g id="line2d_17">
      <g>
       <use xlink:href="#mf4ce15a4a3" x="386.960937" y="94.87875" style="stroke: #000000; stroke-width: 0.8"/>
      </g>
     </g>
    </g>
   </g>
   <g id="matplotlib.axis_4">
    <g id="ytick_4">
     <g id="line2d_18">
      <g>
       <use xlink:href="#m3d286526d9" x="234.779119" y="89.247572" style="stroke: #000000; stroke-width: 0.8"/>
      </g>
     </g>
    </g>
    <g id="ytick_5">
     <g id="line2d_19">
      <g>
       <use xlink:href="#m3d286526d9" x="234.779119" y="58.704432" style="stroke: #000000; stroke-width: 0.8"/>
      </g>
     </g>
    </g>
    <g id="ytick_6">
     <g id="line2d_20">
      <g>
       <use xlink:href="#m3d286526d9" x="234.779119" y="28.161292" style="stroke: #000000; stroke-width: 0.8"/>
      </g>
     </g>
    </g>
   </g>
   <g id="line2d_21">
    <path d="M 234.779119 51.279526 
L 235.540028 54.352599 
L 235.920483 54.716298 
L 236.300937 61.021075 
L 236.681392 62.544076 
L 237.061847 67.627476 
L 237.442301 67.585547 
L 237.822756 70.578326 
L 238.20321 75.900071 
L 238.583665 73.29961 
L 238.964119 65.980004 
L 240.105483 52.762537 
L 240.485937 50.164287 
L 240.866392 49.297121 
L 241.246847 47.974072 
L 242.007756 46.803048 
L 242.38821 47.979503 
L 242.768665 48.093209 
L 243.149119 51.577133 
L 243.529574 51.779461 
L 243.910028 52.629321 
L 244.290483 55.440164 
L 244.670937 56.209571 
L 245.812301 68.323382 
L 246.192756 67.710801 
L 246.57321 61.833389 
L 247.334119 57.575519 
L 248.095028 59.256624 
L 248.475483 59.236084 
L 248.855937 61.874589 
L 249.236392 62.830369 
L 249.616847 62.597982 
L 249.997301 62.630444 
L 250.377756 62.313598 
L 250.75821 60.297179 
L 251.138665 59.727121 
L 251.519119 61.082448 
L 251.899574 63.808698 
L 252.280028 64.010771 
L 252.660483 65.85603 
L 253.421392 56.740178 
L 254.182301 53.934164 
L 254.562756 52.099372 
L 254.94321 51.646376 
L 255.323665 53.372753 
L 255.704119 50.586653 
L 256.084574 54.620729 
L 256.465028 55.635827 
L 256.845483 55.408352 
L 257.225937 55.806919 
L 257.606392 61.020433 
L 257.986847 63.203952 
L 258.367301 63.208663 
L 258.747756 65.621584 
L 259.12821 65.553223 
L 259.508665 69.500333 
L 259.889119 61.343806 
L 260.269574 56.095372 
L 260.650028 54.902501 
L 261.410937 47.232293 
L 261.791392 47.663491 
L 262.552301 52.012286 
L 262.932756 49.818797 
L 263.31321 49.880281 
L 263.693665 48.82623 
L 264.454574 55.199968 
L 264.835028 58.112554 
L 265.215483 59.555953 
L 265.595937 62.15876 
L 265.976392 66.785981 
L 266.356847 67.795778 
L 266.737301 60.503056 
L 268.259119 46.767027 
L 269.020028 43.377265 
L 269.400483 41.900442 
L 270.161392 46.177801 
L 270.541847 44.393001 
L 270.922301 47.605666 
L 271.302756 45.056148 
L 272.063665 49.079564 
L 272.444119 50.164321 
L 272.824574 53.992258 
L 273.205028 53.961724 
L 273.585483 62.104551 
L 273.965937 56.617977 
L 274.346392 55.974365 
L 274.726847 52.538869 
L 275.107301 50.809329 
L 275.487756 47.476911 
L 275.86821 45.838859 
L 276.248665 46.209733 
L 276.629119 45.983117 
L 277.009574 46.789775 
L 277.390028 42.983586 
L 277.770483 42.176081 
L 278.150937 46.259759 
L 278.531392 47.352446 
L 278.911847 47.829873 
L 279.292301 48.9782 
L 280.05321 52.233588 
L 280.433665 55.885885 
L 280.814119 57.104641 
L 281.575028 50.787684 
L 281.955483 48.037463 
L 282.335937 46.755935 
L 282.716392 43.768878 
L 283.096847 44.973324 
L 283.477301 44.188776 
L 283.857756 41.126435 
L 284.23821 43.607461 
L 284.618665 43.718957 
L 284.999119 41.84787 
L 285.379574 43.176379 
L 285.760028 43.229424 
L 286.140483 43.069703 
L 286.520937 47.199341 
L 286.901392 48.26626 
L 287.662301 55.14239 
L 288.42321 47.091825 
L 288.803665 47.136044 
L 289.184119 41.371798 
L 289.945028 37.636258 
L 290.325483 39.337345 
L 290.705937 36.963417 
L 291.086392 36.47013 
L 291.466847 41.039388 
L 292.227756 44.907449 
L 292.60821 44.992368 
L 293.369119 54.971922 
L 294.130028 57.471076 
L 294.890937 49.747517 
L 295.271392 42.090628 
L 295.651847 38.852577 
L 296.032301 36.833364 
L 296.412756 33.419237 
L 296.79321 33.660228 
L 297.173665 34.487077 
L 297.934574 39.902677 
L 298.315028 42.987167 
L 298.695483 44.879292 
L 299.075937 48.557344 
L 299.456392 48.604124 
L 299.836847 50.190297 
L 300.217301 50.702247 
L 300.597756 52.574332 
L 300.97821 53.611893 
L 301.358665 53.00804 
L 302.500028 44.683202 
L 302.880483 42.998475 
L 303.260937 44.802628 
L 303.641392 43.348924 
L 304.021847 46.14128 
L 304.402301 50.73188 
L 304.782756 51.191207 
L 305.16321 54.911531 
L 305.543665 52.885556 
L 306.304574 54.989196 
L 307.065483 57.08431 
L 307.445937 57.709066 
L 307.826392 60.523688 
L 308.967756 48.057004 
L 309.728665 44.757171 
L 310.109119 44.371234 
L 310.489574 42.363798 
L 310.870028 44.497445 
L 311.250483 41.569305 
L 311.630937 41.419944 
L 312.011392 43.57659 
L 312.391847 42.272855 
L 312.772301 43.870744 
L 313.152756 42.369459 
L 313.53321 43.746774 
L 313.913665 43.41552 
L 314.294119 45.496262 
L 314.674574 45.836156 
L 315.055028 49.525001 
L 315.435483 51.001659 
L 315.815937 55.828643 
L 316.196392 56.69307 
L 316.576847 54.177389 
L 316.957301 55.01564 
L 317.337756 52.539289 
L 317.71821 51.423477 
L 318.098665 52.587964 
L 318.859574 52.854851 
L 319.240028 55.037896 
L 319.620483 56.402271 
L 320.381392 60.300035 
L 320.761847 61.628978 
L 321.142301 65.477581 
L 321.522756 64.926753 
L 321.90321 56.818761 
L 322.283665 53.719803 
L 323.044574 46.231111 
L 323.425028 44.479764 
L 323.805483 41.155189 
L 324.185937 40.92652 
L 324.566392 40.0668 
L 324.946847 40.477243 
L 325.327301 39.975434 
L 325.707756 41.976589 
L 326.08821 42.925925 
L 326.468665 46.323958 
L 326.849119 45.484389 
L 327.229574 51.192337 
L 327.610028 52.520477 
L 327.990483 58.647534 
L 328.370937 61.081003 
L 328.751392 61.945672 
L 329.131847 56.793928 
L 329.512301 54.548968 
L 329.892756 46.953982 
L 330.27321 43.952774 
L 331.034119 42.152139 
L 331.414574 40.852655 
L 331.795028 43.316592 
L 332.175483 39.801802 
L 332.936392 40.861354 
L 333.316847 44.685905 
L 333.697301 45.171797 
L 334.45821 48.610046 
L 334.838665 55.587622 
L 335.219119 56.827483 
L 335.599574 59.991557 
L 335.980028 61.171056 
L 336.360483 56.186916 
L 337.882301 44.005072 
L 338.64321 40.799528 
L 339.023665 40.805479 
L 339.404119 42.398214 
L 339.784574 39.588126 
L 340.165028 40.686777 
L 340.545483 38.992981 
L 340.925937 40.397489 
L 341.306392 40.864982 
L 341.686847 41.103657 
L 342.447756 44.974159 
L 342.82821 46.546329 
L 343.589119 55.351702 
L 343.969574 55.384585 
L 344.350028 51.240497 
L 344.730483 50.38379 
L 345.110937 50.389508 
L 345.491392 49.413599 
L 345.871847 51.125597 
L 346.252301 48.176764 
L 346.632756 50.446891 
L 347.01321 46.408416 
L 347.393665 48.653559 
L 348.154574 50.870726 
L 348.535028 50.250338 
L 349.295937 55.611472 
L 349.676392 54.156225 
L 350.056847 55.231205 
L 350.817756 48.490519 
L 351.19821 46.386701 
L 351.578665 46.040366 
L 351.959119 42.054 
L 352.339574 43.563512 
L 352.720028 39.486169 
L 353.100483 42.598987 
L 353.480937 42.210261 
L 354.241847 44.155672 
L 354.622301 48.326802 
L 355.002756 46.792246 
L 355.38321 49.152568 
L 356.144119 50.889363 
L 356.524574 53.37054 
L 356.905028 54.731695 
L 357.285483 51.328215 
L 358.426847 45.694985 
L 358.807301 46.791653 
L 359.187756 44.911927 
L 359.56821 46.289611 
L 360.329119 42.77924 
L 360.709574 42.98046 
L 361.090028 42.276769 
L 361.470483 42.721344 
L 361.850937 40.836853 
L 362.231392 41.620293 
L 362.611847 45.301988 
L 362.992301 43.197058 
L 363.372756 45.811028 
L 363.75321 50.747943 
L 364.133665 50.971784 
L 364.514119 48.620853 
L 364.894574 48.446963 
L 365.275028 45.568007 
L 365.655483 44.769451 
L 366.035937 42.113802 
L 366.416392 43.251744 
L 366.796847 41.697271 
L 367.177301 44.239019 
L 367.557756 40.986149 
L 367.93821 41.901956 
L 368.318665 40.573819 
L 368.699119 40.58302 
L 369.079574 40.423655 
L 369.840483 43.004722 
L 370.220937 43.486042 
L 370.601392 47.534066 
L 370.981847 49.737747 
L 371.362301 45.591471 
L 371.742756 44.455839 
L 372.12321 42.140315 
L 372.503665 40.613446 
L 372.884119 37.138211 
L 373.264574 36.802101 
L 373.645028 38.00686 
L 374.025483 36.601458 
L 374.405937 33.62885 
L 374.786392 33.808362 
L 375.166847 38.777469 
L 375.547301 39.630009 
L 375.927756 39.447221 
L 376.688665 47.862409 
L 377.069119 46.920587 
L 377.449574 50.445754 
L 377.830028 46.489789 
L 378.210483 44.042902 
L 378.590937 38.003999 
L 378.971392 37.998325 
L 379.351847 32.848832 
L 379.732301 32.203779 
L 380.112756 31.104504 
L 380.49321 28.313567 
L 380.873665 30.204181 
L 381.254119 30.806809 
L 381.634574 29.307178 
L 382.015028 28.930454 
L 382.395483 32.387037 
L 382.775937 32.670734 
L 383.156392 34.031084 
L 383.536847 36.992985 
L 383.917301 41.466086 
L 384.297756 41.27401 
L 384.67821 43.46343 
L 385.058665 46.856115 
L 385.439119 40.996528 
L 385.819574 38.84387 
L 386.200028 35.476713 
L 386.580483 35.870146 
L 386.580483 35.870146 
" clip-path="url(#p0c7f148c7f)" style="fill: none; stroke: #1f77b4; stroke-linecap: square"/>
   </g>
   <g id="line2d_22">
    <path d="M 234.779119 51.279526 
L 235.159574 52.163959 
L 235.540028 51.68322 
L 235.920483 53.061551 
L 236.300937 52.565004 
L 236.681392 58.771828 
L 237.061847 62.060224 
L 237.442301 62.089284 
L 237.822756 63.040837 
L 238.20321 65.455624 
L 238.583665 70.462495 
L 238.964119 65.067908 
L 240.485937 51.256613 
L 241.246847 50.684572 
L 241.627301 51.105303 
L 242.007756 50.530235 
L 242.38821 50.288453 
L 242.768665 50.445681 
L 243.149119 53.202385 
L 243.529574 52.336565 
L 244.290483 53.223402 
L 244.670937 55.306384 
L 245.051392 58.607669 
L 245.431847 64.531073 
L 245.812301 66.086547 
L 246.192756 63.339563 
L 246.57321 58.941721 
L 246.953665 57.889327 
L 247.334119 54.630082 
L 247.714574 55.396611 
L 248.475483 54.029056 
L 248.855937 55.882567 
L 249.236392 55.057715 
L 249.616847 55.324008 
L 249.997301 58.814032 
L 250.377756 59.705125 
L 251.138665 66.761857 
L 251.519119 69.721584 
L 251.899574 71.240042 
L 252.280028 69.980046 
L 252.660483 65.519435 
L 253.040937 58.096911 
L 254.182301 45.113449 
L 254.562756 43.790596 
L 254.94321 40.646643 
L 255.323665 40.397829 
L 255.704119 38.63738 
L 256.084574 39.660269 
L 256.465028 42.287948 
L 257.225937 46.263767 
L 258.367301 56.370407 
L 259.12821 62.651911 
L 259.508665 67.582978 
L 259.889119 67.254682 
L 261.030483 51.659442 
L 261.410937 52.084071 
L 261.791392 48.568215 
L 262.171847 51.048611 
L 262.552301 51.457075 
L 262.932756 53.606997 
L 263.31321 52.840227 
L 263.693665 52.534302 
L 264.074119 54.805402 
L 264.454574 55.126307 
L 264.835028 56.499226 
L 265.215483 57.335536 
L 265.595937 57.377745 
L 265.976392 61.299054 
L 266.356847 62.17482 
L 266.737301 64.736544 
L 267.117756 59.510947 
L 267.49821 56.594268 
L 267.878665 54.958368 
L 268.259119 51.862857 
L 268.639574 52.523942 
L 269.020028 51.495907 
L 269.400483 49.514594 
L 269.780937 52.478481 
L 270.161392 50.158178 
L 270.541847 50.363255 
L 270.922301 52.755167 
L 271.302756 52.793534 
L 271.68321 51.939318 
L 272.063665 56.510754 
L 272.444119 53.971135 
L 272.824574 58.942954 
L 273.205028 60.261381 
L 273.585483 64.828995 
L 273.965937 62.639871 
L 274.726847 54.894468 
L 275.107301 52.452144 
L 275.487756 51.442672 
L 275.86821 50.934692 
L 276.248665 48.770327 
L 276.629119 50.73274 
L 277.009574 51.667248 
L 277.390028 55.278085 
L 277.770483 57.145285 
L 278.150937 56.892541 
L 278.531392 59.941625 
L 278.911847 59.433249 
L 279.292301 60.049516 
L 279.672756 65.963243 
L 280.05321 66.27746 
L 280.433665 63.758774 
L 280.814119 60.05466 
L 281.194574 53.864022 
L 281.955483 46.39299 
L 282.335937 45.209237 
L 282.716392 41.336578 
L 283.857756 44.350205 
L 284.23821 43.755167 
L 284.618665 48.561603 
L 284.999119 49.236724 
L 285.760028 52.350972 
L 286.140483 56.355967 
L 286.520937 57.112164 
L 287.281847 63.383381 
L 287.662301 64.352456 
L 288.042756 58.689621 
L 288.42321 55.910493 
L 288.803665 51.847804 
L 289.184119 49.473928 
L 289.564574 50.905239 
L 289.945028 50.525775 
L 290.325483 49.689724 
L 290.705937 53.051837 
L 291.847301 60.020526 
L 292.227756 57.838012 
L 292.60821 59.865833 
L 292.988665 57.167427 
L 293.369119 58.01933 
L 293.749574 60.162682 
L 294.510483 60.962212 
L 295.271392 54.803341 
L 295.651847 55.317143 
L 296.032301 52.311667 
L 296.412756 57.665892 
L 296.79321 57.39615 
L 297.173665 58.120055 
L 297.554119 58.048507 
L 297.934574 59.675944 
L 298.315028 60.578242 
L 299.075937 63.108172 
L 299.456392 63.632291 
L 299.836847 61.873786 
L 300.217301 67.029321 
L 300.597756 66.975728 
L 300.97821 65.340285 
L 301.358665 60.491561 
L 301.739119 58.548661 
L 302.119574 54.476931 
L 302.500028 53.184533 
L 303.260937 48.44918 
L 303.641392 51.187975 
L 304.021847 52.719671 
L 304.402301 53.04283 
L 304.782756 50.257188 
L 305.16321 50.126923 
L 305.543665 53.665974 
L 305.924119 51.425068 
L 306.304574 53.956862 
L 306.685028 57.559395 
L 307.065483 57.119589 
L 307.445937 59.179418 
L 307.826392 66.5361 
L 308.587301 58.764813 
L 308.967756 55.347454 
L 309.34821 54.687132 
L 309.728665 50.907858 
L 310.109119 54.147309 
L 310.489574 53.70356 
L 310.870028 52.373666 
L 311.250483 52.776417 
L 311.630937 53.873863 
L 312.011392 53.651377 
L 312.772301 54.582298 
L 313.152756 56.4638 
L 313.913665 59.13615 
L 314.294119 58.970085 
L 314.674574 64.537141 
L 315.435483 54.394475 
L 315.815937 54.265163 
L 316.196392 49.161182 
L 316.576847 48.38893 
L 316.957301 49.48389 
L 317.337756 51.081647 
L 317.71821 48.744739 
L 318.098665 52.238384 
L 318.479119 54.556076 
L 318.859574 52.17707 
L 319.240028 52.797329 
L 319.620483 56.554875 
L 320.000937 53.239456 
L 320.381392 53.194232 
L 320.761847 54.042094 
L 321.142301 56.522647 
L 321.522756 57.037848 
L 321.90321 59.670997 
L 322.283665 54.576623 
L 322.664119 53.083857 
L 323.044574 49.856514 
L 323.425028 50.423011 
L 323.805483 50.005173 
L 324.185937 52.761588 
L 324.566392 53.068249 
L 324.946847 54.359857 
L 325.327301 57.525205 
L 325.707756 55.072676 
L 326.08821 54.870272 
L 326.468665 53.76148 
L 326.849119 56.192819 
L 327.229574 57.697428 
L 327.610028 57.277114 
L 327.990483 61.119989 
L 328.370937 60.260556 
L 329.131847 51.290298 
L 329.512301 51.216188 
L 329.892756 46.216388 
L 330.27321 43.468402 
L 330.653665 41.670526 
L 331.034119 42.51492 
L 331.414574 39.733212 
L 331.795028 43.476801 
L 332.175483 43.237164 
L 332.555937 45.692326 
L 332.936392 42.685557 
L 333.316847 45.077171 
L 333.697301 51.374827 
L 334.077756 53.448511 
L 334.45821 58.204399 
L 334.838665 59.443063 
L 335.219119 63.129475 
L 335.599574 62.518781 
L 335.980028 55.001108 
L 336.360483 50.769209 
L 336.740937 48.617614 
L 337.121392 41.729329 
L 337.882301 40.916862 
L 338.262756 36.1266 
L 338.64321 39.569015 
L 339.023665 38.240036 
L 339.404119 40.363028 
L 339.784574 43.227585 
L 340.165028 43.607803 
L 340.545483 47.3343 
L 340.925937 47.846158 
L 341.306392 48.147337 
L 341.686847 52.579617 
L 342.067301 55.536923 
L 342.447756 56.920612 
L 342.82821 59.22029 
L 343.208665 54.924147 
L 343.589119 48.293272 
L 343.969574 44.404683 
L 344.350028 44.246056 
L 345.871847 41.270894 
L 346.252301 47.581525 
L 346.632756 48.288882 
L 347.01321 48.536824 
L 347.393665 48.57053 
L 347.774119 53.370686 
L 348.535028 56.125161 
L 348.915483 54.733397 
L 349.676392 61.90416 
L 350.056847 54.098835 
L 350.437301 50.62159 
L 350.817756 49.227955 
L 351.578665 44.171815 
L 351.959119 47.970399 
L 352.339574 46.344367 
L 352.720028 51.30805 
L 353.100483 53.721629 
L 353.480937 56.88796 
L 353.861392 61.062167 
L 354.241847 60.505806 
L 354.622301 65.923955 
L 355.38321 71.849859 
L 355.763665 72.561052 
L 356.144119 69.409617 
L 356.905028 54.631503 
L 357.285483 51.741626 
L 357.665937 46.728673 
L 358.046392 46.006111 
L 358.426847 42.805405 
L 358.807301 42.751895 
L 359.187756 44.454685 
L 359.56821 44.687881 
L 359.948665 44.289709 
L 360.329119 46.809 
L 360.709574 48.283081 
L 361.090028 48.41848 
L 361.470483 49.168695 
L 361.850937 53.099404 
L 362.611847 57.860168 
L 363.75321 66.433985 
L 364.514119 57.0884 
L 364.894574 57.321902 
L 365.275028 53.941035 
L 366.035937 53.342469 
L 366.416392 53.477936 
L 366.796847 57.07633 
L 367.177301 54.582161 
L 367.557756 54.648186 
L 367.93821 59.384465 
L 368.318665 56.005615 
L 368.699119 58.053721 
L 369.079574 61.942341 
L 369.460028 59.967545 
L 369.840483 66.457482 
L 370.220937 70.100568 
L 370.601392 64.202442 
L 370.981847 62.724464 
L 371.362301 57.626681 
L 371.742756 54.039379 
L 372.503665 53.875955 
L 372.884119 51.620527 
L 373.264574 52.018853 
L 373.645028 53.290565 
L 374.025483 53.058972 
L 374.405937 51.421781 
L 374.786392 52.30601 
L 375.166847 52.309707 
L 375.547301 55.762527 
L 375.927756 57.30148 
L 376.688665 63.670824 
L 377.069119 64.816597 
L 377.830028 61.157037 
L 378.210483 54.98234 
L 378.590937 54.827976 
L 379.351847 49.178975 
L 379.732301 49.285033 
L 380.112756 51.351435 
L 380.873665 53.172515 
L 381.254119 58.594844 
L 381.634574 57.154544 
L 382.015028 61.030267 
L 382.395483 62.633099 
L 382.775937 63.334964 
L 383.156392 67.058284 
L 383.536847 65.823338 
L 383.917301 67.794398 
L 384.297756 61.522595 
L 385.058665 54.164034 
L 385.439119 53.446261 
L 385.819574 52.319281 
L 386.200028 53.256691 
L 386.580483 53.745044 
L 386.580483 53.745044 
" clip-path="url(#p0c7f148c7f)" style="fill: none; stroke: #ff7f0e; stroke-linecap: square"/>
   </g>
   <g id="patch_9">
    <path d="M 234.779119 94.87875 
L 234.779119 19.27875 
" style="fill: none; stroke: #000000; stroke-width: 0.8; stroke-linejoin: miter; stroke-linecap: square"/>
   </g>
   <g id="patch_10">
    <path d="M 386.960937 94.87875 
L 386.960937 19.27875 
" style="fill: none; stroke: #000000; stroke-width: 0.8; stroke-linejoin: miter; stroke-linecap: square"/>
   </g>
   <g id="patch_11">
    <path d="M 234.779119 94.87875 
L 386.960937 94.87875 
" style="fill: none; stroke: #000000; stroke-width: 0.8; stroke-linejoin: miter; stroke-linecap: square"/>
   </g>
   <g id="patch_12">
    <path d="M 234.779119 19.27875 
L 386.960937 19.27875 
" style="fill: none; stroke: #000000; stroke-width: 0.8; stroke-linejoin: miter; stroke-linecap: square"/>
   </g>
   <g id="text_8">
    <!-- eps. 4 -->
    <g transform="translate(298.698153 13.27875)scale(0.08 -0.08)">
     <defs>
      <path id="DejaVuSans-34" d="M 2419 4116 
L 825 1625 
L 2419 1625 
L 2419 4116 
z
M 2253 4666 
L 3047 4666 
L 3047 1625 
L 3713 1625 
L 3713 1100 
L 3047 1100 
L 3047 0 
L 2419 0 
L 2419 1100 
L 313 1100 
L 313 1709 
L 2253 4666 
z
" transform="scale(0.015625)"/>
     </defs>
     <use xlink:href="#DejaVuSans-65"/>
     <use xlink:href="#DejaVuSans-70" x="61.523438"/>
     <use xlink:href="#DejaVuSans-73" x="125"/>
     <use xlink:href="#DejaVuSans-2e" x="177.099609"/>
     <use xlink:href="#DejaVuSans-20" x="208.886719"/>
     <use xlink:href="#DejaVuSans-34" x="240.673828"/>
    </g>
   </g>
  </g>
  <g id="axes_3">
   <g id="patch_13">
    <path d="M 52.160938 185.59875 
L 204.342756 185.59875 
L 204.342756 109.99875 
L 52.160938 109.99875 
z
" style="fill: #ffffff"/>
   </g>
   <g id="matplotlib.axis_5">
    <g id="xtick_11">
     <g id="line2d_23">
      <g>
       <use xlink:href="#mf4ce15a4a3" x="52.160938" y="185.59875" style="stroke: #000000; stroke-width: 0.8"/>
      </g>
     </g>
     <g id="text_9">
      <!-- 0 -->
      <g transform="translate(48.979688 200.197188)scale(0.1 -0.1)">
       <use xlink:href="#DejaVuSans-30"/>
      </g>
     </g>
    </g>
    <g id="xtick_12">
     <g id="line2d_24">
      <g>
       <use xlink:href="#mf4ce15a4a3" x="90.206392" y="185.59875" style="stroke: #000000; stroke-width: 0.8"/>
      </g>
     </g>
     <g id="text_10">
      <!-- 100 -->
      <g transform="translate(80.662642 200.197188)scale(0.1 -0.1)">
       <use xlink:href="#DejaVuSans-31"/>
       <use xlink:href="#DejaVuSans-30" x="63.623047"/>
       <use xlink:href="#DejaVuSans-30" x="127.246094"/>
      </g>
     </g>
    </g>
    <g id="xtick_13">
     <g id="line2d_25">
      <g>
       <use xlink:href="#mf4ce15a4a3" x="128.251847" y="185.59875" style="stroke: #000000; stroke-width: 0.8"/>
      </g>
     </g>
     <g id="text_11">
      <!-- 200 -->
      <g transform="translate(118.708097 200.197188)scale(0.1 -0.1)">
       <use xlink:href="#DejaVuSans-32"/>
       <use xlink:href="#DejaVuSans-30" x="63.623047"/>
       <use xlink:href="#DejaVuSans-30" x="127.246094"/>
      </g>
     </g>
    </g>
    <g id="xtick_14">
     <g id="line2d_26">
      <g>
       <use xlink:href="#mf4ce15a4a3" x="166.297301" y="185.59875" style="stroke: #000000; stroke-width: 0.8"/>
      </g>
     </g>
     <g id="text_12">
      <!-- 300 -->
      <g transform="translate(156.753551 200.197188)scale(0.1 -0.1)">
       <defs>
        <path id="DejaVuSans-33" d="M 2597 2516 
Q 3050 2419 3304 2112 
Q 3559 1806 3559 1356 
Q 3559 666 3084 287 
Q 2609 -91 1734 -91 
Q 1441 -91 1130 -33 
Q 819 25 488 141 
L 488 750 
Q 750 597 1062 519 
Q 1375 441 1716 441 
Q 2309 441 2620 675 
Q 2931 909 2931 1356 
Q 2931 1769 2642 2001 
Q 2353 2234 1838 2234 
L 1294 2234 
L 1294 2753 
L 1863 2753 
Q 2328 2753 2575 2939 
Q 2822 3125 2822 3475 
Q 2822 3834 2567 4026 
Q 2313 4219 1838 4219 
Q 1578 4219 1281 4162 
Q 984 4106 628 3988 
L 628 4550 
Q 988 4650 1302 4700 
Q 1616 4750 1894 4750 
Q 2613 4750 3031 4423 
Q 3450 4097 3450 3541 
Q 3450 3153 3228 2886 
Q 3006 2619 2597 2516 
z
" transform="scale(0.015625)"/>
       </defs>
       <use xlink:href="#DejaVuSans-33"/>
       <use xlink:href="#DejaVuSans-30" x="63.623047"/>
       <use xlink:href="#DejaVuSans-30" x="127.246094"/>
      </g>
     </g>
    </g>
    <g id="xtick_15">
     <g id="line2d_27">
      <g>
       <use xlink:href="#mf4ce15a4a3" x="204.342756" y="185.59875" style="stroke: #000000; stroke-width: 0.8"/>
      </g>
     </g>
     <g id="text_13">
      <!-- 400 -->
      <g transform="translate(194.799006 200.197188)scale(0.1 -0.1)">
       <use xlink:href="#DejaVuSans-34"/>
       <use xlink:href="#DejaVuSans-30" x="63.623047"/>
       <use xlink:href="#DejaVuSans-30" x="127.246094"/>
      </g>
     </g>
    </g>
    <g id="text_14">
     <!-- interaction -->
     <g transform="translate(101.211222 213.875313)scale(0.1 -0.1)">
      <defs>
       <path id="DejaVuSans-69" d="M 603 3500 
L 1178 3500 
L 1178 0 
L 603 0 
L 603 3500 
z
M 603 4863 
L 1178 4863 
L 1178 4134 
L 603 4134 
L 603 4863 
z
" transform="scale(0.015625)"/>
       <path id="DejaVuSans-6e" d="M 3513 2113 
L 3513 0 
L 2938 0 
L 2938 2094 
Q 2938 2591 2744 2837 
Q 2550 3084 2163 3084 
Q 1697 3084 1428 2787 
Q 1159 2491 1159 1978 
L 1159 0 
L 581 0 
L 581 3500 
L 1159 3500 
L 1159 2956 
Q 1366 3272 1645 3428 
Q 1925 3584 2291 3584 
Q 2894 3584 3203 3211 
Q 3513 2838 3513 2113 
z
" transform="scale(0.015625)"/>
       <path id="DejaVuSans-74" d="M 1172 4494 
L 1172 3500 
L 2356 3500 
L 2356 3053 
L 1172 3053 
L 1172 1153 
Q 1172 725 1289 603 
Q 1406 481 1766 481 
L 2356 481 
L 2356 0 
L 1766 0 
Q 1100 0 847 248 
Q 594 497 594 1153 
L 594 3053 
L 172 3053 
L 172 3500 
L 594 3500 
L 594 4494 
L 1172 4494 
z
" transform="scale(0.015625)"/>
       <path id="DejaVuSans-72" d="M 2631 2963 
Q 2534 3019 2420 3045 
Q 2306 3072 2169 3072 
Q 1681 3072 1420 2755 
Q 1159 2438 1159 1844 
L 1159 0 
L 581 0 
L 581 3500 
L 1159 3500 
L 1159 2956 
Q 1341 3275 1631 3429 
Q 1922 3584 2338 3584 
Q 2397 3584 2469 3576 
Q 2541 3569 2628 3553 
L 2631 2963 
z
" transform="scale(0.015625)"/>
       <path id="DejaVuSans-61" d="M 2194 1759 
Q 1497 1759 1228 1600 
Q 959 1441 959 1056 
Q 959 750 1161 570 
Q 1363 391 1709 391 
Q 2188 391 2477 730 
Q 2766 1069 2766 1631 
L 2766 1759 
L 2194 1759 
z
M 3341 1997 
L 3341 0 
L 2766 0 
L 2766 531 
Q 2569 213 2275 61 
Q 1981 -91 1556 -91 
Q 1019 -91 701 211 
Q 384 513 384 1019 
Q 384 1609 779 1909 
Q 1175 2209 1959 2209 
L 2766 2209 
L 2766 2266 
Q 2766 2663 2505 2880 
Q 2244 3097 1772 3097 
Q 1472 3097 1187 3025 
Q 903 2953 641 2809 
L 641 3341 
Q 956 3463 1253 3523 
Q 1550 3584 1831 3584 
Q 2591 3584 2966 3190 
Q 3341 2797 3341 1997 
z
" transform="scale(0.015625)"/>
       <path id="DejaVuSans-63" d="M 3122 3366 
L 3122 2828 
Q 2878 2963 2633 3030 
Q 2388 3097 2138 3097 
Q 1578 3097 1268 2742 
Q 959 2388 959 1747 
Q 959 1106 1268 751 
Q 1578 397 2138 397 
Q 2388 397 2633 464 
Q 2878 531 3122 666 
L 3122 134 
Q 2881 22 2623 -34 
Q 2366 -91 2075 -91 
Q 1284 -91 818 406 
Q 353 903 353 1747 
Q 353 2603 823 3093 
Q 1294 3584 2113 3584 
Q 2378 3584 2631 3529 
Q 2884 3475 3122 3366 
z
" transform="scale(0.015625)"/>
       <path id="DejaVuSans-6f" d="M 1959 3097 
Q 1497 3097 1228 2736 
Q 959 2375 959 1747 
Q 959 1119 1226 758 
Q 1494 397 1959 397 
Q 2419 397 2687 759 
Q 2956 1122 2956 1747 
Q 2956 2369 2687 2733 
Q 2419 3097 1959 3097 
z
M 1959 3584 
Q 2709 3584 3137 3096 
Q 3566 2609 3566 1747 
Q 3566 888 3137 398 
Q 2709 -91 1959 -91 
Q 1206 -91 779 398 
Q 353 888 353 1747 
Q 353 2609 779 3096 
Q 1206 3584 1959 3584 
z
" transform="scale(0.015625)"/>
      </defs>
      <use xlink:href="#DejaVuSans-69"/>
      <use xlink:href="#DejaVuSans-6e" x="27.783203"/>
      <use xlink:href="#DejaVuSans-74" x="91.162109"/>
      <use xlink:href="#DejaVuSans-65" x="130.371094"/>
      <use xlink:href="#DejaVuSans-72" x="191.894531"/>
      <use xlink:href="#DejaVuSans-61" x="233.007812"/>
      <use xlink:href="#DejaVuSans-63" x="294.287109"/>
      <use xlink:href="#DejaVuSans-74" x="349.267578"/>
      <use xlink:href="#DejaVuSans-69" x="388.476562"/>
      <use xlink:href="#DejaVuSans-6f" x="416.259766"/>
      <use xlink:href="#DejaVuSans-6e" x="477.441406"/>
     </g>
    </g>
   </g>
   <g id="matplotlib.axis_6">
    <g id="ytick_7">
     <g id="line2d_28">
      <g>
       <use xlink:href="#m3d286526d9" x="52.160938" y="179.967572" style="stroke: #000000; stroke-width: 0.8"/>
      </g>
     </g>
     <g id="text_15">
      <!-- −0.2 -->
      <g transform="translate(20.878125 183.766791)scale(0.1 -0.1)">
       <use xlink:href="#DejaVuSans-2212"/>
       <use xlink:href="#DejaVuSans-30" x="83.789062"/>
       <use xlink:href="#DejaVuSans-2e" x="147.412109"/>
       <use xlink:href="#DejaVuSans-32" x="179.199219"/>
      </g>
     </g>
    </g>
    <g id="ytick_8">
     <g id="line2d_29">
      <g>
       <use xlink:href="#m3d286526d9" x="52.160938" y="149.424432" style="stroke: #000000; stroke-width: 0.8"/>
      </g>
     </g>
     <g id="text_16">
      <!-- −0.1 -->
      <g transform="translate(20.878125 153.223651)scale(0.1 -0.1)">
       <use xlink:href="#DejaVuSans-2212"/>
       <use xlink:href="#DejaVuSans-30" x="83.789062"/>
       <use xlink:href="#DejaVuSans-2e" x="147.412109"/>
       <use xlink:href="#DejaVuSans-31" x="179.199219"/>
      </g>
     </g>
    </g>
    <g id="ytick_9">
     <g id="line2d_30">
      <g>
       <use xlink:href="#m3d286526d9" x="52.160938" y="118.881292" style="stroke: #000000; stroke-width: 0.8"/>
      </g>
     </g>
     <g id="text_17">
      <!-- 0.0 -->
      <g transform="translate(29.257812 122.680511)scale(0.1 -0.1)">
       <use xlink:href="#DejaVuSans-30"/>
       <use xlink:href="#DejaVuSans-2e" x="63.623047"/>
       <use xlink:href="#DejaVuSans-30" x="95.410156"/>
      </g>
     </g>
    </g>
    <g id="text_18">
     <!-- $r$ -->
     <g transform="translate(14.798438 149.89875)rotate(-90)scale(0.1 -0.1)">
      <use xlink:href="#DejaVuSans-Oblique-72"/>
     </g>
    </g>
   </g>
   <g id="line2d_31">
    <path d="M 52.160938 141.999526 
L 52.921847 144.990877 
L 53.302301 144.799282 
L 53.682756 151.061133 
L 54.06321 152.150206 
L 54.443665 156.986024 
L 54.824119 156.359072 
L 55.204574 159.372214 
L 55.585028 165.193273 
L 55.965483 163.627942 
L 57.106847 145.398154 
L 57.487301 141.747249 
L 57.867756 142.045063 
L 58.24821 137.207995 
L 58.628665 139.721654 
L 59.009119 140.874517 
L 59.389574 143.090078 
L 59.770028 147.059255 
L 60.150483 146.314907 
L 60.911392 150.757503 
L 61.291847 151.636915 
L 61.672301 151.215735 
L 62.052756 156.512448 
L 62.43321 153.724201 
L 63.194119 160.110122 
L 63.574574 152.77784 
L 63.955028 150.570229 
L 64.335483 145.931073 
L 64.715938 146.460746 
L 65.096392 142.438312 
L 65.476847 141.434545 
L 65.857301 141.412621 
L 66.237756 140.373648 
L 66.61821 143.360022 
L 66.998665 144.176287 
L 67.759574 149.087574 
L 68.520483 157.887129 
L 68.900937 160.43976 
L 69.281392 163.890905 
L 69.661847 164.706624 
L 70.042301 163.310937 
L 70.422756 156.104931 
L 70.80321 153.67136 
L 71.183665 144.846684 
L 71.944574 141.074239 
L 72.325028 143.008069 
L 72.705483 140.133943 
L 73.085938 145.403054 
L 73.466392 146.541942 
L 73.846847 147.278919 
L 74.227301 147.747006 
L 74.607756 153.22843 
L 74.98821 155.051697 
L 75.368665 154.573839 
L 75.749119 155.951746 
L 76.129574 155.421846 
L 76.510028 159.952359 
L 77.270938 155.102629 
L 77.651392 149.250157 
L 78.031847 145.858715 
L 78.412301 148.341643 
L 78.792756 147.719276 
L 79.17321 145.822889 
L 79.553665 145.665613 
L 79.934119 145.789998 
L 80.314574 147.462232 
L 81.075483 152.329596 
L 81.455938 153.208606 
L 81.836392 149.430652 
L 82.216847 149.814762 
L 82.597301 150.743643 
L 83.35821 154.719378 
L 83.738665 154.60258 
L 84.119119 154.00734 
L 84.499574 148.528118 
L 84.880028 145.589776 
L 85.260483 145.266754 
L 85.640938 145.270622 
L 86.021392 147.315616 
L 86.401847 146.017306 
L 86.782301 148.342134 
L 87.162756 145.541638 
L 87.54321 146.283334 
L 87.923665 148.982469 
L 88.304119 147.194054 
L 88.684574 152.830303 
L 89.065028 152.093833 
L 89.445483 153.512551 
L 89.825938 156.651241 
L 90.206392 158.431851 
L 90.967301 150.582412 
L 91.347756 148.612828 
L 92.108665 140.834786 
L 92.489119 142.481821 
L 92.869574 145.088923 
L 93.250028 142.704664 
L 93.630483 144.51047 
L 94.010938 143.53901 
L 94.391392 148.196925 
L 94.771847 151.131055 
L 95.152301 151.163311 
L 95.532756 149.275568 
L 95.91321 151.779744 
L 96.293665 153.445777 
L 96.674119 159.655977 
L 97.054574 157.971415 
L 97.435028 149.831583 
L 98.576392 138.528532 
L 98.956847 140.052789 
L 99.337301 135.25665 
L 99.717756 138.831426 
L 100.09821 137.708344 
L 100.478665 137.293765 
L 100.859119 138.976697 
L 101.239574 143.236177 
L 101.620028 141.372684 
L 102.000483 143.099247 
L 102.380938 147.22265 
L 102.761392 147.184113 
L 103.141847 149.389094 
L 103.522301 153.287142 
L 103.902756 153.812374 
L 104.28321 155.441292 
L 104.663665 150.446646 
L 105.044119 147.181692 
L 105.805028 142.195215 
L 106.946392 147.472947 
L 107.326847 144.494612 
L 107.707301 145.206871 
L 108.848665 156.917171 
L 109.229119 157.88846 
L 109.609574 160.011404 
L 109.990028 160.474022 
L 110.370483 164.118268 
L 110.750938 159.975016 
L 111.892301 142.954174 
L 112.272756 141.663534 
L 112.65321 135.824925 
L 113.033665 134.7788 
L 113.414119 135.586188 
L 113.794574 134.622763 
L 114.555483 140.84465 
L 115.696847 154.270947 
L 116.077301 156.445589 
L 116.457756 160.956013 
L 116.83821 160.717334 
L 117.599119 163.911678 
L 117.979574 162.567871 
L 118.360028 154.72207 
L 119.120938 144.735696 
L 119.501392 147.022469 
L 119.881847 146.581074 
L 120.262301 147.062877 
L 120.642756 150.973768 
L 121.02321 150.409462 
L 121.403665 154.357383 
L 121.784119 159.971587 
L 122.164574 160.533745 
L 122.545028 164.009023 
L 122.925483 161.26486 
L 123.305938 162.077103 
L 123.686392 163.771781 
L 124.066847 165.997992 
L 124.447301 165.366442 
L 124.827756 158.300565 
L 125.20821 156.244979 
L 125.588665 151.824847 
L 125.969119 150.396527 
L 126.349574 152.595877 
L 126.730028 150.387619 
L 127.110483 151.563041 
L 127.490938 156.57814 
L 127.871392 158.02177 
L 128.251847 158.871985 
L 128.632301 163.727054 
L 129.012756 165.686134 
L 129.39321 163.869352 
L 129.773665 167.495871 
L 130.154119 168.369392 
L 130.534574 169.75328 
L 130.915028 171.834298 
L 131.295483 166.571695 
L 131.675938 157.839434 
L 132.436847 149.307109 
L 132.817301 146.650867 
L 133.197756 144.967762 
L 133.57821 144.722582 
L 133.958665 145.703126 
L 134.339119 148.314783 
L 134.719574 147.089799 
L 135.100028 151.449083 
L 135.480483 147.803477 
L 135.860938 149.594841 
L 136.241392 149.253897 
L 136.621847 147.477951 
L 137.002301 147.499417 
L 137.382756 148.418216 
L 137.76321 154.766349 
L 138.143665 153.802257 
L 138.524119 157.285024 
L 138.904574 155.645086 
L 139.285028 154.674891 
L 139.665483 152.850833 
L 140.045938 153.451148 
L 140.426392 153.770993 
L 140.806847 155.568575 
L 141.187301 154.028078 
L 141.567756 154.746715 
L 141.94821 153.33712 
L 142.328665 152.788624 
L 142.709119 150.388756 
L 143.089574 150.562328 
L 143.470028 150.073616 
L 143.850483 152.708762 
L 144.230938 151.248398 
L 144.611392 157.792958 
L 145.372301 153.133085 
L 145.752756 147.864649 
L 146.13321 146.700303 
L 146.513665 144.558875 
L 146.894119 144.574143 
L 147.274574 138.496755 
L 147.655028 137.827143 
L 148.035483 139.626204 
L 148.415938 139.819113 
L 148.796392 139.484456 
L 149.176847 142.613326 
L 149.557301 138.509004 
L 149.937756 138.79465 
L 150.31821 138.885053 
L 150.698665 142.882647 
L 151.079119 143.329411 
L 151.459574 146.329642 
L 151.840028 147.758475 
L 152.220483 149.74916 
L 152.600938 144.494727 
L 153.742301 136.492069 
L 154.122756 135.776262 
L 154.50321 134.551864 
L 154.883665 132.307505 
L 155.264119 131.735463 
L 155.644574 130.770409 
L 156.025028 129.176001 
L 156.405483 128.965131 
L 156.785938 129.868255 
L 157.166392 127.918121 
L 157.546847 130.93152 
L 157.927301 129.145373 
L 158.307756 131.362262 
L 158.68821 135.371195 
L 159.068665 137.100698 
L 159.449119 142.755892 
L 159.829574 141.66127 
L 160.970938 133.242663 
L 161.351392 133.950953 
L 162.112301 128.333933 
L 162.492756 126.256049 
L 162.87321 127.137287 
L 163.253665 123.802527 
L 163.634119 126.864283 
L 164.014574 127.797166 
L 164.395028 129.170201 
L 164.775483 129.858406 
L 165.155937 128.442281 
L 165.536392 129.810215 
L 165.916847 132.333338 
L 166.677756 140.0868 
L 167.05821 135.32474 
L 167.438665 132.924403 
L 167.819119 131.476868 
L 168.199574 129.303582 
L 168.580028 128.826558 
L 168.960483 128.030884 
L 169.340937 128.48041 
L 170.482301 126.264864 
L 170.862756 124.469673 
L 171.24321 127.27499 
L 171.623665 124.087087 
L 172.004119 127.899207 
L 172.384574 126.55706 
L 172.765028 130.640757 
L 173.145483 129.835977 
L 173.525937 135.84765 
L 173.906392 132.550586 
L 174.286847 131.754536 
L 174.667301 128.169296 
L 175.047756 126.69155 
L 175.42821 124.730881 
L 175.808665 121.32249 
L 176.189119 121.071816 
L 176.569574 121.184598 
L 176.950028 120.777454 
L 177.330483 122.625105 
L 177.710938 123.071265 
L 178.091392 125.298547 
L 178.471847 126.409222 
L 178.852301 130.092568 
L 179.232756 130.962009 
L 179.61321 132.631362 
L 179.993665 138.173526 
L 180.374119 135.63062 
L 181.895938 121.199504 
L 182.276392 119.300165 
L 182.656847 118.115765 
L 183.037301 116.465559 
L 183.417756 116.652161 
L 184.178665 114.586958 
L 184.939574 116.508887 
L 185.320028 116.535881 
L 185.700483 117.265604 
L 186.461392 122.011408 
L 186.841847 122.228528 
L 187.222301 128.118343 
L 187.602756 130.807788 
L 187.98321 131.40074 
L 188.363665 132.651176 
L 188.744119 130.504071 
L 189.124574 126.262188 
L 189.505028 127.100614 
L 190.265938 126.237489 
L 190.646392 128.034446 
L 191.026847 128.838443 
L 191.407301 130.17253 
L 191.787756 129.17859 
L 192.16821 130.237685 
L 192.548665 134.95058 
L 192.929119 135.274938 
L 193.309574 134.647588 
L 194.070483 139.286044 
L 194.450938 133.586809 
L 194.831392 131.311135 
L 195.211847 127.509377 
L 195.592301 126.357812 
L 195.972756 122.060814 
L 196.35321 123.428298 
L 196.733665 119.701267 
L 197.114119 120.336916 
L 197.494574 120.012629 
L 197.875028 118.350138 
L 198.255483 120.356683 
L 198.635938 121.540841 
L 199.016392 120.062786 
L 199.396847 119.985799 
L 199.777301 122.463787 
L 200.157756 123.02665 
L 200.53821 123.980473 
L 200.918665 126.540739 
L 201.299119 131.439284 
L 201.679574 131.030018 
L 202.060028 133.939949 
L 202.440483 139.331696 
L 202.820938 134.59062 
L 203.201392 133.482195 
L 203.581847 131.178613 
L 203.962301 132.796943 
L 203.962301 132.796943 
" clip-path="url(#pb44c7660a0)" style="fill: none; stroke: #1f77b4; stroke-linecap: square"/>
   </g>
   <g id="line2d_32">
    <path d="M 52.160938 141.999526 
L 52.541392 142.755214 
L 52.921847 141.635152 
L 53.302301 142.694141 
L 53.682756 141.871593 
L 54.06321 147.634414 
L 54.443665 150.543674 
L 54.824119 150.217235 
L 55.204574 150.71795 
L 55.585028 152.96902 
L 55.965483 158.52704 
L 57.867756 142.303479 
L 58.24821 142.0211 
L 58.628665 141.197286 
L 59.009119 140.823863 
L 60.150483 137.521498 
L 60.530938 140.018553 
L 60.911392 137.938175 
L 61.291847 137.601413 
L 61.672301 137.562572 
L 62.052756 138.877887 
L 62.43321 142.166769 
L 62.813665 147.894969 
L 63.194119 149.75732 
L 63.574574 154.737089 
L 63.955028 150.552875 
L 64.335483 149.788463 
L 64.715938 146.629206 
L 65.096392 147.177989 
L 65.476847 146.335522 
L 65.857301 145.030185 
L 66.237756 146.478043 
L 66.61821 145.160748 
L 66.998665 144.48265 
L 67.379119 146.767434 
L 67.759574 146.382899 
L 68.900937 154.141034 
L 69.281392 154.742183 
L 69.661847 154.710024 
L 70.042301 151.545418 
L 70.422756 144.531007 
L 71.183665 138.029987 
L 71.564119 133.212573 
L 71.944574 131.799773 
L 72.325028 128.277192 
L 72.705483 127.350562 
L 73.085938 124.694859 
L 73.466392 124.777465 
L 73.846847 126.157833 
L 74.227301 126.834271 
L 74.607756 127.859072 
L 74.98821 129.807353 
L 76.129574 138.108043 
L 76.510028 140.676911 
L 76.890483 145.325937 
L 77.270938 147.49713 
L 77.651392 148.787272 
L 78.031847 144.849882 
L 78.412301 139.333691 
L 78.792756 139.49995 
L 79.17321 134.94484 
L 79.553665 135.941575 
L 79.934119 135.065507 
L 80.314574 135.890481 
L 81.075483 132.942725 
L 81.455938 134.040011 
L 81.836392 133.681269 
L 82.216847 134.49186 
L 82.597301 134.939527 
L 82.977756 134.39446 
L 83.35821 137.42848 
L 83.738665 138.002823 
L 84.119119 144.257332 
L 84.499574 145.758996 
L 85.260483 141.624513 
L 85.640938 137.786361 
L 86.021392 137.450979 
L 86.782301 132.405018 
L 87.162756 133.776083 
L 87.54321 130.448386 
L 87.923665 129.515512 
L 88.304119 130.396583 
L 88.684574 129.316071 
L 89.065028 127.80407 
L 89.445483 131.684093 
L 89.825938 128.129287 
L 90.206392 132.274199 
L 90.586847 131.911058 
L 91.72821 142.515952 
L 92.108665 141.500783 
L 92.869574 137.370471 
L 93.250028 136.159421 
L 93.630483 132.827574 
L 94.010938 133.306316 
L 94.391392 131.910222 
L 94.771847 133.789641 
L 95.152301 134.329872 
L 95.532756 132.424195 
L 95.91321 133.955335 
L 96.293665 133.175206 
L 96.674119 132.744913 
L 97.054574 137.198912 
L 97.435028 136.787885 
L 97.815483 137.930456 
L 98.195938 143.310408 
L 98.576392 138.667453 
L 98.956847 135.983482 
L 99.337301 132.422212 
L 99.717756 130.903855 
L 100.09821 126.448905 
L 100.478665 126.33976 
L 100.859119 125.842139 
L 101.620028 122.393155 
L 102.000483 124.789274 
L 102.380938 123.38353 
L 102.761392 123.698021 
L 103.141847 123.811066 
L 103.522301 126.035796 
L 103.902756 125.683871 
L 104.28321 128.170375 
L 105.044119 130.695981 
L 105.424574 131.435632 
L 105.805028 134.754515 
L 106.185483 136.938509 
L 106.565938 134.210724 
L 106.946392 134.414156 
L 107.326847 132.961245 
L 107.707301 130.857044 
L 108.46821 132.923383 
L 108.848665 132.550077 
L 109.229119 134.341557 
L 109.609574 131.612002 
L 109.990028 132.737967 
L 110.370483 130.277397 
L 110.750938 130.424283 
L 111.131392 131.355876 
L 111.511847 130.93122 
L 112.272756 132.818613 
L 112.65321 134.455707 
L 113.033665 136.776725 
L 113.414119 133.229938 
L 113.794574 136.724281 
L 114.175028 134.306388 
L 114.555483 133.829639 
L 114.935938 132.869211 
L 115.316392 133.183733 
L 116.077301 132.493519 
L 116.457756 132.924184 
L 116.83821 131.845782 
L 117.218665 129.745056 
L 117.599119 132.326762 
L 117.979574 131.406149 
L 118.360028 133.193747 
L 118.740483 133.25597 
L 119.120938 136.455375 
L 119.501392 137.31924 
L 119.881847 136.817664 
L 120.642756 131.104571 
L 121.02321 132.521994 
L 121.403665 132.611723 
L 121.784119 131.893514 
L 122.164574 128.828879 
L 122.545028 127.21952 
L 122.925483 129.38842 
L 123.305938 126.613001 
L 123.686392 129.568601 
L 124.066847 129.42423 
L 124.447301 130.022839 
L 124.827756 131.372873 
L 125.588665 134.928889 
L 125.969119 135.245953 
L 126.349574 134.872209 
L 126.730028 134.014091 
L 127.110483 129.553713 
L 127.490938 131.653796 
L 128.251847 126.88164 
L 128.632301 126.243573 
L 129.012756 125.859493 
L 129.39321 124.625852 
L 129.773665 124.511853 
L 130.154119 124.091547 
L 130.534574 124.675281 
L 130.915028 124.809438 
L 131.295483 125.375954 
L 131.675938 124.385358 
L 132.436847 130.157709 
L 132.817301 130.178476 
L 133.197756 136.319255 
L 133.57821 132.966911 
L 133.958665 131.737767 
L 134.339119 131.320995 
L 134.719574 131.548048 
L 135.100028 127.758839 
L 135.860938 130.058588 
L 136.241392 127.166971 
L 136.621847 126.444869 
L 137.002301 128.852889 
L 137.382756 125.800862 
L 137.76321 125.279977 
L 138.143665 125.257255 
L 138.524119 126.414865 
L 138.904574 125.77078 
L 139.285028 130.034515 
L 139.665483 129.000517 
L 140.045938 131.057272 
L 140.426392 131.883289 
L 140.806847 131.690537 
L 141.187301 130.255435 
L 141.567756 131.1757 
L 141.94821 129.590823 
L 142.328665 129.376487 
L 142.709119 130.514395 
L 143.089574 127.28135 
L 143.470028 126.806188 
L 143.850483 125.643584 
L 144.230938 126.708147 
L 144.611392 126.596405 
L 144.991847 125.19899 
L 145.372301 127.496409 
L 145.752756 127.127315 
L 146.13321 129.513459 
L 146.513665 129.454078 
L 146.894119 134.591383 
L 147.655028 128.50191 
L 148.035483 126.358574 
L 148.415938 126.744923 
L 148.796392 122.259097 
L 149.176847 124.521775 
L 149.557301 122.185868 
L 149.937756 123.221957 
L 150.31821 119.607474 
L 150.698665 119.678625 
L 151.079119 122.871628 
L 151.459574 123.123584 
L 151.840028 125.83934 
L 152.220483 125.767343 
L 153.361847 132.560612 
L 153.742301 133.227458 
L 154.122756 131.935567 
L 154.50321 125.808164 
L 154.883665 125.048013 
L 155.264119 123.427451 
L 155.644574 118.09311 
L 156.025028 119.747857 
L 156.405483 116.650094 
L 156.785938 116.647919 
L 157.166392 117.317976 
L 157.546847 116.200125 
L 157.927301 117.847733 
L 158.307756 117.059727 
L 158.68821 116.668585 
L 159.068665 119.313012 
L 159.449119 120.230908 
L 159.829574 120.678022 
L 160.210028 122.667512 
L 160.590483 127.126402 
L 160.970938 129.809395 
L 161.351392 130.470805 
L 161.731847 129.771413 
L 162.492756 126.292065 
L 162.87321 124.403544 
L 163.253665 121.600202 
L 163.634119 125.252931 
L 164.775483 122.44104 
L 165.155937 125.245977 
L 165.536392 125.231957 
L 165.916847 126.034343 
L 166.297301 124.180244 
L 167.05821 128.593283 
L 167.438665 126.826091 
L 168.199574 132.501322 
L 168.960483 126.694462 
L 169.340937 128.566469 
L 169.721392 125.277493 
L 170.101847 127.904005 
L 170.482301 127.32662 
L 170.862756 128.555716 
L 171.24321 130.369851 
L 171.623665 128.827381 
L 172.004119 132.489913 
L 172.765028 134.928511 
L 173.145483 134.741378 
L 173.525937 138.696189 
L 173.906392 139.339874 
L 174.286847 136.860497 
L 174.667301 135.648742 
L 175.047756 130.955387 
L 175.42821 130.014156 
L 175.808665 126.741209 
L 176.189119 125.245437 
L 176.569574 125.403433 
L 176.950028 124.275813 
L 177.330483 122.384922 
L 177.710938 123.41093 
L 178.091392 123.445546 
L 178.852301 122.328091 
L 179.232756 124.235859 
L 179.993665 125.400899 
L 180.374119 126.638934 
L 180.754574 127.430079 
L 181.515483 129.884853 
L 181.895938 132.656046 
L 182.276392 137.804016 
L 183.037301 134.215164 
L 183.79821 131.824229 
L 184.178665 133.182705 
L 184.559119 129.431766 
L 184.939574 129.105899 
L 185.320028 132.197283 
L 185.700483 127.577976 
L 186.080938 128.644914 
L 186.461392 130.922784 
L 186.841847 127.382922 
L 187.222301 131.569773 
L 187.602756 132.698683 
L 187.98321 131.922128 
L 188.363665 136.001273 
L 188.744119 138.366334 
L 189.124574 139.303823 
L 189.885483 136.899955 
L 190.265938 133.208813 
L 190.646392 131.604529 
L 191.026847 131.331898 
L 191.407301 130.119171 
L 191.787756 127.40109 
L 192.16821 127.41602 
L 192.548665 125.907389 
L 192.929119 126.901777 
L 193.309574 126.418582 
L 193.690028 127.339271 
L 194.070483 129.043766 
L 194.450938 127.993481 
L 195.211847 135.457776 
L 195.592301 135.063166 
L 195.972756 139.175041 
L 196.35321 136.931669 
L 196.733665 133.125187 
L 197.114119 132.101427 
L 197.494574 131.766198 
L 197.875028 129.71847 
L 198.255483 128.912662 
L 198.635938 131.821029 
L 199.016392 128.625128 
L 199.396847 130.746043 
L 200.157756 129.81515 
L 200.53821 131.712543 
L 200.918665 129.47654 
L 201.299119 130.9785 
L 201.679574 130.603386 
L 202.060028 131.644176 
L 202.440483 131.932075 
L 203.201392 136.044504 
L 203.581847 136.054564 
L 203.962301 134.988959 
L 203.962301 134.988959 
" clip-path="url(#pb44c7660a0)" style="fill: none; stroke: #ff7f0e; stroke-linecap: square"/>
   </g>
   <g id="patch_14">
    <path d="M 52.160938 185.59875 
L 52.160938 109.99875 
" style="fill: none; stroke: #000000; stroke-width: 0.8; stroke-linejoin: miter; stroke-linecap: square"/>
   </g>
   <g id="patch_15">
    <path d="M 204.342756 185.59875 
L 204.342756 109.99875 
" style="fill: none; stroke: #000000; stroke-width: 0.8; stroke-linejoin: miter; stroke-linecap: square"/>
   </g>
   <g id="patch_16">
    <path d="M 52.160938 185.59875 
L 204.342756 185.59875 
" style="fill: none; stroke: #000000; stroke-width: 0.8; stroke-linejoin: miter; stroke-linecap: square"/>
   </g>
   <g id="patch_17">
    <path d="M 52.160938 109.99875 
L 204.342756 109.99875 
" style="fill: none; stroke: #000000; stroke-width: 0.8; stroke-linejoin: miter; stroke-linecap: square"/>
   </g>
   <g id="text_19">
    <!-- eps. 8 -->
    <g transform="translate(116.079972 103.99875)scale(0.08 -0.08)">
     <defs>
      <path id="DejaVuSans-38" d="M 2034 2216 
Q 1584 2216 1326 1975 
Q 1069 1734 1069 1313 
Q 1069 891 1326 650 
Q 1584 409 2034 409 
Q 2484 409 2743 651 
Q 3003 894 3003 1313 
Q 3003 1734 2745 1975 
Q 2488 2216 2034 2216 
z
M 1403 2484 
Q 997 2584 770 2862 
Q 544 3141 544 3541 
Q 544 4100 942 4425 
Q 1341 4750 2034 4750 
Q 2731 4750 3128 4425 
Q 3525 4100 3525 3541 
Q 3525 3141 3298 2862 
Q 3072 2584 2669 2484 
Q 3125 2378 3379 2068 
Q 3634 1759 3634 1313 
Q 3634 634 3220 271 
Q 2806 -91 2034 -91 
Q 1263 -91 848 271 
Q 434 634 434 1313 
Q 434 1759 690 2068 
Q 947 2378 1403 2484 
z
M 1172 3481 
Q 1172 3119 1398 2916 
Q 1625 2713 2034 2713 
Q 2441 2713 2670 2916 
Q 2900 3119 2900 3481 
Q 2900 3844 2670 4047 
Q 2441 4250 2034 4250 
Q 1625 4250 1398 4047 
Q 1172 3844 1172 3481 
z
" transform="scale(0.015625)"/>
     </defs>
     <use xlink:href="#DejaVuSans-65"/>
     <use xlink:href="#DejaVuSans-70" x="61.523438"/>
     <use xlink:href="#DejaVuSans-73" x="125"/>
     <use xlink:href="#DejaVuSans-2e" x="177.099609"/>
     <use xlink:href="#DejaVuSans-20" x="208.886719"/>
     <use xlink:href="#DejaVuSans-38" x="240.673828"/>
    </g>
   </g>
  </g>
  <g id="axes_4">
   <g id="patch_18">
    <path d="M 234.779119 185.59875 
L 386.960937 185.59875 
L 386.960937 109.99875 
L 234.779119 109.99875 
z
" style="fill: #ffffff"/>
   </g>
   <g id="matplotlib.axis_7">
    <g id="xtick_16">
     <g id="line2d_33">
      <g>
       <use xlink:href="#mf4ce15a4a3" x="234.779119" y="185.59875" style="stroke: #000000; stroke-width: 0.8"/>
      </g>
     </g>
     <g id="text_20">
      <!-- 0 -->
      <g transform="translate(231.597869 200.197188)scale(0.1 -0.1)">
       <use xlink:href="#DejaVuSans-30"/>
      </g>
     </g>
    </g>
    <g id="xtick_17">
     <g id="line2d_34">
      <g>
       <use xlink:href="#mf4ce15a4a3" x="272.824574" y="185.59875" style="stroke: #000000; stroke-width: 0.8"/>
      </g>
     </g>
     <g id="text_21">
      <!-- 100 -->
      <g transform="translate(263.280824 200.197188)scale(0.1 -0.1)">
       <use xlink:href="#DejaVuSans-31"/>
       <use xlink:href="#DejaVuSans-30" x="63.623047"/>
       <use xlink:href="#DejaVuSans-30" x="127.246094"/>
      </g>
     </g>
    </g>
    <g id="xtick_18">
     <g id="line2d_35">
      <g>
       <use xlink:href="#mf4ce15a4a3" x="310.870028" y="185.59875" style="stroke: #000000; stroke-width: 0.8"/>
      </g>
     </g>
     <g id="text_22">
      <!-- 200 -->
      <g transform="translate(301.326278 200.197188)scale(0.1 -0.1)">
       <use xlink:href="#DejaVuSans-32"/>
       <use xlink:href="#DejaVuSans-30" x="63.623047"/>
       <use xlink:href="#DejaVuSans-30" x="127.246094"/>
      </g>
     </g>
    </g>
    <g id="xtick_19">
     <g id="line2d_36">
      <g>
       <use xlink:href="#mf4ce15a4a3" x="348.915483" y="185.59875" style="stroke: #000000; stroke-width: 0.8"/>
      </g>
     </g>
     <g id="text_23">
      <!-- 300 -->
      <g transform="translate(339.371733 200.197188)scale(0.1 -0.1)">
       <use xlink:href="#DejaVuSans-33"/>
       <use xlink:href="#DejaVuSans-30" x="63.623047"/>
       <use xlink:href="#DejaVuSans-30" x="127.246094"/>
      </g>
     </g>
    </g>
    <g id="xtick_20">
     <g id="line2d_37">
      <g>
       <use xlink:href="#mf4ce15a4a3" x="386.960937" y="185.59875" style="stroke: #000000; stroke-width: 0.8"/>
      </g>
     </g>
     <g id="text_24">
      <!-- 400 -->
      <g transform="translate(377.417187 200.197188)scale(0.1 -0.1)">
       <use xlink:href="#DejaVuSans-34"/>
       <use xlink:href="#DejaVuSans-30" x="63.623047"/>
       <use xlink:href="#DejaVuSans-30" x="127.246094"/>
      </g>
     </g>
    </g>
    <g id="text_25">
     <!-- interaction -->
     <g transform="translate(283.829403 213.875313)scale(0.1 -0.1)">
      <use xlink:href="#DejaVuSans-69"/>
      <use xlink:href="#DejaVuSans-6e" x="27.783203"/>
      <use xlink:href="#DejaVuSans-74" x="91.162109"/>
      <use xlink:href="#DejaVuSans-65" x="130.371094"/>
      <use xlink:href="#DejaVuSans-72" x="191.894531"/>
      <use xlink:href="#DejaVuSans-61" x="233.007812"/>
      <use xlink:href="#DejaVuSans-63" x="294.287109"/>
      <use xlink:href="#DejaVuSans-74" x="349.267578"/>
      <use xlink:href="#DejaVuSans-69" x="388.476562"/>
      <use xlink:href="#DejaVuSans-6f" x="416.259766"/>
      <use xlink:href="#DejaVuSans-6e" x="477.441406"/>
     </g>
    </g>
   </g>
   <g id="matplotlib.axis_8">
    <g id="ytick_10">
     <g id="line2d_38">
      <g>
       <use xlink:href="#m3d286526d9" x="234.779119" y="179.967572" style="stroke: #000000; stroke-width: 0.8"/>
      </g>
     </g>
    </g>
    <g id="ytick_11">
     <g id="line2d_39">
      <g>
       <use xlink:href="#m3d286526d9" x="234.779119" y="149.424432" style="stroke: #000000; stroke-width: 0.8"/>
      </g>
     </g>
    </g>
    <g id="ytick_12">
     <g id="line2d_40">
      <g>
       <use xlink:href="#m3d286526d9" x="234.779119" y="118.881292" style="stroke: #000000; stroke-width: 0.8"/>
      </g>
     </g>
    </g>
   </g>
   <g id="line2d_41">
    <path d="M 234.779119 141.999526 
L 235.540028 145.867341 
L 235.920483 145.198747 
L 236.300937 150.973061 
L 236.681392 151.548649 
L 237.061847 156.525074 
L 237.442301 155.820727 
L 237.822756 158.973554 
L 238.20321 164.868375 
L 238.583665 163.413063 
L 239.725028 145.324701 
L 240.105483 141.823155 
L 240.485937 142.27979 
L 240.866392 137.250775 
L 241.246847 139.4097 
L 241.627301 139.627422 
L 242.007756 140.685366 
L 242.38821 144.111151 
L 242.768665 142.526814 
L 243.149119 144.083656 
L 243.529574 146.169605 
L 243.910028 146.785571 
L 244.290483 146.175969 
L 244.670937 151.959577 
L 245.051392 149.31632 
L 245.812301 157.982204 
L 246.192756 153.974422 
L 246.57321 151.550202 
L 246.953665 146.600229 
L 247.334119 146.772513 
L 247.714574 142.351039 
L 248.095028 140.995019 
L 248.475483 140.941515 
L 248.855937 139.600985 
L 249.236392 143.213238 
L 249.616847 144.244487 
L 249.997301 145.967727 
L 250.377756 147.143124 
L 251.138665 156.780212 
L 251.899574 162.314082 
L 252.280028 162.685453 
L 252.660483 162.212179 
L 253.040937 154.83339 
L 253.421392 152.440093 
L 253.801847 143.482679 
L 254.562756 139.610504 
L 254.94321 141.419384 
L 255.323665 138.030286 
L 255.704119 142.576619 
L 256.084574 142.711728 
L 256.465028 143.175592 
L 256.845483 142.853152 
L 257.225937 147.558292 
L 257.606392 148.637777 
L 257.986847 147.518697 
L 258.367301 148.567582 
L 258.747756 147.846021 
L 259.12821 152.218149 
L 259.508665 151.942487 
L 259.889119 154.822516 
L 260.269574 149.401153 
L 260.650028 145.806958 
L 261.030483 147.491991 
L 261.410937 146.347442 
L 261.791392 144.229265 
L 262.171847 143.668813 
L 262.552301 143.507844 
L 262.932756 144.968773 
L 263.31321 147.153335 
L 263.693665 148.188719 
L 264.074119 148.008784 
L 264.454574 144.150518 
L 264.835028 144.008319 
L 265.215483 144.594946 
L 265.976392 147.835116 
L 266.356847 152.855753 
L 266.737301 152.8641 
L 267.117756 147.285924 
L 267.49821 144.265786 
L 267.878665 143.90878 
L 268.259119 143.177858 
L 268.639574 144.571067 
L 269.020028 142.176609 
L 269.400483 143.207835 
L 269.780937 140.457622 
L 270.161392 140.274581 
L 270.541847 141.99951 
L 270.922301 139.578736 
L 271.302756 144.295341 
L 271.68321 143.101415 
L 272.063665 144.286461 
L 272.444119 146.835113 
L 272.824574 148.054936 
L 273.205028 150.349175 
L 273.585483 149.46124 
L 273.965937 146.886989 
L 274.726847 138.471594 
L 275.107301 139.236807 
L 275.487756 141.425418 
L 275.86821 138.480586 
L 276.248665 139.675615 
L 276.629119 137.664524 
L 277.009574 140.295759 
L 277.390028 141.768739 
L 277.770483 140.767782 
L 278.150937 138.749359 
L 278.531392 139.937206 
L 278.911847 140.68088 
L 279.292301 145.594945 
L 279.672756 147.936226 
L 280.05321 146.12009 
L 280.433665 143.227528 
L 280.814119 141.284763 
L 281.194574 136.316374 
L 281.575028 137.72056 
L 281.955483 132.542796 
L 282.335937 134.938478 
L 282.716392 132.29577 
L 283.096847 131.158098 
L 283.477301 131.336945 
L 283.857756 133.472145 
L 284.23821 130.581227 
L 284.618665 131.304514 
L 284.999119 133.651452 
L 285.379574 132.673408 
L 285.760028 134.167891 
L 286.140483 136.553548 
L 286.520937 136.664185 
L 287.281847 141.282279 
L 287.662301 143.266023 
L 288.042756 140.628419 
L 288.42321 137.134599 
L 288.803665 136.851482 
L 289.184119 136.974471 
L 289.564574 137.85647 
L 289.945028 133.979057 
L 290.325483 132.954691 
L 290.705937 134.625408 
L 291.086392 135.730551 
L 291.466847 137.383819 
L 291.847301 135.726684 
L 292.227756 136.601327 
L 292.60821 136.37393 
L 293.369119 143.871967 
L 293.749574 144.878875 
L 294.130028 140.093559 
L 294.510483 137.649878 
L 294.890937 136.921038 
L 295.271392 131.048462 
L 295.651847 129.67072 
L 296.032301 128.722742 
L 296.412756 126.361328 
L 297.173665 126.820372 
L 298.315028 130.038495 
L 298.695483 130.086965 
L 299.075937 132.100997 
L 299.456392 131.310459 
L 300.217301 132.962802 
L 300.97821 136.278374 
L 301.358665 137.286963 
L 301.739119 139.609131 
L 302.119574 138.212991 
L 302.500028 136.05667 
L 302.880483 135.210531 
L 303.260937 136.971394 
L 303.641392 134.781655 
L 304.021847 135.098611 
L 304.402301 137.542772 
L 304.782756 135.921817 
L 305.16321 137.198448 
L 305.543665 134.454487 
L 305.924119 134.228546 
L 306.304574 134.421356 
L 307.065483 135.864523 
L 307.445937 137.118984 
L 307.826392 140.863935 
L 308.587301 137.700144 
L 308.967756 138.345667 
L 309.34821 134.932471 
L 309.728665 134.606636 
L 310.109119 136.515114 
L 310.489574 134.989407 
L 310.870028 134.580299 
L 311.250483 136.491062 
L 311.630937 135.506071 
L 312.011392 133.560666 
L 312.391847 134.468118 
L 313.152756 133.442496 
L 313.53321 133.858035 
L 313.913665 137.216855 
L 314.294119 137.758973 
L 314.674574 140.335122 
L 316.196392 132.177275 
L 316.576847 130.967745 
L 316.957301 131.440737 
L 317.337756 127.670981 
L 317.71821 129.140629 
L 318.098665 124.924546 
L 318.479119 124.058935 
L 319.240028 121.188402 
L 320.000937 120.097504 
L 320.381392 122.80796 
L 320.761847 121.81512 
L 321.522756 124.358363 
L 321.90321 130.150553 
L 322.664119 136.79713 
L 323.044574 137.477586 
L 323.425028 134.724663 
L 323.805483 135.03226 
L 324.185937 131.131701 
L 324.566392 131.603497 
L 324.946847 128.534822 
L 325.327301 127.534712 
L 326.08821 124.386413 
L 326.468665 123.438768 
L 326.849119 122.179388 
L 327.229574 122.076775 
L 327.610028 121.567303 
L 328.751392 125.376397 
L 329.131847 127.202986 
L 329.512301 128.370889 
L 330.27321 132.904628 
L 330.653665 131.79773 
L 331.034119 129.084949 
L 331.414574 128.853116 
L 332.175483 126.747155 
L 332.555937 127.683487 
L 333.316847 125.391903 
L 334.45821 129.308805 
L 334.838665 128.414926 
L 335.219119 127.807191 
L 336.360483 121.869485 
L 336.740937 120.688212 
L 337.121392 120.062231 
L 337.501847 118.865945 
L 337.882301 117.184613 
L 338.262756 119.051554 
L 338.64321 118.008528 
L 339.023665 116.578163 
L 339.784574 119.171245 
L 340.165028 119.408771 
L 340.545483 121.843055 
L 340.925937 121.707363 
L 341.306392 124.890633 
L 341.686847 125.403926 
L 342.067301 126.417204 
L 342.82821 121.353838 
L 343.208665 119.276758 
L 343.589119 118.084701 
L 343.969574 119.046414 
L 344.350028 117.535396 
L 345.110937 115.858945 
L 345.491392 117.829583 
L 345.871847 115.6894 
L 346.252301 118.805706 
L 347.01321 121.467433 
L 347.393665 122.589821 
L 347.774119 121.420255 
L 348.154574 122.734048 
L 348.535028 124.558496 
L 349.295937 124.768483 
L 349.676392 120.812641 
L 350.437301 118.427405 
L 350.817756 117.141463 
L 351.19821 117.254358 
L 351.578665 116.915427 
L 351.959119 117.575112 
L 352.339574 117.437707 
L 352.720028 116.9925 
L 353.100483 117.075086 
L 353.480937 115.834609 
L 353.861392 118.481129 
L 354.241847 115.733531 
L 354.622301 119.223182 
L 355.002756 117.9627 
L 355.38321 121.338768 
L 355.763665 120.644873 
L 356.144119 125.677943 
L 356.524574 125.880965 
L 356.905028 125.392059 
L 357.285483 122.300614 
L 357.665937 121.340656 
L 358.046392 120.050802 
L 358.426847 116.791041 
L 358.807301 116.968237 
L 359.187756 117.380739 
L 359.56821 117.201785 
L 359.948665 118.866136 
L 360.329119 119.237319 
L 360.709574 121.146645 
L 361.090028 122.060146 
L 361.470483 125.327221 
L 361.850937 125.817899 
L 362.231392 127.021739 
L 362.611847 131.44749 
L 362.992301 131.959138 
L 363.75321 126.423972 
L 364.133665 121.981912 
L 364.514119 120.013526 
L 364.894574 118.687547 
L 365.655483 116.767412 
L 366.035937 117.648385 
L 366.796847 116.596966 
L 367.557756 118.540745 
L 367.93821 118.482064 
L 368.318665 119.13516 
L 368.699119 121.506186 
L 369.079574 122.861915 
L 369.460028 122.987767 
L 369.840483 127.966988 
L 370.220937 130.065373 
L 370.601392 130.406659 
L 370.981847 131.922665 
L 371.362301 130.253221 
L 371.742756 126.051687 
L 372.12321 127.424519 
L 372.503665 127.260262 
L 372.884119 126.852617 
L 373.264574 128.822961 
L 373.645028 129.472118 
L 374.025483 130.748804 
L 374.405937 129.58944 
L 374.786392 130.428925 
L 375.166847 134.244482 
L 375.547301 134.0082 
L 375.927756 133.249265 
L 376.30821 135.056705 
L 376.688665 138.192965 
L 377.069119 134.851991 
L 377.449574 133.035055 
L 377.830028 129.342928 
L 378.210483 128.873006 
L 378.590937 124.939332 
L 378.971392 126.608038 
L 379.351847 123.294749 
L 379.732301 123.859898 
L 380.112756 123.492647 
L 380.49321 121.886775 
L 380.873665 123.407417 
L 381.254119 123.672798 
L 381.634574 121.687516 
L 382.015028 121.043049 
L 382.395483 122.298206 
L 383.156392 123.04295 
L 383.536847 125.134412 
L 383.917301 129.063049 
L 384.297756 128.42764 
L 384.67821 131.330269 
L 385.058665 136.444588 
L 385.439119 136.527002 
L 385.819574 135.620954 
L 386.200028 133.331898 
L 386.580483 135.382119 
L 386.580483 135.382119 
" clip-path="url(#p71d9e08577)" style="fill: none; stroke: #1f77b4; stroke-linecap: square"/>
   </g>
   <g id="line2d_42">
    <path d="M 234.779119 141.999526 
L 235.159574 142.824164 
L 235.540028 142.075624 
L 235.920483 143.296417 
L 236.300937 141.875417 
L 236.681392 146.660738 
L 237.061847 149.754241 
L 237.442301 149.537126 
L 237.822756 150.051896 
L 238.20321 152.288779 
L 238.583665 157.874617 
L 239.725028 149.577175 
L 240.485937 142.515209 
L 240.866392 142.354652 
L 242.007756 138.951318 
L 242.768665 135.686167 
L 243.149119 138.061103 
L 243.529574 135.588985 
L 243.910028 135.088173 
L 244.290483 135.033693 
L 244.670937 136.982234 
L 245.051392 140.356711 
L 245.431847 146.152495 
L 245.812301 147.879174 
L 246.192756 154.18706 
L 246.57321 151.101563 
L 246.953665 150.100121 
L 247.334119 146.477168 
L 247.714574 147.297642 
L 248.095028 146.790517 
L 248.475483 145.379899 
L 248.855937 147.670843 
L 249.236392 146.228625 
L 249.616847 145.291773 
L 249.997301 146.919137 
L 250.377756 146.067951 
L 251.138665 150.961628 
L 251.519119 153.147434 
L 251.899574 153.322842 
L 252.280028 152.70466 
L 252.660483 149.691804 
L 253.040937 142.845937 
L 253.801847 137.066566 
L 254.182301 132.266838 
L 254.562756 130.840672 
L 254.94321 127.181985 
L 255.323665 125.939681 
L 255.704119 123.005052 
L 256.084574 122.488447 
L 256.465028 122.920049 
L 257.225937 122.557706 
L 257.606392 123.787823 
L 259.12821 133.226324 
L 259.508665 137.67982 
L 259.889119 140.026615 
L 260.269574 144.354111 
L 260.650028 145.38672 
L 261.030483 139.604387 
L 261.410937 139.624017 
L 261.791392 134.617503 
L 262.171847 134.696689 
L 262.552301 132.806989 
L 262.932756 132.660021 
L 263.693665 127.957145 
L 264.074119 127.640712 
L 264.454574 126.496061 
L 265.215483 126.648393 
L 265.595937 125.50276 
L 265.976392 127.680667 
L 266.356847 128.253468 
L 266.737301 134.310805 
L 267.117756 137.931171 
L 267.49821 143.409182 
L 267.878665 142.506729 
L 268.259119 138.022499 
L 268.639574 137.121225 
L 269.400483 130.72211 
L 269.780937 130.978853 
L 270.161392 127.158324 
L 270.541847 125.731743 
L 270.922301 125.038785 
L 271.68321 121.081725 
L 272.063665 123.090593 
L 272.444119 119.585532 
L 272.824574 122.077406 
L 273.205028 121.18593 
L 273.965937 125.201205 
L 275.107301 135.416054 
L 275.487756 135.508188 
L 275.86821 134.234824 
L 276.248665 130.251858 
L 276.629119 129.572502 
L 277.009574 126.771607 
L 277.390028 126.833292 
L 277.770483 126.232888 
L 278.150937 123.51263 
L 278.531392 123.732841 
L 279.292301 121.838125 
L 279.672756 125.297336 
L 280.05321 124.90851 
L 280.433665 125.877008 
L 280.814119 130.394647 
L 281.194574 132.704643 
L 281.575028 133.906477 
L 281.955483 130.535772 
L 282.335937 128.59332 
L 282.716392 124.100806 
L 283.096847 123.098581 
L 283.477301 121.225972 
L 284.23821 115.991637 
L 284.618665 116.712724 
L 284.999119 114.556097 
L 285.760028 113.435114 
L 286.140483 114.760639 
L 286.520937 114.180006 
L 286.901392 115.86677 
L 287.662301 117.733514 
L 288.042756 117.936967 
L 288.803665 122.081938 
L 289.184119 123.241271 
L 289.564574 126.409805 
L 289.945028 127.942318 
L 290.325483 125.398249 
L 290.705937 125.796614 
L 291.086392 125.986373 
L 291.466847 125.857643 
L 291.847301 126.799123 
L 292.227756 124.64342 
L 292.60821 125.699036 
L 292.988665 123.634608 
L 293.369119 123.798516 
L 293.749574 124.361636 
L 294.130028 123.768944 
L 294.510483 123.765083 
L 294.890937 123.900581 
L 295.271392 124.348901 
L 295.651847 126.202608 
L 296.032301 125.392132 
L 296.412756 127.489928 
L 296.79321 124.625625 
L 297.173665 123.746099 
L 297.554119 122.462942 
L 297.934574 122.581686 
L 298.695483 121.463851 
L 299.075937 121.698533 
L 299.456392 120.569608 
L 299.836847 118.622721 
L 300.217301 119.842731 
L 300.597756 118.775602 
L 300.97821 119.45027 
L 301.358665 118.801622 
L 301.739119 120.495907 
L 302.119574 120.501321 
L 302.880483 125.570705 
L 303.260937 125.683691 
L 303.641392 128.001759 
L 304.021847 127.249623 
L 304.402301 126.224155 
L 304.782756 123.076991 
L 305.16321 120.982255 
L 305.543665 122.820187 
L 305.924119 119.432 
L 306.304574 121.758856 
L 306.685028 120.785376 
L 307.065483 120.843681 
L 308.206847 122.689202 
L 308.587301 122.254692 
L 308.967756 127.119228 
L 309.34821 127.00922 
L 309.728665 129.78174 
L 310.109119 126.042046 
L 310.489574 125.021358 
L 310.870028 123.179047 
L 311.250483 123.119762 
L 311.630937 120.870881 
L 312.011392 121.692241 
L 312.391847 122.158512 
L 312.772301 121.973096 
L 313.152756 121.120276 
L 313.53321 121.178047 
L 313.913665 121.408562 
L 314.294119 121.895153 
L 315.055028 121.144512 
L 315.435483 122.176744 
L 316.196392 123.273168 
L 316.576847 125.047328 
L 316.957301 128.013264 
L 317.337756 127.160079 
L 317.71821 124.769856 
L 318.098665 125.969497 
L 318.479119 123.382628 
L 318.859574 121.779503 
L 319.240028 123.945239 
L 319.620483 122.171171 
L 320.761847 125.774096 
L 321.142301 123.828708 
L 321.522756 127.320876 
L 321.90321 129.080861 
L 322.283665 127.667441 
L 322.664119 132.843391 
L 323.044574 132.481371 
L 323.425028 127.419418 
L 324.566392 119.671957 
L 324.946847 118.52651 
L 325.327301 116.177638 
L 325.707756 115.560975 
L 326.08821 114.277985 
L 326.468665 116.706064 
L 326.849119 115.681076 
L 327.229574 114.059662 
L 327.990483 114.997481 
L 328.370937 114.15963 
L 328.751392 114.52024 
L 329.131847 116.954181 
L 329.512301 115.813924 
L 329.892756 117.309753 
L 330.27321 118.033273 
L 331.034119 123.178702 
L 331.414574 126.727768 
L 331.795028 128.874135 
L 332.175483 130.05844 
L 332.555937 129.160325 
L 332.936392 126.674379 
L 333.316847 126.740074 
L 333.697301 126.948099 
L 334.077756 123.626441 
L 334.838665 122.580656 
L 335.219119 121.133305 
L 335.599574 121.806349 
L 335.980028 123.438895 
L 336.740937 120.998854 
L 337.882301 127.005913 
L 338.262756 130.515943 
L 338.64321 131.713174 
L 339.023665 126.38712 
L 339.404119 127.12158 
L 340.545483 122.3113 
L 341.306392 120.24049 
L 341.686847 119.83548 
L 342.067301 117.339484 
L 342.447756 119.258352 
L 343.208665 117.065161 
L 343.589119 117.839703 
L 343.969574 118.075115 
L 344.350028 120.355463 
L 344.730483 121.625225 
L 345.110937 124.775519 
L 345.491392 125.339004 
L 346.252301 129.662604 
L 346.632756 124.809487 
L 347.01321 124.587611 
L 347.774119 122.781357 
L 348.154574 121.381445 
L 348.535028 119.042679 
L 348.915483 121.693284 
L 349.295937 120.982005 
L 349.676392 121.15018 
L 350.056847 122.904823 
L 350.437301 121.427856 
L 351.19821 126.109201 
L 351.578665 126.304042 
L 351.959119 124.996695 
L 352.339574 125.610455 
L 352.720028 121.997979 
L 353.100483 122.917986 
L 353.480937 121.372121 
L 353.861392 121.326201 
L 354.241847 122.130945 
L 354.622301 120.275057 
L 355.002756 122.947206 
L 355.38321 123.313983 
L 355.763665 124.168526 
L 356.144119 123.477239 
L 356.524574 124.862861 
L 356.905028 123.838841 
L 357.285483 124.902968 
L 357.665937 126.455039 
L 358.046392 125.437095 
L 358.807301 123.931262 
L 359.187756 122.684195 
L 359.948665 122.167376 
L 360.329119 123.430174 
L 360.709574 123.830713 
L 361.090028 123.068055 
L 361.470483 124.453377 
L 361.850937 126.817264 
L 362.231392 127.274124 
L 362.611847 127.046105 
L 362.992301 128.445019 
L 363.372756 127.969666 
L 363.75321 130.646576 
L 365.655483 119.9645 
L 366.035937 120.066914 
L 366.416392 117.976365 
L 366.796847 118.193194 
L 367.177301 116.107251 
L 367.557756 118.380061 
L 367.93821 116.902995 
L 368.318665 116.312152 
L 368.699119 117.660695 
L 369.079574 117.749473 
L 369.460028 116.865649 
L 369.840483 117.082747 
L 370.220937 117.686048 
L 370.601392 116.377481 
L 370.981847 118.919129 
L 371.362301 120.310521 
L 371.742756 120.530476 
L 372.12321 124.352692 
L 372.503665 126.059283 
L 372.884119 130.574239 
L 373.264574 129.594472 
L 373.645028 130.415235 
L 374.025483 127.992313 
L 374.786392 128.850884 
L 375.166847 126.474087 
L 375.547301 128.26494 
L 375.927756 131.188539 
L 376.30821 130.363234 
L 376.688665 131.046629 
L 377.069119 131.24015 
L 377.449574 132.010202 
L 377.830028 133.612193 
L 378.210483 136.467892 
L 378.590937 134.870856 
L 378.971392 134.776774 
L 379.732301 127.847165 
L 380.112756 127.558024 
L 380.49321 128.126158 
L 380.873665 126.936635 
L 381.254119 126.939973 
L 381.634574 130.538124 
L 382.015028 128.45755 
L 382.395483 131.26315 
L 382.775937 131.617587 
L 383.156392 131.222692 
L 383.536847 132.796255 
L 383.917301 131.047625 
L 384.297756 132.135904 
L 384.67821 131.787129 
L 385.058665 132.480921 
L 385.439119 132.562465 
L 385.819574 133.976297 
L 386.580483 137.835615 
L 386.580483 137.835615 
" clip-path="url(#p71d9e08577)" style="fill: none; stroke: #ff7f0e; stroke-linecap: square"/>
   </g>
   <g id="patch_19">
    <path d="M 234.779119 185.59875 
L 234.779119 109.99875 
" style="fill: none; stroke: #000000; stroke-width: 0.8; stroke-linejoin: miter; stroke-linecap: square"/>
   </g>
   <g id="patch_20">
    <path d="M 386.960937 185.59875 
L 386.960937 109.99875 
" style="fill: none; stroke: #000000; stroke-width: 0.8; stroke-linejoin: miter; stroke-linecap: square"/>
   </g>
   <g id="patch_21">
    <path d="M 234.779119 185.59875 
L 386.960937 185.59875 
" style="fill: none; stroke: #000000; stroke-width: 0.8; stroke-linejoin: miter; stroke-linecap: square"/>
   </g>
   <g id="patch_22">
    <path d="M 234.779119 109.99875 
L 386.960937 109.99875 
" style="fill: none; stroke: #000000; stroke-width: 0.8; stroke-linejoin: miter; stroke-linecap: square"/>
   </g>
   <g id="text_26">
    <!-- eps. 12 -->
    <g transform="translate(296.153153 103.99875)scale(0.08 -0.08)">
     <use xlink:href="#DejaVuSans-65"/>
     <use xlink:href="#DejaVuSans-70" x="61.523438"/>
     <use xlink:href="#DejaVuSans-73" x="125"/>
     <use xlink:href="#DejaVuSans-2e" x="177.099609"/>
     <use xlink:href="#DejaVuSans-20" x="208.886719"/>
     <use xlink:href="#DejaVuSans-31" x="240.673828"/>
     <use xlink:href="#DejaVuSans-32" x="304.296875"/>
    </g>
   </g>
  </g>
 </g>
 <defs>
  <clipPath id="pabaa3a21a1">
   <rect x="52.160938" y="19.27875" width="152.181818" height="75.6"/>
  </clipPath>
  <clipPath id="p0c7f148c7f">
   <rect x="234.779119" y="19.27875" width="152.181818" height="75.6"/>
  </clipPath>
  <clipPath id="pb44c7660a0">
   <rect x="52.160938" y="109.99875" width="152.181818" height="75.6"/>
  </clipPath>
  <clipPath id="p71d9e08577">
   <rect x="234.779119" y="109.99875" width="152.181818" height="75.6"/>
  </clipPath>
 </defs>
</svg>
