<?xml version="1.0" encoding="utf-8" standalone="no"?>
<!DOCTYPE svg PUBLIC "-//W3C//DTD SVG 1.1//EN"
  "http://www.w3.org/Graphics/SVG/1.1/DTD/svg11.dtd">
<svg xmlns:xlink="http://www.w3.org/1999/xlink" width="400.526562pt" height="223.155pt" viewBox="0 0 400.526562 223.155" xmlns="http://www.w3.org/2000/svg" version="1.1">
 <metadata>
  <rdf:RDF xmlns:dc="http://purl.org/dc/elements/1.1/" xmlns:cc="http://creativecommons.org/ns#" xmlns:rdf="http://www.w3.org/1999/02/22-rdf-syntax-ns#">
   <cc:Work>
    <dc:type rdf:resource="http://purl.org/dc/dcmitype/StillImage"/>
    <dc:date>2023-02-27T21:44:57.049283</dc:date>
    <dc:format>image/svg+xml</dc:format>
    <dc:creator>
     <cc:Agent>
      <dc:title>Matplotlib v3.5.1, https://matplotlib.org/</dc:title>
     </cc:Agent>
    </dc:creator>
   </cc:Work>
  </rdf:RDF>
 </metadata>
 <defs>
  <style type="text/css">*{stroke-linejoin: round; stroke-linecap: butt}</style>
 </defs>
 <g id="figure_1">
  <g id="patch_1">
   <path d="M 0 223.155 
L 400.526562 223.155 
L 400.526562 0 
L 0 0 
z
" style="fill: #ffffff"/>
  </g>
  <g id="axes_1">
   <g id="patch_2">
    <path d="M 48.982813 94.87875 
L 201.164631 94.87875 
L 201.164631 19.27875 
L 48.982813 19.27875 
z
" style="fill: #ffffff"/>
   </g>
   <g id="matplotlib.axis_1">
    <g id="xtick_1">
     <g id="line2d_1">
      <defs>
       <path id="m3fa8d90605" d="M 0 0 
L 0 3.5 
" style="stroke: #000000; stroke-width: 0.8"/>
      </defs>
      <g>
       <use xlink:href="#m3fa8d90605" x="48.982813" y="94.87875" style="stroke: #000000; stroke-width: 0.8"/>
      </g>
     </g>
    </g>
    <g id="xtick_2">
     <g id="line2d_2">
      <g>
       <use xlink:href="#m3fa8d90605" x="87.028267" y="94.87875" style="stroke: #000000; stroke-width: 0.8"/>
      </g>
     </g>
    </g>
    <g id="xtick_3">
     <g id="line2d_3">
      <g>
       <use xlink:href="#m3fa8d90605" x="125.073722" y="94.87875" style="stroke: #000000; stroke-width: 0.8"/>
      </g>
     </g>
    </g>
    <g id="xtick_4">
     <g id="line2d_4">
      <g>
       <use xlink:href="#m3fa8d90605" x="163.119176" y="94.87875" style="stroke: #000000; stroke-width: 0.8"/>
      </g>
     </g>
    </g>
    <g id="xtick_5">
     <g id="line2d_5">
      <g>
       <use xlink:href="#m3fa8d90605" x="201.164631" y="94.87875" style="stroke: #000000; stroke-width: 0.8"/>
      </g>
     </g>
    </g>
   </g>
   <g id="matplotlib.axis_2">
    <g id="ytick_1">
     <g id="line2d_6">
      <defs>
       <path id="mc2d2e6262b" d="M 0 0 
L -3.5 0 
" style="stroke: #000000; stroke-width: 0.8"/>
      </defs>
      <g>
       <use xlink:href="#mc2d2e6262b" x="48.982813" y="75.558324" style="stroke: #000000; stroke-width: 0.8"/>
      </g>
     </g>
     <g id="text_1">
      <!-- −10 -->
      <g transform="translate(20.878125 79.357543)scale(0.1 -0.1)">
       <defs>
        <path id="DejaVuSans-2212" d="M 678 2272 
L 4684 2272 
L 4684 1741 
L 678 1741 
L 678 2272 
z
" transform="scale(0.015625)"/>
        <path id="DejaVuSans-31" d="M 794 531 
L 1825 531 
L 1825 4091 
L 703 3866 
L 703 4441 
L 1819 4666 
L 2450 4666 
L 2450 531 
L 3481 531 
L 3481 0 
L 794 0 
L 794 531 
z
" transform="scale(0.015625)"/>
        <path id="DejaVuSans-30" d="M 2034 4250 
Q 1547 4250 1301 3770 
Q 1056 3291 1056 2328 
Q 1056 1369 1301 889 
Q 1547 409 2034 409 
Q 2525 409 2770 889 
Q 3016 1369 3016 2328 
Q 3016 3291 2770 3770 
Q 2525 4250 2034 4250 
z
M 2034 4750 
Q 2819 4750 3233 4129 
Q 3647 3509 3647 2328 
Q 3647 1150 3233 529 
Q 2819 -91 2034 -91 
Q 1250 -91 836 529 
Q 422 1150 422 2328 
Q 422 3509 836 4129 
Q 1250 4750 2034 4750 
z
" transform="scale(0.015625)"/>
       </defs>
       <use xlink:href="#DejaVuSans-2212"/>
       <use xlink:href="#DejaVuSans-31" x="83.789062"/>
       <use xlink:href="#DejaVuSans-30" x="147.412109"/>
      </g>
     </g>
    </g>
    <g id="ytick_2">
     <g id="line2d_7">
      <g>
       <use xlink:href="#mc2d2e6262b" x="48.982813" y="49.069864" style="stroke: #000000; stroke-width: 0.8"/>
      </g>
     </g>
     <g id="text_2">
      <!-- −5 -->
      <g transform="translate(27.240625 52.869083)scale(0.1 -0.1)">
       <defs>
        <path id="DejaVuSans-35" d="M 691 4666 
L 3169 4666 
L 3169 4134 
L 1269 4134 
L 1269 2991 
Q 1406 3038 1543 3061 
Q 1681 3084 1819 3084 
Q 2600 3084 3056 2656 
Q 3513 2228 3513 1497 
Q 3513 744 3044 326 
Q 2575 -91 1722 -91 
Q 1428 -91 1123 -41 
Q 819 9 494 109 
L 494 744 
Q 775 591 1075 516 
Q 1375 441 1709 441 
Q 2250 441 2565 725 
Q 2881 1009 2881 1497 
Q 2881 1984 2565 2268 
Q 2250 2553 1709 2553 
Q 1456 2553 1204 2497 
Q 953 2441 691 2322 
L 691 4666 
z
" transform="scale(0.015625)"/>
       </defs>
       <use xlink:href="#DejaVuSans-2212"/>
       <use xlink:href="#DejaVuSans-35" x="83.789062"/>
      </g>
     </g>
    </g>
    <g id="ytick_3">
     <g id="line2d_8">
      <g>
       <use xlink:href="#mc2d2e6262b" x="48.982813" y="22.581404" style="stroke: #000000; stroke-width: 0.8"/>
      </g>
     </g>
     <g id="text_3">
      <!-- 0 -->
      <g transform="translate(35.620312 26.380623)scale(0.1 -0.1)">
       <use xlink:href="#DejaVuSans-30"/>
      </g>
     </g>
    </g>
    <g id="text_4">
     <!-- $G$ -->
     <g transform="translate(14.798438 60.97875)rotate(-90)scale(0.1 -0.1)">
      <defs>
       <path id="DejaVuSans-Oblique-47" d="M 3494 697 
L 3738 1919 
L 2700 1919 
L 2797 2438 
L 4453 2438 
L 4050 384 
Q 3634 156 3143 32 
Q 2653 -91 2156 -91 
Q 1278 -91 783 396 
Q 288 884 288 1753 
Q 288 2475 589 3126 
Q 891 3778 1422 4213 
Q 1756 4484 2153 4617 
Q 2550 4750 3034 4750 
Q 3472 4750 3873 4639 
Q 4275 4528 4641 4306 
L 4513 3634 
Q 4231 3928 3853 4083 
Q 3475 4238 3047 4238 
Q 2550 4238 2172 4048 
Q 1794 3859 1497 3463 
Q 1244 3125 1098 2667 
Q 953 2209 953 1734 
Q 953 1081 1287 751 
Q 1622 422 2284 422 
Q 2616 422 2925 492 
Q 3234 563 3494 697 
z
" transform="scale(0.015625)"/>
      </defs>
      <use xlink:href="#DejaVuSans-Oblique-47" transform="translate(0 0.78125)"/>
     </g>
    </g>
   </g>
   <g id="line2d_9">
    <path d="M 48.982813 81.658782 
L 50.124176 82.140198 
L 50.885085 82.272477 
L 51.645994 82.143537 
L 52.406903 81.862323 
L 53.167812 81.398147 
L 53.928722 81.344774 
L 54.689631 81.618026 
L 58.113722 83.371918 
L 58.874631 83.469426 
L 59.63554 83.376996 
L 60.396449 83.050469 
L 61.157358 82.99667 
L 63.440085 83.281375 
L 66.103267 82.726359 
L 67.244631 82.366517 
L 68.00554 82.437802 
L 70.668722 82.951991 
L 71.810085 82.714465 
L 72.951449 81.9884 
L 74.092812 81.164797 
L 74.853722 81.1628 
L 75.614631 81.348896 
L 76.37554 81.681685 
L 77.516903 81.832928 
L 78.658267 81.866277 
L 79.419176 81.601352 
L 80.180085 81.166986 
L 80.940994 80.656255 
L 81.701903 80.566776 
L 82.843267 80.819097 
L 84.365085 81.335954 
L 85.886903 81.371407 
L 86.647812 81.25655 
L 87.408722 80.948354 
L 88.169631 80.604003 
L 89.310994 80.667316 
L 93.11554 81.258922 
L 94.256903 81.033044 
L 95.017812 80.772279 
L 95.778722 80.811932 
L 99.963722 81.56697 
L 100.724631 81.528355 
L 101.48554 81.341105 
L 102.246449 81.413128 
L 103.387812 81.895213 
L 105.290085 83.076186 
L 106.050994 83.342254 
L 106.811903 83.321556 
L 107.192358 83.263819 
L 108.333722 82.750274 
L 109.094631 82.910926 
L 109.85554 83.396366 
L 111.757812 84.996598 
L 112.518722 85.193615 
L 113.279631 85.064284 
L 114.420994 84.459393 
L 115.181903 84.054115 
L 115.562358 84.051596 
L 116.703722 84.504258 
L 117.845085 84.952478 
L 118.22554 85.024243 
L 118.605994 84.978318 
L 119.366903 84.605541 
L 122.030085 82.648305 
L 122.790994 82.565974 
L 123.932358 82.775644 
L 125.073722 82.877459 
L 127.736903 82.378694 
L 128.497812 81.991852 
L 129.258722 81.487091 
L 130.400085 81.06624 
L 131.541449 80.568971 
L 132.682812 79.853741 
L 133.824176 78.78259 
L 135.345994 77.087465 
L 136.106903 76.773236 
L 139.15054 76.530553 
L 140.291903 76.003854 
L 141.052812 75.434946 
L 142.955085 73.900831 
L 144.096449 73.714285 
L 145.237812 73.726582 
L 145.998722 73.495259 
L 148.281449 72.13431 
L 149.803267 70.822824 
L 150.564176 70.568929 
L 152.085994 70.202872 
L 153.607812 69.605983 
L 160.07554 65.911704 
L 163.499631 62.844938 
L 164.26054 62.565188 
L 165.782358 62.109749 
L 167.684631 61.0052 
L 168.44554 60.3518 
L 169.967358 58.768899 
L 171.108722 58.186622 
L 171.869631 57.809008 
L 172.63054 57.190814 
L 173.771903 55.848546 
L 175.293722 53.875239 
L 176.435085 52.56215 
L 178.717812 50.97939 
L 179.478722 50.205775 
L 181.380994 47.876838 
L 183.663722 44.599259 
L 187.468267 40.40808 
L 188.229176 39.404394 
L 191.272812 35.095614 
L 194.316449 31.864691 
L 195.838267 29.761369 
L 197.74054 26.759368 
L 200.784176 23.19255 
L 200.784176 23.19255 
" clip-path="url(#p6c9ad6bb59)" style="fill: none; stroke: #1f77b4; stroke-linecap: square"/>
   </g>
   <g id="line2d_10">
    <path d="M 48.982813 51.89904 
L 50.124176 52.377265 
L 50.885085 52.512858 
L 51.645994 52.385946 
L 52.406903 52.101663 
L 53.167812 51.625026 
L 53.928722 51.555361 
L 54.689631 51.815721 
L 56.211449 52.710181 
L 57.352812 53.37052 
L 58.494176 53.711232 
L 59.255085 53.749375 
L 60.015994 53.503611 
L 60.776903 53.307881 
L 61.537813 53.419148 
L 62.679176 53.691755 
L 63.440085 53.714021 
L 66.103267 53.25378 
L 67.244631 52.923634 
L 68.00554 53.014198 
L 70.668722 53.631632 
L 71.810085 53.443665 
L 72.951449 52.752898 
L 74.092812 51.94037 
L 74.853722 51.940616 
L 75.614631 52.13211 
L 76.755994 52.57218 
L 78.658267 52.716026 
L 79.419176 52.467617 
L 80.180085 52.042366 
L 80.940994 51.530257 
L 81.701903 51.435452 
L 82.843267 51.683605 
L 84.365085 52.213273 
L 86.267358 52.244201 
L 87.028267 52.059517 
L 88.169631 51.519567 
L 89.310994 51.579146 
L 91.974176 52.110638 
L 92.735085 52.218712 
L 93.876449 52.106798 
L 95.398267 51.732374 
L 96.539631 51.963937 
L 99.202812 52.543513 
L 100.344176 52.611112 
L 101.105085 52.488315 
L 101.865994 52.439689 
L 102.626903 52.665487 
L 103.768267 53.318412 
L 105.290085 54.34961 
L 106.050994 54.683078 
L 106.811903 54.733298 
L 107.192358 54.711336 
L 108.333722 54.298299 
L 109.094631 54.528232 
L 109.85554 55.094011 
L 111.757812 56.970786 
L 112.518722 57.302546 
L 113.279631 57.312339 
L 114.420994 56.913602 
L 115.181903 56.641463 
L 115.562358 56.706748 
L 116.703722 57.379997 
L 117.845085 58.07829 
L 118.605994 58.28291 
L 119.366903 58.090285 
L 122.030085 56.729806 
L 122.790994 56.815395 
L 123.932358 57.293962 
L 125.073722 57.686858 
L 127.736903 57.924179 
L 128.497812 57.756054 
L 129.258722 57.468559 
L 130.400085 57.378084 
L 131.541449 57.218544 
L 132.682812 56.841952 
L 133.443722 56.405158 
L 134.204631 55.750604 
L 134.96554 55.010617 
L 135.345994 54.814908 
L 136.106903 54.701074 
L 137.248267 55.010948 
L 138.389631 55.29886 
L 139.530994 55.297871 
L 140.291903 55.158746 
L 141.052812 54.823352 
L 141.433267 54.606112 
L 142.194176 54.025508 
L 142.955085 53.852815 
L 144.096449 54.01266 
L 145.237812 54.392585 
L 145.998722 54.415139 
L 148.281449 53.830167 
L 149.803267 53.026871 
L 150.564176 53.02957 
L 152.085994 53.19789 
L 153.607812 53.158788 
L 154.749176 53.025977 
L 155.510085 52.921363 
L 157.031903 52.468902 
L 159.314631 52.250449 
L 160.455994 51.790641 
L 161.597358 51.207302 
L 163.119176 50.316693 
L 164.26054 50.322721 
L 165.782358 50.508373 
L 167.684631 50.238216 
L 168.44554 49.923235 
L 169.967358 49.008646 
L 170.728267 48.934385 
L 171.869631 48.903724 
L 172.63054 48.635351 
L 173.391449 48.114587 
L 176.435085 45.686515 
L 178.717812 45.09234 
L 179.478722 44.649969 
L 181.380994 43.126632 
L 183.663722 40.740872 
L 186.707358 38.514044 
L 188.229176 37.151996 
L 189.750994 35.227405 
L 190.511903 34.376278 
L 195.077358 30.37556 
L 196.218722 28.769548 
L 197.360085 27.03448 
L 198.501449 25.786646 
L 199.262358 25.047716 
L 200.784176 23.19255 
L 200.784176 23.19255 
" clip-path="url(#p6c9ad6bb59)" style="fill: none; stroke-dasharray: 3.7,1.6; stroke-dashoffset: 0; stroke: #1f77b4"/>
   </g>
   <g id="line2d_11">
    <path d="M 48.982813 84.559521 
L 50.885085 85.566564 
L 51.645994 85.670079 
L 52.787358 85.645865 
L 53.167812 85.50989 
L 53.928722 85.551626 
L 54.689631 85.849696 
L 57.352812 87.39081 
L 58.874631 87.833667 
L 59.63554 87.833652 
L 60.015994 87.700432 
L 60.776903 87.741666 
L 61.918267 88.246423 
L 63.440085 88.940327 
L 64.200994 89.173904 
L 64.961903 89.186852 
L 65.722813 88.946971 
L 66.864176 88.326004 
L 67.244631 88.258203 
L 68.00554 88.484031 
L 68.766449 89.009746 
L 71.429631 91.131991 
L 72.19054 91.323609 
L 72.951449 91.220091 
L 73.712358 90.860938 
L 74.092812 90.605905 
L 74.853722 90.510785 
L 75.614631 90.810839 
L 77.136449 91.393454 
L 78.658267 91.39476 
L 80.180085 91.053006 
L 80.940994 90.746028 
L 81.701903 90.717653 
L 84.74554 91.280158 
L 85.506449 91.251153 
L 87.028267 90.910162 
L 88.169631 90.403576 
L 88.93054 90.454082 
L 91.213267 91.104735 
L 91.974176 90.975056 
L 93.11554 90.428996 
L 93.876449 89.973301 
L 94.637358 89.437225 
L 95.398267 89.458977 
L 96.159176 89.829644 
L 98.061449 91.040645 
L 98.822358 91.273002 
L 99.583267 91.237805 
L 100.344176 91.023436 
L 101.865994 90.125702 
L 102.626903 90.19867 
L 104.909631 90.766202 
L 105.67054 90.540221 
L 107.192358 89.541667 
L 108.333722 88.858208 
L 109.094631 88.799775 
L 110.616449 88.911571 
L 111.377358 88.595448 
L 112.899176 87.564965 
L 114.04054 86.443311 
L 114.801449 85.716489 
L 115.562358 85.441297 
L 117.084176 85.355848 
L 118.22554 85.269948 
L 120.888722 84.080707 
L 122.030085 83.22372 
L 122.790994 82.975362 
L 124.693267 82.655486 
L 126.215085 81.764345 
L 127.356449 80.913575 
L 128.497812 79.879385 
L 129.258722 79.59116 
L 130.400085 79.620874 
L 131.160994 79.694741 
L 131.921903 79.569352 
L 133.063267 79.061697 
L 133.824176 78.421387 
L 134.585085 77.457637 
L 134.96554 76.903248 
L 135.726449 76.320206 
L 136.106903 76.152113 
L 136.867812 76.220515 
L 139.911449 76.671176 
L 140.672358 76.475542 
L 141.813722 75.784535 
L 142.574631 75.113261 
L 143.33554 74.718347 
L 144.476903 74.40629 
L 145.618267 73.744281 
L 146.379176 73.111708 
L 149.422812 70.320613 
L 151.325085 69.471035 
L 152.466449 68.657955 
L 155.129631 65.790543 
L 155.89054 64.911292 
L 157.031903 64.219241 
L 157.792812 63.83026 
L 159.314631 62.635793 
L 160.07554 61.905097 
L 163.119176 58.603151 
L 163.880085 58.183321 
L 165.021449 57.660008 
L 166.162812 57.075671 
L 169.206449 55.349363 
L 170.347812 54.344962 
L 171.869631 53.202876 
L 173.010994 52.143517 
L 174.152358 50.834939 
L 176.054631 48.341033 
L 176.81554 47.761459 
L 177.956903 47.354062 
L 179.478722 46.902964 
L 180.239631 46.467181 
L 181.380994 45.477593 
L 182.522358 44.118532 
L 183.283267 43.171158 
L 184.044176 42.527668 
L 185.565994 41.590047 
L 187.087812 40.272531 
L 188.229176 38.932526 
L 190.511903 35.556394 
L 193.175085 33.140807 
L 194.696903 31.281592 
L 196.599176 28.444203 
L 197.74054 26.760202 
L 200.784176 23.06145 
L 200.784176 23.06145 
" clip-path="url(#p6c9ad6bb59)" style="fill: none; stroke: #ff7f0e; stroke-linecap: square"/>
   </g>
   <g id="line2d_12">
    <path d="M 48.982813 51.93655 
L 50.885085 52.802491 
L 51.645994 52.855472 
L 52.787358 52.752085 
L 53.167812 52.586936 
L 53.928722 52.568829 
L 54.689631 52.809347 
L 57.352812 54.204668 
L 58.874631 54.594013 
L 59.63554 54.569013 
L 60.015994 54.421403 
L 60.776903 54.433253 
L 61.918267 54.902158 
L 63.82054 55.696633 
L 64.581449 55.821725 
L 65.342358 55.722383 
L 66.103267 55.346662 
L 66.864176 54.918717 
L 67.244631 54.839306 
L 68.00554 55.044275 
L 68.766449 55.557491 
L 70.288267 56.93706 
L 71.049176 57.529242 
L 71.810085 57.892506 
L 72.570994 57.975729 
L 73.331903 57.776973 
L 74.473267 57.260504 
L 75.234176 57.390204 
L 76.755994 58.182771 
L 77.516903 58.341944 
L 78.658267 58.403666 
L 80.180085 58.172854 
L 80.940994 57.916874 
L 81.701903 57.939204 
L 85.125994 58.815535 
L 86.647812 58.677513 
L 87.408722 58.451222 
L 88.169631 58.21583 
L 88.93054 58.337822 
L 91.213267 59.249153 
L 91.974176 59.217162 
L 93.11554 58.812904 
L 93.876449 58.445403 
L 94.256903 58.143343 
L 94.637358 57.989683 
L 95.398267 58.093023 
L 96.159176 58.554605 
L 98.061449 60.055352 
L 99.202812 60.499419 
L 99.963722 60.516635 
L 100.724631 60.321945 
L 101.865994 59.851993 
L 102.626903 60.069861 
L 104.909631 61.13671 
L 105.67054 61.091679 
L 106.811903 60.633021 
L 107.953267 60.130261 
L 108.333722 60.025238 
L 109.094631 60.14303 
L 110.616449 60.633372 
L 111.377358 60.514119 
L 112.518722 60.076963 
L 113.660085 59.351177 
L 114.801449 58.476489 
L 115.562358 58.375215 
L 117.084176 58.654114 
L 118.22554 58.860143 
L 120.888722 58.373278 
L 122.030085 57.812543 
L 122.790994 57.762294 
L 124.693267 57.96463 
L 126.215085 57.501332 
L 127.356449 56.966269 
L 128.497812 56.236146 
L 129.258722 56.149636 
L 130.400085 56.496059 
L 131.160994 56.793729 
L 131.921903 56.899735 
L 133.063267 56.745882 
L 133.824176 56.340152 
L 134.585085 55.602754 
L 134.96554 55.156652 
L 135.726449 54.787308 
L 136.106903 54.726408 
L 136.867812 55.016552 
L 138.389631 55.83303 
L 139.530994 56.353145 
L 140.291903 56.576303 
L 141.433267 56.432346 
L 142.194176 56.067558 
L 142.955085 55.821534 
L 143.715994 55.874103 
L 144.476903 55.929882 
L 145.618267 55.719366 
L 146.379176 55.388976 
L 149.422812 53.7822 
L 151.325085 53.686408 
L 152.466449 53.335346 
L 154.749176 51.836775 
L 155.89054 50.931144 
L 157.031903 50.672677 
L 157.792812 50.577888 
L 158.934176 50.14203 
L 160.07554 49.535609 
L 163.119176 47.34948 
L 163.880085 47.201316 
L 165.021449 47.092752 
L 166.162812 46.932488 
L 169.206449 46.37402 
L 170.347812 45.810839 
L 171.869631 45.25757 
L 173.010994 44.636969 
L 174.152358 43.756696 
L 176.054631 41.931951 
L 176.81554 41.610082 
L 177.956903 41.595751 
L 179.478722 41.691332 
L 180.239631 41.535536 
L 181.380994 40.964545 
L 182.522358 40.011718 
L 183.283267 39.323806 
L 184.044176 38.935997 
L 185.565994 38.51114 
L 187.087812 37.70108 
L 188.229176 36.72616 
L 189.37054 35.248831 
L 190.131449 34.331727 
L 190.892358 33.758376 
L 193.175085 32.22062 
L 194.696903 30.680512 
L 196.599176 28.155326 
L 197.74054 26.600502 
L 200.784176 23.06145 
L 200.784176 23.06145 
" clip-path="url(#p6c9ad6bb59)" style="fill: none; stroke-dasharray: 3.7,1.6; stroke-dashoffset: 0; stroke: #ff7f0e"/>
   </g>
   <g id="patch_3">
    <path d="M 48.982813 94.87875 
L 48.982813 19.27875 
" style="fill: none; stroke: #000000; stroke-width: 0.8; stroke-linejoin: miter; stroke-linecap: square"/>
   </g>
   <g id="patch_4">
    <path d="M 201.164631 94.87875 
L 201.164631 19.27875 
" style="fill: none; stroke: #000000; stroke-width: 0.8; stroke-linejoin: miter; stroke-linecap: square"/>
   </g>
   <g id="patch_5">
    <path d="M 48.982813 94.87875 
L 201.164631 94.87875 
" style="fill: none; stroke: #000000; stroke-width: 0.8; stroke-linejoin: miter; stroke-linecap: square"/>
   </g>
   <g id="patch_6">
    <path d="M 48.982813 19.27875 
L 201.164631 19.27875 
" style="fill: none; stroke: #000000; stroke-width: 0.8; stroke-linejoin: miter; stroke-linecap: square"/>
   </g>
   <g id="text_5">
    <!-- eps. 0 -->
    <g transform="translate(112.901847 13.27875)scale(0.08 -0.08)">
     <defs>
      <path id="DejaVuSans-65" d="M 3597 1894 
L 3597 1613 
L 953 1613 
Q 991 1019 1311 708 
Q 1631 397 2203 397 
Q 2534 397 2845 478 
Q 3156 559 3463 722 
L 3463 178 
Q 3153 47 2828 -22 
Q 2503 -91 2169 -91 
Q 1331 -91 842 396 
Q 353 884 353 1716 
Q 353 2575 817 3079 
Q 1281 3584 2069 3584 
Q 2775 3584 3186 3129 
Q 3597 2675 3597 1894 
z
M 3022 2063 
Q 3016 2534 2758 2815 
Q 2500 3097 2075 3097 
Q 1594 3097 1305 2825 
Q 1016 2553 972 2059 
L 3022 2063 
z
" transform="scale(0.015625)"/>
      <path id="DejaVuSans-70" d="M 1159 525 
L 1159 -1331 
L 581 -1331 
L 581 3500 
L 1159 3500 
L 1159 2969 
Q 1341 3281 1617 3432 
Q 1894 3584 2278 3584 
Q 2916 3584 3314 3078 
Q 3713 2572 3713 1747 
Q 3713 922 3314 415 
Q 2916 -91 2278 -91 
Q 1894 -91 1617 61 
Q 1341 213 1159 525 
z
M 3116 1747 
Q 3116 2381 2855 2742 
Q 2594 3103 2138 3103 
Q 1681 3103 1420 2742 
Q 1159 2381 1159 1747 
Q 1159 1113 1420 752 
Q 1681 391 2138 391 
Q 2594 391 2855 752 
Q 3116 1113 3116 1747 
z
" transform="scale(0.015625)"/>
      <path id="DejaVuSans-73" d="M 2834 3397 
L 2834 2853 
Q 2591 2978 2328 3040 
Q 2066 3103 1784 3103 
Q 1356 3103 1142 2972 
Q 928 2841 928 2578 
Q 928 2378 1081 2264 
Q 1234 2150 1697 2047 
L 1894 2003 
Q 2506 1872 2764 1633 
Q 3022 1394 3022 966 
Q 3022 478 2636 193 
Q 2250 -91 1575 -91 
Q 1294 -91 989 -36 
Q 684 19 347 128 
L 347 722 
Q 666 556 975 473 
Q 1284 391 1588 391 
Q 1994 391 2212 530 
Q 2431 669 2431 922 
Q 2431 1156 2273 1281 
Q 2116 1406 1581 1522 
L 1381 1569 
Q 847 1681 609 1914 
Q 372 2147 372 2553 
Q 372 3047 722 3315 
Q 1072 3584 1716 3584 
Q 2034 3584 2315 3537 
Q 2597 3491 2834 3397 
z
" transform="scale(0.015625)"/>
      <path id="DejaVuSans-2e" d="M 684 794 
L 1344 794 
L 1344 0 
L 684 0 
L 684 794 
z
" transform="scale(0.015625)"/>
      <path id="DejaVuSans-20" transform="scale(0.015625)"/>
     </defs>
     <use xlink:href="#DejaVuSans-65"/>
     <use xlink:href="#DejaVuSans-70" x="61.523438"/>
     <use xlink:href="#DejaVuSans-73" x="125"/>
     <use xlink:href="#DejaVuSans-2e" x="177.099609"/>
     <use xlink:href="#DejaVuSans-20" x="208.886719"/>
     <use xlink:href="#DejaVuSans-30" x="240.673828"/>
    </g>
   </g>
   <g id="legend_1">
    <g id="patch_7">
     <path d="M 53.182813 41.716875 
L 170.302813 41.716875 
Q 171.502813 41.716875 171.502813 40.516875 
L 171.502813 23.47875 
Q 171.502813 22.27875 170.302813 22.27875 
L 53.182813 22.27875 
Q 51.982813 22.27875 51.982813 23.47875 
L 51.982813 40.516875 
Q 51.982813 41.716875 53.182813 41.716875 
z
" style="fill: #ffffff; opacity: 0.8; stroke: #cccccc; stroke-linejoin: miter"/>
    </g>
    <g id="line2d_13">
     <path d="M 54.382812 27.137813 
L 60.382812 27.137813 
L 66.382812 27.137813 
" style="fill: none; stroke: #1f77b4; stroke-linecap: square"/>
    </g>
    <g id="text_6">
     <!-- $\tau_0$, $\gamma = 0.99$ -->
     <g transform="translate(71.182812 29.237813)scale(0.06 -0.06)">
      <defs>
       <path id="DejaVuSans-Oblique-3c4" d="M 2103 638 
Q 2188 488 2525 488 
L 2800 488 
L 2706 0 
L 2363 0 
Q 1800 0 1600 300 
Q 1403 606 1534 1269 
L 1856 2925 
L 541 2925 
L 653 3500 
L 3881 3500 
L 3769 2925 
L 2444 2925 
L 2113 1234 
Q 2025 781 2103 638 
z
" transform="scale(0.015625)"/>
       <path id="DejaVuSans-2c" d="M 750 794 
L 1409 794 
L 1409 256 
L 897 -744 
L 494 -744 
L 750 256 
L 750 794 
z
" transform="scale(0.015625)"/>
       <path id="DejaVuSans-Oblique-3b3" d="M 1491 2950 
L 1838 788 
L 3456 3500 
L 4066 3500 
L 1972 0 
L 1713 -1331 
L 1138 -1331 
L 1397 0 
L 988 2613 
Q 925 3006 628 3006 
L 475 3006 
L 569 3500 
L 788 3500 
Q 1403 3500 1491 2950 
z
" transform="scale(0.015625)"/>
       <path id="DejaVuSans-3d" d="M 678 2906 
L 4684 2906 
L 4684 2381 
L 678 2381 
L 678 2906 
z
M 678 1631 
L 4684 1631 
L 4684 1100 
L 678 1100 
L 678 1631 
z
" transform="scale(0.015625)"/>
       <path id="DejaVuSans-39" d="M 703 97 
L 703 672 
Q 941 559 1184 500 
Q 1428 441 1663 441 
Q 2288 441 2617 861 
Q 2947 1281 2994 2138 
Q 2813 1869 2534 1725 
Q 2256 1581 1919 1581 
Q 1219 1581 811 2004 
Q 403 2428 403 3163 
Q 403 3881 828 4315 
Q 1253 4750 1959 4750 
Q 2769 4750 3195 4129 
Q 3622 3509 3622 2328 
Q 3622 1225 3098 567 
Q 2575 -91 1691 -91 
Q 1453 -91 1209 -44 
Q 966 3 703 97 
z
M 1959 2075 
Q 2384 2075 2632 2365 
Q 2881 2656 2881 3163 
Q 2881 3666 2632 3958 
Q 2384 4250 1959 4250 
Q 1534 4250 1286 3958 
Q 1038 3666 1038 3163 
Q 1038 2656 1286 2365 
Q 1534 2075 1959 2075 
z
" transform="scale(0.015625)"/>
      </defs>
      <use xlink:href="#DejaVuSans-Oblique-3c4" transform="translate(0 0.78125)"/>
      <use xlink:href="#DejaVuSans-30" transform="translate(60.205078 -15.625)scale(0.7)"/>
      <use xlink:href="#DejaVuSans-2c" transform="translate(107.475586 0.78125)"/>
      <use xlink:href="#DejaVuSans-20" transform="translate(139.262695 0.78125)"/>
      <use xlink:href="#DejaVuSans-Oblique-3b3" transform="translate(171.049805 0.78125)"/>
      <use xlink:href="#DejaVuSans-3d" transform="translate(249.711914 0.78125)"/>
      <use xlink:href="#DejaVuSans-30" transform="translate(352.983398 0.78125)"/>
      <use xlink:href="#DejaVuSans-2e" transform="translate(416.606445 0.78125)"/>
      <use xlink:href="#DejaVuSans-39" transform="translate(448.393555 0.78125)"/>
      <use xlink:href="#DejaVuSans-39" transform="translate(512.016602 0.78125)"/>
     </g>
    </g>
    <g id="line2d_14">
     <path d="M 54.382812 35.956875 
L 60.382812 35.956875 
L 66.382812 35.956875 
" style="fill: none; stroke-dasharray: 3.7,1.6; stroke-dashoffset: 0; stroke: #1f77b4"/>
    </g>
    <g id="text_7">
     <!-- $\tau_0$, $\gamma = 0.98$ -->
     <g transform="translate(71.182812 38.056875)scale(0.06 -0.06)">
      <defs>
       <path id="DejaVuSans-38" d="M 2034 2216 
Q 1584 2216 1326 1975 
Q 1069 1734 1069 1313 
Q 1069 891 1326 650 
Q 1584 409 2034 409 
Q 2484 409 2743 651 
Q 3003 894 3003 1313 
Q 3003 1734 2745 1975 
Q 2488 2216 2034 2216 
z
M 1403 2484 
Q 997 2584 770 2862 
Q 544 3141 544 3541 
Q 544 4100 942 4425 
Q 1341 4750 2034 4750 
Q 2731 4750 3128 4425 
Q 3525 4100 3525 3541 
Q 3525 3141 3298 2862 
Q 3072 2584 2669 2484 
Q 3125 2378 3379 2068 
Q 3634 1759 3634 1313 
Q 3634 634 3220 271 
Q 2806 -91 2034 -91 
Q 1263 -91 848 271 
Q 434 634 434 1313 
Q 434 1759 690 2068 
Q 947 2378 1403 2484 
z
M 1172 3481 
Q 1172 3119 1398 2916 
Q 1625 2713 2034 2713 
Q 2441 2713 2670 2916 
Q 2900 3119 2900 3481 
Q 2900 3844 2670 4047 
Q 2441 4250 2034 4250 
Q 1625 4250 1398 4047 
Q 1172 3844 1172 3481 
z
" transform="scale(0.015625)"/>
      </defs>
      <use xlink:href="#DejaVuSans-Oblique-3c4" transform="translate(0 0.78125)"/>
      <use xlink:href="#DejaVuSans-30" transform="translate(60.205078 -15.625)scale(0.7)"/>
      <use xlink:href="#DejaVuSans-2c" transform="translate(107.475586 0.78125)"/>
      <use xlink:href="#DejaVuSans-20" transform="translate(139.262695 0.78125)"/>
      <use xlink:href="#DejaVuSans-Oblique-3b3" transform="translate(171.049805 0.78125)"/>
      <use xlink:href="#DejaVuSans-3d" transform="translate(249.711914 0.78125)"/>
      <use xlink:href="#DejaVuSans-30" transform="translate(352.983398 0.78125)"/>
      <use xlink:href="#DejaVuSans-2e" transform="translate(416.606445 0.78125)"/>
      <use xlink:href="#DejaVuSans-39" transform="translate(448.393555 0.78125)"/>
      <use xlink:href="#DejaVuSans-38" transform="translate(512.016602 0.78125)"/>
     </g>
    </g>
    <g id="line2d_15">
     <path d="M 117.742812 27.137813 
L 123.742812 27.137813 
L 129.742813 27.137813 
" style="fill: none; stroke: #ff7f0e; stroke-linecap: square"/>
    </g>
    <g id="text_8">
     <!-- $\tau_1$, $\gamma = 0.99$ -->
     <g transform="translate(134.542812 29.237813)scale(0.06 -0.06)">
      <use xlink:href="#DejaVuSans-Oblique-3c4" transform="translate(0 0.78125)"/>
      <use xlink:href="#DejaVuSans-31" transform="translate(60.205078 -15.625)scale(0.7)"/>
      <use xlink:href="#DejaVuSans-2c" transform="translate(107.475586 0.78125)"/>
      <use xlink:href="#DejaVuSans-20" transform="translate(139.262695 0.78125)"/>
      <use xlink:href="#DejaVuSans-Oblique-3b3" transform="translate(171.049805 0.78125)"/>
      <use xlink:href="#DejaVuSans-3d" transform="translate(249.711914 0.78125)"/>
      <use xlink:href="#DejaVuSans-30" transform="translate(352.983398 0.78125)"/>
      <use xlink:href="#DejaVuSans-2e" transform="translate(416.606445 0.78125)"/>
      <use xlink:href="#DejaVuSans-39" transform="translate(448.393555 0.78125)"/>
      <use xlink:href="#DejaVuSans-39" transform="translate(512.016602 0.78125)"/>
     </g>
    </g>
    <g id="line2d_16">
     <path d="M 117.742812 35.956875 
L 123.742812 35.956875 
L 129.742813 35.956875 
" style="fill: none; stroke-dasharray: 3.7,1.6; stroke-dashoffset: 0; stroke: #ff7f0e"/>
    </g>
    <g id="text_9">
     <!-- $\tau_1$, $\gamma = 0.98$ -->
     <g transform="translate(134.542812 38.056875)scale(0.06 -0.06)">
      <use xlink:href="#DejaVuSans-Oblique-3c4" transform="translate(0 0.78125)"/>
      <use xlink:href="#DejaVuSans-31" transform="translate(60.205078 -15.625)scale(0.7)"/>
      <use xlink:href="#DejaVuSans-2c" transform="translate(107.475586 0.78125)"/>
      <use xlink:href="#DejaVuSans-20" transform="translate(139.262695 0.78125)"/>
      <use xlink:href="#DejaVuSans-Oblique-3b3" transform="translate(171.049805 0.78125)"/>
      <use xlink:href="#DejaVuSans-3d" transform="translate(249.711914 0.78125)"/>
      <use xlink:href="#DejaVuSans-30" transform="translate(352.983398 0.78125)"/>
      <use xlink:href="#DejaVuSans-2e" transform="translate(416.606445 0.78125)"/>
      <use xlink:href="#DejaVuSans-39" transform="translate(448.393555 0.78125)"/>
      <use xlink:href="#DejaVuSans-38" transform="translate(512.016602 0.78125)"/>
     </g>
    </g>
   </g>
  </g>
  <g id="axes_2">
   <g id="patch_8">
    <path d="M 231.600994 94.87875 
L 383.782812 94.87875 
L 383.782812 19.27875 
L 231.600994 19.27875 
z
" style="fill: #ffffff"/>
   </g>
   <g id="matplotlib.axis_3">
    <g id="xtick_6">
     <g id="line2d_17">
      <g>
       <use xlink:href="#m3fa8d90605" x="231.600994" y="94.87875" style="stroke: #000000; stroke-width: 0.8"/>
      </g>
     </g>
    </g>
    <g id="xtick_7">
     <g id="line2d_18">
      <g>
       <use xlink:href="#m3fa8d90605" x="269.646449" y="94.87875" style="stroke: #000000; stroke-width: 0.8"/>
      </g>
     </g>
    </g>
    <g id="xtick_8">
     <g id="line2d_19">
      <g>
       <use xlink:href="#m3fa8d90605" x="307.691903" y="94.87875" style="stroke: #000000; stroke-width: 0.8"/>
      </g>
     </g>
    </g>
    <g id="xtick_9">
     <g id="line2d_20">
      <g>
       <use xlink:href="#m3fa8d90605" x="345.737358" y="94.87875" style="stroke: #000000; stroke-width: 0.8"/>
      </g>
     </g>
    </g>
    <g id="xtick_10">
     <g id="line2d_21">
      <g>
       <use xlink:href="#m3fa8d90605" x="383.782812" y="94.87875" style="stroke: #000000; stroke-width: 0.8"/>
      </g>
     </g>
    </g>
   </g>
   <g id="matplotlib.axis_4">
    <g id="ytick_4">
     <g id="line2d_22">
      <g>
       <use xlink:href="#mc2d2e6262b" x="231.600994" y="75.558324" style="stroke: #000000; stroke-width: 0.8"/>
      </g>
     </g>
    </g>
    <g id="ytick_5">
     <g id="line2d_23">
      <g>
       <use xlink:href="#mc2d2e6262b" x="231.600994" y="49.069864" style="stroke: #000000; stroke-width: 0.8"/>
      </g>
     </g>
    </g>
    <g id="ytick_6">
     <g id="line2d_24">
      <g>
       <use xlink:href="#mc2d2e6262b" x="231.600994" y="22.581404" style="stroke: #000000; stroke-width: 0.8"/>
      </g>
     </g>
    </g>
   </g>
   <g id="line2d_25">
    <path d="M 231.600994 66.242205 
L 232.742358 66.267115 
L 233.503267 66.108456 
L 234.264176 65.692302 
L 235.025085 65.126779 
L 235.785994 64.354953 
L 236.546903 63.953765 
L 237.307812 63.870689 
L 238.829631 64.102941 
L 239.970994 64.340748 
L 241.492812 64.297785 
L 242.253722 64.080995 
L 244.155994 62.948719 
L 245.677812 62.438889 
L 249.101903 60.669959 
L 250.243267 59.95994 
L 251.384631 59.658893 
L 253.667358 59.28846 
L 254.808722 58.860058 
L 256.33054 57.770921 
L 257.091449 57.172466 
L 258.232812 56.856272 
L 259.374176 56.842756 
L 260.51554 56.701348 
L 261.276449 56.617479 
L 262.037358 56.305292 
L 262.798267 55.838787 
L 263.939631 54.898302 
L 264.70054 54.616849 
L 265.461449 54.543534 
L 269.265994 54.778308 
L 270.026903 54.590083 
L 270.407358 54.461375 
L 271.168267 54.009404 
L 271.929176 53.72821 
L 272.690085 53.621399 
L 276.494631 53.628465 
L 277.25554 53.436042 
L 278.777358 52.834982 
L 279.918722 52.803225 
L 281.44054 52.952799 
L 284.103722 53.123193 
L 286.005994 52.709341 
L 287.147358 53.026273 
L 289.430085 53.61713 
L 290.190994 53.561212 
L 292.093267 52.819057 
L 292.854176 52.999182 
L 293.615085 53.371195 
L 294.756449 53.949037 
L 295.517358 54.118387 
L 296.278267 54.105513 
L 297.419631 53.920267 
L 299.321903 53.464495 
L 301.604631 53.523498 
L 302.745994 53.152385 
L 303.887358 52.666863 
L 305.789631 51.653345 
L 306.930994 51.573762 
L 308.452812 51.692449 
L 310.355085 51.893342 
L 311.876903 51.925182 
L 312.637812 51.742737 
L 314.540085 50.858373 
L 316.061903 50.294109 
L 317.203267 49.630644 
L 318.344631 48.638049 
L 319.10554 48.014378 
L 319.866449 47.702639 
L 320.627358 47.607016 
L 323.670994 47.736696 
L 324.431903 47.537374 
L 325.192812 47.07887 
L 326.334176 46.140738 
L 326.714631 45.916395 
L 327.47554 45.780944 
L 328.997358 45.721482 
L 330.519176 45.730056 
L 331.66054 45.439709 
L 332.801903 44.584156 
L 333.562812 43.95571 
L 334.323722 43.577796 
L 335.465085 43.375767 
L 339.650085 43.155692 
L 340.410994 42.840579 
L 341.552358 42.088537 
L 346.117812 39.759253 
L 347.639631 38.609817 
L 348.780994 38.101265 
L 351.444176 37.423078 
L 353.346449 36.32256 
L 354.868267 35.17031 
L 357.150994 34.032898 
L 360.575085 32.674055 
L 362.477358 31.340658 
L 364.379631 30.446239 
L 367.042812 29.354778 
L 367.803722 28.881687 
L 368.564631 28.322387 
L 369.705994 27.741288 
L 373.130085 26.766041 
L 374.271449 25.932664 
L 375.032358 25.28522 
L 375.793267 24.886614 
L 376.554176 24.677205 
L 377.69554 24.614341 
L 379.978267 24.466585 
L 380.739176 24.246251 
L 381.88054 23.559224 
L 382.641449 23.023358 
L 383.402358 22.715114 
L 383.402358 22.715114 
" clip-path="url(#pde247f50fd)" style="fill: none; stroke: #1f77b4; stroke-linecap: square"/>
   </g>
   <g id="line2d_26">
    <path d="M 231.600994 47.101497 
L 232.742358 47.295543 
L 233.503267 47.253407 
L 234.264176 46.951237 
L 235.025085 46.493331 
L 235.785994 45.818218 
L 236.546903 45.507329 
L 237.307812 45.515035 
L 238.449176 45.810118 
L 240.351449 46.421277 
L 241.492812 46.550897 
L 242.253722 46.459453 
L 244.155994 45.62095 
L 245.677812 45.338828 
L 249.101903 44.038774 
L 250.243267 43.46427 
L 251.384631 43.293564 
L 253.667358 43.191864 
L 254.808722 42.896674 
L 256.33054 41.963342 
L 257.091449 41.42863 
L 258.232812 41.201963 
L 259.374176 41.281281 
L 260.51554 41.234613 
L 261.276449 41.2154 
L 262.037358 40.965305 
L 262.798267 40.554614 
L 263.939631 39.677604 
L 264.70054 39.430094 
L 265.461449 39.389562 
L 269.265994 39.831885 
L 270.026903 39.688613 
L 270.407358 39.5811 
L 271.168267 39.165373 
L 271.929176 38.915412 
L 272.690085 38.838017 
L 276.875085 38.948762 
L 277.635994 38.698191 
L 278.396903 38.387649 
L 279.157812 38.278963 
L 280.299176 38.33768 
L 281.820994 38.569181 
L 283.342812 38.844727 
L 284.484176 38.736764 
L 285.245085 38.509174 
L 286.386449 38.579017 
L 287.908267 39.177378 
L 288.669176 39.483689 
L 289.81054 39.667203 
L 290.571449 39.497007 
L 291.712812 39.06656 
L 292.093267 39.020939 
L 292.854176 39.257997 
L 293.615085 39.695941 
L 294.756449 40.39375 
L 295.517358 40.65375 
L 296.278267 40.736007 
L 297.419631 40.696819 
L 299.321903 40.484146 
L 301.604631 40.866027 
L 302.745994 40.663378 
L 303.887358 40.342985 
L 305.789631 39.584893 
L 306.930994 39.657241 
L 308.452812 39.995544 
L 310.355085 40.506983 
L 311.876903 40.815608 
L 312.637812 40.777374 
L 314.540085 40.248122 
L 316.061903 39.966613 
L 317.203267 39.510595 
L 317.964176 39.035862 
L 319.10554 38.205091 
L 319.866449 38.008054 
L 320.627358 38.028976 
L 324.051449 38.706483 
L 324.812358 38.524291 
L 326.714631 37.408105 
L 327.47554 37.400561 
L 328.997358 37.610433 
L 330.519176 37.911762 
L 331.66054 37.850746 
L 332.801903 37.218304 
L 333.562812 36.72964 
L 334.323722 36.488307 
L 335.465085 36.494551 
L 340.03054 37.11248 
L 340.791449 36.810344 
L 341.552358 36.49691 
L 346.117812 35.148278 
L 347.639631 34.30293 
L 348.780994 34.015085 
L 351.444176 33.868016 
L 353.346449 33.145578 
L 354.868267 32.273005 
L 357.150994 31.53036 
L 360.575085 30.74534 
L 362.477358 29.69926 
L 364.379631 29.06765 
L 367.042812 28.31928 
L 367.803722 27.936224 
L 368.564631 27.45885 
L 369.705994 26.990464 
L 373.130085 26.331133 
L 373.890994 25.849978 
L 375.793267 24.619581 
L 376.554176 24.442998 
L 377.69554 24.428968 
L 379.978267 24.384445 
L 380.739176 24.196469 
L 381.88054 23.544543 
L 382.641449 23.019455 
L 383.402358 22.715114 
L 383.402358 22.715114 
" clip-path="url(#pde247f50fd)" style="fill: none; stroke-dasharray: 3.7,1.6; stroke-dashoffset: 0; stroke: #1f77b4"/>
   </g>
   <g id="line2d_27">
    <path d="M 231.600994 68.96203 
L 233.503267 69.208542 
L 234.264176 69.019629 
L 235.40554 68.563947 
L 236.166449 68.10236 
L 236.927358 67.907085 
L 238.068722 68.021529 
L 241.112358 68.451029 
L 241.873267 68.463255 
L 242.634176 68.218825 
L 243.395085 67.857953 
L 244.536449 67.70381 
L 247.580085 67.426049 
L 248.340994 67.035333 
L 249.862812 65.943755 
L 250.623722 65.842636 
L 251.384631 66.034179 
L 252.525994 66.649547 
L 253.667358 67.36021 
L 254.428267 67.670902 
L 255.189176 67.777074 
L 255.950085 67.646466 
L 256.710994 67.26041 
L 257.471903 66.885442 
L 258.232812 66.860791 
L 261.656903 67.070459 
L 262.798267 66.897534 
L 264.70054 66.256076 
L 265.841903 66.267656 
L 269.646449 66.485775 
L 270.407358 66.270066 
L 271.168267 65.904141 
L 271.929176 65.776897 
L 273.450994 65.929913 
L 274.592358 65.962255 
L 276.114176 65.594499 
L 276.875085 65.241213 
L 277.635994 64.80916 
L 278.396903 64.651818 
L 279.157812 64.793665 
L 279.918722 65.118212 
L 281.44054 65.770546 
L 282.581903 65.954472 
L 283.342812 65.913059 
L 284.103722 65.710752 
L 285.245085 65.225982 
L 286.005994 65.185767 
L 287.908267 65.365159 
L 288.669176 65.243975 
L 292.093267 64.194639 
L 293.99554 63.896894 
L 295.517358 63.390792 
L 297.039176 62.614314 
L 298.560994 61.636425 
L 299.321903 61.430578 
L 300.082812 61.382647 
L 300.843722 61.408001 
L 304.267812 60.959896 
L 304.648267 60.804116 
L 305.409176 60.307006 
L 306.170085 60.055089 
L 307.691903 59.799313 
L 309.594176 59.46476 
L 310.73554 59.104028 
L 313.018267 58.099137 
L 315.300994 57.970178 
L 318.725085 57.006418 
L 319.485994 56.684954 
L 320.627358 56.509384 
L 321.768722 56.285718 
L 323.670994 55.612399 
L 324.812358 55.089576 
L 325.953722 54.433757 
L 327.095085 54.270978 
L 328.236449 54.47682 
L 328.997358 54.651307 
L 330.519176 54.82782 
L 331.280085 54.628704 
L 332.421449 53.906385 
L 333.182358 53.464142 
L 333.943267 53.332694 
L 335.084631 53.576211 
L 336.225994 54.004115 
L 337.367358 54.210597 
L 338.508722 54.137513 
L 339.269631 53.866471 
L 340.410994 53.291469 
L 341.171903 53.274143 
L 342.693722 53.471913 
L 343.454631 53.526868 
L 344.976449 53.265742 
L 346.498267 52.543501 
L 347.259176 52.100271 
L 348.40054 51.909832 
L 349.541903 51.852243 
L 350.302812 51.589108 
L 351.063722 51.093274 
L 351.824631 50.438168 
L 353.726903 48.236735 
L 354.487812 47.876065 
L 355.629176 47.746061 
L 357.150994 47.648566 
L 358.672812 47.253877 
L 359.433722 46.834981 
L 360.194631 46.227378 
L 361.716449 44.760652 
L 362.857812 44.016866 
L 364.379631 43.014306 
L 365.520994 42.125887 
L 366.662358 41.034715 
L 368.564631 38.757794 
L 373.130085 35.220241 
L 374.271449 33.765229 
L 375.412812 32.431246 
L 376.554176 31.462554 
L 377.69554 30.524469 
L 378.456449 29.709919 
L 379.217358 28.76569 
L 380.739176 26.419964 
L 381.500085 25.212015 
L 382.641449 23.866267 
L 383.402358 23.025153 
L 383.402358 23.025153 
" clip-path="url(#pde247f50fd)" style="fill: none; stroke: #ff7f0e; stroke-linecap: square"/>
   </g>
   <g id="line2d_28">
    <path d="M 231.600994 46.632699 
L 233.503267 46.979079 
L 234.264176 46.832258 
L 235.40554 46.432264 
L 236.166449 45.99853 
L 236.927358 45.827029 
L 238.068722 45.97966 
L 241.492812 46.596923 
L 242.253722 46.558039 
L 243.77554 46.013106 
L 244.916903 45.969262 
L 247.199631 45.915869 
L 247.96054 45.683309 
L 248.721449 45.203162 
L 249.862812 44.406289 
L 250.623722 44.309163 
L 251.384631 44.507197 
L 252.14554 44.908015 
L 254.428267 46.26053 
L 255.189176 46.415439 
L 255.950085 46.334076 
L 256.710994 45.99284 
L 257.471903 45.655811 
L 258.232812 45.668318 
L 262.037358 46.062935 
L 263.178722 45.87832 
L 264.70054 45.456059 
L 265.841903 45.532242 
L 269.646449 46.018822 
L 270.407358 45.861155 
L 271.168267 45.548587 
L 271.929176 45.472893 
L 273.07054 45.632032 
L 274.211903 45.868821 
L 275.353267 45.792182 
L 276.875085 45.326851 
L 277.635994 44.94629 
L 278.396903 44.837548 
L 279.157812 45.031559 
L 279.918722 45.416166 
L 281.44054 46.217689 
L 282.962358 46.594114 
L 284.103722 46.476457 
L 285.245085 46.126446 
L 286.005994 46.176895 
L 287.908267 46.606752 
L 288.669176 46.592448 
L 290.190994 46.381381 
L 291.332358 46.166074 
L 292.093267 46.022602 
L 293.99554 45.996979 
L 295.517358 45.710714 
L 297.039176 45.14352 
L 298.560994 44.352605 
L 299.321903 44.235734 
L 300.082812 44.278775 
L 300.843722 44.399469 
L 304.267812 44.414618 
L 304.648267 44.311207 
L 305.409176 43.91401 
L 306.170085 43.759744 
L 307.691903 43.702851 
L 309.594176 43.625745 
L 310.73554 43.420758 
L 311.876903 42.951802 
L 312.637812 42.757561 
L 313.398722 42.746366 
L 314.92054 42.891992 
L 316.442358 42.792503 
L 317.583722 42.636114 
L 318.725085 42.388939 
L 319.485994 42.169067 
L 320.627358 42.147835 
L 321.768722 42.082728 
L 323.670994 41.669255 
L 324.812358 41.296581 
L 325.953722 40.780142 
L 327.095085 40.755076 
L 328.236449 41.110499 
L 329.377812 41.511561 
L 330.899631 41.791143 
L 331.66054 41.594794 
L 332.421449 41.194918 
L 333.182358 40.866868 
L 333.943267 40.850473 
L 335.084631 41.27965 
L 336.225994 41.916764 
L 337.367358 42.354537 
L 338.889176 42.502318 
L 340.791449 42.1416 
L 342.313267 42.65186 
L 343.454631 43.073502 
L 344.976449 43.229473 
L 346.498267 42.936065 
L 346.878722 42.754253 
L 347.639631 42.720078 
L 348.40054 42.847024 
L 349.541903 43.138641 
L 350.302812 43.11585 
L 351.063722 42.861426 
L 351.824631 42.445123 
L 352.965994 41.356668 
L 353.726903 40.802416 
L 354.487812 40.658318 
L 355.629176 40.86417 
L 357.150994 41.244386 
L 358.672812 41.35603 
L 359.433722 41.196378 
L 360.194631 40.847234 
L 361.716449 39.882381 
L 362.857812 39.51067 
L 364.379631 39.005625 
L 365.14054 38.651868 
L 365.901449 38.282563 
L 367.042812 37.388843 
L 367.803722 36.604077 
L 368.564631 36.03655 
L 373.130085 33.726919 
L 373.890994 32.980845 
L 375.032358 31.74223 
L 376.554176 30.711474 
L 377.69554 29.985121 
L 378.456449 29.30005 
L 379.217358 28.471712 
L 380.358722 26.880806 
L 381.88054 24.683622 
L 383.402358 23.025153 
L 383.402358 23.025153 
" clip-path="url(#pde247f50fd)" style="fill: none; stroke-dasharray: 3.7,1.6; stroke-dashoffset: 0; stroke: #ff7f0e"/>
   </g>
   <g id="patch_9">
    <path d="M 231.600994 94.87875 
L 231.600994 19.27875 
" style="fill: none; stroke: #000000; stroke-width: 0.8; stroke-linejoin: miter; stroke-linecap: square"/>
   </g>
   <g id="patch_10">
    <path d="M 383.782812 94.87875 
L 383.782812 19.27875 
" style="fill: none; stroke: #000000; stroke-width: 0.8; stroke-linejoin: miter; stroke-linecap: square"/>
   </g>
   <g id="patch_11">
    <path d="M 231.600994 94.87875 
L 383.782812 94.87875 
" style="fill: none; stroke: #000000; stroke-width: 0.8; stroke-linejoin: miter; stroke-linecap: square"/>
   </g>
   <g id="patch_12">
    <path d="M 231.600994 19.27875 
L 383.782812 19.27875 
" style="fill: none; stroke: #000000; stroke-width: 0.8; stroke-linejoin: miter; stroke-linecap: square"/>
   </g>
   <g id="text_10">
    <!-- eps. 4 -->
    <g transform="translate(295.520028 13.27875)scale(0.08 -0.08)">
     <defs>
      <path id="DejaVuSans-34" d="M 2419 4116 
L 825 1625 
L 2419 1625 
L 2419 4116 
z
M 2253 4666 
L 3047 4666 
L 3047 1625 
L 3713 1625 
L 3713 1100 
L 3047 1100 
L 3047 0 
L 2419 0 
L 2419 1100 
L 313 1100 
L 313 1709 
L 2253 4666 
z
" transform="scale(0.015625)"/>
     </defs>
     <use xlink:href="#DejaVuSans-65"/>
     <use xlink:href="#DejaVuSans-70" x="61.523438"/>
     <use xlink:href="#DejaVuSans-73" x="125"/>
     <use xlink:href="#DejaVuSans-2e" x="177.099609"/>
     <use xlink:href="#DejaVuSans-20" x="208.886719"/>
     <use xlink:href="#DejaVuSans-34" x="240.673828"/>
    </g>
   </g>
  </g>
  <g id="axes_3">
   <g id="patch_13">
    <path d="M 48.982813 185.59875 
L 201.164631 185.59875 
L 201.164631 109.99875 
L 48.982813 109.99875 
z
" style="fill: #ffffff"/>
   </g>
   <g id="matplotlib.axis_5">
    <g id="xtick_11">
     <g id="line2d_29">
      <g>
       <use xlink:href="#m3fa8d90605" x="48.982813" y="185.59875" style="stroke: #000000; stroke-width: 0.8"/>
      </g>
     </g>
     <g id="text_11">
      <!-- 0 -->
      <g transform="translate(45.801563 200.197188)scale(0.1 -0.1)">
       <use xlink:href="#DejaVuSans-30"/>
      </g>
     </g>
    </g>
    <g id="xtick_12">
     <g id="line2d_30">
      <g>
       <use xlink:href="#m3fa8d90605" x="87.028267" y="185.59875" style="stroke: #000000; stroke-width: 0.8"/>
      </g>
     </g>
     <g id="text_12">
      <!-- 100 -->
      <g transform="translate(77.484517 200.197188)scale(0.1 -0.1)">
       <use xlink:href="#DejaVuSans-31"/>
       <use xlink:href="#DejaVuSans-30" x="63.623047"/>
       <use xlink:href="#DejaVuSans-30" x="127.246094"/>
      </g>
     </g>
    </g>
    <g id="xtick_13">
     <g id="line2d_31">
      <g>
       <use xlink:href="#m3fa8d90605" x="125.073722" y="185.59875" style="stroke: #000000; stroke-width: 0.8"/>
      </g>
     </g>
     <g id="text_13">
      <!-- 200 -->
      <g transform="translate(115.529972 200.197188)scale(0.1 -0.1)">
       <defs>
        <path id="DejaVuSans-32" d="M 1228 531 
L 3431 531 
L 3431 0 
L 469 0 
L 469 531 
Q 828 903 1448 1529 
Q 2069 2156 2228 2338 
Q 2531 2678 2651 2914 
Q 2772 3150 2772 3378 
Q 2772 3750 2511 3984 
Q 2250 4219 1831 4219 
Q 1534 4219 1204 4116 
Q 875 4013 500 3803 
L 500 4441 
Q 881 4594 1212 4672 
Q 1544 4750 1819 4750 
Q 2544 4750 2975 4387 
Q 3406 4025 3406 3419 
Q 3406 3131 3298 2873 
Q 3191 2616 2906 2266 
Q 2828 2175 2409 1742 
Q 1991 1309 1228 531 
z
" transform="scale(0.015625)"/>
       </defs>
       <use xlink:href="#DejaVuSans-32"/>
       <use xlink:href="#DejaVuSans-30" x="63.623047"/>
       <use xlink:href="#DejaVuSans-30" x="127.246094"/>
      </g>
     </g>
    </g>
    <g id="xtick_14">
     <g id="line2d_32">
      <g>
       <use xlink:href="#m3fa8d90605" x="163.119176" y="185.59875" style="stroke: #000000; stroke-width: 0.8"/>
      </g>
     </g>
     <g id="text_14">
      <!-- 300 -->
      <g transform="translate(153.575426 200.197188)scale(0.1 -0.1)">
       <defs>
        <path id="DejaVuSans-33" d="M 2597 2516 
Q 3050 2419 3304 2112 
Q 3559 1806 3559 1356 
Q 3559 666 3084 287 
Q 2609 -91 1734 -91 
Q 1441 -91 1130 -33 
Q 819 25 488 141 
L 488 750 
Q 750 597 1062 519 
Q 1375 441 1716 441 
Q 2309 441 2620 675 
Q 2931 909 2931 1356 
Q 2931 1769 2642 2001 
Q 2353 2234 1838 2234 
L 1294 2234 
L 1294 2753 
L 1863 2753 
Q 2328 2753 2575 2939 
Q 2822 3125 2822 3475 
Q 2822 3834 2567 4026 
Q 2313 4219 1838 4219 
Q 1578 4219 1281 4162 
Q 984 4106 628 3988 
L 628 4550 
Q 988 4650 1302 4700 
Q 1616 4750 1894 4750 
Q 2613 4750 3031 4423 
Q 3450 4097 3450 3541 
Q 3450 3153 3228 2886 
Q 3006 2619 2597 2516 
z
" transform="scale(0.015625)"/>
       </defs>
       <use xlink:href="#DejaVuSans-33"/>
       <use xlink:href="#DejaVuSans-30" x="63.623047"/>
       <use xlink:href="#DejaVuSans-30" x="127.246094"/>
      </g>
     </g>
    </g>
    <g id="xtick_15">
     <g id="line2d_33">
      <g>
       <use xlink:href="#m3fa8d90605" x="201.164631" y="185.59875" style="stroke: #000000; stroke-width: 0.8"/>
      </g>
     </g>
     <g id="text_15">
      <!-- 400 -->
      <g transform="translate(191.620881 200.197188)scale(0.1 -0.1)">
       <use xlink:href="#DejaVuSans-34"/>
       <use xlink:href="#DejaVuSans-30" x="63.623047"/>
       <use xlink:href="#DejaVuSans-30" x="127.246094"/>
      </g>
     </g>
    </g>
    <g id="text_16">
     <!-- interaction -->
     <g transform="translate(98.033097 213.875313)scale(0.1 -0.1)">
      <defs>
       <path id="DejaVuSans-69" d="M 603 3500 
L 1178 3500 
L 1178 0 
L 603 0 
L 603 3500 
z
M 603 4863 
L 1178 4863 
L 1178 4134 
L 603 4134 
L 603 4863 
z
" transform="scale(0.015625)"/>
       <path id="DejaVuSans-6e" d="M 3513 2113 
L 3513 0 
L 2938 0 
L 2938 2094 
Q 2938 2591 2744 2837 
Q 2550 3084 2163 3084 
Q 1697 3084 1428 2787 
Q 1159 2491 1159 1978 
L 1159 0 
L 581 0 
L 581 3500 
L 1159 3500 
L 1159 2956 
Q 1366 3272 1645 3428 
Q 1925 3584 2291 3584 
Q 2894 3584 3203 3211 
Q 3513 2838 3513 2113 
z
" transform="scale(0.015625)"/>
       <path id="DejaVuSans-74" d="M 1172 4494 
L 1172 3500 
L 2356 3500 
L 2356 3053 
L 1172 3053 
L 1172 1153 
Q 1172 725 1289 603 
Q 1406 481 1766 481 
L 2356 481 
L 2356 0 
L 1766 0 
Q 1100 0 847 248 
Q 594 497 594 1153 
L 594 3053 
L 172 3053 
L 172 3500 
L 594 3500 
L 594 4494 
L 1172 4494 
z
" transform="scale(0.015625)"/>
       <path id="DejaVuSans-72" d="M 2631 2963 
Q 2534 3019 2420 3045 
Q 2306 3072 2169 3072 
Q 1681 3072 1420 2755 
Q 1159 2438 1159 1844 
L 1159 0 
L 581 0 
L 581 3500 
L 1159 3500 
L 1159 2956 
Q 1341 3275 1631 3429 
Q 1922 3584 2338 3584 
Q 2397 3584 2469 3576 
Q 2541 3569 2628 3553 
L 2631 2963 
z
" transform="scale(0.015625)"/>
       <path id="DejaVuSans-61" d="M 2194 1759 
Q 1497 1759 1228 1600 
Q 959 1441 959 1056 
Q 959 750 1161 570 
Q 1363 391 1709 391 
Q 2188 391 2477 730 
Q 2766 1069 2766 1631 
L 2766 1759 
L 2194 1759 
z
M 3341 1997 
L 3341 0 
L 2766 0 
L 2766 531 
Q 2569 213 2275 61 
Q 1981 -91 1556 -91 
Q 1019 -91 701 211 
Q 384 513 384 1019 
Q 384 1609 779 1909 
Q 1175 2209 1959 2209 
L 2766 2209 
L 2766 2266 
Q 2766 2663 2505 2880 
Q 2244 3097 1772 3097 
Q 1472 3097 1187 3025 
Q 903 2953 641 2809 
L 641 3341 
Q 956 3463 1253 3523 
Q 1550 3584 1831 3584 
Q 2591 3584 2966 3190 
Q 3341 2797 3341 1997 
z
" transform="scale(0.015625)"/>
       <path id="DejaVuSans-63" d="M 3122 3366 
L 3122 2828 
Q 2878 2963 2633 3030 
Q 2388 3097 2138 3097 
Q 1578 3097 1268 2742 
Q 959 2388 959 1747 
Q 959 1106 1268 751 
Q 1578 397 2138 397 
Q 2388 397 2633 464 
Q 2878 531 3122 666 
L 3122 134 
Q 2881 22 2623 -34 
Q 2366 -91 2075 -91 
Q 1284 -91 818 406 
Q 353 903 353 1747 
Q 353 2603 823 3093 
Q 1294 3584 2113 3584 
Q 2378 3584 2631 3529 
Q 2884 3475 3122 3366 
z
" transform="scale(0.015625)"/>
       <path id="DejaVuSans-6f" d="M 1959 3097 
Q 1497 3097 1228 2736 
Q 959 2375 959 1747 
Q 959 1119 1226 758 
Q 1494 397 1959 397 
Q 2419 397 2687 759 
Q 2956 1122 2956 1747 
Q 2956 2369 2687 2733 
Q 2419 3097 1959 3097 
z
M 1959 3584 
Q 2709 3584 3137 3096 
Q 3566 2609 3566 1747 
Q 3566 888 3137 398 
Q 2709 -91 1959 -91 
Q 1206 -91 779 398 
Q 353 888 353 1747 
Q 353 2609 779 3096 
Q 1206 3584 1959 3584 
z
" transform="scale(0.015625)"/>
      </defs>
      <use xlink:href="#DejaVuSans-69"/>
      <use xlink:href="#DejaVuSans-6e" x="27.783203"/>
      <use xlink:href="#DejaVuSans-74" x="91.162109"/>
      <use xlink:href="#DejaVuSans-65" x="130.371094"/>
      <use xlink:href="#DejaVuSans-72" x="191.894531"/>
      <use xlink:href="#DejaVuSans-61" x="233.007812"/>
      <use xlink:href="#DejaVuSans-63" x="294.287109"/>
      <use xlink:href="#DejaVuSans-74" x="349.267578"/>
      <use xlink:href="#DejaVuSans-69" x="388.476562"/>
      <use xlink:href="#DejaVuSans-6f" x="416.259766"/>
      <use xlink:href="#DejaVuSans-6e" x="477.441406"/>
     </g>
    </g>
   </g>
   <g id="matplotlib.axis_6">
    <g id="ytick_7">
     <g id="line2d_34">
      <g>
       <use xlink:href="#mc2d2e6262b" x="48.982813" y="166.278324" style="stroke: #000000; stroke-width: 0.8"/>
      </g>
     </g>
     <g id="text_17">
      <!-- −10 -->
      <g transform="translate(20.878125 170.077543)scale(0.1 -0.1)">
       <use xlink:href="#DejaVuSans-2212"/>
       <use xlink:href="#DejaVuSans-31" x="83.789062"/>
       <use xlink:href="#DejaVuSans-30" x="147.412109"/>
      </g>
     </g>
    </g>
    <g id="ytick_8">
     <g id="line2d_35">
      <g>
       <use xlink:href="#mc2d2e6262b" x="48.982813" y="139.789864" style="stroke: #000000; stroke-width: 0.8"/>
      </g>
     </g>
     <g id="text_18">
      <!-- −5 -->
      <g transform="translate(27.240625 143.589083)scale(0.1 -0.1)">
       <use xlink:href="#DejaVuSans-2212"/>
       <use xlink:href="#DejaVuSans-35" x="83.789062"/>
      </g>
     </g>
    </g>
    <g id="ytick_9">
     <g id="line2d_36">
      <g>
       <use xlink:href="#mc2d2e6262b" x="48.982813" y="113.301404" style="stroke: #000000; stroke-width: 0.8"/>
      </g>
     </g>
     <g id="text_19">
      <!-- 0 -->
      <g transform="translate(35.620312 117.100623)scale(0.1 -0.1)">
       <use xlink:href="#DejaVuSans-30"/>
      </g>
     </g>
    </g>
    <g id="text_20">
     <!-- $G$ -->
     <g transform="translate(14.798438 151.69875)rotate(-90)scale(0.1 -0.1)">
      <use xlink:href="#DejaVuSans-Oblique-47" transform="translate(0 0.78125)"/>
     </g>
    </g>
   </g>
   <g id="line2d_37">
    <path d="M 48.982813 164.24355 
L 50.124176 164.492426 
L 50.885085 164.509341 
L 51.645994 164.292705 
L 52.406903 163.955379 
L 53.167812 163.380303 
L 53.928722 163.142632 
L 54.689631 163.284723 
L 55.45054 163.568569 
L 56.591903 163.921356 
L 58.113722 163.918406 
L 59.255085 163.650734 
L 60.015994 163.383857 
L 60.776903 163.07723 
L 61.537813 163.053161 
L 62.298722 163.162524 
L 64.200994 163.653402 
L 64.961903 163.652455 
L 65.722813 163.377442 
L 66.483722 162.870148 
L 67.244631 162.287204 
L 68.00554 162.013535 
L 69.146903 162.223493 
L 70.668722 162.460763 
L 71.429631 162.45061 
L 72.951449 161.918827 
L 73.712358 161.539724 
L 74.473267 161.198249 
L 75.995085 161.105787 
L 77.897358 161.057085 
L 81.701903 160.031562 
L 84.74554 159.977616 
L 86.267358 159.659966 
L 87.028267 159.326624 
L 87.789176 158.931846 
L 88.550085 158.77641 
L 89.310994 158.85253 
L 91.213267 158.984943 
L 92.354631 158.722967 
L 93.11554 158.530932 
L 93.876449 158.123204 
L 94.256903 157.891085 
L 95.017812 157.769378 
L 95.778722 157.891327 
L 96.920085 158.238447 
L 98.441903 158.630359 
L 99.202812 158.728386 
L 100.344176 158.576906 
L 102.246449 157.943972 
L 105.290085 157.840777 
L 106.050994 157.466231 
L 107.192358 156.66424 
L 107.953267 156.024149 
L 108.333722 155.842929 
L 109.094631 155.793668 
L 109.85554 155.956398 
L 111.377358 156.516423 
L 112.138267 156.536558 
L 112.899176 156.239773 
L 113.660085 155.709661 
L 115.942812 154.013607 
L 117.084176 153.814321 
L 117.845085 153.575899 
L 118.605994 153.214131 
L 120.127812 151.823648 
L 121.269176 150.610733 
L 122.030085 149.854979 
L 122.790994 149.358758 
L 124.312812 148.535953 
L 125.454176 147.547306 
L 126.975994 145.657759 
L 128.878267 143.030977 
L 129.639176 142.487903 
L 132.682812 140.839992 
L 135.345994 138.902871 
L 136.867812 137.373838 
L 141.433267 132.926017 
L 142.574631 131.580835 
L 144.096449 130.405476 
L 145.998722 129.484745 
L 147.140085 128.85965 
L 147.900994 128.401029 
L 148.661903 127.794052 
L 150.183722 126.456381 
L 151.325085 125.890123 
L 152.466449 125.532528 
L 153.988267 125.264603 
L 155.129631 125.076174 
L 155.89054 124.805467 
L 156.651449 124.298329 
L 157.412358 123.771955 
L 158.553722 123.278767 
L 159.695085 123.077154 
L 162.358267 122.693083 
L 163.119176 122.45468 
L 165.021449 121.467388 
L 167.304176 120.971991 
L 169.967358 120.540554 
L 170.728267 120.196418 
L 171.869631 119.772579 
L 172.63054 119.663265 
L 175.293722 119.711419 
L 176.054631 119.511922 
L 176.81554 119.183323 
L 177.576449 118.667882 
L 178.337358 118.370108 
L 179.098267 118.346386 
L 180.239631 118.549197 
L 183.663722 119.330853 
L 184.424631 119.232205 
L 186.707358 118.421757 
L 188.229176 118.023028 
L 189.750994 117.346246 
L 192.414176 115.707261 
L 193.175085 115.568091 
L 193.935994 115.519279 
L 197.360085 115.437433 
L 198.120994 115.256368 
L 199.262358 114.612897 
L 200.023267 114.002382 
L 200.784176 113.54277 
L 200.784176 113.54277 
" clip-path="url(#pfc2f0d4240)" style="fill: none; stroke: #1f77b4; stroke-linecap: square"/>
   </g>
   <g id="line2d_38">
    <path d="M 48.982813 139.967516 
L 50.124176 140.296741 
L 50.885085 140.372203 
L 51.645994 140.213155 
L 52.406903 139.929303 
L 53.167812 139.398878 
L 53.928722 139.200615 
L 54.689631 139.384912 
L 55.45054 139.717705 
L 56.591903 140.15853 
L 58.113722 140.286928 
L 59.255085 140.119411 
L 60.015994 139.91651 
L 60.396449 139.72997 
L 61.157358 139.646658 
L 62.298722 139.879259 
L 64.581449 140.624151 
L 65.342358 140.591197 
L 66.103267 140.276441 
L 67.625085 139.394694 
L 68.00554 139.311464 
L 69.146903 139.628404 
L 71.049176 140.07321 
L 71.810085 140.047861 
L 73.331903 139.644827 
L 74.473267 139.192481 
L 75.995085 139.260925 
L 77.897358 139.43137 
L 81.701903 138.851227 
L 84.74554 139.179356 
L 86.267358 139.06863 
L 87.028267 138.837153 
L 87.789176 138.540008 
L 88.550085 138.481924 
L 89.310994 138.659568 
L 91.213267 139.070923 
L 92.354631 138.987025 
L 93.11554 138.914924 
L 93.876449 138.625135 
L 94.256903 138.450092 
L 95.017812 138.44386 
L 95.778722 138.687153 
L 96.920085 139.234317 
L 98.441903 139.929643 
L 99.202812 140.192771 
L 100.344176 140.299608 
L 102.246449 140.107505 
L 105.290085 140.790967 
L 106.050994 140.6262 
L 107.192358 140.135708 
L 107.953267 139.697861 
L 108.333722 139.617549 
L 109.094631 139.775231 
L 109.85554 140.155487 
L 111.757812 141.376362 
L 112.518722 141.496254 
L 113.279631 141.354818 
L 114.801449 140.569866 
L 115.181903 140.35316 
L 115.942812 140.277509 
L 117.464631 140.544136 
L 118.605994 140.457615 
L 119.747358 139.8462 
L 120.888722 139.149075 
L 122.030085 138.358595 
L 122.790994 138.133915 
L 124.312812 137.862569 
L 125.454176 137.287832 
L 126.59554 136.318573 
L 127.736903 135.066697 
L 128.497812 134.163735 
L 129.258722 133.706655 
L 130.019631 133.507035 
L 131.541449 133.235539 
L 132.682812 132.861156 
L 134.96554 131.963902 
L 136.106903 131.142176 
L 141.433267 127.311838 
L 142.574631 126.200378 
L 144.096449 125.30986 
L 145.998722 124.728497 
L 146.759631 124.423675 
L 147.900994 123.965576 
L 148.661903 123.477947 
L 150.183722 122.350186 
L 151.325085 121.926058 
L 152.466449 121.706175 
L 153.988267 121.623705 
L 155.129631 121.577874 
L 155.89054 121.401875 
L 156.651449 120.984281 
L 157.412358 120.539607 
L 158.553722 120.161127 
L 159.314631 120.063971 
L 161.597358 120.049853 
L 163.119176 119.799758 
L 165.021449 118.98286 
L 167.304176 118.673804 
L 169.967358 118.461065 
L 170.728267 118.175683 
L 171.869631 117.831453 
L 172.63054 117.773654 
L 175.293722 118.023257 
L 176.054631 117.88357 
L 176.81554 117.610965 
L 177.576449 117.143794 
L 178.337358 116.888956 
L 179.098267 116.908064 
L 180.239631 117.182279 
L 182.141903 117.880942 
L 183.283267 118.218978 
L 184.424631 118.244619 
L 186.707358 117.655987 
L 188.229176 117.398719 
L 189.750994 116.851971 
L 192.414176 115.369876 
L 193.175085 115.263863 
L 193.935994 115.248149 
L 197.74054 115.284251 
L 198.501449 115.005416 
L 199.262358 114.589748 
L 200.023267 113.995494 
L 200.784176 113.54277 
L 200.784176 113.54277 
" clip-path="url(#pfc2f0d4240)" style="fill: none; stroke-dasharray: 3.7,1.6; stroke-dashoffset: 0; stroke: #1f77b4"/>
   </g>
   <g id="line2d_39">
    <path d="M 48.982813 145.828872 
L 50.885085 145.421512 
L 52.026449 144.781383 
L 52.787358 144.259915 
L 53.928722 143.262604 
L 54.689631 142.868027 
L 56.591903 142.394617 
L 59.63554 141.945988 
L 60.396449 141.473177 
L 61.157358 140.855743 
L 62.298722 140.159872 
L 65.342358 138.43876 
L 66.483722 137.371072 
L 67.244631 136.653438 
L 68.00554 136.278729 
L 68.766449 136.155299 
L 69.527358 136.226088 
L 70.668722 136.570235 
L 72.19054 136.900869 
L 72.951449 136.839412 
L 73.712358 136.595208 
L 75.995085 135.306579 
L 80.940994 134.457654 
L 82.843267 133.425841 
L 83.604176 133.224072 
L 85.506449 133.13848 
L 87.789176 133.154729 
L 88.550085 132.921381 
L 89.691449 132.341286 
L 90.832812 132.043476 
L 94.256903 131.395973 
L 95.017812 131.112726 
L 95.778722 130.695387 
L 96.539631 130.508657 
L 97.30054 130.512683 
L 98.441903 130.6892 
L 100.344176 131.162469 
L 101.865994 131.291163 
L 103.007358 131.130357 
L 104.148722 130.80989 
L 107.572812 130.270983 
L 109.475085 130.021972 
L 114.04054 128.841751 
L 115.181903 128.66586 
L 116.323267 128.31803 
L 117.464631 127.861908 
L 120.127812 127.449547 
L 121.269176 127.370564 
L 122.41054 127.128069 
L 124.312812 126.511818 
L 125.073722 126.376128 
L 126.975994 126.446038 
L 129.258722 126.586507 
L 130.400085 126.286147 
L 131.921903 125.892558 
L 135.726449 125.689805 
L 136.487358 125.624009 
L 137.628722 125.377039 
L 139.530994 124.967185 
L 140.291903 124.851005 
L 143.715994 124.587451 
L 144.476903 124.3253 
L 145.618267 124.220668 
L 149.422812 124.640773 
L 150.183722 124.504194 
L 151.70554 124.107904 
L 152.466449 124.138537 
L 155.129631 125.10164 
L 156.651449 125.62685 
L 157.412358 125.778974 
L 158.553722 125.61708 
L 159.695085 125.504912 
L 164.640994 125.75777 
L 166.543267 125.456012 
L 167.684631 125.40609 
L 169.206449 125.108132 
L 170.347812 124.645407 
L 171.869631 123.775292 
L 173.010994 123.545337 
L 174.913267 123.601629 
L 177.576449 123.676473 
L 178.717812 123.475676 
L 179.478722 123.106952 
L 180.620085 122.586579 
L 182.902812 121.903131 
L 184.424631 121.49167 
L 185.565994 120.964647 
L 187.468267 119.723355 
L 188.990085 119.186338 
L 192.033722 118.389773 
L 195.077358 116.588567 
L 196.979631 115.757587 
L 199.262358 114.636179 
L 200.403722 113.875866 
L 200.784176 113.580791 
L 200.784176 113.580791 
" clip-path="url(#pfc2f0d4240)" style="fill: none; stroke: #ff7f0e; stroke-linecap: square"/>
   </g>
   <g id="line2d_40">
    <path d="M 48.982813 132.942293 
L 50.885085 132.881114 
L 52.026449 132.44818 
L 52.787358 132.059366 
L 53.928722 131.245257 
L 54.689631 130.966405 
L 56.591903 130.783312 
L 59.63554 130.830605 
L 60.396449 130.48292 
L 61.157358 129.983249 
L 62.298722 129.454041 
L 65.342358 128.131288 
L 66.483722 127.183451 
L 67.244631 126.530656 
L 68.00554 126.213944 
L 68.766449 126.146889 
L 69.527358 126.276937 
L 70.668722 126.722253 
L 72.19054 127.212913 
L 72.951449 127.237837 
L 73.712358 127.079478 
L 75.995085 126.012913 
L 80.940994 125.616571 
L 82.843267 124.73399 
L 83.604176 124.585394 
L 85.506449 124.636163 
L 87.789176 124.837659 
L 88.550085 124.667341 
L 89.691449 124.171919 
L 90.832812 123.951525 
L 94.256903 123.527792 
L 95.017812 123.28891 
L 95.778722 122.909336 
L 96.539631 122.756971 
L 97.30054 122.795783 
L 98.441903 123.031085 
L 100.344176 123.62957 
L 101.865994 123.880461 
L 103.007358 123.816065 
L 104.148722 123.588509 
L 107.572812 123.325829 
L 109.475085 123.233659 
L 114.420994 122.3859 
L 116.323267 122.023568 
L 117.464631 121.633321 
L 120.127812 121.359657 
L 121.269176 121.341059 
L 122.41054 121.156968 
L 124.312812 120.619401 
L 125.073722 120.510776 
L 126.59554 120.603737 
L 129.258722 120.900819 
L 130.019631 120.810562 
L 130.78054 120.555954 
L 132.682812 120.271765 
L 133.443722 120.210662 
L 136.867812 120.192703 
L 140.291903 119.580353 
L 143.715994 119.407881 
L 144.476903 119.160485 
L 145.618267 119.075061 
L 149.422812 119.594255 
L 150.183722 119.481515 
L 151.70554 119.12169 
L 152.466449 119.169843 
L 154.749176 120.083711 
L 157.412358 121.080316 
L 158.553722 121.01193 
L 159.695085 120.993828 
L 165.021449 121.732834 
L 165.782358 121.647893 
L 168.065085 121.774362 
L 169.586903 121.582714 
L 170.728267 121.167284 
L 171.869631 120.660266 
L 173.010994 120.557383 
L 174.913267 120.841006 
L 177.576449 121.285251 
L 178.717812 121.255485 
L 179.478722 120.999768 
L 180.620085 120.642844 
L 182.902812 120.279844 
L 184.424631 120.083564 
L 185.565994 119.714169 
L 187.468267 118.706096 
L 188.990085 118.338531 
L 192.033722 117.875736 
L 195.077358 116.337172 
L 196.599176 115.779611 
L 199.262358 114.608345 
L 200.403722 113.873072 
L 200.784176 113.580791 
L 200.784176 113.580791 
" clip-path="url(#pfc2f0d4240)" style="fill: none; stroke-dasharray: 3.7,1.6; stroke-dashoffset: 0; stroke: #ff7f0e"/>
   </g>
   <g id="patch_14">
    <path d="M 48.982813 185.59875 
L 48.982813 109.99875 
" style="fill: none; stroke: #000000; stroke-width: 0.8; stroke-linejoin: miter; stroke-linecap: square"/>
   </g>
   <g id="patch_15">
    <path d="M 201.164631 185.59875 
L 201.164631 109.99875 
" style="fill: none; stroke: #000000; stroke-width: 0.8; stroke-linejoin: miter; stroke-linecap: square"/>
   </g>
   <g id="patch_16">
    <path d="M 48.982813 185.59875 
L 201.164631 185.59875 
" style="fill: none; stroke: #000000; stroke-width: 0.8; stroke-linejoin: miter; stroke-linecap: square"/>
   </g>
   <g id="patch_17">
    <path d="M 48.982813 109.99875 
L 201.164631 109.99875 
" style="fill: none; stroke: #000000; stroke-width: 0.8; stroke-linejoin: miter; stroke-linecap: square"/>
   </g>
   <g id="text_21">
    <!-- eps. 8 -->
    <g transform="translate(112.901847 103.99875)scale(0.08 -0.08)">
     <use xlink:href="#DejaVuSans-65"/>
     <use xlink:href="#DejaVuSans-70" x="61.523438"/>
     <use xlink:href="#DejaVuSans-73" x="125"/>
     <use xlink:href="#DejaVuSans-2e" x="177.099609"/>
     <use xlink:href="#DejaVuSans-20" x="208.886719"/>
     <use xlink:href="#DejaVuSans-38" x="240.673828"/>
    </g>
   </g>
  </g>
  <g id="axes_4">
   <g id="patch_18">
    <path d="M 231.600994 185.59875 
L 383.782812 185.59875 
L 383.782812 109.99875 
L 231.600994 109.99875 
z
" style="fill: #ffffff"/>
   </g>
   <g id="matplotlib.axis_7">
    <g id="xtick_16">
     <g id="line2d_41">
      <g>
       <use xlink:href="#m3fa8d90605" x="231.600994" y="185.59875" style="stroke: #000000; stroke-width: 0.8"/>
      </g>
     </g>
     <g id="text_22">
      <!-- 0 -->
      <g transform="translate(228.419744 200.197188)scale(0.1 -0.1)">
       <use xlink:href="#DejaVuSans-30"/>
      </g>
     </g>
    </g>
    <g id="xtick_17">
     <g id="line2d_42">
      <g>
       <use xlink:href="#m3fa8d90605" x="269.646449" y="185.59875" style="stroke: #000000; stroke-width: 0.8"/>
      </g>
     </g>
     <g id="text_23">
      <!-- 100 -->
      <g transform="translate(260.102699 200.197188)scale(0.1 -0.1)">
       <use xlink:href="#DejaVuSans-31"/>
       <use xlink:href="#DejaVuSans-30" x="63.623047"/>
       <use xlink:href="#DejaVuSans-30" x="127.246094"/>
      </g>
     </g>
    </g>
    <g id="xtick_18">
     <g id="line2d_43">
      <g>
       <use xlink:href="#m3fa8d90605" x="307.691903" y="185.59875" style="stroke: #000000; stroke-width: 0.8"/>
      </g>
     </g>
     <g id="text_24">
      <!-- 200 -->
      <g transform="translate(298.148153 200.197188)scale(0.1 -0.1)">
       <use xlink:href="#DejaVuSans-32"/>
       <use xlink:href="#DejaVuSans-30" x="63.623047"/>
       <use xlink:href="#DejaVuSans-30" x="127.246094"/>
      </g>
     </g>
    </g>
    <g id="xtick_19">
     <g id="line2d_44">
      <g>
       <use xlink:href="#m3fa8d90605" x="345.737358" y="185.59875" style="stroke: #000000; stroke-width: 0.8"/>
      </g>
     </g>
     <g id="text_25">
      <!-- 300 -->
      <g transform="translate(336.193608 200.197188)scale(0.1 -0.1)">
       <use xlink:href="#DejaVuSans-33"/>
       <use xlink:href="#DejaVuSans-30" x="63.623047"/>
       <use xlink:href="#DejaVuSans-30" x="127.246094"/>
      </g>
     </g>
    </g>
    <g id="xtick_20">
     <g id="line2d_45">
      <g>
       <use xlink:href="#m3fa8d90605" x="383.782812" y="185.59875" style="stroke: #000000; stroke-width: 0.8"/>
      </g>
     </g>
     <g id="text_26">
      <!-- 400 -->
      <g transform="translate(374.239062 200.197188)scale(0.1 -0.1)">
       <use xlink:href="#DejaVuSans-34"/>
       <use xlink:href="#DejaVuSans-30" x="63.623047"/>
       <use xlink:href="#DejaVuSans-30" x="127.246094"/>
      </g>
     </g>
    </g>
    <g id="text_27">
     <!-- interaction -->
     <g transform="translate(280.651278 213.875313)scale(0.1 -0.1)">
      <use xlink:href="#DejaVuSans-69"/>
      <use xlink:href="#DejaVuSans-6e" x="27.783203"/>
      <use xlink:href="#DejaVuSans-74" x="91.162109"/>
      <use xlink:href="#DejaVuSans-65" x="130.371094"/>
      <use xlink:href="#DejaVuSans-72" x="191.894531"/>
      <use xlink:href="#DejaVuSans-61" x="233.007812"/>
      <use xlink:href="#DejaVuSans-63" x="294.287109"/>
      <use xlink:href="#DejaVuSans-74" x="349.267578"/>
      <use xlink:href="#DejaVuSans-69" x="388.476562"/>
      <use xlink:href="#DejaVuSans-6f" x="416.259766"/>
      <use xlink:href="#DejaVuSans-6e" x="477.441406"/>
     </g>
    </g>
   </g>
   <g id="matplotlib.axis_8">
    <g id="ytick_10">
     <g id="line2d_46">
      <g>
       <use xlink:href="#mc2d2e6262b" x="231.600994" y="166.278324" style="stroke: #000000; stroke-width: 0.8"/>
      </g>
     </g>
    </g>
    <g id="ytick_11">
     <g id="line2d_47">
      <g>
       <use xlink:href="#mc2d2e6262b" x="231.600994" y="139.789864" style="stroke: #000000; stroke-width: 0.8"/>
      </g>
     </g>
    </g>
    <g id="ytick_12">
     <g id="line2d_48">
      <g>
       <use xlink:href="#mc2d2e6262b" x="231.600994" y="113.301404" style="stroke: #000000; stroke-width: 0.8"/>
      </g>
     </g>
    </g>
   </g>
   <g id="line2d_49">
    <path d="M 231.600994 153.967644 
L 232.742358 153.882982 
L 233.503267 153.678957 
L 234.264176 153.261142 
L 235.025085 152.716343 
L 236.166449 151.638416 
L 236.927358 151.378798 
L 238.068722 151.398325 
L 239.59054 151.391649 
L 240.731903 151.210808 
L 241.873267 150.809833 
L 242.634176 150.42936 
L 243.395085 149.876397 
L 244.155994 149.555232 
L 244.916903 149.386544 
L 246.819176 149.199205 
L 247.580085 148.953572 
L 248.340994 148.42371 
L 249.482358 147.242095 
L 250.243267 146.534511 
L 250.623722 146.282243 
L 251.765085 146.083929 
L 254.047812 145.653352 
L 255.950085 144.715555 
L 257.852358 143.475176 
L 258.993722 142.957186 
L 260.51554 142.328877 
L 261.656903 141.735323 
L 262.798267 141.221189 
L 263.559176 140.680436 
L 264.320085 140.13729 
L 266.983267 139.027826 
L 268.505085 138.472045 
L 269.646449 137.870212 
L 271.548722 136.574393 
L 273.831449 135.834299 
L 276.114176 134.91801 
L 278.016449 133.709894 
L 279.538267 133.37238 
L 283.342812 132.962879 
L 284.103722 132.692858 
L 286.005994 131.816721 
L 287.527812 131.396574 
L 289.049631 130.930791 
L 290.190994 130.476892 
L 291.332358 129.724181 
L 292.093267 129.409421 
L 293.234631 129.321626 
L 295.136903 129.392462 
L 297.039176 129.124874 
L 298.18054 128.771181 
L 303.506903 126.555311 
L 304.648267 126.050514 
L 306.170085 125.140173 
L 310.73554 123.127793 
L 313.398722 121.61189 
L 314.92054 121.174742 
L 316.061903 121.147433 
L 318.725085 121.326587 
L 319.485994 121.029305 
L 321.007812 120.127035 
L 322.529631 119.635957 
L 323.670994 119.530054 
L 325.953722 119.472809 
L 327.095085 119.134178 
L 328.236449 118.654687 
L 330.138722 118.162615 
L 331.280085 117.897463 
L 332.801903 117.447828 
L 333.943267 117.403115 
L 335.465085 117.577363 
L 337.747812 117.851533 
L 338.508722 117.788621 
L 340.03054 117.593441 
L 341.932812 117.880357 
L 343.454631 118.199372 
L 344.976449 118.219301 
L 347.639631 118.153091 
L 352.965994 119.171613 
L 354.487812 118.989433 
L 355.629176 119.135506 
L 357.531449 119.52221 
L 358.672812 119.502945 
L 359.433722 119.363481 
L 360.95554 118.839762 
L 362.096903 118.937223 
L 366.281903 119.670461 
L 367.042812 119.567923 
L 369.705994 118.734843 
L 370.847358 118.397175 
L 372.749631 117.506654 
L 373.890994 116.753936 
L 375.032358 116.140358 
L 376.173722 115.806064 
L 381.119631 115.063024 
L 381.88054 114.711741 
L 383.402358 113.58761 
L 383.402358 113.58761 
" clip-path="url(#p2f2ca99783)" style="fill: none; stroke: #1f77b4; stroke-linecap: square"/>
   </g>
   <g id="line2d_50">
    <path d="M 231.600994 137.296732 
L 232.742358 137.439857 
L 233.503267 137.391867 
L 234.264176 137.128954 
L 235.025085 136.73471 
L 236.166449 135.865988 
L 236.927358 135.741859 
L 238.068722 135.973505 
L 239.59054 136.273038 
L 240.731903 136.334474 
L 241.873267 136.181002 
L 242.634176 135.96514 
L 243.395085 135.572352 
L 244.155994 135.410046 
L 244.916903 135.402539 
L 246.819176 135.642359 
L 247.580085 135.574151 
L 248.340994 135.219901 
L 249.482358 134.286825 
L 250.243267 133.733239 
L 250.623722 133.55626 
L 251.765085 133.588358 
L 254.047812 133.646192 
L 255.950085 133.122304 
L 257.852358 132.277605 
L 258.993722 131.991353 
L 260.51554 131.672919 
L 261.656903 131.307435 
L 262.798267 131.019869 
L 263.559176 130.62623 
L 264.320085 130.224116 
L 266.983267 129.597749 
L 268.505085 129.317409 
L 269.646449 128.91821 
L 271.548722 127.933547 
L 273.831449 127.551883 
L 276.114176 126.986036 
L 278.016449 126.043439 
L 279.538267 125.909913 
L 283.342812 126.058843 
L 284.103722 125.905567 
L 286.005994 125.30841 
L 287.527812 125.107311 
L 289.049631 124.862086 
L 290.190994 124.570995 
L 291.332358 123.969647 
L 292.093267 123.751281 
L 293.234631 123.810949 
L 295.136903 124.150901 
L 297.039176 124.174062 
L 298.18054 123.998692 
L 305.028722 122.000017 
L 306.55054 121.368562 
L 308.452812 120.700634 
L 311.876903 119.305569 
L 313.018267 118.751451 
L 314.540085 118.355 
L 315.300994 118.271129 
L 316.442358 118.374628 
L 318.344631 118.655975 
L 319.10554 118.578389 
L 319.866449 118.210052 
L 321.007812 117.602063 
L 322.529631 117.171711 
L 323.670994 117.10713 
L 325.953722 117.139066 
L 327.095085 116.841117 
L 328.236449 116.389989 
L 330.138722 115.925394 
L 331.280085 115.667315 
L 332.801903 115.210723 
L 333.943267 115.154285 
L 335.465085 115.315939 
L 337.747812 115.586946 
L 338.508722 115.523787 
L 340.03054 115.320387 
L 341.932812 115.601714 
L 343.454631 115.930521 
L 344.976449 115.966564 
L 347.639631 115.923819 
L 352.965994 117.100317 
L 354.487812 116.985147 
L 355.629176 117.185867 
L 357.531449 117.688603 
L 358.672812 117.749482 
L 359.433722 117.663536 
L 360.95554 117.236625 
L 362.096903 117.408348 
L 366.662358 118.553746 
L 367.803722 118.308515 
L 368.564631 118.078173 
L 370.086449 117.895525 
L 371.988722 117.377443 
L 373.890994 116.332727 
L 375.032358 115.787033 
L 376.173722 115.512043 
L 381.119631 115.007134 
L 381.88054 114.684724 
L 383.402358 113.58761 
L 383.402358 113.58761 
" clip-path="url(#p2f2ca99783)" style="fill: none; stroke-dasharray: 3.7,1.6; stroke-dashoffset: 0; stroke: #1f77b4"/>
   </g>
   <g id="line2d_51">
    <path d="M 231.600994 139.376502 
L 233.503267 138.616771 
L 234.644631 137.81164 
L 235.40554 137.172362 
L 236.546903 135.97231 
L 237.307812 135.421695 
L 239.210085 134.580097 
L 242.253722 133.769214 
L 243.014631 133.194124 
L 244.155994 132.054757 
L 247.580085 129.30098 
L 248.721449 128.087162 
L 249.862812 126.785702 
L 250.623722 126.263114 
L 251.384631 125.969946 
L 252.14554 125.870093 
L 252.906449 125.928126 
L 255.189176 126.224043 
L 255.950085 126.101456 
L 256.710994 125.77813 
L 257.471903 125.210959 
L 258.232812 124.620629 
L 258.993722 124.207668 
L 260.135085 123.770946 
L 261.276449 123.577126 
L 263.559176 123.356124 
L 264.320085 122.953461 
L 265.461449 122.056995 
L 266.222358 121.649899 
L 267.363722 121.334676 
L 268.505085 121.275835 
L 270.787812 121.464835 
L 271.548722 121.350275 
L 272.309631 120.992215 
L 273.450994 120.459484 
L 274.592358 120.208523 
L 275.733722 120.121574 
L 277.25554 120.061793 
L 278.016449 119.873537 
L 279.538267 119.248532 
L 280.679631 119.221558 
L 281.820994 119.497658 
L 285.245085 120.647373 
L 286.386449 120.714646 
L 290.190994 120.222769 
L 293.234631 119.996709 
L 293.99554 119.879661 
L 295.517358 119.877828 
L 297.419631 120.076327 
L 299.321903 120.361599 
L 300.463267 120.267916 
L 301.604631 120.041383 
L 303.126449 120.125187 
L 306.170085 120.190972 
L 308.072358 119.889 
L 309.974631 119.952852 
L 313.398722 120.102366 
L 319.485994 119.376615 
L 320.627358 118.922722 
L 321.388267 118.855798 
L 322.529631 119.065332 
L 325.573267 120.110766 
L 327.095085 120.585099 
L 327.855994 120.717179 
L 328.616903 120.654226 
L 330.899631 120.11798 
L 333.182358 120.138712 
L 334.704176 120.131499 
L 335.465085 119.922554 
L 336.225994 119.6984 
L 337.367358 119.546444 
L 338.889176 119.655646 
L 341.552358 120.194404 
L 342.313267 120.182532 
L 343.074176 120.059178 
L 343.835085 119.901728 
L 345.356903 119.868771 
L 346.498267 119.980346 
L 348.020085 120.006764 
L 349.922358 119.803462 
L 351.444176 119.852563 
L 352.58554 119.878564 
L 359.433722 119.310917 
L 360.95554 118.872074 
L 362.096903 118.624334 
L 363.238267 118.691059 
L 366.281903 119.35544 
L 368.564631 119.84231 
L 369.32554 119.850071 
L 370.086449 119.651144 
L 374.651903 118.07658 
L 377.315085 116.708222 
L 379.597812 115.86245 
L 382.641449 114.17914 
L 383.402358 113.630166 
L 383.402358 113.630166 
" clip-path="url(#p2f2ca99783)" style="fill: none; stroke: #ff7f0e; stroke-linecap: square"/>
   </g>
   <g id="line2d_52">
    <path d="M 231.600994 130.913425 
L 233.503267 130.616235 
L 234.644631 130.086024 
L 235.40554 129.62388 
L 236.546903 128.672237 
L 237.307812 128.279178 
L 239.210085 127.825955 
L 242.253722 127.659741 
L 243.014631 127.246023 
L 244.155994 126.332235 
L 246.819176 124.678229 
L 248.340994 123.49871 
L 249.862812 121.921726 
L 250.623722 121.468294 
L 251.384631 121.2397 
L 252.14554 121.204117 
L 252.906449 121.329506 
L 255.189176 121.859134 
L 255.950085 121.821307 
L 256.710994 121.58082 
L 257.471903 121.089475 
L 258.232812 120.565131 
L 258.993722 120.211505 
L 260.135085 119.856439 
L 261.276449 119.740667 
L 263.559176 119.680285 
L 264.320085 119.327483 
L 265.461449 118.486533 
L 266.222358 118.106164 
L 267.363722 117.823189 
L 268.505085 117.79421 
L 270.787812 118.056047 
L 271.548722 117.96777 
L 272.309631 117.630982 
L 273.450994 117.116559 
L 274.592358 116.874672 
L 275.733722 116.792949 
L 277.25554 116.739431 
L 278.016449 116.551073 
L 279.538267 115.90537 
L 280.679631 115.85422 
L 281.820994 116.110224 
L 285.245085 117.269687 
L 286.386449 117.357347 
L 290.571449 116.897352 
L 296.278267 116.621129 
L 298.18054 116.920574 
L 299.321903 117.090345 
L 300.463267 117.011413 
L 301.604631 116.794051 
L 303.126449 116.889511 
L 306.170085 116.99417 
L 308.072358 116.706817 
L 309.974631 116.784329 
L 313.398722 116.97583 
L 314.92054 116.747112 
L 315.681449 116.681506 
L 317.203267 116.680483 
L 318.725085 116.49846 
L 319.866449 116.104462 
L 320.627358 115.823305 
L 321.388267 115.743283 
L 322.529631 115.935546 
L 325.192812 116.830302 
L 327.095085 117.496731 
L 327.855994 117.6539 
L 328.616903 117.61688 
L 330.899631 117.14126 
L 333.182358 117.217747 
L 334.704176 117.253399 
L 335.465085 117.063699 
L 336.225994 116.854238 
L 337.367358 116.720663 
L 338.889176 116.856877 
L 341.552358 117.476971 
L 342.313267 117.495264 
L 343.074176 117.401258 
L 343.835085 117.270672 
L 345.356903 117.292195 
L 346.878722 117.495131 
L 348.780994 117.459642 
L 350.302812 117.442882 
L 352.965994 117.637236 
L 354.868267 117.563266 
L 356.390085 117.531506 
L 358.672812 117.593639 
L 360.575085 117.255719 
L 361.716449 116.966206 
L 362.477358 116.958225 
L 363.999176 117.252307 
L 368.184176 118.585409 
L 369.32554 118.762605 
L 370.086449 118.651198 
L 374.271449 117.71226 
L 375.412812 117.168607 
L 376.554176 116.601825 
L 379.217358 115.896755 
L 381.500085 114.801555 
L 383.021903 113.920252 
L 383.402358 113.630166 
L 383.402358 113.630166 
" clip-path="url(#p2f2ca99783)" style="fill: none; stroke-dasharray: 3.7,1.6; stroke-dashoffset: 0; stroke: #ff7f0e"/>
   </g>
   <g id="patch_19">
    <path d="M 231.600994 185.59875 
L 231.600994 109.99875 
" style="fill: none; stroke: #000000; stroke-width: 0.8; stroke-linejoin: miter; stroke-linecap: square"/>
   </g>
   <g id="patch_20">
    <path d="M 383.782812 185.59875 
L 383.782812 109.99875 
" style="fill: none; stroke: #000000; stroke-width: 0.8; stroke-linejoin: miter; stroke-linecap: square"/>
   </g>
   <g id="patch_21">
    <path d="M 231.600994 185.59875 
L 383.782812 185.59875 
" style="fill: none; stroke: #000000; stroke-width: 0.8; stroke-linejoin: miter; stroke-linecap: square"/>
   </g>
   <g id="patch_22">
    <path d="M 231.600994 109.99875 
L 383.782812 109.99875 
" style="fill: none; stroke: #000000; stroke-width: 0.8; stroke-linejoin: miter; stroke-linecap: square"/>
   </g>
   <g id="text_28">
    <!-- eps. 12 -->
    <g transform="translate(292.975028 103.99875)scale(0.08 -0.08)">
     <use xlink:href="#DejaVuSans-65"/>
     <use xlink:href="#DejaVuSans-70" x="61.523438"/>
     <use xlink:href="#DejaVuSans-73" x="125"/>
     <use xlink:href="#DejaVuSans-2e" x="177.099609"/>
     <use xlink:href="#DejaVuSans-20" x="208.886719"/>
     <use xlink:href="#DejaVuSans-31" x="240.673828"/>
     <use xlink:href="#DejaVuSans-32" x="304.296875"/>
    </g>
   </g>
  </g>
 </g>
 <defs>
  <clipPath id="p6c9ad6bb59">
   <rect x="48.982813" y="19.27875" width="152.181818" height="75.6"/>
  </clipPath>
  <clipPath id="pde247f50fd">
   <rect x="231.600994" y="19.27875" width="152.181818" height="75.6"/>
  </clipPath>
  <clipPath id="pfc2f0d4240">
   <rect x="48.982813" y="109.99875" width="152.181818" height="75.6"/>
  </clipPath>
  <clipPath id="p2f2ca99783">
   <rect x="231.600994" y="109.99875" width="152.181818" height="75.6"/>
  </clipPath>
 </defs>
</svg>
