<?xml version="1.0" encoding="utf-8" standalone="no"?>
<!DOCTYPE svg PUBLIC "-//W3C//DTD SVG 1.1//EN"
  "http://www.w3.org/Graphics/SVG/1.1/DTD/svg11.dtd">
<svg xmlns:xlink="http://www.w3.org/1999/xlink" width="386.848437pt" height="223.155pt" viewBox="0 0 386.848437 223.155" xmlns="http://www.w3.org/2000/svg" version="1.1">
 <metadata>
  <rdf:RDF xmlns:dc="http://purl.org/dc/elements/1.1/" xmlns:cc="http://creativecommons.org/ns#" xmlns:rdf="http://www.w3.org/1999/02/22-rdf-syntax-ns#">
   <cc:Work>
    <dc:type rdf:resource="http://purl.org/dc/dcmitype/StillImage"/>
    <dc:date>2023-02-27T22:13:33.351791</dc:date>
    <dc:format>image/svg+xml</dc:format>
    <dc:creator>
     <cc:Agent>
      <dc:title>Matplotlib v3.5.1, https://matplotlib.org/</dc:title>
     </cc:Agent>
    </dc:creator>
   </cc:Work>
  </rdf:RDF>
 </metadata>
 <defs>
  <style type="text/css">*{stroke-linejoin: round; stroke-linecap: butt}</style>
 </defs>
 <g id="figure_1">
  <g id="patch_1">
   <path d="M 0 223.155 
L 386.848437 223.155 
L 386.848437 0 
L 0 0 
z
" style="fill: #ffffff"/>
  </g>
  <g id="axes_1">
   <g id="patch_2">
    <path d="M 35.304688 94.87875 
L 187.486506 94.87875 
L 187.486506 19.27875 
L 35.304688 19.27875 
z
" style="fill: #ffffff"/>
   </g>
   <g id="matplotlib.axis_1">
    <g id="xtick_1">
     <g id="line2d_1">
      <defs>
       <path id="m753c45c19a" d="M 0 0 
L 0 3.5 
" style="stroke: #000000; stroke-width: 0.8"/>
      </defs>
      <g>
       <use xlink:href="#m753c45c19a" x="35.304688" y="94.87875" style="stroke: #000000; stroke-width: 0.8"/>
      </g>
     </g>
    </g>
    <g id="xtick_2">
     <g id="line2d_2">
      <g>
       <use xlink:href="#m753c45c19a" x="73.350142" y="94.87875" style="stroke: #000000; stroke-width: 0.8"/>
      </g>
     </g>
    </g>
    <g id="xtick_3">
     <g id="line2d_3">
      <g>
       <use xlink:href="#m753c45c19a" x="111.395597" y="94.87875" style="stroke: #000000; stroke-width: 0.8"/>
      </g>
     </g>
    </g>
    <g id="xtick_4">
     <g id="line2d_4">
      <g>
       <use xlink:href="#m753c45c19a" x="149.441051" y="94.87875" style="stroke: #000000; stroke-width: 0.8"/>
      </g>
     </g>
    </g>
    <g id="xtick_5">
     <g id="line2d_5">
      <g>
       <use xlink:href="#m753c45c19a" x="187.486506" y="94.87875" style="stroke: #000000; stroke-width: 0.8"/>
      </g>
     </g>
    </g>
   </g>
   <g id="matplotlib.axis_2">
    <g id="ytick_1">
     <g id="line2d_6">
      <defs>
       <path id="m2e008d26fc" d="M 0 0 
L -3.5 0 
" style="stroke: #000000; stroke-width: 0.8"/>
      </defs>
      <g>
       <use xlink:href="#m2e008d26fc" x="35.304688" y="75.558324" style="stroke: #000000; stroke-width: 0.8"/>
      </g>
     </g>
     <g id="text_1">
      <!-- −10 -->
      <g transform="translate(7.2 79.357543)scale(0.1 -0.1)">
       <defs>
        <path id="DejaVuSans-2212" d="M 678 2272 
L 4684 2272 
L 4684 1741 
L 678 1741 
L 678 2272 
z
" transform="scale(0.015625)"/>
        <path id="DejaVuSans-31" d="M 794 531 
L 1825 531 
L 1825 4091 
L 703 3866 
L 703 4441 
L 1819 4666 
L 2450 4666 
L 2450 531 
L 3481 531 
L 3481 0 
L 794 0 
L 794 531 
z
" transform="scale(0.015625)"/>
        <path id="DejaVuSans-30" d="M 2034 4250 
Q 1547 4250 1301 3770 
Q 1056 3291 1056 2328 
Q 1056 1369 1301 889 
Q 1547 409 2034 409 
Q 2525 409 2770 889 
Q 3016 1369 3016 2328 
Q 3016 3291 2770 3770 
Q 2525 4250 2034 4250 
z
M 2034 4750 
Q 2819 4750 3233 4129 
Q 3647 3509 3647 2328 
Q 3647 1150 3233 529 
Q 2819 -91 2034 -91 
Q 1250 -91 836 529 
Q 422 1150 422 2328 
Q 422 3509 836 4129 
Q 1250 4750 2034 4750 
z
" transform="scale(0.015625)"/>
       </defs>
       <use xlink:href="#DejaVuSans-2212"/>
       <use xlink:href="#DejaVuSans-31" x="83.789062"/>
       <use xlink:href="#DejaVuSans-30" x="147.412109"/>
      </g>
     </g>
    </g>
    <g id="ytick_2">
     <g id="line2d_7">
      <g>
       <use xlink:href="#m2e008d26fc" x="35.304688" y="49.069864" style="stroke: #000000; stroke-width: 0.8"/>
      </g>
     </g>
     <g id="text_2">
      <!-- −5 -->
      <g transform="translate(13.5625 52.869083)scale(0.1 -0.1)">
       <defs>
        <path id="DejaVuSans-35" d="M 691 4666 
L 3169 4666 
L 3169 4134 
L 1269 4134 
L 1269 2991 
Q 1406 3038 1543 3061 
Q 1681 3084 1819 3084 
Q 2600 3084 3056 2656 
Q 3513 2228 3513 1497 
Q 3513 744 3044 326 
Q 2575 -91 1722 -91 
Q 1428 -91 1123 -41 
Q 819 9 494 109 
L 494 744 
Q 775 591 1075 516 
Q 1375 441 1709 441 
Q 2250 441 2565 725 
Q 2881 1009 2881 1497 
Q 2881 1984 2565 2268 
Q 2250 2553 1709 2553 
Q 1456 2553 1204 2497 
Q 953 2441 691 2322 
L 691 4666 
z
" transform="scale(0.015625)"/>
       </defs>
       <use xlink:href="#DejaVuSans-2212"/>
       <use xlink:href="#DejaVuSans-35" x="83.789062"/>
      </g>
     </g>
    </g>
    <g id="ytick_3">
     <g id="line2d_8">
      <g>
       <use xlink:href="#m2e008d26fc" x="35.304688" y="22.581404" style="stroke: #000000; stroke-width: 0.8"/>
      </g>
     </g>
     <g id="text_3">
      <!-- 0 -->
      <g transform="translate(21.942188 26.380623)scale(0.1 -0.1)">
       <use xlink:href="#DejaVuSans-30"/>
      </g>
     </g>
    </g>
   </g>
   <g id="line2d_9">
    <path d="M 35.304688 23.398465 
L 38.728778 23.547922 
L 41.772415 23.547828 
L 44.435597 23.37628 
L 45.957415 23.246427 
L 48.240142 23.350228 
L 52.044688 23.574682 
L 53.94696 23.54235 
L 56.229688 23.575086 
L 61.556051 23.341136 
L 64.599688 23.576125 
L 71.067415 23.477819 
L 73.350142 23.263567 
L 75.632869 23.379399 
L 77.915597 23.558038 
L 83.24196 23.537108 
L 85.144233 23.378366 
L 86.666051 23.247605 
L 88.948778 23.324133 
L 91.61196 23.508281 
L 95.036051 23.519975 
L 103.406051 23.308219 
L 106.830142 23.613511 
L 109.493324 23.609495 
L 111.776051 23.60855 
L 115.200142 23.283492 
L 116.72196 23.447807 
L 117.863324 23.588951 
L 120.526506 23.568776 
L 130.418324 23.40914 
L 133.081506 23.640437 
L 135.364233 23.535874 
L 136.886051 23.544892 
L 138.788324 23.541266 
L 142.973324 23.28504 
L 147.158324 23.59099 
L 154.006506 23.32761 
L 155.528324 23.25876 
L 157.811051 23.403771 
L 160.474233 23.60562 
L 164.278778 23.58109 
L 166.181051 23.560353 
L 169.224687 23.268217 
L 170.746506 23.386365 
L 172.268324 23.579595 
L 174.551051 23.576051 
L 176.833778 23.565283 
L 179.116506 23.521896 
L 182.540597 23.271606 
L 184.442869 23.370841 
L 187.106051 23.545091 
L 187.106051 23.545091 
" clip-path="url(#pb82ab2ee17)" style="fill: none; stroke: #1f77b4; stroke-linecap: square"/>
   </g>
   <g id="line2d_10">
    <path d="M 35.304688 81.658782 
L 36.446051 82.140198 
L 37.20696 82.272477 
L 37.967869 82.143537 
L 38.728778 81.862323 
L 39.489688 81.398147 
L 40.250597 81.344774 
L 41.011506 81.618026 
L 44.435597 83.371918 
L 45.196506 83.469426 
L 45.957415 83.376996 
L 46.718324 83.050469 
L 47.479233 82.99667 
L 49.76196 83.281375 
L 52.425142 82.726359 
L 53.566506 82.366517 
L 54.327415 82.437802 
L 56.990597 82.951991 
L 58.13196 82.714465 
L 59.273324 81.9884 
L 60.414687 81.164797 
L 61.175597 81.1628 
L 61.936506 81.348896 
L 62.697415 81.681685 
L 63.838778 81.832928 
L 64.980142 81.866277 
L 65.741051 81.601352 
L 66.50196 81.166986 
L 67.262869 80.656255 
L 68.023778 80.566776 
L 69.165142 80.819097 
L 70.68696 81.335954 
L 72.208778 81.371407 
L 72.969687 81.25655 
L 73.730597 80.948354 
L 74.491506 80.604003 
L 75.632869 80.667316 
L 79.437415 81.258922 
L 80.578778 81.033044 
L 81.339687 80.772279 
L 82.100597 80.811932 
L 86.285597 81.56697 
L 87.046506 81.528355 
L 87.807415 81.341105 
L 88.568324 81.413128 
L 89.709688 81.895213 
L 91.61196 83.076186 
L 92.372869 83.342254 
L 93.133778 83.321556 
L 93.514233 83.263819 
L 94.655597 82.750274 
L 95.416506 82.910926 
L 96.177415 83.396366 
L 98.079687 84.996598 
L 98.840597 85.193615 
L 99.601506 85.064284 
L 100.742869 84.459393 
L 101.503778 84.054115 
L 101.884233 84.051596 
L 103.025597 84.504258 
L 104.16696 84.952478 
L 104.547415 85.024243 
L 104.927869 84.978318 
L 105.688778 84.605541 
L 108.35196 82.648305 
L 109.112869 82.565974 
L 110.254233 82.775644 
L 111.395597 82.877459 
L 114.058778 82.378694 
L 114.819687 81.991852 
L 115.580597 81.487091 
L 116.72196 81.06624 
L 117.863324 80.568971 
L 119.004687 79.853741 
L 120.146051 78.78259 
L 121.667869 77.087465 
L 122.428778 76.773236 
L 125.472415 76.530553 
L 126.613778 76.003854 
L 127.374687 75.434946 
L 129.27696 73.900831 
L 130.418324 73.714285 
L 131.559687 73.726582 
L 132.320597 73.495259 
L 134.603324 72.13431 
L 136.125142 70.822824 
L 136.886051 70.568929 
L 138.407869 70.202872 
L 139.929688 69.605983 
L 146.397415 65.911704 
L 149.821506 62.844938 
L 150.582415 62.565188 
L 152.104233 62.109749 
L 154.006506 61.0052 
L 154.767415 60.3518 
L 156.289233 58.768899 
L 157.430597 58.186622 
L 158.191506 57.809008 
L 158.952415 57.190814 
L 160.093778 55.848546 
L 161.615597 53.875239 
L 162.75696 52.56215 
L 165.039687 50.97939 
L 165.800597 50.205775 
L 167.702869 47.876838 
L 169.985597 44.599259 
L 173.790142 40.40808 
L 174.551051 39.404394 
L 177.594687 35.095614 
L 180.638324 31.864691 
L 182.160142 29.761369 
L 184.062415 26.759368 
L 187.106051 23.19255 
L 187.106051 23.19255 
" clip-path="url(#pb82ab2ee17)" style="fill: none; stroke-dasharray: 3.7,1.6; stroke-dashoffset: 0; stroke: #1f77b4"/>
   </g>
   <g id="line2d_11">
    <path d="M 35.304688 23.398465 
L 38.728778 23.545905 
L 41.772415 23.548716 
L 44.055142 23.39943 
L 45.957415 23.240445 
L 48.620597 23.379533 
L 51.664233 23.574576 
L 54.327415 23.546209 
L 57.751506 23.436716 
L 60.034233 23.274689 
L 62.697415 23.403948 
L 64.980142 23.608453 
L 67.262869 23.545426 
L 69.165142 23.604646 
L 70.68696 23.557195 
L 74.491506 23.282834 
L 76.393778 23.495948 
L 78.296051 23.59644 
L 80.578778 23.551738 
L 85.905142 23.354091 
L 87.42696 23.286448 
L 89.709688 23.385052 
L 92.372869 23.617572 
L 95.036051 23.53801 
L 99.221051 23.464156 
L 100.742869 23.281037 
L 102.264687 23.323902 
L 105.688778 23.655533 
L 111.776051 23.513554 
L 114.439233 23.291268 
L 115.961051 23.361157 
L 118.624233 23.611516 
L 122.048324 23.535013 
L 126.994233 23.33813 
L 128.516051 23.275024 
L 130.418324 23.387594 
L 133.46196 23.632706 
L 136.505597 23.573306 
L 138.407869 23.60444 
L 142.973324 23.328462 
L 146.01696 23.615422 
L 151.723778 23.555223 
L 156.289233 23.297891 
L 160.474233 23.563741 
L 167.322415 23.307618 
L 168.844233 23.258904 
L 171.507415 23.396626 
L 174.170597 23.560988 
L 180.638324 23.391826 
L 182.540597 23.250838 
L 184.442869 23.350463 
L 186.725597 23.543867 
L 187.106051 23.549645 
L 187.106051 23.549645 
" clip-path="url(#pb82ab2ee17)" style="fill: none; stroke: #ff7f0e; stroke-linecap: square"/>
   </g>
   <g id="line2d_12">
    <path d="M 35.304688 84.559521 
L 37.20696 85.566564 
L 37.967869 85.670079 
L 39.109233 85.645865 
L 39.489688 85.50989 
L 40.250597 85.551626 
L 41.011506 85.849696 
L 43.674688 87.39081 
L 45.196506 87.833667 
L 45.957415 87.833652 
L 46.337869 87.700432 
L 47.098778 87.741666 
L 48.240142 88.246423 
L 49.76196 88.940327 
L 50.522869 89.173904 
L 51.283778 89.186852 
L 52.044688 88.946971 
L 53.186051 88.326004 
L 53.566506 88.258203 
L 54.327415 88.484031 
L 55.088324 89.009746 
L 57.751506 91.131991 
L 58.512415 91.323609 
L 59.273324 91.220091 
L 60.034233 90.860938 
L 60.414687 90.605905 
L 61.175597 90.510785 
L 61.936506 90.810839 
L 63.458324 91.393454 
L 64.980142 91.39476 
L 66.50196 91.053006 
L 67.262869 90.746028 
L 68.023778 90.717653 
L 71.067415 91.280158 
L 71.828324 91.251153 
L 73.350142 90.910162 
L 74.491506 90.403576 
L 75.252415 90.454082 
L 77.535142 91.104735 
L 78.296051 90.975056 
L 79.437415 90.428996 
L 80.198324 89.973301 
L 80.959233 89.437225 
L 81.720142 89.458977 
L 82.481051 89.829644 
L 84.383324 91.040645 
L 85.144233 91.273002 
L 85.905142 91.237805 
L 86.666051 91.023436 
L 88.187869 90.125702 
L 88.948778 90.19867 
L 91.231506 90.766202 
L 91.992415 90.540221 
L 93.514233 89.541667 
L 94.655597 88.858208 
L 95.416506 88.799775 
L 96.938324 88.911571 
L 97.699233 88.595448 
L 99.221051 87.564965 
L 100.362415 86.443311 
L 101.123324 85.716489 
L 101.884233 85.441297 
L 103.406051 85.355848 
L 104.547415 85.269948 
L 107.210597 84.080707 
L 108.35196 83.22372 
L 109.112869 82.975362 
L 111.015142 82.655486 
L 112.53696 81.764345 
L 113.678324 80.913575 
L 114.819687 79.879385 
L 115.580597 79.59116 
L 116.72196 79.620874 
L 117.482869 79.694741 
L 118.243778 79.569352 
L 119.385142 79.061697 
L 120.146051 78.421387 
L 120.90696 77.457637 
L 121.287415 76.903248 
L 122.048324 76.320206 
L 122.428778 76.152113 
L 123.189687 76.220515 
L 126.233324 76.671176 
L 126.994233 76.475542 
L 128.135597 75.784535 
L 128.896506 75.113261 
L 129.657415 74.718347 
L 130.798778 74.40629 
L 131.940142 73.744281 
L 132.701051 73.111708 
L 135.744687 70.320613 
L 137.64696 69.471035 
L 138.788324 68.657955 
L 141.451506 65.790543 
L 142.212415 64.911292 
L 143.353778 64.219241 
L 144.114687 63.83026 
L 145.636506 62.635793 
L 146.397415 61.905097 
L 149.441051 58.603151 
L 150.20196 58.183321 
L 151.343324 57.660008 
L 152.484687 57.075671 
L 155.528324 55.349363 
L 156.669687 54.344962 
L 158.191506 53.202876 
L 159.332869 52.143517 
L 160.474233 50.834939 
L 162.376506 48.341033 
L 163.137415 47.761459 
L 164.278778 47.354062 
L 165.800597 46.902964 
L 166.561506 46.467181 
L 167.702869 45.477593 
L 168.844233 44.118532 
L 169.605142 43.171158 
L 170.366051 42.527668 
L 171.887869 41.590047 
L 173.409687 40.272531 
L 174.551051 38.932526 
L 176.833778 35.556394 
L 179.49696 33.140807 
L 181.018778 31.281592 
L 182.921051 28.444203 
L 184.062415 26.760202 
L 187.106051 23.06145 
L 187.106051 23.06145 
" clip-path="url(#pb82ab2ee17)" style="fill: none; stroke-dasharray: 3.7,1.6; stroke-dashoffset: 0; stroke: #ff7f0e"/>
   </g>
   <g id="patch_3">
    <path d="M 35.304688 94.87875 
L 35.304688 19.27875 
" style="fill: none; stroke: #000000; stroke-width: 0.8; stroke-linejoin: miter; stroke-linecap: square"/>
   </g>
   <g id="patch_4">
    <path d="M 187.486506 94.87875 
L 187.486506 19.27875 
" style="fill: none; stroke: #000000; stroke-width: 0.8; stroke-linejoin: miter; stroke-linecap: square"/>
   </g>
   <g id="patch_5">
    <path d="M 35.304688 94.87875 
L 187.486506 94.87875 
" style="fill: none; stroke: #000000; stroke-width: 0.8; stroke-linejoin: miter; stroke-linecap: square"/>
   </g>
   <g id="patch_6">
    <path d="M 35.304688 19.27875 
L 187.486506 19.27875 
" style="fill: none; stroke: #000000; stroke-width: 0.8; stroke-linejoin: miter; stroke-linecap: square"/>
   </g>
   <g id="text_4">
    <!-- eps. 0 -->
    <g transform="translate(99.223722 13.27875)scale(0.08 -0.08)">
     <defs>
      <path id="DejaVuSans-65" d="M 3597 1894 
L 3597 1613 
L 953 1613 
Q 991 1019 1311 708 
Q 1631 397 2203 397 
Q 2534 397 2845 478 
Q 3156 559 3463 722 
L 3463 178 
Q 3153 47 2828 -22 
Q 2503 -91 2169 -91 
Q 1331 -91 842 396 
Q 353 884 353 1716 
Q 353 2575 817 3079 
Q 1281 3584 2069 3584 
Q 2775 3584 3186 3129 
Q 3597 2675 3597 1894 
z
M 3022 2063 
Q 3016 2534 2758 2815 
Q 2500 3097 2075 3097 
Q 1594 3097 1305 2825 
Q 1016 2553 972 2059 
L 3022 2063 
z
" transform="scale(0.015625)"/>
      <path id="DejaVuSans-70" d="M 1159 525 
L 1159 -1331 
L 581 -1331 
L 581 3500 
L 1159 3500 
L 1159 2969 
Q 1341 3281 1617 3432 
Q 1894 3584 2278 3584 
Q 2916 3584 3314 3078 
Q 3713 2572 3713 1747 
Q 3713 922 3314 415 
Q 2916 -91 2278 -91 
Q 1894 -91 1617 61 
Q 1341 213 1159 525 
z
M 3116 1747 
Q 3116 2381 2855 2742 
Q 2594 3103 2138 3103 
Q 1681 3103 1420 2742 
Q 1159 2381 1159 1747 
Q 1159 1113 1420 752 
Q 1681 391 2138 391 
Q 2594 391 2855 752 
Q 3116 1113 3116 1747 
z
" transform="scale(0.015625)"/>
      <path id="DejaVuSans-73" d="M 2834 3397 
L 2834 2853 
Q 2591 2978 2328 3040 
Q 2066 3103 1784 3103 
Q 1356 3103 1142 2972 
Q 928 2841 928 2578 
Q 928 2378 1081 2264 
Q 1234 2150 1697 2047 
L 1894 2003 
Q 2506 1872 2764 1633 
Q 3022 1394 3022 966 
Q 3022 478 2636 193 
Q 2250 -91 1575 -91 
Q 1294 -91 989 -36 
Q 684 19 347 128 
L 347 722 
Q 666 556 975 473 
Q 1284 391 1588 391 
Q 1994 391 2212 530 
Q 2431 669 2431 922 
Q 2431 1156 2273 1281 
Q 2116 1406 1581 1522 
L 1381 1569 
Q 847 1681 609 1914 
Q 372 2147 372 2553 
Q 372 3047 722 3315 
Q 1072 3584 1716 3584 
Q 2034 3584 2315 3537 
Q 2597 3491 2834 3397 
z
" transform="scale(0.015625)"/>
      <path id="DejaVuSans-2e" d="M 684 794 
L 1344 794 
L 1344 0 
L 684 0 
L 684 794 
z
" transform="scale(0.015625)"/>
      <path id="DejaVuSans-20" transform="scale(0.015625)"/>
     </defs>
     <use xlink:href="#DejaVuSans-65"/>
     <use xlink:href="#DejaVuSans-70" x="61.523438"/>
     <use xlink:href="#DejaVuSans-73" x="125"/>
     <use xlink:href="#DejaVuSans-2e" x="177.099609"/>
     <use xlink:href="#DejaVuSans-20" x="208.886719"/>
     <use xlink:href="#DejaVuSans-30" x="240.673828"/>
    </g>
   </g>
   <g id="legend_1">
    <g id="patch_7">
     <path d="M 39.504688 66.785625 
L 130.824688 66.785625 
Q 132.024688 66.785625 132.024688 65.585625 
L 132.024688 48.571875 
Q 132.024688 47.371875 130.824688 47.371875 
L 39.504688 47.371875 
Q 38.304688 47.371875 38.304688 48.571875 
L 38.304688 65.585625 
Q 38.304688 66.785625 39.504688 66.785625 
z
" style="fill: #ffffff; opacity: 0.8; stroke: #cccccc; stroke-linejoin: miter"/>
    </g>
    <g id="line2d_13">
     <path d="M 40.704688 52.230938 
L 46.704688 52.230938 
L 52.704688 52.230938 
" style="fill: none; stroke: #1f77b4; stroke-linecap: square"/>
    </g>
    <g id="text_5">
     <!-- $\tau_0$, $v(s)$ -->
     <g transform="translate(57.504688 54.330938)scale(0.06 -0.06)">
      <defs>
       <path id="DejaVuSans-Oblique-3c4" d="M 2103 638 
Q 2188 488 2525 488 
L 2800 488 
L 2706 0 
L 2363 0 
Q 1800 0 1600 300 
Q 1403 606 1534 1269 
L 1856 2925 
L 541 2925 
L 653 3500 
L 3881 3500 
L 3769 2925 
L 2444 2925 
L 2113 1234 
Q 2025 781 2103 638 
z
" transform="scale(0.015625)"/>
       <path id="DejaVuSans-2c" d="M 750 794 
L 1409 794 
L 1409 256 
L 897 -744 
L 494 -744 
L 750 256 
L 750 794 
z
" transform="scale(0.015625)"/>
       <path id="DejaVuSans-Oblique-76" d="M 459 3500 
L 1069 3500 
L 1581 525 
L 3256 3500 
L 3866 3500 
L 1875 0 
L 1100 0 
L 459 3500 
z
" transform="scale(0.015625)"/>
       <path id="DejaVuSans-28" d="M 1984 4856 
Q 1566 4138 1362 3434 
Q 1159 2731 1159 2009 
Q 1159 1288 1364 580 
Q 1569 -128 1984 -844 
L 1484 -844 
Q 1016 -109 783 600 
Q 550 1309 550 2009 
Q 550 2706 781 3412 
Q 1013 4119 1484 4856 
L 1984 4856 
z
" transform="scale(0.015625)"/>
       <path id="DejaVuSans-Oblique-73" d="M 3200 3397 
L 3091 2853 
Q 2863 2978 2609 3040 
Q 2356 3103 2088 3103 
Q 1634 3103 1373 2948 
Q 1113 2794 1113 2528 
Q 1113 2219 1719 2053 
Q 1766 2041 1788 2034 
L 1972 1978 
Q 2547 1819 2739 1644 
Q 2931 1469 2931 1166 
Q 2931 609 2489 259 
Q 2047 -91 1331 -91 
Q 1053 -91 747 -37 
Q 441 16 72 128 
L 184 722 
Q 500 559 806 475 
Q 1113 391 1394 391 
Q 1816 391 2080 572 
Q 2344 753 2344 1031 
Q 2344 1331 1650 1516 
L 1591 1531 
L 1394 1581 
Q 956 1697 753 1886 
Q 550 2075 550 2369 
Q 550 2928 970 3256 
Q 1391 3584 2113 3584 
Q 2397 3584 2667 3537 
Q 2938 3491 3200 3397 
z
" transform="scale(0.015625)"/>
       <path id="DejaVuSans-29" d="M 513 4856 
L 1013 4856 
Q 1481 4119 1714 3412 
Q 1947 2706 1947 2009 
Q 1947 1309 1714 600 
Q 1481 -109 1013 -844 
L 513 -844 
Q 928 -128 1133 580 
Q 1338 1288 1338 2009 
Q 1338 2731 1133 3434 
Q 928 4138 513 4856 
z
" transform="scale(0.015625)"/>
      </defs>
      <use xlink:href="#DejaVuSans-Oblique-3c4" transform="translate(0 0.125)"/>
      <use xlink:href="#DejaVuSans-30" transform="translate(60.205078 -16.28125)scale(0.7)"/>
      <use xlink:href="#DejaVuSans-2c" transform="translate(107.475586 0.125)"/>
      <use xlink:href="#DejaVuSans-20" transform="translate(139.262695 0.125)"/>
      <use xlink:href="#DejaVuSans-Oblique-76" transform="translate(171.049805 0.125)"/>
      <use xlink:href="#DejaVuSans-28" transform="translate(230.229492 0.125)"/>
      <use xlink:href="#DejaVuSans-Oblique-73" transform="translate(269.243164 0.125)"/>
      <use xlink:href="#DejaVuSans-29" transform="translate(321.342773 0.125)"/>
     </g>
    </g>
    <g id="line2d_14">
     <path d="M 40.704688 61.037813 
L 46.704688 61.037813 
L 52.704688 61.037813 
" style="fill: none; stroke-dasharray: 3.7,1.6; stroke-dashoffset: 0; stroke: #1f77b4"/>
    </g>
    <g id="text_6">
     <!-- $\tau_0$, $G$ -->
     <g transform="translate(57.504688 63.137813)scale(0.06 -0.06)">
      <defs>
       <path id="DejaVuSans-Oblique-47" d="M 3494 697 
L 3738 1919 
L 2700 1919 
L 2797 2438 
L 4453 2438 
L 4050 384 
Q 3634 156 3143 32 
Q 2653 -91 2156 -91 
Q 1278 -91 783 396 
Q 288 884 288 1753 
Q 288 2475 589 3126 
Q 891 3778 1422 4213 
Q 1756 4484 2153 4617 
Q 2550 4750 3034 4750 
Q 3472 4750 3873 4639 
Q 4275 4528 4641 4306 
L 4513 3634 
Q 4231 3928 3853 4083 
Q 3475 4238 3047 4238 
Q 2550 4238 2172 4048 
Q 1794 3859 1497 3463 
Q 1244 3125 1098 2667 
Q 953 2209 953 1734 
Q 953 1081 1287 751 
Q 1622 422 2284 422 
Q 2616 422 2925 492 
Q 3234 563 3494 697 
z
" transform="scale(0.015625)"/>
      </defs>
      <use xlink:href="#DejaVuSans-Oblique-3c4" transform="translate(0 0.78125)"/>
      <use xlink:href="#DejaVuSans-30" transform="translate(60.205078 -15.625)scale(0.7)"/>
      <use xlink:href="#DejaVuSans-2c" transform="translate(107.475586 0.78125)"/>
      <use xlink:href="#DejaVuSans-20" transform="translate(139.262695 0.78125)"/>
      <use xlink:href="#DejaVuSans-Oblique-47" transform="translate(171.049805 0.78125)"/>
     </g>
    </g>
    <g id="line2d_15">
     <path d="M 91.164688 52.230938 
L 97.164688 52.230938 
L 103.164688 52.230938 
" style="fill: none; stroke: #ff7f0e; stroke-linecap: square"/>
    </g>
    <g id="text_7">
     <!-- $\tau_1$, $v(s)$ -->
     <g transform="translate(107.964688 54.330938)scale(0.06 -0.06)">
      <use xlink:href="#DejaVuSans-Oblique-3c4" transform="translate(0 0.125)"/>
      <use xlink:href="#DejaVuSans-31" transform="translate(60.205078 -16.28125)scale(0.7)"/>
      <use xlink:href="#DejaVuSans-2c" transform="translate(107.475586 0.125)"/>
      <use xlink:href="#DejaVuSans-20" transform="translate(139.262695 0.125)"/>
      <use xlink:href="#DejaVuSans-Oblique-76" transform="translate(171.049805 0.125)"/>
      <use xlink:href="#DejaVuSans-28" transform="translate(230.229492 0.125)"/>
      <use xlink:href="#DejaVuSans-Oblique-73" transform="translate(269.243164 0.125)"/>
      <use xlink:href="#DejaVuSans-29" transform="translate(321.342773 0.125)"/>
     </g>
    </g>
    <g id="line2d_16">
     <path d="M 91.164688 61.037813 
L 97.164688 61.037813 
L 103.164688 61.037813 
" style="fill: none; stroke-dasharray: 3.7,1.6; stroke-dashoffset: 0; stroke: #ff7f0e"/>
    </g>
    <g id="text_8">
     <!-- $\tau_1$, $G$ -->
     <g transform="translate(107.964688 63.137813)scale(0.06 -0.06)">
      <use xlink:href="#DejaVuSans-Oblique-3c4" transform="translate(0 0.78125)"/>
      <use xlink:href="#DejaVuSans-31" transform="translate(60.205078 -15.625)scale(0.7)"/>
      <use xlink:href="#DejaVuSans-2c" transform="translate(107.475586 0.78125)"/>
      <use xlink:href="#DejaVuSans-20" transform="translate(139.262695 0.78125)"/>
      <use xlink:href="#DejaVuSans-Oblique-47" transform="translate(171.049805 0.78125)"/>
     </g>
    </g>
   </g>
  </g>
  <g id="axes_2">
   <g id="patch_8">
    <path d="M 217.922869 94.87875 
L 370.104687 94.87875 
L 370.104687 19.27875 
L 217.922869 19.27875 
z
" style="fill: #ffffff"/>
   </g>
   <g id="matplotlib.axis_3">
    <g id="xtick_6">
     <g id="line2d_17">
      <g>
       <use xlink:href="#m753c45c19a" x="217.922869" y="94.87875" style="stroke: #000000; stroke-width: 0.8"/>
      </g>
     </g>
    </g>
    <g id="xtick_7">
     <g id="line2d_18">
      <g>
       <use xlink:href="#m753c45c19a" x="255.968324" y="94.87875" style="stroke: #000000; stroke-width: 0.8"/>
      </g>
     </g>
    </g>
    <g id="xtick_8">
     <g id="line2d_19">
      <g>
       <use xlink:href="#m753c45c19a" x="294.013778" y="94.87875" style="stroke: #000000; stroke-width: 0.8"/>
      </g>
     </g>
    </g>
    <g id="xtick_9">
     <g id="line2d_20">
      <g>
       <use xlink:href="#m753c45c19a" x="332.059233" y="94.87875" style="stroke: #000000; stroke-width: 0.8"/>
      </g>
     </g>
    </g>
    <g id="xtick_10">
     <g id="line2d_21">
      <g>
       <use xlink:href="#m753c45c19a" x="370.104687" y="94.87875" style="stroke: #000000; stroke-width: 0.8"/>
      </g>
     </g>
    </g>
   </g>
   <g id="matplotlib.axis_4">
    <g id="ytick_4">
     <g id="line2d_22">
      <g>
       <use xlink:href="#m2e008d26fc" x="217.922869" y="75.558324" style="stroke: #000000; stroke-width: 0.8"/>
      </g>
     </g>
    </g>
    <g id="ytick_5">
     <g id="line2d_23">
      <g>
       <use xlink:href="#m2e008d26fc" x="217.922869" y="49.069864" style="stroke: #000000; stroke-width: 0.8"/>
      </g>
     </g>
    </g>
    <g id="ytick_6">
     <g id="line2d_24">
      <g>
       <use xlink:href="#m2e008d26fc" x="217.922869" y="22.581404" style="stroke: #000000; stroke-width: 0.8"/>
      </g>
     </g>
    </g>
   </g>
   <g id="line2d_25">
    <path d="M 217.922869 34.893289 
L 219.064233 35.667244 
L 219.825142 36.01482 
L 220.586051 36.126148 
L 222.488324 36.02102 
L 224.010142 36.603155 
L 224.771051 36.684767 
L 225.53196 36.499687 
L 225.912415 36.277174 
L 226.673324 35.467083 
L 228.195142 33.513103 
L 228.575597 33.22479 
L 228.956051 33.193617 
L 229.71696 33.472607 
L 230.858324 34.177212 
L 233.90196 36.078422 
L 234.662869 36.048069 
L 235.804233 35.67993 
L 236.184687 35.770803 
L 237.706506 36.800794 
L 238.08696 36.846809 
L 238.467415 36.73087 
L 239.228324 36.202484 
L 241.891506 33.713218 
L 242.652415 33.352018 
L 243.413324 33.420202 
L 244.174233 33.77652 
L 245.315597 34.68242 
L 246.45696 35.570438 
L 247.598324 35.957939 
L 248.739687 35.961774 
L 249.500597 35.906351 
L 250.261506 36.134123 
L 251.022415 36.364397 
L 251.783324 36.481051 
L 252.544233 36.346646 
L 253.305142 35.990501 
L 254.066051 35.352659 
L 255.587869 33.660678 
L 256.348778 33.242803 
L 257.109687 33.340882 
L 257.870597 33.678318 
L 260.914233 35.685964 
L 261.675142 35.909251 
L 266.240597 36.127324 
L 267.001506 35.850511 
L 267.762415 35.29064 
L 269.664687 33.423185 
L 270.045142 33.254914 
L 270.806051 33.279215 
L 271.56696 33.58139 
L 275.371506 35.797128 
L 276.512869 35.954585 
L 278.034687 35.808565 
L 281.078324 35.870288 
L 281.839233 35.457582 
L 282.980597 34.411331 
L 284.12196 33.356216 
L 284.882869 33.008531 
L 285.263324 33.048238 
L 286.024233 33.542945 
L 287.926506 35.349183 
L 289.067869 35.821571 
L 291.731051 36.270274 
L 293.252869 36.94639 
L 294.013778 36.989904 
L 294.394233 36.83413 
L 295.155142 36.130404 
L 297.818324 33.283504 
L 298.579233 33.2018 
L 299.340142 33.425191 
L 300.101051 33.85176 
L 302.383778 35.437806 
L 303.525142 35.843728 
L 305.04696 36.12898 
L 307.710142 36.145356 
L 308.851506 35.810462 
L 309.612415 35.207652 
L 311.134233 33.469605 
L 311.514687 33.207112 
L 311.895142 33.151703 
L 312.656051 33.410048 
L 313.797415 34.057514 
L 316.460597 35.820265 
L 317.221506 36.013573 
L 317.982415 35.886925 
L 318.743324 35.664854 
L 319.504233 35.884047 
L 320.645597 36.436236 
L 321.406506 36.524729 
L 322.167415 36.338271 
L 322.928324 35.895901 
L 323.689233 35.133495 
L 325.211051 33.398786 
L 325.591506 33.139331 
L 326.352415 33.140066 
L 327.113324 33.478468 
L 328.635142 34.555839 
L 329.776506 35.298183 
L 330.917869 35.827959 
L 332.059233 36.028783 
L 333.200597 35.995693 
L 335.102869 36.313838 
L 335.863778 36.173637 
L 336.624687 35.73924 
L 337.766051 34.707189 
L 338.907415 33.604007 
L 339.287869 33.378872 
L 340.048778 33.299244 
L 340.809687 33.5279 
L 341.570597 33.911188 
L 343.853324 35.518597 
L 344.614233 35.697435 
L 346.136051 35.80815 
L 348.038324 36.719058 
L 348.799233 36.624641 
L 349.560142 36.190781 
L 351.08196 34.939988 
L 352.603778 33.43929 
L 352.984233 33.224393 
L 353.745142 33.170391 
L 354.506051 33.444002 
L 355.26696 33.943227 
L 356.788778 35.003965 
L 358.691051 35.919661 
L 359.45196 36.101138 
L 360.212869 36.12216 
L 364.017415 35.589893 
L 364.778324 35.139401 
L 367.061051 33.324395 
L 367.441506 33.189056 
L 368.202415 33.271546 
L 369.343778 33.867213 
L 369.724233 34.115518 
L 369.724233 34.115518 
" clip-path="url(#p80dd249828)" style="fill: none; stroke: #1f77b4; stroke-linecap: square"/>
   </g>
   <g id="line2d_26">
    <path d="M 217.922869 66.242205 
L 219.064233 66.267115 
L 219.825142 66.108456 
L 220.586051 65.692302 
L 221.34696 65.126779 
L 222.107869 64.354953 
L 222.868778 63.953765 
L 223.629687 63.870689 
L 225.151506 64.102941 
L 226.292869 64.340748 
L 227.814687 64.297785 
L 228.575597 64.080995 
L 230.477869 62.948719 
L 231.999687 62.438889 
L 235.423778 60.669959 
L 236.565142 59.95994 
L 237.706506 59.658893 
L 239.989233 59.28846 
L 241.130597 58.860058 
L 242.652415 57.770921 
L 243.413324 57.172466 
L 244.554687 56.856272 
L 245.696051 56.842756 
L 246.837415 56.701348 
L 247.598324 56.617479 
L 248.359233 56.305292 
L 249.120142 55.838787 
L 250.261506 54.898302 
L 251.022415 54.616849 
L 251.783324 54.543534 
L 255.587869 54.778308 
L 256.348778 54.590083 
L 256.729233 54.461375 
L 257.490142 54.009404 
L 258.251051 53.72821 
L 259.01196 53.621399 
L 262.816506 53.628465 
L 263.577415 53.436042 
L 265.099233 52.834982 
L 266.240597 52.803225 
L 267.762415 52.952799 
L 270.425597 53.123193 
L 272.327869 52.709341 
L 273.469233 53.026273 
L 275.75196 53.61713 
L 276.512869 53.561212 
L 278.415142 52.819057 
L 279.176051 52.999182 
L 279.93696 53.371195 
L 281.078324 53.949037 
L 281.839233 54.118387 
L 282.600142 54.105513 
L 283.741506 53.920267 
L 285.643778 53.464495 
L 287.926506 53.523498 
L 289.067869 53.152385 
L 290.209233 52.666863 
L 292.111506 51.653345 
L 293.252869 51.573762 
L 294.774687 51.692449 
L 296.67696 51.893342 
L 298.198778 51.925182 
L 298.959687 51.742737 
L 300.86196 50.858373 
L 302.383778 50.294109 
L 303.525142 49.630644 
L 304.666506 48.638049 
L 305.427415 48.014378 
L 306.188324 47.702639 
L 306.949233 47.607016 
L 309.992869 47.736696 
L 310.753778 47.537374 
L 311.514687 47.07887 
L 312.656051 46.140738 
L 313.036506 45.916395 
L 313.797415 45.780944 
L 315.319233 45.721482 
L 316.841051 45.730056 
L 317.982415 45.439709 
L 319.123778 44.584156 
L 319.884687 43.95571 
L 320.645597 43.577796 
L 321.78696 43.375767 
L 325.97196 43.155692 
L 326.732869 42.840579 
L 327.874233 42.088537 
L 332.439687 39.759253 
L 333.961506 38.609817 
L 335.102869 38.101265 
L 337.766051 37.423078 
L 339.668324 36.32256 
L 341.190142 35.17031 
L 343.472869 34.032898 
L 346.89696 32.674055 
L 348.799233 31.340658 
L 350.701506 30.446239 
L 353.364687 29.354778 
L 354.125597 28.881687 
L 354.886506 28.322387 
L 356.027869 27.741288 
L 359.45196 26.766041 
L 360.593324 25.932664 
L 361.354233 25.28522 
L 362.115142 24.886614 
L 362.876051 24.677205 
L 364.017415 24.614341 
L 366.300142 24.466585 
L 367.061051 24.246251 
L 368.202415 23.559224 
L 368.963324 23.023358 
L 369.724233 22.715114 
L 369.724233 22.715114 
" clip-path="url(#p80dd249828)" style="fill: none; stroke-dasharray: 3.7,1.6; stroke-dashoffset: 0; stroke: #1f77b4"/>
   </g>
   <g id="line2d_27">
    <path d="M 217.922869 34.893289 
L 219.064233 35.661243 
L 219.825142 36.00274 
L 220.586051 36.10173 
L 222.488324 36.054874 
L 223.629687 36.485611 
L 224.390597 36.663201 
L 225.151506 36.528352 
L 225.912415 36.152918 
L 226.673324 35.28571 
L 228.195142 33.47357 
L 228.575597 33.231284 
L 228.956051 33.235353 
L 230.097415 33.74625 
L 233.90196 36.098129 
L 234.662869 36.044713 
L 235.804233 35.801333 
L 236.565142 36.043585 
L 237.706506 36.437287 
L 238.467415 36.440701 
L 239.228324 36.183152 
L 239.989233 35.641645 
L 242.27196 33.472862 
L 242.652415 33.27756 
L 243.413324 33.360474 
L 244.174233 33.660478 
L 245.315597 34.488091 
L 246.45696 35.468835 
L 247.217869 35.916249 
L 247.978778 36.069565 
L 248.739687 35.965186 
L 249.881051 35.719066 
L 250.261506 35.852867 
L 251.783324 36.778695 
L 252.163778 36.821373 
L 252.924687 36.516879 
L 254.066051 35.633206 
L 256.348778 33.266902 
L 256.729233 33.15279 
L 257.490142 33.335769 
L 258.251051 33.805146 
L 261.294687 35.842464 
L 262.055597 36.071562 
L 262.816506 36.043281 
L 263.957869 35.778 
L 265.099233 36.1321 
L 265.860142 36.49235 
L 266.240597 36.54736 
L 266.621051 36.483783 
L 267.38196 36.040412 
L 270.425597 33.312575 
L 270.806051 33.184702 
L 271.56696 33.312895 
L 272.327869 33.751715 
L 274.610597 35.649415 
L 275.371506 35.982266 
L 276.132415 36.003647 
L 277.654233 35.814002 
L 278.034687 35.933139 
L 279.93696 37.00763 
L 280.317415 36.982211 
L 281.078324 36.580853 
L 281.839233 35.745134 
L 283.361051 33.700636 
L 283.741506 33.338961 
L 284.12196 33.170556 
L 284.882869 33.337874 
L 286.404687 34.308064 
L 288.687415 35.830017 
L 289.448324 36.063052 
L 290.209233 36.111663 
L 290.970142 36.022733 
L 291.350597 36.039822 
L 292.872415 36.488992 
L 293.633324 36.469 
L 294.394233 36.103617 
L 295.155142 35.544602 
L 296.67696 34.055257 
L 297.437869 33.357249 
L 297.818324 33.173532 
L 298.579233 33.336864 
L 299.720597 34.130473 
L 301.622869 35.411754 
L 302.764233 35.992839 
L 303.525142 36.118277 
L 304.286051 35.934084 
L 304.666506 35.767828 
L 305.04696 35.74686 
L 305.807869 36.034418 
L 306.949233 36.65767 
L 307.329687 36.709789 
L 307.710142 36.611115 
L 308.471051 36.121111 
L 309.23196 35.322837 
L 310.753778 33.594956 
L 311.514687 33.162721 
L 312.275597 33.275466 
L 313.036506 33.774092 
L 314.558324 34.880219 
L 316.841051 36.091771 
L 317.60196 36.23241 
L 319.504233 35.918697 
L 321.78696 36.054807 
L 322.547869 35.699214 
L 323.689233 34.746185 
L 325.211051 33.347871 
L 325.591506 33.154163 
L 326.352415 33.240813 
L 327.113324 33.634318 
L 329.396051 35.337342 
L 330.15696 35.732507 
L 331.298324 36.036308 
L 332.059233 35.959304 
L 332.820142 35.751651 
L 333.200597 35.775837 
L 334.34196 36.268966 
L 335.102869 36.613793 
L 335.483324 36.670273 
L 336.244233 36.431905 
L 337.005142 35.798666 
L 338.907415 33.536337 
L 339.668324 33.118049 
L 340.048778 33.105352 
L 340.809687 33.393985 
L 341.951051 34.341466 
L 343.472869 35.638979 
L 344.233778 36.049911 
L 345.375142 36.138342 
L 346.89696 35.918853 
L 348.799233 36.671415 
L 349.560142 36.580788 
L 350.321051 36.240535 
L 351.08196 35.46785 
L 352.603778 33.612906 
L 352.984233 33.314007 
L 353.364687 33.178731 
L 354.125597 33.336908 
L 354.886506 33.738652 
L 358.310597 35.937661 
L 359.071506 36.001185 
L 360.593324 35.794624 
L 362.115142 36.377229 
L 362.876051 36.377965 
L 364.017415 35.88748 
L 364.778324 35.331067 
L 365.919687 34.1612 
L 366.680597 33.426306 
L 367.061051 33.196116 
L 367.441506 33.185553 
L 368.202415 33.460029 
L 368.963324 34.012861 
L 369.724233 34.706037 
L 369.724233 34.706037 
" clip-path="url(#p80dd249828)" style="fill: none; stroke: #ff7f0e; stroke-linecap: square"/>
   </g>
   <g id="line2d_28">
    <path d="M 217.922869 68.96203 
L 219.825142 69.208542 
L 220.586051 69.019629 
L 221.727415 68.563947 
L 222.488324 68.10236 
L 223.249233 67.907085 
L 224.390597 68.021529 
L 227.434233 68.451029 
L 228.195142 68.463255 
L 228.956051 68.218825 
L 229.71696 67.857953 
L 230.858324 67.70381 
L 233.90196 67.426049 
L 234.662869 67.035333 
L 236.184687 65.943755 
L 236.945597 65.842636 
L 237.706506 66.034179 
L 238.847869 66.649547 
L 239.989233 67.36021 
L 240.750142 67.670902 
L 241.511051 67.777074 
L 242.27196 67.646466 
L 243.032869 67.26041 
L 243.793778 66.885442 
L 244.554687 66.860791 
L 247.978778 67.070459 
L 249.120142 66.897534 
L 251.022415 66.256076 
L 252.163778 66.267656 
L 255.968324 66.485775 
L 256.729233 66.270066 
L 257.490142 65.904141 
L 258.251051 65.776897 
L 259.772869 65.929913 
L 260.914233 65.962255 
L 262.436051 65.594499 
L 263.19696 65.241213 
L 263.957869 64.80916 
L 264.718778 64.651818 
L 265.479687 64.793665 
L 266.240597 65.118212 
L 267.762415 65.770546 
L 268.903778 65.954472 
L 269.664687 65.913059 
L 270.425597 65.710752 
L 271.56696 65.225982 
L 272.327869 65.185767 
L 274.230142 65.365159 
L 274.991051 65.243975 
L 278.415142 64.194639 
L 280.317415 63.896894 
L 281.839233 63.390792 
L 283.361051 62.614314 
L 284.882869 61.636425 
L 285.643778 61.430578 
L 286.404687 61.382647 
L 287.165597 61.408001 
L 290.589687 60.959896 
L 290.970142 60.804116 
L 291.731051 60.307006 
L 292.49196 60.055089 
L 294.013778 59.799313 
L 295.916051 59.46476 
L 297.057415 59.104028 
L 299.340142 58.099137 
L 301.622869 57.970178 
L 305.04696 57.006418 
L 305.807869 56.684954 
L 306.949233 56.509384 
L 308.090597 56.285718 
L 309.992869 55.612399 
L 311.134233 55.089576 
L 312.275597 54.433757 
L 313.41696 54.270978 
L 314.558324 54.47682 
L 315.319233 54.651307 
L 316.841051 54.82782 
L 317.60196 54.628704 
L 318.743324 53.906385 
L 319.504233 53.464142 
L 320.265142 53.332694 
L 321.406506 53.576211 
L 322.547869 54.004115 
L 323.689233 54.210597 
L 324.830597 54.137513 
L 325.591506 53.866471 
L 326.732869 53.291469 
L 327.493778 53.274143 
L 329.015597 53.471913 
L 329.776506 53.526868 
L 331.298324 53.265742 
L 332.820142 52.543501 
L 333.581051 52.100271 
L 334.722415 51.909832 
L 335.863778 51.852243 
L 336.624687 51.589108 
L 337.385597 51.093274 
L 338.146506 50.438168 
L 340.048778 48.236735 
L 340.809687 47.876065 
L 341.951051 47.746061 
L 343.472869 47.648566 
L 344.994687 47.253877 
L 345.755597 46.834981 
L 346.516506 46.227378 
L 348.038324 44.760652 
L 349.179688 44.016866 
L 350.701506 43.014306 
L 351.842869 42.125887 
L 352.984233 41.034715 
L 354.886506 38.757794 
L 359.45196 35.220241 
L 360.593324 33.765229 
L 361.734687 32.431246 
L 362.876051 31.462554 
L 364.017415 30.524469 
L 364.778324 29.709919 
L 365.539233 28.76569 
L 367.061051 26.419964 
L 367.82196 25.212015 
L 368.963324 23.866267 
L 369.724233 23.025153 
L 369.724233 23.025153 
" clip-path="url(#p80dd249828)" style="fill: none; stroke-dasharray: 3.7,1.6; stroke-dashoffset: 0; stroke: #ff7f0e"/>
   </g>
   <g id="patch_9">
    <path d="M 217.922869 94.87875 
L 217.922869 19.27875 
" style="fill: none; stroke: #000000; stroke-width: 0.8; stroke-linejoin: miter; stroke-linecap: square"/>
   </g>
   <g id="patch_10">
    <path d="M 370.104687 94.87875 
L 370.104687 19.27875 
" style="fill: none; stroke: #000000; stroke-width: 0.8; stroke-linejoin: miter; stroke-linecap: square"/>
   </g>
   <g id="patch_11">
    <path d="M 217.922869 94.87875 
L 370.104687 94.87875 
" style="fill: none; stroke: #000000; stroke-width: 0.8; stroke-linejoin: miter; stroke-linecap: square"/>
   </g>
   <g id="patch_12">
    <path d="M 217.922869 19.27875 
L 370.104687 19.27875 
" style="fill: none; stroke: #000000; stroke-width: 0.8; stroke-linejoin: miter; stroke-linecap: square"/>
   </g>
   <g id="text_9">
    <!-- eps. 4 -->
    <g transform="translate(281.841903 13.27875)scale(0.08 -0.08)">
     <defs>
      <path id="DejaVuSans-34" d="M 2419 4116 
L 825 1625 
L 2419 1625 
L 2419 4116 
z
M 2253 4666 
L 3047 4666 
L 3047 1625 
L 3713 1625 
L 3713 1100 
L 3047 1100 
L 3047 0 
L 2419 0 
L 2419 1100 
L 313 1100 
L 313 1709 
L 2253 4666 
z
" transform="scale(0.015625)"/>
     </defs>
     <use xlink:href="#DejaVuSans-65"/>
     <use xlink:href="#DejaVuSans-70" x="61.523438"/>
     <use xlink:href="#DejaVuSans-73" x="125"/>
     <use xlink:href="#DejaVuSans-2e" x="177.099609"/>
     <use xlink:href="#DejaVuSans-20" x="208.886719"/>
     <use xlink:href="#DejaVuSans-34" x="240.673828"/>
    </g>
   </g>
  </g>
  <g id="axes_3">
   <g id="patch_13">
    <path d="M 35.304688 185.59875 
L 187.486506 185.59875 
L 187.486506 109.99875 
L 35.304688 109.99875 
z
" style="fill: #ffffff"/>
   </g>
   <g id="matplotlib.axis_5">
    <g id="xtick_11">
     <g id="line2d_29">
      <g>
       <use xlink:href="#m753c45c19a" x="35.304688" y="185.59875" style="stroke: #000000; stroke-width: 0.8"/>
      </g>
     </g>
     <g id="text_10">
      <!-- 0 -->
      <g transform="translate(32.123438 200.197188)scale(0.1 -0.1)">
       <use xlink:href="#DejaVuSans-30"/>
      </g>
     </g>
    </g>
    <g id="xtick_12">
     <g id="line2d_30">
      <g>
       <use xlink:href="#m753c45c19a" x="73.350142" y="185.59875" style="stroke: #000000; stroke-width: 0.8"/>
      </g>
     </g>
     <g id="text_11">
      <!-- 100 -->
      <g transform="translate(63.806392 200.197188)scale(0.1 -0.1)">
       <use xlink:href="#DejaVuSans-31"/>
       <use xlink:href="#DejaVuSans-30" x="63.623047"/>
       <use xlink:href="#DejaVuSans-30" x="127.246094"/>
      </g>
     </g>
    </g>
    <g id="xtick_13">
     <g id="line2d_31">
      <g>
       <use xlink:href="#m753c45c19a" x="111.395597" y="185.59875" style="stroke: #000000; stroke-width: 0.8"/>
      </g>
     </g>
     <g id="text_12">
      <!-- 200 -->
      <g transform="translate(101.851847 200.197188)scale(0.1 -0.1)">
       <defs>
        <path id="DejaVuSans-32" d="M 1228 531 
L 3431 531 
L 3431 0 
L 469 0 
L 469 531 
Q 828 903 1448 1529 
Q 2069 2156 2228 2338 
Q 2531 2678 2651 2914 
Q 2772 3150 2772 3378 
Q 2772 3750 2511 3984 
Q 2250 4219 1831 4219 
Q 1534 4219 1204 4116 
Q 875 4013 500 3803 
L 500 4441 
Q 881 4594 1212 4672 
Q 1544 4750 1819 4750 
Q 2544 4750 2975 4387 
Q 3406 4025 3406 3419 
Q 3406 3131 3298 2873 
Q 3191 2616 2906 2266 
Q 2828 2175 2409 1742 
Q 1991 1309 1228 531 
z
" transform="scale(0.015625)"/>
       </defs>
       <use xlink:href="#DejaVuSans-32"/>
       <use xlink:href="#DejaVuSans-30" x="63.623047"/>
       <use xlink:href="#DejaVuSans-30" x="127.246094"/>
      </g>
     </g>
    </g>
    <g id="xtick_14">
     <g id="line2d_32">
      <g>
       <use xlink:href="#m753c45c19a" x="149.441051" y="185.59875" style="stroke: #000000; stroke-width: 0.8"/>
      </g>
     </g>
     <g id="text_13">
      <!-- 300 -->
      <g transform="translate(139.897301 200.197188)scale(0.1 -0.1)">
       <defs>
        <path id="DejaVuSans-33" d="M 2597 2516 
Q 3050 2419 3304 2112 
Q 3559 1806 3559 1356 
Q 3559 666 3084 287 
Q 2609 -91 1734 -91 
Q 1441 -91 1130 -33 
Q 819 25 488 141 
L 488 750 
Q 750 597 1062 519 
Q 1375 441 1716 441 
Q 2309 441 2620 675 
Q 2931 909 2931 1356 
Q 2931 1769 2642 2001 
Q 2353 2234 1838 2234 
L 1294 2234 
L 1294 2753 
L 1863 2753 
Q 2328 2753 2575 2939 
Q 2822 3125 2822 3475 
Q 2822 3834 2567 4026 
Q 2313 4219 1838 4219 
Q 1578 4219 1281 4162 
Q 984 4106 628 3988 
L 628 4550 
Q 988 4650 1302 4700 
Q 1616 4750 1894 4750 
Q 2613 4750 3031 4423 
Q 3450 4097 3450 3541 
Q 3450 3153 3228 2886 
Q 3006 2619 2597 2516 
z
" transform="scale(0.015625)"/>
       </defs>
       <use xlink:href="#DejaVuSans-33"/>
       <use xlink:href="#DejaVuSans-30" x="63.623047"/>
       <use xlink:href="#DejaVuSans-30" x="127.246094"/>
      </g>
     </g>
    </g>
    <g id="xtick_15">
     <g id="line2d_33">
      <g>
       <use xlink:href="#m753c45c19a" x="187.486506" y="185.59875" style="stroke: #000000; stroke-width: 0.8"/>
      </g>
     </g>
     <g id="text_14">
      <!-- 400 -->
      <g transform="translate(177.942756 200.197188)scale(0.1 -0.1)">
       <use xlink:href="#DejaVuSans-34"/>
       <use xlink:href="#DejaVuSans-30" x="63.623047"/>
       <use xlink:href="#DejaVuSans-30" x="127.246094"/>
      </g>
     </g>
    </g>
    <g id="text_15">
     <!-- interaction -->
     <g transform="translate(84.354972 213.875313)scale(0.1 -0.1)">
      <defs>
       <path id="DejaVuSans-69" d="M 603 3500 
L 1178 3500 
L 1178 0 
L 603 0 
L 603 3500 
z
M 603 4863 
L 1178 4863 
L 1178 4134 
L 603 4134 
L 603 4863 
z
" transform="scale(0.015625)"/>
       <path id="DejaVuSans-6e" d="M 3513 2113 
L 3513 0 
L 2938 0 
L 2938 2094 
Q 2938 2591 2744 2837 
Q 2550 3084 2163 3084 
Q 1697 3084 1428 2787 
Q 1159 2491 1159 1978 
L 1159 0 
L 581 0 
L 581 3500 
L 1159 3500 
L 1159 2956 
Q 1366 3272 1645 3428 
Q 1925 3584 2291 3584 
Q 2894 3584 3203 3211 
Q 3513 2838 3513 2113 
z
" transform="scale(0.015625)"/>
       <path id="DejaVuSans-74" d="M 1172 4494 
L 1172 3500 
L 2356 3500 
L 2356 3053 
L 1172 3053 
L 1172 1153 
Q 1172 725 1289 603 
Q 1406 481 1766 481 
L 2356 481 
L 2356 0 
L 1766 0 
Q 1100 0 847 248 
Q 594 497 594 1153 
L 594 3053 
L 172 3053 
L 172 3500 
L 594 3500 
L 594 4494 
L 1172 4494 
z
" transform="scale(0.015625)"/>
       <path id="DejaVuSans-72" d="M 2631 2963 
Q 2534 3019 2420 3045 
Q 2306 3072 2169 3072 
Q 1681 3072 1420 2755 
Q 1159 2438 1159 1844 
L 1159 0 
L 581 0 
L 581 3500 
L 1159 3500 
L 1159 2956 
Q 1341 3275 1631 3429 
Q 1922 3584 2338 3584 
Q 2397 3584 2469 3576 
Q 2541 3569 2628 3553 
L 2631 2963 
z
" transform="scale(0.015625)"/>
       <path id="DejaVuSans-61" d="M 2194 1759 
Q 1497 1759 1228 1600 
Q 959 1441 959 1056 
Q 959 750 1161 570 
Q 1363 391 1709 391 
Q 2188 391 2477 730 
Q 2766 1069 2766 1631 
L 2766 1759 
L 2194 1759 
z
M 3341 1997 
L 3341 0 
L 2766 0 
L 2766 531 
Q 2569 213 2275 61 
Q 1981 -91 1556 -91 
Q 1019 -91 701 211 
Q 384 513 384 1019 
Q 384 1609 779 1909 
Q 1175 2209 1959 2209 
L 2766 2209 
L 2766 2266 
Q 2766 2663 2505 2880 
Q 2244 3097 1772 3097 
Q 1472 3097 1187 3025 
Q 903 2953 641 2809 
L 641 3341 
Q 956 3463 1253 3523 
Q 1550 3584 1831 3584 
Q 2591 3584 2966 3190 
Q 3341 2797 3341 1997 
z
" transform="scale(0.015625)"/>
       <path id="DejaVuSans-63" d="M 3122 3366 
L 3122 2828 
Q 2878 2963 2633 3030 
Q 2388 3097 2138 3097 
Q 1578 3097 1268 2742 
Q 959 2388 959 1747 
Q 959 1106 1268 751 
Q 1578 397 2138 397 
Q 2388 397 2633 464 
Q 2878 531 3122 666 
L 3122 134 
Q 2881 22 2623 -34 
Q 2366 -91 2075 -91 
Q 1284 -91 818 406 
Q 353 903 353 1747 
Q 353 2603 823 3093 
Q 1294 3584 2113 3584 
Q 2378 3584 2631 3529 
Q 2884 3475 3122 3366 
z
" transform="scale(0.015625)"/>
       <path id="DejaVuSans-6f" d="M 1959 3097 
Q 1497 3097 1228 2736 
Q 959 2375 959 1747 
Q 959 1119 1226 758 
Q 1494 397 1959 397 
Q 2419 397 2687 759 
Q 2956 1122 2956 1747 
Q 2956 2369 2687 2733 
Q 2419 3097 1959 3097 
z
M 1959 3584 
Q 2709 3584 3137 3096 
Q 3566 2609 3566 1747 
Q 3566 888 3137 398 
Q 2709 -91 1959 -91 
Q 1206 -91 779 398 
Q 353 888 353 1747 
Q 353 2609 779 3096 
Q 1206 3584 1959 3584 
z
" transform="scale(0.015625)"/>
      </defs>
      <use xlink:href="#DejaVuSans-69"/>
      <use xlink:href="#DejaVuSans-6e" x="27.783203"/>
      <use xlink:href="#DejaVuSans-74" x="91.162109"/>
      <use xlink:href="#DejaVuSans-65" x="130.371094"/>
      <use xlink:href="#DejaVuSans-72" x="191.894531"/>
      <use xlink:href="#DejaVuSans-61" x="233.007812"/>
      <use xlink:href="#DejaVuSans-63" x="294.287109"/>
      <use xlink:href="#DejaVuSans-74" x="349.267578"/>
      <use xlink:href="#DejaVuSans-69" x="388.476562"/>
      <use xlink:href="#DejaVuSans-6f" x="416.259766"/>
      <use xlink:href="#DejaVuSans-6e" x="477.441406"/>
     </g>
    </g>
   </g>
   <g id="matplotlib.axis_6">
    <g id="ytick_7">
     <g id="line2d_34">
      <g>
       <use xlink:href="#m2e008d26fc" x="35.304688" y="166.278324" style="stroke: #000000; stroke-width: 0.8"/>
      </g>
     </g>
     <g id="text_16">
      <!-- −10 -->
      <g transform="translate(7.2 170.077543)scale(0.1 -0.1)">
       <use xlink:href="#DejaVuSans-2212"/>
       <use xlink:href="#DejaVuSans-31" x="83.789062"/>
       <use xlink:href="#DejaVuSans-30" x="147.412109"/>
      </g>
     </g>
    </g>
    <g id="ytick_8">
     <g id="line2d_35">
      <g>
       <use xlink:href="#m2e008d26fc" x="35.304688" y="139.789864" style="stroke: #000000; stroke-width: 0.8"/>
      </g>
     </g>
     <g id="text_17">
      <!-- −5 -->
      <g transform="translate(13.5625 143.589083)scale(0.1 -0.1)">
       <use xlink:href="#DejaVuSans-2212"/>
       <use xlink:href="#DejaVuSans-35" x="83.789062"/>
      </g>
     </g>
    </g>
    <g id="ytick_9">
     <g id="line2d_36">
      <g>
       <use xlink:href="#m2e008d26fc" x="35.304688" y="113.301404" style="stroke: #000000; stroke-width: 0.8"/>
      </g>
     </g>
     <g id="text_18">
      <!-- 0 -->
      <g transform="translate(21.942188 117.100623)scale(0.1 -0.1)">
       <use xlink:href="#DejaVuSans-30"/>
      </g>
     </g>
    </g>
   </g>
   <g id="line2d_37">
    <path d="M 35.304688 130.668445 
L 36.446051 131.782587 
L 37.20696 132.206063 
L 37.587415 132.274326 
L 38.728778 131.877929 
L 39.870142 131.066831 
L 42.533324 131.007234 
L 42.913778 130.850666 
L 43.674688 130.110126 
L 45.196506 128.203121 
L 45.957415 127.569509 
L 46.337869 127.483921 
L 47.098778 128.049951 
L 48.240142 129.674604 
L 49.381506 131.104516 
L 50.142415 131.702069 
L 50.903324 131.96138 
L 52.044688 132.044849 
L 52.425142 131.999944 
L 52.805597 131.836197 
L 54.327415 130.740248 
L 55.088324 130.523711 
L 56.990597 130.484044 
L 57.751506 129.669605 
L 58.892869 128.211426 
L 59.653778 127.640497 
L 60.034233 127.616636 
L 60.795142 128.182711 
L 61.556051 129.18992 
L 63.077869 131.210149 
L 63.838778 131.822008 
L 64.599688 132.11813 
L 65.360597 132.066418 
L 66.121506 131.883073 
L 67.262869 131.310515 
L 68.404233 131.22022 
L 69.165142 131.189997 
L 69.926051 130.828421 
L 70.68696 130.158815 
L 72.208778 128.401877 
L 72.969687 127.830362 
L 73.350142 127.74422 
L 73.730597 127.878004 
L 74.491506 128.530614 
L 77.535142 131.795321 
L 78.296051 132.174354 
L 79.05696 132.081175 
L 79.437415 131.961463 
L 80.959233 131.045852 
L 82.861506 131.153456 
L 83.622415 130.792124 
L 84.383324 130.149146 
L 86.285597 128.016632 
L 86.666051 127.706175 
L 87.046506 127.543994 
L 87.42696 127.621959 
L 88.187869 128.209183 
L 89.329233 129.644423 
L 90.851051 131.499933 
L 91.61196 132.127679 
L 91.992415 132.282355 
L 92.372869 132.270832 
L 93.514233 131.789479 
L 94.275142 131.293613 
L 94.655597 131.211295 
L 95.79696 131.276463 
L 96.557869 131.202477 
L 97.699233 130.739107 
L 98.460142 129.992251 
L 99.98196 128.246848 
L 100.742869 127.664702 
L 101.123324 127.566523 
L 101.884233 127.946032 
L 102.264687 128.262083 
L 103.025597 129.313401 
L 104.547415 131.637208 
L 105.308324 132.241357 
L 106.069233 132.243984 
L 107.210597 131.853864 
L 108.35196 131.185443 
L 108.732415 131.119149 
L 110.254233 131.408686 
L 111.015142 131.168871 
L 111.776051 130.576695 
L 113.678324 128.105147 
L 114.058778 127.845598 
L 114.439233 127.760115 
L 114.819687 127.91786 
L 115.580597 128.617307 
L 117.102415 130.465033 
L 118.243778 131.461791 
L 119.385142 132.119268 
L 120.146051 132.160801 
L 120.526506 132.035806 
L 120.90696 131.730982 
L 121.667869 130.799572 
L 122.048324 130.567852 
L 122.428778 130.528657 
L 123.189687 130.763962 
L 123.950597 130.907926 
L 124.711506 130.642757 
L 125.09196 130.352083 
L 126.994233 128.126594 
L 127.374687 127.880007 
L 127.755142 127.837223 
L 128.135597 127.948553 
L 128.896506 128.724255 
L 129.657415 129.596695 
L 130.798778 130.498223 
L 131.940142 131.440934 
L 132.320597 131.859061 
L 133.081506 132.189089 
L 133.842415 132.113155 
L 134.603324 131.507501 
L 135.364233 130.734464 
L 136.125142 130.623716 
L 137.64696 130.664508 
L 138.407869 130.26302 
L 139.549233 129.179437 
L 140.690597 128.025848 
L 141.451506 127.538775 
L 141.83196 127.567418 
L 142.212415 127.760167 
L 142.973324 128.460586 
L 144.875597 130.475271 
L 146.397415 131.571273 
L 147.538778 131.849799 
L 148.299687 131.556657 
L 149.441051 130.788047 
L 152.484687 129.976853 
L 153.245597 129.44348 
L 155.147869 127.48053 
L 155.528324 127.274984 
L 155.908778 127.260219 
L 156.289233 127.400602 
L 157.050142 127.996698 
L 159.713324 130.642452 
L 160.854687 131.305478 
L 161.615597 131.524466 
L 162.376506 131.396518 
L 163.137415 130.99244 
L 164.278778 130.361141 
L 165.039687 130.165315 
L 166.94196 129.748114 
L 167.702869 129.251777 
L 169.985597 126.951495 
L 170.366051 126.897574 
L 170.746506 127.069745 
L 171.887869 128.238598 
L 173.409687 129.85293 
L 174.931506 131.165765 
L 175.692415 131.48968 
L 176.072869 131.493479 
L 176.833778 131.189493 
L 177.594687 130.748959 
L 177.975142 130.671701 
L 179.877415 131.122118 
L 180.257869 131.021517 
L 181.018778 130.405999 
L 181.779687 129.513331 
L 183.301506 127.464692 
L 184.062415 126.847815 
L 184.442869 126.82923 
L 184.823324 126.931983 
L 185.584233 127.561899 
L 186.725597 128.899491 
L 187.106051 129.348794 
L 187.106051 129.348794 
" clip-path="url(#p740a734efd)" style="fill: none; stroke: #1f77b4; stroke-linecap: square"/>
   </g>
   <g id="line2d_38">
    <path d="M 35.304688 164.24355 
L 36.446051 164.492426 
L 37.20696 164.509341 
L 37.967869 164.292705 
L 38.728778 163.955379 
L 39.489688 163.380303 
L 40.250597 163.142632 
L 41.011506 163.284723 
L 41.772415 163.568569 
L 42.913778 163.921356 
L 44.435597 163.918406 
L 45.57696 163.650734 
L 46.337869 163.383857 
L 47.098778 163.07723 
L 47.859688 163.053161 
L 48.620597 163.162524 
L 50.522869 163.653402 
L 51.283778 163.652455 
L 52.044688 163.377442 
L 52.805597 162.870148 
L 53.566506 162.287204 
L 54.327415 162.013535 
L 55.468778 162.223493 
L 56.990597 162.460763 
L 57.751506 162.45061 
L 59.273324 161.918827 
L 60.034233 161.539724 
L 60.795142 161.198249 
L 62.31696 161.105787 
L 64.219233 161.057085 
L 68.023778 160.031562 
L 71.067415 159.977616 
L 72.589233 159.659966 
L 73.350142 159.326624 
L 74.111051 158.931846 
L 74.87196 158.77641 
L 75.632869 158.85253 
L 77.535142 158.984943 
L 78.676506 158.722967 
L 79.437415 158.530932 
L 80.198324 158.123204 
L 80.578778 157.891085 
L 81.339687 157.769378 
L 82.100597 157.891327 
L 83.24196 158.238447 
L 84.763778 158.630359 
L 85.524687 158.728386 
L 86.666051 158.576906 
L 88.568324 157.943972 
L 91.61196 157.840777 
L 92.372869 157.466231 
L 93.514233 156.66424 
L 94.275142 156.024149 
L 94.655597 155.842929 
L 95.416506 155.793668 
L 96.177415 155.956398 
L 97.699233 156.516423 
L 98.460142 156.536558 
L 99.221051 156.239773 
L 99.98196 155.709661 
L 102.264687 154.013607 
L 103.406051 153.814321 
L 104.16696 153.575899 
L 104.927869 153.214131 
L 106.449687 151.823648 
L 107.591051 150.610733 
L 108.35196 149.854979 
L 109.112869 149.358758 
L 110.634687 148.535953 
L 111.776051 147.547306 
L 113.297869 145.657759 
L 115.200142 143.030977 
L 115.961051 142.487903 
L 119.004687 140.839992 
L 121.667869 138.902871 
L 123.189687 137.373838 
L 127.755142 132.926017 
L 128.896506 131.580835 
L 130.418324 130.405476 
L 132.320597 129.484745 
L 133.46196 128.85965 
L 134.222869 128.401029 
L 134.983778 127.794052 
L 136.505597 126.456381 
L 137.64696 125.890123 
L 138.788324 125.532528 
L 140.310142 125.264603 
L 141.451506 125.076174 
L 142.212415 124.805467 
L 142.973324 124.298329 
L 143.734233 123.771955 
L 144.875597 123.278767 
L 146.01696 123.077154 
L 148.680142 122.693083 
L 149.441051 122.45468 
L 151.343324 121.467388 
L 153.626051 120.971991 
L 156.289233 120.540554 
L 157.050142 120.196418 
L 158.191506 119.772579 
L 158.952415 119.663265 
L 161.615597 119.711419 
L 162.376506 119.511922 
L 163.137415 119.183323 
L 163.898324 118.667882 
L 164.659233 118.370108 
L 165.420142 118.346386 
L 166.561506 118.549197 
L 169.985597 119.330853 
L 170.746506 119.232205 
L 173.029233 118.421757 
L 174.551051 118.023028 
L 176.072869 117.346246 
L 178.736051 115.707261 
L 179.49696 115.568091 
L 180.257869 115.519279 
L 183.68196 115.437433 
L 184.442869 115.256368 
L 185.584233 114.612897 
L 186.345142 114.002382 
L 187.106051 113.54277 
L 187.106051 113.54277 
" clip-path="url(#p740a734efd)" style="fill: none; stroke-dasharray: 3.7,1.6; stroke-dashoffset: 0; stroke: #1f77b4"/>
   </g>
   <g id="line2d_39">
    <path d="M 35.304688 130.668445 
L 36.446051 131.77192 
L 37.20696 132.185401 
L 37.587415 132.242548 
L 38.728778 131.784274 
L 39.489688 131.187844 
L 39.870142 131.078314 
L 41.39196 131.197927 
L 42.152869 131.05882 
L 42.913778 130.675786 
L 43.674688 129.910635 
L 45.196506 127.914285 
L 45.57696 127.616246 
L 45.957415 127.541531 
L 46.337869 127.746895 
L 47.098778 128.445054 
L 48.240142 129.676495 
L 50.903324 132.018444 
L 51.283778 132.081197 
L 52.044688 131.8927 
L 53.566506 130.918457 
L 54.707869 131.040891 
L 55.468778 130.930627 
L 56.229688 130.516258 
L 56.990597 129.964573 
L 59.273324 127.833645 
L 59.653778 127.661746 
L 60.034233 127.646161 
L 60.795142 128.047979 
L 61.936506 129.129005 
L 64.219233 131.628037 
L 64.980142 131.944642 
L 65.360597 131.948931 
L 66.121506 131.670657 
L 67.643324 130.928015 
L 68.784687 131.243751 
L 69.545597 131.163278 
L 70.306506 130.657849 
L 71.447869 129.580326 
L 73.350142 127.576663 
L 73.730597 127.296182 
L 74.111051 127.309947 
L 74.87196 127.861096 
L 75.632869 128.664459 
L 77.154687 130.309484 
L 78.676506 131.597796 
L 79.05696 131.767755 
L 79.817869 131.801335 
L 80.578778 131.507287 
L 81.339687 131.025897 
L 81.720142 130.858795 
L 83.622415 130.713375 
L 84.002869 130.571843 
L 85.144233 129.676214 
L 87.046506 127.754838 
L 87.807415 127.29418 
L 88.187869 127.195548 
L 88.568324 127.327065 
L 89.329233 127.932464 
L 92.372869 131.269591 
L 93.133778 131.57079 
L 93.894688 131.512227 
L 94.655597 131.295803 
L 95.416506 131.081315 
L 95.79696 131.055802 
L 96.557869 131.2336 
L 97.318778 131.189158 
L 98.079687 130.838424 
L 99.221051 129.619322 
L 100.742869 127.624985 
L 101.503778 127.033218 
L 101.884233 127.103834 
L 102.645142 127.669036 
L 103.786506 128.798906 
L 105.308324 130.460651 
L 106.830142 131.624373 
L 107.591051 131.739755 
L 110.254233 131.129846 
L 111.395597 130.434661 
L 114.439233 127.709467 
L 115.200142 127.109351 
L 115.580597 127.115872 
L 116.341506 127.68872 
L 117.482869 128.909448 
L 118.624233 130.05044 
L 120.146051 131.282921 
L 120.90696 131.605526 
L 121.287415 131.600225 
L 122.428778 131.018165 
L 122.809233 130.838611 
L 123.570142 130.867813 
L 124.331051 130.939518 
L 124.711506 130.888247 
L 125.472415 130.456924 
L 126.613778 129.287878 
L 128.516051 127.235924 
L 128.896506 126.969606 
L 129.27696 126.930127 
L 130.037869 127.428728 
L 131.179233 128.60503 
L 132.320597 129.748323 
L 134.222869 131.350852 
L 134.983778 131.632047 
L 135.744687 131.418713 
L 137.266506 130.596245 
L 139.549233 129.956052 
L 140.690597 129.177185 
L 143.353778 126.962799 
L 143.734233 126.975014 
L 144.114687 127.170299 
L 144.875597 127.883767 
L 146.777869 129.929523 
L 148.299687 131.108168 
L 149.060597 131.355151 
L 149.821506 131.236044 
L 151.343324 130.619786 
L 152.865142 130.856146 
L 153.245597 130.811555 
L 154.006506 130.365811 
L 154.767415 129.645086 
L 156.669687 127.328099 
L 157.430597 126.793341 
L 158.191506 126.955456 
L 158.952415 127.725344 
L 160.093778 129.195549 
L 161.235142 130.530817 
L 162.376506 131.468477 
L 163.137415 131.724847 
L 163.898324 131.639453 
L 165.039687 131.344581 
L 166.181051 131.337554 
L 166.94196 131.081857 
L 167.702869 130.619845 
L 168.844233 129.476351 
L 170.366051 127.617097 
L 171.12696 127.089944 
L 171.507415 127.113952 
L 172.268324 127.599616 
L 173.409687 128.663124 
L 175.31196 130.700488 
L 176.072869 131.385611 
L 176.833778 131.641018 
L 177.594687 131.498797 
L 178.736051 131.139908 
L 179.877415 131.065337 
L 180.638324 130.74853 
L 182.540597 129.373602 
L 184.823324 127.245207 
L 185.203778 127.13805 
L 185.584233 127.253289 
L 186.345142 127.879567 
L 187.106051 128.753934 
L 187.106051 128.753934 
" clip-path="url(#p740a734efd)" style="fill: none; stroke: #ff7f0e; stroke-linecap: square"/>
   </g>
   <g id="line2d_40">
    <path d="M 35.304688 145.828872 
L 37.20696 145.421512 
L 38.348324 144.781383 
L 39.109233 144.259915 
L 40.250597 143.262604 
L 41.011506 142.868027 
L 42.913778 142.394617 
L 45.957415 141.945988 
L 46.718324 141.473177 
L 47.479233 140.855743 
L 48.620597 140.159872 
L 51.664233 138.43876 
L 52.805597 137.371072 
L 53.566506 136.653438 
L 54.327415 136.278729 
L 55.088324 136.155299 
L 55.849233 136.226088 
L 56.990597 136.570235 
L 58.512415 136.900869 
L 59.273324 136.839412 
L 60.034233 136.595208 
L 62.31696 135.306579 
L 67.262869 134.457654 
L 69.165142 133.425841 
L 69.926051 133.224072 
L 71.828324 133.13848 
L 74.111051 133.154729 
L 74.87196 132.921381 
L 76.013324 132.341286 
L 77.154687 132.043476 
L 80.578778 131.395973 
L 81.339687 131.112726 
L 82.100597 130.695387 
L 82.861506 130.508657 
L 83.622415 130.512683 
L 84.763778 130.6892 
L 86.666051 131.162469 
L 88.187869 131.291163 
L 89.329233 131.130357 
L 90.470597 130.80989 
L 93.894688 130.270983 
L 95.79696 130.021972 
L 100.362415 128.841751 
L 101.503778 128.66586 
L 102.645142 128.31803 
L 103.786506 127.861908 
L 106.449687 127.449547 
L 107.591051 127.370564 
L 108.732415 127.128069 
L 110.634687 126.511818 
L 111.395597 126.376128 
L 113.297869 126.446038 
L 115.580597 126.586507 
L 116.72196 126.286147 
L 118.243778 125.892558 
L 122.048324 125.689805 
L 122.809233 125.624009 
L 123.950597 125.377039 
L 125.852869 124.967185 
L 126.613778 124.851005 
L 130.037869 124.587451 
L 130.798778 124.3253 
L 131.940142 124.220668 
L 135.744687 124.640773 
L 136.505597 124.504194 
L 138.027415 124.107904 
L 138.788324 124.138537 
L 141.451506 125.10164 
L 142.973324 125.62685 
L 143.734233 125.778974 
L 144.875597 125.61708 
L 146.01696 125.504912 
L 150.962869 125.75777 
L 152.865142 125.456012 
L 154.006506 125.40609 
L 155.528324 125.108132 
L 156.669687 124.645407 
L 158.191506 123.775292 
L 159.332869 123.545337 
L 161.235142 123.601629 
L 163.898324 123.676473 
L 165.039687 123.475676 
L 165.800597 123.106952 
L 166.94196 122.586579 
L 169.224687 121.903131 
L 170.746506 121.49167 
L 171.887869 120.964647 
L 173.790142 119.723355 
L 175.31196 119.186338 
L 178.355597 118.389773 
L 181.399233 116.588567 
L 183.301506 115.757587 
L 185.584233 114.636179 
L 186.725597 113.875866 
L 187.106051 113.580791 
L 187.106051 113.580791 
" clip-path="url(#p740a734efd)" style="fill: none; stroke-dasharray: 3.7,1.6; stroke-dashoffset: 0; stroke: #ff7f0e"/>
   </g>
   <g id="patch_14">
    <path d="M 35.304688 185.59875 
L 35.304688 109.99875 
" style="fill: none; stroke: #000000; stroke-width: 0.8; stroke-linejoin: miter; stroke-linecap: square"/>
   </g>
   <g id="patch_15">
    <path d="M 187.486506 185.59875 
L 187.486506 109.99875 
" style="fill: none; stroke: #000000; stroke-width: 0.8; stroke-linejoin: miter; stroke-linecap: square"/>
   </g>
   <g id="patch_16">
    <path d="M 35.304688 185.59875 
L 187.486506 185.59875 
" style="fill: none; stroke: #000000; stroke-width: 0.8; stroke-linejoin: miter; stroke-linecap: square"/>
   </g>
   <g id="patch_17">
    <path d="M 35.304688 109.99875 
L 187.486506 109.99875 
" style="fill: none; stroke: #000000; stroke-width: 0.8; stroke-linejoin: miter; stroke-linecap: square"/>
   </g>
   <g id="text_19">
    <!-- eps. 8 -->
    <g transform="translate(99.223722 103.99875)scale(0.08 -0.08)">
     <defs>
      <path id="DejaVuSans-38" d="M 2034 2216 
Q 1584 2216 1326 1975 
Q 1069 1734 1069 1313 
Q 1069 891 1326 650 
Q 1584 409 2034 409 
Q 2484 409 2743 651 
Q 3003 894 3003 1313 
Q 3003 1734 2745 1975 
Q 2488 2216 2034 2216 
z
M 1403 2484 
Q 997 2584 770 2862 
Q 544 3141 544 3541 
Q 544 4100 942 4425 
Q 1341 4750 2034 4750 
Q 2731 4750 3128 4425 
Q 3525 4100 3525 3541 
Q 3525 3141 3298 2862 
Q 3072 2584 2669 2484 
Q 3125 2378 3379 2068 
Q 3634 1759 3634 1313 
Q 3634 634 3220 271 
Q 2806 -91 2034 -91 
Q 1263 -91 848 271 
Q 434 634 434 1313 
Q 434 1759 690 2068 
Q 947 2378 1403 2484 
z
M 1172 3481 
Q 1172 3119 1398 2916 
Q 1625 2713 2034 2713 
Q 2441 2713 2670 2916 
Q 2900 3119 2900 3481 
Q 2900 3844 2670 4047 
Q 2441 4250 2034 4250 
Q 1625 4250 1398 4047 
Q 1172 3844 1172 3481 
z
" transform="scale(0.015625)"/>
     </defs>
     <use xlink:href="#DejaVuSans-65"/>
     <use xlink:href="#DejaVuSans-70" x="61.523438"/>
     <use xlink:href="#DejaVuSans-73" x="125"/>
     <use xlink:href="#DejaVuSans-2e" x="177.099609"/>
     <use xlink:href="#DejaVuSans-20" x="208.886719"/>
     <use xlink:href="#DejaVuSans-38" x="240.673828"/>
    </g>
   </g>
  </g>
  <g id="axes_4">
   <g id="patch_18">
    <path d="M 217.922869 185.59875 
L 370.104687 185.59875 
L 370.104687 109.99875 
L 217.922869 109.99875 
z
" style="fill: #ffffff"/>
   </g>
   <g id="matplotlib.axis_7">
    <g id="xtick_16">
     <g id="line2d_41">
      <g>
       <use xlink:href="#m753c45c19a" x="217.922869" y="185.59875" style="stroke: #000000; stroke-width: 0.8"/>
      </g>
     </g>
     <g id="text_20">
      <!-- 0 -->
      <g transform="translate(214.741619 200.197188)scale(0.1 -0.1)">
       <use xlink:href="#DejaVuSans-30"/>
      </g>
     </g>
    </g>
    <g id="xtick_17">
     <g id="line2d_42">
      <g>
       <use xlink:href="#m753c45c19a" x="255.968324" y="185.59875" style="stroke: #000000; stroke-width: 0.8"/>
      </g>
     </g>
     <g id="text_21">
      <!-- 100 -->
      <g transform="translate(246.424574 200.197188)scale(0.1 -0.1)">
       <use xlink:href="#DejaVuSans-31"/>
       <use xlink:href="#DejaVuSans-30" x="63.623047"/>
       <use xlink:href="#DejaVuSans-30" x="127.246094"/>
      </g>
     </g>
    </g>
    <g id="xtick_18">
     <g id="line2d_43">
      <g>
       <use xlink:href="#m753c45c19a" x="294.013778" y="185.59875" style="stroke: #000000; stroke-width: 0.8"/>
      </g>
     </g>
     <g id="text_22">
      <!-- 200 -->
      <g transform="translate(284.470028 200.197188)scale(0.1 -0.1)">
       <use xlink:href="#DejaVuSans-32"/>
       <use xlink:href="#DejaVuSans-30" x="63.623047"/>
       <use xlink:href="#DejaVuSans-30" x="127.246094"/>
      </g>
     </g>
    </g>
    <g id="xtick_19">
     <g id="line2d_44">
      <g>
       <use xlink:href="#m753c45c19a" x="332.059233" y="185.59875" style="stroke: #000000; stroke-width: 0.8"/>
      </g>
     </g>
     <g id="text_23">
      <!-- 300 -->
      <g transform="translate(322.515483 200.197188)scale(0.1 -0.1)">
       <use xlink:href="#DejaVuSans-33"/>
       <use xlink:href="#DejaVuSans-30" x="63.623047"/>
       <use xlink:href="#DejaVuSans-30" x="127.246094"/>
      </g>
     </g>
    </g>
    <g id="xtick_20">
     <g id="line2d_45">
      <g>
       <use xlink:href="#m753c45c19a" x="370.104687" y="185.59875" style="stroke: #000000; stroke-width: 0.8"/>
      </g>
     </g>
     <g id="text_24">
      <!-- 400 -->
      <g transform="translate(360.560937 200.197188)scale(0.1 -0.1)">
       <use xlink:href="#DejaVuSans-34"/>
       <use xlink:href="#DejaVuSans-30" x="63.623047"/>
       <use xlink:href="#DejaVuSans-30" x="127.246094"/>
      </g>
     </g>
    </g>
    <g id="text_25">
     <!-- interaction -->
     <g transform="translate(266.973153 213.875313)scale(0.1 -0.1)">
      <use xlink:href="#DejaVuSans-69"/>
      <use xlink:href="#DejaVuSans-6e" x="27.783203"/>
      <use xlink:href="#DejaVuSans-74" x="91.162109"/>
      <use xlink:href="#DejaVuSans-65" x="130.371094"/>
      <use xlink:href="#DejaVuSans-72" x="191.894531"/>
      <use xlink:href="#DejaVuSans-61" x="233.007812"/>
      <use xlink:href="#DejaVuSans-63" x="294.287109"/>
      <use xlink:href="#DejaVuSans-74" x="349.267578"/>
      <use xlink:href="#DejaVuSans-69" x="388.476562"/>
      <use xlink:href="#DejaVuSans-6f" x="416.259766"/>
      <use xlink:href="#DejaVuSans-6e" x="477.441406"/>
     </g>
    </g>
   </g>
   <g id="matplotlib.axis_8">
    <g id="ytick_10">
     <g id="line2d_46">
      <g>
       <use xlink:href="#m2e008d26fc" x="217.922869" y="166.278324" style="stroke: #000000; stroke-width: 0.8"/>
      </g>
     </g>
    </g>
    <g id="ytick_11">
     <g id="line2d_47">
      <g>
       <use xlink:href="#m2e008d26fc" x="217.922869" y="139.789864" style="stroke: #000000; stroke-width: 0.8"/>
      </g>
     </g>
    </g>
    <g id="ytick_12">
     <g id="line2d_48">
      <g>
       <use xlink:href="#m2e008d26fc" x="217.922869" y="113.301404" style="stroke: #000000; stroke-width: 0.8"/>
      </g>
     </g>
    </g>
   </g>
   <g id="line2d_49">
    <path d="M 217.922869 133.930182 
L 218.683778 134.800508 
L 219.444687 135.301221 
L 220.205597 135.367734 
L 221.34696 134.70699 
L 222.488324 133.694104 
L 223.249233 133.749038 
L 224.010142 133.906493 
L 225.151506 133.859293 
L 225.53196 133.767753 
L 225.912415 133.480884 
L 226.673324 132.466382 
L 227.434233 131.469479 
L 228.195142 130.632418 
L 228.575597 130.365002 
L 228.956051 130.283044 
L 229.336506 130.509362 
L 230.097415 131.549556 
L 231.619233 133.963809 
L 232.380142 134.789034 
L 232.760597 135.01084 
L 233.90196 135.100287 
L 235.043324 134.935737 
L 235.423778 134.698768 
L 236.565142 133.594651 
L 236.945597 133.353457 
L 237.706506 133.206504 
L 238.467415 133.335795 
L 239.228324 133.604939 
L 239.608778 133.544208 
L 239.989233 133.243757 
L 241.891506 130.784067 
L 242.27196 130.531733 
L 242.652415 130.494584 
L 243.032869 130.691864 
L 243.793778 131.743113 
L 245.315597 134.166469 
L 246.076506 134.910867 
L 246.837415 135.223828 
L 247.598324 135.192504 
L 248.739687 134.758249 
L 249.881051 134.063599 
L 250.64196 133.942185 
L 251.783324 133.941805 
L 252.544233 133.582484 
L 253.305142 132.974776 
L 255.207415 130.931779 
L 255.587869 130.679389 
L 255.968324 130.632904 
L 256.348778 130.743614 
L 257.109687 131.53533 
L 258.631506 133.366728 
L 260.153324 134.80025 
L 260.914233 135.102278 
L 261.294687 135.101263 
L 262.055597 134.821721 
L 262.816506 134.226638 
L 263.19696 133.946618 
L 263.577415 133.817591 
L 265.099233 134.048386 
L 265.860142 133.773119 
L 266.621051 133.197643 
L 267.38196 132.340358 
L 268.523324 131.000149 
L 269.284233 130.329122 
L 269.664687 130.211105 
L 270.045142 130.278584 
L 270.425597 130.497665 
L 271.186506 131.354854 
L 273.088778 133.885288 
L 273.849687 134.499843 
L 274.610597 134.782824 
L 274.991051 134.808572 
L 276.132415 134.326879 
L 276.893324 133.954583 
L 277.654233 133.883286 
L 278.415142 133.871253 
L 279.176051 133.563571 
L 280.317415 132.827105 
L 281.078324 132.191078 
L 282.600142 130.548224 
L 283.361051 130.029196 
L 283.741506 129.944909 
L 284.12196 130.051832 
L 284.882869 130.600136 
L 286.024233 132.334849 
L 286.785142 133.538662 
L 287.546051 134.336728 
L 288.30696 134.616512 
L 289.067869 134.476661 
L 290.209233 134.007827 
L 291.350597 133.952711 
L 291.731051 134.057229 
L 292.49196 133.993375 
L 292.872415 133.851409 
L 294.394233 132.54319 
L 296.67696 129.920549 
L 297.057415 129.775311 
L 297.437869 129.939962 
L 298.198778 130.601434 
L 300.481506 133.306842 
L 302.003324 134.25892 
L 302.764233 134.434323 
L 303.525142 134.212142 
L 305.04696 133.591152 
L 305.807869 133.428063 
L 306.949233 132.701914 
L 307.710142 132.151306 
L 309.992869 130.000941 
L 310.373324 129.840889 
L 311.134233 130.081499 
L 311.895142 130.599109 
L 313.036506 131.785241 
L 314.177869 132.903364 
L 314.938778 133.442461 
L 315.699687 133.732284 
L 316.841051 133.725506 
L 317.60196 133.609083 
L 319.123778 132.956973 
L 321.026051 131.410692 
L 322.547869 130.405458 
L 323.689233 129.551418 
L 324.450142 129.377198 
L 325.211051 129.733706 
L 325.97196 130.356985 
L 327.874233 132.254855 
L 329.015597 132.821539 
L 329.776506 133.002907 
L 330.537415 132.832111 
L 332.059233 132.291564 
L 333.961506 132.335478 
L 334.722415 132.023806 
L 335.483324 131.519932 
L 336.244233 130.702186 
L 337.766051 128.855854 
L 338.146506 128.552247 
L 338.52696 128.397151 
L 338.907415 128.421233 
L 339.287869 128.588215 
L 340.048778 129.31832 
L 341.951051 131.775598 
L 343.853324 133.138601 
L 344.614233 133.316397 
L 345.375142 133.091037 
L 347.277415 132.132971 
L 348.418778 131.925868 
L 349.560142 131.791523 
L 349.940597 131.641904 
L 350.701506 130.966031 
L 352.603778 128.607964 
L 352.984233 128.464878 
L 353.364687 128.529627 
L 353.745142 128.821966 
L 354.886506 130.310431 
L 356.027869 131.96898 
L 357.169233 133.086769 
L 357.930142 133.652936 
L 358.310597 133.806816 
L 358.691051 133.796732 
L 359.45196 133.434917 
L 360.212869 132.924162 
L 360.593324 132.823554 
L 362.495597 133.319834 
L 362.876051 133.210745 
L 363.63696 132.649453 
L 364.397869 131.72507 
L 365.539233 130.010413 
L 366.680597 129.007585 
L 367.061051 128.991691 
L 367.82196 129.500866 
L 368.582869 130.343065 
L 369.724233 131.971956 
L 369.724233 131.971956 
" clip-path="url(#p0a5dad8e3b)" style="fill: none; stroke: #1f77b4; stroke-linecap: square"/>
   </g>
   <g id="line2d_50">
    <path d="M 217.922869 153.967644 
L 219.064233 153.882982 
L 219.825142 153.678957 
L 220.586051 153.261142 
L 221.34696 152.716343 
L 222.488324 151.638416 
L 223.249233 151.378798 
L 224.390597 151.398325 
L 225.912415 151.391649 
L 227.053778 151.210808 
L 228.195142 150.809833 
L 228.956051 150.42936 
L 229.71696 149.876397 
L 230.477869 149.555232 
L 231.238778 149.386544 
L 233.141051 149.199205 
L 233.90196 148.953572 
L 234.662869 148.42371 
L 235.804233 147.242095 
L 236.565142 146.534511 
L 236.945597 146.282243 
L 238.08696 146.083929 
L 240.369687 145.653352 
L 242.27196 144.715555 
L 244.174233 143.475176 
L 245.315597 142.957186 
L 246.837415 142.328877 
L 247.978778 141.735323 
L 249.120142 141.221189 
L 249.881051 140.680436 
L 250.64196 140.13729 
L 253.305142 139.027826 
L 254.82696 138.472045 
L 255.968324 137.870212 
L 257.870597 136.574393 
L 260.153324 135.834299 
L 262.436051 134.91801 
L 264.338324 133.709894 
L 265.860142 133.37238 
L 269.664687 132.962879 
L 270.425597 132.692858 
L 272.327869 131.816721 
L 273.849687 131.396574 
L 275.371506 130.930791 
L 276.512869 130.476892 
L 277.654233 129.724181 
L 278.415142 129.409421 
L 279.556506 129.321626 
L 281.458778 129.392462 
L 283.361051 129.124874 
L 284.502415 128.771181 
L 289.828778 126.555311 
L 290.970142 126.050514 
L 292.49196 125.140173 
L 297.057415 123.127793 
L 299.720597 121.61189 
L 301.242415 121.174742 
L 302.383778 121.147433 
L 305.04696 121.326587 
L 305.807869 121.029305 
L 307.329687 120.127035 
L 308.851506 119.635957 
L 309.992869 119.530054 
L 312.275597 119.472809 
L 313.41696 119.134178 
L 314.558324 118.654687 
L 316.460597 118.162615 
L 317.60196 117.897463 
L 319.123778 117.447828 
L 320.265142 117.403115 
L 321.78696 117.577363 
L 324.069687 117.851533 
L 324.830597 117.788621 
L 326.352415 117.593441 
L 328.254687 117.880357 
L 329.776506 118.199372 
L 331.298324 118.219301 
L 333.961506 118.153091 
L 339.287869 119.171613 
L 340.809687 118.989433 
L 341.951051 119.135506 
L 343.853324 119.52221 
L 344.994687 119.502945 
L 345.755597 119.363481 
L 347.277415 118.839762 
L 348.418778 118.937223 
L 352.603778 119.670461 
L 353.364687 119.567923 
L 356.027869 118.734843 
L 357.169233 118.397175 
L 359.071506 117.506654 
L 360.212869 116.753936 
L 361.354233 116.140358 
L 362.495597 115.806064 
L 367.441506 115.063024 
L 368.202415 114.711741 
L 369.724233 113.58761 
L 369.724233 113.58761 
" clip-path="url(#p0a5dad8e3b)" style="fill: none; stroke-dasharray: 3.7,1.6; stroke-dashoffset: 0; stroke: #1f77b4"/>
   </g>
   <g id="line2d_51">
    <path d="M 217.922869 133.930182 
L 218.683778 134.787207 
L 219.444687 135.26739 
L 220.205597 135.325873 
L 221.34696 134.58671 
L 222.107869 133.833162 
L 222.488324 133.703343 
L 224.010142 133.950404 
L 224.771051 133.823507 
L 225.53196 133.564969 
L 225.912415 133.27218 
L 226.673324 132.17044 
L 227.434233 131.102031 
L 228.195142 130.385229 
L 228.575597 130.342516 
L 228.956051 130.584296 
L 230.097415 132.02979 
L 231.238778 133.258416 
L 232.760597 134.585451 
L 233.521506 135.24528 
L 234.282415 135.125741 
L 235.043324 134.537385 
L 235.804233 133.712289 
L 236.184687 133.580969 
L 237.706506 133.984988 
L 238.467415 133.757666 
L 239.228324 133.271628 
L 240.369687 132.058007 
L 241.130597 131.278674 
L 241.891506 130.653243 
L 242.27196 130.509551 
L 242.652415 130.487194 
L 243.032869 130.596843 
L 243.793778 131.195014 
L 246.45696 134.334503 
L 247.217869 134.738062 
L 247.598324 134.821363 
L 247.978778 134.771496 
L 248.739687 134.345256 
L 249.881051 133.518203 
L 250.261506 133.423243 
L 251.783324 133.738595 
L 252.544233 133.362088 
L 253.685597 132.46317 
L 256.348778 129.913218 
L 256.729233 129.882641 
L 257.109687 130.039838 
L 257.870597 130.710477 
L 259.392415 132.578682 
L 260.914233 133.779211 
L 261.675142 134.079713 
L 262.436051 134.101745 
L 263.19696 133.822483 
L 264.718778 132.985959 
L 265.479687 132.850557 
L 267.38196 132.058497 
L 268.523324 131.224737 
L 270.045142 129.989247 
L 270.806051 129.537006 
L 271.186506 129.468192 
L 271.56696 129.560441 
L 272.327869 130.11039 
L 273.469233 131.487812 
L 274.230142 132.351646 
L 274.991051 132.91116 
L 275.75196 133.206641 
L 276.512869 133.252264 
L 277.654233 132.928883 
L 278.415142 132.737923 
L 278.795597 132.686367 
L 279.93696 133.060399 
L 280.697869 132.862946 
L 281.458778 132.280999 
L 282.600142 131.020877 
L 283.741506 129.615928 
L 284.502415 128.910296 
L 284.882869 128.754618 
L 285.263324 128.766307 
L 286.024233 129.220677 
L 286.785142 129.958106 
L 288.687415 132.192604 
L 290.209233 133.263237 
L 290.589687 133.401516 
L 291.350597 133.327132 
L 292.111506 133.138836 
L 294.394233 132.163487 
L 297.057415 130.434454 
L 298.579233 128.913993 
L 298.959687 128.722812 
L 299.340142 128.725265 
L 299.720597 128.960073 
L 300.481506 129.806439 
L 302.003324 131.924604 
L 302.764233 132.495361 
L 303.905597 133.106815 
L 304.666506 133.360751 
L 305.427415 133.327089 
L 306.188324 133.078934 
L 306.949233 132.725133 
L 307.710142 132.495384 
L 310.373324 131.241156 
L 311.514687 129.958179 
L 312.275597 129.141302 
L 312.656051 128.866823 
L 313.036506 128.729736 
L 313.41696 128.739229 
L 314.177869 129.292628 
L 314.938778 130.255808 
L 316.460597 132.383876 
L 317.221506 132.949275 
L 317.982415 133.335117 
L 319.123778 133.378155 
L 321.78696 132.800123 
L 324.069687 131.168117 
L 326.352415 129.216299 
L 326.732869 129.093023 
L 327.113324 129.091554 
L 327.874233 129.55497 
L 328.635142 130.266237 
L 330.537415 132.329347 
L 331.678778 133.080723 
L 332.439687 133.314256 
L 333.200597 133.231369 
L 333.961506 133.015121 
L 336.244233 131.915027 
L 337.385597 131.288677 
L 338.52696 130.622367 
L 340.809687 128.921631 
L 341.190142 128.902356 
L 341.570597 129.04536 
L 342.331506 129.743074 
L 344.233778 132.103687 
L 345.755597 132.812985 
L 346.516506 133.023971 
L 347.277415 132.977293 
L 348.418778 132.83075 
L 349.560142 132.99814 
L 350.321051 132.730794 
L 351.08196 132.178552 
L 352.223324 131.042941 
L 354.125597 128.768191 
L 354.506051 128.543345 
L 354.886506 128.508818 
L 355.26696 128.638989 
L 356.027869 129.401762 
L 357.169233 131.07922 
L 357.930142 132.117827 
L 359.071506 133.037994 
L 359.832415 133.593461 
L 360.593324 133.79691 
L 361.354233 133.554883 
L 362.495597 133.016317 
L 363.63696 132.820637 
L 365.539233 132.226736 
L 365.919687 131.903002 
L 368.202415 129.094797 
L 368.582869 129.025959 
L 368.963324 129.192827 
L 369.724233 130.012111 
L 369.724233 130.012111 
" clip-path="url(#p0a5dad8e3b)" style="fill: none; stroke: #ff7f0e; stroke-linecap: square"/>
   </g>
   <g id="line2d_52">
    <path d="M 217.922869 139.376502 
L 219.825142 138.616771 
L 220.966506 137.81164 
L 221.727415 137.172362 
L 222.868778 135.97231 
L 223.629687 135.421695 
L 225.53196 134.580097 
L 228.575597 133.769214 
L 229.336506 133.194124 
L 230.477869 132.054757 
L 233.90196 129.30098 
L 235.043324 128.087162 
L 236.184687 126.785702 
L 236.945597 126.263114 
L 237.706506 125.969946 
L 238.467415 125.870093 
L 239.228324 125.928126 
L 241.511051 126.224043 
L 242.27196 126.101456 
L 243.032869 125.77813 
L 243.793778 125.210959 
L 244.554687 124.620629 
L 245.315597 124.207668 
L 246.45696 123.770946 
L 247.598324 123.577126 
L 249.881051 123.356124 
L 250.64196 122.953461 
L 251.783324 122.056995 
L 252.544233 121.649899 
L 253.685597 121.334676 
L 254.82696 121.275835 
L 257.109687 121.464835 
L 257.870597 121.350275 
L 258.631506 120.992215 
L 259.772869 120.459484 
L 260.914233 120.208523 
L 262.055597 120.121574 
L 263.577415 120.061793 
L 264.338324 119.873537 
L 265.860142 119.248532 
L 267.001506 119.221558 
L 268.142869 119.497658 
L 271.56696 120.647373 
L 272.708324 120.714646 
L 276.512869 120.222769 
L 279.556506 119.996709 
L 280.317415 119.879661 
L 281.839233 119.877828 
L 283.741506 120.076327 
L 285.643778 120.361599 
L 286.785142 120.267916 
L 287.926506 120.041383 
L 289.448324 120.125187 
L 292.49196 120.190972 
L 294.394233 119.889 
L 296.296506 119.952852 
L 299.720597 120.102366 
L 305.807869 119.376615 
L 306.949233 118.922722 
L 307.710142 118.855798 
L 308.851506 119.065332 
L 311.895142 120.110766 
L 313.41696 120.585099 
L 314.177869 120.717179 
L 314.938778 120.654226 
L 317.221506 120.11798 
L 319.504233 120.138712 
L 321.026051 120.131499 
L 321.78696 119.922554 
L 322.547869 119.6984 
L 323.689233 119.546444 
L 325.211051 119.655646 
L 327.874233 120.194404 
L 328.635142 120.182532 
L 329.396051 120.059178 
L 330.15696 119.901728 
L 331.678778 119.868771 
L 332.820142 119.980346 
L 334.34196 120.006764 
L 336.244233 119.803462 
L 337.766051 119.852563 
L 338.907415 119.878564 
L 345.755597 119.310917 
L 347.277415 118.872074 
L 348.418778 118.624334 
L 349.560142 118.691059 
L 352.603778 119.35544 
L 354.886506 119.84231 
L 355.647415 119.850071 
L 356.408324 119.651144 
L 360.973778 118.07658 
L 363.63696 116.708222 
L 365.919687 115.86245 
L 368.963324 114.17914 
L 369.724233 113.630166 
L 369.724233 113.630166 
" clip-path="url(#p0a5dad8e3b)" style="fill: none; stroke-dasharray: 3.7,1.6; stroke-dashoffset: 0; stroke: #ff7f0e"/>
   </g>
   <g id="patch_19">
    <path d="M 217.922869 185.59875 
L 217.922869 109.99875 
" style="fill: none; stroke: #000000; stroke-width: 0.8; stroke-linejoin: miter; stroke-linecap: square"/>
   </g>
   <g id="patch_20">
    <path d="M 370.104687 185.59875 
L 370.104687 109.99875 
" style="fill: none; stroke: #000000; stroke-width: 0.8; stroke-linejoin: miter; stroke-linecap: square"/>
   </g>
   <g id="patch_21">
    <path d="M 217.922869 185.59875 
L 370.104687 185.59875 
" style="fill: none; stroke: #000000; stroke-width: 0.8; stroke-linejoin: miter; stroke-linecap: square"/>
   </g>
   <g id="patch_22">
    <path d="M 217.922869 109.99875 
L 370.104687 109.99875 
" style="fill: none; stroke: #000000; stroke-width: 0.8; stroke-linejoin: miter; stroke-linecap: square"/>
   </g>
   <g id="text_26">
    <!-- eps. 12 -->
    <g transform="translate(279.296903 103.99875)scale(0.08 -0.08)">
     <use xlink:href="#DejaVuSans-65"/>
     <use xlink:href="#DejaVuSans-70" x="61.523438"/>
     <use xlink:href="#DejaVuSans-73" x="125"/>
     <use xlink:href="#DejaVuSans-2e" x="177.099609"/>
     <use xlink:href="#DejaVuSans-20" x="208.886719"/>
     <use xlink:href="#DejaVuSans-31" x="240.673828"/>
     <use xlink:href="#DejaVuSans-32" x="304.296875"/>
    </g>
   </g>
  </g>
 </g>
 <defs>
  <clipPath id="pb82ab2ee17">
   <rect x="35.304688" y="19.27875" width="152.181818" height="75.6"/>
  </clipPath>
  <clipPath id="p80dd249828">
   <rect x="217.922869" y="19.27875" width="152.181818" height="75.6"/>
  </clipPath>
  <clipPath id="p740a734efd">
   <rect x="35.304688" y="109.99875" width="152.181818" height="75.6"/>
  </clipPath>
  <clipPath id="p0a5dad8e3b">
   <rect x="217.922869" y="109.99875" width="152.181818" height="75.6"/>
  </clipPath>
 </defs>
</svg>
