<?xml version="1.0" encoding="UTF-8"?>
<!-- Created with Inkscape (http://www.inkscape.org/) -->
<svg width="110.99mm" height="51.554mm" version="1.1" viewBox="0 0 110.99 51.554" xmlns="http://www.w3.org/2000/svg" xmlns:cc="http://creativecommons.org/ns#" xmlns:dc="http://purl.org/dc/elements/1.1/" xmlns:rdf="http://www.w3.org/1999/02/22-rdf-syntax-ns#">
 <defs>
  <marker id="marker1379" overflow="visible" orient="auto">
   <path transform="scale(-.6)" d="m8.7186 4.0337-10.926-4.0177 10.926-4.0177c-1.7455 2.3721-1.7354 5.6175-6e-7 8.0354z" fill-rule="evenodd" stroke="#000" stroke-linejoin="round" stroke-width=".625"/>
  </marker>
  <marker id="marker1209" overflow="visible" orient="auto">
   <path transform="scale(-.6)" d="m8.7186 4.0337-10.926-4.0177 10.926-4.0177c-1.7455 2.3721-1.7354 5.6175-6e-7 8.0354z" fill-rule="evenodd" stroke="#000" stroke-linejoin="round" stroke-width=".625"/>
  </marker>
  <marker id="Arrow2Mend" overflow="visible" orient="auto">
   <path transform="scale(-.6)" d="m8.7186 4.0337-10.926-4.0177 10.926-4.0177c-1.7455 2.3721-1.7354 5.6175-6e-7 8.0354z" fill-rule="evenodd" stroke="#000" stroke-linejoin="round" stroke-width=".625"/>
  </marker>
 </defs>
 <metadata>
  <rdf:RDF>
   <cc:Work rdf:about="">
    <dc:format>image/svg+xml</dc:format>
    <dc:type rdf:resource="http://purl.org/dc/dcmitype/StillImage"/>
    <dc:title/>
   </cc:Work>
  </rdf:RDF>
 </metadata>
 <g transform="translate(-26.026 -3.4221)">
  <path d="m31.75 49.615v-39.688" fill="none" marker-end="url(#Arrow2Mend)" stroke="#000" stroke-width=".5"/>
  <path d="m31.75 49.615h43.656" fill="none" marker-end="url(#marker1209)" stroke="#000" stroke-width=".5"/>
  <g fill="#000000" font-family="Sans" font-size="4.9389px" letter-spacing="0px" stroke-width=".26458px" word-spacing="0px">
   <text x="49.522751" y="54.90625" style="line-height:125%" xml:space="preserve"><tspan x="49.522751" y="54.90625" stroke-width=".26458px">Re</tspan></text>
   <text transform="rotate(-90)" x="-35.951691" y="29.77846" style="line-height:125%" xml:space="preserve"><tspan x="-35.951691" y="29.77846" stroke-width=".26458px">drag</tspan></text>
   <text x="41.95929" y="7.1744776" style="line-height:125%" xml:space="preserve"><tspan x="41.95929" y="7.1744776" stroke-width=".26458px">Regression</tspan></text>
  </g>
  <g>
   <circle cx="38.324" cy="44.217" r="1.3229"/>
   <circle cx="42.6" cy="38.337" r="1.3229"/>
   <circle cx="48.747" cy="36.6" r="1.3229"/>
   <circle cx="51.821" cy="31.522" r="1.3229"/>
   <circle cx="58.502" cy="30.319" r="1.3229"/>
   <circle cx="60.507" cy="25.107" r="1.3229"/>
   <circle cx="64.65" cy="22.568" r="1.3229"/>
   <circle cx="68.659" cy="17.49" r="1.3229"/>
   <circle cx="71.732" cy="18.559" r="1.3229"/>
  </g>
  <g fill="none" stroke-width=".5">
   <path d="m34.396 46.969 41.01-34.396" stroke="#f00" stroke-dasharray="1.50000004, 0.50000001"/>
   <path d="m92.604 49.615v-39.688" marker-end="url(#marker1379)" stroke="#000"/>
   <path d="m92.604 49.615h43.656" marker-end="url(#marker1209)" stroke="#000"/>
  </g>
  <g fill="#000000" font-family="Sans" font-size="4.9389px" letter-spacing="0px" stroke-width=".26458px" word-spacing="0px">
   <text x="110.37691" y="54.90625" style="line-height:125%" xml:space="preserve"><tspan x="110.37691" y="54.90625" stroke-width=".26458px">Re</tspan></text>
   <text transform="rotate(-90)" x="-31.942648" y="90.632629" style="line-height:125%" xml:space="preserve"><tspan x="-31.942648" y="90.632629" stroke-width=".26458px">A</tspan></text>
   <text x="98.53714" y="7.1744776" style="line-height:125%" xml:space="preserve"><tspan x="98.53714" y="7.1744776" stroke-width=".26458px">Classification</tspan></text>
  </g>
  <g fill="#00f">
   <circle cx="98.029" cy="38.59" r="1.3229"/>
   <circle cx="97.762" cy="30.973" r="1.3229"/>
   <circle cx="103.11" cy="36.853" r="1.3229"/>
   <circle cx="110.59" cy="40.595" r="1.3229"/>
   <circle cx="109.25" cy="34.314" r="1.3229"/>
   <circle cx="98.831" cy="19.614" r="1.3229"/>
   <circle cx="104.58" cy="28.033" r="1.3229"/>
   <circle cx="120.35" cy="44.604" r="1.3229"/>
  </g>
  <g fill="#008c00">
   <circle cx="121.82" cy="21.351" r="1.3229"/>
   <circle cx="129.57" cy="27.766" r="1.3229"/>
   <circle cx="123.29" cy="36.452" r="1.3229"/>
   <circle cx="114.47" cy="26.697" r="1.3229"/>
   <circle cx="122.35" cy="28.567" r="1.3229"/>
   <circle cx="130.37" cy="19.213" r="1.3229"/>
   <circle cx="110.59" cy="18.278" r="1.3229"/>
   <circle cx="131.57" cy="40.595" r="1.3229"/>
  </g>
  <g>
   <path d="m97.896 12.573 29.104 34.396" fill="none" stroke="#f00" stroke-dasharray="1.5, 0.5" stroke-width=".5"/>
   <text x="97.922699" y="46.96875" fill="#000000" font-family="Sans" font-size="4.9389px" letter-spacing="0px" stroke-width=".26458px" word-spacing="0px" style="line-height:125%" xml:space="preserve"><tspan x="97.922699" y="46.96875" font-size="3.5278px" stroke="#0000ff" stroke-width=".26458px">laminar</tspan></text>
   <text x="112.42105" y="14.430372" fill="#008c00" font-family="Sans" font-size="4.9389px" letter-spacing="0px" stroke="#008c00" stroke-width=".26458px" word-spacing="0px" style="line-height:125%" xml:space="preserve"><tspan x="112.42105" y="14.430372" font-size="3.5278px">turbulent</tspan><tspan x="112.42105" y="20.970541"/></text>
  </g>
 </g>
</svg>
