<?xml version="1.0" encoding="UTF-8"?>
<svg xmlns="http://www.w3.org/2000/svg" xmlns:xlink="http://www.w3.org/1999/xlink" width="155.905pt" height="62.362pt" viewBox="0 0 155.905 62.362" version="1.1">
<g id="surface1">
<path style=" stroke:none;fill-rule:nonzero;fill:rgb(100%,100%,100%);fill-opacity:1;" d="M 0 62.363281 L 155.90625 62.363281 L 155.90625 0 L 0 0 Z M 0 62.363281 "/>
<path style=" stroke:none;fill-rule:nonzero;fill:rgb(11.372375%,11.372375%,10.588074%);fill-opacity:1;" d="M 46.304688 29.738281 C 46.585938 29.71875 46.890625 29.703125 47.082031 29.753906 C 47.222656 29.765625 47.285156 29.867188 47.28125 29.96875 C 47.277344 30.222656 46.953125 30.359375 46.699219 30.441406 C 46.742188 30.558594 46.769531 30.691406 46.78125 30.832031 C 46.832031 31.421875 46.582031 31.957031 46.203125 32.042969 C 46.191406 32.046875 46.175781 32.050781 46.164062 32.050781 C 45.695312 32.128906 45.15625 32.167969 44.59375 32.15625 C 44.554688 32.167969 44.511719 32.167969 44.472656 32.15625 C 43.601562 32.128906 42.703125 31.988281 41.988281 31.695312 C 41.976562 31.707031 41.96875 31.714844 41.96875 31.714844 C 41.789062 31.933594 41.464844 31.664062 41.644531 31.445312 C 41.648438 31.441406 41.695312 31.386719 41.78125 31.304688 C 41.792969 31.292969 41.804688 31.277344 41.820312 31.265625 C 42.285156 30.835938 43.691406 29.773438 46.304688 29.738281 M 44.539062 30.367188 C 44.488281 30.960938 44.546875 31.378906 44.683594 31.746094 C 44.953125 31.746094 45.238281 31.738281 45.535156 31.707031 C 45.398438 31.515625 45.300781 31.257812 45.277344 30.96875 C 45.253906 30.691406 45.296875 30.429688 45.390625 30.21875 C 45.105469 30.253906 44.820312 30.304688 44.539062 30.367188 M 44.234375 31.726562 C 44.125 31.371094 44.078125 30.972656 44.109375 30.484375 C 43.46875 30.675781 42.863281 30.964844 42.347656 31.371094 C 42.542969 31.4375 42.820312 31.515625 43.167969 31.585938 C 43.472656 31.648438 43.832031 31.703125 44.234375 31.726562 M 50.453125 36.464844 C 50.457031 36.464844 50.460938 36.464844 50.46875 36.464844 Z M 34.210938 42.988281 C 33.558594 42.988281 33.03125 42.460938 33.03125 41.808594 C 33.03125 41.15625 33.558594 40.632812 34.210938 40.632812 C 34.859375 40.632812 35.386719 41.15625 35.386719 41.808594 C 35.386719 42.460938 34.859375 42.988281 34.210938 42.988281 M 34.210938 42.566406 C 34.628906 42.566406 34.96875 42.226562 34.96875 41.808594 C 34.96875 41.390625 34.628906 41.050781 34.210938 41.050781 C 33.792969 41.050781 33.453125 41.390625 33.453125 41.808594 C 33.453125 42.226562 33.792969 42.566406 34.210938 42.566406 M 29.074219 19.027344 C 29.074219 19.261719 28.886719 19.453125 28.648438 19.453125 C 28.417969 19.453125 28.226562 19.261719 28.226562 19.027344 C 28.226562 18.792969 28.417969 18.601562 28.648438 18.601562 C 28.886719 18.601562 29.074219 18.792969 29.074219 19.027344 M 41.101562 22.808594 C 41.101562 23.003906 40.945312 23.15625 40.753906 23.15625 C 40.5625 23.15625 40.40625 23.003906 40.40625 22.808594 C 40.40625 22.621094 40.5625 22.464844 40.753906 22.464844 C 40.945312 22.464844 41.101562 22.621094 41.101562 22.808594 M 43.328125 20.109375 C 43.328125 20.347656 43.132812 20.546875 42.890625 20.546875 C 42.648438 20.546875 42.453125 20.347656 42.453125 20.109375 C 42.453125 19.867188 42.648438 19.667969 42.890625 19.667969 C 43.132812 19.667969 43.328125 19.867188 43.328125 20.109375 M 42.195312 21.410156 C 42.195312 21.625 42.019531 21.800781 41.804688 21.800781 C 41.585938 21.800781 41.410156 21.625 41.410156 21.410156 C 41.410156 21.191406 41.585938 21.015625 41.804688 21.015625 C 42.019531 21.015625 42.195312 21.191406 42.195312 21.410156 M 34.886719 36.503906 L 34.941406 36.109375 C 34.78125 36.117188 34.621094 36.117188 34.457031 36.113281 C 34.164062 36.496094 33.871094 36.878906 33.566406 37.253906 C 33.582031 37.578125 33.621094 37.886719 33.675781 38.179688 C 34.570312 37.4375 36.269531 37.929688 35.742188 39.6875 C 36.011719 39.882812 36.246094 40.132812 36.425781 40.414062 C 37.355469 39.101562 36.558594 36.972656 34.738281 36.917969 C 34.460938 36.90625 34.472656 36.488281 34.753906 36.496094 C 34.796875 36.496094 34.84375 36.5 34.886719 36.503906 M 35.304688 36.570312 C 37.179688 37.023438 37.816406 39.429688 36.636719 40.828125 C 36.761719 41.132812 36.828125 41.460938 36.828125 41.808594 C 36.828125 42.515625 36.546875 43.15625 36.089844 43.628906 C 39.761719 45.84375 43.859375 46.265625 46.566406 45.695312 C 49.398438 45.09375 50.417969 43.582031 48.628906 41.941406 C 48.320312 41.652344 49.167969 40.878906 49.789062 40.804688 C 49.859375 40.398438 49.691406 40.113281 49.363281 39.945312 C 48.480469 39.863281 47.070312 40.324219 46.136719 40.535156 C 46.082031 40.71875 45.8125 40.765625 45.742188 40.542969 C 45.644531 40.238281 45.894531 39.773438 45.960938 39.632812 C 46.089844 39.359375 46.4375 39.539062 46.316406 39.78125 C 46.273438 39.867188 46.226562 39.980469 46.191406 40.089844 C 47.160156 39.863281 48.441406 39.449219 49.359375 39.523438 C 49.589844 39.355469 50.191406 38.902344 50.0625 38.601562 C 50.027344 38.519531 49.960938 38.421875 49.851562 38.277344 C 49.398438 37.675781 49.59375 37.257812 50.007812 36.8125 C 49.289062 36.71875 48.375 36.8125 47.890625 37.351562 C 47.613281 37.664062 47.113281 36.835938 47.058594 36.714844 C 46.859375 36.257812 46.890625 35.648438 47.589844 35.003906 C 47.796875 34.8125 48.082031 35.121094 47.875 35.308594 C 47.320312 35.824219 47.175781 36.382812 47.703125 36.910156 L 47.726562 36.933594 C 48.476562 36.316406 49.53125 36.246094 50.453125 36.464844 L 50.46875 36.464844 C 52.0625 36.359375 51.933594 35.714844 51.519531 34.546875 C 51.355469 34.085938 51.136719 33.550781 50.902344 32.933594 C 50.5625 32.039062 49.929688 30.214844 49.25 28.226562 C 47.433594 27.515625 44.851562 27.933594 42.867188 28.816406 C 42.378906 29.585938 41.660156 30.304688 40.65625 30.980469 C 40.167969 33.691406 37.949219 35.75 35.371094 36.070312 Z M 33.796875 38.675781 C 33.847656 38.863281 33.910156 39.039062 33.972656 39.203125 C 34.050781 39.195312 34.132812 39.195312 34.210938 39.195312 C 34.625 39.195312 35.019531 39.289062 35.367188 39.460938 C 35.632812 38.335938 34.519531 37.84375 33.796875 38.675781 M 33.8125 44.394531 C 33.832031 45.820312 33.316406 48.167969 31.578125 50.042969 C 34.199219 50.707031 39.847656 52.488281 41.921875 53.222656 C 42.203125 53.167969 42.484375 53.101562 42.765625 53.03125 C 42.40625 51.375 42.441406 48.941406 43.265625 46.316406 C 40.914062 46.164062 38.234375 45.441406 35.757812 43.917969 C 35.324219 44.238281 34.789062 44.425781 34.210938 44.425781 C 34.074219 44.425781 33.941406 44.414062 33.8125 44.394531 M 31.234375 50.390625 C 30.964844 50.652344 30.671875 50.898438 30.347656 51.128906 C 32.703125 51.640625 36.886719 53.015625 38.359375 53.691406 C 39.257812 53.640625 40.171875 53.539062 41.09375 53.382812 C 38.570312 52.523438 33.488281 50.9375 31.234375 50.390625 M 29.851562 51.457031 C 29.441406 51.710938 28.988281 51.941406 28.496094 52.136719 C 30.917969 53.160156 34.03125 53.789062 37.371094 53.734375 C 35.402344 52.96875 31.746094 51.816406 29.851562 51.457031 M 27.945312 51.894531 C 28.589844 51.671875 29.160156 51.390625 29.667969 51.074219 C 29.683594 51.058594 29.707031 51.046875 29.730469 51.035156 C 30.210938 50.730469 30.636719 50.390625 31.007812 50.027344 C 31.015625 50.011719 31.03125 49.996094 31.050781 49.984375 C 32.929688 48.117188 33.4375 45.675781 33.386719 44.292969 C 32.953125 44.148438 32.570312 43.898438 32.269531 43.566406 C 32.496094 46.007812 31.714844 48.957031 28.160156 50.734375 C 28.105469 50.761719 28.089844 50.769531 28.0625 50.773438 C 28.042969 50.773438 27.996094 50.773438 27.9375 50.753906 C 27.332031 50.558594 26.714844 50.242188 26.167969 49.839844 C 26.097656 49.792969 26.097656 49.792969 26.035156 49.742188 C 25.546875 49.363281 25.125 48.917969 24.828125 48.433594 C 24.792969 48.378906 24.792969 48.382812 24.773438 48.339844 C 24.070312 47.113281 24.203125 45.667969 26.183594 44.476562 C 26.085938 44.160156 25.960938 43.863281 25.808594 43.570312 C 21.761719 46.335938 23.363281 49.761719 27.945312 51.894531 M 33.628906 43.925781 C 33.640625 43.929688 33.65625 43.933594 33.671875 43.9375 C 33.84375 43.980469 34.023438 44.003906 34.210938 44.003906 C 34.738281 44.003906 35.222656 43.816406 35.601562 43.507812 C 35.609375 43.5 35.621094 43.492188 35.628906 43.488281 C 36.101562 43.085938 36.40625 42.484375 36.40625 41.808594 C 36.40625 41.484375 36.335938 41.175781 36.207031 40.898438 C 36.199219 40.882812 36.191406 40.863281 36.183594 40.847656 C 35.828125 40.117188 35.078125 39.613281 34.210938 39.613281 C 34.101562 39.613281 33.992188 39.621094 33.886719 39.636719 L 33.84375 39.644531 C 33.441406 39.714844 33.078125 39.886719 32.78125 40.140625 L 32.753906 40.167969 C 32.300781 40.570312 32.015625 41.15625 32.015625 41.808594 C 32.015625 42.820312 32.699219 43.671875 33.628906 43.925781 M 26.058594 43.148438 C 26.0625 43.160156 26.070312 43.171875 26.074219 43.179688 C 26.117188 43.257812 26.160156 43.335938 26.203125 43.414062 C 27.027344 42.929688 27.8125 42.382812 28.558594 41.785156 C 28.570312 41.777344 28.582031 41.765625 28.589844 41.761719 C 28.941406 41.476562 29.289062 41.183594 29.625 40.882812 C 29.640625 40.863281 29.65625 40.847656 29.675781 40.835938 C 30.015625 40.527344 30.351562 40.207031 30.679688 39.878906 C 30.691406 39.863281 30.707031 39.847656 30.722656 39.835938 C 31.160156 39.390625 31.585938 38.933594 32.003906 38.464844 C 32.019531 38.433594 32.039062 38.410156 32.066406 38.390625 C 32.4375 37.96875 32.804688 37.53125 33.164062 37.085938 C 33.175781 37.054688 33.199219 37.03125 33.222656 37.011719 C 33.542969 36.613281 33.855469 36.210938 34.167969 35.800781 C 34.195312 35.761719 34.191406 35.773438 34.21875 35.734375 C 34.566406 35.273438 34.90625 34.804688 35.246094 34.335938 C 35.257812 34.3125 35.273438 34.289062 35.292969 34.269531 C 36.53125 32.539062 37.710938 30.757812 38.898438 29.035156 C 38.90625 29.015625 38.921875 28.996094 38.933594 28.980469 C 39.273438 28.492188 39.613281 28.007812 39.953125 27.527344 C 39.960938 27.507812 39.976562 27.488281 39.992188 27.472656 C 40.578125 26.652344 41.171875 25.851562 41.777344 25.085938 C 41.835938 25.011719 41.890625 24.941406 41.949219 24.871094 C 41.960938 24.84375 41.976562 24.824219 41.996094 24.808594 C 42.351562 24.371094 42.710938 23.941406 43.078125 23.53125 C 43.089844 23.511719 43.105469 23.496094 43.121094 23.480469 C 43.773438 22.746094 44.449219 22.0625 45.15625 21.441406 C 45.167969 21.421875 45.1875 21.40625 45.207031 21.394531 C 45.648438 21.007812 46.101562 20.644531 46.570312 20.3125 C 46.585938 20.296875 46.605469 20.28125 46.628906 20.273438 L 46.695312 20.222656 C 46.707031 20.214844 46.71875 20.207031 46.730469 20.199219 C 46.796875 20.15625 46.859375 20.109375 46.925781 20.066406 L 46.519531 18.875 C 46.292969 19.050781 46.066406 19.234375 45.84375 19.414062 C 45.835938 19.425781 45.820312 19.4375 45.808594 19.445312 C 37.878906 26.03125 34.488281 36.722656 25.714844 42.597656 C 25.835938 42.777344 25.949219 42.960938 26.058594 43.148438 M 35.144531 35.671875 C 35.15625 35.671875 35.164062 35.671875 35.171875 35.671875 C 37.644531 35.429688 39.808594 33.464844 40.25 30.851562 C 40.25 30.828125 40.253906 30.804688 40.261719 30.785156 C 40.34375 30.261719 40.359375 29.714844 40.292969 29.148438 C 40.285156 29.128906 40.28125 29.105469 40.285156 29.082031 C 40.242188 28.75 40.171875 28.410156 40.070312 28.066406 C 39.8125 28.433594 39.5625 28.796875 39.3125 29.160156 C 39.675781 31.015625 38.820312 33.621094 35.570312 34.605469 C 35.304688 34.96875 35.042969 35.335938 34.773438 35.695312 C 34.898438 35.691406 35.023438 35.683594 35.144531 35.671875 M 43.671875 26.613281 C 45.835938 25.59375 46.761719 23.269531 46.554688 20.84375 C 46.210938 21.097656 45.875 21.371094 45.542969 21.660156 C 45.6875 23.152344 45.15625 24.316406 43.722656 25.402344 C 43.738281 25.816406 43.722656 26.21875 43.671875 26.613281 M 43.683594 24.898438 C 44.75 24.023438 45.171875 23.121094 45.144531 22.015625 C 44.574219 22.539062 44.023438 23.101562 43.488281 23.695312 C 43.578125 24.105469 43.644531 24.503906 43.683594 24.898438 M 40.644531 28.664062 C 41.640625 27.652344 41.957031 26.566406 41.957031 25.523438 C 41.410156 26.214844 40.886719 26.921875 40.378906 27.636719 C 40.496094 27.984375 40.585938 28.328125 40.644531 28.664062 M 35.992188 34.011719 C 38.332031 33.082031 39.070312 31.1875 38.960938 29.675781 C 38.425781 30.460938 37.914062 31.226562 37.417969 31.953125 C 36.949219 32.640625 36.472656 33.328125 35.992188 34.011719 M 37.851562 22.21875 C 37.617188 21.898438 37.535156 21.421875 37.613281 21.046875 C 37.652344 20.855469 37.84375 21.164062 37.878906 21.199219 C 38.007812 21.324219 38.1875 21.40625 38.359375 21.476562 C 38.714844 20.96875 39.074219 20.46875 39.441406 19.972656 C 39.859375 19.414062 40.28125 18.867188 40.71875 18.335938 C 39.996094 17.472656 38.773438 17.960938 39.113281 19.324219 C 39.179688 19.597656 38.769531 19.699219 38.703125 19.425781 C 38.628906 19.125 38.613281 18.851562 38.644531 18.617188 C 37.722656 18.3125 37.0625 19.152344 37.636719 19.988281 C 37.828125 19.808594 38.121094 20.085938 37.933594 20.289062 L 36.292969 22.054688 C 36.28125 22.074219 36.261719 22.09375 36.242188 22.109375 L 34.921875 23.535156 C 35.496094 23.636719 36.078125 23.785156 36.675781 23.984375 C 37.0625 23.390625 37.453125 22.800781 37.851562 22.21875 M 35.773438 20.769531 C 35.457031 20.691406 35.148438 20.589844 35.015625 20.265625 C 34.960938 20.121094 35.425781 20.195312 35.480469 20.195312 C 35.59375 20.199219 35.707031 20.171875 35.816406 20.136719 C 35.84375 19.902344 35.875 19.671875 35.90625 19.445312 C 35.90625 19.4375 35.90625 19.433594 35.910156 19.425781 C 35.921875 19.351562 35.929688 19.277344 35.941406 19.203125 C 35.976562 18.921875 36.394531 18.980469 36.359375 19.253906 C 37.597656 19.152344 37.355469 17.378906 36.042969 17.636719 C 35.765625 17.695312 35.683594 17.28125 35.960938 17.226562 C 36.257812 17.167969 36.515625 17.179688 36.734375 17.246094 C 36.597656 15.464844 33.867188 16.550781 35.425781 17.886719 C 35.636719 18.070312 35.363281 18.390625 35.148438 18.207031 C 34.878906 17.972656 34.703125 17.742188 34.601562 17.519531 C 33.636719 17.667969 33.917969 18.859375 34.53125 19.074219 L 34.542969 19.039062 C 34.609375 18.765625 35.015625 18.867188 34.949219 19.140625 L 34.894531 19.359375 C 34.894531 19.367188 34.890625 19.375 34.890625 19.386719 L 33.902344 23.386719 C 34.074219 23.40625 34.25 23.429688 34.421875 23.453125 L 35.875 21.882812 C 35.785156 21.523438 35.761719 21.148438 35.773438 20.769531 M 37.015625 19.488281 C 36.824219 19.601562 36.585938 19.671875 36.300781 19.679688 C 36.21875 20.277344 36.144531 20.914062 36.230469 21.503906 L 37.34375 20.300781 C 37.144531 20.035156 37.042969 19.757812 37.015625 19.488281 M 25.1875 20.882812 C 24.957031 21.128906 24.738281 21.382812 24.523438 21.640625 C 24.945312 22.222656 25.449219 22.609375 26.03125 22.855469 C 25.957031 22.339844 25.953125 21.597656 26.101562 21.125 Z M 23.714844 22.730469 C 22.710938 24.214844 21.96875 25.863281 21.519531 27.566406 C 21.972656 27.300781 22.457031 27.09375 22.820312 27.007812 C 22.695312 26.363281 22.722656 25.683594 22.988281 24.953125 C 23.082031 24.703125 23.355469 24.730469 23.394531 24.992188 C 23.558594 26.066406 24.632812 26.902344 25.46875 27.554688 C 25.667969 27.390625 25.878906 27.226562 26.105469 27.058594 C 24.894531 26.171875 23.957031 24.859375 23.714844 22.730469 M 21.378906 28.160156 C 21.324219 28.414062 21.273438 28.667969 21.230469 28.921875 L 22.144531 30.378906 C 22.296875 30.253906 22.457031 30.136719 22.621094 30.03125 C 21.886719 28.515625 21.742188 28.832031 23.195312 28.121094 C 23.085938 27.886719 22.996094 27.652344 22.921875 27.414062 C 22.53125 27.507812 21.90625 27.789062 21.378906 28.160156 M 21.136719 29.566406 C 21.058594 30.21875 21.019531 30.875 21.03125 31.527344 C 21.234375 31.261719 21.507812 30.953125 21.824219 30.660156 Z M 21.058594 32.234375 C 21.066406 32.40625 21.078125 32.578125 21.09375 32.746094 C 21.488281 32.460938 22.132812 32.023438 22.523438 31.902344 C 22.621094 31.394531 22.789062 30.835938 23.113281 30.234375 C 23.082031 30.253906 23.046875 30.269531 23.011719 30.289062 C 23.003906 30.292969 22.996094 30.300781 22.984375 30.304688 C 22.078125 30.824219 21.246094 31.871094 21.058594 32.234375 M 23.382812 28.5 L 22.5625 28.914062 L 22.992188 29.828125 C 23.148438 29.75 23.308594 29.6875 23.472656 29.648438 C 23.570312 29.5 23.679688 29.351562 23.800781 29.199219 C 23.652344 28.96875 23.511719 28.734375 23.382812 28.5 M 23.589844 36.308594 C 23.632812 36.898438 23.6875 37.492188 23.601562 38.070312 C 24.277344 38.027344 24.53125 37.828125 24.898438 37.457031 C 24.40625 37.148438 23.984375 36.804688 23.589844 36.308594 M 25.136719 27.828125 C 24.40625 27.257812 23.621094 26.621094 23.210938 25.785156 C 23.140625 26.257812 23.179688 26.703125 23.277344 27.113281 L 23.28125 27.128906 C 23.453125 27.824219 23.796875 28.417969 24.085938 28.863281 C 24.378906 28.53125 24.726562 28.183594 25.136719 27.828125 M 27.515625 31.855469 C 27.460938 31.9375 27.410156 32.023438 27.367188 32.113281 C 26.882812 33.074219 27.402344 33.8125 27.984375 33.8125 C 29.300781 33.8125 29.222656 31.929688 27.515625 31.855469 M 27.265625 27.757812 C 26.996094 27.621094 26.730469 27.472656 26.476562 27.3125 C 26.164062 27.539062 25.878906 27.757812 25.617188 27.972656 C 25.609375 27.984375 25.597656 27.992188 25.585938 28 C 25.03125 28.460938 24.59375 28.902344 24.242188 29.320312 C 24.234375 29.335938 24.222656 29.347656 24.210938 29.359375 C 24.054688 29.550781 23.914062 29.738281 23.792969 29.921875 C 23.78125 29.945312 23.769531 29.964844 23.75 29.980469 C 23.257812 30.738281 23.039062 31.414062 22.925781 32.015625 C 22.761719 32.914062 22.886719 34.066406 22.367188 34.851562 C 23.179688 34.804688 23.40625 34.574219 23.902344 34.078125 C 23.40625 31.839844 25.015625 28.960938 27.265625 27.757812 M 26.550781 21.242188 L 26.507812 21.230469 C 26.359375 21.664062 26.378906 22.566406 26.492188 23.023438 C 27.3125 23.265625 28.269531 23.308594 29.351562 23.300781 C 30.25 23.292969 31.109375 23.273438 31.949219 23.285156 C 31.648438 22.902344 31.480469 22.5 31.40625 22.148438 C 30.152344 22.648438 27.671875 22.484375 26.550781 21.242188 M 29.90625 20.527344 C 29.34375 19.710938 29.210938 18.617188 29.914062 17.507812 C 28.976562 17.917969 28.101562 18.425781 27.296875 19.011719 C 27.675781 19.777344 28.730469 20.707031 29.90625 20.527344 M 31.402344 21.691406 C 30.949219 21.515625 30.535156 21.242188 30.207031 20.898438 C 28.726562 21.277344 27.445312 20.171875 26.957031 19.265625 C 26.449219 19.660156 25.96875 20.082031 25.519531 20.535156 L 26.421875 20.773438 C 26.433594 20.777344 26.445312 20.777344 26.453125 20.78125 L 26.683594 20.839844 C 26.714844 20.84375 26.75 20.855469 26.78125 20.875 C 26.8125 20.894531 26.835938 20.921875 26.851562 20.949219 C 27.921875 22.160156 30.445312 22.179688 31.402344 21.691406 M 31.585938 17.796875 L 31.710938 17.882812 C 31.726562 17.890625 31.738281 17.902344 31.753906 17.914062 L 32.433594 18.398438 L 32.28125 16.710938 C 31.730469 16.839844 31.199219 17.003906 30.6875 17.195312 C 29.59375 18.386719 29.71875 19.644531 30.398438 20.488281 C 30.421875 20.507812 30.441406 20.53125 30.453125 20.554688 C 30.992188 21.179688 31.84375 21.554688 32.714844 21.46875 L 32.632812 20.550781 C 32.519531 20.578125 32.40625 20.589844 32.292969 20.589844 C 31.484375 20.589844 30.828125 19.933594 30.828125 19.128906 C 30.828125 18.710938 31 18.335938 31.277344 18.070312 C 31.175781 17.898438 31.386719 17.652344 31.585938 17.796875 M 33.152344 21.679688 C 33.148438 21.714844 33.136719 21.75 33.113281 21.777344 C 33.09375 21.808594 33.058594 21.835938 33.011719 21.847656 C 33.003906 21.851562 32.992188 21.855469 32.980469 21.859375 C 32.625 21.917969 32.265625 21.910156 31.921875 21.839844 C 31.882812 21.875 31.839844 21.910156 31.796875 21.941406 C 31.855469 22.339844 32.058594 22.851562 32.53125 23.296875 C 32.847656 23.304688 33.164062 23.324219 33.480469 23.347656 L 34.429688 19.484375 C 33.394531 19.179688 33.109375 17.34375 34.503906 17.109375 C 34.496094 16.804688 34.621094 16.539062 34.828125 16.328125 C 34.09375 16.375 33.382812 16.472656 32.695312 16.617188 L 32.890625 18.773438 C 32.898438 18.796875 32.898438 18.820312 32.898438 18.847656 L 32.917969 19.074219 C 32.945312 19.355469 32.523438 19.390625 32.5 19.113281 L 32.484375 18.949219 L 31.617188 18.332031 C 31.390625 18.523438 31.25 18.808594 31.25 19.128906 C 31.25 19.703125 31.714844 20.171875 32.292969 20.171875 C 32.394531 20.171875 32.496094 20.15625 32.59375 20.125 L 32.585938 20.050781 C 32.558594 19.773438 32.980469 19.734375 33.003906 20.011719 L 33.023438 20.226562 C 33.027344 20.246094 33.027344 20.261719 33.027344 20.277344 L 33.152344 21.628906 C 33.152344 21.648438 33.152344 21.664062 33.152344 21.679688 M 40.789062 8.992188 L 38.363281 14.640625 C 38.679688 14.699219 38.992188 14.765625 39.308594 14.84375 L 41.6875 10.253906 C 41.816406 10.003906 42.191406 10.199219 42.0625 10.449219 L 39.722656 14.957031 C 40.136719 15.074219 40.546875 15.207031 40.957031 15.363281 L 44.257812 9.890625 C 43.089844 9.496094 41.929688 9.199219 40.789062 8.992188 M 36.792969 8.625 L 35.308594 14.390625 C 35.6875 14.382812 36.070312 14.390625 36.457031 14.410156 L 37.878906 9.863281 C 37.960938 9.59375 38.363281 9.71875 38.28125 9.988281 L 36.886719 14.441406 C 37.238281 14.46875 37.585938 14.511719 37.9375 14.566406 L 40.359375 8.921875 C 39.152344 8.722656 37.960938 8.628906 36.792969 8.625 M 32.792969 8.980469 L 32.402344 14.734375 C 32.777344 14.652344 33.160156 14.585938 33.542969 14.53125 L 34.238281 9.984375 C 34.28125 9.707031 34.695312 9.773438 34.652344 10.046875 L 33.976562 14.476562 C 34.273438 14.445312 34.570312 14.421875 34.871094 14.40625 L 36.359375 8.625 C 35.140625 8.648438 33.949219 8.765625 32.792969 8.980469 M 28.859375 10.09375 L 29.597656 15.617188 C 29.921875 15.480469 30.25 15.359375 30.578125 15.242188 L 30.425781 10.636719 C 30.417969 10.359375 30.839844 10.34375 30.847656 10.625 L 30.996094 15.109375 C 31.316406 15.003906 31.644531 14.914062 31.972656 14.832031 L 32.363281 9.0625 C 31.15625 9.308594 29.984375 9.660156 28.859375 10.09375 M 25.355469 11.828125 L 27.074219 16.933594 C 27.347656 16.761719 27.621094 16.597656 27.902344 16.441406 L 26.886719 12.175781 C 26.820312 11.902344 27.230469 11.804688 27.292969 12.078125 L 28.285156 16.234375 C 28.585938 16.078125 28.890625 15.929688 29.199219 15.789062 L 28.457031 10.257812 C 27.378906 10.699219 26.34375 11.226562 25.355469 11.828125 M 22.136719 14.191406 L 24.75 18.695312 C 24.976562 18.492188 25.210938 18.292969 25.445312 18.101562 L 23.722656 14.136719 C 23.613281 13.878906 23.996094 13.710938 24.109375 13.96875 L 25.789062 17.832031 C 26.089844 17.601562 26.394531 17.378906 26.710938 17.167969 L 24.988281 12.054688 C 23.980469 12.695312 23.027344 13.410156 22.136719 14.191406 M 19.421875 17.003906 L 22.742188 20.835938 C 22.949219 20.574219 23.164062 20.320312 23.386719 20.070312 L 20.925781 16.6875 C 20.761719 16.460938 21.101562 16.214844 21.265625 16.441406 L 23.675781 19.75 C 23.921875 19.488281 24.175781 19.234375 24.433594 18.988281 L 21.816406 14.476562 C 20.957031 15.261719 20.15625 16.105469 19.421875 17.003906 M 17.1875 20.257812 L 21.128906 23.261719 C 21.273438 23 21.425781 22.742188 21.582031 22.492188 L 18.6875 19.714844 C 18.484375 19.523438 18.773438 19.21875 18.976562 19.414062 L 21.808594 22.128906 C 22.023438 21.800781 22.246094 21.488281 22.476562 21.175781 L 19.15625 17.339844 C 18.429688 18.261719 17.769531 19.238281 17.1875 20.257812 M 15.554688 23.761719 L 19.945312 25.953125 C 20.050781 25.636719 20.167969 25.328125 20.292969 25.019531 L 16.9375 22.964844 C 16.699219 22.816406 16.917969 22.457031 17.15625 22.605469 L 20.460938 24.628906 C 20.605469 24.292969 20.761719 23.960938 20.929688 23.640625 L 16.980469 20.628906 C 16.429688 21.636719 15.953125 22.683594 15.554688 23.761719 M 14.496094 27.695312 L 19.273438 28.675781 C 19.324219 28.351562 19.386719 28.03125 19.457031 27.710938 L 15.796875 26.558594 C 15.527344 26.472656 15.65625 26.074219 15.921875 26.15625 L 19.550781 27.300781 C 19.628906 26.984375 19.71875 26.667969 19.8125 26.359375 L 15.414062 24.164062 C 15.011719 25.308594 14.707031 26.492188 14.496094 27.695312 M 14.175781 31.667969 L 19.078125 31.765625 C 19.066406 31.429688 19.066406 31.097656 19.078125 30.765625 L 15.28125 30.347656 C 15.003906 30.316406 15.050781 29.898438 15.328125 29.929688 L 19.09375 30.34375 C 19.117188 29.921875 19.15625 29.507812 19.210938 29.09375 L 14.425781 28.109375 C 14.246094 29.28125 14.160156 30.46875 14.175781 31.667969 M 14.628906 35.792969 L 19.4375 34.765625 C 19.363281 34.421875 19.304688 34.082031 19.253906 33.742188 L 15.425781 34.101562 C 15.144531 34.128906 15.105469 33.710938 15.386719 33.683594 L 19.195312 33.328125 C 19.148438 32.945312 19.117188 32.5625 19.09375 32.183594 L 14.183594 32.085938 C 14.222656 33.320312 14.367188 34.558594 14.628906 35.792969 M 15.851562 39.683594 L 20.289062 37.621094 C 20.175781 37.332031 20.070312 37.042969 19.976562 36.753906 L 16.351562 37.816406 C 16.085938 37.894531 15.964844 37.492188 16.234375 37.414062 L 19.847656 36.351562 C 19.726562 35.960938 19.621094 35.566406 19.527344 35.175781 L 14.71875 36.203125 C 14.992188 37.371094 15.367188 38.535156 15.851562 39.683594 M 21.71875 40.589844 L 17.890625 43.453125 C 18.53125 44.414062 19.261719 45.355469 20.082031 46.273438 L 23.089844 42.671875 C 22.890625 42.398438 22.699219 42.128906 22.515625 41.855469 L 19.648438 44.691406 C 19.449219 44.886719 19.152344 44.589844 19.351562 44.390625 L 22.277344 41.496094 C 22.082031 41.195312 21.898438 40.890625 21.71875 40.589844 M 17.65625 43.097656 L 21.511719 40.21875 C 21.328125 39.890625 21.152344 39.558594 20.992188 39.230469 L 17.773438 41.195312 C 17.53125 41.339844 17.3125 40.980469 17.554688 40.835938 L 20.808594 38.847656 C 20.679688 38.570312 20.558594 38.292969 20.445312 38.011719 L 16.019531 40.070312 C 16.476562 41.09375 17.019531 42.105469 17.65625 43.097656 M 40.988281 18.007812 C 41.191406 17.765625 41.394531 17.527344 41.601562 17.289062 C 40.492188 16.921875 39.417969 16.664062 38.375 16.503906 C 38.359375 16.503906 38.339844 16.5 38.324219 16.496094 C 37.839844 16.421875 37.363281 16.371094 36.894531 16.335938 C 37.074219 16.59375 37.183594 16.964844 37.160156 17.476562 C 37.40625 17.6875 37.550781 17.992188 37.582031 18.304688 C 37.886719 18.117188 38.296875 18.058594 38.757812 18.210938 C 39.136719 17.363281 40.273438 17.230469 40.988281 18.007812 M 35.867188 25.242188 C 36.058594 24.945312 36.25 24.648438 36.4375 24.351562 C 35.78125 24.132812 35.140625 23.988281 34.507812 23.890625 C 34.484375 23.890625 34.460938 23.886719 34.441406 23.882812 C 32.773438 23.632812 31.144531 23.707031 29.351562 23.71875 C 28.242188 23.730469 27.203125 23.6875 26.289062 23.398438 C 26.261719 23.394531 26.238281 23.386719 26.21875 23.375 C 25.464844 23.125 24.800781 22.699219 24.253906 21.984375 C 24.199219 22.054688 24.144531 22.125 24.09375 22.199219 C 24.113281 22.546875 24.148438 22.871094 24.203125 23.179688 C 25.269531 24.574219 27.328125 24.777344 29.632812 24.769531 C 31.453125 24.765625 34.132812 24.535156 35.867188 25.242188 M 35.085938 26.464844 C 35.269531 26.175781 35.453125 25.890625 35.636719 25.601562 C 33.984375 24.96875 31.332031 25.1875 29.632812 25.191406 C 27.660156 25.195312 25.671875 25.0625 24.390625 23.984375 C 24.585938 24.628906 24.867188 25.171875 25.21875 25.628906 C 27.109375 26.441406 30.746094 26.023438 32.976562 26.132812 C 33.761719 26.171875 34.492188 26.261719 35.085938 26.464844 M 34.203125 27.851562 C 34.421875 27.511719 34.636719 27.171875 34.851562 26.832031 C 33.566406 26.429688 31.480469 26.527344 30.214844 26.542969 C 28.667969 26.570312 27.054688 26.582031 25.796875 26.261719 C 26.453125 26.867188 27.257812 27.300781 28.152344 27.671875 C 28.78125 27.777344 30.363281 27.679688 30.90625 27.664062 C 32.085938 27.632812 33.382812 27.625 34.203125 27.851562 M 33.050781 29.640625 C 33.355469 29.171875 33.664062 28.699219 33.964844 28.222656 C 32.804688 27.957031 30.695312 28.101562 29.382812 28.128906 C 29.839844 28.289062 30.3125 28.441406 30.792969 28.597656 C 31.496094 28.832031 32.167969 29.082031 32.71875 29.417969 C 32.738281 29.425781 32.761719 29.4375 32.777344 29.453125 C 32.871094 29.511719 32.964844 29.574219 33.050781 29.640625 M 31.914062 31.339844 C 32.21875 30.894531 32.519531 30.445312 32.816406 29.992188 C 32.742188 29.933594 32.664062 29.882812 32.582031 29.828125 C 32.152344 29.863281 31.613281 29.929688 31.039062 30.042969 C 31.414062 30.425781 31.738281 30.917969 31.914062 31.339844 M 30.746094 32.988281 C 31.039062 32.589844 31.328125 32.183594 31.609375 31.773438 C 31.527344 31.363281 31.082031 30.613281 30.539062 30.152344 C 30.128906 30.25 29.714844 30.378906 29.324219 30.539062 C 30.351562 31.128906 30.714844 32.074219 30.746094 32.988281 M 29.363281 34.796875 C 29.679688 34.402344 29.988281 34.003906 30.292969 33.601562 C 30.4375 32.539062 30.164062 31.351562 28.835938 30.761719 C 28.460938 30.953125 28.117188 31.1875 27.839844 31.464844 C 29.792969 31.777344 29.753906 34.234375 27.984375 34.234375 C 26.519531 34.234375 26.597656 32.421875 27.230469 31.535156 C 27.238281 31.519531 27.25 31.503906 27.265625 31.492188 L 27.269531 31.484375 C 27.582031 31.078125 28.050781 30.691406 28.703125 30.359375 C 28.726562 30.339844 28.75 30.328125 28.777344 30.324219 C 29.253906 30.089844 29.824219 29.882812 30.503906 29.722656 C 30.527344 29.710938 30.554688 29.703125 30.582031 29.703125 C 30.988281 29.609375 31.433594 29.53125 31.917969 29.472656 C 31.542969 29.300781 31.117188 29.152344 30.65625 29 C 30.359375 28.898438 30.054688 28.800781 29.738281 28.703125 C 23.101562 30.84375 25.769531 36.695312 29.363281 34.796875 M 27.859375 36.5625 C 28.183594 36.207031 28.496094 35.84375 28.804688 35.472656 C 25.207031 36.496094 22.929688 30.816406 29.082031 28.488281 C 28.640625 28.335938 28.191406 28.171875 27.757812 27.984375 C 23.757812 29.773438 22.425781 35.859375 27.859375 36.5625 M 26.589844 37.894531 C 26.90625 37.582031 27.214844 37.261719 27.515625 36.9375 C 25.550781 36.617188 24.46875 35.695312 24.039062 34.53125 C 23.769531 34.792969 23.554688 34.964844 23.308594 35.082031 C 23.375 35.203125 23.433594 35.316406 23.5 35.421875 C 23.523438 35.445312 23.542969 35.476562 23.554688 35.511719 C 24.34375 36.8125 25.230469 37.191406 26.589844 37.894531 M 26.75 38.316406 C 25.941406 39.113281 25.089844 39.867188 24.179688 40.566406 L 24.242188 40.644531 C 24.382812 40.828125 24.519531 41.007812 24.660156 41.183594 C 28.898438 38.539062 31.996094 33.933594 35.074219 29.0625 C 37.738281 24.839844 40.542969 20.117188 44.179688 16.558594 C 44.191406 16.539062 44.210938 16.519531 44.230469 16.507812 C 44.597656 16.148438 44.976562 15.800781 45.359375 15.472656 L 45.039062 14.527344 C 43.632812 15.675781 42.355469 17.007812 41.171875 18.441406 C 41.160156 18.460938 41.144531 18.480469 41.125 18.496094 C 38.84375 21.261719 36.90625 24.398438 35.042969 27.3125 C 34.0625 28.847656 33.070312 30.390625 32.023438 31.898438 C 32.011719 31.921875 32 31.941406 31.980469 31.957031 C 31.558594 32.566406 31.125 33.167969 30.679688 33.757812 C 30.671875 33.78125 30.65625 33.796875 30.640625 33.8125 C 30.320312 34.238281 29.992188 34.664062 29.660156 35.078125 C 29.648438 35.097656 29.636719 35.113281 29.617188 35.128906 C 29.128906 35.734375 28.625 36.328125 28.105469 36.902344 C 28.09375 36.921875 28.078125 36.941406 28.058594 36.957031 C 27.644531 37.410156 27.21875 37.855469 26.78125 38.289062 Z M 45.507812 15.902344 C 45.183594 16.1875 44.863281 16.480469 44.550781 16.785156 L 44.316406 18.769531 L 45.636719 19.042969 C 45.878906 18.84375 46.128906 18.648438 46.378906 18.453125 L 46.203125 17.9375 C 45.824219 18.066406 45.414062 17.867188 45.285156 17.488281 C 45.15625 17.109375 45.359375 16.699219 45.734375 16.570312 Z M 25.472656 42.253906 C 34.085938 36.488281 37.523438 26 45.222656 19.386719 L 44.085938 19.160156 C 43.863281 19.109375 43.863281 19.117188 43.886719 18.863281 L 44.070312 17.261719 C 36.957031 24.53125 32.984375 36.457031 24.921875 41.515625 C 25.109375 41.761719 25.296875 42.007812 25.472656 42.253906 M 23.425781 39.527344 C 23.445312 39.542969 23.460938 39.566406 23.46875 39.589844 C 23.621094 39.808594 23.773438 40.023438 23.929688 40.230469 C 24.753906 39.59375 25.53125 38.917969 26.273438 38.203125 C 25.90625 38.015625 25.578125 37.847656 25.269531 37.675781 C 24.703125 38.25 24.3125 38.511719 23.339844 38.5 C 23.179688 38.5 23.09375 38.378906 23.140625 38.226562 C 23.316406 37.667969 23.152344 36.335938 23.140625 35.644531 C 23.0625 35.511719 22.984375 35.367188 22.90625 35.214844 C 22.644531 35.265625 22.332031 35.285156 21.898438 35.285156 C 21.65625 35.285156 21.578125 35.082031 21.757812 34.921875 C 22.40625 34.324219 22.308594 33.476562 22.449219 32.382812 C 22.074219 32.578125 21.402344 33.046875 21.140625 33.234375 C 21.460938 36.109375 22.402344 38.015625 23.425781 39.527344 M 22.636719 41.277344 C 22.636719 40.78125 22.796875 40.28125 23.03125 39.695312 C 21.988281 38.136719 21.027344 36.15625 20.710938 33.179688 C 20.707031 33.160156 20.703125 33.140625 20.707031 33.117188 C 20.675781 32.835938 20.652344 32.546875 20.636719 32.246094 C 20.632812 32.222656 20.628906 32.199219 20.632812 32.175781 C 20.628906 32.074219 20.621094 31.972656 20.621094 31.871094 C 20.582031 30.910156 20.644531 29.9375 20.796875 28.972656 C 20.796875 28.945312 20.800781 28.917969 20.808594 28.890625 C 20.859375 28.605469 20.914062 28.316406 20.976562 28.03125 C 20.976562 28.003906 20.984375 27.972656 20.996094 27.945312 C 21.621094 25.222656 22.976562 22.617188 24.949219 20.523438 C 24.960938 20.503906 24.976562 20.484375 25 20.46875 C 25.578125 19.859375 26.214844 19.292969 26.898438 18.78125 L 26.910156 18.773438 C 27.984375 17.972656 29.175781 17.308594 30.480469 16.820312 C 30.492188 16.8125 30.507812 16.804688 30.523438 16.800781 C 32.117188 16.207031 33.878906 15.875 35.785156 15.875 C 35.894531 15.863281 36.007812 15.867188 36.117188 15.878906 C 36.820312 15.894531 37.542969 15.953125 38.28125 16.0625 C 38.609375 15.636719 39.015625 15.417969 39.511719 15.335938 C 39.46875 15.324219 39.425781 15.3125 39.382812 15.300781 C 39.375 15.296875 39.363281 15.296875 39.355469 15.292969 C 38.441406 15.050781 37.519531 14.90625 36.605469 14.84375 L 36.59375 14.84375 C 31.738281 14.527344 27.054688 16.660156 23.820312 20.214844 L 23.8125 20.226562 C 23.15625 20.945312 22.5625 21.722656 22.039062 22.550781 C 22.03125 22.5625 22.027344 22.570312 22.019531 22.582031 C 21.535156 23.347656 21.109375 24.160156 20.753906 25.003906 C 20.753906 25.007812 20.75 25.015625 20.75 25.019531 C 20.398438 25.851562 20.117188 26.71875 19.910156 27.613281 C 19.105469 31.066406 19.40625 34.929688 21.269531 38.839844 L 21.273438 38.84375 C 21.660156 39.652344 22.113281 40.464844 22.636719 41.277344 M 32.703125 39.671875 C 32.953125 39.492188 33.242188 39.359375 33.550781 39.277344 C 33.386719 38.835938 33.246094 38.308594 33.183594 37.726562 C 32.929688 38.03125 32.675781 38.332031 32.414062 38.628906 C 32.46875 38.972656 32.550781 39.328125 32.703125 39.671875 M 31.6875 41.117188 C 31.808594 40.671875 32.046875 40.273438 32.367188 39.953125 C 32.21875 39.644531 32.125 39.328125 32.0625 39.027344 C 31.753906 39.363281 31.441406 39.699219 31.125 40.023438 C 31.316406 40.308594 31.511719 40.679688 31.6875 41.117188 M 42.519531 28.574219 C 42.53125 28.550781 42.542969 28.527344 42.5625 28.507812 C 42.867188 28.007812 43.070312 27.488281 43.183594 26.941406 C 43.1875 26.917969 43.191406 26.898438 43.199219 26.875 C 43.296875 26.382812 43.328125 25.875 43.300781 25.34375 C 43.292969 25.320312 43.292969 25.296875 43.296875 25.273438 C 43.269531 24.886719 43.21875 24.496094 43.140625 24.089844 C 42.875 24.394531 42.613281 24.707031 42.355469 25.023438 C 42.472656 26.378906 42.152344 27.859375 40.71875 29.179688 C 40.765625 29.601562 40.765625 30.011719 40.730469 30.414062 C 41.527344 29.832031 42.113281 29.222656 42.519531 28.574219 M 43.195312 28.222656 C 45.039062 27.507812 47.308594 27.167969 49.078125 27.71875 C 48.285156 25.386719 47.460938 22.925781 47.003906 21.546875 C 46.984375 23.925781 45.90625 26.167969 43.578125 27.113281 C 43.492188 27.492188 43.363281 27.863281 43.195312 28.222656 M 26.683594 49.714844 C 27.09375 49.96875 27.542969 50.179688 28.015625 50.335938 C 33.300781 47.664062 32.027344 42.207031 30.820312 40.328125 C 30.570312 40.574219 30.316406 40.816406 30.058594 41.054688 C 31.875 44.441406 31.039062 48.308594 26.683594 49.714844 M 25.339844 48.476562 C 25.574219 48.8125 25.882812 49.128906 26.246094 49.40625 C 30.535156 48.191406 31.429688 44.59375 29.734375 41.34375 C 29.488281 41.5625 29.238281 41.777344 28.984375 41.984375 C 30.78125 45.09375 28.433594 48.269531 25.339844 48.476562 M 24.855469 47.269531 C 24.886719 47.542969 24.96875 47.808594 25.09375 48.066406 C 28.035156 48.015625 30.238281 45.089844 28.648438 42.25 C 28.351562 42.484375 28.046875 42.710938 27.734375 42.925781 C 28.328125 43.996094 28.820312 46.8125 24.855469 47.269531 M 26.296875 44.90625 C 25.363281 45.496094 24.929688 46.171875 24.855469 46.84375 C 25.472656 46.769531 25.964844 46.632812 26.359375 46.453125 C 26.421875 45.890625 26.394531 45.378906 26.296875 44.90625 M 26.628906 44.488281 C 26.640625 44.511719 26.648438 44.535156 26.648438 44.5625 C 26.78125 45.0625 26.84375 45.605469 26.804688 46.207031 C 28.085938 45.328125 27.765625 43.859375 27.386719 43.164062 C 27.058594 43.382812 26.726562 43.59375 26.382812 43.796875 C 26.480469 44.019531 26.5625 44.25 26.628906 44.488281 M 45.933594 52.46875 C 45.914062 52.476562 45.894531 52.484375 45.875 52.488281 C 44.589844 52.992188 43.28125 53.375 41.984375 53.640625 C 41.964844 53.648438 41.945312 53.652344 41.921875 53.652344 C 40.722656 53.898438 39.53125 54.046875 38.363281 54.113281 C 38.34375 54.117188 38.324219 54.117188 38.304688 54.117188 C 34.382812 54.328125 30.722656 53.605469 27.976562 52.375 L 27.882812 52.332031 C 27.855469 52.324219 27.832031 52.3125 27.8125 52.296875 C 23.140625 50.132812 21.03125 46.296875 25.601562 43.199219 C 25.132812 42.417969 24.511719 41.691406 23.90625 40.902344 C 23.714844 40.652344 23.515625 40.386719 23.320312 40.113281 C 22.960938 41.074219 22.917969 41.691406 23.527344 42.558594 C 23.597656 42.65625 23.570312 42.757812 23.507812 42.824219 L 20.25 46.726562 C 20.164062 46.832031 20.023438 46.832031 19.933594 46.734375 C 3.636719 28.875 22.207031 1.78125 44.640625 9.578125 C 44.777344 9.625 44.828125 9.761719 44.753906 9.882812 L 41.234375 15.714844 C 41.199219 15.792969 41.121094 15.847656 41.007812 15.828125 C 39.914062 15.625 39.246094 15.6875 38.773438 16.140625 C 39.789062 16.316406 40.832031 16.582031 41.90625 16.949219 C 42.867188 15.886719 43.886719 14.90625 44.984375 14.027344 C 45 14.011719 45.015625 14 45.035156 13.988281 C 45.089844 13.953125 45.148438 13.949219 45.203125 13.964844 C 45.253906 13.980469 45.300781 14.015625 45.328125 14.078125 C 45.339844 14.09375 45.347656 14.113281 45.351562 14.132812 L 47.375 20.070312 C 47.394531 20.117188 47.398438 20.171875 47.382812 20.21875 C 47.363281 20.273438 47.328125 20.308594 47.28125 20.335938 C 47.21875 20.378906 47.152344 20.421875 47.085938 20.464844 C 47.503906 21.71875 50.402344 30.4375 51.296875 32.785156 C 51.578125 33.519531 52.191406 34.859375 52.203125 35.636719 C 52.214844 36.433594 51.664062 36.800781 50.53125 36.882812 C 49.96875 37.421875 49.882812 37.617188 50.1875 38.023438 C 50.792969 38.820312 50.457031 39.179688 49.785156 39.71875 C 50.4375 40.246094 50.289062 41.195312 49.96875 41.210938 C 49.496094 41.234375 49.316406 41.382812 49.050781 41.757812 C 51.117188 43.789062 49.40625 45.523438 46.65625 46.105469 C 45.785156 46.289062 44.78125 46.375 43.695312 46.335938 C 43.695312 46.347656 43.691406 46.359375 43.6875 46.371094 C 43.316406 47.535156 43.105469 48.65625 43.019531 49.6875 C 44.863281 50.203125 47.046875 50.882812 47.621094 51.363281 C 47.640625 51.375 47.65625 51.394531 47.671875 51.414062 C 47.714844 51.464844 47.726562 51.523438 47.71875 51.574219 C 47.710938 51.628906 47.683594 51.679688 47.625 51.714844 C 47.609375 51.730469 47.589844 51.738281 47.570312 51.75 C 47.027344 52.011719 46.480469 52.25 45.933594 52.46875 M 42.972656 51.085938 C 44.125 51.386719 45.375 51.753906 45.859375 52.042969 C 46.269531 51.878906 46.675781 51.703125 47.082031 51.511719 C 46.351562 51.121094 44.625 50.574219 42.988281 50.113281 C 42.972656 50.449219 42.964844 50.777344 42.972656 51.085938 M 45.324219 52.25 C 44.8125 52.039062 43.921875 51.773438 42.992188 51.527344 C 43.023438 52.042969 43.085938 52.511719 43.175781 52.929688 C 43.894531 52.738281 44.613281 52.511719 45.324219 52.25 "/>
<path style=" stroke:none;fill-rule:nonzero;fill:rgb(11.372375%,11.372375%,10.588074%);fill-opacity:1;" d="M 129.609375 40.527344 L 129.609375 41.273438 L 131.984375 41.273438 L 131.984375 48.605469 L 132.875 48.605469 L 132.875 41.273438 L 135.261719 41.273438 L 135.261719 40.527344 Z M 124.132812 40.519531 L 121.667969 40.527344 L 121.667969 48.605469 L 123.859375 48.605469 C 126.660156 48.605469 128.507812 47.1875 128.507812 44.457031 C 128.507812 42.480469 127.382812 40.519531 124.132812 40.519531 M 123.757812 47.90625 L 122.578125 47.90625 L 122.578125 41.226562 L 123.941406 41.234375 C 126.183594 41.234375 127.65625 42.382812 127.65625 44.515625 C 127.65625 46.636719 126.15625 47.90625 123.757812 47.90625 M 119.824219 48.515625 L 116.625 40.527344 L 115.679688 40.527344 L 112.386719 48.515625 L 113.28125 48.828125 L 114.367188 45.996094 L 117.882812 45.996094 L 118.9375 48.835938 Z M 116.152344 41.34375 L 117.636719 45.339844 L 114.617188 45.339844 Z M 106.296875 40.527344 L 106.296875 41.273438 L 108.671875 41.273438 L 108.671875 48.605469 L 109.5625 48.605469 L 109.5625 41.273438 L 111.949219 41.273438 L 111.949219 40.527344 Z M 102.164062 48.144531 C 101.535156 48.144531 100.890625 47.871094 100.441406 47.574219 L 100.085938 48.164062 C 100.734375 48.550781 101.382812 48.757812 102.21875 48.757812 C 103.976562 48.757812 104.792969 47.65625 104.792969 46.480469 C 104.792969 45.253906 103.921875 44.730469 102.996094 44.289062 L 102.320312 43.964844 C 101.730469 43.667969 101.101562 43.277344 101.101562 42.519531 C 101.101562 41.472656 101.964844 41 102.707031 41 C 103.460938 41 103.953125 41.261719 104.421875 41.566406 L 104.730469 40.972656 C 104.105469 40.609375 103.421875 40.382812 102.660156 40.382812 C 101.234375 40.382812 100.253906 41.25 100.253906 42.460938 C 100.253906 44.148438 101.492188 44.453125 102.679688 45.027344 C 103.332031 45.34375 103.871094 45.738281 103.871094 46.5625 C 103.871094 47.53125 103.160156 48.144531 102.164062 48.144531 M 90.902344 40.527344 L 89.914062 40.527344 L 87.65625 48.519531 L 88.527344 48.753906 L 90.429688 41.734375 L 92.476562 48.605469 L 93.492188 48.605469 L 95.578125 41.71875 L 97.453125 48.753906 L 98.308594 48.519531 L 96.0625 40.527344 L 95.070312 40.527344 L 92.984375 47.566406 Z M 82.421875 40.527344 L 79.980469 40.523438 L 79.980469 48.613281 L 80.890625 48.613281 L 80.890625 45.132812 L 81.632812 45.132812 C 82.226562 45.132812 82.535156 45.351562 82.886719 45.78125 L 83.234375 46.226562 L 85.132812 48.808594 L 85.921875 48.339844 L 84.324219 46.21875 C 84.007812 45.832031 83.578125 45.074219 83.0625 44.953125 L 83.070312 44.785156 C 84.183594 44.636719 84.835938 43.988281 84.835938 42.6875 C 84.835938 41.371094 83.945312 40.527344 82.421875 40.527344 M 81.96875 44.464844 L 80.890625 44.464844 L 80.890625 41.222656 L 82.195312 41.222656 C 83.585938 41.222656 84 41.902344 84 42.835938 C 84 44.121094 82.996094 44.464844 81.96875 44.464844 M 77.832031 48.507812 L 74.632812 40.523438 L 73.6875 40.523438 L 70.394531 48.507812 L 71.285156 48.820312 L 72.375 45.988281 L 75.886719 45.988281 L 76.945312 48.824219 Z M 74.160156 41.335938 L 75.644531 45.335938 L 72.625 45.335938 Z M 64.769531 40.519531 L 62.300781 40.527344 L 62.300781 48.605469 L 64.496094 48.605469 C 67.292969 48.605469 69.144531 47.1875 69.144531 44.457031 C 69.144531 42.480469 68.015625 40.519531 64.769531 40.519531 M 64.394531 47.90625 L 63.210938 47.90625 L 63.210938 41.226562 L 64.578125 41.234375 C 66.820312 41.234375 68.289062 42.382812 68.289062 44.515625 C 68.289062 46.636719 66.792969 47.90625 64.394531 47.90625 M 129.636719 27.15625 L 129.636719 27.902344 L 132.011719 27.902344 L 132.011719 35.242188 L 132.902344 35.242188 L 132.90625 27.902344 L 135.289062 27.902344 L 135.289062 27.15625 Z M 123.640625 26.644531 L 122.835938 26.644531 L 122.835938 27.703125 L 123.640625 27.703125 Z M 127.46875 26.644531 L 126.65625 26.644531 L 126.65625 27.703125 L 127.46875 27.703125 Z M 128.808594 35.144531 L 125.613281 27.15625 L 124.667969 27.15625 L 121.375 35.144531 L 122.265625 35.457031 L 123.351562 32.625 L 126.867188 32.625 L 127.921875 35.464844 Z M 125.136719 27.972656 L 126.625 31.972656 L 123.601562 31.972656 Z M 115.390625 27.15625 L 115.390625 27.902344 L 117.765625 27.902344 L 117.765625 35.242188 L 118.65625 35.242188 L 118.65625 27.902344 L 121.042969 27.902344 L 121.042969 27.15625 Z M 112.71875 35.242188 L 113.625 35.242188 L 113.625 27.160156 L 112.71875 27.160156 Z M 107.664062 34.804688 C 107.035156 34.804688 106.390625 34.53125 105.945312 34.234375 L 105.585938 34.820312 C 106.238281 35.214844 106.882812 35.417969 107.722656 35.417969 C 109.480469 35.417969 110.296875 34.316406 110.296875 33.140625 C 110.296875 31.910156 109.421875 31.390625 108.5 30.945312 L 107.820312 30.621094 C 107.230469 30.324219 106.605469 29.9375 106.605469 29.179688 C 106.605469 28.132812 107.46875 27.65625 108.210938 27.65625 C 108.964844 27.65625 109.457031 27.925781 109.921875 28.226562 L 110.230469 27.632812 C 109.609375 27.269531 108.921875 27.046875 108.164062 27.046875 C 106.738281 27.046875 105.757812 27.90625 105.757812 29.117188 C 105.757812 30.808594 106.992188 31.113281 108.179688 31.6875 C 108.835938 32.003906 109.375 32.398438 109.375 33.222656 C 109.375 34.191406 108.664062 34.804688 107.664062 34.804688 M 100.933594 27.164062 L 98.496094 27.15625 L 98.496094 35.25 L 99.40625 35.25 L 99.40625 31.769531 L 100.144531 31.769531 C 100.742188 31.769531 101.050781 31.988281 101.402344 32.417969 L 101.75 32.859375 L 103.644531 35.445312 L 104.433594 34.972656 L 102.835938 32.859375 C 102.523438 32.46875 102.09375 31.710938 101.578125 31.589844 L 101.585938 31.421875 C 102.699219 31.273438 103.347656 30.625 103.347656 29.324219 C 103.347656 28.007812 102.457031 27.164062 100.933594 27.164062 M 100.480469 31.101562 L 99.40625 31.101562 L 99.40625 27.859375 L 100.707031 27.859375 C 102.097656 27.859375 102.515625 28.539062 102.515625 29.46875 C 102.515625 30.757812 101.511719 31.101562 100.480469 31.101562 M 91.988281 27.15625 L 91.988281 35.242188 L 96.378906 35.242188 L 96.378906 34.496094 L 92.890625 34.496094 L 92.890625 31.433594 L 96.042969 31.433594 L 96.042969 30.683594 L 92.890625 30.683594 L 92.890625 27.902344 L 96.378906 27.902344 L 96.378906 27.15625 Z M 84.039062 27.035156 L 83.164062 27.3125 L 86.246094 35.242188 L 87.140625 35.242188 L 90.242188 27.324219 L 89.386719 27.035156 L 86.714844 34.285156 Z M 80.507812 35.242188 L 81.414062 35.242188 L 81.414062 27.160156 L 80.507812 27.160156 Z M 72.050781 26.980469 L 71.113281 27.21875 L 71.113281 35.242188 L 71.976562 35.242188 L 71.972656 28.308594 L 76.722656 35.421875 L 77.675781 35.15625 L 77.675781 27.164062 L 76.835938 27.164062 L 76.820312 34.09375 Z M 68.558594 32.457031 L 68.558594 27.15625 L 67.652344 27.15625 L 67.652344 32.324219 C 67.652344 34.136719 66.78125 34.710938 65.386719 34.710938 C 63.855469 34.710938 63.210938 33.875 63.210938 32.324219 L 63.210938 27.15625 L 62.28125 27.15625 L 62.304688 32.535156 C 62.304688 34.378906 63.390625 35.378906 65.386719 35.378906 C 66.902344 35.378906 68.558594 34.890625 68.558594 32.457031 M 130.765625 13.796875 L 130.765625 21.871094 L 135.164062 21.871094 L 135.164062 21.125 L 131.675781 21.125 L 131.675781 18.0625 L 134.835938 18.0625 L 134.835938 17.316406 L 131.675781 17.316406 L 131.675781 14.539062 L 135.164062 14.539062 L 135.164062 13.796875 Z M 121.683594 13.796875 L 121.683594 21.871094 L 122.585938 21.871094 L 122.585938 18.003906 L 126.988281 18.003906 L 126.988281 21.871094 L 127.886719 21.871094 L 127.886719 13.796875 L 126.988281 13.796875 L 126.988281 17.269531 L 122.585938 17.269531 L 122.585938 13.796875 Z M 116.933594 14.300781 C 117.707031 14.300781 118.390625 14.460938 119.027344 14.882812 L 119.367188 14.234375 C 118.609375 13.835938 117.859375 13.617188 116.933594 13.617188 C 114.546875 13.617188 112.664062 15.339844 112.664062 17.804688 C 112.664062 20.433594 114.542969 21.988281 116.933594 21.988281 C 117.75 21.988281 118.617188 21.675781 119.332031 21.269531 L 119.011719 20.695312 C 118.382812 21.046875 117.648438 21.304688 116.933594 21.304688 C 114.96875 21.304688 113.585938 19.742188 113.585938 17.804688 C 113.585938 15.863281 114.96875 14.300781 116.933594 14.300781 M 108.0625 21.378906 C 107.433594 21.378906 106.789062 21.105469 106.339844 20.808594 L 105.980469 21.394531 C 106.632812 21.789062 107.28125 21.992188 108.121094 21.992188 C 109.878906 21.992188 110.695312 20.890625 110.695312 19.714844 C 110.695312 18.484375 109.820312 17.964844 108.894531 17.523438 L 108.21875 17.195312 C 107.628906 16.898438 107.003906 16.515625 107.003906 15.753906 C 107.003906 14.703125 107.867188 14.230469 108.605469 14.230469 C 109.363281 14.230469 109.851562 14.496094 110.320312 14.800781 L 110.632812 14.207031 C 110.007812 13.84375 109.320312 13.617188 108.558594 13.617188 C 107.132812 13.617188 106.152344 14.480469 106.152344 15.695312 C 106.152344 17.382812 107.390625 17.6875 108.578125 18.261719 C 109.230469 18.578125 109.769531 18.972656 109.769531 19.800781 C 109.769531 20.765625 109.0625 21.378906 108.0625 21.378906 M 102.558594 21.871094 L 103.453125 21.871094 L 103.453125 13.796875 L 102.558594 13.796875 Z M 93.664062 13.609375 L 92.726562 13.847656 L 92.726562 21.871094 L 93.589844 21.871094 L 93.585938 14.9375 L 98.335938 22.050781 L 99.289062 21.785156 L 99.289062 13.796875 L 98.445312 13.796875 L 98.429688 20.722656 Z M 83.640625 13.796875 L 83.640625 21.871094 L 84.542969 21.871094 L 84.542969 18.003906 L 88.945312 18.003906 L 88.945312 21.871094 L 89.84375 21.871094 L 89.84375 13.796875 L 88.945312 13.796875 L 88.945312 17.269531 L 84.542969 17.269531 L 84.542969 13.796875 Z M 79.15625 14.300781 C 79.933594 14.300781 80.617188 14.460938 81.25 14.882812 L 81.59375 14.234375 C 80.835938 13.835938 80.085938 13.617188 79.15625 13.617188 C 76.769531 13.617188 74.890625 15.339844 74.890625 17.804688 C 74.890625 20.433594 76.765625 21.988281 79.15625 21.988281 C 79.976562 21.988281 80.839844 21.675781 81.554688 21.269531 L 81.238281 20.695312 C 80.605469 21.046875 79.875 21.304688 79.15625 21.304688 C 77.195312 21.304688 75.808594 19.742188 75.808594 17.804688 C 75.808594 15.863281 77.195312 14.300781 79.15625 14.300781 M 68.8125 13.796875 L 68.8125 21.871094 L 73.207031 21.871094 L 73.207031 21.125 L 69.71875 21.125 L 69.71875 18.0625 L 72.875 18.0625 L 72.875 17.316406 L 69.71875 17.316406 L 69.71875 14.539062 L 73.207031 14.539062 L 73.207031 13.796875 Z M 61.351562 13.796875 L 61.351562 14.539062 L 63.722656 14.539062 L 63.722656 21.871094 L 64.617188 21.871094 L 64.617188 14.539062 L 67.003906 14.539062 L 67.003906 13.796875 Z M 61.351562 13.796875 "/>
</g>
</svg>
