<?xml version="1.0" encoding="utf-8" standalone="no"?>
<!DOCTYPE svg PUBLIC "-//W3C//DTD SVG 1.1//EN"
  "http://www.w3.org/Graphics/SVG/1.1/DTD/svg11.dtd">
<!-- Created with matplotlib (https://matplotlib.org/) -->
<svg height="263.63625pt" version="1.1" viewBox="0 0 381.65 263.63625" width="381.65pt" xmlns="http://www.w3.org/2000/svg" xmlns:xlink="http://www.w3.org/1999/xlink">
 <metadata>
  <rdf:RDF xmlns:cc="http://creativecommons.org/ns#" xmlns:dc="http://purl.org/dc/elements/1.1/" xmlns:rdf="http://www.w3.org/1999/02/22-rdf-syntax-ns#">
   <cc:Work>
    <dc:type rdf:resource="http://purl.org/dc/dcmitype/StillImage"/>
    <dc:date>2021-07-30T16:38:58.454632</dc:date>
    <dc:format>image/svg+xml</dc:format>
    <dc:creator>
     <cc:Agent>
      <dc:title>Matplotlib v3.3.3, https://matplotlib.org/</dc:title>
     </cc:Agent>
    </dc:creator>
   </cc:Work>
  </rdf:RDF>
 </metadata>
 <defs>
  <style type="text/css">*{stroke-linecap:butt;stroke-linejoin:round;}</style>
 </defs>
 <g id="figure_1">
  <g id="patch_1">
   <path d="M 0 263.63625 
L 381.65 263.63625 
L 381.65 0 
L 0 0 
z
" style="fill:none;"/>
  </g>
  <g id="axes_1">
   <g id="patch_2">
    <path d="M 33.2875 121.154489 
L 368.0875 121.154489 
L 368.0875 22.318125 
L 33.2875 22.318125 
z
" style="fill:#ffffff;"/>
   </g>
   <g id="patch_3">
    <path clip-path="url(#p18e00866dd)" d="M 33.2875 121.154489 
L 36.2635 121.154489 
L 36.2635 27.024619 
L 33.2875 27.024619 
z
" style="fill:#1f77b4;"/>
   </g>
   <g id="patch_4">
    <path clip-path="url(#p18e00866dd)" d="M 37.0075 121.154489 
L 39.9835 121.154489 
L 39.9835 31.941287 
L 37.0075 31.941287 
z
" style="fill:#1f77b4;"/>
   </g>
   <g id="patch_5">
    <path clip-path="url(#p18e00866dd)" d="M 40.7275 121.154489 
L 43.7035 121.154489 
L 43.7035 89.317833 
L 40.7275 89.317833 
z
" style="fill:#1f77b4;"/>
   </g>
   <g id="patch_6">
    <path clip-path="url(#p18e00866dd)" d="M 44.4475 121.154489 
L 47.4235 121.154489 
L 47.4235 91.268714 
L 44.4475 91.268714 
z
" style="fill:#1f77b4;"/>
   </g>
   <g id="patch_7">
    <path clip-path="url(#p18e00866dd)" d="M 48.1675 121.154489 
L 51.1435 121.154489 
L 51.1435 98.817337 
L 48.1675 98.817337 
z
" style="fill:#1f77b4;"/>
   </g>
   <g id="patch_8">
    <path clip-path="url(#p18e00866dd)" d="M 51.8875 121.154489 
L 54.8635 121.154489 
L 54.8635 99.929739 
L 51.8875 99.929739 
z
" style="fill:#1f77b4;"/>
   </g>
   <g id="patch_9">
    <path clip-path="url(#p18e00866dd)" d="M 55.6075 121.154489 
L 58.5835 121.154489 
L 58.5835 110.847758 
L 55.6075 110.847758 
z
" style="fill:#1f77b4;"/>
   </g>
   <g id="patch_10">
    <path clip-path="url(#p18e00866dd)" d="M 59.3275 121.154489 
L 62.3035 121.154489 
L 62.3035 111.076037 
L 59.3275 111.076037 
z
" style="fill:#1f77b4;"/>
   </g>
   <g id="patch_11">
    <path clip-path="url(#p18e00866dd)" d="M 63.0475 121.154489 
L 66.0235 121.154489 
L 66.0235 114.767145 
L 63.0475 114.767145 
z
" style="fill:#1f77b4;"/>
   </g>
   <g id="patch_12">
    <path clip-path="url(#p18e00866dd)" d="M 66.7675 121.154489 
L 69.7435 121.154489 
L 69.7435 114.872834 
L 66.7675 114.872834 
z
" style="fill:#1f77b4;"/>
   </g>
   <g id="patch_13">
    <path clip-path="url(#p18e00866dd)" d="M 70.4875 121.154489 
L 73.4635 121.154489 
L 73.4635 117.689197 
L 70.4875 117.689197 
z
" style="fill:#1f77b4;"/>
   </g>
   <g id="patch_14">
    <path clip-path="url(#p18e00866dd)" d="M 74.2075 121.154489 
L 77.1835 121.154489 
L 77.1835 117.691545 
L 74.2075 117.691545 
z
" style="fill:#1f77b4;"/>
   </g>
   <g id="patch_15">
    <path clip-path="url(#p18e00866dd)" d="M 77.9275 121.154489 
L 80.9035 121.154489 
L 80.9035 119.026911 
L 77.9275 119.026911 
z
" style="fill:#1f77b4;"/>
   </g>
   <g id="patch_16">
    <path clip-path="url(#p18e00866dd)" d="M 81.6475 121.154489 
L 84.6235 121.154489 
L 84.6235 119.05359 
L 81.6475 119.05359 
z
" style="fill:#1f77b4;"/>
   </g>
   <g id="patch_17">
    <path clip-path="url(#p18e00866dd)" d="M 85.3675 121.154489 
L 88.3435 121.154489 
L 88.3435 119.977717 
L 85.3675 119.977717 
z
" style="fill:#1f77b4;"/>
   </g>
   <g id="patch_18">
    <path clip-path="url(#p18e00866dd)" d="M 89.0875 121.154489 
L 92.0635 121.154489 
L 92.0635 119.987927 
L 89.0875 119.987927 
z
" style="fill:#1f77b4;"/>
   </g>
   <g id="patch_19">
    <path clip-path="url(#p18e00866dd)" d="M 92.8075 121.154489 
L 95.7835 121.154489 
L 95.7835 120.473535 
L 92.8075 120.473535 
z
" style="fill:#1f77b4;"/>
   </g>
   <g id="patch_20">
    <path clip-path="url(#p18e00866dd)" d="M 96.5275 121.154489 
L 99.5035 121.154489 
L 99.5035 120.47786 
L 96.5275 120.47786 
z
" style="fill:#1f77b4;"/>
   </g>
   <g id="patch_21">
    <path clip-path="url(#p18e00866dd)" d="M 100.2475 121.154489 
L 103.2235 121.154489 
L 103.2235 120.658039 
L 100.2475 120.658039 
z
" style="fill:#1f77b4;"/>
   </g>
   <g id="patch_22">
    <path clip-path="url(#p18e00866dd)" d="M 103.9675 121.154489 
L 106.9435 121.154489 
L 106.9435 120.790314 
L 103.9675 120.790314 
z
" style="fill:#1f77b4;"/>
   </g>
   <g id="patch_23">
    <path clip-path="url(#p18e00866dd)" d="M 107.6875 121.154489 
L 110.6635 121.154489 
L 110.6635 120.790684 
L 107.6875 120.790684 
z
" style="fill:#1f77b4;"/>
   </g>
   <g id="patch_24">
    <path clip-path="url(#p18e00866dd)" d="M 111.4075 121.154489 
L 114.3835 121.154489 
L 114.3835 120.813868 
L 111.4075 120.813868 
z
" style="fill:#1f77b4;"/>
   </g>
   <g id="patch_25">
    <path clip-path="url(#p18e00866dd)" d="M 115.1275 121.154489 
L 118.1035 121.154489 
L 118.1035 120.940629 
L 115.1275 120.940629 
z
" style="fill:#1f77b4;"/>
   </g>
   <g id="patch_26">
    <path clip-path="url(#p18e00866dd)" d="M 118.8475 121.154489 
L 121.8235 121.154489 
L 121.8235 120.95473 
L 118.8475 120.95473 
z
" style="fill:#1f77b4;"/>
   </g>
   <g id="patch_27">
    <path clip-path="url(#p18e00866dd)" d="M 122.5675 121.154489 
L 125.5435 121.154489 
L 125.5435 120.957673 
L 122.5675 120.957673 
z
" style="fill:#1f77b4;"/>
   </g>
   <g id="patch_28">
    <path clip-path="url(#p18e00866dd)" d="M 126.2875 121.154489 
L 129.2635 121.154489 
L 129.2635 120.986242 
L 126.2875 120.986242 
z
" style="fill:#1f77b4;"/>
   </g>
   <g id="patch_29">
    <path clip-path="url(#p18e00866dd)" d="M 130.0075 121.154489 
L 132.9835 121.154489 
L 132.9835 121.011569 
L 130.0075 121.011569 
z
" style="fill:#1f77b4;"/>
   </g>
   <g id="patch_30">
    <path clip-path="url(#p18e00866dd)" d="M 133.7275 121.154489 
L 136.7035 121.154489 
L 136.7035 121.043984 
L 133.7275 121.043984 
z
" style="fill:#1f77b4;"/>
   </g>
   <g id="patch_31">
    <path clip-path="url(#p18e00866dd)" d="M 137.4475 121.154489 
L 140.4235 121.154489 
L 140.4235 121.049763 
L 137.4475 121.049763 
z
" style="fill:#1f77b4;"/>
   </g>
   <g id="patch_32">
    <path clip-path="url(#p18e00866dd)" d="M 141.1675 121.154489 
L 144.1435 121.154489 
L 144.1435 121.057813 
L 141.1675 121.057813 
z
" style="fill:#1f77b4;"/>
   </g>
   <g id="patch_33">
    <path clip-path="url(#p18e00866dd)" d="M 144.8875 121.154489 
L 147.8635 121.154489 
L 147.8635 121.058006 
L 144.8875 121.058006 
z
" style="fill:#1f77b4;"/>
   </g>
   <g id="patch_34">
    <path clip-path="url(#p18e00866dd)" d="M 148.6075 121.154489 
L 151.5835 121.154489 
L 151.5835 121.081872 
L 148.6075 121.081872 
z
" style="fill:#1f77b4;"/>
   </g>
   <g id="patch_35">
    <path clip-path="url(#p18e00866dd)" d="M 152.3275 121.154489 
L 155.3035 121.154489 
L 155.3035 121.086931 
L 152.3275 121.086931 
z
" style="fill:#1f77b4;"/>
   </g>
   <g id="patch_36">
    <path clip-path="url(#p18e00866dd)" d="M 156.0475 121.154489 
L 159.0235 121.154489 
L 159.0235 121.10129 
L 156.0475 121.10129 
z
" style="fill:#1f77b4;"/>
   </g>
   <g id="patch_37">
    <path clip-path="url(#p18e00866dd)" d="M 159.7675 121.154489 
L 162.7435 121.154489 
L 162.7435 121.107055 
L 159.7675 121.107055 
z
" style="fill:#1f77b4;"/>
   </g>
   <g id="patch_38">
    <path clip-path="url(#p18e00866dd)" d="M 163.4875 121.154489 
L 166.4635 121.154489 
L 166.4635 121.107234 
L 163.4875 121.107234 
z
" style="fill:#1f77b4;"/>
   </g>
   <g id="patch_39">
    <path clip-path="url(#p18e00866dd)" d="M 167.2075 121.154489 
L 170.1835 121.154489 
L 170.1835 121.107924 
L 167.2075 121.107924 
z
" style="fill:#1f77b4;"/>
   </g>
   <g id="patch_40">
    <path clip-path="url(#p18e00866dd)" d="M 170.9275 121.154489 
L 173.9035 121.154489 
L 173.9035 121.117465 
L 170.9275 121.117465 
z
" style="fill:#1f77b4;"/>
   </g>
   <g id="patch_41">
    <path clip-path="url(#p18e00866dd)" d="M 174.6475 121.154489 
L 177.6235 121.154489 
L 177.6235 121.123204 
L 174.6475 121.123204 
z
" style="fill:#1f77b4;"/>
   </g>
   <g id="patch_42">
    <path clip-path="url(#p18e00866dd)" d="M 178.3675 121.154489 
L 181.3435 121.154489 
L 181.3435 121.133399 
L 178.3675 121.133399 
z
" style="fill:#1f77b4;"/>
   </g>
   <g id="patch_43">
    <path clip-path="url(#p18e00866dd)" d="M 182.0875 121.154489 
L 185.0635 121.154489 
L 185.0635 121.133503 
L 182.0875 121.133503 
z
" style="fill:#1f77b4;"/>
   </g>
   <g id="patch_44">
    <path clip-path="url(#p18e00866dd)" d="M 185.8075 121.154489 
L 188.7835 121.154489 
L 188.7835 121.135043 
L 185.8075 121.135043 
z
" style="fill:#1f77b4;"/>
   </g>
   <g id="patch_45">
    <path clip-path="url(#p18e00866dd)" d="M 189.5275 121.154489 
L 192.5035 121.154489 
L 192.5035 121.139957 
L 189.5275 121.139957 
z
" style="fill:#1f77b4;"/>
   </g>
   <g id="patch_46">
    <path clip-path="url(#p18e00866dd)" d="M 193.2475 121.154489 
L 196.2235 121.154489 
L 196.2235 121.144269 
L 193.2475 121.144269 
z
" style="fill:#1f77b4;"/>
   </g>
   <g id="patch_47">
    <path clip-path="url(#p18e00866dd)" d="M 196.9675 121.154489 
L 199.9435 121.154489 
L 199.9435 121.145132 
L 196.9675 121.145132 
z
" style="fill:#1f77b4;"/>
   </g>
   <g id="patch_48">
    <path clip-path="url(#p18e00866dd)" d="M 200.6875 121.154489 
L 203.6635 121.154489 
L 203.6635 121.145588 
L 200.6875 121.145588 
z
" style="fill:#1f77b4;"/>
   </g>
   <g id="patch_49">
    <path clip-path="url(#p18e00866dd)" d="M 204.4075 121.154489 
L 207.3835 121.154489 
L 207.3835 121.14563 
L 204.4075 121.14563 
z
" style="fill:#1f77b4;"/>
   </g>
   <g id="patch_50">
    <path clip-path="url(#p18e00866dd)" d="M 208.1275 121.154489 
L 211.1035 121.154489 
L 211.1035 121.148508 
L 208.1275 121.148508 
z
" style="fill:#1f77b4;"/>
   </g>
   <g id="patch_51">
    <path clip-path="url(#p18e00866dd)" d="M 211.8475 121.154489 
L 214.8235 121.154489 
L 214.8235 121.148741 
L 211.8475 121.148741 
z
" style="fill:#1f77b4;"/>
   </g>
   <g id="patch_52">
    <path clip-path="url(#p18e00866dd)" d="M 215.5675 121.154489 
L 218.5435 121.154489 
L 218.5435 121.150759 
L 215.5675 121.150759 
z
" style="fill:#1f77b4;"/>
   </g>
   <g id="patch_53">
    <path clip-path="url(#p18e00866dd)" d="M 219.2875 121.154489 
L 222.2635 121.154489 
L 222.2635 121.150818 
L 219.2875 121.150818 
z
" style="fill:#1f77b4;"/>
   </g>
   <g id="patch_54">
    <path clip-path="url(#p18e00866dd)" d="M 223.0075 121.154489 
L 225.9835 121.154489 
L 225.9835 121.151073 
L 223.0075 121.151073 
z
" style="fill:#1f77b4;"/>
   </g>
   <g id="patch_55">
    <path clip-path="url(#p18e00866dd)" d="M 226.7275 121.154489 
L 229.7035 121.154489 
L 229.7035 121.151262 
L 226.7275 121.151262 
z
" style="fill:#1f77b4;"/>
   </g>
   <g id="patch_56">
    <path clip-path="url(#p18e00866dd)" d="M 230.4475 121.154489 
L 233.4235 121.154489 
L 233.4235 121.152405 
L 230.4475 121.152405 
z
" style="fill:#1f77b4;"/>
   </g>
   <g id="patch_57">
    <path clip-path="url(#p18e00866dd)" d="M 234.1675 121.154489 
L 237.1435 121.154489 
L 237.1435 121.15254 
L 234.1675 121.15254 
z
" style="fill:#1f77b4;"/>
   </g>
   <g id="patch_58">
    <path clip-path="url(#p18e00866dd)" d="M 237.8875 121.154489 
L 240.8635 121.154489 
L 240.8635 121.152616 
L 237.8875 121.152616 
z
" style="fill:#1f77b4;"/>
   </g>
   <g id="patch_59">
    <path clip-path="url(#p18e00866dd)" d="M 241.6075 121.154489 
L 244.5835 121.154489 
L 244.5835 121.152765 
L 241.6075 121.152765 
z
" style="fill:#1f77b4;"/>
   </g>
   <g id="patch_60">
    <path clip-path="url(#p18e00866dd)" d="M 245.3275 121.154489 
L 248.3035 121.154489 
L 248.3035 121.152851 
L 245.3275 121.152851 
z
" style="fill:#1f77b4;"/>
   </g>
   <g id="patch_61">
    <path clip-path="url(#p18e00866dd)" d="M 249.0475 121.154489 
L 252.0235 121.154489 
L 252.0235 121.152948 
L 249.0475 121.152948 
z
" style="fill:#1f77b4;"/>
   </g>
   <g id="patch_62">
    <path clip-path="url(#p18e00866dd)" d="M 252.7675 121.154489 
L 255.7435 121.154489 
L 255.7435 121.153028 
L 252.7675 121.153028 
z
" style="fill:#1f77b4;"/>
   </g>
   <g id="patch_63">
    <path clip-path="url(#p18e00866dd)" d="M 256.4875 121.154489 
L 259.4635 121.154489 
L 259.4635 121.153218 
L 256.4875 121.153218 
z
" style="fill:#1f77b4;"/>
   </g>
   <g id="patch_64">
    <path clip-path="url(#p18e00866dd)" d="M 260.2075 121.154489 
L 263.1835 121.154489 
L 263.1835 121.153236 
L 260.2075 121.153236 
z
" style="fill:#1f77b4;"/>
   </g>
   <g id="patch_65">
    <path clip-path="url(#p18e00866dd)" d="M 263.9275 121.154489 
L 266.9035 121.154489 
L 266.9035 121.153322 
L 263.9275 121.153322 
z
" style="fill:#1f77b4;"/>
   </g>
   <g id="patch_66">
    <path clip-path="url(#p18e00866dd)" d="M 267.6475 121.154489 
L 270.6235 121.154489 
L 270.6235 121.15339 
L 267.6475 121.15339 
z
" style="fill:#1f77b4;"/>
   </g>
   <g id="patch_67">
    <path clip-path="url(#p18e00866dd)" d="M 271.3675 121.154489 
L 274.3435 121.154489 
L 274.3435 121.153473 
L 271.3675 121.153473 
z
" style="fill:#1f77b4;"/>
   </g>
   <g id="patch_68">
    <path clip-path="url(#p18e00866dd)" d="M 275.0875 121.154489 
L 278.0635 121.154489 
L 278.0635 121.153584 
L 275.0875 121.153584 
z
" style="fill:#1f77b4;"/>
   </g>
   <g id="patch_69">
    <path clip-path="url(#p18e00866dd)" d="M 278.8075 121.154489 
L 281.7835 121.154489 
L 281.7835 121.153704 
L 278.8075 121.153704 
z
" style="fill:#1f77b4;"/>
   </g>
   <g id="patch_70">
    <path clip-path="url(#p18e00866dd)" d="M 282.5275 121.154489 
L 285.5035 121.154489 
L 285.5035 121.153731 
L 282.5275 121.153731 
z
" style="fill:#1f77b4;"/>
   </g>
   <g id="patch_71">
    <path clip-path="url(#p18e00866dd)" d="M 286.2475 121.154489 
L 289.2235 121.154489 
L 289.2235 121.153795 
L 286.2475 121.153795 
z
" style="fill:#1f77b4;"/>
   </g>
   <g id="patch_72">
    <path clip-path="url(#p18e00866dd)" d="M 289.9675 121.154489 
L 292.9435 121.154489 
L 292.9435 121.153826 
L 289.9675 121.153826 
z
" style="fill:#1f77b4;"/>
   </g>
   <g id="patch_73">
    <path clip-path="url(#p18e00866dd)" d="M 293.6875 121.154489 
L 296.6635 121.154489 
L 296.6635 121.153832 
L 293.6875 121.153832 
z
" style="fill:#1f77b4;"/>
   </g>
   <g id="patch_74">
    <path clip-path="url(#p18e00866dd)" d="M 297.4075 121.154489 
L 300.3835 121.154489 
L 300.3835 121.153835 
L 297.4075 121.153835 
z
" style="fill:#1f77b4;"/>
   </g>
   <g id="patch_75">
    <path clip-path="url(#p18e00866dd)" d="M 301.1275 121.154489 
L 304.1035 121.154489 
L 304.1035 121.153863 
L 301.1275 121.153863 
z
" style="fill:#1f77b4;"/>
   </g>
   <g id="patch_76">
    <path clip-path="url(#p18e00866dd)" d="M 304.8475 121.154489 
L 307.8235 121.154489 
L 307.8235 121.153874 
L 304.8475 121.153874 
z
" style="fill:#1f77b4;"/>
   </g>
   <g id="patch_77">
    <path clip-path="url(#p18e00866dd)" d="M 308.5675 121.154489 
L 311.5435 121.154489 
L 311.5435 121.153921 
L 308.5675 121.153921 
z
" style="fill:#1f77b4;"/>
   </g>
   <g id="patch_78">
    <path clip-path="url(#p18e00866dd)" d="M 312.2875 121.154489 
L 315.2635 121.154489 
L 315.2635 121.153943 
L 312.2875 121.153943 
z
" style="fill:#1f77b4;"/>
   </g>
   <g id="patch_79">
    <path clip-path="url(#p18e00866dd)" d="M 316.0075 121.154489 
L 318.9835 121.154489 
L 318.9835 121.153957 
L 316.0075 121.153957 
z
" style="fill:#1f77b4;"/>
   </g>
   <g id="patch_80">
    <path clip-path="url(#p18e00866dd)" d="M 319.7275 121.154489 
L 322.7035 121.154489 
L 322.7035 121.153971 
L 319.7275 121.153971 
z
" style="fill:#1f77b4;"/>
   </g>
   <g id="patch_81">
    <path clip-path="url(#p18e00866dd)" d="M 323.4475 121.154489 
L 326.4235 121.154489 
L 326.4235 121.153987 
L 323.4475 121.153987 
z
" style="fill:#1f77b4;"/>
   </g>
   <g id="patch_82">
    <path clip-path="url(#p18e00866dd)" d="M 327.1675 121.154489 
L 330.1435 121.154489 
L 330.1435 121.154016 
L 327.1675 121.154016 
z
" style="fill:#1f77b4;"/>
   </g>
   <g id="patch_83">
    <path clip-path="url(#p18e00866dd)" d="M 330.8875 121.154489 
L 333.8635 121.154489 
L 333.8635 121.154019 
L 330.8875 121.154019 
z
" style="fill:#1f77b4;"/>
   </g>
   <g id="patch_84">
    <path clip-path="url(#p18e00866dd)" d="M 334.6075 121.154489 
L 337.5835 121.154489 
L 337.5835 121.154042 
L 334.6075 121.154042 
z
" style="fill:#1f77b4;"/>
   </g>
   <g id="patch_85">
    <path clip-path="url(#p18e00866dd)" d="M 338.3275 121.154489 
L 341.3035 121.154489 
L 341.3035 121.154069 
L 338.3275 121.154069 
z
" style="fill:#1f77b4;"/>
   </g>
   <g id="patch_86">
    <path clip-path="url(#p18e00866dd)" d="M 342.0475 121.154489 
L 345.0235 121.154489 
L 345.0235 121.154074 
L 342.0475 121.154074 
z
" style="fill:#1f77b4;"/>
   </g>
   <g id="patch_87">
    <path clip-path="url(#p18e00866dd)" d="M 345.7675 121.154489 
L 348.7435 121.154489 
L 348.7435 121.154082 
L 345.7675 121.154082 
z
" style="fill:#1f77b4;"/>
   </g>
   <g id="patch_88">
    <path clip-path="url(#p18e00866dd)" d="M 349.4875 121.154489 
L 352.4635 121.154489 
L 352.4635 121.154092 
L 349.4875 121.154092 
z
" style="fill:#1f77b4;"/>
   </g>
   <g id="patch_89">
    <path clip-path="url(#p18e00866dd)" d="M 353.2075 121.154489 
L 356.1835 121.154489 
L 356.1835 121.154103 
L 353.2075 121.154103 
z
" style="fill:#1f77b4;"/>
   </g>
   <g id="patch_90">
    <path clip-path="url(#p18e00866dd)" d="M 356.9275 121.154489 
L 359.9035 121.154489 
L 359.9035 121.154115 
L 356.9275 121.154115 
z
" style="fill:#1f77b4;"/>
   </g>
   <g id="patch_91">
    <path clip-path="url(#p18e00866dd)" d="M 360.6475 121.154489 
L 363.6235 121.154489 
L 363.6235 121.154118 
L 360.6475 121.154118 
z
" style="fill:#1f77b4;"/>
   </g>
   <g id="patch_92">
    <path clip-path="url(#p18e00866dd)" d="M 364.3675 121.154489 
L 367.3435 121.154489 
L 367.3435 121.15412 
L 364.3675 121.15412 
z
" style="fill:#1f77b4;"/>
   </g>
   <g id="patch_93">
    <path clip-path="url(#p18e00866dd)" d="M 368.0875 121.154489 
L 371.0635 121.154489 
L 371.0635 121.154134 
L 368.0875 121.154134 
z
" style="fill:#1f77b4;"/>
   </g>
   <g id="patch_94">
    <path clip-path="url(#p18e00866dd)" d="M 371.8075 121.154489 
L 374.7835 121.154489 
L 374.7835 121.154141 
L 371.8075 121.154141 
z
" style="fill:#1f77b4;"/>
   </g>
   <g id="patch_95">
    <path clip-path="url(#p18e00866dd)" d="M 375.5275 121.154489 
L 378.5035 121.154489 
L 378.5035 121.154145 
L 375.5275 121.154145 
z
" style="fill:#1f77b4;"/>
   </g>
   <g id="patch_96">
    <path clip-path="url(#p18e00866dd)" d="M 379.2475 121.154489 
L 382.2235 121.154489 
L 382.2235 121.154152 
L 379.2475 121.154152 
z
" style="fill:#1f77b4;"/>
   </g>
   <g id="patch_97">
    <path clip-path="url(#p18e00866dd)" d="M 382.9675 121.154489 
L 385.9435 121.154489 
L 385.9435 121.154161 
L 382.9675 121.154161 
z
" style="fill:#1f77b4;"/>
   </g>
   <g id="patch_98">
    <path clip-path="url(#p18e00866dd)" d="M 386.6875 121.154489 
L 389.6635 121.154489 
L 389.6635 121.154165 
L 386.6875 121.154165 
z
" style="fill:#1f77b4;"/>
   </g>
   <g id="patch_99">
    <path clip-path="url(#p18e00866dd)" d="M 390.4075 121.154489 
L 393.3835 121.154489 
L 393.3835 121.154168 
L 390.4075 121.154168 
z
" style="fill:#1f77b4;"/>
   </g>
   <g id="patch_100">
    <path clip-path="url(#p18e00866dd)" d="M 394.1275 121.154489 
L 397.1035 121.154489 
L 397.1035 121.154177 
L 394.1275 121.154177 
z
" style="fill:#1f77b4;"/>
   </g>
   <g id="patch_101">
    <path clip-path="url(#p18e00866dd)" d="M 397.8475 121.154489 
L 400.8235 121.154489 
L 400.8235 121.154181 
L 397.8475 121.154181 
z
" style="fill:#1f77b4;"/>
   </g>
   <g id="patch_102">
    <path clip-path="url(#p18e00866dd)" d="M 401.5675 121.154489 
L 404.5435 121.154489 
L 404.5435 121.154187 
L 401.5675 121.154187 
z
" style="fill:#1f77b4;"/>
   </g>
   <g id="patch_103">
    <path clip-path="url(#p18e00866dd)" d="M 405.2875 121.154489 
L 408.2635 121.154489 
L 408.2635 121.154192 
L 405.2875 121.154192 
z
" style="fill:#1f77b4;"/>
   </g>
   <g id="patch_104">
    <path clip-path="url(#p18e00866dd)" d="M 409.0075 121.154489 
L 411.9835 121.154489 
L 411.9835 121.154203 
L 409.0075 121.154203 
z
" style="fill:#1f77b4;"/>
   </g>
   <g id="patch_105">
    <path clip-path="url(#p18e00866dd)" d="M 412.7275 121.154489 
L 415.7035 121.154489 
L 415.7035 121.154203 
L 412.7275 121.154203 
z
" style="fill:#1f77b4;"/>
   </g>
   <g id="patch_106">
    <path clip-path="url(#p18e00866dd)" d="M 416.4475 121.154489 
L 419.4235 121.154489 
L 419.4235 121.154208 
L 416.4475 121.154208 
z
" style="fill:#1f77b4;"/>
   </g>
   <g id="patch_107">
    <path clip-path="url(#p18e00866dd)" d="M 420.1675 121.154489 
L 423.1435 121.154489 
L 423.1435 121.15421 
L 420.1675 121.15421 
z
" style="fill:#1f77b4;"/>
   </g>
   <g id="patch_108">
    <path clip-path="url(#p18e00866dd)" d="M 423.8875 121.154489 
L 426.8635 121.154489 
L 426.8635 121.154221 
L 423.8875 121.154221 
z
" style="fill:#1f77b4;"/>
   </g>
   <g id="patch_109">
    <path clip-path="url(#p18e00866dd)" d="M 427.6075 121.154489 
L 430.5835 121.154489 
L 430.5835 121.154225 
L 427.6075 121.154225 
z
" style="fill:#1f77b4;"/>
   </g>
   <g id="patch_110">
    <path clip-path="url(#p18e00866dd)" d="M 431.3275 121.154489 
L 434.3035 121.154489 
L 434.3035 121.154226 
L 431.3275 121.154226 
z
" style="fill:#1f77b4;"/>
   </g>
   <g id="patch_111">
    <path clip-path="url(#p18e00866dd)" d="M 435.0475 121.154489 
L 438.0235 121.154489 
L 438.0235 121.15423 
L 435.0475 121.15423 
z
" style="fill:#1f77b4;"/>
   </g>
   <g id="patch_112">
    <path clip-path="url(#p18e00866dd)" d="M 438.7675 121.154489 
L 441.7435 121.154489 
L 441.7435 121.154236 
L 438.7675 121.154236 
z
" style="fill:#1f77b4;"/>
   </g>
   <g id="patch_113">
    <path clip-path="url(#p18e00866dd)" d="M 442.4875 121.154489 
L 445.4635 121.154489 
L 445.4635 121.154243 
L 442.4875 121.154243 
z
" style="fill:#1f77b4;"/>
   </g>
   <g id="patch_114">
    <path clip-path="url(#p18e00866dd)" d="M 446.2075 121.154489 
L 449.1835 121.154489 
L 449.1835 121.154248 
L 446.2075 121.154248 
z
" style="fill:#1f77b4;"/>
   </g>
   <g id="patch_115">
    <path clip-path="url(#p18e00866dd)" d="M 449.9275 121.154489 
L 452.9035 121.154489 
L 452.9035 121.154251 
L 449.9275 121.154251 
z
" style="fill:#1f77b4;"/>
   </g>
   <g id="patch_116">
    <path clip-path="url(#p18e00866dd)" d="M 453.6475 121.154489 
L 456.6235 121.154489 
L 456.6235 121.154252 
L 453.6475 121.154252 
z
" style="fill:#1f77b4;"/>
   </g>
   <g id="patch_117">
    <path clip-path="url(#p18e00866dd)" d="M 457.3675 121.154489 
L 460.3435 121.154489 
L 460.3435 121.154261 
L 457.3675 121.154261 
z
" style="fill:#1f77b4;"/>
   </g>
   <g id="patch_118">
    <path clip-path="url(#p18e00866dd)" d="M 461.0875 121.154489 
L 464.0635 121.154489 
L 464.0635 121.154262 
L 461.0875 121.154262 
z
" style="fill:#1f77b4;"/>
   </g>
   <g id="patch_119">
    <path clip-path="url(#p18e00866dd)" d="M 464.8075 121.154489 
L 467.7835 121.154489 
L 467.7835 121.154264 
L 464.8075 121.154264 
z
" style="fill:#1f77b4;"/>
   </g>
   <g id="patch_120">
    <path clip-path="url(#p18e00866dd)" d="M 468.5275 121.154489 
L 471.5035 121.154489 
L 471.5035 121.154267 
L 468.5275 121.154267 
z
" style="fill:#1f77b4;"/>
   </g>
   <g id="patch_121">
    <path clip-path="url(#p18e00866dd)" d="M 472.2475 121.154489 
L 475.2235 121.154489 
L 475.2235 121.154269 
L 472.2475 121.154269 
z
" style="fill:#1f77b4;"/>
   </g>
   <g id="patch_122">
    <path clip-path="url(#p18e00866dd)" d="M 475.9675 121.154489 
L 478.9435 121.154489 
L 478.9435 121.154271 
L 475.9675 121.154271 
z
" style="fill:#1f77b4;"/>
   </g>
   <g id="patch_123">
    <path clip-path="url(#p18e00866dd)" d="M 479.6875 121.154489 
L 482.6635 121.154489 
L 482.6635 121.154275 
L 479.6875 121.154275 
z
" style="fill:#1f77b4;"/>
   </g>
   <g id="patch_124">
    <path clip-path="url(#p18e00866dd)" d="M 483.4075 121.154489 
L 486.3835 121.154489 
L 486.3835 121.154279 
L 483.4075 121.154279 
z
" style="fill:#1f77b4;"/>
   </g>
   <g id="patch_125">
    <path clip-path="url(#p18e00866dd)" d="M 487.1275 121.154489 
L 490.1035 121.154489 
L 490.1035 121.154282 
L 487.1275 121.154282 
z
" style="fill:#1f77b4;"/>
   </g>
   <g id="patch_126">
    <path clip-path="url(#p18e00866dd)" d="M 490.8475 121.154489 
L 493.8235 121.154489 
L 493.8235 121.154288 
L 490.8475 121.154288 
z
" style="fill:#1f77b4;"/>
   </g>
   <g id="patch_127">
    <path clip-path="url(#p18e00866dd)" d="M 494.5675 121.154489 
L 497.5435 121.154489 
L 497.5435 121.15429 
L 494.5675 121.15429 
z
" style="fill:#1f77b4;"/>
   </g>
   <g id="patch_128">
    <path clip-path="url(#p18e00866dd)" d="M 498.2875 121.154489 
L 501.2635 121.154489 
L 501.2635 121.154298 
L 498.2875 121.154298 
z
" style="fill:#1f77b4;"/>
   </g>
   <g id="patch_129">
    <path clip-path="url(#p18e00866dd)" d="M 502.0075 121.154489 
L 504.9835 121.154489 
L 504.9835 121.154299 
L 502.0075 121.154299 
z
" style="fill:#1f77b4;"/>
   </g>
   <g id="patch_130">
    <path clip-path="url(#p18e00866dd)" d="M 505.7275 121.154489 
L 508.7035 121.154489 
L 508.7035 121.154302 
L 505.7275 121.154302 
z
" style="fill:#1f77b4;"/>
   </g>
   <g id="patch_131">
    <path clip-path="url(#p18e00866dd)" d="M 509.4475 121.154489 
L 512.4235 121.154489 
L 512.4235 121.154306 
L 509.4475 121.154306 
z
" style="fill:#1f77b4;"/>
   </g>
   <g id="patch_132">
    <path clip-path="url(#p18e00866dd)" d="M 513.1675 121.154489 
L 516.1435 121.154489 
L 516.1435 121.154307 
L 513.1675 121.154307 
z
" style="fill:#1f77b4;"/>
   </g>
   <g id="patch_133">
    <path clip-path="url(#p18e00866dd)" d="M 516.8875 121.154489 
L 519.8635 121.154489 
L 519.8635 121.154313 
L 516.8875 121.154313 
z
" style="fill:#1f77b4;"/>
   </g>
   <g id="patch_134">
    <path clip-path="url(#p18e00866dd)" d="M 520.6075 121.154489 
L 523.5835 121.154489 
L 523.5835 121.154315 
L 520.6075 121.154315 
z
" style="fill:#1f77b4;"/>
   </g>
   <g id="patch_135">
    <path clip-path="url(#p18e00866dd)" d="M 524.3275 121.154489 
L 527.3035 121.154489 
L 527.3035 121.154316 
L 524.3275 121.154316 
z
" style="fill:#1f77b4;"/>
   </g>
   <g id="patch_136">
    <path clip-path="url(#p18e00866dd)" d="M 528.0475 121.154489 
L 531.0235 121.154489 
L 531.0235 121.154319 
L 528.0475 121.154319 
z
" style="fill:#1f77b4;"/>
   </g>
   <g id="patch_137">
    <path clip-path="url(#p18e00866dd)" d="M 531.7675 121.154489 
L 534.7435 121.154489 
L 534.7435 121.154325 
L 531.7675 121.154325 
z
" style="fill:#1f77b4;"/>
   </g>
   <g id="patch_138">
    <path clip-path="url(#p18e00866dd)" d="M 535.4875 121.154489 
L 538.4635 121.154489 
L 538.4635 121.154325 
L 535.4875 121.154325 
z
" style="fill:#1f77b4;"/>
   </g>
   <g id="patch_139">
    <path clip-path="url(#p18e00866dd)" d="M 539.2075 121.154489 
L 542.1835 121.154489 
L 542.1835 121.154327 
L 539.2075 121.154327 
z
" style="fill:#1f77b4;"/>
   </g>
   <g id="patch_140">
    <path clip-path="url(#p18e00866dd)" d="M 542.9275 121.154489 
L 545.9035 121.154489 
L 545.9035 121.154332 
L 542.9275 121.154332 
z
" style="fill:#1f77b4;"/>
   </g>
   <g id="patch_141">
    <path clip-path="url(#p18e00866dd)" d="M 546.6475 121.154489 
L 549.6235 121.154489 
L 549.6235 121.154337 
L 546.6475 121.154337 
z
" style="fill:#1f77b4;"/>
   </g>
   <g id="patch_142">
    <path clip-path="url(#p18e00866dd)" d="M 550.3675 121.154489 
L 553.3435 121.154489 
L 553.3435 121.154339 
L 550.3675 121.154339 
z
" style="fill:#1f77b4;"/>
   </g>
   <g id="patch_143">
    <path clip-path="url(#p18e00866dd)" d="M 554.0875 121.154489 
L 557.0635 121.154489 
L 557.0635 121.154342 
L 554.0875 121.154342 
z
" style="fill:#1f77b4;"/>
   </g>
   <g id="patch_144">
    <path clip-path="url(#p18e00866dd)" d="M 557.8075 121.154489 
L 560.7835 121.154489 
L 560.7835 121.154342 
L 557.8075 121.154342 
z
" style="fill:#1f77b4;"/>
   </g>
   <g id="patch_145">
    <path clip-path="url(#p18e00866dd)" d="M 561.5275 121.154489 
L 564.5035 121.154489 
L 564.5035 121.154345 
L 561.5275 121.154345 
z
" style="fill:#1f77b4;"/>
   </g>
   <g id="patch_146">
    <path clip-path="url(#p18e00866dd)" d="M 565.2475 121.154489 
L 568.2235 121.154489 
L 568.2235 121.154348 
L 565.2475 121.154348 
z
" style="fill:#1f77b4;"/>
   </g>
   <g id="patch_147">
    <path clip-path="url(#p18e00866dd)" d="M 568.9675 121.154489 
L 571.9435 121.154489 
L 571.9435 121.15435 
L 568.9675 121.15435 
z
" style="fill:#1f77b4;"/>
   </g>
   <g id="patch_148">
    <path clip-path="url(#p18e00866dd)" d="M 572.6875 121.154489 
L 575.6635 121.154489 
L 575.6635 121.154352 
L 572.6875 121.154352 
z
" style="fill:#1f77b4;"/>
   </g>
   <g id="patch_149">
    <path clip-path="url(#p18e00866dd)" d="M 576.4075 121.154489 
L 579.3835 121.154489 
L 579.3835 121.154353 
L 576.4075 121.154353 
z
" style="fill:#1f77b4;"/>
   </g>
   <g id="patch_150">
    <path clip-path="url(#p18e00866dd)" d="M 580.1275 121.154489 
L 583.1035 121.154489 
L 583.1035 121.154355 
L 580.1275 121.154355 
z
" style="fill:#1f77b4;"/>
   </g>
   <g id="patch_151">
    <path clip-path="url(#p18e00866dd)" d="M 583.8475 121.154489 
L 586.8235 121.154489 
L 586.8235 121.154356 
L 583.8475 121.154356 
z
" style="fill:#1f77b4;"/>
   </g>
   <g id="patch_152">
    <path clip-path="url(#p18e00866dd)" d="M 587.5675 121.154489 
L 590.5435 121.154489 
L 590.5435 121.154357 
L 587.5675 121.154357 
z
" style="fill:#1f77b4;"/>
   </g>
   <g id="patch_153">
    <path clip-path="url(#p18e00866dd)" d="M 591.2875 121.154489 
L 594.2635 121.154489 
L 594.2635 121.154361 
L 591.2875 121.154361 
z
" style="fill:#1f77b4;"/>
   </g>
   <g id="patch_154">
    <path clip-path="url(#p18e00866dd)" d="M 595.0075 121.154489 
L 597.9835 121.154489 
L 597.9835 121.154363 
L 595.0075 121.154363 
z
" style="fill:#1f77b4;"/>
   </g>
   <g id="patch_155">
    <path clip-path="url(#p18e00866dd)" d="M 598.7275 121.154489 
L 601.7035 121.154489 
L 601.7035 121.154364 
L 598.7275 121.154364 
z
" style="fill:#1f77b4;"/>
   </g>
   <g id="patch_156">
    <path clip-path="url(#p18e00866dd)" d="M 602.4475 121.154489 
L 605.4235 121.154489 
L 605.4235 121.154367 
L 602.4475 121.154367 
z
" style="fill:#1f77b4;"/>
   </g>
   <g id="patch_157">
    <path clip-path="url(#p18e00866dd)" d="M 606.1675 121.154489 
L 609.1435 121.154489 
L 609.1435 121.154368 
L 606.1675 121.154368 
z
" style="fill:#1f77b4;"/>
   </g>
   <g id="patch_158">
    <path clip-path="url(#p18e00866dd)" d="M 609.8875 121.154489 
L 612.8635 121.154489 
L 612.8635 121.154369 
L 609.8875 121.154369 
z
" style="fill:#1f77b4;"/>
   </g>
   <g id="patch_159">
    <path clip-path="url(#p18e00866dd)" d="M 613.6075 121.154489 
L 616.5835 121.154489 
L 616.5835 121.15437 
L 613.6075 121.15437 
z
" style="fill:#1f77b4;"/>
   </g>
   <g id="patch_160">
    <path clip-path="url(#p18e00866dd)" d="M 617.3275 121.154489 
L 620.3035 121.154489 
L 620.3035 121.154372 
L 617.3275 121.154372 
z
" style="fill:#1f77b4;"/>
   </g>
   <g id="patch_161">
    <path clip-path="url(#p18e00866dd)" d="M 621.0475 121.154489 
L 624.0235 121.154489 
L 624.0235 121.154376 
L 621.0475 121.154376 
z
" style="fill:#1f77b4;"/>
   </g>
   <g id="patch_162">
    <path clip-path="url(#p18e00866dd)" d="M 624.7675 121.154489 
L 627.7435 121.154489 
L 627.7435 121.154377 
L 624.7675 121.154377 
z
" style="fill:#1f77b4;"/>
   </g>
   <g id="patch_163">
    <path clip-path="url(#p18e00866dd)" d="M 628.4875 121.154489 
L 631.4635 121.154489 
L 631.4635 121.154378 
L 628.4875 121.154378 
z
" style="fill:#1f77b4;"/>
   </g>
   <g id="patch_164">
    <path clip-path="url(#p18e00866dd)" d="M 632.2075 121.154489 
L 635.1835 121.154489 
L 635.1835 121.154381 
L 632.2075 121.154381 
z
" style="fill:#1f77b4;"/>
   </g>
   <g id="patch_165">
    <path clip-path="url(#p18e00866dd)" d="M 635.9275 121.154489 
L 638.9035 121.154489 
L 638.9035 121.154382 
L 635.9275 121.154382 
z
" style="fill:#1f77b4;"/>
   </g>
   <g id="patch_166">
    <path clip-path="url(#p18e00866dd)" d="M 639.6475 121.154489 
L 642.6235 121.154489 
L 642.6235 121.154382 
L 639.6475 121.154382 
z
" style="fill:#1f77b4;"/>
   </g>
   <g id="patch_167">
    <path clip-path="url(#p18e00866dd)" d="M 643.3675 121.154489 
L 646.3435 121.154489 
L 646.3435 121.154384 
L 643.3675 121.154384 
z
" style="fill:#1f77b4;"/>
   </g>
   <g id="patch_168">
    <path clip-path="url(#p18e00866dd)" d="M 647.0875 121.154489 
L 650.0635 121.154489 
L 650.0635 121.154386 
L 647.0875 121.154386 
z
" style="fill:#1f77b4;"/>
   </g>
   <g id="patch_169">
    <path clip-path="url(#p18e00866dd)" d="M 650.8075 121.154489 
L 653.7835 121.154489 
L 653.7835 121.154387 
L 650.8075 121.154387 
z
" style="fill:#1f77b4;"/>
   </g>
   <g id="patch_170">
    <path clip-path="url(#p18e00866dd)" d="M 654.5275 121.154489 
L 657.5035 121.154489 
L 657.5035 121.154389 
L 654.5275 121.154389 
z
" style="fill:#1f77b4;"/>
   </g>
   <g id="patch_171">
    <path clip-path="url(#p18e00866dd)" d="M 658.2475 121.154489 
L 661.2235 121.154489 
L 661.2235 121.154389 
L 658.2475 121.154389 
z
" style="fill:#1f77b4;"/>
   </g>
   <g id="patch_172">
    <path clip-path="url(#p18e00866dd)" d="M 661.9675 121.154489 
L 664.9435 121.154489 
L 664.9435 121.154392 
L 661.9675 121.154392 
z
" style="fill:#1f77b4;"/>
   </g>
   <g id="patch_173">
    <path clip-path="url(#p18e00866dd)" d="M 665.6875 121.154489 
L 668.6635 121.154489 
L 668.6635 121.154393 
L 665.6875 121.154393 
z
" style="fill:#1f77b4;"/>
   </g>
   <g id="patch_174">
    <path clip-path="url(#p18e00866dd)" d="M 669.4075 121.154489 
L 672.3835 121.154489 
L 672.3835 121.154395 
L 669.4075 121.154395 
z
" style="fill:#1f77b4;"/>
   </g>
   <g id="patch_175">
    <path clip-path="url(#p18e00866dd)" d="M 673.1275 121.154489 
L 676.1035 121.154489 
L 676.1035 121.154398 
L 673.1275 121.154398 
z
" style="fill:#1f77b4;"/>
   </g>
   <g id="patch_176">
    <path clip-path="url(#p18e00866dd)" d="M 676.8475 121.154489 
L 679.8235 121.154489 
L 679.8235 121.154399 
L 676.8475 121.154399 
z
" style="fill:#1f77b4;"/>
   </g>
   <g id="patch_177">
    <path clip-path="url(#p18e00866dd)" d="M 680.5675 121.154489 
L 683.5435 121.154489 
L 683.5435 121.154399 
L 680.5675 121.154399 
z
" style="fill:#1f77b4;"/>
   </g>
   <g id="patch_178">
    <path clip-path="url(#p18e00866dd)" d="M 684.2875 121.154489 
L 687.2635 121.154489 
L 687.2635 121.154399 
L 684.2875 121.154399 
z
" style="fill:#1f77b4;"/>
   </g>
   <g id="patch_179">
    <path clip-path="url(#p18e00866dd)" d="M 688.0075 121.154489 
L 690.9835 121.154489 
L 690.9835 121.1544 
L 688.0075 121.1544 
z
" style="fill:#1f77b4;"/>
   </g>
   <g id="patch_180">
    <path clip-path="url(#p18e00866dd)" d="M 691.7275 121.154489 
L 694.7035 121.154489 
L 694.7035 121.154401 
L 691.7275 121.154401 
z
" style="fill:#1f77b4;"/>
   </g>
   <g id="patch_181">
    <path clip-path="url(#p18e00866dd)" d="M 695.4475 121.154489 
L 698.4235 121.154489 
L 698.4235 121.154402 
L 695.4475 121.154402 
z
" style="fill:#1f77b4;"/>
   </g>
   <g id="patch_182">
    <path clip-path="url(#p18e00866dd)" d="M 699.1675 121.154489 
L 702.1435 121.154489 
L 702.1435 121.154405 
L 699.1675 121.154405 
z
" style="fill:#1f77b4;"/>
   </g>
   <g id="patch_183">
    <path clip-path="url(#p18e00866dd)" d="M 702.8875 121.154489 
L 705.8635 121.154489 
L 705.8635 121.154406 
L 702.8875 121.154406 
z
" style="fill:#1f77b4;"/>
   </g>
   <g id="patch_184">
    <path clip-path="url(#p18e00866dd)" d="M 706.6075 121.154489 
L 709.5835 121.154489 
L 709.5835 121.154407 
L 706.6075 121.154407 
z
" style="fill:#1f77b4;"/>
   </g>
   <g id="patch_185">
    <path clip-path="url(#p18e00866dd)" d="M 710.3275 121.154489 
L 713.3035 121.154489 
L 713.3035 121.154407 
L 710.3275 121.154407 
z
" style="fill:#1f77b4;"/>
   </g>
   <g id="patch_186">
    <path clip-path="url(#p18e00866dd)" d="M 714.0475 121.154489 
L 717.0235 121.154489 
L 717.0235 121.154409 
L 714.0475 121.154409 
z
" style="fill:#1f77b4;"/>
   </g>
   <g id="patch_187">
    <path clip-path="url(#p18e00866dd)" d="M 717.7675 121.154489 
L 720.7435 121.154489 
L 720.7435 121.154409 
L 717.7675 121.154409 
z
" style="fill:#1f77b4;"/>
   </g>
   <g id="patch_188">
    <path clip-path="url(#p18e00866dd)" d="M 721.4875 121.154489 
L 724.4635 121.154489 
L 724.4635 121.154411 
L 721.4875 121.154411 
z
" style="fill:#1f77b4;"/>
   </g>
   <g id="patch_189">
    <path clip-path="url(#p18e00866dd)" d="M 725.2075 121.154489 
L 728.1835 121.154489 
L 728.1835 121.154412 
L 725.2075 121.154412 
z
" style="fill:#1f77b4;"/>
   </g>
   <g id="patch_190">
    <path clip-path="url(#p18e00866dd)" d="M 728.9275 121.154489 
L 731.9035 121.154489 
L 731.9035 121.154412 
L 728.9275 121.154412 
z
" style="fill:#1f77b4;"/>
   </g>
   <g id="patch_191">
    <path clip-path="url(#p18e00866dd)" d="M 732.6475 121.154489 
L 735.6235 121.154489 
L 735.6235 121.154414 
L 732.6475 121.154414 
z
" style="fill:#1f77b4;"/>
   </g>
   <g id="patch_192">
    <path clip-path="url(#p18e00866dd)" d="M 736.3675 121.154489 
L 739.3435 121.154489 
L 739.3435 121.154414 
L 736.3675 121.154414 
z
" style="fill:#1f77b4;"/>
   </g>
   <g id="patch_193">
    <path clip-path="url(#p18e00866dd)" d="M 740.0875 121.154489 
L 743.0635 121.154489 
L 743.0635 121.154416 
L 740.0875 121.154416 
z
" style="fill:#1f77b4;"/>
   </g>
   <g id="patch_194">
    <path clip-path="url(#p18e00866dd)" d="M 743.8075 121.154489 
L 746.7835 121.154489 
L 746.7835 121.154417 
L 743.8075 121.154417 
z
" style="fill:#1f77b4;"/>
   </g>
   <g id="patch_195">
    <path clip-path="url(#p18e00866dd)" d="M 747.5275 121.154489 
L 750.5035 121.154489 
L 750.5035 121.154418 
L 747.5275 121.154418 
z
" style="fill:#1f77b4;"/>
   </g>
   <g id="patch_196">
    <path clip-path="url(#p18e00866dd)" d="M 751.2475 121.154489 
L 754.2235 121.154489 
L 754.2235 121.154419 
L 751.2475 121.154419 
z
" style="fill:#1f77b4;"/>
   </g>
   <g id="patch_197">
    <path clip-path="url(#p18e00866dd)" d="M 754.9675 121.154489 
L 757.9435 121.154489 
L 757.9435 121.154421 
L 754.9675 121.154421 
z
" style="fill:#1f77b4;"/>
   </g>
   <g id="patch_198">
    <path clip-path="url(#p18e00866dd)" d="M 758.6875 121.154489 
L 761.6635 121.154489 
L 761.6635 121.154422 
L 758.6875 121.154422 
z
" style="fill:#1f77b4;"/>
   </g>
   <g id="patch_199">
    <path clip-path="url(#p18e00866dd)" d="M 762.4075 121.154489 
L 765.3835 121.154489 
L 765.3835 121.154422 
L 762.4075 121.154422 
z
" style="fill:#1f77b4;"/>
   </g>
   <g id="patch_200">
    <path clip-path="url(#p18e00866dd)" d="M 766.1275 121.154489 
L 769.1035 121.154489 
L 769.1035 121.154423 
L 766.1275 121.154423 
z
" style="fill:#1f77b4;"/>
   </g>
   <g id="patch_201">
    <path clip-path="url(#p18e00866dd)" d="M 769.8475 121.154489 
L 772.8235 121.154489 
L 772.8235 121.154424 
L 769.8475 121.154424 
z
" style="fill:#1f77b4;"/>
   </g>
   <g id="patch_202">
    <path clip-path="url(#p18e00866dd)" d="M 773.5675 121.154489 
L 776.5435 121.154489 
L 776.5435 121.154424 
L 773.5675 121.154424 
z
" style="fill:#1f77b4;"/>
   </g>
   <g id="patch_203">
    <path clip-path="url(#p18e00866dd)" d="M 777.2875 121.154489 
L 780.2635 121.154489 
L 780.2635 121.154424 
L 777.2875 121.154424 
z
" style="fill:#1f77b4;"/>
   </g>
   <g id="patch_204">
    <path clip-path="url(#p18e00866dd)" d="M 781.0075 121.154489 
L 783.9835 121.154489 
L 783.9835 121.154425 
L 781.0075 121.154425 
z
" style="fill:#1f77b4;"/>
   </g>
   <g id="patch_205">
    <path clip-path="url(#p18e00866dd)" d="M 784.7275 121.154489 
L 787.7035 121.154489 
L 787.7035 121.154425 
L 784.7275 121.154425 
z
" style="fill:#1f77b4;"/>
   </g>
   <g id="patch_206">
    <path clip-path="url(#p18e00866dd)" d="M 788.4475 121.154489 
L 791.4235 121.154489 
L 791.4235 121.154427 
L 788.4475 121.154427 
z
" style="fill:#1f77b4;"/>
   </g>
   <g id="patch_207">
    <path clip-path="url(#p18e00866dd)" d="M 792.1675 121.154489 
L 795.1435 121.154489 
L 795.1435 121.154428 
L 792.1675 121.154428 
z
" style="fill:#1f77b4;"/>
   </g>
   <g id="patch_208">
    <path clip-path="url(#p18e00866dd)" d="M 795.8875 121.154489 
L 798.8635 121.154489 
L 798.8635 121.154429 
L 795.8875 121.154429 
z
" style="fill:#1f77b4;"/>
   </g>
   <g id="patch_209">
    <path clip-path="url(#p18e00866dd)" d="M 799.6075 121.154489 
L 802.5835 121.154489 
L 802.5835 121.154431 
L 799.6075 121.154431 
z
" style="fill:#1f77b4;"/>
   </g>
   <g id="patch_210">
    <path clip-path="url(#p18e00866dd)" d="M 803.3275 121.154489 
L 806.3035 121.154489 
L 806.3035 121.154431 
L 803.3275 121.154431 
z
" style="fill:#1f77b4;"/>
   </g>
   <g id="patch_211">
    <path clip-path="url(#p18e00866dd)" d="M 807.0475 121.154489 
L 810.0235 121.154489 
L 810.0235 121.154433 
L 807.0475 121.154433 
z
" style="fill:#1f77b4;"/>
   </g>
   <g id="patch_212">
    <path clip-path="url(#p18e00866dd)" d="M 810.7675 121.154489 
L 813.7435 121.154489 
L 813.7435 121.154434 
L 810.7675 121.154434 
z
" style="fill:#1f77b4;"/>
   </g>
   <g id="patch_213">
    <path clip-path="url(#p18e00866dd)" d="M 814.4875 121.154489 
L 817.4635 121.154489 
L 817.4635 121.154434 
L 814.4875 121.154434 
z
" style="fill:#1f77b4;"/>
   </g>
   <g id="patch_214">
    <path clip-path="url(#p18e00866dd)" d="M 818.2075 121.154489 
L 821.1835 121.154489 
L 821.1835 121.154435 
L 818.2075 121.154435 
z
" style="fill:#1f77b4;"/>
   </g>
   <g id="patch_215">
    <path clip-path="url(#p18e00866dd)" d="M 821.9275 121.154489 
L 824.9035 121.154489 
L 824.9035 121.154436 
L 821.9275 121.154436 
z
" style="fill:#1f77b4;"/>
   </g>
   <g id="patch_216">
    <path clip-path="url(#p18e00866dd)" d="M 825.6475 121.154489 
L 828.6235 121.154489 
L 828.6235 121.154437 
L 825.6475 121.154437 
z
" style="fill:#1f77b4;"/>
   </g>
   <g id="patch_217">
    <path clip-path="url(#p18e00866dd)" d="M 829.3675 121.154489 
L 832.3435 121.154489 
L 832.3435 121.154438 
L 829.3675 121.154438 
z
" style="fill:#1f77b4;"/>
   </g>
   <g id="patch_218">
    <path clip-path="url(#p18e00866dd)" d="M 833.0875 121.154489 
L 836.0635 121.154489 
L 836.0635 121.154438 
L 833.0875 121.154438 
z
" style="fill:#1f77b4;"/>
   </g>
   <g id="patch_219">
    <path clip-path="url(#p18e00866dd)" d="M 836.8075 121.154489 
L 839.7835 121.154489 
L 839.7835 121.154439 
L 836.8075 121.154439 
z
" style="fill:#1f77b4;"/>
   </g>
   <g id="patch_220">
    <path clip-path="url(#p18e00866dd)" d="M 840.5275 121.154489 
L 843.5035 121.154489 
L 843.5035 121.154439 
L 840.5275 121.154439 
z
" style="fill:#1f77b4;"/>
   </g>
   <g id="patch_221">
    <path clip-path="url(#p18e00866dd)" d="M 844.2475 121.154489 
L 847.2235 121.154489 
L 847.2235 121.15444 
L 844.2475 121.15444 
z
" style="fill:#1f77b4;"/>
   </g>
   <g id="patch_222">
    <path clip-path="url(#p18e00866dd)" d="M 847.9675 121.154489 
L 850.9435 121.154489 
L 850.9435 121.154441 
L 847.9675 121.154441 
z
" style="fill:#1f77b4;"/>
   </g>
   <g id="patch_223">
    <path clip-path="url(#p18e00866dd)" d="M 851.6875 121.154489 
L 854.6635 121.154489 
L 854.6635 121.154442 
L 851.6875 121.154442 
z
" style="fill:#1f77b4;"/>
   </g>
   <g id="patch_224">
    <path clip-path="url(#p18e00866dd)" d="M 855.4075 121.154489 
L 858.3835 121.154489 
L 858.3835 121.154443 
L 855.4075 121.154443 
z
" style="fill:#1f77b4;"/>
   </g>
   <g id="patch_225">
    <path clip-path="url(#p18e00866dd)" d="M 859.1275 121.154489 
L 862.1035 121.154489 
L 862.1035 121.154444 
L 859.1275 121.154444 
z
" style="fill:#1f77b4;"/>
   </g>
   <g id="patch_226">
    <path clip-path="url(#p18e00866dd)" d="M 862.8475 121.154489 
L 865.8235 121.154489 
L 865.8235 121.154445 
L 862.8475 121.154445 
z
" style="fill:#1f77b4;"/>
   </g>
   <g id="patch_227">
    <path clip-path="url(#p18e00866dd)" d="M 866.5675 121.154489 
L 869.5435 121.154489 
L 869.5435 121.154445 
L 866.5675 121.154445 
z
" style="fill:#1f77b4;"/>
   </g>
   <g id="patch_228">
    <path clip-path="url(#p18e00866dd)" d="M 870.2875 121.154489 
L 873.2635 121.154489 
L 873.2635 121.154446 
L 870.2875 121.154446 
z
" style="fill:#1f77b4;"/>
   </g>
   <g id="patch_229">
    <path clip-path="url(#p18e00866dd)" d="M 874.0075 121.154489 
L 876.9835 121.154489 
L 876.9835 121.154447 
L 874.0075 121.154447 
z
" style="fill:#1f77b4;"/>
   </g>
   <g id="patch_230">
    <path clip-path="url(#p18e00866dd)" d="M 877.7275 121.154489 
L 880.7035 121.154489 
L 880.7035 121.154448 
L 877.7275 121.154448 
z
" style="fill:#1f77b4;"/>
   </g>
   <g id="patch_231">
    <path clip-path="url(#p18e00866dd)" d="M 881.4475 121.154489 
L 884.4235 121.154489 
L 884.4235 121.154449 
L 881.4475 121.154449 
z
" style="fill:#1f77b4;"/>
   </g>
   <g id="patch_232">
    <path clip-path="url(#p18e00866dd)" d="M 885.1675 121.154489 
L 888.1435 121.154489 
L 888.1435 121.15445 
L 885.1675 121.15445 
z
" style="fill:#1f77b4;"/>
   </g>
   <g id="patch_233">
    <path clip-path="url(#p18e00866dd)" d="M 888.8875 121.154489 
L 891.8635 121.154489 
L 891.8635 121.154451 
L 888.8875 121.154451 
z
" style="fill:#1f77b4;"/>
   </g>
   <g id="patch_234">
    <path clip-path="url(#p18e00866dd)" d="M 892.6075 121.154489 
L 895.5835 121.154489 
L 895.5835 121.154451 
L 892.6075 121.154451 
z
" style="fill:#1f77b4;"/>
   </g>
   <g id="patch_235">
    <path clip-path="url(#p18e00866dd)" d="M 896.3275 121.154489 
L 899.3035 121.154489 
L 899.3035 121.154451 
L 896.3275 121.154451 
z
" style="fill:#1f77b4;"/>
   </g>
   <g id="patch_236">
    <path clip-path="url(#p18e00866dd)" d="M 900.0475 121.154489 
L 903.0235 121.154489 
L 903.0235 121.154452 
L 900.0475 121.154452 
z
" style="fill:#1f77b4;"/>
   </g>
   <g id="patch_237">
    <path clip-path="url(#p18e00866dd)" d="M 903.7675 121.154489 
L 906.7435 121.154489 
L 906.7435 121.154454 
L 903.7675 121.154454 
z
" style="fill:#1f77b4;"/>
   </g>
   <g id="patch_238">
    <path clip-path="url(#p18e00866dd)" d="M 907.4875 121.154489 
L 910.4635 121.154489 
L 910.4635 121.154455 
L 907.4875 121.154455 
z
" style="fill:#1f77b4;"/>
   </g>
   <g id="patch_239">
    <path clip-path="url(#p18e00866dd)" d="M 911.2075 121.154489 
L 914.1835 121.154489 
L 914.1835 121.154457 
L 911.2075 121.154457 
z
" style="fill:#1f77b4;"/>
   </g>
   <g id="patch_240">
    <path clip-path="url(#p18e00866dd)" d="M 914.9275 121.154489 
L 917.9035 121.154489 
L 917.9035 121.154458 
L 914.9275 121.154458 
z
" style="fill:#1f77b4;"/>
   </g>
   <g id="patch_241">
    <path clip-path="url(#p18e00866dd)" d="M 918.6475 121.154489 
L 921.6235 121.154489 
L 921.6235 121.154459 
L 918.6475 121.154459 
z
" style="fill:#1f77b4;"/>
   </g>
   <g id="patch_242">
    <path clip-path="url(#p18e00866dd)" d="M 922.3675 121.154489 
L 925.3435 121.154489 
L 925.3435 121.15446 
L 922.3675 121.15446 
z
" style="fill:#1f77b4;"/>
   </g>
   <g id="patch_243">
    <path clip-path="url(#p18e00866dd)" d="M 926.0875 121.154489 
L 929.0635 121.154489 
L 929.0635 121.154461 
L 926.0875 121.154461 
z
" style="fill:#1f77b4;"/>
   </g>
   <g id="matplotlib.axis_1">
    <g id="xtick_1">
     <g id="line2d_1">
      <defs>
       <path d="M 0 0 
L 0 3.5 
" id="mf0f7358077" style="stroke:#000000;stroke-width:0.8;"/>
      </defs>
      <g>
       <use style="stroke:#000000;stroke-width:0.8;" x="33.2875" xlink:href="#mf0f7358077" y="121.154489"/>
      </g>
     </g>
    </g>
    <g id="xtick_2">
     <g id="line2d_2">
      <g>
       <use style="stroke:#000000;stroke-width:0.8;" x="70.4875" xlink:href="#mf0f7358077" y="121.154489"/>
      </g>
     </g>
    </g>
    <g id="xtick_3">
     <g id="line2d_3">
      <g>
       <use style="stroke:#000000;stroke-width:0.8;" x="107.6875" xlink:href="#mf0f7358077" y="121.154489"/>
      </g>
     </g>
    </g>
    <g id="xtick_4">
     <g id="line2d_4">
      <g>
       <use style="stroke:#000000;stroke-width:0.8;" x="144.8875" xlink:href="#mf0f7358077" y="121.154489"/>
      </g>
     </g>
    </g>
    <g id="xtick_5">
     <g id="line2d_5">
      <g>
       <use style="stroke:#000000;stroke-width:0.8;" x="182.0875" xlink:href="#mf0f7358077" y="121.154489"/>
      </g>
     </g>
    </g>
    <g id="xtick_6">
     <g id="line2d_6">
      <g>
       <use style="stroke:#000000;stroke-width:0.8;" x="219.2875" xlink:href="#mf0f7358077" y="121.154489"/>
      </g>
     </g>
    </g>
    <g id="xtick_7">
     <g id="line2d_7">
      <g>
       <use style="stroke:#000000;stroke-width:0.8;" x="256.4875" xlink:href="#mf0f7358077" y="121.154489"/>
      </g>
     </g>
    </g>
    <g id="xtick_8">
     <g id="line2d_8">
      <g>
       <use style="stroke:#000000;stroke-width:0.8;" x="293.6875" xlink:href="#mf0f7358077" y="121.154489"/>
      </g>
     </g>
    </g>
    <g id="xtick_9">
     <g id="line2d_9">
      <g>
       <use style="stroke:#000000;stroke-width:0.8;" x="330.8875" xlink:href="#mf0f7358077" y="121.154489"/>
      </g>
     </g>
    </g>
    <g id="xtick_10">
     <g id="line2d_10">
      <g>
       <use style="stroke:#000000;stroke-width:0.8;" x="368.0875" xlink:href="#mf0f7358077" y="121.154489"/>
      </g>
     </g>
    </g>
   </g>
   <g id="matplotlib.axis_2">
    <g id="ytick_1">
     <g id="line2d_11">
      <defs>
       <path d="M 0 0 
L -3.5 0 
" id="m279c6b421d" style="stroke:#000000;stroke-width:0.8;"/>
      </defs>
      <g>
       <use style="stroke:#000000;stroke-width:0.8;" x="33.2875" xlink:href="#m279c6b421d" y="121.154489"/>
      </g>
     </g>
     <g id="text_1">
      <!-- 0 -->
      <g transform="translate(19.925 124.953707)scale(0.1 -0.1)">
       <defs>
        <path d="M 31.78125 66.40625 
Q 24.171875 66.40625 20.328125 58.90625 
Q 16.5 51.421875 16.5 36.375 
Q 16.5 21.390625 20.328125 13.890625 
Q 24.171875 6.390625 31.78125 6.390625 
Q 39.453125 6.390625 43.28125 13.890625 
Q 47.125 21.390625 47.125 36.375 
Q 47.125 51.421875 43.28125 58.90625 
Q 39.453125 66.40625 31.78125 66.40625 
z
M 31.78125 74.21875 
Q 44.046875 74.21875 50.515625 64.515625 
Q 56.984375 54.828125 56.984375 36.375 
Q 56.984375 17.96875 50.515625 8.265625 
Q 44.046875 -1.421875 31.78125 -1.421875 
Q 19.53125 -1.421875 13.0625 8.265625 
Q 6.59375 17.96875 6.59375 36.375 
Q 6.59375 54.828125 13.0625 64.515625 
Q 19.53125 74.21875 31.78125 74.21875 
z
" id="DejaVuSans-48"/>
       </defs>
       <use xlink:href="#DejaVuSans-48"/>
      </g>
     </g>
    </g>
    <g id="ytick_2">
     <g id="line2d_12">
      <g>
       <use style="stroke:#000000;stroke-width:0.8;" x="33.2875" xlink:href="#m279c6b421d" y="87.151716"/>
      </g>
     </g>
     <g id="text_2">
      <!-- 10 -->
      <g transform="translate(13.5625 90.950935)scale(0.1 -0.1)">
       <defs>
        <path d="M 12.40625 8.296875 
L 28.515625 8.296875 
L 28.515625 63.921875 
L 10.984375 60.40625 
L 10.984375 69.390625 
L 28.421875 72.90625 
L 38.28125 72.90625 
L 38.28125 8.296875 
L 54.390625 8.296875 
L 54.390625 0 
L 12.40625 0 
z
" id="DejaVuSans-49"/>
       </defs>
       <use xlink:href="#DejaVuSans-49"/>
       <use x="63.623047" xlink:href="#DejaVuSans-48"/>
      </g>
     </g>
    </g>
    <g id="ytick_3">
     <g id="line2d_13">
      <g>
       <use style="stroke:#000000;stroke-width:0.8;" x="33.2875" xlink:href="#m279c6b421d" y="53.148944"/>
      </g>
     </g>
     <g id="text_3">
      <!-- 20 -->
      <g transform="translate(13.5625 56.948163)scale(0.1 -0.1)">
       <defs>
        <path d="M 19.1875 8.296875 
L 53.609375 8.296875 
L 53.609375 0 
L 7.328125 0 
L 7.328125 8.296875 
Q 12.9375 14.109375 22.625 23.890625 
Q 32.328125 33.6875 34.8125 36.53125 
Q 39.546875 41.84375 41.421875 45.53125 
Q 43.3125 49.21875 43.3125 52.78125 
Q 43.3125 58.59375 39.234375 62.25 
Q 35.15625 65.921875 28.609375 65.921875 
Q 23.96875 65.921875 18.8125 64.3125 
Q 13.671875 62.703125 7.8125 59.421875 
L 7.8125 69.390625 
Q 13.765625 71.78125 18.9375 73 
Q 24.125 74.21875 28.421875 74.21875 
Q 39.75 74.21875 46.484375 68.546875 
Q 53.21875 62.890625 53.21875 53.421875 
Q 53.21875 48.921875 51.53125 44.890625 
Q 49.859375 40.875 45.40625 35.40625 
Q 44.1875 33.984375 37.640625 27.21875 
Q 31.109375 20.453125 19.1875 8.296875 
z
" id="DejaVuSans-50"/>
       </defs>
       <use xlink:href="#DejaVuSans-50"/>
       <use x="63.623047" xlink:href="#DejaVuSans-48"/>
      </g>
     </g>
    </g>
   </g>
   <g id="patch_244">
    <path d="M 33.2875 121.154489 
L 33.2875 22.318125 
" style="fill:none;stroke:#000000;stroke-linecap:square;stroke-linejoin:miter;stroke-width:0.8;"/>
   </g>
   <g id="patch_245">
    <path d="M 368.0875 121.154489 
L 368.0875 22.318125 
" style="fill:none;stroke:#000000;stroke-linecap:square;stroke-linejoin:miter;stroke-width:0.8;"/>
   </g>
   <g id="patch_246">
    <path d="M 33.2875 121.154489 
L 368.0875 121.154489 
" style="fill:none;stroke:#000000;stroke-linecap:square;stroke-linejoin:miter;stroke-width:0.8;"/>
   </g>
   <g id="patch_247">
    <path d="M 33.2875 22.318125 
L 368.0875 22.318125 
" style="fill:none;stroke:#000000;stroke-linecap:square;stroke-linejoin:miter;stroke-width:0.8;"/>
   </g>
   <g id="text_4">
    <!-- individual contribution in % -->
    <g transform="translate(118.315 16.318125)scale(0.12 -0.12)">
     <defs>
      <path d="M 9.421875 54.6875 
L 18.40625 54.6875 
L 18.40625 0 
L 9.421875 0 
z
M 9.421875 75.984375 
L 18.40625 75.984375 
L 18.40625 64.59375 
L 9.421875 64.59375 
z
" id="DejaVuSans-105"/>
      <path d="M 54.890625 33.015625 
L 54.890625 0 
L 45.90625 0 
L 45.90625 32.71875 
Q 45.90625 40.484375 42.875 44.328125 
Q 39.84375 48.1875 33.796875 48.1875 
Q 26.515625 48.1875 22.3125 43.546875 
Q 18.109375 38.921875 18.109375 30.90625 
L 18.109375 0 
L 9.078125 0 
L 9.078125 54.6875 
L 18.109375 54.6875 
L 18.109375 46.1875 
Q 21.34375 51.125 25.703125 53.5625 
Q 30.078125 56 35.796875 56 
Q 45.21875 56 50.046875 50.171875 
Q 54.890625 44.34375 54.890625 33.015625 
z
" id="DejaVuSans-110"/>
      <path d="M 45.40625 46.390625 
L 45.40625 75.984375 
L 54.390625 75.984375 
L 54.390625 0 
L 45.40625 0 
L 45.40625 8.203125 
Q 42.578125 3.328125 38.25 0.953125 
Q 33.9375 -1.421875 27.875 -1.421875 
Q 17.96875 -1.421875 11.734375 6.484375 
Q 5.515625 14.40625 5.515625 27.296875 
Q 5.515625 40.1875 11.734375 48.09375 
Q 17.96875 56 27.875 56 
Q 33.9375 56 38.25 53.625 
Q 42.578125 51.265625 45.40625 46.390625 
z
M 14.796875 27.296875 
Q 14.796875 17.390625 18.875 11.75 
Q 22.953125 6.109375 30.078125 6.109375 
Q 37.203125 6.109375 41.296875 11.75 
Q 45.40625 17.390625 45.40625 27.296875 
Q 45.40625 37.203125 41.296875 42.84375 
Q 37.203125 48.484375 30.078125 48.484375 
Q 22.953125 48.484375 18.875 42.84375 
Q 14.796875 37.203125 14.796875 27.296875 
z
" id="DejaVuSans-100"/>
      <path d="M 2.984375 54.6875 
L 12.5 54.6875 
L 29.59375 8.796875 
L 46.6875 54.6875 
L 56.203125 54.6875 
L 35.6875 0 
L 23.484375 0 
z
" id="DejaVuSans-118"/>
      <path d="M 8.5 21.578125 
L 8.5 54.6875 
L 17.484375 54.6875 
L 17.484375 21.921875 
Q 17.484375 14.15625 20.5 10.265625 
Q 23.53125 6.390625 29.59375 6.390625 
Q 36.859375 6.390625 41.078125 11.03125 
Q 45.3125 15.671875 45.3125 23.6875 
L 45.3125 54.6875 
L 54.296875 54.6875 
L 54.296875 0 
L 45.3125 0 
L 45.3125 8.40625 
Q 42.046875 3.421875 37.71875 1 
Q 33.40625 -1.421875 27.6875 -1.421875 
Q 18.265625 -1.421875 13.375 4.4375 
Q 8.5 10.296875 8.5 21.578125 
z
M 31.109375 56 
z
" id="DejaVuSans-117"/>
      <path d="M 34.28125 27.484375 
Q 23.390625 27.484375 19.1875 25 
Q 14.984375 22.515625 14.984375 16.5 
Q 14.984375 11.71875 18.140625 8.90625 
Q 21.296875 6.109375 26.703125 6.109375 
Q 34.1875 6.109375 38.703125 11.40625 
Q 43.21875 16.703125 43.21875 25.484375 
L 43.21875 27.484375 
z
M 52.203125 31.203125 
L 52.203125 0 
L 43.21875 0 
L 43.21875 8.296875 
Q 40.140625 3.328125 35.546875 0.953125 
Q 30.953125 -1.421875 24.3125 -1.421875 
Q 15.921875 -1.421875 10.953125 3.296875 
Q 6 8.015625 6 15.921875 
Q 6 25.140625 12.171875 29.828125 
Q 18.359375 34.515625 30.609375 34.515625 
L 43.21875 34.515625 
L 43.21875 35.40625 
Q 43.21875 41.609375 39.140625 45 
Q 35.0625 48.390625 27.6875 48.390625 
Q 23 48.390625 18.546875 47.265625 
Q 14.109375 46.140625 10.015625 43.890625 
L 10.015625 52.203125 
Q 14.9375 54.109375 19.578125 55.046875 
Q 24.21875 56 28.609375 56 
Q 40.484375 56 46.34375 49.84375 
Q 52.203125 43.703125 52.203125 31.203125 
z
" id="DejaVuSans-97"/>
      <path d="M 9.421875 75.984375 
L 18.40625 75.984375 
L 18.40625 0 
L 9.421875 0 
z
" id="DejaVuSans-108"/>
      <path id="DejaVuSans-32"/>
      <path d="M 48.78125 52.59375 
L 48.78125 44.1875 
Q 44.96875 46.296875 41.140625 47.34375 
Q 37.3125 48.390625 33.40625 48.390625 
Q 24.65625 48.390625 19.8125 42.84375 
Q 14.984375 37.3125 14.984375 27.296875 
Q 14.984375 17.28125 19.8125 11.734375 
Q 24.65625 6.203125 33.40625 6.203125 
Q 37.3125 6.203125 41.140625 7.25 
Q 44.96875 8.296875 48.78125 10.40625 
L 48.78125 2.09375 
Q 45.015625 0.34375 40.984375 -0.53125 
Q 36.96875 -1.421875 32.421875 -1.421875 
Q 20.0625 -1.421875 12.78125 6.34375 
Q 5.515625 14.109375 5.515625 27.296875 
Q 5.515625 40.671875 12.859375 48.328125 
Q 20.21875 56 33.015625 56 
Q 37.15625 56 41.109375 55.140625 
Q 45.0625 54.296875 48.78125 52.59375 
z
" id="DejaVuSans-99"/>
      <path d="M 30.609375 48.390625 
Q 23.390625 48.390625 19.1875 42.75 
Q 14.984375 37.109375 14.984375 27.296875 
Q 14.984375 17.484375 19.15625 11.84375 
Q 23.34375 6.203125 30.609375 6.203125 
Q 37.796875 6.203125 41.984375 11.859375 
Q 46.1875 17.53125 46.1875 27.296875 
Q 46.1875 37.015625 41.984375 42.703125 
Q 37.796875 48.390625 30.609375 48.390625 
z
M 30.609375 56 
Q 42.328125 56 49.015625 48.375 
Q 55.71875 40.765625 55.71875 27.296875 
Q 55.71875 13.875 49.015625 6.21875 
Q 42.328125 -1.421875 30.609375 -1.421875 
Q 18.84375 -1.421875 12.171875 6.21875 
Q 5.515625 13.875 5.515625 27.296875 
Q 5.515625 40.765625 12.171875 48.375 
Q 18.84375 56 30.609375 56 
z
" id="DejaVuSans-111"/>
      <path d="M 18.3125 70.21875 
L 18.3125 54.6875 
L 36.8125 54.6875 
L 36.8125 47.703125 
L 18.3125 47.703125 
L 18.3125 18.015625 
Q 18.3125 11.328125 20.140625 9.421875 
Q 21.96875 7.515625 27.59375 7.515625 
L 36.8125 7.515625 
L 36.8125 0 
L 27.59375 0 
Q 17.1875 0 13.234375 3.875 
Q 9.28125 7.765625 9.28125 18.015625 
L 9.28125 47.703125 
L 2.6875 47.703125 
L 2.6875 54.6875 
L 9.28125 54.6875 
L 9.28125 70.21875 
z
" id="DejaVuSans-116"/>
      <path d="M 41.109375 46.296875 
Q 39.59375 47.171875 37.8125 47.578125 
Q 36.03125 48 33.890625 48 
Q 26.265625 48 22.1875 43.046875 
Q 18.109375 38.09375 18.109375 28.8125 
L 18.109375 0 
L 9.078125 0 
L 9.078125 54.6875 
L 18.109375 54.6875 
L 18.109375 46.1875 
Q 20.953125 51.171875 25.484375 53.578125 
Q 30.03125 56 36.53125 56 
Q 37.453125 56 38.578125 55.875 
Q 39.703125 55.765625 41.0625 55.515625 
z
" id="DejaVuSans-114"/>
      <path d="M 48.6875 27.296875 
Q 48.6875 37.203125 44.609375 42.84375 
Q 40.53125 48.484375 33.40625 48.484375 
Q 26.265625 48.484375 22.1875 42.84375 
Q 18.109375 37.203125 18.109375 27.296875 
Q 18.109375 17.390625 22.1875 11.75 
Q 26.265625 6.109375 33.40625 6.109375 
Q 40.53125 6.109375 44.609375 11.75 
Q 48.6875 17.390625 48.6875 27.296875 
z
M 18.109375 46.390625 
Q 20.953125 51.265625 25.265625 53.625 
Q 29.59375 56 35.59375 56 
Q 45.5625 56 51.78125 48.09375 
Q 58.015625 40.1875 58.015625 27.296875 
Q 58.015625 14.40625 51.78125 6.484375 
Q 45.5625 -1.421875 35.59375 -1.421875 
Q 29.59375 -1.421875 25.265625 0.953125 
Q 20.953125 3.328125 18.109375 8.203125 
L 18.109375 0 
L 9.078125 0 
L 9.078125 75.984375 
L 18.109375 75.984375 
z
" id="DejaVuSans-98"/>
      <path d="M 72.703125 32.078125 
Q 68.453125 32.078125 66.03125 28.46875 
Q 63.625 24.859375 63.625 18.40625 
Q 63.625 12.0625 66.03125 8.421875 
Q 68.453125 4.78125 72.703125 4.78125 
Q 76.859375 4.78125 79.265625 8.421875 
Q 81.6875 12.0625 81.6875 18.40625 
Q 81.6875 24.8125 79.265625 28.4375 
Q 76.859375 32.078125 72.703125 32.078125 
z
M 72.703125 38.28125 
Q 80.421875 38.28125 84.953125 32.90625 
Q 89.5 27.546875 89.5 18.40625 
Q 89.5 9.28125 84.9375 3.921875 
Q 80.375 -1.421875 72.703125 -1.421875 
Q 64.890625 -1.421875 60.34375 3.921875 
Q 55.8125 9.28125 55.8125 18.40625 
Q 55.8125 27.59375 60.375 32.9375 
Q 64.9375 38.28125 72.703125 38.28125 
z
M 22.3125 68.015625 
Q 18.109375 68.015625 15.6875 64.375 
Q 13.28125 60.75 13.28125 54.390625 
Q 13.28125 47.953125 15.671875 44.328125 
Q 18.0625 40.71875 22.3125 40.71875 
Q 26.5625 40.71875 28.96875 44.328125 
Q 31.390625 47.953125 31.390625 54.390625 
Q 31.390625 60.6875 28.953125 64.34375 
Q 26.515625 68.015625 22.3125 68.015625 
z
M 66.40625 74.21875 
L 74.21875 74.21875 
L 28.609375 -1.421875 
L 20.796875 -1.421875 
z
M 22.3125 74.21875 
Q 30.03125 74.21875 34.609375 68.875 
Q 39.203125 63.53125 39.203125 54.390625 
Q 39.203125 45.171875 34.640625 39.84375 
Q 30.078125 34.515625 22.3125 34.515625 
Q 14.546875 34.515625 10.03125 39.859375 
Q 5.515625 45.21875 5.515625 54.390625 
Q 5.515625 63.484375 10.046875 68.84375 
Q 14.59375 74.21875 22.3125 74.21875 
z
" id="DejaVuSans-37"/>
     </defs>
     <use xlink:href="#DejaVuSans-105"/>
     <use x="27.783203" xlink:href="#DejaVuSans-110"/>
     <use x="91.162109" xlink:href="#DejaVuSans-100"/>
     <use x="154.638672" xlink:href="#DejaVuSans-105"/>
     <use x="182.421875" xlink:href="#DejaVuSans-118"/>
     <use x="241.601562" xlink:href="#DejaVuSans-105"/>
     <use x="269.384766" xlink:href="#DejaVuSans-100"/>
     <use x="332.861328" xlink:href="#DejaVuSans-117"/>
     <use x="396.240234" xlink:href="#DejaVuSans-97"/>
     <use x="457.519531" xlink:href="#DejaVuSans-108"/>
     <use x="485.302734" xlink:href="#DejaVuSans-32"/>
     <use x="517.089844" xlink:href="#DejaVuSans-99"/>
     <use x="572.070312" xlink:href="#DejaVuSans-111"/>
     <use x="633.251953" xlink:href="#DejaVuSans-110"/>
     <use x="696.630859" xlink:href="#DejaVuSans-116"/>
     <use x="735.839844" xlink:href="#DejaVuSans-114"/>
     <use x="776.953125" xlink:href="#DejaVuSans-105"/>
     <use x="804.736328" xlink:href="#DejaVuSans-98"/>
     <use x="868.212891" xlink:href="#DejaVuSans-117"/>
     <use x="931.591797" xlink:href="#DejaVuSans-116"/>
     <use x="970.800781" xlink:href="#DejaVuSans-105"/>
     <use x="998.583984" xlink:href="#DejaVuSans-111"/>
     <use x="1059.765625" xlink:href="#DejaVuSans-110"/>
     <use x="1123.144531" xlink:href="#DejaVuSans-32"/>
     <use x="1154.931641" xlink:href="#DejaVuSans-105"/>
     <use x="1182.714844" xlink:href="#DejaVuSans-110"/>
     <use x="1246.09375" xlink:href="#DejaVuSans-32"/>
     <use x="1277.880859" xlink:href="#DejaVuSans-37"/>
    </g>
   </g>
  </g>
  <g id="axes_2">
   <g id="patch_248">
    <path d="M 33.2875 239.758125 
L 368.0875 239.758125 
L 368.0875 140.921761 
L 33.2875 140.921761 
z
" style="fill:#ffffff;"/>
   </g>
   <g id="matplotlib.axis_3">
    <g id="xtick_11">
     <g id="line2d_14">
      <g>
       <use style="stroke:#000000;stroke-width:0.8;" x="33.2875" xlink:href="#mf0f7358077" y="239.758125"/>
      </g>
     </g>
     <g id="text_5">
      <!-- 0 -->
      <g transform="translate(30.10625 254.356562)scale(0.1 -0.1)">
       <use xlink:href="#DejaVuSans-48"/>
      </g>
     </g>
    </g>
    <g id="xtick_12">
     <g id="line2d_15">
      <g>
       <use style="stroke:#000000;stroke-width:0.8;" x="70.4875" xlink:href="#mf0f7358077" y="239.758125"/>
      </g>
     </g>
     <g id="text_6">
      <!-- 10 -->
      <g transform="translate(64.125 254.356562)scale(0.1 -0.1)">
       <use xlink:href="#DejaVuSans-49"/>
       <use x="63.623047" xlink:href="#DejaVuSans-48"/>
      </g>
     </g>
    </g>
    <g id="xtick_13">
     <g id="line2d_16">
      <g>
       <use style="stroke:#000000;stroke-width:0.8;" x="107.6875" xlink:href="#mf0f7358077" y="239.758125"/>
      </g>
     </g>
     <g id="text_7">
      <!-- 20 -->
      <g transform="translate(101.325 254.356562)scale(0.1 -0.1)">
       <use xlink:href="#DejaVuSans-50"/>
       <use x="63.623047" xlink:href="#DejaVuSans-48"/>
      </g>
     </g>
    </g>
    <g id="xtick_14">
     <g id="line2d_17">
      <g>
       <use style="stroke:#000000;stroke-width:0.8;" x="144.8875" xlink:href="#mf0f7358077" y="239.758125"/>
      </g>
     </g>
     <g id="text_8">
      <!-- 30 -->
      <g transform="translate(138.525 254.356562)scale(0.1 -0.1)">
       <defs>
        <path d="M 40.578125 39.3125 
Q 47.65625 37.796875 51.625 33 
Q 55.609375 28.21875 55.609375 21.1875 
Q 55.609375 10.40625 48.1875 4.484375 
Q 40.765625 -1.421875 27.09375 -1.421875 
Q 22.515625 -1.421875 17.65625 -0.515625 
Q 12.796875 0.390625 7.625 2.203125 
L 7.625 11.71875 
Q 11.71875 9.328125 16.59375 8.109375 
Q 21.484375 6.890625 26.8125 6.890625 
Q 36.078125 6.890625 40.9375 10.546875 
Q 45.796875 14.203125 45.796875 21.1875 
Q 45.796875 27.640625 41.28125 31.265625 
Q 36.765625 34.90625 28.71875 34.90625 
L 20.21875 34.90625 
L 20.21875 43.015625 
L 29.109375 43.015625 
Q 36.375 43.015625 40.234375 45.921875 
Q 44.09375 48.828125 44.09375 54.296875 
Q 44.09375 59.90625 40.109375 62.90625 
Q 36.140625 65.921875 28.71875 65.921875 
Q 24.65625 65.921875 20.015625 65.03125 
Q 15.375 64.15625 9.8125 62.3125 
L 9.8125 71.09375 
Q 15.4375 72.65625 20.34375 73.4375 
Q 25.25 74.21875 29.59375 74.21875 
Q 40.828125 74.21875 47.359375 69.109375 
Q 53.90625 64.015625 53.90625 55.328125 
Q 53.90625 49.265625 50.4375 45.09375 
Q 46.96875 40.921875 40.578125 39.3125 
z
" id="DejaVuSans-51"/>
       </defs>
       <use xlink:href="#DejaVuSans-51"/>
       <use x="63.623047" xlink:href="#DejaVuSans-48"/>
      </g>
     </g>
    </g>
    <g id="xtick_15">
     <g id="line2d_18">
      <g>
       <use style="stroke:#000000;stroke-width:0.8;" x="182.0875" xlink:href="#mf0f7358077" y="239.758125"/>
      </g>
     </g>
     <g id="text_9">
      <!-- 40 -->
      <g transform="translate(175.725 254.356562)scale(0.1 -0.1)">
       <defs>
        <path d="M 37.796875 64.3125 
L 12.890625 25.390625 
L 37.796875 25.390625 
z
M 35.203125 72.90625 
L 47.609375 72.90625 
L 47.609375 25.390625 
L 58.015625 25.390625 
L 58.015625 17.1875 
L 47.609375 17.1875 
L 47.609375 0 
L 37.796875 0 
L 37.796875 17.1875 
L 4.890625 17.1875 
L 4.890625 26.703125 
z
" id="DejaVuSans-52"/>
       </defs>
       <use xlink:href="#DejaVuSans-52"/>
       <use x="63.623047" xlink:href="#DejaVuSans-48"/>
      </g>
     </g>
    </g>
    <g id="xtick_16">
     <g id="line2d_19">
      <g>
       <use style="stroke:#000000;stroke-width:0.8;" x="219.2875" xlink:href="#mf0f7358077" y="239.758125"/>
      </g>
     </g>
     <g id="text_10">
      <!-- 50 -->
      <g transform="translate(212.925 254.356562)scale(0.1 -0.1)">
       <defs>
        <path d="M 10.796875 72.90625 
L 49.515625 72.90625 
L 49.515625 64.59375 
L 19.828125 64.59375 
L 19.828125 46.734375 
Q 21.96875 47.46875 24.109375 47.828125 
Q 26.265625 48.1875 28.421875 48.1875 
Q 40.625 48.1875 47.75 41.5 
Q 54.890625 34.8125 54.890625 23.390625 
Q 54.890625 11.625 47.5625 5.09375 
Q 40.234375 -1.421875 26.90625 -1.421875 
Q 22.3125 -1.421875 17.546875 -0.640625 
Q 12.796875 0.140625 7.71875 1.703125 
L 7.71875 11.625 
Q 12.109375 9.234375 16.796875 8.0625 
Q 21.484375 6.890625 26.703125 6.890625 
Q 35.15625 6.890625 40.078125 11.328125 
Q 45.015625 15.765625 45.015625 23.390625 
Q 45.015625 31 40.078125 35.4375 
Q 35.15625 39.890625 26.703125 39.890625 
Q 22.75 39.890625 18.8125 39.015625 
Q 14.890625 38.140625 10.796875 36.28125 
z
" id="DejaVuSans-53"/>
       </defs>
       <use xlink:href="#DejaVuSans-53"/>
       <use x="63.623047" xlink:href="#DejaVuSans-48"/>
      </g>
     </g>
    </g>
    <g id="xtick_17">
     <g id="line2d_20">
      <g>
       <use style="stroke:#000000;stroke-width:0.8;" x="256.4875" xlink:href="#mf0f7358077" y="239.758125"/>
      </g>
     </g>
     <g id="text_11">
      <!-- 60 -->
      <g transform="translate(250.125 254.356562)scale(0.1 -0.1)">
       <defs>
        <path d="M 33.015625 40.375 
Q 26.375 40.375 22.484375 35.828125 
Q 18.609375 31.296875 18.609375 23.390625 
Q 18.609375 15.53125 22.484375 10.953125 
Q 26.375 6.390625 33.015625 6.390625 
Q 39.65625 6.390625 43.53125 10.953125 
Q 47.40625 15.53125 47.40625 23.390625 
Q 47.40625 31.296875 43.53125 35.828125 
Q 39.65625 40.375 33.015625 40.375 
z
M 52.59375 71.296875 
L 52.59375 62.3125 
Q 48.875 64.0625 45.09375 64.984375 
Q 41.3125 65.921875 37.59375 65.921875 
Q 27.828125 65.921875 22.671875 59.328125 
Q 17.53125 52.734375 16.796875 39.40625 
Q 19.671875 43.65625 24.015625 45.921875 
Q 28.375 48.1875 33.59375 48.1875 
Q 44.578125 48.1875 50.953125 41.515625 
Q 57.328125 34.859375 57.328125 23.390625 
Q 57.328125 12.15625 50.6875 5.359375 
Q 44.046875 -1.421875 33.015625 -1.421875 
Q 20.359375 -1.421875 13.671875 8.265625 
Q 6.984375 17.96875 6.984375 36.375 
Q 6.984375 53.65625 15.1875 63.9375 
Q 23.390625 74.21875 37.203125 74.21875 
Q 40.921875 74.21875 44.703125 73.484375 
Q 48.484375 72.75 52.59375 71.296875 
z
" id="DejaVuSans-54"/>
       </defs>
       <use xlink:href="#DejaVuSans-54"/>
       <use x="63.623047" xlink:href="#DejaVuSans-48"/>
      </g>
     </g>
    </g>
    <g id="xtick_18">
     <g id="line2d_21">
      <g>
       <use style="stroke:#000000;stroke-width:0.8;" x="293.6875" xlink:href="#mf0f7358077" y="239.758125"/>
      </g>
     </g>
     <g id="text_12">
      <!-- 70 -->
      <g transform="translate(287.325 254.356562)scale(0.1 -0.1)">
       <defs>
        <path d="M 8.203125 72.90625 
L 55.078125 72.90625 
L 55.078125 68.703125 
L 28.609375 0 
L 18.3125 0 
L 43.21875 64.59375 
L 8.203125 64.59375 
z
" id="DejaVuSans-55"/>
       </defs>
       <use xlink:href="#DejaVuSans-55"/>
       <use x="63.623047" xlink:href="#DejaVuSans-48"/>
      </g>
     </g>
    </g>
    <g id="xtick_19">
     <g id="line2d_22">
      <g>
       <use style="stroke:#000000;stroke-width:0.8;" x="330.8875" xlink:href="#mf0f7358077" y="239.758125"/>
      </g>
     </g>
     <g id="text_13">
      <!-- 80 -->
      <g transform="translate(324.525 254.356562)scale(0.1 -0.1)">
       <defs>
        <path d="M 31.78125 34.625 
Q 24.75 34.625 20.71875 30.859375 
Q 16.703125 27.09375 16.703125 20.515625 
Q 16.703125 13.921875 20.71875 10.15625 
Q 24.75 6.390625 31.78125 6.390625 
Q 38.8125 6.390625 42.859375 10.171875 
Q 46.921875 13.96875 46.921875 20.515625 
Q 46.921875 27.09375 42.890625 30.859375 
Q 38.875 34.625 31.78125 34.625 
z
M 21.921875 38.8125 
Q 15.578125 40.375 12.03125 44.71875 
Q 8.5 49.078125 8.5 55.328125 
Q 8.5 64.0625 14.71875 69.140625 
Q 20.953125 74.21875 31.78125 74.21875 
Q 42.671875 74.21875 48.875 69.140625 
Q 55.078125 64.0625 55.078125 55.328125 
Q 55.078125 49.078125 51.53125 44.71875 
Q 48 40.375 41.703125 38.8125 
Q 48.828125 37.15625 52.796875 32.3125 
Q 56.78125 27.484375 56.78125 20.515625 
Q 56.78125 9.90625 50.3125 4.234375 
Q 43.84375 -1.421875 31.78125 -1.421875 
Q 19.734375 -1.421875 13.25 4.234375 
Q 6.78125 9.90625 6.78125 20.515625 
Q 6.78125 27.484375 10.78125 32.3125 
Q 14.796875 37.15625 21.921875 38.8125 
z
M 18.3125 54.390625 
Q 18.3125 48.734375 21.84375 45.5625 
Q 25.390625 42.390625 31.78125 42.390625 
Q 38.140625 42.390625 41.71875 45.5625 
Q 45.3125 48.734375 45.3125 54.390625 
Q 45.3125 60.0625 41.71875 63.234375 
Q 38.140625 66.40625 31.78125 66.40625 
Q 25.390625 66.40625 21.84375 63.234375 
Q 18.3125 60.0625 18.3125 54.390625 
z
" id="DejaVuSans-56"/>
       </defs>
       <use xlink:href="#DejaVuSans-56"/>
       <use x="63.623047" xlink:href="#DejaVuSans-48"/>
      </g>
     </g>
    </g>
    <g id="xtick_20">
     <g id="line2d_23">
      <g>
       <use style="stroke:#000000;stroke-width:0.8;" x="368.0875" xlink:href="#mf0f7358077" y="239.758125"/>
      </g>
     </g>
     <g id="text_14">
      <!-- 90 -->
      <g transform="translate(361.725 254.356562)scale(0.1 -0.1)">
       <defs>
        <path d="M 10.984375 1.515625 
L 10.984375 10.5 
Q 14.703125 8.734375 18.5 7.8125 
Q 22.3125 6.890625 25.984375 6.890625 
Q 35.75 6.890625 40.890625 13.453125 
Q 46.046875 20.015625 46.78125 33.40625 
Q 43.953125 29.203125 39.59375 26.953125 
Q 35.25 24.703125 29.984375 24.703125 
Q 19.046875 24.703125 12.671875 31.3125 
Q 6.296875 37.9375 6.296875 49.421875 
Q 6.296875 60.640625 12.9375 67.421875 
Q 19.578125 74.21875 30.609375 74.21875 
Q 43.265625 74.21875 49.921875 64.515625 
Q 56.59375 54.828125 56.59375 36.375 
Q 56.59375 19.140625 48.40625 8.859375 
Q 40.234375 -1.421875 26.421875 -1.421875 
Q 22.703125 -1.421875 18.890625 -0.6875 
Q 15.09375 0.046875 10.984375 1.515625 
z
M 30.609375 32.421875 
Q 37.25 32.421875 41.125 36.953125 
Q 45.015625 41.5 45.015625 49.421875 
Q 45.015625 57.28125 41.125 61.84375 
Q 37.25 66.40625 30.609375 66.40625 
Q 23.96875 66.40625 20.09375 61.84375 
Q 16.21875 57.28125 16.21875 49.421875 
Q 16.21875 41.5 20.09375 36.953125 
Q 23.96875 32.421875 30.609375 32.421875 
z
" id="DejaVuSans-57"/>
       </defs>
       <use xlink:href="#DejaVuSans-57"/>
       <use x="63.623047" xlink:href="#DejaVuSans-48"/>
      </g>
     </g>
    </g>
   </g>
   <g id="matplotlib.axis_4">
    <g id="ytick_4">
     <g id="line2d_24">
      <g>
       <use style="stroke:#000000;stroke-width:0.8;" x="33.2875" xlink:href="#m279c6b421d" y="239.758125"/>
      </g>
     </g>
     <g id="text_15">
      <!-- 0 -->
      <g transform="translate(19.925 243.557344)scale(0.1 -0.1)">
       <use xlink:href="#DejaVuSans-48"/>
      </g>
     </g>
    </g>
    <g id="ytick_5">
     <g id="line2d_25">
      <g>
       <use style="stroke:#000000;stroke-width:0.8;" x="33.2875" xlink:href="#m279c6b421d" y="192.69319"/>
      </g>
     </g>
     <g id="text_16">
      <!-- 50 -->
      <g transform="translate(13.5625 196.492409)scale(0.1 -0.1)">
       <use xlink:href="#DejaVuSans-53"/>
       <use x="63.623047" xlink:href="#DejaVuSans-48"/>
      </g>
     </g>
    </g>
    <g id="ytick_6">
     <g id="line2d_26">
      <g>
       <use style="stroke:#000000;stroke-width:0.8;" x="33.2875" xlink:href="#m279c6b421d" y="145.628255"/>
      </g>
     </g>
     <g id="text_17">
      <!-- 100 -->
      <g transform="translate(7.2 149.427474)scale(0.1 -0.1)">
       <use xlink:href="#DejaVuSans-49"/>
       <use x="63.623047" xlink:href="#DejaVuSans-48"/>
       <use x="127.246094" xlink:href="#DejaVuSans-48"/>
      </g>
     </g>
    </g>
   </g>
   <g id="line2d_27">
    <path clip-path="url(#pc772b558f8)" d="M 33.2875 239.758125 
L 37.0075 213.700155 
L 40.7275 189.003264 
L 44.4475 180.189921 
L 48.1675 171.91664 
L 51.8875 165.733047 
L 55.6075 159.857404 
L 63.0475 154.214173 
L 70.4875 150.707014 
L 77.9275 148.789075 
L 85.3675 147.618502 
L 92.8075 146.9698 
L 103.9675 146.45655 
L 122.5675 146.046225 
L 144.8875 145.819249 
L 178.3675 145.681002 
L 275.0875 145.637475 
L 382.65 145.633355 
L 382.65 145.633355 
" style="fill:none;stroke:#1f77b4;stroke-linecap:square;stroke-width:1.5;"/>
   </g>
   <g id="line2d_28">
    <path clip-path="url(#pc772b558f8)" d="M 33.2875 146.45655 
L 103.9675 146.45655 
L 103.9675 239.758125 
" style="fill:none;stroke:#d62728;stroke-dasharray:5.55,2.4;stroke-dashoffset:0;stroke-width:1.5;"/>
   </g>
   <g id="patch_249">
    <path d="M 33.2875 239.758125 
L 33.2875 140.921761 
" style="fill:none;stroke:#000000;stroke-linecap:square;stroke-linejoin:miter;stroke-width:0.8;"/>
   </g>
   <g id="patch_250">
    <path d="M 368.0875 239.758125 
L 368.0875 140.921761 
" style="fill:none;stroke:#000000;stroke-linecap:square;stroke-linejoin:miter;stroke-width:0.8;"/>
   </g>
   <g id="patch_251">
    <path d="M 33.2875 239.758125 
L 368.0875 239.758125 
" style="fill:none;stroke:#000000;stroke-linecap:square;stroke-linejoin:miter;stroke-width:0.8;"/>
   </g>
   <g id="patch_252">
    <path d="M 33.2875 140.921761 
L 368.0875 140.921761 
" style="fill:none;stroke:#000000;stroke-linecap:square;stroke-linejoin:miter;stroke-width:0.8;"/>
   </g>
   <g id="text_18">
    <!-- first 19 singular values yield 99.12% -->
    <g transform="translate(107.6875 197.399683)scale(0.1 -0.1)">
     <defs>
      <path d="M 37.109375 75.984375 
L 37.109375 68.5 
L 28.515625 68.5 
Q 23.6875 68.5 21.796875 66.546875 
Q 19.921875 64.59375 19.921875 59.515625 
L 19.921875 54.6875 
L 34.71875 54.6875 
L 34.71875 47.703125 
L 19.921875 47.703125 
L 19.921875 0 
L 10.890625 0 
L 10.890625 47.703125 
L 2.296875 47.703125 
L 2.296875 54.6875 
L 10.890625 54.6875 
L 10.890625 58.5 
Q 10.890625 67.625 15.140625 71.796875 
Q 19.390625 75.984375 28.609375 75.984375 
z
" id="DejaVuSans-102"/>
      <path d="M 44.28125 53.078125 
L 44.28125 44.578125 
Q 40.484375 46.53125 36.375 47.5 
Q 32.28125 48.484375 27.875 48.484375 
Q 21.1875 48.484375 17.84375 46.4375 
Q 14.5 44.390625 14.5 40.28125 
Q 14.5 37.15625 16.890625 35.375 
Q 19.28125 33.59375 26.515625 31.984375 
L 29.59375 31.296875 
Q 39.15625 29.25 43.1875 25.515625 
Q 47.21875 21.78125 47.21875 15.09375 
Q 47.21875 7.46875 41.1875 3.015625 
Q 35.15625 -1.421875 24.609375 -1.421875 
Q 20.21875 -1.421875 15.453125 -0.5625 
Q 10.6875 0.296875 5.421875 2 
L 5.421875 11.28125 
Q 10.40625 8.6875 15.234375 7.390625 
Q 20.0625 6.109375 24.8125 6.109375 
Q 31.15625 6.109375 34.5625 8.28125 
Q 37.984375 10.453125 37.984375 14.40625 
Q 37.984375 18.0625 35.515625 20.015625 
Q 33.0625 21.96875 24.703125 23.78125 
L 21.578125 24.515625 
Q 13.234375 26.265625 9.515625 29.90625 
Q 5.8125 33.546875 5.8125 39.890625 
Q 5.8125 47.609375 11.28125 51.796875 
Q 16.75 56 26.8125 56 
Q 31.78125 56 36.171875 55.265625 
Q 40.578125 54.546875 44.28125 53.078125 
z
" id="DejaVuSans-115"/>
      <path d="M 45.40625 27.984375 
Q 45.40625 37.75 41.375 43.109375 
Q 37.359375 48.484375 30.078125 48.484375 
Q 22.859375 48.484375 18.828125 43.109375 
Q 14.796875 37.75 14.796875 27.984375 
Q 14.796875 18.265625 18.828125 12.890625 
Q 22.859375 7.515625 30.078125 7.515625 
Q 37.359375 7.515625 41.375 12.890625 
Q 45.40625 18.265625 45.40625 27.984375 
z
M 54.390625 6.78125 
Q 54.390625 -7.171875 48.1875 -13.984375 
Q 42 -20.796875 29.203125 -20.796875 
Q 24.46875 -20.796875 20.265625 -20.09375 
Q 16.0625 -19.390625 12.109375 -17.921875 
L 12.109375 -9.1875 
Q 16.0625 -11.328125 19.921875 -12.34375 
Q 23.78125 -13.375 27.78125 -13.375 
Q 36.625 -13.375 41.015625 -8.765625 
Q 45.40625 -4.15625 45.40625 5.171875 
L 45.40625 9.625 
Q 42.625 4.78125 38.28125 2.390625 
Q 33.9375 0 27.875 0 
Q 17.828125 0 11.671875 7.65625 
Q 5.515625 15.328125 5.515625 27.984375 
Q 5.515625 40.671875 11.671875 48.328125 
Q 17.828125 56 27.875 56 
Q 33.9375 56 38.28125 53.609375 
Q 42.625 51.21875 45.40625 46.390625 
L 45.40625 54.6875 
L 54.390625 54.6875 
z
" id="DejaVuSans-103"/>
      <path d="M 56.203125 29.59375 
L 56.203125 25.203125 
L 14.890625 25.203125 
Q 15.484375 15.921875 20.484375 11.0625 
Q 25.484375 6.203125 34.421875 6.203125 
Q 39.59375 6.203125 44.453125 7.46875 
Q 49.3125 8.734375 54.109375 11.28125 
L 54.109375 2.78125 
Q 49.265625 0.734375 44.1875 -0.34375 
Q 39.109375 -1.421875 33.890625 -1.421875 
Q 20.796875 -1.421875 13.15625 6.1875 
Q 5.515625 13.8125 5.515625 26.8125 
Q 5.515625 40.234375 12.765625 48.109375 
Q 20.015625 56 32.328125 56 
Q 43.359375 56 49.78125 48.890625 
Q 56.203125 41.796875 56.203125 29.59375 
z
M 47.21875 32.234375 
Q 47.125 39.59375 43.09375 43.984375 
Q 39.0625 48.390625 32.421875 48.390625 
Q 24.90625 48.390625 20.390625 44.140625 
Q 15.875 39.890625 15.1875 32.171875 
z
" id="DejaVuSans-101"/>
      <path d="M 32.171875 -5.078125 
Q 28.375 -14.84375 24.75 -17.8125 
Q 21.140625 -20.796875 15.09375 -20.796875 
L 7.90625 -20.796875 
L 7.90625 -13.28125 
L 13.1875 -13.28125 
Q 16.890625 -13.28125 18.9375 -11.515625 
Q 21 -9.765625 23.484375 -3.21875 
L 25.09375 0.875 
L 2.984375 54.6875 
L 12.5 54.6875 
L 29.59375 11.921875 
L 46.6875 54.6875 
L 56.203125 54.6875 
z
" id="DejaVuSans-121"/>
      <path d="M 10.6875 12.40625 
L 21 12.40625 
L 21 0 
L 10.6875 0 
z
" id="DejaVuSans-46"/>
     </defs>
     <use xlink:href="#DejaVuSans-102"/>
     <use x="35.205078" xlink:href="#DejaVuSans-105"/>
     <use x="62.988281" xlink:href="#DejaVuSans-114"/>
     <use x="104.101562" xlink:href="#DejaVuSans-115"/>
     <use x="156.201172" xlink:href="#DejaVuSans-116"/>
     <use x="195.410156" xlink:href="#DejaVuSans-32"/>
     <use x="227.197266" xlink:href="#DejaVuSans-49"/>
     <use x="290.820312" xlink:href="#DejaVuSans-57"/>
     <use x="354.443359" xlink:href="#DejaVuSans-32"/>
     <use x="386.230469" xlink:href="#DejaVuSans-115"/>
     <use x="438.330078" xlink:href="#DejaVuSans-105"/>
     <use x="466.113281" xlink:href="#DejaVuSans-110"/>
     <use x="529.492188" xlink:href="#DejaVuSans-103"/>
     <use x="592.96875" xlink:href="#DejaVuSans-117"/>
     <use x="656.347656" xlink:href="#DejaVuSans-108"/>
     <use x="684.130859" xlink:href="#DejaVuSans-97"/>
     <use x="745.410156" xlink:href="#DejaVuSans-114"/>
     <use x="786.523438" xlink:href="#DejaVuSans-32"/>
     <use x="818.310547" xlink:href="#DejaVuSans-118"/>
     <use x="877.490234" xlink:href="#DejaVuSans-97"/>
     <use x="938.769531" xlink:href="#DejaVuSans-108"/>
     <use x="966.552734" xlink:href="#DejaVuSans-117"/>
     <use x="1029.931641" xlink:href="#DejaVuSans-101"/>
     <use x="1091.455078" xlink:href="#DejaVuSans-115"/>
     <use x="1143.554688" xlink:href="#DejaVuSans-32"/>
     <use x="1175.341797" xlink:href="#DejaVuSans-121"/>
     <use x="1234.521484" xlink:href="#DejaVuSans-105"/>
     <use x="1262.304688" xlink:href="#DejaVuSans-101"/>
     <use x="1323.828125" xlink:href="#DejaVuSans-108"/>
     <use x="1351.611328" xlink:href="#DejaVuSans-100"/>
     <use x="1415.087891" xlink:href="#DejaVuSans-32"/>
     <use x="1446.875" xlink:href="#DejaVuSans-57"/>
     <use x="1510.498047" xlink:href="#DejaVuSans-57"/>
     <use x="1574.121094" xlink:href="#DejaVuSans-46"/>
     <use x="1605.908203" xlink:href="#DejaVuSans-49"/>
     <use x="1669.53125" xlink:href="#DejaVuSans-50"/>
     <use x="1733.154297" xlink:href="#DejaVuSans-37"/>
    </g>
   </g>
   <g id="text_19">
    <!-- cumulative contribution in % -->
    <g transform="translate(114.079375 134.921761)scale(0.12 -0.12)">
     <defs>
      <path d="M 52 44.1875 
Q 55.375 50.25 60.0625 53.125 
Q 64.75 56 71.09375 56 
Q 79.640625 56 84.28125 50.015625 
Q 88.921875 44.046875 88.921875 33.015625 
L 88.921875 0 
L 79.890625 0 
L 79.890625 32.71875 
Q 79.890625 40.578125 77.09375 44.375 
Q 74.3125 48.1875 68.609375 48.1875 
Q 61.625 48.1875 57.5625 43.546875 
Q 53.515625 38.921875 53.515625 30.90625 
L 53.515625 0 
L 44.484375 0 
L 44.484375 32.71875 
Q 44.484375 40.625 41.703125 44.40625 
Q 38.921875 48.1875 33.109375 48.1875 
Q 26.21875 48.1875 22.15625 43.53125 
Q 18.109375 38.875 18.109375 30.90625 
L 18.109375 0 
L 9.078125 0 
L 9.078125 54.6875 
L 18.109375 54.6875 
L 18.109375 46.1875 
Q 21.1875 51.21875 25.484375 53.609375 
Q 29.78125 56 35.6875 56 
Q 41.65625 56 45.828125 52.96875 
Q 50 49.953125 52 44.1875 
z
" id="DejaVuSans-109"/>
     </defs>
     <use xlink:href="#DejaVuSans-99"/>
     <use x="54.980469" xlink:href="#DejaVuSans-117"/>
     <use x="118.359375" xlink:href="#DejaVuSans-109"/>
     <use x="215.771484" xlink:href="#DejaVuSans-117"/>
     <use x="279.150391" xlink:href="#DejaVuSans-108"/>
     <use x="306.933594" xlink:href="#DejaVuSans-97"/>
     <use x="368.212891" xlink:href="#DejaVuSans-116"/>
     <use x="407.421875" xlink:href="#DejaVuSans-105"/>
     <use x="435.205078" xlink:href="#DejaVuSans-118"/>
     <use x="494.384766" xlink:href="#DejaVuSans-101"/>
     <use x="555.908203" xlink:href="#DejaVuSans-32"/>
     <use x="587.695312" xlink:href="#DejaVuSans-99"/>
     <use x="642.675781" xlink:href="#DejaVuSans-111"/>
     <use x="703.857422" xlink:href="#DejaVuSans-110"/>
     <use x="767.236328" xlink:href="#DejaVuSans-116"/>
     <use x="806.445312" xlink:href="#DejaVuSans-114"/>
     <use x="847.558594" xlink:href="#DejaVuSans-105"/>
     <use x="875.341797" xlink:href="#DejaVuSans-98"/>
     <use x="938.818359" xlink:href="#DejaVuSans-117"/>
     <use x="1002.197266" xlink:href="#DejaVuSans-116"/>
     <use x="1041.40625" xlink:href="#DejaVuSans-105"/>
     <use x="1069.189453" xlink:href="#DejaVuSans-111"/>
     <use x="1130.371094" xlink:href="#DejaVuSans-110"/>
     <use x="1193.75" xlink:href="#DejaVuSans-32"/>
     <use x="1225.537109" xlink:href="#DejaVuSans-105"/>
     <use x="1253.320312" xlink:href="#DejaVuSans-110"/>
     <use x="1316.699219" xlink:href="#DejaVuSans-32"/>
     <use x="1348.486328" xlink:href="#DejaVuSans-37"/>
    </g>
   </g>
  </g>
 </g>
 <defs>
  <clipPath id="p18e00866dd">
   <rect height="98.836364" width="334.8" x="33.2875" y="22.318125"/>
  </clipPath>
  <clipPath id="pc772b558f8">
   <rect height="98.836364" width="334.8" x="33.2875" y="140.921761"/>
  </clipPath>
 </defs>
</svg>
