<?xml version="1.0" encoding="utf-8" standalone="no"?>
<!DOCTYPE svg PUBLIC "-//W3C//DTD SVG 1.1//EN"
  "http://www.w3.org/Graphics/SVG/1.1/DTD/svg11.dtd">
<!-- Created with matplotlib (https://matplotlib.org/) -->
<svg height="277.314375pt" version="1.1" viewBox="0 0 390.029687 277.314375" width="390.029687pt" xmlns="http://www.w3.org/2000/svg" xmlns:xlink="http://www.w3.org/1999/xlink">
 <metadata>
  <rdf:RDF xmlns:cc="http://creativecommons.org/ns#" xmlns:dc="http://purl.org/dc/elements/1.1/" xmlns:rdf="http://www.w3.org/1999/02/22-rdf-syntax-ns#">
   <cc:Work>
    <dc:type rdf:resource="http://purl.org/dc/dcmitype/StillImage"/>
    <dc:date>2021-07-30T16:39:49.083512</dc:date>
    <dc:format>image/svg+xml</dc:format>
    <dc:creator>
     <cc:Agent>
      <dc:title>Matplotlib v3.3.3, https://matplotlib.org/</dc:title>
     </cc:Agent>
    </dc:creator>
   </cc:Work>
  </rdf:RDF>
 </metadata>
 <defs>
  <style type="text/css">*{stroke-linecap:butt;stroke-linejoin:round;}</style>
 </defs>
 <g id="figure_1">
  <g id="patch_1">
   <path d="M 0 277.314375 
L 390.029687 277.314375 
L 390.029687 0 
L 0 0 
z
" style="fill:none;"/>
  </g>
  <g id="axes_1">
   <g id="patch_2">
    <path d="M 41.667188 121.154489 
L 193.849006 121.154489 
L 193.849006 22.318125 
L 41.667188 22.318125 
z
" style="fill:#ffffff;"/>
   </g>
   <g id="matplotlib.axis_1">
    <g id="xtick_1">
     <g id="line2d_1">
      <path clip-path="url(#p486932b108)" d="M 41.667188 121.154489 
L 41.667188 22.318125 
" style="fill:none;stroke:#b0b0b0;stroke-linecap:square;stroke-width:0.8;"/>
     </g>
     <g id="line2d_2">
      <defs>
       <path d="M 0 0 
L 0 3.5 
" id="mfcadd30402" style="stroke:#000000;stroke-width:0.8;"/>
      </defs>
      <g>
       <use style="stroke:#000000;stroke-width:0.8;" x="41.667188" xlink:href="#mfcadd30402" y="121.154489"/>
      </g>
     </g>
    </g>
    <g id="xtick_2">
     <g id="line2d_3">
      <path clip-path="url(#p486932b108)" d="M 92.39446 121.154489 
L 92.39446 22.318125 
" style="fill:none;stroke:#b0b0b0;stroke-linecap:square;stroke-width:0.8;"/>
     </g>
     <g id="line2d_4">
      <g>
       <use style="stroke:#000000;stroke-width:0.8;" x="92.39446" xlink:href="#mfcadd30402" y="121.154489"/>
      </g>
     </g>
    </g>
    <g id="xtick_3">
     <g id="line2d_5">
      <path clip-path="url(#p486932b108)" d="M 143.121733 121.154489 
L 143.121733 22.318125 
" style="fill:none;stroke:#b0b0b0;stroke-linecap:square;stroke-width:0.8;"/>
     </g>
     <g id="line2d_6">
      <g>
       <use style="stroke:#000000;stroke-width:0.8;" x="143.121733" xlink:href="#mfcadd30402" y="121.154489"/>
      </g>
     </g>
    </g>
    <g id="xtick_4">
     <g id="line2d_7">
      <path clip-path="url(#p486932b108)" d="M 193.849006 121.154489 
L 193.849006 22.318125 
" style="fill:none;stroke:#b0b0b0;stroke-linecap:square;stroke-width:0.8;"/>
     </g>
     <g id="line2d_8">
      <g>
       <use style="stroke:#000000;stroke-width:0.8;" x="193.849006" xlink:href="#mfcadd30402" y="121.154489"/>
      </g>
     </g>
    </g>
   </g>
   <g id="matplotlib.axis_2">
    <g id="ytick_1">
     <g id="line2d_9">
      <path clip-path="url(#p486932b108)" d="M 41.667188 98.512863 
L 193.849006 98.512863 
" style="fill:none;stroke:#b0b0b0;stroke-linecap:square;stroke-width:0.8;"/>
     </g>
     <g id="line2d_10">
      <defs>
       <path d="M 0 0 
L -3.5 0 
" id="mae41ab24e9" style="stroke:#000000;stroke-width:0.8;"/>
      </defs>
      <g>
       <use style="stroke:#000000;stroke-width:0.8;" x="41.667188" xlink:href="#mae41ab24e9" y="98.512863"/>
      </g>
     </g>
     <g id="text_1">
      <!-- −500 -->
      <g transform="translate(7.2 102.312081)scale(0.1 -0.1)">
       <defs>
        <path d="M 10.59375 35.5 
L 73.1875 35.5 
L 73.1875 27.203125 
L 10.59375 27.203125 
z
" id="DejaVuSans-8722"/>
        <path d="M 10.796875 72.90625 
L 49.515625 72.90625 
L 49.515625 64.59375 
L 19.828125 64.59375 
L 19.828125 46.734375 
Q 21.96875 47.46875 24.109375 47.828125 
Q 26.265625 48.1875 28.421875 48.1875 
Q 40.625 48.1875 47.75 41.5 
Q 54.890625 34.8125 54.890625 23.390625 
Q 54.890625 11.625 47.5625 5.09375 
Q 40.234375 -1.421875 26.90625 -1.421875 
Q 22.3125 -1.421875 17.546875 -0.640625 
Q 12.796875 0.140625 7.71875 1.703125 
L 7.71875 11.625 
Q 12.109375 9.234375 16.796875 8.0625 
Q 21.484375 6.890625 26.703125 6.890625 
Q 35.15625 6.890625 40.078125 11.328125 
Q 45.015625 15.765625 45.015625 23.390625 
Q 45.015625 31 40.078125 35.4375 
Q 35.15625 39.890625 26.703125 39.890625 
Q 22.75 39.890625 18.8125 39.015625 
Q 14.890625 38.140625 10.796875 36.28125 
z
" id="DejaVuSans-53"/>
        <path d="M 31.78125 66.40625 
Q 24.171875 66.40625 20.328125 58.90625 
Q 16.5 51.421875 16.5 36.375 
Q 16.5 21.390625 20.328125 13.890625 
Q 24.171875 6.390625 31.78125 6.390625 
Q 39.453125 6.390625 43.28125 13.890625 
Q 47.125 21.390625 47.125 36.375 
Q 47.125 51.421875 43.28125 58.90625 
Q 39.453125 66.40625 31.78125 66.40625 
z
M 31.78125 74.21875 
Q 44.046875 74.21875 50.515625 64.515625 
Q 56.984375 54.828125 56.984375 36.375 
Q 56.984375 17.96875 50.515625 8.265625 
Q 44.046875 -1.421875 31.78125 -1.421875 
Q 19.53125 -1.421875 13.0625 8.265625 
Q 6.59375 17.96875 6.59375 36.375 
Q 6.59375 54.828125 13.0625 64.515625 
Q 19.53125 74.21875 31.78125 74.21875 
z
" id="DejaVuSans-48"/>
       </defs>
       <use xlink:href="#DejaVuSans-8722"/>
       <use x="83.789062" xlink:href="#DejaVuSans-53"/>
       <use x="147.412109" xlink:href="#DejaVuSans-48"/>
       <use x="211.035156" xlink:href="#DejaVuSans-48"/>
      </g>
     </g>
    </g>
    <g id="ytick_2">
     <g id="line2d_11">
      <path clip-path="url(#p486932b108)" d="M 41.667188 71.719536 
L 193.849006 71.719536 
" style="fill:none;stroke:#b0b0b0;stroke-linecap:square;stroke-width:0.8;"/>
     </g>
     <g id="line2d_12">
      <g>
       <use style="stroke:#000000;stroke-width:0.8;" x="41.667188" xlink:href="#mae41ab24e9" y="71.719536"/>
      </g>
     </g>
     <g id="text_2">
      <!-- 0 -->
      <g transform="translate(28.304688 75.518755)scale(0.1 -0.1)">
       <use xlink:href="#DejaVuSans-48"/>
      </g>
     </g>
    </g>
    <g id="ytick_3">
     <g id="line2d_13">
      <path clip-path="url(#p486932b108)" d="M 41.667188 44.92621 
L 193.849006 44.92621 
" style="fill:none;stroke:#b0b0b0;stroke-linecap:square;stroke-width:0.8;"/>
     </g>
     <g id="line2d_14">
      <g>
       <use style="stroke:#000000;stroke-width:0.8;" x="41.667188" xlink:href="#mae41ab24e9" y="44.92621"/>
      </g>
     </g>
     <g id="text_3">
      <!-- 500 -->
      <g transform="translate(15.579688 48.725429)scale(0.1 -0.1)">
       <use xlink:href="#DejaVuSans-53"/>
       <use x="63.623047" xlink:href="#DejaVuSans-48"/>
       <use x="127.246094" xlink:href="#DejaVuSans-48"/>
      </g>
     </g>
    </g>
   </g>
   <g id="line2d_15">
    <path clip-path="url(#p486932b108)" d="M 41.667188 67.213575 
L 42.301278 47.531825 
L 42.935369 33.033084 
L 43.56946 27.008523 
L 44.203551 30.930266 
L 44.837642 43.482403 
L 46.739915 101.493486 
L 47.374006 113.536671 
L 48.008097 116.279602 
L 48.642188 109.332552 
L 49.276278 94.371238 
L 51.178551 36.914388 
L 51.812642 27.809792 
L 52.446733 28.545646 
L 53.080824 38.524764 
L 53.714915 55.685709 
L 54.983097 96.097988 
L 55.617187 110.581297 
L 56.251278 116.552448 
L 56.885369 112.612798 
L 57.51946 100.020278 
L 59.421733 41.620901 
L 60.055824 29.711379 
L 60.689915 27.174127 
L 61.324006 34.353522 
L 61.958097 49.471859 
L 63.860369 106.682776 
L 64.49446 115.729998 
L 65.128551 114.958915 
L 65.762642 104.965609 
L 66.396733 87.691827 
L 67.664915 47.009576 
L 68.299006 32.644855 
L 68.933097 26.861297 
L 69.567187 31.03496 
L 70.201278 43.816184 
L 72.103551 101.973846 
L 72.737642 113.8311 
L 73.371733 116.314539 
L 74.005824 109.124694 
L 74.639915 93.943924 
L 75.908097 52.957529 
L 76.542188 36.509681 
L 77.176278 27.632708 
L 77.810369 28.631534 
L 78.44446 38.83885 
L 79.078551 56.186328 
L 80.346733 96.59346 
L 80.980824 110.911151 
L 81.614915 116.62816 
L 82.249006 112.434066 
L 82.883097 99.623638 
L 84.785369 41.181575 
L 85.41946 29.478497 
L 86.053551 27.208593 
L 86.687642 34.628301 
L 87.321733 49.941853 
L 88.589915 90.669851 
L 89.224006 107.0615 
L 89.858097 115.869564 
L 90.492188 114.833197 
L 91.126278 104.613146 
L 91.760369 87.1669 
L 93.028551 46.531381 
L 93.662642 32.347257 
L 94.296733 26.82513 
L 94.930824 31.254261 
L 95.564915 44.243497 
L 97.467187 102.402366 
L 98.101278 114.044112 
L 98.735369 116.258395 
L 99.36946 108.82794 
L 100.003551 93.455879 
L 101.271733 52.442338 
L 101.905824 36.14823 
L 102.539915 27.516334 
L 103.174006 28.782633 
L 103.808097 39.212929 
L 104.442187 56.719202 
L 105.710369 97.066808 
L 106.34446 111.198335 
L 106.978551 116.652121 
L 107.612642 112.202709 
L 108.246733 99.184446 
L 110.149006 40.762504 
L 110.783097 29.279516 
L 111.417188 27.28134 
L 112.051278 34.940555 
L 112.685369 50.437405 
L 113.953551 91.18131 
L 114.587642 107.417608 
L 115.221733 115.978488 
L 115.855824 114.675407 
L 116.489915 104.231969 
L 117.124006 86.626366 
L 118.392188 46.062698 
L 119.026278 32.069051 
L 119.660369 26.812718 
L 120.29446 31.497331 
L 120.928551 44.68988 
L 122.830824 102.818673 
L 123.464915 114.238122 
L 124.099006 116.181547 
L 124.733097 108.511905 
L 125.367188 92.954772 
L 126.635369 51.932042 
L 127.26946 35.79833 
L 127.903551 27.415826 
L 128.537642 28.949839 
L 129.171733 39.6012 
L 129.805824 57.259498 
L 131.074006 97.53343 
L 131.708097 111.473117 
L 132.342187 116.661315 
L 132.976278 111.957376 
L 133.610369 98.734204 
L 135.512642 40.35074 
L 136.146733 29.092175 
L 136.780824 27.366524 
L 137.414915 35.26386 
L 138.049006 50.940306 
L 139.317187 91.688741 
L 139.951278 107.765316 
L 140.585369 116.076199 
L 141.21946 114.506735 
L 141.853551 103.841526 
L 142.487642 86.081001 
L 143.755824 45.5989 
L 144.389915 31.799613 
L 145.024006 26.810687 
L 145.658097 31.749751 
L 146.292187 45.143464 
L 148.19446 103.229077 
L 148.828551 114.423016 
L 149.462642 116.095142 
L 150.096733 108.187569 
L 150.730824 92.448066 
L 151.999006 51.425131 
L 152.633097 35.455123 
L 153.267188 27.324277 
L 153.901278 29.125415 
L 154.535369 39.996202 
L 155.16946 57.803136 
L 156.437642 97.995619 
L 157.071733 111.740308 
L 157.705824 116.661927 
L 158.339915 111.704674 
L 158.974006 98.278416 
L 160.876278 39.9441 
L 161.510369 28.912475 
L 162.14446 27.459385 
L 162.778551 35.593501 
L 163.412642 51.447242 
L 164.680824 92.192864 
L 165.314915 108.106797 
L 165.949006 116.165881 
L 166.583097 114.330855 
L 167.217187 103.445366 
L 167.851278 85.532858 
L 169.11946 45.139314 
L 169.753551 31.537096 
L 170.387642 26.816384 
L 171.021733 32.008609 
L 171.655824 45.601764 
L 173.558097 103.63444 
L 174.192187 114.600466 
L 174.826278 116.001408 
L 175.460369 107.857254 
L 176.09446 91.937516 
L 177.362642 50.921636 
L 177.996733 35.117969 
L 178.630824 27.240515 
L 179.264915 29.307948 
L 179.899006 40.396604 
L 181.167187 79.331754 
L 181.801278 98.453842 
L 182.435369 112.000807 
L 183.06946 116.655016 
L 183.703551 111.445565 
L 184.337642 97.817798 
L 186.239915 39.542465 
L 186.874006 28.740196 
L 187.508097 27.559641 
L 188.142188 35.929102 
L 188.776278 51.958003 
L 190.04446 92.693875 
L 190.678551 108.442384 
L 191.312642 116.248001 
L 191.946733 114.148129 
L 192.580824 103.043699 
L 193.849006 63.820352 
L 193.849006 63.820352 
" style="fill:none;stroke:#1f77b4;stroke-linecap:square;"/>
   </g>
   <g id="patch_3">
    <path d="M 41.667188 121.154489 
L 41.667188 22.318125 
" style="fill:none;stroke:#000000;stroke-linecap:square;stroke-linejoin:miter;stroke-width:0.8;"/>
   </g>
   <g id="patch_4">
    <path d="M 193.849006 121.154489 
L 193.849006 22.318125 
" style="fill:none;stroke:#000000;stroke-linecap:square;stroke-linejoin:miter;stroke-width:0.8;"/>
   </g>
   <g id="patch_5">
    <path d="M 41.667188 121.154489 
L 193.849006 121.154489 
" style="fill:none;stroke:#000000;stroke-linecap:square;stroke-linejoin:miter;stroke-width:0.8;"/>
   </g>
   <g id="patch_6">
    <path d="M 41.667188 22.318125 
L 193.849006 22.318125 
" style="fill:none;stroke:#000000;stroke-linecap:square;stroke-linejoin:miter;stroke-width:0.8;"/>
   </g>
   <g id="text_4">
    <!-- mode coeff. 1 -->
    <g transform="translate(76.751847 16.318125)scale(0.12 -0.12)">
     <defs>
      <path d="M 52 44.1875 
Q 55.375 50.25 60.0625 53.125 
Q 64.75 56 71.09375 56 
Q 79.640625 56 84.28125 50.015625 
Q 88.921875 44.046875 88.921875 33.015625 
L 88.921875 0 
L 79.890625 0 
L 79.890625 32.71875 
Q 79.890625 40.578125 77.09375 44.375 
Q 74.3125 48.1875 68.609375 48.1875 
Q 61.625 48.1875 57.5625 43.546875 
Q 53.515625 38.921875 53.515625 30.90625 
L 53.515625 0 
L 44.484375 0 
L 44.484375 32.71875 
Q 44.484375 40.625 41.703125 44.40625 
Q 38.921875 48.1875 33.109375 48.1875 
Q 26.21875 48.1875 22.15625 43.53125 
Q 18.109375 38.875 18.109375 30.90625 
L 18.109375 0 
L 9.078125 0 
L 9.078125 54.6875 
L 18.109375 54.6875 
L 18.109375 46.1875 
Q 21.1875 51.21875 25.484375 53.609375 
Q 29.78125 56 35.6875 56 
Q 41.65625 56 45.828125 52.96875 
Q 50 49.953125 52 44.1875 
z
" id="DejaVuSans-109"/>
      <path d="M 30.609375 48.390625 
Q 23.390625 48.390625 19.1875 42.75 
Q 14.984375 37.109375 14.984375 27.296875 
Q 14.984375 17.484375 19.15625 11.84375 
Q 23.34375 6.203125 30.609375 6.203125 
Q 37.796875 6.203125 41.984375 11.859375 
Q 46.1875 17.53125 46.1875 27.296875 
Q 46.1875 37.015625 41.984375 42.703125 
Q 37.796875 48.390625 30.609375 48.390625 
z
M 30.609375 56 
Q 42.328125 56 49.015625 48.375 
Q 55.71875 40.765625 55.71875 27.296875 
Q 55.71875 13.875 49.015625 6.21875 
Q 42.328125 -1.421875 30.609375 -1.421875 
Q 18.84375 -1.421875 12.171875 6.21875 
Q 5.515625 13.875 5.515625 27.296875 
Q 5.515625 40.765625 12.171875 48.375 
Q 18.84375 56 30.609375 56 
z
" id="DejaVuSans-111"/>
      <path d="M 45.40625 46.390625 
L 45.40625 75.984375 
L 54.390625 75.984375 
L 54.390625 0 
L 45.40625 0 
L 45.40625 8.203125 
Q 42.578125 3.328125 38.25 0.953125 
Q 33.9375 -1.421875 27.875 -1.421875 
Q 17.96875 -1.421875 11.734375 6.484375 
Q 5.515625 14.40625 5.515625 27.296875 
Q 5.515625 40.1875 11.734375 48.09375 
Q 17.96875 56 27.875 56 
Q 33.9375 56 38.25 53.625 
Q 42.578125 51.265625 45.40625 46.390625 
z
M 14.796875 27.296875 
Q 14.796875 17.390625 18.875 11.75 
Q 22.953125 6.109375 30.078125 6.109375 
Q 37.203125 6.109375 41.296875 11.75 
Q 45.40625 17.390625 45.40625 27.296875 
Q 45.40625 37.203125 41.296875 42.84375 
Q 37.203125 48.484375 30.078125 48.484375 
Q 22.953125 48.484375 18.875 42.84375 
Q 14.796875 37.203125 14.796875 27.296875 
z
" id="DejaVuSans-100"/>
      <path d="M 56.203125 29.59375 
L 56.203125 25.203125 
L 14.890625 25.203125 
Q 15.484375 15.921875 20.484375 11.0625 
Q 25.484375 6.203125 34.421875 6.203125 
Q 39.59375 6.203125 44.453125 7.46875 
Q 49.3125 8.734375 54.109375 11.28125 
L 54.109375 2.78125 
Q 49.265625 0.734375 44.1875 -0.34375 
Q 39.109375 -1.421875 33.890625 -1.421875 
Q 20.796875 -1.421875 13.15625 6.1875 
Q 5.515625 13.8125 5.515625 26.8125 
Q 5.515625 40.234375 12.765625 48.109375 
Q 20.015625 56 32.328125 56 
Q 43.359375 56 49.78125 48.890625 
Q 56.203125 41.796875 56.203125 29.59375 
z
M 47.21875 32.234375 
Q 47.125 39.59375 43.09375 43.984375 
Q 39.0625 48.390625 32.421875 48.390625 
Q 24.90625 48.390625 20.390625 44.140625 
Q 15.875 39.890625 15.1875 32.171875 
z
" id="DejaVuSans-101"/>
      <path id="DejaVuSans-32"/>
      <path d="M 48.78125 52.59375 
L 48.78125 44.1875 
Q 44.96875 46.296875 41.140625 47.34375 
Q 37.3125 48.390625 33.40625 48.390625 
Q 24.65625 48.390625 19.8125 42.84375 
Q 14.984375 37.3125 14.984375 27.296875 
Q 14.984375 17.28125 19.8125 11.734375 
Q 24.65625 6.203125 33.40625 6.203125 
Q 37.3125 6.203125 41.140625 7.25 
Q 44.96875 8.296875 48.78125 10.40625 
L 48.78125 2.09375 
Q 45.015625 0.34375 40.984375 -0.53125 
Q 36.96875 -1.421875 32.421875 -1.421875 
Q 20.0625 -1.421875 12.78125 6.34375 
Q 5.515625 14.109375 5.515625 27.296875 
Q 5.515625 40.671875 12.859375 48.328125 
Q 20.21875 56 33.015625 56 
Q 37.15625 56 41.109375 55.140625 
Q 45.0625 54.296875 48.78125 52.59375 
z
" id="DejaVuSans-99"/>
      <path d="M 37.109375 75.984375 
L 37.109375 68.5 
L 28.515625 68.5 
Q 23.6875 68.5 21.796875 66.546875 
Q 19.921875 64.59375 19.921875 59.515625 
L 19.921875 54.6875 
L 34.71875 54.6875 
L 34.71875 47.703125 
L 19.921875 47.703125 
L 19.921875 0 
L 10.890625 0 
L 10.890625 47.703125 
L 2.296875 47.703125 
L 2.296875 54.6875 
L 10.890625 54.6875 
L 10.890625 58.5 
Q 10.890625 67.625 15.140625 71.796875 
Q 19.390625 75.984375 28.609375 75.984375 
z
" id="DejaVuSans-102"/>
      <path d="M 10.6875 12.40625 
L 21 12.40625 
L 21 0 
L 10.6875 0 
z
" id="DejaVuSans-46"/>
      <path d="M 12.40625 8.296875 
L 28.515625 8.296875 
L 28.515625 63.921875 
L 10.984375 60.40625 
L 10.984375 69.390625 
L 28.421875 72.90625 
L 38.28125 72.90625 
L 38.28125 8.296875 
L 54.390625 8.296875 
L 54.390625 0 
L 12.40625 0 
z
" id="DejaVuSans-49"/>
     </defs>
     <use xlink:href="#DejaVuSans-109"/>
     <use x="97.412109" xlink:href="#DejaVuSans-111"/>
     <use x="158.59375" xlink:href="#DejaVuSans-100"/>
     <use x="222.070312" xlink:href="#DejaVuSans-101"/>
     <use x="283.59375" xlink:href="#DejaVuSans-32"/>
     <use x="315.380859" xlink:href="#DejaVuSans-99"/>
     <use x="370.361328" xlink:href="#DejaVuSans-111"/>
     <use x="431.542969" xlink:href="#DejaVuSans-101"/>
     <use x="493.066406" xlink:href="#DejaVuSans-102"/>
     <use x="528.271484" xlink:href="#DejaVuSans-102"/>
     <use x="556.226562" xlink:href="#DejaVuSans-46"/>
     <use x="588.013672" xlink:href="#DejaVuSans-32"/>
     <use x="619.800781" xlink:href="#DejaVuSans-49"/>
    </g>
   </g>
  </g>
  <g id="axes_2">
   <g id="patch_7">
    <path d="M 224.285369 121.154489 
L 376.467187 121.154489 
L 376.467187 22.318125 
L 224.285369 22.318125 
z
" style="fill:#ffffff;"/>
   </g>
   <g id="matplotlib.axis_3">
    <g id="xtick_5">
     <g id="line2d_16">
      <path clip-path="url(#p24561ea8c6)" d="M 224.285369 121.154489 
L 224.285369 22.318125 
" style="fill:none;stroke:#b0b0b0;stroke-linecap:square;stroke-width:0.8;"/>
     </g>
     <g id="line2d_17">
      <g>
       <use style="stroke:#000000;stroke-width:0.8;" x="224.285369" xlink:href="#mfcadd30402" y="121.154489"/>
      </g>
     </g>
    </g>
    <g id="xtick_6">
     <g id="line2d_18">
      <path clip-path="url(#p24561ea8c6)" d="M 275.012642 121.154489 
L 275.012642 22.318125 
" style="fill:none;stroke:#b0b0b0;stroke-linecap:square;stroke-width:0.8;"/>
     </g>
     <g id="line2d_19">
      <g>
       <use style="stroke:#000000;stroke-width:0.8;" x="275.012642" xlink:href="#mfcadd30402" y="121.154489"/>
      </g>
     </g>
    </g>
    <g id="xtick_7">
     <g id="line2d_20">
      <path clip-path="url(#p24561ea8c6)" d="M 325.739915 121.154489 
L 325.739915 22.318125 
" style="fill:none;stroke:#b0b0b0;stroke-linecap:square;stroke-width:0.8;"/>
     </g>
     <g id="line2d_21">
      <g>
       <use style="stroke:#000000;stroke-width:0.8;" x="325.739915" xlink:href="#mfcadd30402" y="121.154489"/>
      </g>
     </g>
    </g>
    <g id="xtick_8">
     <g id="line2d_22">
      <path clip-path="url(#p24561ea8c6)" d="M 376.467187 121.154489 
L 376.467187 22.318125 
" style="fill:none;stroke:#b0b0b0;stroke-linecap:square;stroke-width:0.8;"/>
     </g>
     <g id="line2d_23">
      <g>
       <use style="stroke:#000000;stroke-width:0.8;" x="376.467187" xlink:href="#mfcadd30402" y="121.154489"/>
      </g>
     </g>
    </g>
   </g>
   <g id="matplotlib.axis_4">
    <g id="ytick_4">
     <g id="line2d_24">
      <path clip-path="url(#p24561ea8c6)" d="M 224.285369 98.512863 
L 376.467187 98.512863 
" style="fill:none;stroke:#b0b0b0;stroke-linecap:square;stroke-width:0.8;"/>
     </g>
     <g id="line2d_25">
      <g>
       <use style="stroke:#000000;stroke-width:0.8;" x="224.285369" xlink:href="#mae41ab24e9" y="98.512863"/>
      </g>
     </g>
    </g>
    <g id="ytick_5">
     <g id="line2d_26">
      <path clip-path="url(#p24561ea8c6)" d="M 224.285369 71.719536 
L 376.467187 71.719536 
" style="fill:none;stroke:#b0b0b0;stroke-linecap:square;stroke-width:0.8;"/>
     </g>
     <g id="line2d_27">
      <g>
       <use style="stroke:#000000;stroke-width:0.8;" x="224.285369" xlink:href="#mae41ab24e9" y="71.719536"/>
      </g>
     </g>
    </g>
    <g id="ytick_6">
     <g id="line2d_28">
      <path clip-path="url(#p24561ea8c6)" d="M 224.285369 44.92621 
L 376.467187 44.92621 
" style="fill:none;stroke:#b0b0b0;stroke-linecap:square;stroke-width:0.8;"/>
     </g>
     <g id="line2d_29">
      <g>
       <use style="stroke:#000000;stroke-width:0.8;" x="224.285369" xlink:href="#mae41ab24e9" y="44.92621"/>
      </g>
     </g>
    </g>
   </g>
   <g id="line2d_30">
    <path clip-path="url(#p24561ea8c6)" d="M 224.285369 30.707468 
L 224.91946 36.904337 
L 225.553551 50.256385 
L 227.455824 105.307018 
L 228.089915 112.863875 
L 228.724006 111.691797 
L 229.358097 103.49527 
L 229.992187 87.753465 
L 231.260369 48.332418 
L 231.89446 34.68837 
L 232.528551 30.111342 
L 233.162642 34.041739 
L 233.796733 44.934985 
L 235.699006 100.939827 
L 236.333097 111.484391 
L 236.967187 112.960412 
L 237.601278 107.085187 
L 238.235369 93.690314 
L 240.137642 38.222538 
L 240.771733 30.494544 
L 241.405824 31.947791 
L 242.039915 40.470917 
L 242.674006 56.382882 
L 243.942187 95.774872 
L 244.576278 109.067425 
L 245.210369 113.437305 
L 245.84446 109.795244 
L 246.478551 98.945005 
L 248.380824 42.677857 
L 249.014915 31.917854 
L 249.649006 30.585995 
L 250.283097 36.883028 
L 250.917187 50.448201 
L 252.81946 105.652287 
L 253.453551 113.041959 
L 254.087642 111.736082 
L 254.721733 103.384646 
L 255.355824 87.433191 
L 256.624006 47.909489 
L 257.258097 34.395298 
L 257.892187 30.024277 
L 258.526278 34.096117 
L 259.160369 45.178735 
L 261.062642 101.326044 
L 261.696733 111.685694 
L 262.330824 112.971937 
L 262.964915 106.946013 
L 263.599006 93.339769 
L 265.501278 37.881639 
L 266.135369 30.377549 
L 266.76946 32.018934 
L 267.403551 40.714301 
L 268.037642 56.819353 
L 269.305824 96.212859 
L 269.939915 109.324192 
L 270.574006 113.470064 
L 271.208097 109.664528 
L 271.842187 98.606872 
L 273.74446 42.27911 
L 274.378551 31.739262 
L 275.012642 30.63429 
L 275.646733 37.098791 
L 276.280824 50.870077 
L 277.549006 90.457771 
L 278.183097 105.975929 
L 278.817187 113.128707 
L 279.451278 111.633138 
L 280.085369 103.08766 
L 280.71946 86.952291 
L 281.987642 47.45581 
L 282.621733 34.142587 
L 283.255824 30.020902 
L 283.889915 34.273973 
L 284.524006 45.559497 
L 286.426278 101.715964 
L 287.060369 111.84443 
L 287.69446 112.911129 
L 288.328551 106.704229 
L 288.962642 92.890956 
L 290.864915 37.553722 
L 291.499006 30.302902 
L 292.133097 32.152875 
L 292.767187 41.037044 
L 293.401278 57.323108 
L 294.66946 96.661512 
L 295.303551 109.561574 
L 295.937642 113.46591 
L 296.571733 109.479261 
L 297.205824 98.208975 
L 299.108097 41.882561 
L 299.742187 31.583029 
L 300.376278 30.715402 
L 301.010369 37.359215 
L 301.64446 51.334399 
L 302.912642 90.953851 
L 303.546733 106.290947 
L 304.180824 113.195007 
L 304.814915 111.501536 
L 305.449006 102.754463 
L 306.083097 86.442052 
L 307.351278 47.000767 
L 307.985369 33.902379 
L 308.61946 30.03647 
L 309.253551 34.476401 
L 309.887642 45.967474 
L 311.789915 102.101942 
L 312.424006 111.990233 
L 313.058097 112.833948 
L 313.692187 106.440224 
L 314.326278 92.422128 
L 315.59446 52.759672 
L 316.228551 37.233432 
L 316.862642 30.241289 
L 317.496733 32.301484 
L 318.130824 41.378148 
L 318.764915 57.840675 
L 320.033097 97.108025 
L 320.667187 109.790011 
L 321.301278 113.450737 
L 321.935369 109.280463 
L 322.56946 97.796651 
L 324.471733 41.490905 
L 325.105824 31.436546 
L 325.739915 30.806562 
L 326.374006 37.632107 
L 327.008097 51.809681 
L 328.276278 91.448887 
L 328.910369 106.599106 
L 329.54446 113.252234 
L 330.178551 111.36091 
L 330.812642 102.409826 
L 331.446733 85.924129 
L 332.714915 46.549097 
L 333.349006 33.670148 
L 333.983097 30.060572 
L 334.617187 34.687297 
L 335.251278 46.384823 
L 337.153551 102.482425 
L 337.787642 112.128052 
L 338.421733 112.749911 
L 339.055824 106.16761 
L 339.689915 91.946476 
L 340.958097 52.260895 
L 341.592187 36.919804 
L 342.226278 30.187506 
L 342.860369 32.456089 
L 343.49446 41.726897 
L 344.128551 58.362654 
L 345.396733 97.550267 
L 346.030824 110.011092 
L 346.664915 113.429154 
L 347.299006 109.075082 
L 347.933097 97.377664 
L 349.835369 41.104789 
L 350.46946 31.297781 
L 351.103551 30.903538 
L 351.737642 37.911333 
L 352.371733 52.289927 
L 353.639915 91.940521 
L 354.274006 106.900669 
L 354.908097 113.30271 
L 355.542187 111.215012 
L 356.176278 102.058625 
L 356.810369 85.402835 
L 358.078551 46.101815 
L 358.712642 33.445152 
L 359.346733 30.091103 
L 359.980824 34.903662 
L 360.614915 46.808113 
L 362.517187 102.857189 
L 363.151278 112.258837 
L 363.785369 112.66075 
L 364.41946 105.888625 
L 365.053551 91.466309 
L 366.321733 51.765269 
L 366.955824 36.612698 
L 367.589915 30.140631 
L 368.224006 32.615759 
L 368.858097 42.082124 
L 369.492187 58.887873 
L 370.760369 97.987824 
L 371.39446 110.225363 
L 372.028551 113.401766 
L 372.662642 108.864068 
L 373.296733 96.952984 
L 375.199006 40.724165 
L 375.833097 31.1663 
L 376.467187 31.00571 
L 376.467187 31.00571 
" style="fill:none;stroke:#1f77b4;stroke-linecap:square;"/>
   </g>
   <g id="patch_8">
    <path d="M 224.285369 121.154489 
L 224.285369 22.318125 
" style="fill:none;stroke:#000000;stroke-linecap:square;stroke-linejoin:miter;stroke-width:0.8;"/>
   </g>
   <g id="patch_9">
    <path d="M 376.467187 121.154489 
L 376.467187 22.318125 
" style="fill:none;stroke:#000000;stroke-linecap:square;stroke-linejoin:miter;stroke-width:0.8;"/>
   </g>
   <g id="patch_10">
    <path d="M 224.285369 121.154489 
L 376.467187 121.154489 
" style="fill:none;stroke:#000000;stroke-linecap:square;stroke-linejoin:miter;stroke-width:0.8;"/>
   </g>
   <g id="patch_11">
    <path d="M 224.285369 22.318125 
L 376.467187 22.318125 
" style="fill:none;stroke:#000000;stroke-linecap:square;stroke-linejoin:miter;stroke-width:0.8;"/>
   </g>
   <g id="text_5">
    <!-- mode coeff. 2 -->
    <g transform="translate(259.370028 16.318125)scale(0.12 -0.12)">
     <defs>
      <path d="M 19.1875 8.296875 
L 53.609375 8.296875 
L 53.609375 0 
L 7.328125 0 
L 7.328125 8.296875 
Q 12.9375 14.109375 22.625 23.890625 
Q 32.328125 33.6875 34.8125 36.53125 
Q 39.546875 41.84375 41.421875 45.53125 
Q 43.3125 49.21875 43.3125 52.78125 
Q 43.3125 58.59375 39.234375 62.25 
Q 35.15625 65.921875 28.609375 65.921875 
Q 23.96875 65.921875 18.8125 64.3125 
Q 13.671875 62.703125 7.8125 59.421875 
L 7.8125 69.390625 
Q 13.765625 71.78125 18.9375 73 
Q 24.125 74.21875 28.421875 74.21875 
Q 39.75 74.21875 46.484375 68.546875 
Q 53.21875 62.890625 53.21875 53.421875 
Q 53.21875 48.921875 51.53125 44.890625 
Q 49.859375 40.875 45.40625 35.40625 
Q 44.1875 33.984375 37.640625 27.21875 
Q 31.109375 20.453125 19.1875 8.296875 
z
" id="DejaVuSans-50"/>
     </defs>
     <use xlink:href="#DejaVuSans-109"/>
     <use x="97.412109" xlink:href="#DejaVuSans-111"/>
     <use x="158.59375" xlink:href="#DejaVuSans-100"/>
     <use x="222.070312" xlink:href="#DejaVuSans-101"/>
     <use x="283.59375" xlink:href="#DejaVuSans-32"/>
     <use x="315.380859" xlink:href="#DejaVuSans-99"/>
     <use x="370.361328" xlink:href="#DejaVuSans-111"/>
     <use x="431.542969" xlink:href="#DejaVuSans-101"/>
     <use x="493.066406" xlink:href="#DejaVuSans-102"/>
     <use x="528.271484" xlink:href="#DejaVuSans-102"/>
     <use x="556.226562" xlink:href="#DejaVuSans-46"/>
     <use x="588.013672" xlink:href="#DejaVuSans-32"/>
     <use x="619.800781" xlink:href="#DejaVuSans-50"/>
    </g>
   </g>
  </g>
  <g id="axes_3">
   <g id="patch_12">
    <path d="M 41.667188 239.758125 
L 193.849006 239.758125 
L 193.849006 140.921761 
L 41.667188 140.921761 
z
" style="fill:#ffffff;"/>
   </g>
   <g id="matplotlib.axis_5">
    <g id="xtick_9">
     <g id="line2d_31">
      <path clip-path="url(#pcca832f52a)" d="M 41.667188 239.758125 
L 41.667188 140.921761 
" style="fill:none;stroke:#b0b0b0;stroke-linecap:square;stroke-width:0.8;"/>
     </g>
     <g id="line2d_32">
      <g>
       <use style="stroke:#000000;stroke-width:0.8;" x="41.667188" xlink:href="#mfcadd30402" y="239.758125"/>
      </g>
     </g>
     <g id="text_6">
      <!-- 4 -->
      <g transform="translate(38.485938 254.356562)scale(0.1 -0.1)">
       <defs>
        <path d="M 37.796875 64.3125 
L 12.890625 25.390625 
L 37.796875 25.390625 
z
M 35.203125 72.90625 
L 47.609375 72.90625 
L 47.609375 25.390625 
L 58.015625 25.390625 
L 58.015625 17.1875 
L 47.609375 17.1875 
L 47.609375 0 
L 37.796875 0 
L 37.796875 17.1875 
L 4.890625 17.1875 
L 4.890625 26.703125 
z
" id="DejaVuSans-52"/>
       </defs>
       <use xlink:href="#DejaVuSans-52"/>
      </g>
     </g>
    </g>
    <g id="xtick_10">
     <g id="line2d_33">
      <path clip-path="url(#pcca832f52a)" d="M 92.39446 239.758125 
L 92.39446 140.921761 
" style="fill:none;stroke:#b0b0b0;stroke-linecap:square;stroke-width:0.8;"/>
     </g>
     <g id="line2d_34">
      <g>
       <use style="stroke:#000000;stroke-width:0.8;" x="92.39446" xlink:href="#mfcadd30402" y="239.758125"/>
      </g>
     </g>
     <g id="text_7">
      <!-- 6 -->
      <g transform="translate(89.21321 254.356562)scale(0.1 -0.1)">
       <defs>
        <path d="M 33.015625 40.375 
Q 26.375 40.375 22.484375 35.828125 
Q 18.609375 31.296875 18.609375 23.390625 
Q 18.609375 15.53125 22.484375 10.953125 
Q 26.375 6.390625 33.015625 6.390625 
Q 39.65625 6.390625 43.53125 10.953125 
Q 47.40625 15.53125 47.40625 23.390625 
Q 47.40625 31.296875 43.53125 35.828125 
Q 39.65625 40.375 33.015625 40.375 
z
M 52.59375 71.296875 
L 52.59375 62.3125 
Q 48.875 64.0625 45.09375 64.984375 
Q 41.3125 65.921875 37.59375 65.921875 
Q 27.828125 65.921875 22.671875 59.328125 
Q 17.53125 52.734375 16.796875 39.40625 
Q 19.671875 43.65625 24.015625 45.921875 
Q 28.375 48.1875 33.59375 48.1875 
Q 44.578125 48.1875 50.953125 41.515625 
Q 57.328125 34.859375 57.328125 23.390625 
Q 57.328125 12.15625 50.6875 5.359375 
Q 44.046875 -1.421875 33.015625 -1.421875 
Q 20.359375 -1.421875 13.671875 8.265625 
Q 6.984375 17.96875 6.984375 36.375 
Q 6.984375 53.65625 15.1875 63.9375 
Q 23.390625 74.21875 37.203125 74.21875 
Q 40.921875 74.21875 44.703125 73.484375 
Q 48.484375 72.75 52.59375 71.296875 
z
" id="DejaVuSans-54"/>
       </defs>
       <use xlink:href="#DejaVuSans-54"/>
      </g>
     </g>
    </g>
    <g id="xtick_11">
     <g id="line2d_35">
      <path clip-path="url(#pcca832f52a)" d="M 143.121733 239.758125 
L 143.121733 140.921761 
" style="fill:none;stroke:#b0b0b0;stroke-linecap:square;stroke-width:0.8;"/>
     </g>
     <g id="line2d_36">
      <g>
       <use style="stroke:#000000;stroke-width:0.8;" x="143.121733" xlink:href="#mfcadd30402" y="239.758125"/>
      </g>
     </g>
     <g id="text_8">
      <!-- 8 -->
      <g transform="translate(139.940483 254.356562)scale(0.1 -0.1)">
       <defs>
        <path d="M 31.78125 34.625 
Q 24.75 34.625 20.71875 30.859375 
Q 16.703125 27.09375 16.703125 20.515625 
Q 16.703125 13.921875 20.71875 10.15625 
Q 24.75 6.390625 31.78125 6.390625 
Q 38.8125 6.390625 42.859375 10.171875 
Q 46.921875 13.96875 46.921875 20.515625 
Q 46.921875 27.09375 42.890625 30.859375 
Q 38.875 34.625 31.78125 34.625 
z
M 21.921875 38.8125 
Q 15.578125 40.375 12.03125 44.71875 
Q 8.5 49.078125 8.5 55.328125 
Q 8.5 64.0625 14.71875 69.140625 
Q 20.953125 74.21875 31.78125 74.21875 
Q 42.671875 74.21875 48.875 69.140625 
Q 55.078125 64.0625 55.078125 55.328125 
Q 55.078125 49.078125 51.53125 44.71875 
Q 48 40.375 41.703125 38.8125 
Q 48.828125 37.15625 52.796875 32.3125 
Q 56.78125 27.484375 56.78125 20.515625 
Q 56.78125 9.90625 50.3125 4.234375 
Q 43.84375 -1.421875 31.78125 -1.421875 
Q 19.734375 -1.421875 13.25 4.234375 
Q 6.78125 9.90625 6.78125 20.515625 
Q 6.78125 27.484375 10.78125 32.3125 
Q 14.796875 37.15625 21.921875 38.8125 
z
M 18.3125 54.390625 
Q 18.3125 48.734375 21.84375 45.5625 
Q 25.390625 42.390625 31.78125 42.390625 
Q 38.140625 42.390625 41.71875 45.5625 
Q 45.3125 48.734375 45.3125 54.390625 
Q 45.3125 60.0625 41.71875 63.234375 
Q 38.140625 66.40625 31.78125 66.40625 
Q 25.390625 66.40625 21.84375 63.234375 
Q 18.3125 60.0625 18.3125 54.390625 
z
" id="DejaVuSans-56"/>
       </defs>
       <use xlink:href="#DejaVuSans-56"/>
      </g>
     </g>
    </g>
    <g id="xtick_12">
     <g id="line2d_37">
      <path clip-path="url(#pcca832f52a)" d="M 193.849006 239.758125 
L 193.849006 140.921761 
" style="fill:none;stroke:#b0b0b0;stroke-linecap:square;stroke-width:0.8;"/>
     </g>
     <g id="line2d_38">
      <g>
       <use style="stroke:#000000;stroke-width:0.8;" x="193.849006" xlink:href="#mfcadd30402" y="239.758125"/>
      </g>
     </g>
     <g id="text_9">
      <!-- 10 -->
      <g transform="translate(187.486506 254.356562)scale(0.1 -0.1)">
       <use xlink:href="#DejaVuSans-49"/>
       <use x="63.623047" xlink:href="#DejaVuSans-48"/>
      </g>
     </g>
    </g>
    <g id="text_10">
     <!-- $t$ in $s$ -->
     <g transform="translate(105.408097 268.034687)scale(0.1 -0.1)">
      <defs>
       <path d="M 42.28125 54.6875 
L 40.921875 47.703125 
L 23 47.703125 
L 17.1875 18.015625 
Q 16.890625 16.359375 16.75 15.234375 
Q 16.609375 14.109375 16.609375 13.484375 
Q 16.609375 10.359375 18.484375 8.9375 
Q 20.359375 7.515625 24.515625 7.515625 
L 33.59375 7.515625 
L 32.078125 0 
L 23.484375 0 
Q 15.484375 0 11.546875 3.125 
Q 7.625 6.25 7.625 12.59375 
Q 7.625 13.71875 7.765625 15.0625 
Q 7.90625 16.40625 8.203125 18.015625 
L 14.015625 47.703125 
L 6.390625 47.703125 
L 7.8125 54.6875 
L 15.28125 54.6875 
L 18.3125 70.21875 
L 27.296875 70.21875 
L 24.3125 54.6875 
z
" id="DejaVuSans-Oblique-116"/>
       <path d="M 9.421875 54.6875 
L 18.40625 54.6875 
L 18.40625 0 
L 9.421875 0 
z
M 9.421875 75.984375 
L 18.40625 75.984375 
L 18.40625 64.59375 
L 9.421875 64.59375 
z
" id="DejaVuSans-105"/>
       <path d="M 54.890625 33.015625 
L 54.890625 0 
L 45.90625 0 
L 45.90625 32.71875 
Q 45.90625 40.484375 42.875 44.328125 
Q 39.84375 48.1875 33.796875 48.1875 
Q 26.515625 48.1875 22.3125 43.546875 
Q 18.109375 38.921875 18.109375 30.90625 
L 18.109375 0 
L 9.078125 0 
L 9.078125 54.6875 
L 18.109375 54.6875 
L 18.109375 46.1875 
Q 21.34375 51.125 25.703125 53.5625 
Q 30.078125 56 35.796875 56 
Q 45.21875 56 50.046875 50.171875 
Q 54.890625 44.34375 54.890625 33.015625 
z
" id="DejaVuSans-110"/>
       <path d="M 50 53.078125 
L 48.296875 44.578125 
Q 44.734375 46.53125 40.765625 47.5 
Q 36.8125 48.484375 32.625 48.484375 
Q 25.53125 48.484375 21.453125 46.0625 
Q 17.390625 43.65625 17.390625 39.5 
Q 17.390625 34.671875 26.859375 32.078125 
Q 27.59375 31.890625 27.9375 31.78125 
L 30.8125 30.90625 
Q 39.796875 28.421875 42.796875 25.6875 
Q 45.796875 22.953125 45.796875 18.21875 
Q 45.796875 9.515625 38.890625 4.046875 
Q 31.984375 -1.421875 20.796875 -1.421875 
Q 16.453125 -1.421875 11.671875 -0.578125 
Q 6.890625 0.25 1.125 2 
L 2.875 11.28125 
Q 7.8125 8.734375 12.59375 7.421875 
Q 17.390625 6.109375 21.78125 6.109375 
Q 28.375 6.109375 32.5 8.9375 
Q 36.625 11.765625 36.625 16.109375 
Q 36.625 20.796875 25.78125 23.6875 
L 24.859375 23.921875 
L 21.78125 24.703125 
Q 14.9375 26.515625 11.765625 29.46875 
Q 8.59375 32.421875 8.59375 37.015625 
Q 8.59375 45.75 15.15625 50.875 
Q 21.734375 56 33.015625 56 
Q 37.453125 56 41.671875 55.265625 
Q 45.90625 54.546875 50 53.078125 
z
" id="DejaVuSans-Oblique-115"/>
      </defs>
      <use transform="translate(0 0.015625)" xlink:href="#DejaVuSans-Oblique-116"/>
      <use transform="translate(39.208984 0.015625)" xlink:href="#DejaVuSans-32"/>
      <use transform="translate(70.996094 0.015625)" xlink:href="#DejaVuSans-105"/>
      <use transform="translate(98.779297 0.015625)" xlink:href="#DejaVuSans-110"/>
      <use transform="translate(162.158203 0.015625)" xlink:href="#DejaVuSans-32"/>
      <use transform="translate(193.945312 0.015625)" xlink:href="#DejaVuSans-Oblique-115"/>
     </g>
    </g>
   </g>
   <g id="matplotlib.axis_6">
    <g id="ytick_7">
     <g id="line2d_39">
      <path clip-path="url(#pcca832f52a)" d="M 41.667188 217.116499 
L 193.849006 217.116499 
" style="fill:none;stroke:#b0b0b0;stroke-linecap:square;stroke-width:0.8;"/>
     </g>
     <g id="line2d_40">
      <g>
       <use style="stroke:#000000;stroke-width:0.8;" x="41.667188" xlink:href="#mae41ab24e9" y="217.116499"/>
      </g>
     </g>
     <g id="text_11">
      <!-- −500 -->
      <g transform="translate(7.2 220.915718)scale(0.1 -0.1)">
       <use xlink:href="#DejaVuSans-8722"/>
       <use x="83.789062" xlink:href="#DejaVuSans-53"/>
       <use x="147.412109" xlink:href="#DejaVuSans-48"/>
       <use x="211.035156" xlink:href="#DejaVuSans-48"/>
      </g>
     </g>
    </g>
    <g id="ytick_8">
     <g id="line2d_41">
      <path clip-path="url(#pcca832f52a)" d="M 41.667188 190.323173 
L 193.849006 190.323173 
" style="fill:none;stroke:#b0b0b0;stroke-linecap:square;stroke-width:0.8;"/>
     </g>
     <g id="line2d_42">
      <g>
       <use style="stroke:#000000;stroke-width:0.8;" x="41.667188" xlink:href="#mae41ab24e9" y="190.323173"/>
      </g>
     </g>
     <g id="text_12">
      <!-- 0 -->
      <g transform="translate(28.304688 194.122392)scale(0.1 -0.1)">
       <use xlink:href="#DejaVuSans-48"/>
      </g>
     </g>
    </g>
    <g id="ytick_9">
     <g id="line2d_43">
      <path clip-path="url(#pcca832f52a)" d="M 41.667188 163.529847 
L 193.849006 163.529847 
" style="fill:none;stroke:#b0b0b0;stroke-linecap:square;stroke-width:0.8;"/>
     </g>
     <g id="line2d_44">
      <g>
       <use style="stroke:#000000;stroke-width:0.8;" x="41.667188" xlink:href="#mae41ab24e9" y="163.529847"/>
      </g>
     </g>
     <g id="text_13">
      <!-- 500 -->
      <g transform="translate(15.579688 167.329065)scale(0.1 -0.1)">
       <use xlink:href="#DejaVuSans-53"/>
       <use x="63.623047" xlink:href="#DejaVuSans-48"/>
       <use x="127.246094" xlink:href="#DejaVuSans-48"/>
      </g>
     </g>
    </g>
   </g>
   <g id="line2d_45">
    <path clip-path="url(#pcca832f52a)" d="M 41.667188 175.355203 
L 42.301278 183.896142 
L 42.935369 196.496281 
L 43.56946 204.820472 
L 44.203551 201.646399 
L 45.471733 176.610504 
L 46.105824 177.103572 
L 46.739915 187.479592 
L 47.374006 199.710508 
L 48.008097 205.501469 
L 48.642188 198.482008 
L 49.276278 183.643256 
L 49.910369 175.093209 
L 50.54446 180.248834 
L 51.812642 203.174179 
L 52.446733 204.177257 
L 53.080824 193.171906 
L 53.714915 179.369469 
L 54.349006 175.495117 
L 54.983097 183.574407 
L 55.617187 196.035619 
L 56.251278 204.929071 
L 56.885369 202.180354 
L 58.153551 176.401669 
L 58.787642 177.319769 
L 60.055824 200.427873 
L 60.689915 205.320134 
L 61.324006 197.722419 
L 61.958097 183.276544 
L 62.592188 175.228947 
L 63.226278 180.090829 
L 64.49446 203.027501 
L 65.128551 204.614152 
L 65.762642 193.521986 
L 66.396733 179.217292 
L 67.030824 175.48646 
L 67.664915 184.280505 
L 68.299006 196.895925 
L 68.933097 205.032469 
L 69.567187 201.481027 
L 70.835369 176.446433 
L 71.46946 177.322199 
L 72.737642 200.071796 
L 73.371733 205.588473 
L 74.005824 198.176846 
L 74.639915 183.258863 
L 75.274006 175.069569 
L 75.908097 180.564714 
L 77.176278 203.423778 
L 77.810369 204.085559 
L 78.44446 192.79812 
L 79.078551 179.093536 
L 79.712642 175.596358 
L 80.346733 183.907982 
L 80.980824 196.397399 
L 81.614915 205.088762 
L 82.249006 201.957683 
L 83.517188 176.234397 
L 84.151278 177.545696 
L 85.41946 200.722061 
L 86.053551 205.320456 
L 86.687642 197.391191 
L 87.321733 182.920336 
L 87.955824 175.201325 
L 88.589915 180.36898 
L 89.858097 203.259701 
L 90.492188 204.494224 
L 91.126278 193.117872 
L 91.760369 178.929835 
L 92.39446 175.59737 
L 93.028551 184.619878 
L 93.662642 197.225604 
L 94.296733 205.131104 
L 94.930824 201.225444 
L 95.564915 187.521932 
L 96.199006 176.290642 
L 96.833097 177.523207 
L 98.101278 200.36365 
L 98.735369 205.581974 
L 99.36946 197.825083 
L 100.003551 182.885526 
L 100.637642 175.04785 
L 101.271733 180.857905 
L 102.539915 203.613979 
L 103.174006 203.930597 
L 103.808097 192.401023 
L 104.442187 178.824756 
L 105.076278 175.695289 
L 105.710369 184.227615 
L 106.34446 196.727952 
L 106.978551 205.193549 
L 107.612642 201.69339 
L 108.880824 176.077524 
L 109.514915 177.764222 
L 110.783097 200.986457 
L 111.417188 205.279103 
L 112.051278 197.036231 
L 112.685369 182.567022 
L 113.31946 175.179634 
L 113.953551 180.642779 
L 115.221733 203.461472 
L 115.855824 204.341641 
L 116.489915 192.705235 
L 117.124006 178.652678 
L 117.758097 175.711332 
L 118.392188 184.953452 
L 119.026278 197.541026 
L 119.660369 205.203325 
L 120.29446 200.94843 
L 120.928551 187.122502 
L 121.562642 176.143544 
L 122.196733 177.726467 
L 123.464915 200.639551 
L 124.099006 205.551557 
L 124.733097 197.461047 
L 125.367188 182.518746 
L 126.001278 175.03513 
L 126.635369 181.150948 
L 127.26946 193.59071 
L 127.903551 203.787854 
L 128.537642 203.757265 
L 129.805824 178.563855 
L 130.439915 175.801193 
L 131.074006 184.54722 
L 131.708097 197.050991 
L 132.342187 205.281381 
L 132.976278 201.415235 
L 133.610369 187.243748 
L 134.24446 175.93123 
L 134.878551 177.987397 
L 136.146733 201.241145 
L 136.780824 205.22255 
L 137.414915 196.673187 
L 138.049006 182.218994 
L 138.683097 175.167504 
L 139.317187 180.919735 
L 140.585369 203.651877 
L 141.21946 204.175273 
L 142.487642 178.384546 
L 143.121733 175.833671 
L 143.755824 185.287951 
L 144.389915 197.85122 
L 145.024006 205.263342 
L 145.658097 200.66142 
L 146.292187 186.724688 
L 146.926278 176.006353 
L 147.560369 177.935736 
L 148.828551 200.908291 
L 149.462642 205.508361 
L 150.096733 197.090113 
L 150.730824 182.157818 
L 151.364915 175.032918 
L 151.999006 181.44762 
L 152.633097 193.93112 
L 153.267188 203.952372 
L 153.901278 203.573018 
L 155.16946 178.311378 
L 155.803551 175.915582 
L 156.437642 184.868757 
L 157.071733 197.370167 
L 157.705824 205.358492 
L 158.339915 201.127982 
L 158.974006 186.831208 
L 159.608097 175.795803 
L 160.242188 178.217022 
L 161.510369 201.489296 
L 162.14446 205.155213 
L 162.778551 196.304823 
L 163.412642 181.87677 
L 164.046733 175.165485 
L 164.680824 181.200836 
L 165.949006 203.833864 
L 166.583097 203.998424 
L 167.851278 178.125888 
L 168.485369 175.965273 
L 169.11946 185.624108 
L 169.753551 198.157366 
L 170.387642 205.313475 
L 171.021733 200.366595 
L 171.655824 186.329434 
L 172.289915 175.879423 
L 172.924006 178.151582 
L 174.192187 201.171291 
L 174.826278 205.45455 
L 175.460369 196.713785 
L 176.09446 181.803244 
L 176.728551 175.041541 
L 177.362642 181.748318 
L 177.996733 194.269744 
L 178.630824 204.108673 
L 179.264915 203.37937 
L 180.533097 178.067866 
L 181.167187 176.038819 
L 181.801278 185.192653 
L 182.435369 197.686118 
L 183.06946 205.425814 
L 183.703551 200.83231 
L 184.337642 186.421053 
L 184.971733 175.671202 
L 185.605824 178.4534 
L 186.874006 201.731328 
L 187.508097 205.077789 
L 188.142188 195.931831 
L 188.776278 181.540662 
L 189.410369 175.173594 
L 190.04446 181.486049 
L 191.312642 204.007807 
L 191.946733 203.811515 
L 193.214915 177.876548 
L 193.849006 176.106047 
L 193.849006 176.106047 
" style="fill:none;stroke:#1f77b4;stroke-linecap:square;"/>
   </g>
   <g id="patch_13">
    <path d="M 41.667188 239.758125 
L 41.667188 140.921761 
" style="fill:none;stroke:#000000;stroke-linecap:square;stroke-linejoin:miter;stroke-width:0.8;"/>
   </g>
   <g id="patch_14">
    <path d="M 193.849006 239.758125 
L 193.849006 140.921761 
" style="fill:none;stroke:#000000;stroke-linecap:square;stroke-linejoin:miter;stroke-width:0.8;"/>
   </g>
   <g id="patch_15">
    <path d="M 41.667188 239.758125 
L 193.849006 239.758125 
" style="fill:none;stroke:#000000;stroke-linecap:square;stroke-linejoin:miter;stroke-width:0.8;"/>
   </g>
   <g id="patch_16">
    <path d="M 41.667188 140.921761 
L 193.849006 140.921761 
" style="fill:none;stroke:#000000;stroke-linecap:square;stroke-linejoin:miter;stroke-width:0.8;"/>
   </g>
   <g id="text_14">
    <!-- mode coeff. 3 -->
    <g transform="translate(76.751847 134.921761)scale(0.12 -0.12)">
     <defs>
      <path d="M 40.578125 39.3125 
Q 47.65625 37.796875 51.625 33 
Q 55.609375 28.21875 55.609375 21.1875 
Q 55.609375 10.40625 48.1875 4.484375 
Q 40.765625 -1.421875 27.09375 -1.421875 
Q 22.515625 -1.421875 17.65625 -0.515625 
Q 12.796875 0.390625 7.625 2.203125 
L 7.625 11.71875 
Q 11.71875 9.328125 16.59375 8.109375 
Q 21.484375 6.890625 26.8125 6.890625 
Q 36.078125 6.890625 40.9375 10.546875 
Q 45.796875 14.203125 45.796875 21.1875 
Q 45.796875 27.640625 41.28125 31.265625 
Q 36.765625 34.90625 28.71875 34.90625 
L 20.21875 34.90625 
L 20.21875 43.015625 
L 29.109375 43.015625 
Q 36.375 43.015625 40.234375 45.921875 
Q 44.09375 48.828125 44.09375 54.296875 
Q 44.09375 59.90625 40.109375 62.90625 
Q 36.140625 65.921875 28.71875 65.921875 
Q 24.65625 65.921875 20.015625 65.03125 
Q 15.375 64.15625 9.8125 62.3125 
L 9.8125 71.09375 
Q 15.4375 72.65625 20.34375 73.4375 
Q 25.25 74.21875 29.59375 74.21875 
Q 40.828125 74.21875 47.359375 69.109375 
Q 53.90625 64.015625 53.90625 55.328125 
Q 53.90625 49.265625 50.4375 45.09375 
Q 46.96875 40.921875 40.578125 39.3125 
z
" id="DejaVuSans-51"/>
     </defs>
     <use xlink:href="#DejaVuSans-109"/>
     <use x="97.412109" xlink:href="#DejaVuSans-111"/>
     <use x="158.59375" xlink:href="#DejaVuSans-100"/>
     <use x="222.070312" xlink:href="#DejaVuSans-101"/>
     <use x="283.59375" xlink:href="#DejaVuSans-32"/>
     <use x="315.380859" xlink:href="#DejaVuSans-99"/>
     <use x="370.361328" xlink:href="#DejaVuSans-111"/>
     <use x="431.542969" xlink:href="#DejaVuSans-101"/>
     <use x="493.066406" xlink:href="#DejaVuSans-102"/>
     <use x="528.271484" xlink:href="#DejaVuSans-102"/>
     <use x="556.226562" xlink:href="#DejaVuSans-46"/>
     <use x="588.013672" xlink:href="#DejaVuSans-32"/>
     <use x="619.800781" xlink:href="#DejaVuSans-51"/>
    </g>
   </g>
  </g>
  <g id="axes_4">
   <g id="patch_17">
    <path d="M 224.285369 239.758125 
L 376.467187 239.758125 
L 376.467187 140.921761 
L 224.285369 140.921761 
z
" style="fill:#ffffff;"/>
   </g>
   <g id="matplotlib.axis_7">
    <g id="xtick_13">
     <g id="line2d_46">
      <path clip-path="url(#pb0fa74a35d)" d="M 224.285369 239.758125 
L 224.285369 140.921761 
" style="fill:none;stroke:#b0b0b0;stroke-linecap:square;stroke-width:0.8;"/>
     </g>
     <g id="line2d_47">
      <g>
       <use style="stroke:#000000;stroke-width:0.8;" x="224.285369" xlink:href="#mfcadd30402" y="239.758125"/>
      </g>
     </g>
     <g id="text_15">
      <!-- 4 -->
      <g transform="translate(221.104119 254.356562)scale(0.1 -0.1)">
       <use xlink:href="#DejaVuSans-52"/>
      </g>
     </g>
    </g>
    <g id="xtick_14">
     <g id="line2d_48">
      <path clip-path="url(#pb0fa74a35d)" d="M 275.012642 239.758125 
L 275.012642 140.921761 
" style="fill:none;stroke:#b0b0b0;stroke-linecap:square;stroke-width:0.8;"/>
     </g>
     <g id="line2d_49">
      <g>
       <use style="stroke:#000000;stroke-width:0.8;" x="275.012642" xlink:href="#mfcadd30402" y="239.758125"/>
      </g>
     </g>
     <g id="text_16">
      <!-- 6 -->
      <g transform="translate(271.831392 254.356562)scale(0.1 -0.1)">
       <use xlink:href="#DejaVuSans-54"/>
      </g>
     </g>
    </g>
    <g id="xtick_15">
     <g id="line2d_50">
      <path clip-path="url(#pb0fa74a35d)" d="M 325.739915 239.758125 
L 325.739915 140.921761 
" style="fill:none;stroke:#b0b0b0;stroke-linecap:square;stroke-width:0.8;"/>
     </g>
     <g id="line2d_51">
      <g>
       <use style="stroke:#000000;stroke-width:0.8;" x="325.739915" xlink:href="#mfcadd30402" y="239.758125"/>
      </g>
     </g>
     <g id="text_17">
      <!-- 8 -->
      <g transform="translate(322.558665 254.356562)scale(0.1 -0.1)">
       <use xlink:href="#DejaVuSans-56"/>
      </g>
     </g>
    </g>
    <g id="xtick_16">
     <g id="line2d_52">
      <path clip-path="url(#pb0fa74a35d)" d="M 376.467187 239.758125 
L 376.467187 140.921761 
" style="fill:none;stroke:#b0b0b0;stroke-linecap:square;stroke-width:0.8;"/>
     </g>
     <g id="line2d_53">
      <g>
       <use style="stroke:#000000;stroke-width:0.8;" x="376.467187" xlink:href="#mfcadd30402" y="239.758125"/>
      </g>
     </g>
     <g id="text_18">
      <!-- 10 -->
      <g transform="translate(370.104687 254.356562)scale(0.1 -0.1)">
       <use xlink:href="#DejaVuSans-49"/>
       <use x="63.623047" xlink:href="#DejaVuSans-48"/>
      </g>
     </g>
    </g>
    <g id="text_19">
     <!-- $t$ in $s$ -->
     <g transform="translate(288.026278 268.034687)scale(0.1 -0.1)">
      <use transform="translate(0 0.015625)" xlink:href="#DejaVuSans-Oblique-116"/>
      <use transform="translate(39.208984 0.015625)" xlink:href="#DejaVuSans-32"/>
      <use transform="translate(70.996094 0.015625)" xlink:href="#DejaVuSans-105"/>
      <use transform="translate(98.779297 0.015625)" xlink:href="#DejaVuSans-110"/>
      <use transform="translate(162.158203 0.015625)" xlink:href="#DejaVuSans-32"/>
      <use transform="translate(193.945312 0.015625)" xlink:href="#DejaVuSans-Oblique-115"/>
     </g>
    </g>
   </g>
   <g id="matplotlib.axis_8">
    <g id="ytick_10">
     <g id="line2d_54">
      <path clip-path="url(#pb0fa74a35d)" d="M 224.285369 217.116499 
L 376.467187 217.116499 
" style="fill:none;stroke:#b0b0b0;stroke-linecap:square;stroke-width:0.8;"/>
     </g>
     <g id="line2d_55">
      <g>
       <use style="stroke:#000000;stroke-width:0.8;" x="224.285369" xlink:href="#mae41ab24e9" y="217.116499"/>
      </g>
     </g>
    </g>
    <g id="ytick_11">
     <g id="line2d_56">
      <path clip-path="url(#pb0fa74a35d)" d="M 224.285369 190.323173 
L 376.467187 190.323173 
" style="fill:none;stroke:#b0b0b0;stroke-linecap:square;stroke-width:0.8;"/>
     </g>
     <g id="line2d_57">
      <g>
       <use style="stroke:#000000;stroke-width:0.8;" x="224.285369" xlink:href="#mae41ab24e9" y="190.323173"/>
      </g>
     </g>
    </g>
    <g id="ytick_12">
     <g id="line2d_58">
      <path clip-path="url(#pb0fa74a35d)" d="M 224.285369 163.529847 
L 376.467187 163.529847 
" style="fill:none;stroke:#b0b0b0;stroke-linecap:square;stroke-width:0.8;"/>
     </g>
     <g id="line2d_59">
      <g>
       <use style="stroke:#000000;stroke-width:0.8;" x="224.285369" xlink:href="#mae41ab24e9" y="163.529847"/>
      </g>
     </g>
    </g>
   </g>
   <g id="line2d_60">
    <path clip-path="url(#pb0fa74a35d)" d="M 224.285369 192.954494 
L 224.91946 202.403862 
L 225.553551 202.813455 
L 226.187642 193.460098 
L 226.821733 180.666918 
L 227.455824 176.039267 
L 228.089915 183.952121 
L 228.724006 196.354027 
L 229.358097 203.557104 
L 229.992187 201.236082 
L 231.260369 177.270634 
L 231.89446 176.975997 
L 233.162642 200.175394 
L 233.796733 203.771764 
L 234.430824 197.365438 
L 235.064915 184.424163 
L 235.699006 176.041244 
L 236.333097 180.26141 
L 236.967187 192.519841 
L 237.601278 202.075775 
L 238.235369 203.19048 
L 238.86946 193.857053 
L 239.503551 180.305955 
L 240.137642 175.386793 
L 240.771733 184.0919 
L 241.405824 197.062034 
L 242.039915 203.63497 
L 242.674006 200.51519 
L 243.942187 177.518976 
L 244.576278 177.496136 
L 245.84446 199.703608 
L 246.478551 203.964162 
L 247.112642 197.869626 
L 247.746733 184.353302 
L 248.380824 175.385838 
L 249.014915 180.11414 
L 249.649006 193.199193 
L 250.283097 202.469272 
L 250.917187 202.667011 
L 251.551278 193.084216 
L 252.185369 180.294171 
L 252.81946 175.985245 
L 253.453551 184.187339 
L 254.087642 196.563074 
L 254.721733 203.596869 
L 255.355824 201.016142 
L 256.624006 176.976005 
L 257.258097 177.089245 
L 258.526278 200.3416 
L 259.160369 203.716246 
L 259.79446 197.058871 
L 260.428551 184.043323 
L 261.062642 175.917142 
L 261.696733 180.479128 
L 262.330824 192.804322 
L 262.964915 202.202274 
L 263.599006 203.067763 
L 264.233097 193.479806 
L 264.867187 179.959244 
L 265.501278 175.40755 
L 266.135369 184.414055 
L 266.76946 197.318582 
L 267.403551 203.66958 
L 268.037642 200.286916 
L 269.305824 177.309207 
L 269.939915 177.647306 
L 271.208097 199.908669 
L 271.842187 203.938028 
L 272.476278 197.561212 
L 273.110369 183.968092 
L 273.74446 175.293499 
L 274.378551 180.392466 
L 275.012642 193.524422 
L 275.646733 202.590286 
L 276.280824 202.527199 
L 276.914915 192.726619 
L 277.549006 180.005162 
L 278.183097 176.037547 
L 278.817187 184.504895 
L 279.451278 196.835365 
L 280.085369 203.661793 
L 280.71946 200.793242 
L 281.987642 176.770241 
L 282.621733 177.280002 
L 283.889915 200.544525 
L 284.524006 203.668589 
L 285.158097 196.7519 
L 285.792187 183.697829 
L 286.426278 175.855401 
L 287.060369 180.749605 
L 287.69446 193.126393 
L 288.328551 202.348712 
L 288.962642 202.941198 
L 289.596733 193.110419 
L 290.230824 179.657994 
L 290.864915 175.480792 
L 291.499006 184.767857 
L 292.133097 197.595966 
L 292.767187 203.711011 
L 293.401278 200.053515 
L 294.66946 177.134989 
L 295.303551 177.834297 
L 296.571733 200.126819 
L 297.205824 203.909618 
L 297.839915 197.249682 
L 298.474006 183.603494 
L 299.108097 175.236273 
L 299.742187 180.694684 
L 300.376278 193.86066 
L 301.010369 202.71532 
L 301.64446 202.381831 
L 302.278551 192.36957 
L 302.912642 179.735383 
L 303.546733 176.115302 
L 304.180824 184.838529 
L 304.814915 197.114876 
L 305.449006 203.724978 
L 306.083097 200.563647 
L 307.351278 176.587269 
L 307.985369 177.490831 
L 309.253551 200.748274 
L 309.887642 203.615695 
L 310.521733 196.440501 
L 311.155824 183.361422 
L 311.789915 175.812256 
L 312.424006 181.033638 
L 313.058097 193.452452 
L 313.692187 202.493185 
L 314.326278 202.807014 
L 314.960369 192.739791 
L 315.59446 179.370554 
L 316.228551 175.571753 
L 316.862642 185.129026 
L 317.496733 197.872307 
L 318.130824 203.747653 
L 318.764915 199.813688 
L 320.033097 176.974414 
L 320.667187 178.034177 
L 321.935369 200.342503 
L 322.56946 203.873911 
L 323.203551 196.932581 
L 323.837642 183.245603 
L 324.471733 175.194154 
L 325.105824 181.006078 
L 325.739915 194.19583 
L 326.374006 202.835627 
L 327.008097 202.229169 
L 327.642187 192.010741 
L 328.276278 179.474886 
L 328.910369 176.20571 
L 329.54446 185.177064 
L 330.178551 197.391869 
L 330.812642 203.781839 
L 331.446733 200.326585 
L 332.714915 176.416498 
L 333.349006 177.712618 
L 334.617187 200.947064 
L 335.251278 203.555535 
L 335.885369 196.124279 
L 336.51946 183.030225 
L 337.153551 175.78083 
L 337.787642 181.324614 
L 338.421733 193.776745 
L 339.055824 202.632223 
L 339.689915 202.664968 
L 340.324006 192.366786 
L 340.958097 179.091847 
L 341.592187 175.674468 
L 342.226278 185.492992 
L 342.860369 198.14358 
L 343.49446 203.777311 
L 344.128551 199.567135 
L 345.396733 176.823796 
L 346.030824 178.242846 
L 347.299006 200.553118 
L 347.933097 203.830293 
L 348.567187 196.61011 
L 349.201278 182.892708 
L 349.835369 175.163874 
L 350.46946 181.323574 
L 351.103551 194.527103 
L 351.737642 202.949361 
L 352.371733 202.069014 
L 353.005824 191.650037 
L 353.639915 179.222079 
L 354.274006 176.306199 
L 354.908097 185.518112 
L 355.542187 197.664423 
L 356.176278 203.831421 
L 356.810369 200.082103 
L 358.078551 176.256209 
L 358.712642 177.943448 
L 359.980824 201.139811 
L 360.614915 203.487885 
L 361.249006 195.803522 
L 361.883097 182.703835 
L 362.517187 175.759945 
L 363.151278 181.621128 
L 363.785369 194.097895 
L 364.41946 202.764831 
L 365.053551 202.514587 
L 365.687642 191.991032 
L 366.321733 178.821085 
L 366.955824 175.788127 
L 367.589915 185.859252 
L 368.224006 198.409507 
L 368.858097 203.799843 
L 369.492187 199.313973 
L 370.126278 186.877452 
L 370.760369 176.682828 
L 371.39446 178.459738 
L 372.662642 200.758343 
L 373.296733 203.778735 
L 373.930824 196.282296 
L 374.564915 182.544551 
L 375.199006 175.144866 
L 375.833097 181.646634 
L 376.467187 194.854238 
L 376.467187 194.854238 
" style="fill:none;stroke:#1f77b4;stroke-linecap:square;"/>
   </g>
   <g id="patch_18">
    <path d="M 224.285369 239.758125 
L 224.285369 140.921761 
" style="fill:none;stroke:#000000;stroke-linecap:square;stroke-linejoin:miter;stroke-width:0.8;"/>
   </g>
   <g id="patch_19">
    <path d="M 376.467187 239.758125 
L 376.467187 140.921761 
" style="fill:none;stroke:#000000;stroke-linecap:square;stroke-linejoin:miter;stroke-width:0.8;"/>
   </g>
   <g id="patch_20">
    <path d="M 224.285369 239.758125 
L 376.467187 239.758125 
" style="fill:none;stroke:#000000;stroke-linecap:square;stroke-linejoin:miter;stroke-width:0.8;"/>
   </g>
   <g id="patch_21">
    <path d="M 224.285369 140.921761 
L 376.467187 140.921761 
" style="fill:none;stroke:#000000;stroke-linecap:square;stroke-linejoin:miter;stroke-width:0.8;"/>
   </g>
   <g id="text_20">
    <!-- mode coeff. 4 -->
    <g transform="translate(259.370028 134.921761)scale(0.12 -0.12)">
     <use xlink:href="#DejaVuSans-109"/>
     <use x="97.412109" xlink:href="#DejaVuSans-111"/>
     <use x="158.59375" xlink:href="#DejaVuSans-100"/>
     <use x="222.070312" xlink:href="#DejaVuSans-101"/>
     <use x="283.59375" xlink:href="#DejaVuSans-32"/>
     <use x="315.380859" xlink:href="#DejaVuSans-99"/>
     <use x="370.361328" xlink:href="#DejaVuSans-111"/>
     <use x="431.542969" xlink:href="#DejaVuSans-101"/>
     <use x="493.066406" xlink:href="#DejaVuSans-102"/>
     <use x="528.271484" xlink:href="#DejaVuSans-102"/>
     <use x="556.226562" xlink:href="#DejaVuSans-46"/>
     <use x="588.013672" xlink:href="#DejaVuSans-32"/>
     <use x="619.800781" xlink:href="#DejaVuSans-52"/>
    </g>
   </g>
  </g>
 </g>
 <defs>
  <clipPath id="p486932b108">
   <rect height="98.836364" width="152.181818" x="41.667188" y="22.318125"/>
  </clipPath>
  <clipPath id="p24561ea8c6">
   <rect height="98.836364" width="152.181818" x="224.285369" y="22.318125"/>
  </clipPath>
  <clipPath id="pcca832f52a">
   <rect height="98.836364" width="152.181818" x="41.667188" y="140.921761"/>
  </clipPath>
  <clipPath id="pb0fa74a35d">
   <rect height="98.836364" width="152.181818" x="224.285369" y="140.921761"/>
  </clipPath>
 </defs>
</svg>
