<?xml version="1.0" encoding="utf-8" standalone="no"?>
<!DOCTYPE svg PUBLIC "-//W3C//DTD SVG 1.1//EN"
  "http://www.w3.org/Graphics/SVG/1.1/DTD/svg11.dtd">
<!-- Created with matplotlib (https://matplotlib.org/) -->
<svg height="265.995469pt" version="1.1" viewBox="0 0 385.78125 265.995469" width="385.78125pt" xmlns="http://www.w3.org/2000/svg" xmlns:xlink="http://www.w3.org/1999/xlink">
 <metadata>
  <rdf:RDF xmlns:cc="http://creativecommons.org/ns#" xmlns:dc="http://purl.org/dc/elements/1.1/" xmlns:rdf="http://www.w3.org/1999/02/22-rdf-syntax-ns#">
   <cc:Work>
    <dc:type rdf:resource="http://purl.org/dc/dcmitype/StillImage"/>
    <dc:date>2021-07-30T17:05:25.472723</dc:date>
    <dc:format>image/svg+xml</dc:format>
    <dc:creator>
     <cc:Agent>
      <dc:title>Matplotlib v3.3.3, https://matplotlib.org/</dc:title>
     </cc:Agent>
    </dc:creator>
   </cc:Work>
  </rdf:RDF>
 </metadata>
 <defs>
  <style type="text/css">*{stroke-linecap:butt;stroke-linejoin:round;}</style>
 </defs>
 <g id="figure_1">
  <g id="patch_1">
   <path d="M 0 265.995469 
L 385.78125 265.995469 
L 385.78125 0 
L 0 0 
z
" style="fill:none;"/>
  </g>
  <g id="axes_1">
   <g id="patch_2">
    <path d="M 43.78125 228.439219 
L 378.58125 228.439219 
L 378.58125 10.999219 
L 43.78125 10.999219 
z
" style="fill:#ffffff;"/>
   </g>
   <g id="matplotlib.axis_1">
    <g id="xtick_1">
     <g id="line2d_1">
      <defs>
       <path d="M 0 0 
L 0 3.5 
" id="m6312571e24" style="stroke:#000000;stroke-width:0.8;"/>
      </defs>
      <g>
       <use style="stroke:#000000;stroke-width:0.8;" x="54.886364" xlink:href="#m6312571e24" y="228.439219"/>
      </g>
     </g>
     <g id="text_1">
      <!-- 0 -->
      <g transform="translate(51.705114 243.037656)scale(0.1 -0.1)">
       <defs>
        <path d="M 31.78125 66.40625 
Q 24.171875 66.40625 20.328125 58.90625 
Q 16.5 51.421875 16.5 36.375 
Q 16.5 21.390625 20.328125 13.890625 
Q 24.171875 6.390625 31.78125 6.390625 
Q 39.453125 6.390625 43.28125 13.890625 
Q 47.125 21.390625 47.125 36.375 
Q 47.125 51.421875 43.28125 58.90625 
Q 39.453125 66.40625 31.78125 66.40625 
z
M 31.78125 74.21875 
Q 44.046875 74.21875 50.515625 64.515625 
Q 56.984375 54.828125 56.984375 36.375 
Q 56.984375 17.96875 50.515625 8.265625 
Q 44.046875 -1.421875 31.78125 -1.421875 
Q 19.53125 -1.421875 13.0625 8.265625 
Q 6.59375 17.96875 6.59375 36.375 
Q 6.59375 54.828125 13.0625 64.515625 
Q 19.53125 74.21875 31.78125 74.21875 
z
" id="DejaVuSans-48"/>
       </defs>
       <use xlink:href="#DejaVuSans-48"/>
      </g>
     </g>
    </g>
    <g id="xtick_2">
     <g id="line2d_2">
      <g>
       <use style="stroke:#000000;stroke-width:0.8;" x="116.581705" xlink:href="#m6312571e24" y="228.439219"/>
      </g>
     </g>
     <g id="text_2">
      <!-- 100 -->
      <g transform="translate(107.037955 243.037656)scale(0.1 -0.1)">
       <defs>
        <path d="M 12.40625 8.296875 
L 28.515625 8.296875 
L 28.515625 63.921875 
L 10.984375 60.40625 
L 10.984375 69.390625 
L 28.421875 72.90625 
L 38.28125 72.90625 
L 38.28125 8.296875 
L 54.390625 8.296875 
L 54.390625 0 
L 12.40625 0 
z
" id="DejaVuSans-49"/>
       </defs>
       <use xlink:href="#DejaVuSans-49"/>
       <use x="63.623047" xlink:href="#DejaVuSans-48"/>
       <use x="127.246094" xlink:href="#DejaVuSans-48"/>
      </g>
     </g>
    </g>
    <g id="xtick_3">
     <g id="line2d_3">
      <g>
       <use style="stroke:#000000;stroke-width:0.8;" x="178.277046" xlink:href="#m6312571e24" y="228.439219"/>
      </g>
     </g>
     <g id="text_3">
      <!-- 200 -->
      <g transform="translate(168.733296 243.037656)scale(0.1 -0.1)">
       <defs>
        <path d="M 19.1875 8.296875 
L 53.609375 8.296875 
L 53.609375 0 
L 7.328125 0 
L 7.328125 8.296875 
Q 12.9375 14.109375 22.625 23.890625 
Q 32.328125 33.6875 34.8125 36.53125 
Q 39.546875 41.84375 41.421875 45.53125 
Q 43.3125 49.21875 43.3125 52.78125 
Q 43.3125 58.59375 39.234375 62.25 
Q 35.15625 65.921875 28.609375 65.921875 
Q 23.96875 65.921875 18.8125 64.3125 
Q 13.671875 62.703125 7.8125 59.421875 
L 7.8125 69.390625 
Q 13.765625 71.78125 18.9375 73 
Q 24.125 74.21875 28.421875 74.21875 
Q 39.75 74.21875 46.484375 68.546875 
Q 53.21875 62.890625 53.21875 53.421875 
Q 53.21875 48.921875 51.53125 44.890625 
Q 49.859375 40.875 45.40625 35.40625 
Q 44.1875 33.984375 37.640625 27.21875 
Q 31.109375 20.453125 19.1875 8.296875 
z
" id="DejaVuSans-50"/>
       </defs>
       <use xlink:href="#DejaVuSans-50"/>
       <use x="63.623047" xlink:href="#DejaVuSans-48"/>
       <use x="127.246094" xlink:href="#DejaVuSans-48"/>
      </g>
     </g>
    </g>
    <g id="xtick_4">
     <g id="line2d_4">
      <g>
       <use style="stroke:#000000;stroke-width:0.8;" x="239.972387" xlink:href="#m6312571e24" y="228.439219"/>
      </g>
     </g>
     <g id="text_4">
      <!-- 300 -->
      <g transform="translate(230.428637 243.037656)scale(0.1 -0.1)">
       <defs>
        <path d="M 40.578125 39.3125 
Q 47.65625 37.796875 51.625 33 
Q 55.609375 28.21875 55.609375 21.1875 
Q 55.609375 10.40625 48.1875 4.484375 
Q 40.765625 -1.421875 27.09375 -1.421875 
Q 22.515625 -1.421875 17.65625 -0.515625 
Q 12.796875 0.390625 7.625 2.203125 
L 7.625 11.71875 
Q 11.71875 9.328125 16.59375 8.109375 
Q 21.484375 6.890625 26.8125 6.890625 
Q 36.078125 6.890625 40.9375 10.546875 
Q 45.796875 14.203125 45.796875 21.1875 
Q 45.796875 27.640625 41.28125 31.265625 
Q 36.765625 34.90625 28.71875 34.90625 
L 20.21875 34.90625 
L 20.21875 43.015625 
L 29.109375 43.015625 
Q 36.375 43.015625 40.234375 45.921875 
Q 44.09375 48.828125 44.09375 54.296875 
Q 44.09375 59.90625 40.109375 62.90625 
Q 36.140625 65.921875 28.71875 65.921875 
Q 24.65625 65.921875 20.015625 65.03125 
Q 15.375 64.15625 9.8125 62.3125 
L 9.8125 71.09375 
Q 15.4375 72.65625 20.34375 73.4375 
Q 25.25 74.21875 29.59375 74.21875 
Q 40.828125 74.21875 47.359375 69.109375 
Q 53.90625 64.015625 53.90625 55.328125 
Q 53.90625 49.265625 50.4375 45.09375 
Q 46.96875 40.921875 40.578125 39.3125 
z
" id="DejaVuSans-51"/>
       </defs>
       <use xlink:href="#DejaVuSans-51"/>
       <use x="63.623047" xlink:href="#DejaVuSans-48"/>
       <use x="127.246094" xlink:href="#DejaVuSans-48"/>
      </g>
     </g>
    </g>
    <g id="xtick_5">
     <g id="line2d_5">
      <g>
       <use style="stroke:#000000;stroke-width:0.8;" x="301.667727" xlink:href="#m6312571e24" y="228.439219"/>
      </g>
     </g>
     <g id="text_5">
      <!-- 400 -->
      <g transform="translate(292.123977 243.037656)scale(0.1 -0.1)">
       <defs>
        <path d="M 37.796875 64.3125 
L 12.890625 25.390625 
L 37.796875 25.390625 
z
M 35.203125 72.90625 
L 47.609375 72.90625 
L 47.609375 25.390625 
L 58.015625 25.390625 
L 58.015625 17.1875 
L 47.609375 17.1875 
L 47.609375 0 
L 37.796875 0 
L 37.796875 17.1875 
L 4.890625 17.1875 
L 4.890625 26.703125 
z
" id="DejaVuSans-52"/>
       </defs>
       <use xlink:href="#DejaVuSans-52"/>
       <use x="63.623047" xlink:href="#DejaVuSans-48"/>
       <use x="127.246094" xlink:href="#DejaVuSans-48"/>
      </g>
     </g>
    </g>
    <g id="xtick_6">
     <g id="line2d_6">
      <g>
       <use style="stroke:#000000;stroke-width:0.8;" x="363.363068" xlink:href="#m6312571e24" y="228.439219"/>
      </g>
     </g>
     <g id="text_6">
      <!-- 500 -->
      <g transform="translate(353.819318 243.037656)scale(0.1 -0.1)">
       <defs>
        <path d="M 10.796875 72.90625 
L 49.515625 72.90625 
L 49.515625 64.59375 
L 19.828125 64.59375 
L 19.828125 46.734375 
Q 21.96875 47.46875 24.109375 47.828125 
Q 26.265625 48.1875 28.421875 48.1875 
Q 40.625 48.1875 47.75 41.5 
Q 54.890625 34.8125 54.890625 23.390625 
Q 54.890625 11.625 47.5625 5.09375 
Q 40.234375 -1.421875 26.90625 -1.421875 
Q 22.3125 -1.421875 17.546875 -0.640625 
Q 12.796875 0.140625 7.71875 1.703125 
L 7.71875 11.625 
Q 12.109375 9.234375 16.796875 8.0625 
Q 21.484375 6.890625 26.703125 6.890625 
Q 35.15625 6.890625 40.078125 11.328125 
Q 45.015625 15.765625 45.015625 23.390625 
Q 45.015625 31 40.078125 35.4375 
Q 35.15625 39.890625 26.703125 39.890625 
Q 22.75 39.890625 18.8125 39.015625 
Q 14.890625 38.140625 10.796875 36.28125 
z
" id="DejaVuSans-53"/>
       </defs>
       <use xlink:href="#DejaVuSans-53"/>
       <use x="63.623047" xlink:href="#DejaVuSans-48"/>
       <use x="127.246094" xlink:href="#DejaVuSans-48"/>
      </g>
     </g>
    </g>
    <g id="text_7">
     <!-- $f$ in $Hz$ -->
     <g transform="translate(195.28125 256.715781)scale(0.1 -0.1)">
      <defs>
       <path d="M 47.796875 75.984375 
L 46.390625 68.5 
L 37.796875 68.5 
Q 32.90625 68.5 30.6875 66.578125 
Q 28.46875 64.65625 27.390625 59.515625 
L 26.421875 54.6875 
L 41.21875 54.6875 
L 39.890625 47.703125 
L 25.09375 47.703125 
L 15.828125 0 
L 6.78125 0 
L 16.109375 47.703125 
L 7.515625 47.703125 
L 8.796875 54.6875 
L 17.390625 54.6875 
L 18.109375 58.5 
Q 19.96875 68.171875 24.625 72.078125 
Q 29.296875 75.984375 39.3125 75.984375 
z
" id="DejaVuSans-Oblique-102"/>
       <path id="DejaVuSans-32"/>
       <path d="M 9.421875 54.6875 
L 18.40625 54.6875 
L 18.40625 0 
L 9.421875 0 
z
M 9.421875 75.984375 
L 18.40625 75.984375 
L 18.40625 64.59375 
L 9.421875 64.59375 
z
" id="DejaVuSans-105"/>
       <path d="M 54.890625 33.015625 
L 54.890625 0 
L 45.90625 0 
L 45.90625 32.71875 
Q 45.90625 40.484375 42.875 44.328125 
Q 39.84375 48.1875 33.796875 48.1875 
Q 26.515625 48.1875 22.3125 43.546875 
Q 18.109375 38.921875 18.109375 30.90625 
L 18.109375 0 
L 9.078125 0 
L 9.078125 54.6875 
L 18.109375 54.6875 
L 18.109375 46.1875 
Q 21.34375 51.125 25.703125 53.5625 
Q 30.078125 56 35.796875 56 
Q 45.21875 56 50.046875 50.171875 
Q 54.890625 44.34375 54.890625 33.015625 
z
" id="DejaVuSans-110"/>
       <path d="M 16.890625 72.90625 
L 26.8125 72.90625 
L 21 43.015625 
L 56.78125 43.015625 
L 62.59375 72.90625 
L 72.515625 72.90625 
L 58.296875 0 
L 48.390625 0 
L 55.171875 34.71875 
L 19.390625 34.71875 
L 12.59375 0 
L 2.6875 0 
z
" id="DejaVuSans-Oblique-72"/>
       <path d="M 11.625 54.6875 
L 54.296875 54.6875 
L 52.6875 46.484375 
L 11.53125 7.171875 
L 45.515625 7.171875 
L 44.09375 0 
L -0.296875 0 
L 1.3125 8.203125 
L 42.484375 47.515625 
L 10.203125 47.515625 
z
" id="DejaVuSans-Oblique-122"/>
      </defs>
      <use transform="translate(0 0.015625)" xlink:href="#DejaVuSans-Oblique-102"/>
      <use transform="translate(35.205078 0.015625)" xlink:href="#DejaVuSans-32"/>
      <use transform="translate(66.992188 0.015625)" xlink:href="#DejaVuSans-105"/>
      <use transform="translate(94.775391 0.015625)" xlink:href="#DejaVuSans-110"/>
      <use transform="translate(158.154297 0.015625)" xlink:href="#DejaVuSans-32"/>
      <use transform="translate(189.941406 0.015625)" xlink:href="#DejaVuSans-Oblique-72"/>
      <use transform="translate(265.136719 0.015625)" xlink:href="#DejaVuSans-Oblique-122"/>
     </g>
    </g>
   </g>
   <g id="matplotlib.axis_2">
    <g id="ytick_1">
     <g id="line2d_7">
      <defs>
       <path d="M 0 0 
L -3.5 0 
" id="m5fe171177a" style="stroke:#000000;stroke-width:0.8;"/>
      </defs>
      <g>
       <use style="stroke:#000000;stroke-width:0.8;" x="43.78125" xlink:href="#m5fe171177a" y="228.439219"/>
      </g>
     </g>
     <g id="text_8">
      <!-- 0.0 -->
      <g transform="translate(20.878125 232.238437)scale(0.1 -0.1)">
       <defs>
        <path d="M 10.6875 12.40625 
L 21 12.40625 
L 21 0 
L 10.6875 0 
z
" id="DejaVuSans-46"/>
       </defs>
       <use xlink:href="#DejaVuSans-48"/>
       <use x="63.623047" xlink:href="#DejaVuSans-46"/>
       <use x="95.410156" xlink:href="#DejaVuSans-48"/>
      </g>
     </g>
    </g>
    <g id="ytick_2">
     <g id="line2d_8">
      <g>
       <use style="stroke:#000000;stroke-width:0.8;" x="43.78125" xlink:href="#m5fe171177a" y="197.376362"/>
      </g>
     </g>
     <g id="text_9">
      <!-- 0.5 -->
      <g transform="translate(20.878125 201.17558)scale(0.1 -0.1)">
       <use xlink:href="#DejaVuSans-48"/>
       <use x="63.623047" xlink:href="#DejaVuSans-46"/>
       <use x="95.410156" xlink:href="#DejaVuSans-53"/>
      </g>
     </g>
    </g>
    <g id="ytick_3">
     <g id="line2d_9">
      <g>
       <use style="stroke:#000000;stroke-width:0.8;" x="43.78125" xlink:href="#m5fe171177a" y="166.313504"/>
      </g>
     </g>
     <g id="text_10">
      <!-- 1.0 -->
      <g transform="translate(20.878125 170.112723)scale(0.1 -0.1)">
       <use xlink:href="#DejaVuSans-49"/>
       <use x="63.623047" xlink:href="#DejaVuSans-46"/>
       <use x="95.410156" xlink:href="#DejaVuSans-48"/>
      </g>
     </g>
    </g>
    <g id="ytick_4">
     <g id="line2d_10">
      <g>
       <use style="stroke:#000000;stroke-width:0.8;" x="43.78125" xlink:href="#m5fe171177a" y="135.250647"/>
      </g>
     </g>
     <g id="text_11">
      <!-- 1.5 -->
      <g transform="translate(20.878125 139.049866)scale(0.1 -0.1)">
       <use xlink:href="#DejaVuSans-49"/>
       <use x="63.623047" xlink:href="#DejaVuSans-46"/>
       <use x="95.410156" xlink:href="#DejaVuSans-53"/>
      </g>
     </g>
    </g>
    <g id="ytick_5">
     <g id="line2d_11">
      <g>
       <use style="stroke:#000000;stroke-width:0.8;" x="43.78125" xlink:href="#m5fe171177a" y="104.18779"/>
      </g>
     </g>
     <g id="text_12">
      <!-- 2.0 -->
      <g transform="translate(20.878125 107.987009)scale(0.1 -0.1)">
       <use xlink:href="#DejaVuSans-50"/>
       <use x="63.623047" xlink:href="#DejaVuSans-46"/>
       <use x="95.410156" xlink:href="#DejaVuSans-48"/>
      </g>
     </g>
    </g>
    <g id="ytick_6">
     <g id="line2d_12">
      <g>
       <use style="stroke:#000000;stroke-width:0.8;" x="43.78125" xlink:href="#m5fe171177a" y="73.124933"/>
      </g>
     </g>
     <g id="text_13">
      <!-- 2.5 -->
      <g transform="translate(20.878125 76.924152)scale(0.1 -0.1)">
       <use xlink:href="#DejaVuSans-50"/>
       <use x="63.623047" xlink:href="#DejaVuSans-46"/>
       <use x="95.410156" xlink:href="#DejaVuSans-53"/>
      </g>
     </g>
    </g>
    <g id="ytick_7">
     <g id="line2d_13">
      <g>
       <use style="stroke:#000000;stroke-width:0.8;" x="43.78125" xlink:href="#m5fe171177a" y="42.062076"/>
      </g>
     </g>
     <g id="text_14">
      <!-- 3.0 -->
      <g transform="translate(20.878125 45.861295)scale(0.1 -0.1)">
       <use xlink:href="#DejaVuSans-51"/>
       <use x="63.623047" xlink:href="#DejaVuSans-46"/>
       <use x="95.410156" xlink:href="#DejaVuSans-48"/>
      </g>
     </g>
    </g>
    <g id="ytick_8">
     <g id="line2d_14">
      <g>
       <use style="stroke:#000000;stroke-width:0.8;" x="43.78125" xlink:href="#m5fe171177a" y="10.999219"/>
      </g>
     </g>
     <g id="text_15">
      <!-- 3.5 -->
      <g transform="translate(20.878125 14.798437)scale(0.1 -0.1)">
       <use xlink:href="#DejaVuSans-51"/>
       <use x="63.623047" xlink:href="#DejaVuSans-46"/>
       <use x="95.410156" xlink:href="#DejaVuSans-53"/>
      </g>
     </g>
    </g>
    <g id="text_16">
     <!-- amplitude -->
     <g transform="translate(14.798438 144.985625)rotate(-90)scale(0.1 -0.1)">
      <defs>
       <path d="M 34.28125 27.484375 
Q 23.390625 27.484375 19.1875 25 
Q 14.984375 22.515625 14.984375 16.5 
Q 14.984375 11.71875 18.140625 8.90625 
Q 21.296875 6.109375 26.703125 6.109375 
Q 34.1875 6.109375 38.703125 11.40625 
Q 43.21875 16.703125 43.21875 25.484375 
L 43.21875 27.484375 
z
M 52.203125 31.203125 
L 52.203125 0 
L 43.21875 0 
L 43.21875 8.296875 
Q 40.140625 3.328125 35.546875 0.953125 
Q 30.953125 -1.421875 24.3125 -1.421875 
Q 15.921875 -1.421875 10.953125 3.296875 
Q 6 8.015625 6 15.921875 
Q 6 25.140625 12.171875 29.828125 
Q 18.359375 34.515625 30.609375 34.515625 
L 43.21875 34.515625 
L 43.21875 35.40625 
Q 43.21875 41.609375 39.140625 45 
Q 35.0625 48.390625 27.6875 48.390625 
Q 23 48.390625 18.546875 47.265625 
Q 14.109375 46.140625 10.015625 43.890625 
L 10.015625 52.203125 
Q 14.9375 54.109375 19.578125 55.046875 
Q 24.21875 56 28.609375 56 
Q 40.484375 56 46.34375 49.84375 
Q 52.203125 43.703125 52.203125 31.203125 
z
" id="DejaVuSans-97"/>
       <path d="M 52 44.1875 
Q 55.375 50.25 60.0625 53.125 
Q 64.75 56 71.09375 56 
Q 79.640625 56 84.28125 50.015625 
Q 88.921875 44.046875 88.921875 33.015625 
L 88.921875 0 
L 79.890625 0 
L 79.890625 32.71875 
Q 79.890625 40.578125 77.09375 44.375 
Q 74.3125 48.1875 68.609375 48.1875 
Q 61.625 48.1875 57.5625 43.546875 
Q 53.515625 38.921875 53.515625 30.90625 
L 53.515625 0 
L 44.484375 0 
L 44.484375 32.71875 
Q 44.484375 40.625 41.703125 44.40625 
Q 38.921875 48.1875 33.109375 48.1875 
Q 26.21875 48.1875 22.15625 43.53125 
Q 18.109375 38.875 18.109375 30.90625 
L 18.109375 0 
L 9.078125 0 
L 9.078125 54.6875 
L 18.109375 54.6875 
L 18.109375 46.1875 
Q 21.1875 51.21875 25.484375 53.609375 
Q 29.78125 56 35.6875 56 
Q 41.65625 56 45.828125 52.96875 
Q 50 49.953125 52 44.1875 
z
" id="DejaVuSans-109"/>
       <path d="M 18.109375 8.203125 
L 18.109375 -20.796875 
L 9.078125 -20.796875 
L 9.078125 54.6875 
L 18.109375 54.6875 
L 18.109375 46.390625 
Q 20.953125 51.265625 25.265625 53.625 
Q 29.59375 56 35.59375 56 
Q 45.5625 56 51.78125 48.09375 
Q 58.015625 40.1875 58.015625 27.296875 
Q 58.015625 14.40625 51.78125 6.484375 
Q 45.5625 -1.421875 35.59375 -1.421875 
Q 29.59375 -1.421875 25.265625 0.953125 
Q 20.953125 3.328125 18.109375 8.203125 
z
M 48.6875 27.296875 
Q 48.6875 37.203125 44.609375 42.84375 
Q 40.53125 48.484375 33.40625 48.484375 
Q 26.265625 48.484375 22.1875 42.84375 
Q 18.109375 37.203125 18.109375 27.296875 
Q 18.109375 17.390625 22.1875 11.75 
Q 26.265625 6.109375 33.40625 6.109375 
Q 40.53125 6.109375 44.609375 11.75 
Q 48.6875 17.390625 48.6875 27.296875 
z
" id="DejaVuSans-112"/>
       <path d="M 9.421875 75.984375 
L 18.40625 75.984375 
L 18.40625 0 
L 9.421875 0 
z
" id="DejaVuSans-108"/>
       <path d="M 18.3125 70.21875 
L 18.3125 54.6875 
L 36.8125 54.6875 
L 36.8125 47.703125 
L 18.3125 47.703125 
L 18.3125 18.015625 
Q 18.3125 11.328125 20.140625 9.421875 
Q 21.96875 7.515625 27.59375 7.515625 
L 36.8125 7.515625 
L 36.8125 0 
L 27.59375 0 
Q 17.1875 0 13.234375 3.875 
Q 9.28125 7.765625 9.28125 18.015625 
L 9.28125 47.703125 
L 2.6875 47.703125 
L 2.6875 54.6875 
L 9.28125 54.6875 
L 9.28125 70.21875 
z
" id="DejaVuSans-116"/>
       <path d="M 8.5 21.578125 
L 8.5 54.6875 
L 17.484375 54.6875 
L 17.484375 21.921875 
Q 17.484375 14.15625 20.5 10.265625 
Q 23.53125 6.390625 29.59375 6.390625 
Q 36.859375 6.390625 41.078125 11.03125 
Q 45.3125 15.671875 45.3125 23.6875 
L 45.3125 54.6875 
L 54.296875 54.6875 
L 54.296875 0 
L 45.3125 0 
L 45.3125 8.40625 
Q 42.046875 3.421875 37.71875 1 
Q 33.40625 -1.421875 27.6875 -1.421875 
Q 18.265625 -1.421875 13.375 4.4375 
Q 8.5 10.296875 8.5 21.578125 
z
M 31.109375 56 
z
" id="DejaVuSans-117"/>
       <path d="M 45.40625 46.390625 
L 45.40625 75.984375 
L 54.390625 75.984375 
L 54.390625 0 
L 45.40625 0 
L 45.40625 8.203125 
Q 42.578125 3.328125 38.25 0.953125 
Q 33.9375 -1.421875 27.875 -1.421875 
Q 17.96875 -1.421875 11.734375 6.484375 
Q 5.515625 14.40625 5.515625 27.296875 
Q 5.515625 40.1875 11.734375 48.09375 
Q 17.96875 56 27.875 56 
Q 33.9375 56 38.25 53.625 
Q 42.578125 51.265625 45.40625 46.390625 
z
M 14.796875 27.296875 
Q 14.796875 17.390625 18.875 11.75 
Q 22.953125 6.109375 30.078125 6.109375 
Q 37.203125 6.109375 41.296875 11.75 
Q 45.40625 17.390625 45.40625 27.296875 
Q 45.40625 37.203125 41.296875 42.84375 
Q 37.203125 48.484375 30.078125 48.484375 
Q 22.953125 48.484375 18.875 42.84375 
Q 14.796875 37.203125 14.796875 27.296875 
z
" id="DejaVuSans-100"/>
       <path d="M 56.203125 29.59375 
L 56.203125 25.203125 
L 14.890625 25.203125 
Q 15.484375 15.921875 20.484375 11.0625 
Q 25.484375 6.203125 34.421875 6.203125 
Q 39.59375 6.203125 44.453125 7.46875 
Q 49.3125 8.734375 54.109375 11.28125 
L 54.109375 2.78125 
Q 49.265625 0.734375 44.1875 -0.34375 
Q 39.109375 -1.421875 33.890625 -1.421875 
Q 20.796875 -1.421875 13.15625 6.1875 
Q 5.515625 13.8125 5.515625 26.8125 
Q 5.515625 40.234375 12.765625 48.109375 
Q 20.015625 56 32.328125 56 
Q 43.359375 56 49.78125 48.890625 
Q 56.203125 41.796875 56.203125 29.59375 
z
M 47.21875 32.234375 
Q 47.125 39.59375 43.09375 43.984375 
Q 39.0625 48.390625 32.421875 48.390625 
Q 24.90625 48.390625 20.390625 44.140625 
Q 15.875 39.890625 15.1875 32.171875 
z
" id="DejaVuSans-101"/>
      </defs>
      <use xlink:href="#DejaVuSans-97"/>
      <use x="61.279297" xlink:href="#DejaVuSans-109"/>
      <use x="158.691406" xlink:href="#DejaVuSans-112"/>
      <use x="222.167969" xlink:href="#DejaVuSans-108"/>
      <use x="249.951172" xlink:href="#DejaVuSans-105"/>
      <use x="277.734375" xlink:href="#DejaVuSans-116"/>
      <use x="316.943359" xlink:href="#DejaVuSans-117"/>
      <use x="380.322266" xlink:href="#DejaVuSans-100"/>
      <use x="443.798828" xlink:href="#DejaVuSans-101"/>
     </g>
    </g>
   </g>
   <g id="LineCollection_1">
    <path clip-path="url(#pd6e6d4f9d8)" d="M 58.999432 228.439219 
L 58.999432 220.32955 
" style="fill:none;stroke:#1f77b4;stroke-width:1.5;"/>
    <path clip-path="url(#pd6e6d4f9d8)" d="M 63.112453 228.439219 
L 63.112453 152.443922 
" style="fill:none;stroke:#1f77b4;stroke-width:1.5;"/>
    <path clip-path="url(#pd6e6d4f9d8)" d="M 67.225431 228.439219 
L 67.225431 166.250132 
" style="fill:none;stroke:#1f77b4;stroke-width:1.5;"/>
    <path clip-path="url(#pd6e6d4f9d8)" d="M 71.338361 228.439219 
L 71.338361 93.99218 
" style="fill:none;stroke:#1f77b4;stroke-width:1.5;"/>
    <path clip-path="url(#pd6e6d4f9d8)" d="M 75.451331 228.439219 
L 75.451331 24.593322 
" style="fill:none;stroke:#1f77b4;stroke-width:1.5;"/>
    <path clip-path="url(#pd6e6d4f9d8)" d="M 79.56451 228.439219 
L 79.56451 140.987387 
" style="fill:none;stroke:#1f77b4;stroke-width:1.5;"/>
    <path clip-path="url(#pd6e6d4f9d8)" d="M 83.67751 228.439219 
L 83.67751 173.456833 
" style="fill:none;stroke:#1f77b4;stroke-width:1.5;"/>
    <path clip-path="url(#pd6e6d4f9d8)" d="M 87.790531 228.439219 
L 87.790531 228.203679 
" style="fill:none;stroke:#1f77b4;stroke-width:1.5;"/>
    <path clip-path="url(#pd6e6d4f9d8)" d="M 91.903569 228.439219 
L 91.903569 140.795691 
" style="fill:none;stroke:#1f77b4;stroke-width:1.5;"/>
    <path clip-path="url(#pd6e6d4f9d8)" d="M 96.016585 228.439219 
L 96.016585 133.276588 
" style="fill:none;stroke:#1f77b4;stroke-width:1.5;"/>
    <path clip-path="url(#pd6e6d4f9d8)" d="M 100.129625 228.439219 
L 100.129625 226.06665 
" style="fill:none;stroke:#1f77b4;stroke-width:1.5;"/>
    <path clip-path="url(#pd6e6d4f9d8)" d="M 104.242628 228.439219 
L 104.242628 159.77327 
" style="fill:none;stroke:#1f77b4;stroke-width:1.5;"/>
    <path clip-path="url(#pd6e6d4f9d8)" d="M 108.355635 228.439219 
L 108.355635 168.039993 
" style="fill:none;stroke:#1f77b4;stroke-width:1.5;"/>
    <path clip-path="url(#pd6e6d4f9d8)" d="M 112.468698 228.439219 
L 112.468698 213.019029 
" style="fill:none;stroke:#1f77b4;stroke-width:1.5;"/>
    <path clip-path="url(#pd6e6d4f9d8)" d="M 116.581682 228.439219 
L 116.581682 204.734879 
" style="fill:none;stroke:#1f77b4;stroke-width:1.5;"/>
    <path clip-path="url(#pd6e6d4f9d8)" d="M 120.694684 228.439219 
L 120.694684 175.629464 
" style="fill:none;stroke:#1f77b4;stroke-width:1.5;"/>
    <path clip-path="url(#pd6e6d4f9d8)" d="M 363.363068 228.439219 
L 363.363068 179.910277 
" style="fill:none;stroke:#1f77b4;stroke-width:1.5;"/>
    <path clip-path="url(#pd6e6d4f9d8)" d="M 359.250033 228.439219 
L 359.250033 197.874881 
" style="fill:none;stroke:#1f77b4;stroke-width:1.5;"/>
    <path clip-path="url(#pd6e6d4f9d8)" d="M 355.136979 228.439219 
L 355.136979 196.846176 
" style="fill:none;stroke:#1f77b4;stroke-width:1.5;"/>
    <path clip-path="url(#pd6e6d4f9d8)" d="M 351.024019 228.439219 
L 351.024019 188.783227 
" style="fill:none;stroke:#1f77b4;stroke-width:1.5;"/>
    <path clip-path="url(#pd6e6d4f9d8)" d="M 346.911002 228.439219 
L 346.911002 201.256608 
" style="fill:none;stroke:#1f77b4;stroke-width:1.5;"/>
    <path clip-path="url(#pd6e6d4f9d8)" d="M 342.798005 228.439219 
L 342.798005 221.239163 
" style="fill:none;stroke:#1f77b4;stroke-width:1.5;"/>
    <path clip-path="url(#pd6e6d4f9d8)" d="M 124.807696 228.439219 
L 124.807696 191.603084 
" style="fill:none;stroke:#1f77b4;stroke-width:1.5;"/>
    <path clip-path="url(#pd6e6d4f9d8)" d="M 338.684894 228.439219 
L 338.684894 188.755329 
" style="fill:none;stroke:#1f77b4;stroke-width:1.5;"/>
    <path clip-path="url(#pd6e6d4f9d8)" d="M 334.571897 228.439219 
L 334.571897 226.763972 
" style="fill:none;stroke:#1f77b4;stroke-width:1.5;"/>
    <path clip-path="url(#pd6e6d4f9d8)" d="M 128.920698 228.439219 
L 128.920698 190.907017 
" style="fill:none;stroke:#1f77b4;stroke-width:1.5;"/>
    <path clip-path="url(#pd6e6d4f9d8)" d="M 330.458861 228.439219 
L 330.458861 213.767272 
" style="fill:none;stroke:#1f77b4;stroke-width:1.5;"/>
    <path clip-path="url(#pd6e6d4f9d8)" d="M 133.033785 228.439219 
L 133.033785 202.264717 
" style="fill:none;stroke:#1f77b4;stroke-width:1.5;"/>
    <path clip-path="url(#pd6e6d4f9d8)" d="M 326.345845 228.439219 
L 326.345845 195.863523 
" style="fill:none;stroke:#1f77b4;stroke-width:1.5;"/>
    <path clip-path="url(#pd6e6d4f9d8)" d="M 322.232828 228.439219 
L 322.232828 217.264705 
" style="fill:none;stroke:#1f77b4;stroke-width:1.5;"/>
    <path clip-path="url(#pd6e6d4f9d8)" d="M 137.146769 228.439219 
L 137.146769 169.658963 
" style="fill:none;stroke:#1f77b4;stroke-width:1.5;"/>
    <path clip-path="url(#pd6e6d4f9d8)" d="M 318.119718 228.439219 
L 318.119718 194.120623 
" style="fill:none;stroke:#1f77b4;stroke-width:1.5;"/>
    <path clip-path="url(#pd6e6d4f9d8)" d="M 141.25987 228.439219 
L 141.25987 192.068257 
" style="fill:none;stroke:#1f77b4;stroke-width:1.5;"/>
    <path clip-path="url(#pd6e6d4f9d8)" d="M 314.006758 228.439219 
L 314.006758 228.222838 
" style="fill:none;stroke:#1f77b4;stroke-width:1.5;"/>
    <path clip-path="url(#pd6e6d4f9d8)" d="M 309.893798 228.439219 
L 309.893798 185.110718 
" style="fill:none;stroke:#1f77b4;stroke-width:1.5;"/>
    <path clip-path="url(#pd6e6d4f9d8)" d="M 145.372943 228.439219 
L 145.372943 185.407856 
" style="fill:none;stroke:#1f77b4;stroke-width:1.5;"/>
    <path clip-path="url(#pd6e6d4f9d8)" d="M 305.780744 228.439219 
L 305.780744 210.306931 
" style="fill:none;stroke:#1f77b4;stroke-width:1.5;"/>
    <path clip-path="url(#pd6e6d4f9d8)" d="M 301.667727 228.439219 
L 301.667727 220.594343 
" style="fill:none;stroke:#1f77b4;stroke-width:1.5;"/>
    <path clip-path="url(#pd6e6d4f9d8)" d="M 260.53745 228.439219 
L 260.53745 205.65163 
" style="fill:none;stroke:#1f77b4;stroke-width:1.5;"/>
    <path clip-path="url(#pd6e6d4f9d8)" d="M 264.650598 228.439219 
L 264.650598 221.561386 
" style="fill:none;stroke:#1f77b4;stroke-width:1.5;"/>
    <path clip-path="url(#pd6e6d4f9d8)" d="M 297.554673 228.439219 
L 297.554673 181.633771 
" style="fill:none;stroke:#1f77b4;stroke-width:1.5;"/>
    <path clip-path="url(#pd6e6d4f9d8)" d="M 256.424547 228.439219 
L 256.424547 203.839974 
" style="fill:none;stroke:#1f77b4;stroke-width:1.5;"/>
    <path clip-path="url(#pd6e6d4f9d8)" d="M 268.763521 228.439219 
L 268.763521 218.797471 
" style="fill:none;stroke:#1f77b4;stroke-width:1.5;"/>
    <path clip-path="url(#pd6e6d4f9d8)" d="M 252.311436 228.439219 
L 252.311436 197.638799 
" style="fill:none;stroke:#1f77b4;stroke-width:1.5;"/>
    <path clip-path="url(#pd6e6d4f9d8)" d="M 272.876518 228.439219 
L 272.876518 195.651361 
" style="fill:none;stroke:#1f77b4;stroke-width:1.5;"/>
    <path clip-path="url(#pd6e6d4f9d8)" d="M 248.19842 228.439219 
L 248.19842 210.129993 
" style="fill:none;stroke:#1f77b4;stroke-width:1.5;"/>
    <path clip-path="url(#pd6e6d4f9d8)" d="M 276.989629 228.439219 
L 276.989629 225.381894 
" style="fill:none;stroke:#1f77b4;stroke-width:1.5;"/>
    <path clip-path="url(#pd6e6d4f9d8)" d="M 244.085422 228.439219 
L 244.085422 191.050359 
" style="fill:none;stroke:#1f77b4;stroke-width:1.5;"/>
    <path clip-path="url(#pd6e6d4f9d8)" d="M 293.441713 228.439219 
L 293.441713 192.871163 
" style="fill:none;stroke:#1f77b4;stroke-width:1.5;"/>
    <path clip-path="url(#pd6e6d4f9d8)" d="M 281.102664 228.439219 
L 281.102664 193.79395 
" style="fill:none;stroke:#1f77b4;stroke-width:1.5;"/>
    <path clip-path="url(#pd6e6d4f9d8)" d="M 239.972349 228.439219 
L 239.972349 200.288656 
" style="fill:none;stroke:#1f77b4;stroke-width:1.5;"/>
    <path clip-path="url(#pd6e6d4f9d8)" d="M 149.485903 228.439219 
L 149.485903 226.630953 
" style="fill:none;stroke:#1f77b4;stroke-width:1.5;"/>
    <path clip-path="url(#pd6e6d4f9d8)" d="M 235.859333 228.439219 
L 235.859333 188.291801 
" style="fill:none;stroke:#1f77b4;stroke-width:1.5;"/>
    <path clip-path="url(#pd6e6d4f9d8)" d="M 153.598957 228.439219 
L 153.598957 187.373528 
" style="fill:none;stroke:#1f77b4;stroke-width:1.5;"/>
    <path clip-path="url(#pd6e6d4f9d8)" d="M 231.746297 228.439219 
L 231.746297 208.873716 
" style="fill:none;stroke:#1f77b4;stroke-width:1.5;"/>
    <path clip-path="url(#pd6e6d4f9d8)" d="M 285.215718 228.439219 
L 285.215718 191.029137 
" style="fill:none;stroke:#1f77b4;stroke-width:1.5;"/>
    <path clip-path="url(#pd6e6d4f9d8)" d="M 157.711898 228.439219 
L 157.711898 198.943158 
" style="fill:none;stroke:#1f77b4;stroke-width:1.5;"/>
    <path clip-path="url(#pd6e6d4f9d8)" d="M 227.6333 228.439219 
L 227.6333 205.034278 
" style="fill:none;stroke:#1f77b4;stroke-width:1.5;"/>
    <path clip-path="url(#pd6e6d4f9d8)" d="M 161.824961 228.439219 
L 161.824961 211.501789 
" style="fill:none;stroke:#1f77b4;stroke-width:1.5;"/>
    <path clip-path="url(#pd6e6d4f9d8)" d="M 223.520302 228.439219 
L 223.520302 226.099423 
" style="fill:none;stroke:#1f77b4;stroke-width:1.5;"/>
    <path clip-path="url(#pd6e6d4f9d8)" d="M 165.937903 228.439219 
L 165.937903 192.276849 
" style="fill:none;stroke:#1f77b4;stroke-width:1.5;"/>
    <path clip-path="url(#pd6e6d4f9d8)" d="M 211.181196 228.439219 
L 211.181196 175.032648 
" style="fill:none;stroke:#1f77b4;stroke-width:1.5;"/>
    <path clip-path="url(#pd6e6d4f9d8)" d="M 207.068227 228.439219 
L 207.068227 200.121631 
" style="fill:none;stroke:#1f77b4;stroke-width:1.5;"/>
    <path clip-path="url(#pd6e6d4f9d8)" d="M 202.955192 228.439219 
L 202.955192 209.433077 
" style="fill:none;stroke:#1f77b4;stroke-width:1.5;"/>
    <path clip-path="url(#pd6e6d4f9d8)" d="M 198.842185 228.439219 
L 198.842185 198.370342 
" style="fill:none;stroke:#1f77b4;stroke-width:1.5;"/>
    <path clip-path="url(#pd6e6d4f9d8)" d="M 194.729131 228.439219 
L 194.729131 182.168381 
" style="fill:none;stroke:#1f77b4;stroke-width:1.5;"/>
    <path clip-path="url(#pd6e6d4f9d8)" d="M 190.616076 228.439219 
L 190.616076 182.678948 
" style="fill:none;stroke:#1f77b4;stroke-width:1.5;"/>
    <path clip-path="url(#pd6e6d4f9d8)" d="M 182.3901 228.439219 
L 182.3901 201.991385 
" style="fill:none;stroke:#1f77b4;stroke-width:1.5;"/>
    <path clip-path="url(#pd6e6d4f9d8)" d="M 178.276999 228.439219 
L 178.276999 223.702954 
" style="fill:none;stroke:#1f77b4;stroke-width:1.5;"/>
    <path clip-path="url(#pd6e6d4f9d8)" d="M 186.503145 228.439219 
L 186.503145 215.150408 
" style="fill:none;stroke:#1f77b4;stroke-width:1.5;"/>
    <path clip-path="url(#pd6e6d4f9d8)" d="M 289.32864 228.439219 
L 289.32864 196.48535 
" style="fill:none;stroke:#1f77b4;stroke-width:1.5;"/>
    <path clip-path="url(#pd6e6d4f9d8)" d="M 170.050928 228.439219 
L 170.050928 226.755295 
" style="fill:none;stroke:#1f77b4;stroke-width:1.5;"/>
    <path clip-path="url(#pd6e6d4f9d8)" d="M 215.294288 228.439219 
L 215.294288 203.101359 
" style="fill:none;stroke:#1f77b4;stroke-width:1.5;"/>
    <path clip-path="url(#pd6e6d4f9d8)" d="M 174.164011 228.439219 
L 174.164011 218.616263 
" style="fill:none;stroke:#1f77b4;stroke-width:1.5;"/>
    <path clip-path="url(#pd6e6d4f9d8)" d="M 219.407267 228.439219 
L 219.407267 200.843054 
" style="fill:none;stroke:#1f77b4;stroke-width:1.5;"/>
   </g>
   <g id="line2d_15">
    <defs>
     <path d="M 0 3 
C 0.795609 3 1.55874 2.683901 2.12132 2.12132 
C 2.683901 1.55874 3 0.795609 3 0 
C 3 -0.795609 2.683901 -1.55874 2.12132 -2.12132 
C 1.55874 -2.683901 0.795609 -3 0 -3 
C -0.795609 -3 -1.55874 -2.683901 -2.12132 -2.12132 
C -2.683901 -1.55874 -3 -0.795609 -3 0 
C -3 0.795609 -2.683901 1.55874 -2.12132 2.12132 
C -1.55874 2.683901 -0.795609 3 0 3 
z
" id="m169bec8dc2" style="stroke:#1f77b4;"/>
    </defs>
    <g clip-path="url(#pd6e6d4f9d8)">
     <use style="fill:#1f77b4;stroke:#1f77b4;" x="58.999432" xlink:href="#m169bec8dc2" y="220.32955"/>
     <use style="fill:#1f77b4;stroke:#1f77b4;" x="63.112453" xlink:href="#m169bec8dc2" y="152.443922"/>
     <use style="fill:#1f77b4;stroke:#1f77b4;" x="67.225431" xlink:href="#m169bec8dc2" y="166.250132"/>
     <use style="fill:#1f77b4;stroke:#1f77b4;" x="71.338361" xlink:href="#m169bec8dc2" y="93.99218"/>
     <use style="fill:#1f77b4;stroke:#1f77b4;" x="75.451331" xlink:href="#m169bec8dc2" y="24.593322"/>
     <use style="fill:#1f77b4;stroke:#1f77b4;" x="79.56451" xlink:href="#m169bec8dc2" y="140.987387"/>
     <use style="fill:#1f77b4;stroke:#1f77b4;" x="83.67751" xlink:href="#m169bec8dc2" y="173.456833"/>
     <use style="fill:#1f77b4;stroke:#1f77b4;" x="87.790531" xlink:href="#m169bec8dc2" y="228.203679"/>
     <use style="fill:#1f77b4;stroke:#1f77b4;" x="91.903569" xlink:href="#m169bec8dc2" y="140.795691"/>
     <use style="fill:#1f77b4;stroke:#1f77b4;" x="96.016585" xlink:href="#m169bec8dc2" y="133.276588"/>
     <use style="fill:#1f77b4;stroke:#1f77b4;" x="100.129625" xlink:href="#m169bec8dc2" y="226.06665"/>
     <use style="fill:#1f77b4;stroke:#1f77b4;" x="104.242628" xlink:href="#m169bec8dc2" y="159.77327"/>
     <use style="fill:#1f77b4;stroke:#1f77b4;" x="108.355635" xlink:href="#m169bec8dc2" y="168.039993"/>
     <use style="fill:#1f77b4;stroke:#1f77b4;" x="112.468698" xlink:href="#m169bec8dc2" y="213.019029"/>
     <use style="fill:#1f77b4;stroke:#1f77b4;" x="116.581682" xlink:href="#m169bec8dc2" y="204.734879"/>
     <use style="fill:#1f77b4;stroke:#1f77b4;" x="120.694684" xlink:href="#m169bec8dc2" y="175.629464"/>
     <use style="fill:#1f77b4;stroke:#1f77b4;" x="363.363068" xlink:href="#m169bec8dc2" y="179.910277"/>
     <use style="fill:#1f77b4;stroke:#1f77b4;" x="359.250033" xlink:href="#m169bec8dc2" y="197.874881"/>
     <use style="fill:#1f77b4;stroke:#1f77b4;" x="355.136979" xlink:href="#m169bec8dc2" y="196.846176"/>
     <use style="fill:#1f77b4;stroke:#1f77b4;" x="351.024019" xlink:href="#m169bec8dc2" y="188.783227"/>
     <use style="fill:#1f77b4;stroke:#1f77b4;" x="346.911002" xlink:href="#m169bec8dc2" y="201.256608"/>
     <use style="fill:#1f77b4;stroke:#1f77b4;" x="342.798005" xlink:href="#m169bec8dc2" y="221.239163"/>
     <use style="fill:#1f77b4;stroke:#1f77b4;" x="124.807696" xlink:href="#m169bec8dc2" y="191.603084"/>
     <use style="fill:#1f77b4;stroke:#1f77b4;" x="338.684894" xlink:href="#m169bec8dc2" y="188.755329"/>
     <use style="fill:#1f77b4;stroke:#1f77b4;" x="334.571897" xlink:href="#m169bec8dc2" y="226.763972"/>
     <use style="fill:#1f77b4;stroke:#1f77b4;" x="128.920698" xlink:href="#m169bec8dc2" y="190.907017"/>
     <use style="fill:#1f77b4;stroke:#1f77b4;" x="330.458861" xlink:href="#m169bec8dc2" y="213.767272"/>
     <use style="fill:#1f77b4;stroke:#1f77b4;" x="133.033785" xlink:href="#m169bec8dc2" y="202.264717"/>
     <use style="fill:#1f77b4;stroke:#1f77b4;" x="326.345845" xlink:href="#m169bec8dc2" y="195.863523"/>
     <use style="fill:#1f77b4;stroke:#1f77b4;" x="322.232828" xlink:href="#m169bec8dc2" y="217.264705"/>
     <use style="fill:#1f77b4;stroke:#1f77b4;" x="137.146769" xlink:href="#m169bec8dc2" y="169.658963"/>
     <use style="fill:#1f77b4;stroke:#1f77b4;" x="318.119718" xlink:href="#m169bec8dc2" y="194.120623"/>
     <use style="fill:#1f77b4;stroke:#1f77b4;" x="141.25987" xlink:href="#m169bec8dc2" y="192.068257"/>
     <use style="fill:#1f77b4;stroke:#1f77b4;" x="314.006758" xlink:href="#m169bec8dc2" y="228.222838"/>
     <use style="fill:#1f77b4;stroke:#1f77b4;" x="309.893798" xlink:href="#m169bec8dc2" y="185.110718"/>
     <use style="fill:#1f77b4;stroke:#1f77b4;" x="145.372943" xlink:href="#m169bec8dc2" y="185.407856"/>
     <use style="fill:#1f77b4;stroke:#1f77b4;" x="305.780744" xlink:href="#m169bec8dc2" y="210.306931"/>
     <use style="fill:#1f77b4;stroke:#1f77b4;" x="301.667727" xlink:href="#m169bec8dc2" y="220.594343"/>
     <use style="fill:#1f77b4;stroke:#1f77b4;" x="260.53745" xlink:href="#m169bec8dc2" y="205.65163"/>
     <use style="fill:#1f77b4;stroke:#1f77b4;" x="264.650598" xlink:href="#m169bec8dc2" y="221.561386"/>
     <use style="fill:#1f77b4;stroke:#1f77b4;" x="297.554673" xlink:href="#m169bec8dc2" y="181.633771"/>
     <use style="fill:#1f77b4;stroke:#1f77b4;" x="256.424547" xlink:href="#m169bec8dc2" y="203.839974"/>
     <use style="fill:#1f77b4;stroke:#1f77b4;" x="268.763521" xlink:href="#m169bec8dc2" y="218.797471"/>
     <use style="fill:#1f77b4;stroke:#1f77b4;" x="252.311436" xlink:href="#m169bec8dc2" y="197.638799"/>
     <use style="fill:#1f77b4;stroke:#1f77b4;" x="272.876518" xlink:href="#m169bec8dc2" y="195.651361"/>
     <use style="fill:#1f77b4;stroke:#1f77b4;" x="248.19842" xlink:href="#m169bec8dc2" y="210.129993"/>
     <use style="fill:#1f77b4;stroke:#1f77b4;" x="276.989629" xlink:href="#m169bec8dc2" y="225.381894"/>
     <use style="fill:#1f77b4;stroke:#1f77b4;" x="244.085422" xlink:href="#m169bec8dc2" y="191.050359"/>
     <use style="fill:#1f77b4;stroke:#1f77b4;" x="293.441713" xlink:href="#m169bec8dc2" y="192.871163"/>
     <use style="fill:#1f77b4;stroke:#1f77b4;" x="281.102664" xlink:href="#m169bec8dc2" y="193.79395"/>
     <use style="fill:#1f77b4;stroke:#1f77b4;" x="239.972349" xlink:href="#m169bec8dc2" y="200.288656"/>
     <use style="fill:#1f77b4;stroke:#1f77b4;" x="149.485903" xlink:href="#m169bec8dc2" y="226.630953"/>
     <use style="fill:#1f77b4;stroke:#1f77b4;" x="235.859333" xlink:href="#m169bec8dc2" y="188.291801"/>
     <use style="fill:#1f77b4;stroke:#1f77b4;" x="153.598957" xlink:href="#m169bec8dc2" y="187.373528"/>
     <use style="fill:#1f77b4;stroke:#1f77b4;" x="231.746297" xlink:href="#m169bec8dc2" y="208.873716"/>
     <use style="fill:#1f77b4;stroke:#1f77b4;" x="285.215718" xlink:href="#m169bec8dc2" y="191.029137"/>
     <use style="fill:#1f77b4;stroke:#1f77b4;" x="157.711898" xlink:href="#m169bec8dc2" y="198.943158"/>
     <use style="fill:#1f77b4;stroke:#1f77b4;" x="227.6333" xlink:href="#m169bec8dc2" y="205.034278"/>
     <use style="fill:#1f77b4;stroke:#1f77b4;" x="161.824961" xlink:href="#m169bec8dc2" y="211.501789"/>
     <use style="fill:#1f77b4;stroke:#1f77b4;" x="223.520302" xlink:href="#m169bec8dc2" y="226.099423"/>
     <use style="fill:#1f77b4;stroke:#1f77b4;" x="165.937903" xlink:href="#m169bec8dc2" y="192.276849"/>
     <use style="fill:#1f77b4;stroke:#1f77b4;" x="211.181196" xlink:href="#m169bec8dc2" y="175.032648"/>
     <use style="fill:#1f77b4;stroke:#1f77b4;" x="207.068227" xlink:href="#m169bec8dc2" y="200.121631"/>
     <use style="fill:#1f77b4;stroke:#1f77b4;" x="202.955192" xlink:href="#m169bec8dc2" y="209.433077"/>
     <use style="fill:#1f77b4;stroke:#1f77b4;" x="198.842185" xlink:href="#m169bec8dc2" y="198.370342"/>
     <use style="fill:#1f77b4;stroke:#1f77b4;" x="194.729131" xlink:href="#m169bec8dc2" y="182.168381"/>
     <use style="fill:#1f77b4;stroke:#1f77b4;" x="190.616076" xlink:href="#m169bec8dc2" y="182.678948"/>
     <use style="fill:#1f77b4;stroke:#1f77b4;" x="182.3901" xlink:href="#m169bec8dc2" y="201.991385"/>
     <use style="fill:#1f77b4;stroke:#1f77b4;" x="178.276999" xlink:href="#m169bec8dc2" y="223.702954"/>
     <use style="fill:#1f77b4;stroke:#1f77b4;" x="186.503145" xlink:href="#m169bec8dc2" y="215.150408"/>
     <use style="fill:#1f77b4;stroke:#1f77b4;" x="289.32864" xlink:href="#m169bec8dc2" y="196.48535"/>
     <use style="fill:#1f77b4;stroke:#1f77b4;" x="170.050928" xlink:href="#m169bec8dc2" y="226.755295"/>
     <use style="fill:#1f77b4;stroke:#1f77b4;" x="215.294288" xlink:href="#m169bec8dc2" y="203.101359"/>
     <use style="fill:#1f77b4;stroke:#1f77b4;" x="174.164011" xlink:href="#m169bec8dc2" y="218.616263"/>
     <use style="fill:#1f77b4;stroke:#1f77b4;" x="219.407267" xlink:href="#m169bec8dc2" y="200.843054"/>
    </g>
   </g>
   <g id="line2d_16">
    <path clip-path="url(#pd6e6d4f9d8)" d="M 58.999432 228.439219 
L 363.363068 228.439219 
" style="fill:none;stroke:#000000;stroke-linecap:square;stroke-opacity:0;stroke-width:1.5;"/>
   </g>
   <g id="patch_3">
    <path d="M 43.78125 228.439219 
L 43.78125 10.999219 
" style="fill:none;stroke:#000000;stroke-linecap:square;stroke-linejoin:miter;stroke-width:0.8;"/>
   </g>
   <g id="patch_4">
    <path d="M 378.58125 228.439219 
L 378.58125 10.999219 
" style="fill:none;stroke:#000000;stroke-linecap:square;stroke-linejoin:miter;stroke-width:0.8;"/>
   </g>
   <g id="patch_5">
    <path d="M 43.78125 228.439219 
L 378.58125 228.439219 
" style="fill:none;stroke:#000000;stroke-linecap:square;stroke-linejoin:miter;stroke-width:0.8;"/>
   </g>
   <g id="patch_6">
    <path d="M 43.78125 10.999219 
L 378.58125 10.999219 
" style="fill:none;stroke:#000000;stroke-linecap:square;stroke-linejoin:miter;stroke-width:0.8;"/>
   </g>
   <g id="text_17">
    <!-- buffet mode (8), $f=33.33Hz$ -->
    <g transform="translate(81.620865 24.593322)scale(0.1 -0.1)">
     <defs>
      <path d="M 48.6875 27.296875 
Q 48.6875 37.203125 44.609375 42.84375 
Q 40.53125 48.484375 33.40625 48.484375 
Q 26.265625 48.484375 22.1875 42.84375 
Q 18.109375 37.203125 18.109375 27.296875 
Q 18.109375 17.390625 22.1875 11.75 
Q 26.265625 6.109375 33.40625 6.109375 
Q 40.53125 6.109375 44.609375 11.75 
Q 48.6875 17.390625 48.6875 27.296875 
z
M 18.109375 46.390625 
Q 20.953125 51.265625 25.265625 53.625 
Q 29.59375 56 35.59375 56 
Q 45.5625 56 51.78125 48.09375 
Q 58.015625 40.1875 58.015625 27.296875 
Q 58.015625 14.40625 51.78125 6.484375 
Q 45.5625 -1.421875 35.59375 -1.421875 
Q 29.59375 -1.421875 25.265625 0.953125 
Q 20.953125 3.328125 18.109375 8.203125 
L 18.109375 0 
L 9.078125 0 
L 9.078125 75.984375 
L 18.109375 75.984375 
z
" id="DejaVuSans-98"/>
      <path d="M 37.109375 75.984375 
L 37.109375 68.5 
L 28.515625 68.5 
Q 23.6875 68.5 21.796875 66.546875 
Q 19.921875 64.59375 19.921875 59.515625 
L 19.921875 54.6875 
L 34.71875 54.6875 
L 34.71875 47.703125 
L 19.921875 47.703125 
L 19.921875 0 
L 10.890625 0 
L 10.890625 47.703125 
L 2.296875 47.703125 
L 2.296875 54.6875 
L 10.890625 54.6875 
L 10.890625 58.5 
Q 10.890625 67.625 15.140625 71.796875 
Q 19.390625 75.984375 28.609375 75.984375 
z
" id="DejaVuSans-102"/>
      <path d="M 30.609375 48.390625 
Q 23.390625 48.390625 19.1875 42.75 
Q 14.984375 37.109375 14.984375 27.296875 
Q 14.984375 17.484375 19.15625 11.84375 
Q 23.34375 6.203125 30.609375 6.203125 
Q 37.796875 6.203125 41.984375 11.859375 
Q 46.1875 17.53125 46.1875 27.296875 
Q 46.1875 37.015625 41.984375 42.703125 
Q 37.796875 48.390625 30.609375 48.390625 
z
M 30.609375 56 
Q 42.328125 56 49.015625 48.375 
Q 55.71875 40.765625 55.71875 27.296875 
Q 55.71875 13.875 49.015625 6.21875 
Q 42.328125 -1.421875 30.609375 -1.421875 
Q 18.84375 -1.421875 12.171875 6.21875 
Q 5.515625 13.875 5.515625 27.296875 
Q 5.515625 40.765625 12.171875 48.375 
Q 18.84375 56 30.609375 56 
z
" id="DejaVuSans-111"/>
      <path d="M 31 75.875 
Q 24.46875 64.65625 21.28125 53.65625 
Q 18.109375 42.671875 18.109375 31.390625 
Q 18.109375 20.125 21.3125 9.0625 
Q 24.515625 -2 31 -13.1875 
L 23.1875 -13.1875 
Q 15.875 -1.703125 12.234375 9.375 
Q 8.59375 20.453125 8.59375 31.390625 
Q 8.59375 42.28125 12.203125 53.3125 
Q 15.828125 64.359375 23.1875 75.875 
z
" id="DejaVuSans-40"/>
      <path d="M 31.78125 34.625 
Q 24.75 34.625 20.71875 30.859375 
Q 16.703125 27.09375 16.703125 20.515625 
Q 16.703125 13.921875 20.71875 10.15625 
Q 24.75 6.390625 31.78125 6.390625 
Q 38.8125 6.390625 42.859375 10.171875 
Q 46.921875 13.96875 46.921875 20.515625 
Q 46.921875 27.09375 42.890625 30.859375 
Q 38.875 34.625 31.78125 34.625 
z
M 21.921875 38.8125 
Q 15.578125 40.375 12.03125 44.71875 
Q 8.5 49.078125 8.5 55.328125 
Q 8.5 64.0625 14.71875 69.140625 
Q 20.953125 74.21875 31.78125 74.21875 
Q 42.671875 74.21875 48.875 69.140625 
Q 55.078125 64.0625 55.078125 55.328125 
Q 55.078125 49.078125 51.53125 44.71875 
Q 48 40.375 41.703125 38.8125 
Q 48.828125 37.15625 52.796875 32.3125 
Q 56.78125 27.484375 56.78125 20.515625 
Q 56.78125 9.90625 50.3125 4.234375 
Q 43.84375 -1.421875 31.78125 -1.421875 
Q 19.734375 -1.421875 13.25 4.234375 
Q 6.78125 9.90625 6.78125 20.515625 
Q 6.78125 27.484375 10.78125 32.3125 
Q 14.796875 37.15625 21.921875 38.8125 
z
M 18.3125 54.390625 
Q 18.3125 48.734375 21.84375 45.5625 
Q 25.390625 42.390625 31.78125 42.390625 
Q 38.140625 42.390625 41.71875 45.5625 
Q 45.3125 48.734375 45.3125 54.390625 
Q 45.3125 60.0625 41.71875 63.234375 
Q 38.140625 66.40625 31.78125 66.40625 
Q 25.390625 66.40625 21.84375 63.234375 
Q 18.3125 60.0625 18.3125 54.390625 
z
" id="DejaVuSans-56"/>
      <path d="M 8.015625 75.875 
L 15.828125 75.875 
Q 23.140625 64.359375 26.78125 53.3125 
Q 30.421875 42.28125 30.421875 31.390625 
Q 30.421875 20.453125 26.78125 9.375 
Q 23.140625 -1.703125 15.828125 -13.1875 
L 8.015625 -13.1875 
Q 14.5 -2 17.703125 9.0625 
Q 20.90625 20.125 20.90625 31.390625 
Q 20.90625 42.671875 17.703125 53.65625 
Q 14.5 64.65625 8.015625 75.875 
z
" id="DejaVuSans-41"/>
      <path d="M 11.71875 12.40625 
L 22.015625 12.40625 
L 22.015625 4 
L 14.015625 -11.625 
L 7.71875 -11.625 
L 11.71875 4 
z
" id="DejaVuSans-44"/>
      <path d="M 10.59375 45.40625 
L 73.1875 45.40625 
L 73.1875 37.203125 
L 10.59375 37.203125 
z
M 10.59375 25.484375 
L 73.1875 25.484375 
L 73.1875 17.1875 
L 10.59375 17.1875 
z
" id="DejaVuSans-61"/>
     </defs>
     <use transform="translate(0 0.015625)" xlink:href="#DejaVuSans-98"/>
     <use transform="translate(63.476562 0.015625)" xlink:href="#DejaVuSans-117"/>
     <use transform="translate(126.855469 0.015625)" xlink:href="#DejaVuSans-102"/>
     <use transform="translate(162.060547 0.015625)" xlink:href="#DejaVuSans-102"/>
     <use transform="translate(197.265625 0.015625)" xlink:href="#DejaVuSans-101"/>
     <use transform="translate(258.789062 0.015625)" xlink:href="#DejaVuSans-116"/>
     <use transform="translate(297.998047 0.015625)" xlink:href="#DejaVuSans-32"/>
     <use transform="translate(329.785156 0.015625)" xlink:href="#DejaVuSans-109"/>
     <use transform="translate(427.197266 0.015625)" xlink:href="#DejaVuSans-111"/>
     <use transform="translate(488.378906 0.015625)" xlink:href="#DejaVuSans-100"/>
     <use transform="translate(551.855469 0.015625)" xlink:href="#DejaVuSans-101"/>
     <use transform="translate(613.378906 0.015625)" xlink:href="#DejaVuSans-32"/>
     <use transform="translate(645.166016 0.015625)" xlink:href="#DejaVuSans-40"/>
     <use transform="translate(684.179688 0.015625)" xlink:href="#DejaVuSans-56"/>
     <use transform="translate(747.802734 0.015625)" xlink:href="#DejaVuSans-41"/>
     <use transform="translate(786.816406 0.015625)" xlink:href="#DejaVuSans-44"/>
     <use transform="translate(818.603516 0.015625)" xlink:href="#DejaVuSans-32"/>
     <use transform="translate(850.390625 0.015625)" xlink:href="#DejaVuSans-Oblique-102"/>
     <use transform="translate(905.078125 0.015625)" xlink:href="#DejaVuSans-61"/>
     <use transform="translate(1008.349609 0.015625)" xlink:href="#DejaVuSans-51"/>
     <use transform="translate(1071.972656 0.015625)" xlink:href="#DejaVuSans-51"/>
     <use transform="translate(1135.595703 0.015625)" xlink:href="#DejaVuSans-46"/>
     <use transform="translate(1167.382812 0.015625)" xlink:href="#DejaVuSans-51"/>
     <use transform="translate(1231.005859 0.015625)" xlink:href="#DejaVuSans-51"/>
     <use transform="translate(1291.003906 0.015625)" xlink:href="#DejaVuSans-Oblique-72"/>
     <use transform="translate(1366.199219 0.015625)" xlink:href="#DejaVuSans-Oblique-122"/>
    </g>
   </g>
  </g>
 </g>
 <defs>
  <clipPath id="pd6e6d4f9d8">
   <rect height="217.44" width="334.8" x="43.78125" y="10.999219"/>
  </clipPath>
 </defs>
</svg>
