<?xml version="1.0" encoding="utf-8" standalone="no"?>
<!DOCTYPE svg PUBLIC "-//W3C//DTD SVG 1.1//EN"
  "http://www.w3.org/Graphics/SVG/1.1/DTD/svg11.dtd">
<!-- Created with matplotlib (https://matplotlib.org/) -->
<svg height="207.55845pt" version="1.1" viewBox="0 0 383.999682 207.55845" width="383.999682pt" xmlns="http://www.w3.org/2000/svg" xmlns:xlink="http://www.w3.org/1999/xlink">
 <metadata>
  <rdf:RDF xmlns:cc="http://creativecommons.org/ns#" xmlns:dc="http://purl.org/dc/elements/1.1/" xmlns:rdf="http://www.w3.org/1999/02/22-rdf-syntax-ns#">
   <cc:Work>
    <dc:type rdf:resource="http://purl.org/dc/dcmitype/StillImage"/>
    <dc:date>2022-05-24T16:59:21.436192</dc:date>
    <dc:format>image/svg+xml</dc:format>
    <dc:creator>
     <cc:Agent>
      <dc:title>Matplotlib v3.3.3, https://matplotlib.org/</dc:title>
     </cc:Agent>
    </dc:creator>
   </cc:Work>
  </rdf:RDF>
 </metadata>
 <defs>
  <style type="text/css">*{stroke-linecap:butt;stroke-linejoin:round;}</style>
 </defs>
 <g id="figure_1">
  <g id="patch_1">
   <path d="M 0 207.55845 
L 383.999682 207.55845 
L 383.999682 0 
L 0 0 
z
" style="fill:none;"/>
  </g>
  <g id="axes_1">
   <g id="patch_2">
    <path d="M 41.999682 170.28 
L 376.799682 170.28 
L 376.799682 7.2 
L 41.999682 7.2 
z
" style="fill:#ffffff;"/>
   </g>
   <g id="matplotlib.axis_1">
    <g id="xtick_1">
     <g id="line2d_1">
      <defs>
       <path d="M 0 0 
L 0 3.5 
" id="m284df32135" style="stroke:#000000;stroke-width:0.8;"/>
      </defs>
      <g>
       <use style="stroke:#000000;stroke-width:0.8;" x="84.6923" xlink:href="#m284df32135" y="170.28"/>
      </g>
     </g>
     <g id="text_1">
      <!-- $\mathdefault{2}$ -->
      <g transform="translate(82.201632 184.198498)scale(0.1 -0.1)">
       <defs>
        <path d="M 41.703125 15.453125 
L 39.90625 15.453125 
C 38.90625 8.375 38.09375 7.171875 37.703125 6.5625 
C 37.203125 5.765625 30 5.765625 28.59375 5.765625 
L 9.40625 5.765625 
C 13 9.671875 20 16.75 28.5 24.953125 
C 34.59375 30.734375 41.703125 37.53125 41.703125 47.421875 
C 41.703125 59.21875 32.296875 66 21.796875 66 
C 10.796875 66 4.09375 56.3125 4.09375 47.34375 
C 4.09375 43.4375 7 42.9375 8.203125 42.9375 
C 9.203125 42.9375 12.203125 43.546875 12.203125 47.03125 
C 12.203125 50.109375 9.59375 51 8.203125 51 
C 7.59375 51 7 50.90625 6.59375 50.703125 
C 8.5 59.21875 14.296875 63.40625 20.40625 63.40625 
C 29.09375 63.40625 34.796875 56.515625 34.796875 47.421875 
C 34.796875 38.734375 29.703125 31.25 24 24.75 
L 4.09375 2.28125 
L 4.09375 0 
L 39.296875 0 
z
" id="CMR17-50"/>
       </defs>
       <use transform="scale(0.996264)" xlink:href="#CMR17-50"/>
      </g>
     </g>
    </g>
    <g id="xtick_2">
     <g id="line2d_2">
      <g>
       <use style="stroke:#000000;stroke-width:0.8;" x="129.631897" xlink:href="#m284df32135" y="170.28"/>
      </g>
     </g>
     <g id="text_2">
      <!-- $\mathdefault{4}$ -->
      <g transform="translate(127.14123 184.198498)scale(0.1 -0.1)">
       <defs>
        <path d="M 33.59375 64.40625 
C 33.59375 66.5 33.5 66.5 31.703125 66.5 
L 2 19.59375 
L 2 17 
L 27.796875 17 
L 27.796875 7.140625 
C 27.796875 3.5 27.59375 2.5 20.59375 2.5 
L 18.703125 2.5 
L 18.703125 0 
C 21.90625 0 27.296875 0 30.703125 0 
C 34.09375 0 39.5 0 42.703125 0 
L 42.703125 2.5 
L 40.796875 2.5 
C 33.796875 2.5 33.59375 3.5 33.59375 7.140625 
L 33.59375 17 
L 43.796875 17 
L 43.796875 19.59375 
L 33.59375 19.59375 
z
M 28.09375 57.859375 
L 28.09375 19.59375 
L 4 19.59375 
z
" id="CMR17-52"/>
       </defs>
       <use transform="scale(0.996264)" xlink:href="#CMR17-52"/>
      </g>
     </g>
    </g>
    <g id="xtick_3">
     <g id="line2d_3">
      <g>
       <use style="stroke:#000000;stroke-width:0.8;" x="174.571495" xlink:href="#m284df32135" y="170.28"/>
      </g>
     </g>
     <g id="text_3">
      <!-- $\mathdefault{6}$ -->
      <g transform="translate(172.080827 184.198498)scale(0.1 -0.1)">
       <defs>
        <path d="M 10.59375 34 
C 10.59375 57.65625 21.796875 63 28.296875 63 
C 30.40625 63 35.5 62.640625 37.5 59 
C 35.90625 59 32.90625 59 32.90625 55.515625 
C 32.90625 52.828125 35.09375 51.921875 36.5 51.921875 
C 37.40625 51.921875 40.09375 52.3125 40.09375 55.625 
C 40.09375 61.78125 35.09375 65.296875 28.203125 65.296875 
C 16.296875 65.296875 3.796875 52.96875 3.796875 31 
C 3.796875 3.953125 15.09375 -2 23.09375 -2 
C 32.796875 -2 42 6.671875 42 20.046875 
C 42 32.515625 33.90625 41.59375 23.703125 41.59375 
C 17.59375 41.59375 13.09375 37.609375 10.59375 30.625 
z
M 23.09375 0.390625 
C 10.796875 0.390625 10.796875 18.75 10.796875 22.4375 
C 10.796875 29.625 14.203125 40 23.5 40 
C 25.203125 40 30.09375 40 33.40625 33.125 
C 35.203125 29.21875 35.203125 25.140625 35.203125 20.140625 
C 35.203125 14.75 35.203125 10.78125 33.09375 6.78125 
C 30.90625 2.671875 27.703125 0.390625 23.09375 0.390625 
z
" id="CMR17-54"/>
       </defs>
       <use transform="scale(0.996264)" xlink:href="#CMR17-54"/>
      </g>
     </g>
    </g>
    <g id="xtick_4">
     <g id="line2d_4">
      <g>
       <use style="stroke:#000000;stroke-width:0.8;" x="219.511092" xlink:href="#m284df32135" y="170.28"/>
      </g>
     </g>
     <g id="text_4">
      <!-- $\mathdefault{8}$ -->
      <g transform="translate(217.020424 184.198498)scale(0.1 -0.1)">
       <defs>
        <path d="M 27.203125 35.375 
C 33.5 38.546875 39.90625 43.328125 39.90625 50.984375 
C 39.90625 60.015625 31.09375 65.296875 23 65.296875 
C 13.90625 65.296875 5.90625 58.734375 5.90625 49.6875 
C 5.90625 47.203125 6.5 42.921875 10.40625 39.140625 
C 11.40625 38.15625 15.59375 35.171875 18.296875 33.28125 
C 13.796875 30.984375 3.296875 25.53125 3.296875 14.59375 
C 3.296875 4.359375 13.09375 -2 22.796875 -2 
C 33.5 -2 42.5 5.65625 42.5 15.78125 
C 42.5 24.84375 36.40625 29.015625 32.40625 31.703125 
z
M 14.09375 44.09375 
C 13.296875 44.59375 9.296875 47.671875 9.296875 52.359375 
C 9.296875 58.421875 15.59375 63 22.796875 63 
C 30.703125 63 36.5 57.4375 36.5 50.96875 
C 36.5 41.703125 26.09375 36.421875 25.59375 36.421875 
C 25.5 36.421875 25.40625 36.421875 24.59375 37.03125 
z
M 32.5 23.734375 
C 34 22.640625 38.796875 19.375 38.796875 13.296875 
C 38.796875 5.953125 31.40625 0.390625 23 0.390625 
C 13.90625 0.390625 7 6.84375 7 14.6875 
C 7 22.546875 13.09375 29.09375 20 32.1875 
z
" id="CMR17-56"/>
       </defs>
       <use transform="scale(0.996264)" xlink:href="#CMR17-56"/>
      </g>
     </g>
    </g>
    <g id="xtick_5">
     <g id="line2d_5">
      <g>
       <use style="stroke:#000000;stroke-width:0.8;" x="264.450689" xlink:href="#m284df32135" y="170.28"/>
      </g>
     </g>
     <g id="text_5">
      <!-- $\mathdefault{10}$ -->
      <g transform="translate(259.469354 184.198498)scale(0.1 -0.1)">
       <defs>
        <path d="M 26.59375 63.40625 
C 26.59375 65.5 26.5 65.5 25.09375 65.5 
C 21.203125 61.1875 15.296875 59.796875 9.703125 59.796875 
C 9.40625 59.796875 8.90625 59.796875 8.796875 59.5 
C 8.703125 59.296875 8.703125 59.09375 8.703125 57 
C 11.796875 57 17 57.59375 21 59.984375 
L 21 7.203125 
C 21 3.6875 20.796875 2.5 12.203125 2.5 
L 9.203125 2.5 
L 9.203125 0 
C 14 0 19 0 23.796875 0 
C 28.59375 0 33.59375 0 38.40625 0 
L 38.40625 2.5 
L 35.40625 2.5 
C 26.796875 2.5 26.59375 3.59375 26.59375 7.15625 
z
" id="CMR17-49"/>
        <path d="M 42 31.640625 
C 42 37.75 41.90625 48.125 37.703125 56.109375 
C 34 63.109375 28.09375 65.59375 22.90625 65.59375 
C 18.09375 65.59375 12 63.40625 8.203125 56.203125 
C 4.203125 48.71875 3.796875 39.4375 3.796875 31.640625 
C 3.796875 25.953125 3.90625 17.28125 7 9.671875 
C 11.296875 -0.609375 19 -2 22.90625 -2 
C 27.5 -2 34.5 -0.109375 38.59375 9.375 
C 41.59375 16.28125 42 24.359375 42 31.640625 
z
M 22.90625 -0.40625 
C 16.5 -0.40625 12.703125 5.078125 11.296875 12.6875 
C 10.203125 18.5625 10.203125 27.15625 10.203125 32.75 
C 10.203125 40.4375 10.203125 46.828125 11.5 52.921875 
C 13.40625 61.390625 19 64 22.90625 64 
C 27 64 32.296875 61.296875 34.203125 53.125 
C 35.5 47.4375 35.59375 40.734375 35.59375 32.75 
C 35.59375 26.25 35.59375 18.265625 34.40625 12.375 
C 32.296875 1.484375 26.40625 -0.40625 22.90625 -0.40625 
z
" id="CMR17-48"/>
       </defs>
       <use transform="scale(0.996264)" xlink:href="#CMR17-49"/>
       <use transform="translate(45.690477 0)scale(0.996264)" xlink:href="#CMR17-48"/>
      </g>
     </g>
    </g>
    <g id="xtick_6">
     <g id="line2d_6">
      <g>
       <use style="stroke:#000000;stroke-width:0.8;" x="309.390286" xlink:href="#m284df32135" y="170.28"/>
      </g>
     </g>
     <g id="text_6">
      <!-- $\mathdefault{12}$ -->
      <g transform="translate(304.408951 184.198498)scale(0.1 -0.1)">
       <use transform="scale(0.996264)" xlink:href="#CMR17-49"/>
       <use transform="translate(45.690477 0)scale(0.996264)" xlink:href="#CMR17-50"/>
      </g>
     </g>
    </g>
    <g id="xtick_7">
     <g id="line2d_7">
      <g>
       <use style="stroke:#000000;stroke-width:0.8;" x="354.329884" xlink:href="#m284df32135" y="170.28"/>
      </g>
     </g>
     <g id="text_7">
      <!-- $\mathdefault{14}$ -->
      <g transform="translate(349.348549 184.198498)scale(0.1 -0.1)">
       <use transform="scale(0.996264)" xlink:href="#CMR17-49"/>
       <use transform="translate(45.690477 0)scale(0.996264)" xlink:href="#CMR17-52"/>
      </g>
     </g>
    </g>
    <g id="text_8">
     <!-- $\bar{f}$ -->
     <g transform="translate(205.836613 198.421271)scale(0.1 -0.1)">
      <defs>
       <path d="M 39.90625 55 
L 39.90625 57.28125 
L 5.90625 57.28125 
L 5.90625 55 
z
" id="CMR17-22"/>
       <path d="M 44.59375 40.09375 
C 46.59375 40.09375 47.40625 40.09375 47.40625 42 
C 47.40625 43 46.59375 43 44.796875 43 
L 36.703125 43 
C 38.59375 53.578125 40 60.890625 40.796875 64.171875 
C 41.40625 66.640625 43.5 69 46.09375 69 
C 48.203125 69 50.296875 68.09375 51.296875 67.15625 
C 47.40625 66.75 46.203125 63.78125 46.203125 62.015625 
C 46.203125 59.953125 47.703125 58.734375 49.59375 58.734375 
C 51.59375 58.734375 54.59375 60.46875 54.59375 64.359375 
C 54.59375 68.640625 50.40625 71 46 71 
C 41.703125 71 37.5 67.71875 35.5 63.71875 
C 33.703125 60.125 32.703125 56.421875 30.40625 43 
L 23.703125 43 
C 21.796875 43 20.796875 43 20.796875 41.203125 
C 20.796875 40.09375 21.40625 40.09375 23.40625 40.09375 
L 29.796875 40.09375 
C 28 30.875 23.90625 8.46875 21.59375 -2.140625 
C 19.90625 -10.765625 18.40625 -18 13.40625 -18 
C 13.09375 -18 10.203125 -18 8.40625 -16.109375 
C 13.5 -15.703125 13.5 -11.34375 13.5 -11.25 
C 13.5 -9.265625 12 -8.078125 10.09375 -8.078125 
C 8.09375 -8.078125 5.09375 -9.765625 5.09375 -13.546875 
C 5.09375 -17.8125 9.5 -20 13.40625 -20 
C 23.59375 -20 27.796875 -1.84375 28.90625 3.109375 
C 30.703125 10.75 35.59375 37.125 36.09375 40.09375 
z
" id="CMMI12-102"/>
      </defs>
      <use transform="translate(22.773228 26.296621)scale(0.996264)" xlink:href="#CMR17-22"/>
      <use transform="scale(0.996264)" xlink:href="#CMMI12-102"/>
     </g>
    </g>
   </g>
   <g id="matplotlib.axis_2">
    <g id="ytick_1">
     <g id="line2d_8">
      <defs>
       <path d="M 0 0 
L -3.5 0 
" id="m5137bc5f22" style="stroke:#000000;stroke-width:0.8;"/>
      </defs>
      <g>
       <use style="stroke:#000000;stroke-width:0.8;" x="41.999682" xlink:href="#m5137bc5f22" y="170.28"/>
      </g>
     </g>
     <g id="text_9">
      <!-- $\mathdefault{0}$ -->
      <g transform="translate(30.018347 173.739249)scale(0.1 -0.1)">
       <use transform="scale(0.996264)" xlink:href="#CMR17-48"/>
      </g>
     </g>
    </g>
    <g id="ytick_2">
     <g id="line2d_9">
      <g>
       <use style="stroke:#000000;stroke-width:0.8;" x="41.999682" xlink:href="#m5137bc5f22" y="145.726888"/>
      </g>
     </g>
     <g id="text_10">
      <!-- $\mathdefault{100}$ -->
      <g transform="translate(20.055677 149.186138)scale(0.1 -0.1)">
       <use transform="scale(0.996264)" xlink:href="#CMR17-49"/>
       <use transform="translate(45.690477 0)scale(0.996264)" xlink:href="#CMR17-48"/>
       <use transform="translate(91.380954 0)scale(0.996264)" xlink:href="#CMR17-48"/>
      </g>
     </g>
    </g>
    <g id="ytick_3">
     <g id="line2d_10">
      <g>
       <use style="stroke:#000000;stroke-width:0.8;" x="41.999682" xlink:href="#m5137bc5f22" y="121.173777"/>
      </g>
     </g>
     <g id="text_11">
      <!-- $\mathdefault{200}$ -->
      <g transform="translate(20.055677 124.633026)scale(0.1 -0.1)">
       <use transform="scale(0.996264)" xlink:href="#CMR17-50"/>
       <use transform="translate(45.690477 0)scale(0.996264)" xlink:href="#CMR17-48"/>
       <use transform="translate(91.380954 0)scale(0.996264)" xlink:href="#CMR17-48"/>
      </g>
     </g>
    </g>
    <g id="ytick_4">
     <g id="line2d_11">
      <g>
       <use style="stroke:#000000;stroke-width:0.8;" x="41.999682" xlink:href="#m5137bc5f22" y="96.620665"/>
      </g>
     </g>
     <g id="text_12">
      <!-- $\mathdefault{300}$ -->
      <g transform="translate(20.055677 100.079915)scale(0.1 -0.1)">
       <defs>
        <path d="M 22.09375 33.703125 
C 31 33.703125 34.90625 25.96875 34.90625 17.03125 
C 34.90625 5 28.5 0.390625 22.703125 0.390625 
C 17.40625 0.390625 8.796875 3.03125 6.09375 10.828125 
C 6.59375 10.625 7.09375 10.625 7.59375 10.625 
C 10 10.625 11.796875 12.21875 11.796875 14.8125 
C 11.796875 17.703125 9.59375 19 7.59375 19 
C 5.90625 19 3.296875 18.203125 3.296875 14.46875 
C 3.296875 5.234375 12.296875 -2 22.90625 -2 
C 34 -2 42.5 6.71875 42.5 16.953125 
C 42.5 26.671875 34.5 33.703125 25 34.796875 
C 32.59375 36.375 39.90625 43.0625 39.90625 52.015625 
C 39.90625 59.6875 32 65.296875 23 65.296875 
C 13.90625 65.296875 5.90625 59.828125 5.90625 52.015625 
C 5.90625 48.59375 8.5 48 9.796875 48 
C 11.90625 48 13.703125 49.296875 13.703125 51.890625 
C 13.703125 54.46875 11.90625 55.765625 9.796875 55.765625 
C 9.40625 55.765625 8.90625 55.765625 8.5 55.578125 
C 11.40625 61.859375 19.296875 63 22.796875 63 
C 26.296875 63 32.90625 61.328125 32.90625 51.875 
C 32.90625 49.109375 32.5 44.1875 29.09375 39.84375 
C 26.09375 36 22.703125 36 19.40625 35.6875 
C 18.90625 35.6875 16.59375 35.453125 16.203125 35.453125 
C 15.5 35.359375 15.09375 35.265625 15.09375 34.5 
C 15.09375 33.796875 15.203125 33.703125 17.203125 33.703125 
z
" id="CMR17-51"/>
       </defs>
       <use transform="scale(0.996264)" xlink:href="#CMR17-51"/>
       <use transform="translate(45.690477 0)scale(0.996264)" xlink:href="#CMR17-48"/>
       <use transform="translate(91.380954 0)scale(0.996264)" xlink:href="#CMR17-48"/>
      </g>
     </g>
    </g>
    <g id="ytick_5">
     <g id="line2d_12">
      <g>
       <use style="stroke:#000000;stroke-width:0.8;" x="41.999682" xlink:href="#m5137bc5f22" y="72.067554"/>
      </g>
     </g>
     <g id="text_13">
      <!-- $\mathdefault{400}$ -->
      <g transform="translate(20.055677 75.526803)scale(0.1 -0.1)">
       <use transform="scale(0.996264)" xlink:href="#CMR17-52"/>
       <use transform="translate(45.690477 0)scale(0.996264)" xlink:href="#CMR17-48"/>
       <use transform="translate(91.380954 0)scale(0.996264)" xlink:href="#CMR17-48"/>
      </g>
     </g>
    </g>
    <g id="ytick_6">
     <g id="line2d_13">
      <g>
       <use style="stroke:#000000;stroke-width:0.8;" x="41.999682" xlink:href="#m5137bc5f22" y="47.514442"/>
      </g>
     </g>
     <g id="text_14">
      <!-- $\mathdefault{500}$ -->
      <g transform="translate(20.055677 50.973691)scale(0.1 -0.1)">
       <defs>
        <path d="M 11.40625 57.6875 
C 12.40625 57.28125 16.5 56 20.703125 56 
C 30 56 35.09375 61.109375 38 64.0625 
C 38 64.953125 38 65.5 37.40625 65.5 
C 37.296875 65.5 37.09375 65.5 36.296875 65.046875 
C 32.796875 63.40625 28.703125 62.078125 23.703125 62.078125 
C 20.703125 62.078125 16.203125 62.484375 11.296875 64.671875 
C 10.203125 65.171875 10 65.171875 9.90625 65.171875 
C 9.40625 65.171875 9.296875 65.0625 9.296875 63.078125 
L 9.296875 34.421875 
C 9.296875 32.640625 9.296875 32.140625 10.296875 32.140625 
C 10.796875 32.140625 11 32.34375 11.5 33.03125 
C 14.703125 37.515625 19.09375 39.40625 24.09375 39.40625 
C 27.59375 39.40625 35.09375 37.21875 35.09375 20.140625 
C 35.09375 16.953125 35.09375 11.171875 32.09375 6.578125 
C 29.59375 2.484375 25.703125 0.390625 21.40625 0.390625 
C 14.796875 0.390625 8.09375 5 6.296875 12.71875 
C 6.703125 12.609375 7.5 12.421875 7.90625 12.421875 
C 9.203125 12.421875 11.703125 13.125 11.703125 16.21875 
C 11.703125 18.90625 9.796875 20 7.90625 20 
C 5.59375 20 4.09375 18.59375 4.09375 15.796875 
C 4.09375 7.09375 11 -2 21.59375 -2 
C 31.90625 -2 41.703125 6.875 41.703125 19.75 
C 41.703125 31.71875 33.90625 41 24.203125 41 
C 19.09375 41 14.796875 39.109375 11.40625 35.53125 
z
" id="CMR17-53"/>
       </defs>
       <use transform="scale(0.996264)" xlink:href="#CMR17-53"/>
       <use transform="translate(45.690477 0)scale(0.996264)" xlink:href="#CMR17-48"/>
       <use transform="translate(91.380954 0)scale(0.996264)" xlink:href="#CMR17-48"/>
      </g>
     </g>
    </g>
    <g id="ytick_7">
     <g id="line2d_14">
      <g>
       <use style="stroke:#000000;stroke-width:0.8;" x="41.999682" xlink:href="#m5137bc5f22" y="22.961331"/>
      </g>
     </g>
     <g id="text_15">
      <!-- $\mathdefault{600}$ -->
      <g transform="translate(20.055677 26.42058)scale(0.1 -0.1)">
       <use transform="scale(0.996264)" xlink:href="#CMR17-54"/>
       <use transform="translate(45.690477 0)scale(0.996264)" xlink:href="#CMR17-48"/>
       <use transform="translate(91.380954 0)scale(0.996264)" xlink:href="#CMR17-48"/>
      </g>
     </g>
    </g>
    <g id="text_16">
     <!-- $I_i$ -->
     <g transform="translate(14.118498 92.339068)rotate(-90)scale(0.1 -0.1)">
      <defs>
       <path d="M 36.796875 60.625 
C 37.703125 64.109375 37.90625 65.109375 45.203125 65.109375 
C 47.40625 65.109375 48.203125 65.109375 48.203125 67 
C 48.203125 68 47.09375 68 46.796875 68 
C 45 68 42.796875 68 41 68 
L 28.703125 68 
C 26.703125 68 24.40625 68 22.40625 68 
C 21.59375 68 20.5 68 20.5 66.109375 
C 20.5 65.109375 21.296875 65.109375 23.296875 65.109375 
C 29.5 65.109375 29.5 64.3125 29.5 63.21875 
C 29.5 62.53125 29.296875 61.921875 29.09375 61.03125 
L 15.59375 7.375 
C 14.703125 3.890625 14.5 2.890625 7.203125 2.890625 
C 5 2.890625 4.09375 2.890625 4.09375 1 
C 4.09375 0 5.09375 0 5.59375 0 
C 7.40625 0 9.59375 0 11.40625 0 
L 23.703125 0 
C 25.703125 0 27.90625 0 29.90625 0 
C 30.703125 0 31.90625 0 31.90625 1.796875 
C 31.90625 2.890625 31.296875 2.890625 29.09375 2.890625 
C 22.90625 2.890625 22.90625 3.6875 22.90625 4.875 
C 22.90625 5.078125 22.90625 5.578125 23.296875 7.171875 
z
" id="CMMI12-73"/>
       <path d="M 28.296875 14.265625 
C 28.296875 14.765625 27.90625 15.171875 27.296875 15.171875 
C 26.40625 15.171875 26.296875 14.875 25.796875 13.171875 
C 23.203125 4.09375 19.09375 1 15.796875 1 
C 14.59375 1 13.203125 1.296875 13.203125 4.296875 
C 13.203125 6.984375 14.40625 9.984375 15.5 12.96875 
L 22.5 31.53125 
C 22.796875 32.328125 23.5 34.125 23.5 36.015625 
C 23.5 40.21875 20.5 44 15.59375 44 
C 6.40625 44 2.703125 29.53125 2.703125 28.734375 
C 2.703125 28.34375 3.09375 27.84375 3.796875 27.84375 
C 4.703125 27.84375 4.796875 28.234375 5.203125 29.625 
C 7.59375 37.9375 11.40625 41.90625 15.296875 41.90625 
C 16.203125 41.90625 17.90625 41.90625 17.90625 38.71875 
C 17.90625 36.125 16.59375 32.828125 15.796875 30.640625 
L 8.796875 12.078125 
C 8.203125 10.484375 7.59375 8.875 7.59375 7.078125 
C 7.59375 2.59375 10.703125 -1 15.5 -1 
C 24.703125 -1 28.296875 13.578125 28.296875 14.265625 
z
M 27.5 62.703125 
C 27.5 64.203125 26.296875 66 24.09375 66 
C 21.796875 66 19.203125 63.796875 19.203125 61.203125 
C 19.203125 58.71875 21.296875 57.921875 22.5 57.921875 
C 25.203125 57.921875 27.5 60.515625 27.5 62.703125 
z
" id="CMMI12-105"/>
      </defs>
      <use transform="scale(0.996264)" xlink:href="#CMMI12-73"/>
      <use transform="translate(43.024176 -14.943915)scale(0.697382)" xlink:href="#CMMI12-105"/>
     </g>
    </g>
   </g>
   <g id="LineCollection_1">
    <path clip-path="url(#pc5de7b5cb7)" style="fill:none;stroke:#1f77b4;stroke-width:1.5;"/>
    <path clip-path="url(#pc5de7b5cb7)" style="fill:none;stroke:#1f77b4;stroke-width:1.5;"/>
    <path clip-path="url(#pc5de7b5cb7)" style="fill:none;stroke:#1f77b4;stroke-width:1.5;"/>
    <path clip-path="url(#pc5de7b5cb7)" style="fill:none;stroke:#1f77b4;stroke-width:1.5;"/>
    <path clip-path="url(#pc5de7b5cb7)" style="fill:none;stroke:#1f77b4;stroke-width:1.5;"/>
    <path clip-path="url(#pc5de7b5cb7)" style="fill:none;stroke:#1f77b4;stroke-width:1.5;"/>
    <path clip-path="url(#pc5de7b5cb7)" style="fill:none;stroke:#1f77b4;stroke-width:1.5;"/>
    <path clip-path="url(#pc5de7b5cb7)" style="fill:none;stroke:#1f77b4;stroke-width:1.5;"/>
    <path clip-path="url(#pc5de7b5cb7)" style="fill:none;stroke:#1f77b4;stroke-width:1.5;"/>
    <path clip-path="url(#pc5de7b5cb7)" style="fill:none;stroke:#1f77b4;stroke-width:1.5;"/>
    <path clip-path="url(#pc5de7b5cb7)" style="fill:none;stroke:#1f77b4;stroke-width:1.5;"/>
    <path clip-path="url(#pc5de7b5cb7)" style="fill:none;stroke:#1f77b4;stroke-width:1.5;"/>
    <path clip-path="url(#pc5de7b5cb7)" style="fill:none;stroke:#1f77b4;stroke-width:1.5;"/>
    <path clip-path="url(#pc5de7b5cb7)" style="fill:none;stroke:#1f77b4;stroke-width:1.5;"/>
    <path clip-path="url(#pc5de7b5cb7)" style="fill:none;stroke:#1f77b4;stroke-width:1.5;"/>
    <path clip-path="url(#pc5de7b5cb7)" style="fill:none;stroke:#1f77b4;stroke-width:1.5;"/>
    <path clip-path="url(#pc5de7b5cb7)" style="fill:none;stroke:#1f77b4;stroke-width:1.5;"/>
    <path clip-path="url(#pc5de7b5cb7)" style="fill:none;stroke:#1f77b4;stroke-width:1.5;"/>
    <path clip-path="url(#pc5de7b5cb7)" style="fill:none;stroke:#1f77b4;stroke-width:1.5;"/>
    <path clip-path="url(#pc5de7b5cb7)" style="fill:none;stroke:#1f77b4;stroke-width:1.5;"/>
    <path clip-path="url(#pc5de7b5cb7)" style="fill:none;stroke:#1f77b4;stroke-width:1.5;"/>
    <path clip-path="url(#pc5de7b5cb7)" style="fill:none;stroke:#1f77b4;stroke-width:1.5;"/>
    <path clip-path="url(#pc5de7b5cb7)" style="fill:none;stroke:#1f77b4;stroke-width:1.5;"/>
    <path clip-path="url(#pc5de7b5cb7)" style="fill:none;stroke:#1f77b4;stroke-width:1.5;"/>
    <path clip-path="url(#pc5de7b5cb7)" style="fill:none;stroke:#1f77b4;stroke-width:1.5;"/>
    <path clip-path="url(#pc5de7b5cb7)" style="fill:none;stroke:#1f77b4;stroke-width:1.5;"/>
    <path clip-path="url(#pc5de7b5cb7)" style="fill:none;stroke:#1f77b4;stroke-width:1.5;"/>
    <path clip-path="url(#pc5de7b5cb7)" style="fill:none;stroke:#1f77b4;stroke-width:1.5;"/>
    <path clip-path="url(#pc5de7b5cb7)" style="fill:none;stroke:#1f77b4;stroke-width:1.5;"/>
    <path clip-path="url(#pc5de7b5cb7)" style="fill:none;stroke:#1f77b4;stroke-width:1.5;"/>
    <path clip-path="url(#pc5de7b5cb7)" style="fill:none;stroke:#1f77b4;stroke-width:1.5;"/>
    <path clip-path="url(#pc5de7b5cb7)" style="fill:none;stroke:#1f77b4;stroke-width:1.5;"/>
    <path clip-path="url(#pc5de7b5cb7)" style="fill:none;stroke:#1f77b4;stroke-width:1.5;"/>
    <path clip-path="url(#pc5de7b5cb7)" style="fill:none;stroke:#1f77b4;stroke-width:1.5;"/>
    <path clip-path="url(#pc5de7b5cb7)" style="fill:none;stroke:#1f77b4;stroke-width:1.5;"/>
    <path clip-path="url(#pc5de7b5cb7)" style="fill:none;stroke:#1f77b4;stroke-width:1.5;"/>
    <path clip-path="url(#pc5de7b5cb7)" style="fill:none;stroke:#1f77b4;stroke-width:1.5;"/>
    <path clip-path="url(#pc5de7b5cb7)" style="fill:none;stroke:#1f77b4;stroke-width:1.5;"/>
    <path clip-path="url(#pc5de7b5cb7)" style="fill:none;stroke:#1f77b4;stroke-width:1.5;"/>
    <path clip-path="url(#pc5de7b5cb7)" style="fill:none;stroke:#1f77b4;stroke-width:1.5;"/>
    <path clip-path="url(#pc5de7b5cb7)" style="fill:none;stroke:#1f77b4;stroke-width:1.5;"/>
    <path clip-path="url(#pc5de7b5cb7)" style="fill:none;stroke:#1f77b4;stroke-width:1.5;"/>
    <path clip-path="url(#pc5de7b5cb7)" style="fill:none;stroke:#1f77b4;stroke-width:1.5;"/>
    <path clip-path="url(#pc5de7b5cb7)" style="fill:none;stroke:#1f77b4;stroke-width:1.5;"/>
    <path clip-path="url(#pc5de7b5cb7)" style="fill:none;stroke:#1f77b4;stroke-width:1.5;"/>
    <path clip-path="url(#pc5de7b5cb7)" style="fill:none;stroke:#1f77b4;stroke-width:1.5;"/>
    <path clip-path="url(#pc5de7b5cb7)" style="fill:none;stroke:#1f77b4;stroke-width:1.5;"/>
    <path clip-path="url(#pc5de7b5cb7)" style="fill:none;stroke:#1f77b4;stroke-width:1.5;"/>
    <path clip-path="url(#pc5de7b5cb7)" style="fill:none;stroke:#1f77b4;stroke-width:1.5;"/>
    <path clip-path="url(#pc5de7b5cb7)" style="fill:none;stroke:#1f77b4;stroke-width:1.5;"/>
    <path clip-path="url(#pc5de7b5cb7)" style="fill:none;stroke:#1f77b4;stroke-width:1.5;"/>
    <path clip-path="url(#pc5de7b5cb7)" style="fill:none;stroke:#1f77b4;stroke-width:1.5;"/>
    <path clip-path="url(#pc5de7b5cb7)" style="fill:none;stroke:#1f77b4;stroke-width:1.5;"/>
    <path clip-path="url(#pc5de7b5cb7)" style="fill:none;stroke:#1f77b4;stroke-width:1.5;"/>
    <path clip-path="url(#pc5de7b5cb7)" style="fill:none;stroke:#1f77b4;stroke-width:1.5;"/>
    <path clip-path="url(#pc5de7b5cb7)" style="fill:none;stroke:#1f77b4;stroke-width:1.5;"/>
    <path clip-path="url(#pc5de7b5cb7)" style="fill:none;stroke:#1f77b4;stroke-width:1.5;"/>
    <path clip-path="url(#pc5de7b5cb7)" style="fill:none;stroke:#1f77b4;stroke-width:1.5;"/>
    <path clip-path="url(#pc5de7b5cb7)" style="fill:none;stroke:#1f77b4;stroke-width:1.5;"/>
    <path clip-path="url(#pc5de7b5cb7)" style="fill:none;stroke:#1f77b4;stroke-width:1.5;"/>
    <path clip-path="url(#pc5de7b5cb7)" style="fill:none;stroke:#1f77b4;stroke-width:1.5;"/>
    <path clip-path="url(#pc5de7b5cb7)" style="fill:none;stroke:#1f77b4;stroke-width:1.5;"/>
    <path clip-path="url(#pc5de7b5cb7)" style="fill:none;stroke:#1f77b4;stroke-width:1.5;"/>
    <path clip-path="url(#pc5de7b5cb7)" style="fill:none;stroke:#1f77b4;stroke-width:1.5;"/>
    <path clip-path="url(#pc5de7b5cb7)" style="fill:none;stroke:#1f77b4;stroke-width:1.5;"/>
    <path clip-path="url(#pc5de7b5cb7)" style="fill:none;stroke:#1f77b4;stroke-width:1.5;"/>
    <path clip-path="url(#pc5de7b5cb7)" style="fill:none;stroke:#1f77b4;stroke-width:1.5;"/>
    <path clip-path="url(#pc5de7b5cb7)" style="fill:none;stroke:#1f77b4;stroke-width:1.5;"/>
    <path clip-path="url(#pc5de7b5cb7)" style="fill:none;stroke:#1f77b4;stroke-width:1.5;"/>
    <path clip-path="url(#pc5de7b5cb7)" style="fill:none;stroke:#1f77b4;stroke-width:1.5;"/>
    <path clip-path="url(#pc5de7b5cb7)" style="fill:none;stroke:#1f77b4;stroke-width:1.5;"/>
    <path clip-path="url(#pc5de7b5cb7)" style="fill:none;stroke:#1f77b4;stroke-width:1.5;"/>
    <path clip-path="url(#pc5de7b5cb7)" style="fill:none;stroke:#1f77b4;stroke-width:1.5;"/>
    <path clip-path="url(#pc5de7b5cb7)" style="fill:none;stroke:#1f77b4;stroke-width:1.5;"/>
    <path clip-path="url(#pc5de7b5cb7)" style="fill:none;stroke:#1f77b4;stroke-width:1.5;"/>
    <path clip-path="url(#pc5de7b5cb7)" style="fill:none;stroke:#1f77b4;stroke-width:1.5;"/>
    <path clip-path="url(#pc5de7b5cb7)" style="fill:none;stroke:#1f77b4;stroke-width:1.5;"/>
    <path clip-path="url(#pc5de7b5cb7)" style="fill:none;stroke:#1f77b4;stroke-width:1.5;"/>
    <path clip-path="url(#pc5de7b5cb7)" style="fill:none;stroke:#1f77b4;stroke-width:1.5;"/>
    <path clip-path="url(#pc5de7b5cb7)" style="fill:none;stroke:#1f77b4;stroke-width:1.5;"/>
    <path clip-path="url(#pc5de7b5cb7)" style="fill:none;stroke:#1f77b4;stroke-width:1.5;"/>
    <path clip-path="url(#pc5de7b5cb7)" style="fill:none;stroke:#1f77b4;stroke-width:1.5;"/>
    <path clip-path="url(#pc5de7b5cb7)" style="fill:none;stroke:#1f77b4;stroke-width:1.5;"/>
    <path clip-path="url(#pc5de7b5cb7)" style="fill:none;stroke:#1f77b4;stroke-width:1.5;"/>
    <path clip-path="url(#pc5de7b5cb7)" style="fill:none;stroke:#1f77b4;stroke-width:1.5;"/>
    <path clip-path="url(#pc5de7b5cb7)" style="fill:none;stroke:#1f77b4;stroke-width:1.5;"/>
    <path clip-path="url(#pc5de7b5cb7)" style="fill:none;stroke:#1f77b4;stroke-width:1.5;"/>
    <path clip-path="url(#pc5de7b5cb7)" style="fill:none;stroke:#1f77b4;stroke-width:1.5;"/>
    <path clip-path="url(#pc5de7b5cb7)" style="fill:none;stroke:#1f77b4;stroke-width:1.5;"/>
    <path clip-path="url(#pc5de7b5cb7)" style="fill:none;stroke:#1f77b4;stroke-width:1.5;"/>
    <path clip-path="url(#pc5de7b5cb7)" style="fill:none;stroke:#1f77b4;stroke-width:1.5;"/>
    <path clip-path="url(#pc5de7b5cb7)" style="fill:none;stroke:#1f77b4;stroke-width:1.5;"/>
    <path clip-path="url(#pc5de7b5cb7)" style="fill:none;stroke:#1f77b4;stroke-width:1.5;"/>
    <path clip-path="url(#pc5de7b5cb7)" style="fill:none;stroke:#1f77b4;stroke-width:1.5;"/>
    <path clip-path="url(#pc5de7b5cb7)" style="fill:none;stroke:#1f77b4;stroke-width:1.5;"/>
    <path clip-path="url(#pc5de7b5cb7)" style="fill:none;stroke:#1f77b4;stroke-width:1.5;"/>
    <path clip-path="url(#pc5de7b5cb7)" style="fill:none;stroke:#1f77b4;stroke-width:1.5;"/>
    <path clip-path="url(#pc5de7b5cb7)" style="fill:none;stroke:#1f77b4;stroke-width:1.5;"/>
    <path clip-path="url(#pc5de7b5cb7)" style="fill:none;stroke:#1f77b4;stroke-width:1.5;"/>
    <path clip-path="url(#pc5de7b5cb7)" style="fill:none;stroke:#1f77b4;stroke-width:1.5;"/>
    <path clip-path="url(#pc5de7b5cb7)" style="fill:none;stroke:#1f77b4;stroke-width:1.5;"/>
    <path clip-path="url(#pc5de7b5cb7)" style="fill:none;stroke:#1f77b4;stroke-width:1.5;"/>
    <path clip-path="url(#pc5de7b5cb7)" style="fill:none;stroke:#1f77b4;stroke-width:1.5;"/>
    <path clip-path="url(#pc5de7b5cb7)" style="fill:none;stroke:#1f77b4;stroke-width:1.5;"/>
    <path clip-path="url(#pc5de7b5cb7)" d="M 292.204226 170.28 
L 292.204226 170.229548 
" style="fill:none;stroke:#1f77b4;stroke-width:1.5;"/>
    <path clip-path="url(#pc5de7b5cb7)" style="fill:none;stroke:#1f77b4;stroke-width:1.5;"/>
    <path clip-path="url(#pc5de7b5cb7)" style="fill:none;stroke:#1f77b4;stroke-width:1.5;"/>
    <path clip-path="url(#pc5de7b5cb7)" style="fill:none;stroke:#1f77b4;stroke-width:1.5;"/>
    <path clip-path="url(#pc5de7b5cb7)" style="fill:none;stroke:#1f77b4;stroke-width:1.5;"/>
    <path clip-path="url(#pc5de7b5cb7)" style="fill:none;stroke:#1f77b4;stroke-width:1.5;"/>
    <path clip-path="url(#pc5de7b5cb7)" style="fill:none;stroke:#1f77b4;stroke-width:1.5;"/>
    <path clip-path="url(#pc5de7b5cb7)" style="fill:none;stroke:#1f77b4;stroke-width:1.5;"/>
    <path clip-path="url(#pc5de7b5cb7)" d="M 131.428429 170.28 
L 131.428429 170.243171 
" style="fill:none;stroke:#1f77b4;stroke-width:1.5;"/>
    <path clip-path="url(#pc5de7b5cb7)" style="fill:none;stroke:#1f77b4;stroke-width:1.5;"/>
    <path clip-path="url(#pc5de7b5cb7)" style="fill:none;stroke:#1f77b4;stroke-width:1.5;"/>
    <path clip-path="url(#pc5de7b5cb7)" style="fill:none;stroke:#1f77b4;stroke-width:1.5;"/>
    <path clip-path="url(#pc5de7b5cb7)" style="fill:none;stroke:#1f77b4;stroke-width:1.5;"/>
    <path clip-path="url(#pc5de7b5cb7)" d="M 372.65311 170.28 
L 372.65311 165.633106 
" style="fill:none;stroke:#1f77b4;stroke-width:1.5;"/>
    <path clip-path="url(#pc5de7b5cb7)" d="M 383.93346 170.28 
L 383.93346 166.490839 
" style="fill:none;stroke:#1f77b4;stroke-width:1.5;"/>
    <path clip-path="url(#pc5de7b5cb7)" style="fill:none;stroke:#1f77b4;stroke-width:1.5;"/>
    <path clip-path="url(#pc5de7b5cb7)" style="fill:none;stroke:#1f77b4;stroke-width:1.5;"/>
    <path clip-path="url(#pc5de7b5cb7)" style="fill:none;stroke:#1f77b4;stroke-width:1.5;"/>
    <path clip-path="url(#pc5de7b5cb7)" style="fill:none;stroke:#1f77b4;stroke-width:1.5;"/>
    <path clip-path="url(#pc5de7b5cb7)" style="fill:none;stroke:#1f77b4;stroke-width:1.5;"/>
    <path clip-path="url(#pc5de7b5cb7)" d="M 379.116508 170.28 
L 379.116508 169.809666 
" style="fill:none;stroke:#1f77b4;stroke-width:1.5;"/>
    <path clip-path="url(#pc5de7b5cb7)" d="M 383.855331 170.28 
L 383.855331 169.336611 
" style="fill:none;stroke:#1f77b4;stroke-width:1.5;"/>
    <path clip-path="url(#pc5de7b5cb7)" d="M 378.433227 170.28 
L 378.433227 168.358408 
" style="fill:none;stroke:#1f77b4;stroke-width:1.5;"/>
    <path clip-path="url(#pc5de7b5cb7)" d="M 381.687115 170.28 
L 381.687115 169.157538 
" style="fill:none;stroke:#1f77b4;stroke-width:1.5;"/>
    <path clip-path="url(#pc5de7b5cb7)" d="M 369.26962 170.28 
L 369.26962 169.274467 
" style="fill:none;stroke:#1f77b4;stroke-width:1.5;"/>
    <path clip-path="url(#pc5de7b5cb7)" d="M 322.355438 170.28 
L 322.355438 139.528807 
" style="fill:none;stroke:#1f77b4;stroke-width:1.5;"/>
    <path clip-path="url(#pc5de7b5cb7)" d="M 326.677427 170.28 
L 326.677427 139.047976 
" style="fill:none;stroke:#1f77b4;stroke-width:1.5;"/>
    <path clip-path="url(#pc5de7b5cb7)" d="M 360.656629 170.28 
L 360.656629 160.792197 
" style="fill:none;stroke:#1f77b4;stroke-width:1.5;"/>
    <path clip-path="url(#pc5de7b5cb7)" d="M 364.118977 170.28 
L 364.118977 167.110676 
" style="fill:none;stroke:#1f77b4;stroke-width:1.5;"/>
    <path clip-path="url(#pc5de7b5cb7)" d="M 339.120486 170.28 
L 339.120486 169.74224 
" style="fill:none;stroke:#1f77b4;stroke-width:1.5;"/>
    <path clip-path="url(#pc5de7b5cb7)" d="M 335.148795 170.28 
L 335.148795 160.962223 
" style="fill:none;stroke:#1f77b4;stroke-width:1.5;"/>
    <path clip-path="url(#pc5de7b5cb7)" d="M 345.277836 170.28 
L 345.277836 166.798157 
" style="fill:none;stroke:#1f77b4;stroke-width:1.5;"/>
    <path clip-path="url(#pc5de7b5cb7)" d="M 348.252463 170.28 
L 348.252463 169.410965 
" style="fill:none;stroke:#1f77b4;stroke-width:1.5;"/>
    <path clip-path="url(#pc5de7b5cb7)" d="M 355.148659 170.28 
L 355.148659 164.494914 
" style="fill:none;stroke:#1f77b4;stroke-width:1.5;"/>
    <path clip-path="url(#pc5de7b5cb7)" d="M 284.927046 170.28 
L 284.927046 170.141213 
" style="fill:none;stroke:#1f77b4;stroke-width:1.5;"/>
    <path clip-path="url(#pc5de7b5cb7)" d="M 340.91134 170.28 
L 340.91134 170.106829 
" style="fill:none;stroke:#1f77b4;stroke-width:1.5;"/>
    <path clip-path="url(#pc5de7b5cb7)" d="M 333.26284 170.28 
L 333.26284 168.924234 
" style="fill:none;stroke:#1f77b4;stroke-width:1.5;"/>
    <path clip-path="url(#pc5de7b5cb7)" d="M 287.857465 170.28 
L 287.857465 164.612685 
" style="fill:none;stroke:#1f77b4;stroke-width:1.5;"/>
    <path clip-path="url(#pc5de7b5cb7)" d="M 293.733111 170.28 
L 293.733111 162.229491 
" style="fill:none;stroke:#1f77b4;stroke-width:1.5;"/>
    <path clip-path="url(#pc5de7b5cb7)" d="M 309.802985 170.28 
L 309.802985 143.134744 
" style="fill:none;stroke:#1f77b4;stroke-width:1.5;"/>
    <path clip-path="url(#pc5de7b5cb7)" d="M 323.960825 170.28 
L 323.960825 168.200855 
" style="fill:none;stroke:#1f77b4;stroke-width:1.5;"/>
    <path clip-path="url(#pc5de7b5cb7)" d="M 322.959925 170.28 
L 322.959925 167.541464 
" style="fill:none;stroke:#1f77b4;stroke-width:1.5;"/>
    <path clip-path="url(#pc5de7b5cb7)" d="M 296.826904 170.28 
L 296.826904 159.846316 
" style="fill:none;stroke:#1f77b4;stroke-width:1.5;"/>
    <path clip-path="url(#pc5de7b5cb7)" d="M 305.757257 170.28 
L 305.757257 150.85963 
" style="fill:none;stroke:#1f77b4;stroke-width:1.5;"/>
    <path clip-path="url(#pc5de7b5cb7)" d="M 304.759122 170.28 
L 304.759122 163.303528 
" style="fill:none;stroke:#1f77b4;stroke-width:1.5;"/>
    <path clip-path="url(#pc5de7b5cb7)" d="M 302.679236 170.28 
L 302.679236 169.912696 
" style="fill:none;stroke:#1f77b4;stroke-width:1.5;"/>
    <path clip-path="url(#pc5de7b5cb7)" d="M 282.829288 170.28 
L 282.829288 167.692397 
" style="fill:none;stroke:#1f77b4;stroke-width:1.5;"/>
    <path clip-path="url(#pc5de7b5cb7)" d="M 291.652518 170.28 
L 291.652518 169.101339 
" style="fill:none;stroke:#1f77b4;stroke-width:1.5;"/>
    <path clip-path="url(#pc5de7b5cb7)" d="M 271.916207 170.28 
L 271.916207 170.012562 
" style="fill:none;stroke:#1f77b4;stroke-width:1.5;"/>
    <path clip-path="url(#pc5de7b5cb7)" d="M 271.230098 170.28 
L 271.230098 166.33832 
" style="fill:none;stroke:#1f77b4;stroke-width:1.5;"/>
    <path clip-path="url(#pc5de7b5cb7)" d="M 268.83615 170.28 
L 268.83615 167.185701 
" style="fill:none;stroke:#1f77b4;stroke-width:1.5;"/>
    <path clip-path="url(#pc5de7b5cb7)" d="M 276.08183 170.28 
L 276.08183 167.972628 
" style="fill:none;stroke:#1f77b4;stroke-width:1.5;"/>
    <path clip-path="url(#pc5de7b5cb7)" d="M 274.061944 170.28 
L 274.061944 169.220184 
" style="fill:none;stroke:#1f77b4;stroke-width:1.5;"/>
    <path clip-path="url(#pc5de7b5cb7)" d="M 58.479092 170.28 
L 58.479092 170.242399 
" style="fill:none;stroke:#1f77b4;stroke-width:1.5;"/>
    <path clip-path="url(#pc5de7b5cb7)" d="M 286.122391 170.28 
L 286.122391 169.817818 
" style="fill:none;stroke:#1f77b4;stroke-width:1.5;"/>
    <path clip-path="url(#pc5de7b5cb7)" d="M 258.153473 170.28 
L 258.153473 168.60102 
" style="fill:none;stroke:#1f77b4;stroke-width:1.5;"/>
    <path clip-path="url(#pc5de7b5cb7)" d="M 264.72215 170.28 
L 264.72215 166.232 
" style="fill:none;stroke:#1f77b4;stroke-width:1.5;"/>
    <path clip-path="url(#pc5de7b5cb7)" d="M 260.427655 170.28 
L 260.427655 168.990382 
" style="fill:none;stroke:#1f77b4;stroke-width:1.5;"/>
    <path clip-path="url(#pc5de7b5cb7)" d="M 261.045213 170.28 
L 261.045213 166.459551 
" style="fill:none;stroke:#1f77b4;stroke-width:1.5;"/>
    <path clip-path="url(#pc5de7b5cb7)" d="M 250.743605 170.28 
L 250.743605 163.144275 
" style="fill:none;stroke:#1f77b4;stroke-width:1.5;"/>
    <path clip-path="url(#pc5de7b5cb7)" d="M 242.621828 170.28 
L 242.621828 167.315463 
" style="fill:none;stroke:#1f77b4;stroke-width:1.5;"/>
    <path clip-path="url(#pc5de7b5cb7)" d="M 234.492443 170.28 
L 234.492443 148.980637 
" style="fill:none;stroke:#1f77b4;stroke-width:1.5;"/>
    <path clip-path="url(#pc5de7b5cb7)" d="M 234.618145 170.28 
L 234.618145 157.223969 
" style="fill:none;stroke:#1f77b4;stroke-width:1.5;"/>
    <path clip-path="url(#pc5de7b5cb7)" d="M 246.250121 170.28 
L 246.250121 166.833935 
" style="fill:none;stroke:#1f77b4;stroke-width:1.5;"/>
    <path clip-path="url(#pc5de7b5cb7)" d="M 242.394318 170.28 
L 242.394318 168.296961 
" style="fill:none;stroke:#1f77b4;stroke-width:1.5;"/>
    <path clip-path="url(#pc5de7b5cb7)" d="M 231.970394 170.28 
L 231.970394 168.015623 
" style="fill:none;stroke:#1f77b4;stroke-width:1.5;"/>
    <path clip-path="url(#pc5de7b5cb7)" d="M 205.15571 170.28 
L 205.15571 169.393688 
" style="fill:none;stroke:#1f77b4;stroke-width:1.5;"/>
    <path clip-path="url(#pc5de7b5cb7)" d="M 224.811287 170.28 
L 224.811287 165.514907 
" style="fill:none;stroke:#1f77b4;stroke-width:1.5;"/>
    <path clip-path="url(#pc5de7b5cb7)" d="M 223.309852 170.28 
L 223.309852 165.110155 
" style="fill:none;stroke:#1f77b4;stroke-width:1.5;"/>
    <path clip-path="url(#pc5de7b5cb7)" d="M 218.518721 170.28 
L 218.518721 163.996756 
" style="fill:none;stroke:#1f77b4;stroke-width:1.5;"/>
    <path clip-path="url(#pc5de7b5cb7)" d="M 213.388607 170.28 
L 213.388607 169.129827 
" style="fill:none;stroke:#1f77b4;stroke-width:1.5;"/>
    <path clip-path="url(#pc5de7b5cb7)" d="M 215.508811 170.28 
L 215.508811 161.20484 
" style="fill:none;stroke:#1f77b4;stroke-width:1.5;"/>
    <path clip-path="url(#pc5de7b5cb7)" d="M 201.304513 170.28 
L 201.304513 161.89379 
" style="fill:none;stroke:#1f77b4;stroke-width:1.5;"/>
    <path clip-path="url(#pc5de7b5cb7)" d="M 207.764857 170.28 
L 207.764857 168.408662 
" style="fill:none;stroke:#1f77b4;stroke-width:1.5;"/>
    <path clip-path="url(#pc5de7b5cb7)" d="M 212.273287 170.28 
L 212.273287 163.137473 
" style="fill:none;stroke:#1f77b4;stroke-width:1.5;"/>
    <path clip-path="url(#pc5de7b5cb7)" d="M 201.579306 170.28 
L 201.579306 165.222815 
" style="fill:none;stroke:#1f77b4;stroke-width:1.5;"/>
    <path clip-path="url(#pc5de7b5cb7)" d="M 190.780399 170.28 
L 190.780399 160.265223 
" style="fill:none;stroke:#1f77b4;stroke-width:1.5;"/>
    <path clip-path="url(#pc5de7b5cb7)" d="M 191.859021 170.28 
L 191.859021 167.955858 
" style="fill:none;stroke:#1f77b4;stroke-width:1.5;"/>
    <path clip-path="url(#pc5de7b5cb7)" d="M 189.114926 170.28 
L 189.114926 163.342547 
" style="fill:none;stroke:#1f77b4;stroke-width:1.5;"/>
    <path clip-path="url(#pc5de7b5cb7)" d="M 184.01928 170.28 
L 184.01928 166.463002 
" style="fill:none;stroke:#1f77b4;stroke-width:1.5;"/>
    <path clip-path="url(#pc5de7b5cb7)" d="M 188.489481 170.28 
L 188.489481 164.017619 
" style="fill:none;stroke:#1f77b4;stroke-width:1.5;"/>
    <path clip-path="url(#pc5de7b5cb7)" d="M 176.744789 170.28 
L 176.744789 165.253716 
" style="fill:none;stroke:#1f77b4;stroke-width:1.5;"/>
    <path clip-path="url(#pc5de7b5cb7)" d="M 168.69662 170.28 
L 168.69662 167.813747 
" style="fill:none;stroke:#1f77b4;stroke-width:1.5;"/>
    <path clip-path="url(#pc5de7b5cb7)" d="M 170.776635 170.28 
L 170.776635 168.469016 
" style="fill:none;stroke:#1f77b4;stroke-width:1.5;"/>
    <path clip-path="url(#pc5de7b5cb7)" d="M 172.297356 170.28 
L 172.297356 164.233991 
" style="fill:none;stroke:#1f77b4;stroke-width:1.5;"/>
    <path clip-path="url(#pc5de7b5cb7)" d="M 164.756311 170.28 
L 164.756311 163.326533 
" style="fill:none;stroke:#1f77b4;stroke-width:1.5;"/>
    <path clip-path="url(#pc5de7b5cb7)" d="M 159.564846 170.28 
L 159.564846 164.257189 
" style="fill:none;stroke:#1f77b4;stroke-width:1.5;"/>
    <path clip-path="url(#pc5de7b5cb7)" d="M 149.149826 170.28 
L 149.149826 168.754224 
" style="fill:none;stroke:#1f77b4;stroke-width:1.5;"/>
    <path clip-path="url(#pc5de7b5cb7)" d="M 154.280487 170.28 
L 154.280487 160.082416 
" style="fill:none;stroke:#1f77b4;stroke-width:1.5;"/>
    <path clip-path="url(#pc5de7b5cb7)" d="M 152.684433 170.28 
L 152.684433 161.312629 
" style="fill:none;stroke:#1f77b4;stroke-width:1.5;"/>
    <path clip-path="url(#pc5de7b5cb7)" d="M 143.001048 170.28 
L 143.001048 155.705956 
" style="fill:none;stroke:#1f77b4;stroke-width:1.5;"/>
    <path clip-path="url(#pc5de7b5cb7)" d="M 136.540447 170.28 
L 136.540447 169.365258 
" style="fill:none;stroke:#1f77b4;stroke-width:1.5;"/>
    <path clip-path="url(#pc5de7b5cb7)" d="M 155.06263 170.28 
L 155.06263 167.651024 
" style="fill:none;stroke:#1f77b4;stroke-width:1.5;"/>
    <path clip-path="url(#pc5de7b5cb7)" d="M 144.342741 170.28 
L 144.342741 157.025727 
" style="fill:none;stroke:#1f77b4;stroke-width:1.5;"/>
    <path clip-path="url(#pc5de7b5cb7)" d="M 137.051086 170.28 
L 137.051086 161.32741 
" style="fill:none;stroke:#1f77b4;stroke-width:1.5;"/>
    <path clip-path="url(#pc5de7b5cb7)" d="M 136.527558 170.28 
L 136.527558 165.543234 
" style="fill:none;stroke:#1f77b4;stroke-width:1.5;"/>
    <path clip-path="url(#pc5de7b5cb7)" d="M 132.011402 170.28 
L 132.011402 165.762801 
" style="fill:none;stroke:#1f77b4;stroke-width:1.5;"/>
    <path clip-path="url(#pc5de7b5cb7)" d="M 124.927253 170.28 
L 124.927253 165.745031 
" style="fill:none;stroke:#1f77b4;stroke-width:1.5;"/>
    <path clip-path="url(#pc5de7b5cb7)" d="M 119.224415 170.28 
L 119.224415 158.074288 
" style="fill:none;stroke:#1f77b4;stroke-width:1.5;"/>
    <path clip-path="url(#pc5de7b5cb7)" d="M 124.878754 170.28 
L 124.878754 162.533983 
" style="fill:none;stroke:#1f77b4;stroke-width:1.5;"/>
    <path clip-path="url(#pc5de7b5cb7)" d="M 114.775331 170.28 
L 114.775331 168.04802 
" style="fill:none;stroke:#1f77b4;stroke-width:1.5;"/>
    <path clip-path="url(#pc5de7b5cb7)" d="M 110.997582 170.28 
L 110.997582 155.221411 
" style="fill:none;stroke:#1f77b4;stroke-width:1.5;"/>
    <path clip-path="url(#pc5de7b5cb7)" d="M 103.77555 170.28 
L 103.77555 151.193985 
" style="fill:none;stroke:#1f77b4;stroke-width:1.5;"/>
    <path clip-path="url(#pc5de7b5cb7)" d="M 89.670644 170.28 
L 89.670644 168.196453 
" style="fill:none;stroke:#1f77b4;stroke-width:1.5;"/>
    <path clip-path="url(#pc5de7b5cb7)" d="M 93.596092 170.28 
L 93.596092 142.285654 
" style="fill:none;stroke:#1f77b4;stroke-width:1.5;"/>
    <path clip-path="url(#pc5de7b5cb7)" d="M 87.529204 170.28 
L 87.529204 147.247247 
" style="fill:none;stroke:#1f77b4;stroke-width:1.5;"/>
    <path clip-path="url(#pc5de7b5cb7)" d="M 66.468002 170.28 
L 66.468002 166.96958 
" style="fill:none;stroke:#1f77b4;stroke-width:1.5;"/>
    <path clip-path="url(#pc5de7b5cb7)" d="M 60.247538 170.28 
L 60.247538 152.256922 
" style="fill:none;stroke:#1f77b4;stroke-width:1.5;"/>
    <path clip-path="url(#pc5de7b5cb7)" d="M 56.528197 170.28 
L 56.528197 100.802779 
" style="fill:none;stroke:#1f77b4;stroke-width:1.5;"/>
    <path clip-path="url(#pc5de7b5cb7)" d="M 53.909885 170.28 
L 53.909885 14.965714 
" style="fill:none;stroke:#1f77b4;stroke-width:1.5;"/>
    <path clip-path="url(#pc5de7b5cb7)" d="M 48.46737 170.28 
L 48.46737 157.110032 
" style="fill:none;stroke:#1f77b4;stroke-width:1.5;"/>
    <path clip-path="url(#pc5de7b5cb7)" d="M 107.383378 170.28 
L 107.383378 168.797523 
" style="fill:none;stroke:#1f77b4;stroke-width:1.5;"/>
    <path clip-path="url(#pc5de7b5cb7)" d="M 103.562852 170.28 
L 103.562852 163.781892 
" style="fill:none;stroke:#1f77b4;stroke-width:1.5;"/>
    <path clip-path="url(#pc5de7b5cb7)" d="M 93.340569 170.28 
L 93.340569 159.564821 
" style="fill:none;stroke:#1f77b4;stroke-width:1.5;"/>
    <path clip-path="url(#pc5de7b5cb7)" d="M 76.871507 170.28 
L 76.871507 164.485204 
" style="fill:none;stroke:#1f77b4;stroke-width:1.5;"/>
    <path clip-path="url(#pc5de7b5cb7)" d="M 71.868246 170.28 
L 71.868246 123.961044 
" style="fill:none;stroke:#1f77b4;stroke-width:1.5;"/>
    <path clip-path="url(#pc5de7b5cb7)" d="M 66.476477 170.28 
L 66.476477 124.616188 
" style="fill:none;stroke:#1f77b4;stroke-width:1.5;"/>
    <path clip-path="url(#pc5de7b5cb7)" d="M 45.135091 170.28 
L 45.135091 135.486503 
" style="fill:none;stroke:#1f77b4;stroke-width:1.5;"/>
    <path clip-path="url(#pc5de7b5cb7)" d="M 117.291097 170.28 
L 117.291097 167.004653 
" style="fill:none;stroke:#1f77b4;stroke-width:1.5;"/>
    <path clip-path="url(#pc5de7b5cb7)" d="M 97.105707 170.28 
L 97.105707 167.403908 
" style="fill:none;stroke:#1f77b4;stroke-width:1.5;"/>
    <path clip-path="url(#pc5de7b5cb7)" d="M 68.475387 170.28 
L 68.475387 133.187534 
" style="fill:none;stroke:#1f77b4;stroke-width:1.5;"/>
    <path clip-path="url(#pc5de7b5cb7)" d="M 81.817218 170.28 
L 81.817218 162.053521 
" style="fill:none;stroke:#1f77b4;stroke-width:1.5;"/>
    <path clip-path="url(#pc5de7b5cb7)" d="M 75.531913 170.28 
L 75.531913 166.460627 
" style="fill:none;stroke:#1f77b4;stroke-width:1.5;"/>
    <path clip-path="url(#pc5de7b5cb7)" d="M 84.345045 170.28 
L 84.345045 166.927693 
" style="fill:none;stroke:#1f77b4;stroke-width:1.5;"/>
   </g>
   <g id="line2d_15">
    <defs>
     <path d="M 0 3 
C 0.795609 3 1.55874 2.683901 2.12132 2.12132 
C 2.683901 1.55874 3 0.795609 3 0 
C 3 -0.795609 2.683901 -1.55874 2.12132 -2.12132 
C 1.55874 -2.683901 0.795609 -3 0 -3 
C -0.795609 -3 -1.55874 -2.683901 -2.12132 -2.12132 
C -2.683901 -1.55874 -3 -0.795609 -3 0 
C -3 0.795609 -2.683901 1.55874 -2.12132 2.12132 
C -1.55874 2.683901 -0.795609 3 0 3 
z
" id="m1bb4596c2f" style="stroke:#1f77b4;"/>
    </defs>
    <g clip-path="url(#pc5de7b5cb7)">
     <use style="fill:#1f77b4;stroke:#1f77b4;" x="1415.700523" xlink:href="#m1bb4596c2f" y="170.213967"/>
     <use style="fill:#1f77b4;stroke:#1f77b4;" x="1475.074607" xlink:href="#m1bb4596c2f" y="170.146139"/>
     <use style="fill:#1f77b4;stroke:#1f77b4;" x="1624.02951" xlink:href="#m1bb4596c2f" y="170.154727"/>
     <use style="fill:#1f77b4;stroke:#1f77b4;" x="1702.191742" xlink:href="#m1bb4596c2f" y="170.188113"/>
     <use style="fill:#1f77b4;stroke:#1f77b4;" x="1537.241901" xlink:href="#m1bb4596c2f" y="170.237377"/>
     <use style="fill:#1f77b4;stroke:#1f77b4;" x="1328.565167" xlink:href="#m1bb4596c2f" y="169.730399"/>
     <use style="fill:#1f77b4;stroke:#1f77b4;" x="1349.884406" xlink:href="#m1bb4596c2f" y="169.778544"/>
     <use style="fill:#1f77b4;stroke:#1f77b4;" x="1230.64946" xlink:href="#m1bb4596c2f" y="170.014892"/>
     <use style="fill:#1f77b4;stroke:#1f77b4;" x="1248.402593" xlink:href="#m1bb4596c2f" y="170.22194"/>
     <use style="fill:#1f77b4;stroke:#1f77b4;" x="1440.7051" xlink:href="#m1bb4596c2f" y="170.245444"/>
     <use style="fill:#1f77b4;stroke:#1f77b4;" x="1299.651792" xlink:href="#m1bb4596c2f" y="170.063978"/>
     <use style="fill:#1f77b4;stroke:#1f77b4;" x="1203.279479" xlink:href="#m1bb4596c2f" y="170.150263"/>
     <use style="fill:#1f77b4;stroke:#1f77b4;" x="1692.818582" xlink:href="#m1bb4596c2f" y="170.223575"/>
     <use style="fill:#1f77b4;stroke:#1f77b4;" x="1308.656289" xlink:href="#m1bb4596c2f" y="170.144796"/>
     <use style="fill:#1f77b4;stroke:#1f77b4;" x="1108.869021" xlink:href="#m1bb4596c2f" y="170.02569"/>
     <use style="fill:#1f77b4;stroke:#1f77b4;" x="1155.972249" xlink:href="#m1bb4596c2f" y="170.157587"/>
     <use style="fill:#1f77b4;stroke:#1f77b4;" x="1125.430023" xlink:href="#m1bb4596c2f" y="170.091847"/>
     <use style="fill:#1f77b4;stroke:#1f77b4;" x="1125.748542" xlink:href="#m1bb4596c2f" y="170.096089"/>
     <use style="fill:#1f77b4;stroke:#1f77b4;" x="1078.581971" xlink:href="#m1bb4596c2f" y="170.204082"/>
     <use style="fill:#1f77b4;stroke:#1f77b4;" x="1061.339702" xlink:href="#m1bb4596c2f" y="170.040678"/>
     <use style="fill:#1f77b4;stroke:#1f77b4;" x="1033.786118" xlink:href="#m1bb4596c2f" y="169.931317"/>
     <use style="fill:#1f77b4;stroke:#1f77b4;" x="1035.12088" xlink:href="#m1bb4596c2f" y="170.076633"/>
     <use style="fill:#1f77b4;stroke:#1f77b4;" x="995.13178" xlink:href="#m1bb4596c2f" y="169.884624"/>
     <use style="fill:#1f77b4;stroke:#1f77b4;" x="1002.968832" xlink:href="#m1bb4596c2f" y="169.797441"/>
     <use style="fill:#1f77b4;stroke:#1f77b4;" x="916.091908" xlink:href="#m1bb4596c2f" y="169.619676"/>
     <use style="fill:#1f77b4;stroke:#1f77b4;" x="940.361989" xlink:href="#m1bb4596c2f" y="169.78876"/>
     <use style="fill:#1f77b4;stroke:#1f77b4;" x="1002.553026" xlink:href="#m1bb4596c2f" y="170.243081"/>
     <use style="fill:#1f77b4;stroke:#1f77b4;" x="967.253506" xlink:href="#m1bb4596c2f" y="169.974242"/>
     <use style="fill:#1f77b4;stroke:#1f77b4;" x="1055.275246" xlink:href="#m1bb4596c2f" y="170.205602"/>
     <use style="fill:#1f77b4;stroke:#1f77b4;" x="1009.602524" xlink:href="#m1bb4596c2f" y="170.078985"/>
     <use style="fill:#1f77b4;stroke:#1f77b4;" x="938.085128" xlink:href="#m1bb4596c2f" y="170.145511"/>
     <use style="fill:#1f77b4;stroke:#1f77b4;" x="899.143386" xlink:href="#m1bb4596c2f" y="169.607983"/>
     <use style="fill:#1f77b4;stroke:#1f77b4;" x="887.695141" xlink:href="#m1bb4596c2f" y="169.365454"/>
     <use style="fill:#1f77b4;stroke:#1f77b4;" x="904.919409" xlink:href="#m1bb4596c2f" y="169.478311"/>
     <use style="fill:#1f77b4;stroke:#1f77b4;" x="906.518946" xlink:href="#m1bb4596c2f" y="169.812809"/>
     <use style="fill:#1f77b4;stroke:#1f77b4;" x="862.486132" xlink:href="#m1bb4596c2f" y="168.162511"/>
     <use style="fill:#1f77b4;stroke:#1f77b4;" x="859.639864" xlink:href="#m1bb4596c2f" y="170.258839"/>
     <use style="fill:#1f77b4;stroke:#1f77b4;" x="855.502121" xlink:href="#m1bb4596c2f" y="169.736939"/>
     <use style="fill:#1f77b4;stroke:#1f77b4;" x="848.565167" xlink:href="#m1bb4596c2f" y="169.362443"/>
     <use style="fill:#1f77b4;stroke:#1f77b4;" x="834.569544" xlink:href="#m1bb4596c2f" y="168.717845"/>
     <use style="fill:#1f77b4;stroke:#1f77b4;" x="820.184515" xlink:href="#m1bb4596c2f" y="169.400809"/>
     <use style="fill:#1f77b4;stroke:#1f77b4;" x="814.085516" xlink:href="#m1bb4596c2f" y="169.67259"/>
     <use style="fill:#1f77b4;stroke:#1f77b4;" x="816.448263" xlink:href="#m1bb4596c2f" y="169.529223"/>
     <use style="fill:#1f77b4;stroke:#1f77b4;" x="800.02072" xlink:href="#m1bb4596c2f" y="168.776812"/>
     <use style="fill:#1f77b4;stroke:#1f77b4;" x="804.400352" xlink:href="#m1bb4596c2f" y="168.405451"/>
     <use style="fill:#1f77b4;stroke:#1f77b4;" x="775.260089" xlink:href="#m1bb4596c2f" y="169.731732"/>
     <use style="fill:#1f77b4;stroke:#1f77b4;" x="771.775841" xlink:href="#m1bb4596c2f" y="170.020457"/>
     <use style="fill:#1f77b4;stroke:#1f77b4;" x="984.57609" xlink:href="#m1bb4596c2f" y="170.261805"/>
     <use style="fill:#1f77b4;stroke:#1f77b4;" x="1702.191742" xlink:href="#m1bb4596c2f" y="170.26216"/>
     <use style="fill:#1f77b4;stroke:#1f77b4;" x="766.020218" xlink:href="#m1bb4596c2f" y="170.177643"/>
     <use style="fill:#1f77b4;stroke:#1f77b4;" x="750.727805" xlink:href="#m1bb4596c2f" y="170.236033"/>
     <use style="fill:#1f77b4;stroke:#1f77b4;" x="737.398362" xlink:href="#m1bb4596c2f" y="169.64502"/>
     <use style="fill:#1f77b4;stroke:#1f77b4;" x="754.455314" xlink:href="#m1bb4596c2f" y="169.788588"/>
     <use style="fill:#1f77b4;stroke:#1f77b4;" x="730.515752" xlink:href="#m1bb4596c2f" y="169.506448"/>
     <use style="fill:#1f77b4;stroke:#1f77b4;" x="705.794979" xlink:href="#m1bb4596c2f" y="169.966656"/>
     <use style="fill:#1f77b4;stroke:#1f77b4;" x="700.546277" xlink:href="#m1bb4596c2f" y="168.874999"/>
     <use style="fill:#1f77b4;stroke:#1f77b4;" x="681.178736" xlink:href="#m1bb4596c2f" y="168.763416"/>
     <use style="fill:#1f77b4;stroke:#1f77b4;" x="720.982862" xlink:href="#m1bb4596c2f" y="169.768697"/>
     <use style="fill:#1f77b4;stroke:#1f77b4;" x="749.167654" xlink:href="#m1bb4596c2f" y="170.081858"/>
     <use style="fill:#1f77b4;stroke:#1f77b4;" x="735.796511" xlink:href="#m1bb4596c2f" y="170.006016"/>
     <use style="fill:#1f77b4;stroke:#1f77b4;" x="679.804803" xlink:href="#m1bb4596c2f" y="168.744183"/>
     <use style="fill:#1f77b4;stroke:#1f77b4;" x="645.294765" xlink:href="#m1bb4596c2f" y="167.776876"/>
     <use style="fill:#1f77b4;stroke:#1f77b4;" x="673.194425" xlink:href="#m1bb4596c2f" y="169.681268"/>
     <use style="fill:#1f77b4;stroke:#1f77b4;" x="724.06909" xlink:href="#m1bb4596c2f" y="170.10754"/>
     <use style="fill:#1f77b4;stroke:#1f77b4;" x="698.666451" xlink:href="#m1bb4596c2f" y="169.594405"/>
     <use style="fill:#1f77b4;stroke:#1f77b4;" x="672.359342" xlink:href="#m1bb4596c2f" y="169.766149"/>
     <use style="fill:#1f77b4;stroke:#1f77b4;" x="659.818996" xlink:href="#m1bb4596c2f" y="167.528579"/>
     <use style="fill:#1f77b4;stroke:#1f77b4;" x="647.731999" xlink:href="#m1bb4596c2f" y="168.575144"/>
     <use style="fill:#1f77b4;stroke:#1f77b4;" x="631.412071" xlink:href="#m1bb4596c2f" y="168.947526"/>
     <use style="fill:#1f77b4;stroke:#1f77b4;" x="623.110613" xlink:href="#m1bb4596c2f" y="167.006731"/>
     <use style="fill:#1f77b4;stroke:#1f77b4;" x="580.372061" xlink:href="#m1bb4596c2f" y="166.879361"/>
     <use style="fill:#1f77b4;stroke:#1f77b4;" x="602.176364" xlink:href="#m1bb4596c2f" y="168.371264"/>
     <use style="fill:#1f77b4;stroke:#1f77b4;" x="606.796343" xlink:href="#m1bb4596c2f" y="169.427635"/>
     <use style="fill:#1f77b4;stroke:#1f77b4;" x="561.882674" xlink:href="#m1bb4596c2f" y="167.047642"/>
     <use style="fill:#1f77b4;stroke:#1f77b4;" x="564.971732" xlink:href="#m1bb4596c2f" y="167.587096"/>
     <use style="fill:#1f77b4;stroke:#1f77b4;" x="572.957029" xlink:href="#m1bb4596c2f" y="169.494338"/>
     <use style="fill:#1f77b4;stroke:#1f77b4;" x="589.618189" xlink:href="#m1bb4596c2f" y="169.670628"/>
     <use style="fill:#1f77b4;stroke:#1f77b4;" x="577.773339" xlink:href="#m1bb4596c2f" y="169.196133"/>
     <use style="fill:#1f77b4;stroke:#1f77b4;" x="613.581366" xlink:href="#m1bb4596c2f" y="168.694106"/>
     <use style="fill:#1f77b4;stroke:#1f77b4;" x="626.024982" xlink:href="#m1bb4596c2f" y="170.090961"/>
     <use style="fill:#1f77b4;stroke:#1f77b4;" x="601.097035" xlink:href="#m1bb4596c2f" y="169.902528"/>
     <use style="fill:#1f77b4;stroke:#1f77b4;" x="523.151706" xlink:href="#m1bb4596c2f" y="166.466168"/>
     <use style="fill:#1f77b4;stroke:#1f77b4;" x="555.335383" xlink:href="#m1bb4596c2f" y="169.988483"/>
     <use style="fill:#1f77b4;stroke:#1f77b4;" x="607.585097" xlink:href="#m1bb4596c2f" y="169.894431"/>
     <use style="fill:#1f77b4;stroke:#1f77b4;" x="605.940045" xlink:href="#m1bb4596c2f" y="170.11821"/>
     <use style="fill:#1f77b4;stroke:#1f77b4;" x="521.299181" xlink:href="#m1bb4596c2f" y="168.99643"/>
     <use style="fill:#1f77b4;stroke:#1f77b4;" x="524.346752" xlink:href="#m1bb4596c2f" y="168.909701"/>
     <use style="fill:#1f77b4;stroke:#1f77b4;" x="523.243251" xlink:href="#m1bb4596c2f" y="169.775821"/>
     <use style="fill:#1f77b4;stroke:#1f77b4;" x="538.600507" xlink:href="#m1bb4596c2f" y="169.090612"/>
     <use style="fill:#1f77b4;stroke:#1f77b4;" x="621.647835" xlink:href="#m1bb4596c2f" y="170.250362"/>
     <use style="fill:#1f77b4;stroke:#1f77b4;" x="494.995371" xlink:href="#m1bb4596c2f" y="168.14445"/>
     <use style="fill:#1f77b4;stroke:#1f77b4;" x="505.475717" xlink:href="#m1bb4596c2f" y="168.183743"/>
     <use style="fill:#1f77b4;stroke:#1f77b4;" x="538.279246" xlink:href="#m1bb4596c2f" y="170.140266"/>
     <use style="fill:#1f77b4;stroke:#1f77b4;" x="606.387694" xlink:href="#m1bb4596c2f" y="170.227775"/>
     <use style="fill:#1f77b4;stroke:#1f77b4;" x="464.084827" xlink:href="#m1bb4596c2f" y="168.538293"/>
     <use style="fill:#1f77b4;stroke:#1f77b4;" x="472.379985" xlink:href="#m1bb4596c2f" y="168.470294"/>
     <use style="fill:#1f77b4;stroke:#1f77b4;" x="481.84636" xlink:href="#m1bb4596c2f" y="168.82695"/>
     <use style="fill:#1f77b4;stroke:#1f77b4;" x="483.267908" xlink:href="#m1bb4596c2f" y="168.986982"/>
     <use style="fill:#1f77b4;stroke:#1f77b4;" x="510.945351" xlink:href="#m1bb4596c2f" y="170.010917"/>
     <use style="fill:#1f77b4;stroke:#1f77b4;" x="453.372963" xlink:href="#m1bb4596c2f" y="167.973624"/>
     <use style="fill:#1f77b4;stroke:#1f77b4;" x="467.674505" xlink:href="#m1bb4596c2f" y="166.649058"/>
     <use style="fill:#1f77b4;stroke:#1f77b4;" x="482.285737" xlink:href="#m1bb4596c2f" y="169.702326"/>
     <use style="fill:#1f77b4;stroke:#1f77b4;" x="468.401415" xlink:href="#m1bb4596c2f" y="169.134827"/>
     <use style="fill:#1f77b4;stroke:#1f77b4;" x="481.985176" xlink:href="#m1bb4596c2f" y="169.790015"/>
     <use style="fill:#1f77b4;stroke:#1f77b4;" x="292.204226" xlink:href="#m1bb4596c2f" y="170.229548"/>
     <use style="fill:#1f77b4;stroke:#1f77b4;" x="519.599228" xlink:href="#m1bb4596c2f" y="169.838987"/>
     <use style="fill:#1f77b4;stroke:#1f77b4;" x="463.575162" xlink:href="#m1bb4596c2f" y="170.020371"/>
     <use style="fill:#1f77b4;stroke:#1f77b4;" x="414.970114" xlink:href="#m1bb4596c2f" y="167.582535"/>
     <use style="fill:#1f77b4;stroke:#1f77b4;" x="446.239635" xlink:href="#m1bb4596c2f" y="169.182366"/>
     <use style="fill:#1f77b4;stroke:#1f77b4;" x="440.954633" xlink:href="#m1bb4596c2f" y="168.525125"/>
     <use style="fill:#1f77b4;stroke:#1f77b4;" x="429.450759" xlink:href="#m1bb4596c2f" y="163.885462"/>
     <use style="fill:#1f77b4;stroke:#1f77b4;" x="427.189799" xlink:href="#m1bb4596c2f" y="163.378046"/>
     <use style="fill:#1f77b4;stroke:#1f77b4;" x="131.428429" xlink:href="#m1bb4596c2f" y="170.243171"/>
     <use style="fill:#1f77b4;stroke:#1f77b4;" x="443.856145" xlink:href="#m1bb4596c2f" y="170.178169"/>
     <use style="fill:#1f77b4;stroke:#1f77b4;" x="435.178824" xlink:href="#m1bb4596c2f" y="169.772881"/>
     <use style="fill:#1f77b4;stroke:#1f77b4;" x="419.849811" xlink:href="#m1bb4596c2f" y="167.050021"/>
     <use style="fill:#1f77b4;stroke:#1f77b4;" x="412.848227" xlink:href="#m1bb4596c2f" y="168.459576"/>
     <use style="fill:#1f77b4;stroke:#1f77b4;" x="372.65311" xlink:href="#m1bb4596c2f" y="165.633106"/>
     <use style="fill:#1f77b4;stroke:#1f77b4;" x="383.93346" xlink:href="#m1bb4596c2f" y="166.490839"/>
     <use style="fill:#1f77b4;stroke:#1f77b4;" x="391.467808" xlink:href="#m1bb4596c2f" y="167.808051"/>
     <use style="fill:#1f77b4;stroke:#1f77b4;" x="400.538199" xlink:href="#m1bb4596c2f" y="167.163932"/>
     <use style="fill:#1f77b4;stroke:#1f77b4;" x="414.107945" xlink:href="#m1bb4596c2f" y="170.082043"/>
     <use style="fill:#1f77b4;stroke:#1f77b4;" x="398.0283" xlink:href="#m1bb4596c2f" y="169.36531"/>
     <use style="fill:#1f77b4;stroke:#1f77b4;" x="400.751373" xlink:href="#m1bb4596c2f" y="169.415209"/>
     <use style="fill:#1f77b4;stroke:#1f77b4;" x="379.116508" xlink:href="#m1bb4596c2f" y="169.809666"/>
     <use style="fill:#1f77b4;stroke:#1f77b4;" x="383.855331" xlink:href="#m1bb4596c2f" y="169.336611"/>
     <use style="fill:#1f77b4;stroke:#1f77b4;" x="378.433227" xlink:href="#m1bb4596c2f" y="168.358408"/>
     <use style="fill:#1f77b4;stroke:#1f77b4;" x="381.687115" xlink:href="#m1bb4596c2f" y="169.157538"/>
     <use style="fill:#1f77b4;stroke:#1f77b4;" x="369.26962" xlink:href="#m1bb4596c2f" y="169.274467"/>
     <use style="fill:#1f77b4;stroke:#1f77b4;" x="322.355438" xlink:href="#m1bb4596c2f" y="139.528807"/>
     <use style="fill:#1f77b4;stroke:#1f77b4;" x="326.677427" xlink:href="#m1bb4596c2f" y="139.047976"/>
     <use style="fill:#1f77b4;stroke:#1f77b4;" x="360.656629" xlink:href="#m1bb4596c2f" y="160.792197"/>
     <use style="fill:#1f77b4;stroke:#1f77b4;" x="364.118977" xlink:href="#m1bb4596c2f" y="167.110676"/>
     <use style="fill:#1f77b4;stroke:#1f77b4;" x="339.120486" xlink:href="#m1bb4596c2f" y="169.74224"/>
     <use style="fill:#1f77b4;stroke:#1f77b4;" x="335.148795" xlink:href="#m1bb4596c2f" y="160.962223"/>
     <use style="fill:#1f77b4;stroke:#1f77b4;" x="345.277836" xlink:href="#m1bb4596c2f" y="166.798157"/>
     <use style="fill:#1f77b4;stroke:#1f77b4;" x="348.252463" xlink:href="#m1bb4596c2f" y="169.410965"/>
     <use style="fill:#1f77b4;stroke:#1f77b4;" x="355.148659" xlink:href="#m1bb4596c2f" y="164.494914"/>
     <use style="fill:#1f77b4;stroke:#1f77b4;" x="284.927046" xlink:href="#m1bb4596c2f" y="170.141213"/>
     <use style="fill:#1f77b4;stroke:#1f77b4;" x="340.91134" xlink:href="#m1bb4596c2f" y="170.106829"/>
     <use style="fill:#1f77b4;stroke:#1f77b4;" x="333.26284" xlink:href="#m1bb4596c2f" y="168.924234"/>
     <use style="fill:#1f77b4;stroke:#1f77b4;" x="287.857465" xlink:href="#m1bb4596c2f" y="164.612685"/>
     <use style="fill:#1f77b4;stroke:#1f77b4;" x="293.733111" xlink:href="#m1bb4596c2f" y="162.229491"/>
     <use style="fill:#1f77b4;stroke:#1f77b4;" x="309.802985" xlink:href="#m1bb4596c2f" y="143.134744"/>
     <use style="fill:#1f77b4;stroke:#1f77b4;" x="323.960825" xlink:href="#m1bb4596c2f" y="168.200855"/>
     <use style="fill:#1f77b4;stroke:#1f77b4;" x="322.959925" xlink:href="#m1bb4596c2f" y="167.541464"/>
     <use style="fill:#1f77b4;stroke:#1f77b4;" x="296.826904" xlink:href="#m1bb4596c2f" y="159.846316"/>
     <use style="fill:#1f77b4;stroke:#1f77b4;" x="305.757257" xlink:href="#m1bb4596c2f" y="150.85963"/>
     <use style="fill:#1f77b4;stroke:#1f77b4;" x="304.759122" xlink:href="#m1bb4596c2f" y="163.303528"/>
     <use style="fill:#1f77b4;stroke:#1f77b4;" x="302.679236" xlink:href="#m1bb4596c2f" y="169.912696"/>
     <use style="fill:#1f77b4;stroke:#1f77b4;" x="282.829288" xlink:href="#m1bb4596c2f" y="167.692397"/>
     <use style="fill:#1f77b4;stroke:#1f77b4;" x="291.652518" xlink:href="#m1bb4596c2f" y="169.101339"/>
     <use style="fill:#1f77b4;stroke:#1f77b4;" x="271.916207" xlink:href="#m1bb4596c2f" y="170.012562"/>
     <use style="fill:#1f77b4;stroke:#1f77b4;" x="271.230098" xlink:href="#m1bb4596c2f" y="166.33832"/>
     <use style="fill:#1f77b4;stroke:#1f77b4;" x="268.83615" xlink:href="#m1bb4596c2f" y="167.185701"/>
     <use style="fill:#1f77b4;stroke:#1f77b4;" x="276.08183" xlink:href="#m1bb4596c2f" y="167.972628"/>
     <use style="fill:#1f77b4;stroke:#1f77b4;" x="274.061944" xlink:href="#m1bb4596c2f" y="169.220184"/>
     <use style="fill:#1f77b4;stroke:#1f77b4;" x="58.479092" xlink:href="#m1bb4596c2f" y="170.242399"/>
     <use style="fill:#1f77b4;stroke:#1f77b4;" x="286.122391" xlink:href="#m1bb4596c2f" y="169.817818"/>
     <use style="fill:#1f77b4;stroke:#1f77b4;" x="258.153473" xlink:href="#m1bb4596c2f" y="168.60102"/>
     <use style="fill:#1f77b4;stroke:#1f77b4;" x="264.72215" xlink:href="#m1bb4596c2f" y="166.232"/>
     <use style="fill:#1f77b4;stroke:#1f77b4;" x="260.427655" xlink:href="#m1bb4596c2f" y="168.990382"/>
     <use style="fill:#1f77b4;stroke:#1f77b4;" x="261.045213" xlink:href="#m1bb4596c2f" y="166.459551"/>
     <use style="fill:#1f77b4;stroke:#1f77b4;" x="250.743605" xlink:href="#m1bb4596c2f" y="163.144275"/>
     <use style="fill:#1f77b4;stroke:#1f77b4;" x="242.621828" xlink:href="#m1bb4596c2f" y="167.315463"/>
     <use style="fill:#1f77b4;stroke:#1f77b4;" x="234.492443" xlink:href="#m1bb4596c2f" y="148.980637"/>
     <use style="fill:#1f77b4;stroke:#1f77b4;" x="234.618145" xlink:href="#m1bb4596c2f" y="157.223969"/>
     <use style="fill:#1f77b4;stroke:#1f77b4;" x="246.250121" xlink:href="#m1bb4596c2f" y="166.833935"/>
     <use style="fill:#1f77b4;stroke:#1f77b4;" x="242.394318" xlink:href="#m1bb4596c2f" y="168.296961"/>
     <use style="fill:#1f77b4;stroke:#1f77b4;" x="231.970394" xlink:href="#m1bb4596c2f" y="168.015623"/>
     <use style="fill:#1f77b4;stroke:#1f77b4;" x="205.15571" xlink:href="#m1bb4596c2f" y="169.393688"/>
     <use style="fill:#1f77b4;stroke:#1f77b4;" x="224.811287" xlink:href="#m1bb4596c2f" y="165.514907"/>
     <use style="fill:#1f77b4;stroke:#1f77b4;" x="223.309852" xlink:href="#m1bb4596c2f" y="165.110155"/>
     <use style="fill:#1f77b4;stroke:#1f77b4;" x="218.518721" xlink:href="#m1bb4596c2f" y="163.996756"/>
     <use style="fill:#1f77b4;stroke:#1f77b4;" x="213.388607" xlink:href="#m1bb4596c2f" y="169.129827"/>
     <use style="fill:#1f77b4;stroke:#1f77b4;" x="215.508811" xlink:href="#m1bb4596c2f" y="161.20484"/>
     <use style="fill:#1f77b4;stroke:#1f77b4;" x="201.304513" xlink:href="#m1bb4596c2f" y="161.89379"/>
     <use style="fill:#1f77b4;stroke:#1f77b4;" x="207.764857" xlink:href="#m1bb4596c2f" y="168.408662"/>
     <use style="fill:#1f77b4;stroke:#1f77b4;" x="212.273287" xlink:href="#m1bb4596c2f" y="163.137473"/>
     <use style="fill:#1f77b4;stroke:#1f77b4;" x="201.579306" xlink:href="#m1bb4596c2f" y="165.222815"/>
     <use style="fill:#1f77b4;stroke:#1f77b4;" x="190.780399" xlink:href="#m1bb4596c2f" y="160.265223"/>
     <use style="fill:#1f77b4;stroke:#1f77b4;" x="191.859021" xlink:href="#m1bb4596c2f" y="167.955858"/>
     <use style="fill:#1f77b4;stroke:#1f77b4;" x="189.114926" xlink:href="#m1bb4596c2f" y="163.342547"/>
     <use style="fill:#1f77b4;stroke:#1f77b4;" x="184.01928" xlink:href="#m1bb4596c2f" y="166.463002"/>
     <use style="fill:#1f77b4;stroke:#1f77b4;" x="188.489481" xlink:href="#m1bb4596c2f" y="164.017619"/>
     <use style="fill:#1f77b4;stroke:#1f77b4;" x="176.744789" xlink:href="#m1bb4596c2f" y="165.253716"/>
     <use style="fill:#1f77b4;stroke:#1f77b4;" x="168.69662" xlink:href="#m1bb4596c2f" y="167.813747"/>
     <use style="fill:#1f77b4;stroke:#1f77b4;" x="170.776635" xlink:href="#m1bb4596c2f" y="168.469016"/>
     <use style="fill:#1f77b4;stroke:#1f77b4;" x="172.297356" xlink:href="#m1bb4596c2f" y="164.233991"/>
     <use style="fill:#1f77b4;stroke:#1f77b4;" x="164.756311" xlink:href="#m1bb4596c2f" y="163.326533"/>
     <use style="fill:#1f77b4;stroke:#1f77b4;" x="159.564846" xlink:href="#m1bb4596c2f" y="164.257189"/>
     <use style="fill:#1f77b4;stroke:#1f77b4;" x="149.149826" xlink:href="#m1bb4596c2f" y="168.754224"/>
     <use style="fill:#1f77b4;stroke:#1f77b4;" x="154.280487" xlink:href="#m1bb4596c2f" y="160.082416"/>
     <use style="fill:#1f77b4;stroke:#1f77b4;" x="152.684433" xlink:href="#m1bb4596c2f" y="161.312629"/>
     <use style="fill:#1f77b4;stroke:#1f77b4;" x="143.001048" xlink:href="#m1bb4596c2f" y="155.705956"/>
     <use style="fill:#1f77b4;stroke:#1f77b4;" x="136.540447" xlink:href="#m1bb4596c2f" y="169.365258"/>
     <use style="fill:#1f77b4;stroke:#1f77b4;" x="155.06263" xlink:href="#m1bb4596c2f" y="167.651024"/>
     <use style="fill:#1f77b4;stroke:#1f77b4;" x="144.342741" xlink:href="#m1bb4596c2f" y="157.025727"/>
     <use style="fill:#1f77b4;stroke:#1f77b4;" x="137.051086" xlink:href="#m1bb4596c2f" y="161.32741"/>
     <use style="fill:#1f77b4;stroke:#1f77b4;" x="136.527558" xlink:href="#m1bb4596c2f" y="165.543234"/>
     <use style="fill:#1f77b4;stroke:#1f77b4;" x="132.011402" xlink:href="#m1bb4596c2f" y="165.762801"/>
     <use style="fill:#1f77b4;stroke:#1f77b4;" x="124.927253" xlink:href="#m1bb4596c2f" y="165.745031"/>
     <use style="fill:#1f77b4;stroke:#1f77b4;" x="119.224415" xlink:href="#m1bb4596c2f" y="158.074288"/>
     <use style="fill:#1f77b4;stroke:#1f77b4;" x="124.878754" xlink:href="#m1bb4596c2f" y="162.533983"/>
     <use style="fill:#1f77b4;stroke:#1f77b4;" x="114.775331" xlink:href="#m1bb4596c2f" y="168.04802"/>
     <use style="fill:#1f77b4;stroke:#1f77b4;" x="110.997582" xlink:href="#m1bb4596c2f" y="155.221411"/>
     <use style="fill:#1f77b4;stroke:#1f77b4;" x="103.77555" xlink:href="#m1bb4596c2f" y="151.193985"/>
     <use style="fill:#1f77b4;stroke:#1f77b4;" x="89.670644" xlink:href="#m1bb4596c2f" y="168.196453"/>
     <use style="fill:#1f77b4;stroke:#1f77b4;" x="93.596092" xlink:href="#m1bb4596c2f" y="142.285654"/>
     <use style="fill:#1f77b4;stroke:#1f77b4;" x="87.529204" xlink:href="#m1bb4596c2f" y="147.247247"/>
     <use style="fill:#1f77b4;stroke:#1f77b4;" x="66.468002" xlink:href="#m1bb4596c2f" y="166.96958"/>
     <use style="fill:#1f77b4;stroke:#1f77b4;" x="60.247538" xlink:href="#m1bb4596c2f" y="152.256922"/>
     <use style="fill:#1f77b4;stroke:#1f77b4;" x="56.528197" xlink:href="#m1bb4596c2f" y="100.802779"/>
     <use style="fill:#1f77b4;stroke:#1f77b4;" x="53.909885" xlink:href="#m1bb4596c2f" y="14.965714"/>
     <use style="fill:#1f77b4;stroke:#1f77b4;" x="48.46737" xlink:href="#m1bb4596c2f" y="157.110032"/>
     <use style="fill:#1f77b4;stroke:#1f77b4;" x="107.383378" xlink:href="#m1bb4596c2f" y="168.797523"/>
     <use style="fill:#1f77b4;stroke:#1f77b4;" x="103.562852" xlink:href="#m1bb4596c2f" y="163.781892"/>
     <use style="fill:#1f77b4;stroke:#1f77b4;" x="93.340569" xlink:href="#m1bb4596c2f" y="159.564821"/>
     <use style="fill:#1f77b4;stroke:#1f77b4;" x="76.871507" xlink:href="#m1bb4596c2f" y="164.485204"/>
     <use style="fill:#1f77b4;stroke:#1f77b4;" x="71.868246" xlink:href="#m1bb4596c2f" y="123.961044"/>
     <use style="fill:#1f77b4;stroke:#1f77b4;" x="66.476477" xlink:href="#m1bb4596c2f" y="124.616188"/>
     <use style="fill:#1f77b4;stroke:#1f77b4;" x="45.135091" xlink:href="#m1bb4596c2f" y="135.486503"/>
     <use style="fill:#1f77b4;stroke:#1f77b4;" x="117.291097" xlink:href="#m1bb4596c2f" y="167.004653"/>
     <use style="fill:#1f77b4;stroke:#1f77b4;" x="97.105707" xlink:href="#m1bb4596c2f" y="167.403908"/>
     <use style="fill:#1f77b4;stroke:#1f77b4;" x="68.475387" xlink:href="#m1bb4596c2f" y="133.187534"/>
     <use style="fill:#1f77b4;stroke:#1f77b4;" x="81.817218" xlink:href="#m1bb4596c2f" y="162.053521"/>
     <use style="fill:#1f77b4;stroke:#1f77b4;" x="75.531913" xlink:href="#m1bb4596c2f" y="166.460627"/>
     <use style="fill:#1f77b4;stroke:#1f77b4;" x="84.345045" xlink:href="#m1bb4596c2f" y="166.927693"/>
    </g>
   </g>
   <g id="line2d_16">
    <path clip-path="url(#pc5de7b5cb7)" d="M 45.135091 170.28 
L 384.999682 170.28 
" style="fill:none;stroke:#000000;stroke-linecap:square;stroke-opacity:0;stroke-width:1.5;"/>
   </g>
   <g id="line2d_17">
    <path clip-path="url(#pc5de7b5cb7)" d="M 54.396986 170.28 
L 54.396986 7.2 
" style="fill:none;stroke:#000000;stroke-dasharray:1.5,2.475;stroke-dashoffset:0;stroke-width:1.5;"/>
   </g>
   <g id="patch_3">
    <path d="M 41.999682 170.28 
L 41.999682 7.2 
" style="fill:none;stroke:#000000;stroke-linecap:square;stroke-linejoin:miter;stroke-width:0.8;"/>
   </g>
   <g id="patch_4">
    <path d="M 376.799682 170.28 
L 376.799682 7.2 
" style="fill:none;stroke:#000000;stroke-linecap:square;stroke-linejoin:miter;stroke-width:0.8;"/>
   </g>
   <g id="patch_5">
    <path d="M 41.999682 170.28 
L 376.799682 170.28 
" style="fill:none;stroke:#000000;stroke-linecap:square;stroke-linejoin:miter;stroke-width:0.8;"/>
   </g>
   <g id="patch_6">
    <path d="M 41.999682 7.2 
L 376.799682 7.2 
" style="fill:none;stroke:#000000;stroke-linecap:square;stroke-linejoin:miter;stroke-width:0.8;"/>
   </g>
   <g id="text_17">
    <!-- $\bar{{f}}_{b}\approx 0.65$ -->
    <g transform="translate(57.728542 47.514442)scale(0.1 -0.1)">
     <defs>
      <path d="M 23.09375 66.515625 
C 23.203125 66.921875 23.40625 67.515625 23.40625 68 
C 23.40625 69 22.40625 69 22.203125 69 
C 22.09375 69 18.5 68.640625 16.703125 68.390625 
C 15 68.390625 13.5 68.09375 11.703125 68.09375 
C 9.296875 67.890625 8.59375 67.796875 8.59375 66 
C 8.59375 65 9.59375 65 10.59375 65 
C 15.703125 65 15.703125 64.109375 15.703125 63.125 
C 15.703125 62.4375 14.90625 59.546875 14.5 57.75 
L 12.09375 48.203125 
C 11.09375 44.234375 5.40625 21.671875 5 19.875 
C 4.5 17.40625 4.5 15.703125 4.5 14.40625 
C 4.5 4.28125 10.203125 -1 16.703125 -1 
C 28.296875 -1 40.296875 13.875 40.296875 28.34375 
C 40.296875 37.515625 35.09375 44 27.59375 44 
C 22.40625 44 17.703125 39.71875 15.796875 37.71875 
z
M 16.796875 1 
C 13.59375 1 10.09375 3.390625 10.09375 11.171875 
C 10.09375 14.46875 10.40625 16.359375 12.203125 23.34375 
C 12.5 24.640625 14.09375 31.03125 14.5 32.328125 
C 14.703125 33.125 20.59375 42.015625 27.40625 42.015625 
C 31.796875 42.015625 33.796875 37.625 33.796875 32.4375 
C 33.796875 27.640625 31 16.359375 28.5 11.171875 
C 26 5.78125 21.40625 1 16.796875 1 
z
" id="CMMI12-98"/>
      <path d="M 72.21875 45.15625 
C 72.21875 47.234375 71.515625 48.140625 70.828125 48.140625 
C 70.421875 48.140625 69.515625 47.734375 69.421875 45.453125 
C 69.015625 38.578125 62.015625 34.5 55.515625 34.5 
C 49.71875 34.5 44.71875 37.578125 39.515625 41.0625 
C 34.109375 44.65625 28.703125 48.234375 22.203125 48.234375 
C 12.90625 48.234375 5.5 41.15625 5.5 31.984375 
C 5.5 29.796875 6.296875 29 6.90625 29 
C 7.90625 29 8.296875 30.890625 8.296875 31.28125 
C 8.796875 39.65625 17 42.640625 22.203125 42.640625 
C 28 42.640625 33.015625 39.546875 38.203125 36.0625 
C 43.609375 32.484375 49.015625 28.90625 55.515625 28.90625 
C 64.828125 28.90625 72.21875 35.984375 72.21875 45.15625 
z
M 72.21875 21.734375 
C 72.21875 24.640625 71.015625 24.84375 70.828125 24.84375 
C 70.421875 24.84375 69.515625 24.34375 69.421875 22.140625 
C 69.015625 15.234375 62.015625 11.140625 55.515625 11.140625 
C 49.71875 11.140625 44.71875 14.25 39.515625 17.765625 
C 34.109375 21.390625 28.703125 25 22.203125 25 
C 12.90625 25 5.5 17.890625 5.5 8.65625 
C 5.5 6.4375 6.296875 5.640625 6.90625 5.640625 
C 7.90625 5.640625 8.296875 7.546875 8.296875 7.953125 
C 8.796875 16.390625 17 19.40625 22.203125 19.40625 
C 28 19.40625 33.015625 16.28125 38.203125 12.765625 
C 43.609375 9.15625 49.015625 5.53125 55.515625 5.53125 
C 65.015625 5.53125 72.21875 12.9375 72.21875 21.734375 
z
" id="CMSY10-25"/>
      <path d="M 18.40625 4.796875 
C 18.40625 7.6875 16 9.671875 13.59375 9.671875 
C 10.703125 9.671875 8.703125 7.28125 8.703125 4.890625 
C 8.703125 2 11.09375 0 13.5 0 
C 16.40625 0 18.40625 2.390625 18.40625 4.796875 
z
" id="CMMI12-58"/>
     </defs>
     <use transform="translate(22.773228 26.296621)scale(0.996264)" xlink:href="#CMR17-22"/>
     <use transform="scale(0.996264)" xlink:href="#CMMI12-102"/>
     <use transform="translate(48.083238 -14.943915)scale(0.697382)" xlink:href="#CMMI12-98"/>
     <use transform="translate(105.288366 0)scale(0.996264)" xlink:href="#CMSY10-25"/>
     <use transform="translate(210.449842 0)scale(0.996264)" xlink:href="#CMR17-48"/>
     <use transform="translate(256.140319 0)scale(0.996264)" xlink:href="#CMMI12-58"/>
     <use transform="translate(283.237496 0)scale(0.996264)" xlink:href="#CMR17-54"/>
     <use transform="translate(328.927973 0)scale(0.996264)" xlink:href="#CMR17-53"/>
    </g>
   </g>
   <g id="legend_1">
    <g id="patch_7">
     <path d="M 249.028114 30.648833 
L 369.799682 30.648833 
Q 371.799682 30.648833 371.799682 28.648833 
L 371.799682 14.2 
Q 371.799682 12.2 369.799682 12.2 
L 249.028114 12.2 
Q 247.028114 12.2 247.028114 14.2 
L 247.028114 28.648833 
Q 247.028114 30.648833 249.028114 30.648833 
z
" style="fill:#ffffff;opacity:0.8;stroke:#cccccc;stroke-linejoin:miter;"/>
    </g>
    <g id="line2d_18">
     <path d="M 261.028114 23.798437 
L 261.028114 18.985937 
" style="fill:none;stroke:#1f77b4;stroke-width:1.5;"/>
    </g>
    <g id="line2d_19">
     <path d="M 251.028114 23.798437 
L 271.028114 23.798437 
" style="fill:none;stroke:#000000;stroke-linecap:square;stroke-opacity:0;stroke-width:1.5;"/>
    </g>
    <g id="line2d_20">
     <g>
      <use style="fill:#1f77b4;stroke:#1f77b4;" x="261.028114" xlink:href="#m1bb4596c2f" y="18.985937"/>
     </g>
    </g>
    <g id="text_18">
     <!-- opt. DMD, $u_x$, $u_y$, $a$ -->
     <g transform="translate(279.028114 23.798437)scale(0.1 -0.1)">
      <defs>
       <path d="M 44.203125 21.1875 
C 44.203125 34 34.703125 44 23.5 44 
C 12 44 2.703125 33.703125 2.703125 21.1875 
C 2.703125 8.5 12.296875 -1 23.40625 -1 
C 34.796875 -1 44.203125 8.796875 44.203125 21.1875 
z
M 23.5 5.265625 
C 16.40625 5.265625 10.296875 11.078125 10.296875 22 
C 10.296875 33.609375 17.40625 37.921875 23.40625 37.921875 
C 29.90625 37.921875 36.59375 33.21875 36.59375 22 
C 36.59375 10.671875 30.09375 5.265625 23.5 5.265625 
z
" id="CMSS17-111"/>
       <path d="M 15.09375 5.203125 
C 18.40625 2.015625 22.90625 -0.078125 27.703125 -0.078125 
C 37 -0.078125 45 9.421875 45 22.0625 
C 45 33.734375 39 44 30.40625 44 
C 25.40625 44 19.40625 42.21875 14.90625 38.625 
L 14.90625 43.203125 
L 7.5 43.203125 
L 7.5 -19 
L 15.09375 -19 
z
M 15.09375 32.8125 
C 15.90625 34 19.296875 37.734375 24.796875 37.734375 
C 31.796875 37.734375 37.40625 30.625 37.40625 22.0625 
C 37.40625 12.296875 30.59375 6 23.90625 6 
C 21.90625 6 19.796875 6.484375 17.796875 8.171875 
C 15.09375 10.53125 15.09375 12 15.09375 13.390625 
z
" id="CMSS17-112"/>
       <path d="M 16.703125 37 
L 29.703125 37 
L 29.703125 42.765625 
L 16.703125 42.765625 
L 16.703125 55 
L 9.59375 55 
L 9.59375 42.765625 
L 1.703125 42.765625 
L 1.703125 37 
L 9.40625 37 
L 9.40625 11.703125 
C 9.40625 6 10.703125 -1 17.296875 -1 
C 22.296875 -1 26.90625 0.390625 31.296875 2.6875 
L 29.703125 8.5625 
C 27.296875 6.46875 24.40625 5.265625 21.296875 5.265625 
C 16.90625 5.265625 16.703125 10.875 16.703125 13.375 
z
" id="CMSS17-116"/>
       <path d="M 17 7.96875 
L 9 7.96875 
L 9 0 
L 17 0 
z
" id="CMSS17-46"/>
       <path d="M 8.90625 69 
L 8.90625 0 
L 33.5 0 
C 49.90625 0 62.5 15.3125 62.5 33.90625 
C 62.5 53.09375 49.90625 69 33.5 69 
z
M 17.09375 5.578125 
L 17.09375 63.421875 
L 31.296875 63.421875 
C 44.703125 63.421875 54.296875 51.203125 54.296875 33.90625 
C 54.296875 17.296875 44.796875 5.578125 31.296875 5.578125 
z
" id="CMSS17-68"/>
       <path d="M 49.90625 37.046875 
L 45.09375 23.015625 
C 44.296875 20.421875 41.59375 12.359375 41 9.171875 
L 40.90625 9.171875 
C 40.59375 11.171875 40 13.265625 38.40625 18.34375 
C 37.5 21.328125 36.5 24.40625 35.5 27.203125 
L 20.703125 69 
L 9 69 
L 9 0 
L 16.796875 0 
L 16.796875 60.9375 
L 16.90625 60.9375 
C 16.90625 60.84375 17.796875 56.453125 23.90625 39.046875 
L 37.09375 1.5 
L 44.5 1.5 
L 56.40625 34.859375 
C 57.203125 37.15625 59.703125 44.421875 60.796875 47.90625 
C 61.796875 50.890625 64.296875 58.25 64.90625 61.140625 
L 65 61.140625 
L 65 0 
L 72.90625 0 
L 72.90625 69 
L 61.296875 69 
z
" id="CMSS17-77"/>
       <path d="M 17 0.09375 
L 17 7.96875 
L 9 7.96875 
L 9 0 
L 11.5 0 
L 8.90625 -12.5 
L 12.90625 -12.5 
z
" id="CMSS17-44"/>
       <path d="M 34.09375 5.78125 
C 35.40625 0.203125 40.203125 -1 42.59375 -1 
C 45.796875 -1 48.203125 1.09375 49.796875 4.484375 
C 51.5 8.078125 52.796875 13.96875 52.796875 14.265625 
C 52.796875 14.765625 52.40625 15.171875 51.796875 15.171875 
C 50.90625 15.171875 50.796875 14.671875 50.40625 13.171875 
C 48.59375 6.28125 46.796875 1 42.796875 1 
C 39.796875 1 39.796875 4.296875 39.796875 5.59375 
C 39.796875 7.890625 40.09375 8.875 41.09375 13.078125 
C 41.796875 15.765625 42.5 18.453125 43.09375 21.25 
L 47.203125 37.515625 
C 47.90625 40.015625 47.90625 40.21875 47.90625 40.515625 
C 47.90625 42.015625 46.703125 43.015625 45.203125 43.015625 
C 42.296875 43.015625 41.59375 40.515625 41 38.015625 
C 40 34.125 34.59375 12.671875 33.90625 9.1875 
C 33.796875 9.1875 29.90625 1 22.59375 1 
C 17.40625 1 16.40625 5.484375 16.40625 9.1875 
C 16.40625 14.875 19.203125 22.84375 21.796875 29.53125 
C 23 32.734375 23.5 34.03125 23.5 36.015625 
C 23.5 40.3125 20.40625 44 15.59375 44 
C 6.40625 44 2.703125 29.53125 2.703125 28.734375 
C 2.703125 28.34375 3.09375 27.84375 3.796875 27.84375 
C 4.703125 27.84375 4.796875 28.234375 5.203125 29.625 
C 7.59375 38.140625 11.5 41.90625 15.296875 41.90625 
C 16.296875 41.90625 17.90625 41.90625 17.90625 38.71875 
C 17.90625 36.125 16.796875 33.234375 15.296875 29.4375 
C 10.90625 17.5625 10.40625 13.765625 10.40625 10.78125 
C 10.40625 0.59375 18.09375 -1 22.203125 -1 
C 28.59375 -1 32.09375 3.390625 34.09375 5.78125 
z
" id="CMMI12-117"/>
       <path d="M 47.40625 40.71875 
C 44.203125 40.109375 43 37.71875 43 35.828125 
C 43 33.421875 44.90625 32.625 46.296875 32.625 
C 49.296875 32.625 51.40625 35.21875 51.40625 37.921875 
C 51.40625 42.109375 46.59375 44 42.40625 44 
C 36.296875 44 32.90625 38.015625 32 36.125 
C 29.703125 44 23.5 44 21.703125 44 
C 11.5 44 6.09375 30.9375 6.09375 28.734375 
C 6.09375 28.34375 6.5 27.84375 7.203125 27.84375 
C 8 27.84375 8.203125 28.4375 8.40625 28.84375 
C 11.796875 39.921875 18.5 42.015625 21.40625 42.015625 
C 25.90625 42.015625 26.796875 37.8125 26.796875 35.421875 
C 26.796875 33.234375 26.203125 30.9375 25 26.140625 
L 21.59375 12.46875 
C 20.09375 6.484375 17.203125 1 11.90625 1 
C 11.40625 1 8.90625 1 6.796875 2.296875 
C 10.40625 3 11.203125 5.984375 11.203125 7.1875 
C 11.203125 9.1875 9.703125 10.375 7.796875 10.375 
C 5.40625 10.375 2.796875 8.28125 2.796875 5.09375 
C 2.796875 0.890625 7.5 -1 11.796875 -1 
C 16.59375 -1 20 2.796875 22.09375 6.890625 
C 23.703125 1 28.703125 -1 32.40625 -1 
C 42.59375 -1 48 12.078125 48 14.265625 
C 48 14.765625 47.59375 15.171875 47 15.171875 
C 46.09375 15.171875 46 14.671875 45.703125 13.875 
C 43 5.09375 37.203125 1 32.703125 1 
C 29.203125 1 27.296875 3.59375 27.296875 7.6875 
C 27.296875 9.875 27.703125 11.46875 29.296875 18.0625 
L 32.796875 31.625 
C 34.296875 37.625 37.703125 42.015625 42.296875 42.015625 
C 42.5 42.015625 45.296875 42.015625 47.40625 40.71875 
z
" id="CMMI12-120"/>
       <path d="M 26.296875 -10.9375 
C 23.59375 -14.671875 19.703125 -18 14.796875 -18 
C 13.59375 -18 8.796875 -18 7.296875 -13.890625 
C 7.59375 -13.984375 8.09375 -13.984375 8.296875 -13.984375 
C 11.296875 -13.984375 13.296875 -11.390625 13.296875 -9.09375 
C 13.296875 -6.796875 11.40625 -6 9.90625 -6 
C 8.296875 -6 4.796875 -7.15625 4.796875 -11.859375 
C 4.796875 -16.734375 9.09375 -20.09375 14.796875 -20.09375 
C 24.796875 -20.09375 34.90625 -10.9375 37.703125 0.09375 
L 47.5 38.828125 
C 47.59375 39.328125 47.796875 39.9375 47.796875 40.53125 
C 47.796875 42.015625 46.59375 43.015625 45.09375 43.015625 
C 44.203125 43.015625 42.09375 42.609375 41.296875 39.609375 
L 33.90625 10.28125 
C 33.40625 8.484375 33.40625 8.28125 32.59375 7.1875 
C 30.59375 4.390625 27.296875 1 22.5 1 
C 16.90625 1 16.40625 6.484375 16.40625 9.1875 
C 16.40625 14.875 19.09375 22.546875 21.796875 29.734375 
C 22.90625 32.625 23.5 34.03125 23.5 36.015625 
C 23.5 40.21875 20.5 44 15.59375 44 
C 6.40625 44 2.703125 29.53125 2.703125 28.734375 
C 2.703125 28.34375 3.09375 27.84375 3.796875 27.84375 
C 4.703125 27.84375 4.796875 28.234375 5.203125 29.640625 
C 7.59375 38.015625 11.40625 42.015625 15.296875 42.015625 
C 16.203125 42.015625 17.90625 42.015625 17.90625 38.71875 
C 17.90625 36.125 16.796875 33.234375 15.296875 29.4375 
C 10.40625 16.359375 10.40625 13.078125 10.40625 10.671875 
C 10.40625 1.203125 17.203125 -1 22.203125 -1 
C 25.09375 -1 28.703125 -0.09375 32.203125 3.59375 
L 32.296875 3.5 
C 30.796875 -2.296875 29.796875 -6.125 26.296875 -10.9375 
z
" id="CMMI12-121"/>
       <path d="M 30.09375 11.875 
C 29.59375 10.171875 29.59375 9.984375 28.203125 8.078125 
C 26 5.28125 21.59375 1 16.90625 1 
C 12.796875 1 10.5 4.6875 10.5 10.578125 
C 10.5 16.0625 13.59375 27.234375 15.5 31.4375 
C 18.90625 38.421875 23.59375 42.015625 27.5 42.015625 
C 34.09375 42.015625 35.40625 33.828125 35.40625 33.03125 
C 35.40625 32.9375 35.09375 31.625 35 31.4375 
z
M 36.5 37.421875 
C 35.40625 40.015625 32.703125 44 27.5 44 
C 16.203125 44 4 29.4375 4 14.671875 
C 4 4.796875 9.796875 -1 16.59375 -1 
C 22.09375 -1 26.796875 3.296875 29.59375 6.59375 
C 30.59375 0.703125 35.296875 -1 38.296875 -1 
C 41.296875 -1 43.703125 0.796875 45.5 4.390625 
C 47.09375 7.78125 48.5 13.875 48.5 14.265625 
C 48.5 14.765625 48.09375 15.171875 47.5 15.171875 
C 46.59375 15.171875 46.5 14.671875 46.09375 13.171875 
C 44.59375 7.28125 42.703125 1 38.59375 1 
C 35.703125 1 35.5 3.59375 35.5 5.59375 
C 35.5 7.890625 35.796875 8.984375 36.703125 12.875 
C 37.40625 15.375 37.90625 17.5625 38.703125 20.453125 
C 42.40625 35.421875 43.296875 39.015625 43.296875 39.609375 
C 43.296875 41.015625 42.203125 42.109375 40.703125 42.109375 
C 37.5 42.109375 36.703125 38.625 36.5 37.421875 
z
" id="CMMI12-97"/>
      </defs>
      <use transform="scale(0.996264)" xlink:href="#CMSS17-111"/>
      <use transform="translate(46.843624 0)scale(0.996264)" xlink:href="#CMSS17-112"/>
      <use transform="translate(95.048567 0)scale(0.996264)" xlink:href="#CMSS17-116"/>
      <use transform="translate(128.880133 0)scale(0.996264)" xlink:href="#CMSS17-46"/>
      <use transform="translate(196.543145 0)scale(0.996264)" xlink:href="#CMSS17-68"/>
      <use transform="translate(264.085987 0)scale(0.996264)" xlink:href="#CMSS17-77"/>
      <use transform="translate(345.762017 0)scale(0.996264)" xlink:href="#CMSS17-68"/>
      <use transform="translate(413.304858 0)scale(0.996264)" xlink:href="#CMSS17-44"/>
      <use transform="translate(470.558176 0)scale(0.996264)" xlink:href="#CMMI12-117"/>
      <use transform="translate(526.078506 -14.943915)scale(0.697382)" xlink:href="#CMMI12-120"/>
      <use transform="translate(565.380297 0)scale(0.996264)" xlink:href="#CMSS17-44"/>
      <use transform="translate(622.633615 0)scale(0.996264)" xlink:href="#CMMI12-117"/>
      <use transform="translate(678.153944 -14.943915)scale(0.697382)" xlink:href="#CMMI12-121"/>
      <use transform="translate(714.449051 0)scale(0.996264)" xlink:href="#CMSS17-44"/>
      <use transform="translate(771.702369 0)scale(0.996264)" xlink:href="#CMMI12-97"/>
     </g>
    </g>
   </g>
  </g>
 </g>
 <defs>
  <clipPath id="pc5de7b5cb7">
   <rect height="163.08" width="334.8" x="41.999682" y="7.2"/>
  </clipPath>
 </defs>
</svg>
