<?xml version="1.0" encoding="utf-8" standalone="no"?>
<!DOCTYPE svg PUBLIC "-//W3C//DTD SVG 1.1//EN"
  "http://www.w3.org/Graphics/SVG/1.1/DTD/svg11.dtd">
<!-- Created with matplotlib (https://matplotlib.org/) -->
<svg height="261.91845pt" version="1.1" viewBox="0 0 389.21625 261.91845" width="389.21625pt" xmlns="http://www.w3.org/2000/svg" xmlns:xlink="http://www.w3.org/1999/xlink">
 <metadata>
  <rdf:RDF xmlns:cc="http://creativecommons.org/ns#" xmlns:dc="http://purl.org/dc/elements/1.1/" xmlns:rdf="http://www.w3.org/1999/02/22-rdf-syntax-ns#">
   <cc:Work>
    <dc:type rdf:resource="http://purl.org/dc/dcmitype/StillImage"/>
    <dc:date>2022-06-28T16:06:57.995876</dc:date>
    <dc:format>image/svg+xml</dc:format>
    <dc:creator>
     <cc:Agent>
      <dc:title>Matplotlib v3.3.3, https://matplotlib.org/</dc:title>
     </cc:Agent>
    </dc:creator>
   </cc:Work>
  </rdf:RDF>
 </metadata>
 <defs>
  <style type="text/css">*{stroke-linecap:butt;stroke-linejoin:round;}</style>
 </defs>
 <g id="figure_1">
  <g id="patch_1">
   <path d="M 0 261.91845 
L 389.21625 261.91845 
L 389.21625 0 
L 0 0 
z
" style="fill:none;"/>
  </g>
  <g id="axes_1">
   <g id="patch_2">
    <path d="M 47.21625 224.64 
L 382.01625 224.64 
L 382.01625 7.2 
L 47.21625 7.2 
z
" style="fill:#ffffff;"/>
   </g>
   <g id="line2d_1">
    <path clip-path="url(#p3a1ac76186)" d="M -1 97.289366 
L 60.612021 97.285532 
L 95.739137 90.524946 
L 116.287182 76.036769 
L 130.866253 66.309351 
L 142.174658 62.778718 
L 151.414298 65.191956 
L 159.226303 74.034212 
L 165.993369 90.796309 
L 171.962344 107.512346 
L 177.301774 106.713861 
L 182.131877 111.118819 
L 186.541415 117.16338 
L 190.597796 117.865745 
L 194.353419 117.264867 
L 197.84982 118.511899 
L 201.120485 118.701244 
L 204.192802 116.150342 
L 207.08946 115.85821 
L 209.829464 119.53425 
L 212.428891 121.142864 
L 214.901465 116.207376 
L 217.258993 113.115199 
L 219.511707 115.459901 
L 221.668531 125.757107 
L 223.737296 134.179516 
L 225.724912 119.623939 
L 227.637506 113.352807 
L 229.480535 113.376848 
L 231.258883 117.590585 
L 234.63865 132.354874 
L 236.247601 134.166675 
L 237.807039 133.143154 
L 239.319919 129.101801 
L 240.788941 124.006225 
L 242.216576 121.879025 
L 243.605094 122.178338 
L 244.95658 120.577514 
L 246.272958 117.330675 
L 247.556007 115.017366 
L 248.807372 113.493524 
L 250.028581 113.697257 
L 251.221053 116.209477 
L 252.386109 117.12267 
L 254.638823 111.74002 
L 255.728708 111.757565 
L 256.795647 116.106116 
L 257.840585 126.925763 
L 258.864412 135.07567 
L 259.867964 127.750931 
L 260.852028 123.333838 
L 261.817347 122.041012 
L 262.764622 123.691609 
L 264.607651 132.444606 
L 265.504625 134.2234 
L 266.385999 137.063527 
L 267.252306 143.967406 
L 268.104052 142.851989 
L 268.94172 136.869473 
L 269.765766 137.980052 
L 270.576627 141.783571 
L 272.160434 132.673151 
L 272.934155 134.482735 
L 273.69624 140.723541 
L 274.447035 141.78464 
L 275.186868 138.76978 
L 275.916057 137.316734 
L 276.634902 136.288283 
L 277.343693 136.998859 
L 278.042707 137.226997 
L 279.412458 128.695285 
L 280.083696 126.395654 
L 280.746159 127.76471 
L 281.400074 134.195873 
L 282.045659 143.80374 
L 282.683123 144.17963 
L 283.312668 140.29941 
L 284.548771 135.492445 
L 285.155697 134.514784 
L 285.75544 136.294241 
L 287.513225 145.823187 
L 288.085861 154.089057 
L 288.652098 159.655196 
L 289.212079 147.338306 
L 289.765939 140.546577 
L 290.313811 140.69903 
L 290.855824 143.653409 
L 291.392101 143.749364 
L 291.922763 143.02667 
L 292.447925 143.170786 
L 292.967701 143.004248 
L 293.4822 143.81688 
L 293.991528 145.80733 
L 294.495788 144.264476 
L 294.99508 138.877396 
L 295.489501 135.965168 
L 295.979145 136.80198 
L 296.464103 138.684077 
L 296.944464 139.128603 
L 297.420314 139.210066 
L 297.891738 140.659176 
L 299.734767 153.32999 
L 300.185239 148.707556 
L 300.631742 142.674062 
L 301.074344 139.792821 
L 301.513115 140.206935 
L 301.94812 142.89968 
L 302.807085 152.510545 
L 303.651733 144.172996 
L 304.068836 146.274631 
L 304.482534 150.106254 
L 305.299934 146.013367 
L 305.703743 146.748316 
L 306.104359 149.760651 
L 306.501833 156.474596 
L 306.896214 169.79272 
L 307.28755 169.771359 
L 307.675887 158.514806 
L 308.061271 156.197133 
L 308.443746 162.019679 
L 308.823356 172.694446 
L 309.200144 168.781665 
L 309.574151 161.854283 
L 309.945418 159.206366 
L 310.313985 157.850856 
L 311.043173 152.217579 
L 311.40387 152.211337 
L 311.762018 153.774553 
L 312.117652 153.500496 
L 312.821521 147.929864 
L 313.169823 148.194745 
L 313.515747 153.023657 
L 313.859326 161.278729 
L 314.200591 165.111104 
L 314.539574 163.022061 
L 315.210812 156.908724 
L 315.543126 156.035844 
L 315.873275 159.155479 
L 316.52719 176.064553 
L 316.851011 174.257542 
L 317.172775 170.945742 
L 317.492509 174.300877 
L 317.810239 174.483748 
L 318.125989 160.278434 
L 318.439784 151.954297 
L 318.751648 150.278347 
L 319.061604 154.025521 
L 319.675887 166.659303 
L 320.282813 157.188765 
L 320.583572 157.787867 
L 320.882556 165.523421 
L 321.179787 179.648892 
L 321.475285 176.454168 
L 321.76907 169.58794 
L 322.061161 165.8248 
L 322.351579 163.895377 
L 322.640341 166.283115 
L 322.927468 174.644629 
L 323.212977 177.363912 
L 323.496886 170.566354 
L 323.779214 168.225138 
L 324.059978 167.123441 
L 324.339195 164.791003 
L 324.893055 162.424458 
L 325.440928 153.439895 
L 325.712659 152.969375 
L 325.98294 158.536391 
L 326.251788 168.738051 
L 326.519218 167.359834 
L 326.785243 162.15787 
L 327.049879 161.629379 
L 327.313141 164.363529 
L 327.575041 169.714925 
L 327.835596 172.006251 
L 328.094817 168.109993 
L 328.35272 167.592717 
L 328.86462 175.706254 
L 329.118645 176.144127 
L 329.622905 178.628663 
L 329.873165 176.35799 
L 330.122196 172.721824 
L 330.37001 171.24676 
L 330.616617 172.315833 
L 330.86203 172.5402 
L 331.591219 162.788089 
L 331.831968 163.710392 
L 332.54743 171.982411 
L 333.018854 185.190093 
L 333.252932 181.303219 
L 333.485933 179.995231 
L 333.948747 182.18674 
L 334.861883 179.135484 
L 335.08762 181.018154 
L 335.312355 185.875194 
L 335.536098 182.914793 
L 335.980642 170.572418 
L 336.201461 170.391924 
L 336.421321 172.260706 
L 336.640231 172.920837 
L 336.8582 170.976975 
L 337.075236 170.416236 
L 337.291346 172.975699 
L 337.506538 173.963916 
L 337.934201 168.10946 
L 338.146686 171.203271 
L 338.358285 177.057569 
L 338.569003 176.782587 
L 338.778849 175.199885 
L 338.98783 175.772796 
L 339.403223 169.531168 
L 339.60965 169.47843 
L 340.019998 173.810447 
L 340.629357 187.852577 
L 340.830859 185.544663 
L 341.031563 189.107627 
L 341.231475 201.027049 
L 341.430602 194.427484 
L 341.62895 181.888815 
L 341.826524 178.403384 
L 342.023331 182.726526 
L 342.219376 190.172091 
L 342.609207 181.361138 
L 342.803003 185.483301 
L 342.996061 192.858962 
L 343.379985 193.253262 
L 343.570862 196.468326 
L 343.761023 197.102267 
L 344.32726 183.470421 
L 344.514608 182.366136 
L 344.701267 182.137016 
L 344.88724 183.277138 
L 345.072534 186.949147 
L 345.441101 204.206416 
L 345.807006 182.943022 
L 345.988973 181.560046 
L 346.350958 194.782268 
L 346.710376 176.882693 
L 346.889134 175.937174 
L 347.067263 181.678642 
L 347.244769 193.970766 
L 347.421654 195.982245 
L 347.773584 179.668346 
L 347.948637 180.997123 
L 348.296939 202.745988 
L 348.642863 191.533228 
L 348.814944 194.099494 
L 348.986442 198.682867 
L 349.157362 197.366847 
L 349.327708 193.880744 
L 349.497482 194.2816 
L 349.66669 198.023252 
L 349.835335 196.643067 
L 350.17095 186.788229 
L 350.504358 190.390059 
L 350.835586 183.674533 
L 351.000391 184.859793 
L 351.328404 198.921853 
L 351.654306 188.730233 
L 351.816475 187.830898 
L 351.978127 190.361832 
L 352.299891 205.214488 
L 352.619625 196.10468 
L 352.937355 211.191475 
L 353.878764 189.283176 
L 354.033979 192.770518 
L 354.18872 200.998411 
L 354.34299 200.983974 
L 354.650129 187.44021 
L 354.803003 188.366174 
L 355.107375 204.381194 
L 355.258878 204.128677 
L 355.409929 198.522468 
L 355.560532 197.258964 
L 356.009672 204.64885 
L 356.306903 213.56033 
L 356.602401 195.957901 
L 356.749506 197.601343 
L 356.896186 208.609194 
L 357.042442 207.912655 
L 357.333694 187.971703 
L 357.478695 187.403329 
L 357.911224 197.662302 
L 358.054584 195.339293 
L 358.19754 195.83326 
L 358.482247 202.77661 
L 358.765363 190.883678 
L 358.90633 192.921382 
L 359.187094 207.976081 
L 359.466311 201.705554 
L 359.743998 202.266961 
L 359.882273 200.6974 
L 360.020171 200.499578 
L 360.157696 205.878382 
L 360.294848 219.000698 
L 360.704091 190.77279 
L 360.839775 192.180874 
L 361.110057 214.438478 
L 361.244659 210.081272 
L 361.378904 202.374102 
L 361.512795 201.784717 
L 361.779521 219.971702 
L 362.176995 199.77608 
L 362.308797 201.875736 
L 362.571376 208.952783 
L 362.962712 203.589599 
L 363.092489 203.022221 
L 363.221934 203.086669 
L 363.351049 203.543539 
L 363.991736 210.224972 
L 364.245761 208.389304 
L 364.372297 211.303948 
L 364.498518 219.745584 
L 364.624425 215.099629 
L 364.875306 202.614721 
L 365.12495 210.100627 
L 365.497126 197.320921 
L 365.62058 202.668799 
L 365.866588 221.044535 
L 366.111409 203.748361 
L 366.233377 205.62787 
L 366.476436 213.148561 
L 366.718335 201.304522 
L 366.838853 204.06439 
L 367.079032 216.755918 
L 367.318078 205.751617 
L 367.43718 205.298877 
L 367.556002 205.733445 
L 367.792814 203.746196 
L 368.028525 213.546785 
L 368.263144 201.518069 
L 368.380048 201.230222 
L 368.496683 206.355106 
L 368.72915 229.17818 
L 368.960555 216.607798 
L 369.075863 215.92803 
L 369.190909 217.919105 
L 369.305694 217.391585 
L 369.42022 214.406964 
L 369.534488 214.982944 
L 369.762253 223.21817 
L 369.989 217.44412 
L 370.101993 221.60338 
L 370.214736 217.671566 
L 370.439471 205.614646 
L 370.551466 208.782821 
L 370.774716 227.410555 
L 370.885974 225.339973 
L 371.107758 220.371728 
L 371.328577 224.763057 
L 371.548437 220.841862 
L 371.65801 222.394125 
L 371.985317 213.090573 
L 372.202352 218.53483 
L 372.418462 208.738232 
L 372.526172 209.222344 
L 372.740909 227.180518 
L 372.954739 205.631285 
L 373.061317 206.020054 
L 373.379712 218.58758 
L 373.59087 217.515181 
L 373.801151 221.560677 
L 374.010563 215.017953 
L 374.219114 222.156966 
L 374.42681 210.718286 
L 374.530339 212.139934 
L 374.736766 228.262383 
L 374.942355 209.618188 
L 375.044838 211.880303 
L 375.249184 239.962222 
L 375.452709 217.694803 
L 375.554166 217.56252 
L 375.857324 228.423199 
L 376.058426 224.25288 
L 376.258734 233.981714 
L 376.358591 231.723164 
L 376.557718 233.307307 
L 376.756066 218.332354 
L 376.854949 219.91861 
L 377.052139 236.571411 
L 377.248564 222.286818 
L 377.444231 220.519302 
L 377.541782 220.606688 
L 377.639146 222.782397 
L 377.833314 229.817276 
L 378.02674 220.462286 
L 378.123177 222.651235 
L 378.315503 235.474644 
L 378.60263 217.818469 
L 378.697978 222.503907 
L 378.793148 233.317547 
L 379.077588 210.387916 
L 379.172048 213.63538 
L 379.360441 220.823299 
L 379.454376 216.831493 
L 379.548137 216.957728 
L 379.641725 219.802056 
L 379.73514 219.322285 
L 379.828383 217.153782 
L 379.921455 217.626522 
L 380.107088 220.853603 
L 380.19965 224.216622 
L 380.292043 223.237816 
L 380.384268 219.10081 
L 380.476326 219.578791 
L 380.659941 226.716669 
L 380.842893 222.052159 
L 381.025188 235.86248 
L 381.206828 228.531515 
L 381.38782 235.135506 
L 381.568168 225.265188 
L 381.658102 229.93937 
L 381.747877 242.473543 
L 381.92695 227.399678 
L 382.01625 232.518397 
L 382.01625 232.518397 
" style="fill:none;stroke:#d62728;stroke-dasharray:1,1.65;stroke-dashoffset:0;"/>
   </g>
   <g id="line2d_2">
    <path clip-path="url(#p3a1ac76186)" d="M -1 72.868717 
L 60.612021 72.863315 
L 95.739137 62.856149 
L 116.287182 51.586423 
L 130.866253 44.352523 
L 142.174658 41.961287 
L 151.414298 44.279173 
L 159.226303 49.492102 
L 165.993369 49.185549 
L 171.962344 43.614068 
L 177.301774 41.21494 
L 182.131877 43.863416 
L 186.541415 50.921502 
L 190.597796 55.369755 
L 194.353419 53.194461 
L 197.84982 52.44275 
L 201.120485 53.809205 
L 204.192802 57.357516 
L 207.08946 64.495386 
L 209.829464 69.494192 
L 212.428891 68.952198 
L 214.901465 69.625177 
L 219.511707 64.608801 
L 221.668531 65.555534 
L 223.737296 64.561933 
L 225.724912 60.276648 
L 227.637506 58.480745 
L 229.480535 61.056809 
L 232.976936 73.309419 
L 234.63865 75.417594 
L 236.247601 77.085581 
L 237.807039 78.940853 
L 239.319919 76.681803 
L 240.788941 72.522387 
L 242.216576 70.126751 
L 243.605094 70.488627 
L 244.95658 73.753916 
L 246.272958 77.5652 
L 247.556007 77.214775 
L 248.807372 74.726885 
L 250.028581 75.14144 
L 251.221053 76.50773 
L 253.524982 63.371809 
L 254.638823 61.234866 
L 255.728708 63.800314 
L 257.840585 81.668158 
L 258.864412 70.888151 
L 259.867964 66.586318 
L 260.852028 72.367098 
L 261.817347 82.836018 
L 262.764622 70.268867 
L 263.694515 61.561008 
L 264.607651 59.828562 
L 265.504625 64.45596 
L 266.385999 75.109399 
L 267.252306 74.276391 
L 268.104052 66.518269 
L 268.94172 64.822132 
L 269.765766 68.331568 
L 270.576627 76.62284 
L 271.374717 76.000472 
L 272.160434 65.386356 
L 272.934155 60.780181 
L 273.69624 62.672582 
L 275.186868 77.992484 
L 275.916057 70.441981 
L 276.634902 65.201606 
L 277.343693 64.792776 
L 278.042707 68.260457 
L 278.73221 72.952454 
L 279.412458 74.213771 
L 280.083696 74.471066 
L 280.746159 75.997396 
L 281.400074 76.676744 
L 282.045659 77.00682 
L 282.683123 80.333599 
L 283.312668 88.020626 
L 283.934488 83.94657 
L 284.548771 74.972473 
L 285.155697 71.488533 
L 285.75544 69.978792 
L 286.348169 68.969239 
L 286.934045 70.070409 
L 287.513225 74.110854 
L 288.085861 81.002258 
L 288.652098 81.720477 
L 289.212079 73.37308 
L 289.765939 68.368817 
L 290.313811 67.796665 
L 290.855824 71.160984 
L 291.392101 75.493774 
L 291.922763 71.500509 
L 292.447925 65.376251 
L 292.967701 63.513299 
L 293.4822 66.526754 
L 294.495788 84.229579 
L 294.99508 75.185194 
L 295.489501 69.671683 
L 295.979145 69.752006 
L 296.464103 71.411068 
L 296.944464 71.835498 
L 297.420314 71.873573 
L 297.891738 72.21559 
L 298.358817 72.702424 
L 298.821631 72.237557 
L 299.280256 70.748573 
L 299.734767 71.532758 
L 300.631742 81.356017 
L 301.074344 78.349254 
L 301.513115 78.23294 
L 301.94812 80.781277 
L 302.379422 79.492638 
L 302.807085 78.949122 
L 303.651733 86.727933 
L 304.068836 84.910996 
L 304.892882 74.473642 
L 305.299934 71.55378 
L 305.703743 72.977677 
L 306.896214 87.780137 
L 307.28755 97.543454 
L 307.675887 98.494985 
L 308.061271 95.817164 
L 308.443746 103.678502 
L 309.200144 83.945613 
L 309.574151 80.929645 
L 309.945418 81.802515 
L 311.043173 86.282912 
L 311.40387 84.083875 
L 311.762018 81.105663 
L 312.117652 80.923536 
L 312.470809 84.112984 
L 312.821521 89.08989 
L 313.169823 89.196201 
L 313.515747 84.421778 
L 313.859326 81.831531 
L 314.200591 81.917703 
L 314.539574 83.642511 
L 314.876304 87.618822 
L 315.543126 101.979227 
L 315.873275 103.79144 
L 316.201287 97.933685 
L 316.52719 96.802197 
L 316.851011 100.306935 
L 317.492509 84.022751 
L 317.810239 82.243565 
L 318.439784 88.649393 
L 318.751648 87.796452 
L 319.061604 87.378618 
L 319.675887 91.114964 
L 319.980259 93.103561 
L 320.282813 96.059004 
L 320.583572 97.720385 
L 320.882556 94.540513 
L 321.475285 86.092311 
L 321.76907 85.32897 
L 322.061161 88.81873 
L 322.351579 98.182616 
L 322.640341 112.022382 
L 322.927468 110.804161 
L 323.496886 93.66899 
L 323.779214 89.301519 
L 324.059978 88.812323 
L 324.339195 89.680829 
L 324.616881 89.195942 
L 324.893055 87.972987 
L 325.440928 86.904896 
L 325.98294 84.002132 
L 326.251788 83.732815 
L 326.785243 88.335107 
L 327.313141 78.971549 
L 327.575041 78.349247 
L 327.835596 82.170925 
L 328.35272 95.371728 
L 328.609316 98.457404 
L 328.86462 94.733159 
L 329.118645 87.894331 
L 329.371402 84.723775 
L 329.622905 85.831402 
L 329.873165 88.527584 
L 330.122196 89.459053 
L 330.37001 89.20952 
L 330.616617 91.747702 
L 330.86203 97.616868 
L 331.34932 83.499451 
L 331.591219 83.032095 
L 332.07158 97.160679 
L 332.310064 96.068505 
L 332.54743 99.013434 
L 333.018854 114.369876 
L 333.252932 108.909074 
L 333.485933 106.336024 
L 333.717868 107.685815 
L 333.948747 105.573494 
L 334.407372 93.446332 
L 334.635137 91.412648 
L 334.861883 92.083732 
L 335.312355 94.723936 
L 335.536098 94.813137 
L 335.758858 96.795326 
L 336.201461 108.563683 
L 336.640231 92.412093 
L 336.8582 89.622772 
L 337.075236 90.09527 
L 337.291346 91.177458 
L 338.146686 83.112811 
L 338.358285 83.114081 
L 338.778849 89.941577 
L 338.98783 88.478465 
L 339.195952 85.98864 
L 339.403223 85.61297 
L 339.815239 86.013257 
L 340.019998 87.836997 
L 340.629357 104.196095 
L 340.830859 102.207687 
L 341.031563 104.406624 
L 341.231475 115.376359 
L 341.430602 113.855979 
L 341.826524 95.964735 
L 342.023331 93.869004 
L 342.219376 93.927044 
L 342.609207 97.851755 
L 342.803003 97.818379 
L 342.996061 97.22299 
L 343.379985 96.897525 
L 343.570862 99.515867 
L 343.950472 110.143831 
L 344.514608 92.078184 
L 344.701267 90.562892 
L 345.072534 98.910264 
L 345.257152 96.762651 
L 345.441101 91.903837 
L 345.624384 90.532608 
L 345.807006 93.463447 
L 345.988973 98.294466 
L 346.170289 98.670836 
L 346.530986 94.544221 
L 346.710376 94.569815 
L 347.067263 98.589528 
L 347.244769 96.825453 
L 347.597925 87.192367 
L 347.773584 87.266837 
L 348.123087 94.756967 
L 348.470196 88.780795 
L 348.642863 89.797496 
L 348.986442 95.064934 
L 349.157362 93.714967 
L 349.327708 91.399436 
L 349.497482 92.053407 
L 349.835335 99.721229 
L 350.17095 88.84153 
L 350.337928 87.407723 
L 350.504358 87.376822 
L 350.670242 90.300492 
L 351.328404 122.158412 
L 351.491617 132.219441 
L 351.654306 129.647352 
L 352.299891 101.529407 
L 352.619625 92.24226 
L 352.778739 92.833872 
L 353.095476 98.985503 
L 353.253105 98.23264 
L 353.723072 94.7736 
L 353.878764 95.476501 
L 354.18872 100.103157 
L 354.496792 95.428818 
L 354.650129 94.997489 
L 354.803003 97.235093 
L 355.107375 107.125077 
L 355.710688 92.924297 
L 356.009672 102.156802 
L 356.454868 94.489212 
L 356.749506 100.194859 
L 356.896186 98.799681 
L 357.042442 99.489921 
L 357.478695 117.686668 
L 357.911224 102.592915 
L 358.054584 100.543749 
L 358.19754 100.287244 
L 358.482247 103.928863 
L 358.765363 97.199909 
L 358.90633 97.009382 
L 359.046907 98.168337 
L 359.326895 95.496297 
L 359.466311 99.264781 
L 359.743998 113.830858 
L 360.020171 109.201997 
L 360.157696 109.458565 
L 360.43163 103.638271 
L 360.704091 115.215546 
L 360.839775 113.339187 
L 360.975096 109.309336 
L 361.110057 108.732903 
L 361.244659 109.201725 
L 361.779521 94.607538 
L 362.04485 98.33009 
L 362.571376 110.376452 
L 362.702158 115.2132 
L 363.092489 94.830196 
L 363.221934 95.390372 
L 363.351049 98.548921 
L 363.608297 111.028264 
L 363.991736 94.17015 
L 364.372297 97.509274 
L 364.750021 107.186737 
L 365.000282 103.701328 
L 365.12495 103.775001 
L 365.249313 103.619612 
L 365.497126 102.324855 
L 365.62058 102.972017 
L 366.355052 109.628318 
L 366.59753 102.284853 
L 366.718335 103.474067 
L 366.959084 97.605031 
L 367.079032 98.975595 
L 367.43718 116.729523 
L 367.674546 101.34896 
L 367.792814 100.206183 
L 367.910807 104.588897 
L 368.14597 117.702394 
L 368.380048 105.143163 
L 368.496683 106.442392 
L 368.72915 110.775231 
L 368.960555 104.324261 
L 369.190909 111.387784 
L 369.305694 111.223171 
L 369.42022 111.801483 
L 369.648499 131.47824 
L 369.989 109.114124 
L 370.101993 107.10445 
L 370.214736 107.09481 
L 370.439471 113.886787 
L 370.551466 118.471719 
L 370.663214 115.557211 
L 370.885974 107.419924 
L 371.107758 109.997361 
L 371.218288 110.36714 
L 371.548437 119.168322 
L 371.985317 104.71165 
L 372.093951 105.521513 
L 372.310522 112.49506 
L 372.526172 129.29904 
L 372.633654 126.529935 
L 372.847937 114.501465 
L 372.954739 117.409385 
L 373.061317 125.055168 
L 373.379712 103.128338 
L 373.485401 101.882006 
L 373.59087 102.324821 
L 373.801151 108.678303 
L 374.010563 101.528155 
L 374.114946 102.721621 
L 374.323068 108.714014 
L 374.42681 108.378809 
L 374.633658 120.118229 
L 374.839665 106.323455 
L 374.942355 105.289552 
L 375.147114 107.494795 
L 375.249184 107.368021 
L 375.452709 112.232907 
L 375.65542 100.102766 
L 375.756473 100.232808 
L 375.957975 116.616032 
L 376.258734 97.631044 
L 376.358591 98.931093 
L 376.557718 114.042938 
L 376.656989 113.306626 
L 376.854949 98.160475 
L 376.95364 99.706135 
L 377.150447 110.232164 
L 377.444231 103.982136 
L 377.541782 103.908025 
L 377.639146 103.364799 
L 377.833314 100.847844 
L 378.02674 105.622948 
L 378.219431 101.30658 
L 378.315503 101.382886 
L 378.507101 100.725066 
L 378.697978 103.985873 
L 378.793148 108.332641 
L 378.982952 120.020565 
L 379.172048 104.874237 
L 379.548137 102.225525 
L 379.828383 107.138847 
L 379.921455 105.968265 
L 380.014357 107.067776 
L 380.19965 120.149717 
L 380.292043 130.419663 
L 380.7515 106.415557 
L 380.934123 112.673635 
L 381.025188 117.493569 
L 381.116089 117.212152 
L 381.297405 112.131984 
L 381.478075 102.233774 
L 381.568168 102.459855 
L 381.747877 110.698503 
L 381.837493 104.699383 
L 381.92695 104.735321 
L 382.01625 115.3246 
L 382.01625 115.3246 
" style="fill:none;stroke:#2ca02c;stroke-dasharray:6.4,1.6,1,1.6;stroke-dashoffset:0;"/>
   </g>
   <g id="line2d_3">
    <path clip-path="url(#p3a1ac76186)" d="M -1 48.30957 
L 60.612021 48.307046 
L 95.739137 43.922549 
L 116.287182 26.143743 
L 130.866253 15.488938 
L 142.174658 12.019132 
L 151.414298 15.081256 
L 159.226303 25.404827 
L 165.993369 46.124561 
L 171.962344 68.117513 
L 177.301774 63.735323 
L 182.131877 60.216494 
L 186.541415 52.786553 
L 190.597796 48.18462 
L 194.353419 45.950604 
L 197.84982 45.595419 
L 201.120485 47.231806 
L 204.192802 51.287722 
L 207.08946 57.82867 
L 209.829464 64.96558 
L 212.428891 66.2986 
L 214.901465 62.378342 
L 217.258993 61.172367 
L 219.511707 65.254609 
L 221.668531 75.240348 
L 223.737296 82.996212 
L 227.637506 63.470137 
L 229.480535 58.975475 
L 231.258883 58.529132 
L 232.976936 60.238489 
L 234.63865 63.954131 
L 236.247601 71.545351 
L 237.807039 74.215158 
L 239.319919 67.698868 
L 240.788941 65.605243 
L 242.216576 67.536983 
L 243.605094 70.181267 
L 244.95658 71.505738 
L 247.556007 70.578554 
L 248.807372 70.514167 
L 250.028581 70.044843 
L 251.221053 71.47292 
L 252.386109 76.196338 
L 253.524982 82.910111 
L 254.638823 87.791957 
L 255.728708 84.336009 
L 256.795647 80.186008 
L 257.840585 79.65956 
L 258.864412 80.698426 
L 260.852028 87.492982 
L 261.817347 78.891067 
L 262.764622 73.826077 
L 263.694515 76.973613 
L 264.607651 83.852984 
L 265.504625 80.397025 
L 266.385999 77.88411 
L 267.252306 82.197177 
L 268.104052 90.416781 
L 268.94172 95.305181 
L 269.765766 94.101502 
L 270.576627 89.817982 
L 271.374717 87.703437 
L 272.934155 89.851651 
L 273.69624 88.112668 
L 274.447035 84.730707 
L 275.186868 82.01141 
L 275.916057 81.909506 
L 276.634902 84.220064 
L 277.343693 85.832915 
L 278.042707 86.465678 
L 278.73221 89.100052 
L 279.412458 92.320387 
L 280.083696 93.472026 
L 280.746159 95.088605 
L 281.400074 95.996052 
L 282.045659 94.467311 
L 282.683123 93.629655 
L 283.312668 93.191144 
L 283.934488 92.477525 
L 284.548771 91.215939 
L 285.155697 88.66981 
L 285.75544 87.799883 
L 286.934045 92.848101 
L 287.513225 92.270636 
L 288.085861 92.702913 
L 288.652098 91.314663 
L 289.212079 86.881699 
L 289.765939 84.747474 
L 290.313811 85.554294 
L 291.922763 90.341344 
L 292.447925 91.517986 
L 293.4822 90.69302 
L 293.991528 91.636997 
L 294.99508 96.528645 
L 295.489501 97.323667 
L 295.979145 97.018079 
L 296.464103 98.533334 
L 296.944464 100.695042 
L 297.420314 99.762744 
L 297.891738 99.287934 
L 298.358817 99.362661 
L 299.280256 93.054443 
L 299.734767 94.177368 
L 300.631742 101.735996 
L 301.074344 106.320414 
L 301.94812 117.563399 
L 302.379422 117.603692 
L 303.651733 109.353385 
L 304.482534 94.446762 
L 304.892882 91.367535 
L 305.299934 91.225784 
L 305.703743 91.702802 
L 306.104359 91.541238 
L 306.501833 91.855278 
L 306.896214 93.179902 
L 307.28755 93.757935 
L 307.675887 94.099654 
L 308.061271 94.780788 
L 308.823356 89.98234 
L 309.200144 89.530167 
L 309.945418 92.031252 
L 310.313985 93.217032 
L 310.67989 96.263797 
L 311.40387 108.624584 
L 312.117652 100.730464 
L 312.470809 99.112508 
L 312.821521 103.313406 
L 313.169823 117.883689 
L 313.515747 122.794849 
L 313.859326 107.664263 
L 314.200591 102.923183 
L 314.539574 105.714211 
L 314.876304 115.147605 
L 315.210812 117.021788 
L 315.543126 110.339786 
L 315.873275 109.824815 
L 316.201287 111.823441 
L 316.851011 101.983788 
L 317.172775 100.637109 
L 317.492509 101.529928 
L 317.810239 103.034258 
L 318.125989 106.277948 
L 318.751648 118.890029 
L 319.061604 116.490321 
L 319.369676 112.066116 
L 319.675887 113.534238 
L 319.980259 117.266914 
L 320.583572 104.346704 
L 320.882556 106.539325 
L 321.475285 124.816059 
L 321.76907 126.5604 
L 322.061161 125.6129 
L 322.351579 117.346485 
L 322.640341 112.976864 
L 322.927468 116.011642 
L 323.212977 121.853014 
L 323.779214 110.144501 
L 324.059978 111.842915 
L 324.339195 118.93432 
L 324.616881 117.620413 
L 324.893055 109.363264 
L 325.167732 104.95993 
L 325.440928 104.697796 
L 325.712659 107.561035 
L 326.785243 122.542661 
L 327.049879 123.283389 
L 327.313141 121.372823 
L 327.575041 120.49087 
L 328.094817 106.011237 
L 328.35272 105.197844 
L 328.86462 124.217237 
L 329.118645 114.080688 
L 329.371402 108.863634 
L 329.622905 109.742288 
L 329.873165 114.270208 
L 330.122196 122.987213 
L 330.37001 127.432588 
L 330.616617 118.666933 
L 330.86203 115.132051 
L 331.34932 118.048664 
L 331.591219 114.522632 
L 331.831968 109.206301 
L 332.07158 107.255612 
L 332.54743 111.499335 
L 332.783691 111.872913 
L 333.018854 113.021484 
L 333.252932 114.829691 
L 333.485933 114.620901 
L 333.717868 115.002099 
L 333.948747 117.247212 
L 334.178578 115.076728 
L 334.407372 110.399914 
L 334.635137 108.440276 
L 334.861883 108.874244 
L 335.08762 111.155683 
L 335.536098 117.331288 
L 335.758858 118.587646 
L 336.201461 115.807004 
L 336.421321 117.43807 
L 336.640231 120.000712 
L 337.075236 116.841434 
L 337.506538 119.890718 
L 337.720821 117.828726 
L 337.934201 117.565632 
L 338.358285 124.518768 
L 338.569003 123.772688 
L 338.778849 119.293403 
L 338.98783 119.035499 
L 339.403223 127.039752 
L 339.60965 124.824873 
L 339.815239 125.065661 
L 340.223933 129.225355 
L 340.42705 129.086308 
L 340.629357 128.256028 
L 340.830859 128.010018 
L 341.031563 127.954424 
L 341.231475 126.065993 
L 341.430602 122.887908 
L 341.62895 121.506297 
L 341.826524 124.170501 
L 342.219376 138.121978 
L 342.609207 124.449134 
L 342.803003 124.64221 
L 343.188387 133.731178 
L 343.761023 119.798995 
L 343.950472 119.047017 
L 344.139216 121.245825 
L 344.88724 135.686889 
L 345.072534 135.144941 
L 345.257152 129.725909 
L 345.441101 127.971031 
L 345.624384 132.195449 
L 345.988973 152.204908 
L 346.350958 129.325759 
L 346.530986 129.208498 
L 346.889134 141.024126 
L 347.067263 138.752882 
L 347.244769 131.011951 
L 347.421654 129.936175 
L 347.597925 133.501899 
L 348.123087 113.448266 
L 348.296939 114.263975 
L 348.642863 122.627155 
L 348.814944 120.284362 
L 348.986442 116.278024 
L 349.157362 115.970794 
L 349.327708 119.204593 
L 349.66669 130.94692 
L 349.835335 130.347107 
L 350.17095 124.438014 
L 350.337928 124.291069 
L 350.835586 121.832146 
L 351.164663 116.975729 
L 351.328404 118.582127 
L 351.816475 128.050179 
L 351.978127 124.1249 
L 352.299891 111.577196 
L 352.46001 110.322046 
L 352.619625 110.686517 
L 352.778739 112.50597 
L 352.937355 116.655802 
L 353.253105 136.590227 
L 353.410245 133.963139 
L 353.5669 129.15472 
L 353.723072 129.785322 
L 354.18872 121.13427 
L 354.34299 122.564838 
L 354.650129 121.212679 
L 354.803003 122.491058 
L 355.107375 131.286271 
L 355.258878 129.796298 
L 355.560532 120.349425 
L 355.710688 119.359875 
L 355.860401 123.033035 
L 356.009672 130.811678 
L 356.306903 117.589783 
L 356.454868 117.699021 
L 356.749506 131.626587 
L 356.896186 129.886229 
L 357.042442 126.065663 
L 357.188277 125.274572 
L 357.333694 126.347732 
L 357.623282 126.431785 
L 358.054584 130.703099 
L 358.340093 140.92255 
L 358.624003 134.730445 
L 358.765363 134.089031 
L 358.90633 135.723357 
L 359.187094 142.591792 
L 359.326895 142.562457 
L 359.466311 141.396574 
L 359.743998 136.163877 
L 359.882273 136.407529 
L 360.020171 138.917701 
L 360.157696 138.21571 
L 360.43163 127.562462 
L 360.568044 128.949383 
L 360.839775 137.590149 
L 361.110057 128.768199 
L 361.646334 140.758209 
L 361.779521 146.61808 
L 362.176995 138.576975 
L 362.308797 139.049637 
L 362.440257 137.804618 
L 362.571376 138.394798 
L 362.702158 142.952251 
L 362.832602 140.969966 
L 363.092489 130.597544 
L 363.221934 132.885351 
L 363.864245 156.284197 
L 364.372297 142.892401 
L 364.498518 141.665642 
L 364.750021 146.149396 
L 365.12495 140.680756 
L 365.373371 141.976954 
L 365.62058 137.837274 
L 365.866588 141.306559 
L 365.989146 141.131634 
L 366.355052 137.677721 
L 366.476436 139.158157 
L 366.959084 154.309526 
L 367.43718 138.579768 
L 367.556002 138.698758 
L 367.792814 142.591983 
L 367.910807 143.687898 
L 368.14597 155.232389 
L 368.496683 143.45834 
L 368.613049 145.204259 
L 369.190909 161.515736 
L 369.534488 131.861414 
L 369.648499 130.374266 
L 369.875753 136.298408 
L 370.101993 128.029884 
L 370.214736 128.805969 
L 370.551466 142.29364 
L 370.663214 139.195641 
L 370.774716 139.629542 
L 371.107758 149.352263 
L 371.218288 147.722673 
L 371.438626 143.920509 
L 371.548437 144.628029 
L 371.767348 137.027038 
L 371.876449 136.824372 
L 371.985317 140.415895 
L 372.202352 148.757248 
L 372.418462 140.978932 
L 372.740909 149.190051 
L 372.954739 145.005476 
L 373.167671 154.786404 
L 373.379712 144.477449 
L 373.696119 150.108917 
L 374.010563 143.565533 
L 374.219114 144.769766 
L 374.323068 144.825654 
L 374.42681 145.296869 
L 374.633658 141.386189 
L 374.736766 141.334689 
L 374.942355 139.905776 
L 375.044838 140.852341 
L 375.249184 146.842722 
L 375.65542 164.770874 
L 375.857324 154.083534 
L 375.957975 155.117853 
L 376.158679 150.224662 
L 376.258734 150.924785 
L 376.458253 158.241429 
L 376.656989 150.489024 
L 376.756066 151.396206 
L 376.95364 159.27917 
L 377.150447 157.466706 
L 377.346492 159.138774 
L 377.833314 146.329916 
L 377.930119 146.622772 
L 378.123177 154.105766 
L 378.219431 153.596661 
L 378.315503 151.447966 
L 378.411393 153.466547 
L 378.60263 159.961406 
L 378.697978 160.219058 
L 378.793148 156.841009 
L 378.982952 147.005939 
L 379.077588 150.187078 
L 379.360441 140.401466 
L 379.548137 154.943166 
L 379.641725 153.043805 
L 379.828383 146.490654 
L 379.921455 151.194553 
L 380.014357 150.296636 
L 380.107088 148.060871 
L 380.292043 153.267406 
L 380.476326 148.990027 
L 380.659941 152.484215 
L 380.7515 150.725686 
L 380.934123 146.685971 
L 381.206828 157.097916 
L 381.297405 155.926869 
L 381.747877 138.267504 
L 381.837493 138.510388 
L 381.92695 143.744454 
L 382.01625 155.575467 
L 382.01625 155.575467 
" style="fill:none;stroke:#ff7f0e;stroke-dasharray:3.7,1.6;stroke-dashoffset:0;"/>
   </g>
   <g id="line2d_4">
    <path clip-path="url(#p3a1ac76186)" d="M -1 66.928817 
L 60.612021 66.927907 
L 95.739137 70.29567 
L 116.287182 43.803332 
L 130.866253 31.095357 
L 142.174658 26.755397 
L 151.414298 29.225147 
L 159.226303 38.776895 
L 165.993369 57.057507 
L 171.962344 77.65973 
L 177.301774 81.70443 
L 182.131877 83.184511 
L 186.541415 74.938749 
L 190.597796 66.196976 
L 194.353419 59.299516 
L 197.84982 56.034729 
L 201.120485 56.751233 
L 204.192802 61.509248 
L 207.08946 70.603902 
L 209.829464 82.085349 
L 212.428891 89.230316 
L 214.901465 88.993213 
L 217.258993 79.148739 
L 219.511707 72.470927 
L 221.668531 71.159903 
L 223.737296 73.012611 
L 225.724912 75.308611 
L 227.637506 77.05655 
L 229.480535 80.180651 
L 232.976936 93.034461 
L 234.63865 88.980491 
L 236.247601 82.475625 
L 237.807039 78.631037 
L 239.319919 78.720477 
L 240.788941 82.373438 
L 242.216576 86.986807 
L 243.605094 89.647764 
L 244.95658 90.769695 
L 246.272958 92.018024 
L 247.556007 93.431618 
L 248.807372 91.54932 
L 250.028581 86.909548 
L 251.221053 84.111814 
L 252.386109 84.163442 
L 253.524982 86.042422 
L 254.638823 89.335965 
L 255.728708 94.438314 
L 256.795647 98.375309 
L 257.840585 97.030187 
L 258.864412 94.753288 
L 259.867964 93.052182 
L 260.852028 90.809345 
L 261.817347 89.845718 
L 262.764622 90.964212 
L 264.607651 92.069197 
L 265.504625 95.99968 
L 266.385999 101.587589 
L 267.252306 100.759558 
L 268.104052 97.390266 
L 268.94172 94.863783 
L 269.765766 93.193031 
L 270.576627 93.82669 
L 272.160434 99.962112 
L 272.934155 100.035152 
L 273.69624 101.256639 
L 274.447035 104.964579 
L 275.186868 106.157038 
L 277.343693 96.50781 
L 278.042707 95.818978 
L 278.73221 98.430809 
L 279.412458 103.42924 
L 280.083696 105.920381 
L 280.746159 105.983512 
L 281.400074 108.651552 
L 282.045659 113.224876 
L 282.683123 111.465298 
L 283.312668 105.180728 
L 283.934488 100.15885 
L 284.548771 97.29627 
L 285.155697 97.847825 
L 285.75544 102.838483 
L 286.348169 109.464064 
L 286.934045 109.928703 
L 287.513225 109.576387 
L 288.085861 113.647322 
L 288.652098 118.966129 
L 289.212079 116.066952 
L 289.765939 108.407535 
L 290.313811 102.556927 
L 290.855824 100.503224 
L 291.392101 103.165596 
L 291.922763 110.270044 
L 292.447925 114.846434 
L 292.967701 111.843497 
L 293.4822 110.962536 
L 293.991528 114.631117 
L 294.495788 119.816402 
L 294.99508 116.41167 
L 295.489501 108.85002 
L 295.979145 105.173653 
L 296.464103 106.353113 
L 297.420314 118.787725 
L 297.891738 116.799068 
L 298.358817 111.570329 
L 298.821631 110.735888 
L 299.734767 120.031459 
L 300.631742 109.315905 
L 301.074344 108.837564 
L 301.513115 113.103176 
L 301.94812 120.817941 
L 302.379422 123.932045 
L 302.807085 117.505485 
L 303.231169 113.051766 
L 303.651733 114.080058 
L 304.068836 120.115498 
L 304.482534 121.712147 
L 304.892882 115.468704 
L 305.299934 112.661767 
L 305.703743 114.495908 
L 306.501833 124.099826 
L 306.896214 123.261794 
L 307.28755 118.972957 
L 307.675887 116.636909 
L 308.061271 118.429636 
L 308.443746 122.672362 
L 308.823356 121.2806 
L 309.200144 116.884597 
L 309.574151 115.746016 
L 309.945418 117.47062 
L 310.67989 123.228716 
L 311.043173 124.68055 
L 311.40387 122.915983 
L 311.762018 121.920769 
L 312.470809 127.775566 
L 313.169823 120.185251 
L 313.515747 118.696289 
L 313.859326 118.836622 
L 314.200591 120.727077 
L 314.539574 124.383026 
L 314.876304 126.457645 
L 315.210812 125.814415 
L 315.543126 127.120764 
L 315.873275 131.031504 
L 316.201287 130.897523 
L 316.851011 121.668296 
L 317.172775 120.400941 
L 317.492509 121.231179 
L 318.125989 125.290769 
L 318.751648 130.582436 
L 319.061604 133.127752 
L 319.369676 132.253567 
L 319.980259 127.202325 
L 320.282813 126.729027 
L 320.583572 126.582999 
L 321.179787 124.776866 
L 321.475285 126.624701 
L 322.061161 135.339989 
L 322.640341 127.935877 
L 322.927468 128.241793 
L 323.496886 135.701838 
L 323.779214 132.53337 
L 324.059978 127.847596 
L 324.339195 126.964683 
L 324.616881 130.89964 
L 324.893055 136.926602 
L 325.167732 134.238667 
L 325.440928 128.57654 
L 325.712659 127.372808 
L 325.98294 131.317356 
L 326.251788 139.745983 
L 326.519218 142.281147 
L 327.049879 129.432365 
L 327.313141 129.805469 
L 327.835596 139.694357 
L 328.35272 131.637241 
L 328.609316 132.354366 
L 328.86462 138.304797 
L 329.118645 148.465059 
L 329.371402 143.91374 
L 329.622905 133.742126 
L 329.873165 129.479201 
L 330.122196 130.860193 
L 330.616617 143.522949 
L 331.106261 134.826928 
L 331.34932 136.130226 
L 331.591219 144.014136 
L 331.831968 158.087545 
L 332.310064 132.862238 
L 332.54743 130.253809 
L 332.783691 134.124502 
L 333.018854 143.949996 
L 333.252932 148.062753 
L 333.485933 139.756885 
L 333.717868 135.548065 
L 333.948747 137.717379 
L 334.407372 156.623119 
L 334.635137 139.994945 
L 334.861883 133.233505 
L 335.08762 133.461632 
L 335.312355 139.510545 
L 335.536098 149.317928 
L 335.758858 148.262519 
L 335.980642 142.001414 
L 336.201461 141.222711 
L 336.421321 147.232103 
L 336.640231 157.272095 
L 337.075236 138.862814 
L 337.291346 136.009432 
L 337.506538 137.786348 
L 337.934201 148.671842 
L 338.146686 147.876615 
L 338.358285 145.368177 
L 338.569003 145.803773 
L 338.98783 151.120879 
L 339.60965 140.48055 
L 339.815239 142.885919 
L 340.223933 151.03492 
L 340.42705 149.231497 
L 340.629357 146.173417 
L 340.830859 145.09027 
L 341.231475 149.190584 
L 341.430602 148.509411 
L 341.62895 146.491075 
L 341.826524 146.23548 
L 342.219376 150.192866 
L 342.414666 150.201575 
L 342.803003 148.48364 
L 342.996061 149.096506 
L 343.379985 154.039367 
L 343.570862 154.428558 
L 343.761023 153.339334 
L 344.32726 147.35945 
L 344.514608 147.388022 
L 344.88724 150.513438 
L 345.257152 149.068241 
L 345.441101 151.583784 
L 345.807006 163.361656 
L 346.350958 148.713245 
L 346.530986 151.239091 
L 346.710376 156.147849 
L 346.889134 155.717992 
L 347.067263 151.365768 
L 347.244769 150.517772 
L 347.421654 155.186792 
L 347.597925 163.738793 
L 347.773584 160.281839 
L 348.123087 147.391613 
L 348.296939 148.379011 
L 348.642863 162.506471 
L 348.814944 159.097638 
L 348.986442 153.487974 
L 349.157362 153.733808 
L 349.497482 171.783849 
L 349.835335 154.744275 
L 350.00342 152.574322 
L 350.17095 156.008628 
L 350.504358 172.432002 
L 350.835586 155.003369 
L 351.000391 156.934358 
L 351.328404 171.240077 
L 351.654306 151.883459 
L 351.816475 150.679356 
L 351.978127 155.89145 
L 352.299891 179.764779 
L 352.619625 156.870406 
L 352.778739 159.148612 
L 353.095476 177.475851 
L 353.410245 155.784724 
L 353.5669 157.135696 
L 353.878764 180.308944 
L 354.18872 159.502373 
L 354.34299 158.006271 
L 354.496792 162.91139 
L 354.650129 172.245288 
L 354.803003 170.091605 
L 355.107375 159.27763 
L 355.258878 160.514725 
L 355.560532 166.96277 
L 355.710688 166.513817 
L 355.860401 166.723011 
L 356.158506 170.742279 
L 356.306903 169.852035 
L 356.602401 166.556384 
L 356.749506 165.986372 
L 356.896186 167.019512 
L 357.042442 169.59824 
L 357.188277 169.938985 
L 357.478695 165.951876 
L 357.767457 167.624968 
L 358.054584 171.625482 
L 358.19754 170.908932 
L 358.482247 164.303961 
L 358.765363 166.602321 
L 359.046907 163.572998 
L 359.187094 165.753348 
L 359.605344 181.841377 
L 360.020171 168.065458 
L 360.157696 167.508545 
L 360.839775 178.16422 
L 360.975096 182.768743 
L 361.110057 182.171923 
L 361.646334 167.206645 
L 361.779521 171.72472 
L 361.912359 180.760217 
L 362.04485 181.60353 
L 362.176995 176.215275 
L 362.308797 176.465234 
L 362.571376 196.737348 
L 362.962712 171.232864 
L 363.092489 171.474925 
L 363.351049 181.682853 
L 363.479836 181.380051 
L 363.608297 178.791739 
L 363.736433 180.335534 
L 363.991736 197.529751 
L 364.245761 174.517993 
L 364.372297 173.609498 
L 364.750021 185.007098 
L 365.000282 181.079678 
L 365.12495 182.379177 
L 365.373371 196.875743 
L 365.62058 177.892698 
L 365.743733 177.050627 
L 366.111409 185.014336 
L 366.355052 182.31721 
L 366.476436 186.78809 
L 366.59753 200.233502 
L 366.959084 171.393001 
L 367.079032 172.851167 
L 367.43718 185.225095 
L 367.674546 189.935564 
L 367.910807 202.010686 
L 368.263144 175.169346 
L 368.380048 175.015914 
L 368.960555 188.654185 
L 369.075863 197.674593 
L 369.190909 197.763291 
L 369.534488 183.72472 
L 369.648499 182.730026 
L 369.762253 187.581745 
L 369.875753 197.374867 
L 369.989 195.30006 
L 370.101993 190.696975 
L 370.214736 193.917871 
L 370.327228 205.770754 
L 370.439471 202.488324 
L 370.663214 183.280235 
L 370.774716 182.546187 
L 371.438626 195.4728 
L 371.65801 202.554612 
L 371.876449 184.266681 
L 371.985317 185.044733 
L 372.202352 198.926405 
L 372.418462 186.981182 
L 372.526172 187.207446 
L 372.740909 191.275101 
L 372.954739 188.000903 
L 373.061317 187.999274 
L 373.167671 188.461541 
L 373.273802 190.09707 
L 373.485401 198.804409 
L 373.801151 188.991163 
L 374.114946 192.257522 
L 374.219114 192.760759 
L 374.42681 191.275646 
L 374.530339 194.046388 
L 374.736766 203.832408 
L 374.942355 198.62417 
L 375.147114 198.12383 
L 375.554166 191.491478 
L 375.756473 196.595051 
L 376.058426 193.404585 
L 376.158679 193.414585 
L 376.258734 193.891949 
L 376.358591 193.758679 
L 376.557718 192.364832 
L 376.854949 198.010367 
L 376.95364 197.219439 
L 377.248564 188.90357 
L 377.444231 189.233916 
L 377.639146 187.450467 
L 377.736323 188.728059 
L 377.930119 197.403167 
L 378.219431 187.304742 
L 378.315503 189.147705 
L 378.507101 194.888612 
L 378.697978 189.871323 
L 378.888139 195.985531 
L 378.982952 193.876053 
L 379.172048 186.370653 
L 379.266332 188.042999 
L 379.454376 193.613614 
L 379.548137 192.688229 
L 379.641725 192.699135 
L 379.828383 195.292088 
L 380.107088 193.024504 
L 380.292043 195.502519 
L 380.384268 194.885499 
L 380.568217 191.996709 
L 380.659941 192.004502 
L 380.842893 189.422287 
L 380.934123 189.532982 
L 381.025188 190.542875 
L 381.116089 190.405467 
L 381.297405 187.59542 
L 381.38782 188.948199 
L 381.568168 197.232222 
L 381.658102 195.536763 
L 381.837493 190.176117 
L 381.92695 191.640506 
L 382.01625 200.544707 
L 382.01625 200.544707 
" style="fill:none;stroke:#1f77b4;stroke-linecap:square;"/>
   </g>
   <g id="PolyCollection_1">
    <path clip-path="url(#p3a1ac76186)" d="M 247.549731 24846.608093 
L 247.549731 7.2 
L 305.293658 7.2 
L 305.293658 24846.608093 
L 305.293658 24846.608093 
L 247.549731 24846.608093 
z
" style="fill-opacity:0.2;stroke:#000000;stroke-dasharray:1,1.65;stroke-dashoffset:0;stroke-opacity:0.2;"/>
   </g>
   <g id="matplotlib.axis_1">
    <g id="xtick_1">
     <g id="line2d_5">
      <defs>
       <path d="M 0 0 
L 0 3.5 
" id="m0f72ca1d95" style="stroke:#000000;stroke-width:0.8;"/>
      </defs>
      <g>
       <use style="stroke:#000000;stroke-width:0.8;" x="47.21625" xlink:href="#m0f72ca1d95" y="224.64"/>
      </g>
     </g>
     <g id="text_1">
      <!-- $\mathdefault{10^{-1}}$ -->
      <g transform="translate(37.135963 238.558498)scale(0.1 -0.1)">
       <defs>
        <path d="M 26.59375 63.40625 
C 26.59375 65.5 26.5 65.5 25.09375 65.5 
C 21.203125 61.1875 15.296875 59.796875 9.703125 59.796875 
C 9.40625 59.796875 8.90625 59.796875 8.796875 59.5 
C 8.703125 59.296875 8.703125 59.09375 8.703125 57 
C 11.796875 57 17 57.59375 21 59.984375 
L 21 7.203125 
C 21 3.6875 20.796875 2.5 12.203125 2.5 
L 9.203125 2.5 
L 9.203125 0 
C 14 0 19 0 23.796875 0 
C 28.59375 0 33.59375 0 38.40625 0 
L 38.40625 2.5 
L 35.40625 2.5 
C 26.796875 2.5 26.59375 3.59375 26.59375 7.15625 
z
" id="CMR17-49"/>
        <path d="M 42 31.640625 
C 42 37.75 41.90625 48.125 37.703125 56.109375 
C 34 63.109375 28.09375 65.59375 22.90625 65.59375 
C 18.09375 65.59375 12 63.40625 8.203125 56.203125 
C 4.203125 48.71875 3.796875 39.4375 3.796875 31.640625 
C 3.796875 25.953125 3.90625 17.28125 7 9.671875 
C 11.296875 -0.609375 19 -2 22.90625 -2 
C 27.5 -2 34.5 -0.109375 38.59375 9.375 
C 41.59375 16.28125 42 24.359375 42 31.640625 
z
M 22.90625 -0.40625 
C 16.5 -0.40625 12.703125 5.078125 11.296875 12.6875 
C 10.203125 18.5625 10.203125 27.15625 10.203125 32.75 
C 10.203125 40.4375 10.203125 46.828125 11.5 52.921875 
C 13.40625 61.390625 19 64 22.90625 64 
C 27 64 32.296875 61.296875 34.203125 53.125 
C 35.5 47.4375 35.59375 40.734375 35.59375 32.75 
C 35.59375 26.25 35.59375 18.265625 34.40625 12.375 
C 32.296875 1.484375 26.40625 -0.40625 22.90625 -0.40625 
z
" id="CMR17-48"/>
        <path d="M 65.90625 23 
C 67.59375 23 69.40625 23 69.40625 25 
C 69.40625 27 67.59375 27 65.90625 27 
L 11.796875 27 
C 10.09375 27 8.296875 27 8.296875 25 
C 8.296875 23 10.09375 23 11.796875 23 
z
" id="CMSY10-0"/>
       </defs>
       <use transform="scale(0.996264)" xlink:href="#CMR17-49"/>
       <use transform="translate(45.690477 0)scale(0.996264)" xlink:href="#CMR17-48"/>
       <use transform="translate(91.380954 36.153639)scale(0.697382)" xlink:href="#CMSY10-0"/>
       <use transform="translate(145.621947 36.153639)scale(0.697382)" xlink:href="#CMR17-49"/>
      </g>
     </g>
    </g>
    <g id="xtick_2">
     <g id="line2d_6">
      <g>
       <use style="stroke:#000000;stroke-width:0.8;" x="163.906004" xlink:href="#m0f72ca1d95" y="224.64"/>
      </g>
     </g>
     <g id="text_2">
      <!-- $\mathdefault{10^{0}}$ -->
      <g transform="translate(156.93905 238.558498)scale(0.1 -0.1)">
       <use transform="scale(0.996264)" xlink:href="#CMR17-49"/>
       <use transform="translate(45.690477 0)scale(0.996264)" xlink:href="#CMR17-48"/>
       <use transform="translate(91.380954 36.153639)scale(0.697382)" xlink:href="#CMR17-48"/>
      </g>
     </g>
    </g>
    <g id="xtick_3">
     <g id="line2d_7">
      <g>
       <use style="stroke:#000000;stroke-width:0.8;" x="280.595758" xlink:href="#m0f72ca1d95" y="224.64"/>
      </g>
     </g>
     <g id="text_3">
      <!-- $\mathdefault{10^{1}}$ -->
      <g transform="translate(273.628804 238.558498)scale(0.1 -0.1)">
       <use transform="scale(0.996264)" xlink:href="#CMR17-49"/>
       <use transform="translate(45.690477 0)scale(0.996264)" xlink:href="#CMR17-48"/>
       <use transform="translate(91.380954 36.153639)scale(0.697382)" xlink:href="#CMR17-49"/>
      </g>
     </g>
    </g>
    <g id="xtick_4">
     <g id="line2d_8">
      <defs>
       <path d="M 0 0 
L 0 2 
" id="mc5b70840b6" style="stroke:#000000;stroke-width:0.6;"/>
      </defs>
      <g>
       <use style="stroke:#000000;stroke-width:0.6;" x="82.343366" xlink:href="#mc5b70840b6" y="224.64"/>
      </g>
     </g>
    </g>
    <g id="xtick_5">
     <g id="line2d_9">
      <g>
       <use style="stroke:#000000;stroke-width:0.6;" x="102.891412" xlink:href="#mc5b70840b6" y="224.64"/>
      </g>
     </g>
    </g>
    <g id="xtick_6">
     <g id="line2d_10">
      <g>
       <use style="stroke:#000000;stroke-width:0.6;" x="117.470482" xlink:href="#mc5b70840b6" y="224.64"/>
      </g>
     </g>
    </g>
    <g id="xtick_7">
     <g id="line2d_11">
      <g>
       <use style="stroke:#000000;stroke-width:0.6;" x="128.778888" xlink:href="#mc5b70840b6" y="224.64"/>
      </g>
     </g>
    </g>
    <g id="xtick_8">
     <g id="line2d_12">
      <g>
       <use style="stroke:#000000;stroke-width:0.6;" x="138.018528" xlink:href="#mc5b70840b6" y="224.64"/>
      </g>
     </g>
    </g>
    <g id="xtick_9">
     <g id="line2d_13">
      <g>
       <use style="stroke:#000000;stroke-width:0.6;" x="145.830532" xlink:href="#mc5b70840b6" y="224.64"/>
      </g>
     </g>
    </g>
    <g id="xtick_10">
     <g id="line2d_14">
      <g>
       <use style="stroke:#000000;stroke-width:0.6;" x="152.597598" xlink:href="#mc5b70840b6" y="224.64"/>
      </g>
     </g>
    </g>
    <g id="xtick_11">
     <g id="line2d_15">
      <g>
       <use style="stroke:#000000;stroke-width:0.6;" x="158.566574" xlink:href="#mc5b70840b6" y="224.64"/>
      </g>
     </g>
    </g>
    <g id="xtick_12">
     <g id="line2d_16">
      <g>
       <use style="stroke:#000000;stroke-width:0.6;" x="199.03312" xlink:href="#mc5b70840b6" y="224.64"/>
      </g>
     </g>
    </g>
    <g id="xtick_13">
     <g id="line2d_17">
      <g>
       <use style="stroke:#000000;stroke-width:0.6;" x="219.581166" xlink:href="#mc5b70840b6" y="224.64"/>
      </g>
     </g>
    </g>
    <g id="xtick_14">
     <g id="line2d_18">
      <g>
       <use style="stroke:#000000;stroke-width:0.6;" x="234.160236" xlink:href="#mc5b70840b6" y="224.64"/>
      </g>
     </g>
    </g>
    <g id="xtick_15">
     <g id="line2d_19">
      <g>
       <use style="stroke:#000000;stroke-width:0.6;" x="245.468642" xlink:href="#mc5b70840b6" y="224.64"/>
      </g>
     </g>
    </g>
    <g id="xtick_16">
     <g id="line2d_20">
      <g>
       <use style="stroke:#000000;stroke-width:0.6;" x="254.708282" xlink:href="#mc5b70840b6" y="224.64"/>
      </g>
     </g>
    </g>
    <g id="xtick_17">
     <g id="line2d_21">
      <g>
       <use style="stroke:#000000;stroke-width:0.6;" x="262.520286" xlink:href="#mc5b70840b6" y="224.64"/>
      </g>
     </g>
    </g>
    <g id="xtick_18">
     <g id="line2d_22">
      <g>
       <use style="stroke:#000000;stroke-width:0.6;" x="269.287352" xlink:href="#mc5b70840b6" y="224.64"/>
      </g>
     </g>
    </g>
    <g id="xtick_19">
     <g id="line2d_23">
      <g>
       <use style="stroke:#000000;stroke-width:0.6;" x="275.256328" xlink:href="#mc5b70840b6" y="224.64"/>
      </g>
     </g>
    </g>
    <g id="xtick_20">
     <g id="line2d_24">
      <g>
       <use style="stroke:#000000;stroke-width:0.6;" x="315.722874" xlink:href="#mc5b70840b6" y="224.64"/>
      </g>
     </g>
    </g>
    <g id="xtick_21">
     <g id="line2d_25">
      <g>
       <use style="stroke:#000000;stroke-width:0.6;" x="336.27092" xlink:href="#mc5b70840b6" y="224.64"/>
      </g>
     </g>
    </g>
    <g id="xtick_22">
     <g id="line2d_26">
      <g>
       <use style="stroke:#000000;stroke-width:0.6;" x="350.84999" xlink:href="#mc5b70840b6" y="224.64"/>
      </g>
     </g>
    </g>
    <g id="xtick_23">
     <g id="line2d_27">
      <g>
       <use style="stroke:#000000;stroke-width:0.6;" x="362.158396" xlink:href="#mc5b70840b6" y="224.64"/>
      </g>
     </g>
    </g>
    <g id="xtick_24">
     <g id="line2d_28">
      <g>
       <use style="stroke:#000000;stroke-width:0.6;" x="371.398036" xlink:href="#mc5b70840b6" y="224.64"/>
      </g>
     </g>
    </g>
    <g id="xtick_25">
     <g id="line2d_29">
      <g>
       <use style="stroke:#000000;stroke-width:0.6;" x="379.21004" xlink:href="#mc5b70840b6" y="224.64"/>
      </g>
     </g>
    </g>
    <g id="text_4">
     <!-- $\bar{f}$ -->
     <g transform="translate(211.05318 252.781271)scale(0.1 -0.1)">
      <defs>
       <path d="M 39.90625 55 
L 39.90625 57.28125 
L 5.90625 57.28125 
L 5.90625 55 
z
" id="CMR17-22"/>
       <path d="M 44.59375 40.09375 
C 46.59375 40.09375 47.40625 40.09375 47.40625 42 
C 47.40625 43 46.59375 43 44.796875 43 
L 36.703125 43 
C 38.59375 53.578125 40 60.890625 40.796875 64.171875 
C 41.40625 66.640625 43.5 69 46.09375 69 
C 48.203125 69 50.296875 68.09375 51.296875 67.15625 
C 47.40625 66.75 46.203125 63.78125 46.203125 62.015625 
C 46.203125 59.953125 47.703125 58.734375 49.59375 58.734375 
C 51.59375 58.734375 54.59375 60.46875 54.59375 64.359375 
C 54.59375 68.640625 50.40625 71 46 71 
C 41.703125 71 37.5 67.71875 35.5 63.71875 
C 33.703125 60.125 32.703125 56.421875 30.40625 43 
L 23.703125 43 
C 21.796875 43 20.796875 43 20.796875 41.203125 
C 20.796875 40.09375 21.40625 40.09375 23.40625 40.09375 
L 29.796875 40.09375 
C 28 30.875 23.90625 8.46875 21.59375 -2.140625 
C 19.90625 -10.765625 18.40625 -18 13.40625 -18 
C 13.09375 -18 10.203125 -18 8.40625 -16.109375 
C 13.5 -15.703125 13.5 -11.34375 13.5 -11.25 
C 13.5 -9.265625 12 -8.078125 10.09375 -8.078125 
C 8.09375 -8.078125 5.09375 -9.765625 5.09375 -13.546875 
C 5.09375 -17.8125 9.5 -20 13.40625 -20 
C 23.59375 -20 27.796875 -1.84375 28.90625 3.109375 
C 30.703125 10.75 35.59375 37.125 36.09375 40.09375 
z
" id="CMMI12-102"/>
      </defs>
      <use transform="translate(22.773228 26.296621)scale(0.996264)" xlink:href="#CMR17-22"/>
      <use transform="scale(0.996264)" xlink:href="#CMMI12-102"/>
     </g>
    </g>
   </g>
   <g id="matplotlib.axis_2">
    <g id="ytick_1">
     <g id="line2d_30">
      <defs>
       <path d="M 0 0 
L -3.5 0 
" id="m66342a4f84" style="stroke:#000000;stroke-width:0.8;"/>
      </defs>
      <g>
       <use style="stroke:#000000;stroke-width:0.8;" x="47.21625" xlink:href="#m66342a4f84" y="224.64"/>
      </g>
     </g>
     <g id="text_5">
      <!-- $\mathdefault{10^{-6}}$ -->
      <g transform="translate(20.055677 228.099249)scale(0.1 -0.1)">
       <defs>
        <path d="M 10.59375 34 
C 10.59375 57.65625 21.796875 63 28.296875 63 
C 30.40625 63 35.5 62.640625 37.5 59 
C 35.90625 59 32.90625 59 32.90625 55.515625 
C 32.90625 52.828125 35.09375 51.921875 36.5 51.921875 
C 37.40625 51.921875 40.09375 52.3125 40.09375 55.625 
C 40.09375 61.78125 35.09375 65.296875 28.203125 65.296875 
C 16.296875 65.296875 3.796875 52.96875 3.796875 31 
C 3.796875 3.953125 15.09375 -2 23.09375 -2 
C 32.796875 -2 42 6.671875 42 20.046875 
C 42 32.515625 33.90625 41.59375 23.703125 41.59375 
C 17.59375 41.59375 13.09375 37.609375 10.59375 30.625 
z
M 23.09375 0.390625 
C 10.796875 0.390625 10.796875 18.75 10.796875 22.4375 
C 10.796875 29.625 14.203125 40 23.5 40 
C 25.203125 40 30.09375 40 33.40625 33.125 
C 35.203125 29.21875 35.203125 25.140625 35.203125 20.140625 
C 35.203125 14.75 35.203125 10.78125 33.09375 6.78125 
C 30.90625 2.671875 27.703125 0.390625 23.09375 0.390625 
z
" id="CMR17-54"/>
       </defs>
       <use transform="scale(0.996264)" xlink:href="#CMR17-49"/>
       <use transform="translate(45.690477 0)scale(0.996264)" xlink:href="#CMR17-48"/>
       <use transform="translate(91.380954 36.153639)scale(0.697382)" xlink:href="#CMSY10-0"/>
       <use transform="translate(145.621947 36.153639)scale(0.697382)" xlink:href="#CMR17-54"/>
      </g>
     </g>
    </g>
    <g id="ytick_2">
     <g id="line2d_31">
      <g>
       <use style="stroke:#000000;stroke-width:0.8;" x="47.21625" xlink:href="#m66342a4f84" y="199.869408"/>
      </g>
     </g>
     <g id="text_6">
      <!-- $\mathdefault{10^{-5}}$ -->
      <g transform="translate(20.055677 203.328658)scale(0.1 -0.1)">
       <defs>
        <path d="M 11.40625 57.6875 
C 12.40625 57.28125 16.5 56 20.703125 56 
C 30 56 35.09375 61.109375 38 64.0625 
C 38 64.953125 38 65.5 37.40625 65.5 
C 37.296875 65.5 37.09375 65.5 36.296875 65.046875 
C 32.796875 63.40625 28.703125 62.078125 23.703125 62.078125 
C 20.703125 62.078125 16.203125 62.484375 11.296875 64.671875 
C 10.203125 65.171875 10 65.171875 9.90625 65.171875 
C 9.40625 65.171875 9.296875 65.0625 9.296875 63.078125 
L 9.296875 34.421875 
C 9.296875 32.640625 9.296875 32.140625 10.296875 32.140625 
C 10.796875 32.140625 11 32.34375 11.5 33.03125 
C 14.703125 37.515625 19.09375 39.40625 24.09375 39.40625 
C 27.59375 39.40625 35.09375 37.21875 35.09375 20.140625 
C 35.09375 16.953125 35.09375 11.171875 32.09375 6.578125 
C 29.59375 2.484375 25.703125 0.390625 21.40625 0.390625 
C 14.796875 0.390625 8.09375 5 6.296875 12.71875 
C 6.703125 12.609375 7.5 12.421875 7.90625 12.421875 
C 9.203125 12.421875 11.703125 13.125 11.703125 16.21875 
C 11.703125 18.90625 9.796875 20 7.90625 20 
C 5.59375 20 4.09375 18.59375 4.09375 15.796875 
C 4.09375 7.09375 11 -2 21.59375 -2 
C 31.90625 -2 41.703125 6.875 41.703125 19.75 
C 41.703125 31.71875 33.90625 41 24.203125 41 
C 19.09375 41 14.796875 39.109375 11.40625 35.53125 
z
" id="CMR17-53"/>
       </defs>
       <use transform="scale(0.996264)" xlink:href="#CMR17-49"/>
       <use transform="translate(45.690477 0)scale(0.996264)" xlink:href="#CMR17-48"/>
       <use transform="translate(91.380954 36.153639)scale(0.697382)" xlink:href="#CMSY10-0"/>
       <use transform="translate(145.621947 36.153639)scale(0.697382)" xlink:href="#CMR17-53"/>
      </g>
     </g>
    </g>
    <g id="ytick_3">
     <g id="line2d_32">
      <g>
       <use style="stroke:#000000;stroke-width:0.8;" x="47.21625" xlink:href="#m66342a4f84" y="175.098817"/>
      </g>
     </g>
     <g id="text_7">
      <!-- $\mathdefault{10^{-4}}$ -->
      <g transform="translate(20.055677 178.558066)scale(0.1 -0.1)">
       <defs>
        <path d="M 33.59375 64.40625 
C 33.59375 66.5 33.5 66.5 31.703125 66.5 
L 2 19.59375 
L 2 17 
L 27.796875 17 
L 27.796875 7.140625 
C 27.796875 3.5 27.59375 2.5 20.59375 2.5 
L 18.703125 2.5 
L 18.703125 0 
C 21.90625 0 27.296875 0 30.703125 0 
C 34.09375 0 39.5 0 42.703125 0 
L 42.703125 2.5 
L 40.796875 2.5 
C 33.796875 2.5 33.59375 3.5 33.59375 7.140625 
L 33.59375 17 
L 43.796875 17 
L 43.796875 19.59375 
L 33.59375 19.59375 
z
M 28.09375 57.859375 
L 28.09375 19.59375 
L 4 19.59375 
z
" id="CMR17-52"/>
       </defs>
       <use transform="scale(0.996264)" xlink:href="#CMR17-49"/>
       <use transform="translate(45.690477 0)scale(0.996264)" xlink:href="#CMR17-48"/>
       <use transform="translate(91.380954 36.153639)scale(0.697382)" xlink:href="#CMSY10-0"/>
       <use transform="translate(145.621947 36.153639)scale(0.697382)" xlink:href="#CMR17-52"/>
      </g>
     </g>
    </g>
    <g id="ytick_4">
     <g id="line2d_33">
      <g>
       <use style="stroke:#000000;stroke-width:0.8;" x="47.21625" xlink:href="#m66342a4f84" y="150.328225"/>
      </g>
     </g>
     <g id="text_8">
      <!-- $\mathdefault{10^{-3}}$ -->
      <g transform="translate(20.055677 153.787474)scale(0.1 -0.1)">
       <defs>
        <path d="M 22.09375 33.703125 
C 31 33.703125 34.90625 25.96875 34.90625 17.03125 
C 34.90625 5 28.5 0.390625 22.703125 0.390625 
C 17.40625 0.390625 8.796875 3.03125 6.09375 10.828125 
C 6.59375 10.625 7.09375 10.625 7.59375 10.625 
C 10 10.625 11.796875 12.21875 11.796875 14.8125 
C 11.796875 17.703125 9.59375 19 7.59375 19 
C 5.90625 19 3.296875 18.203125 3.296875 14.46875 
C 3.296875 5.234375 12.296875 -2 22.90625 -2 
C 34 -2 42.5 6.71875 42.5 16.953125 
C 42.5 26.671875 34.5 33.703125 25 34.796875 
C 32.59375 36.375 39.90625 43.0625 39.90625 52.015625 
C 39.90625 59.6875 32 65.296875 23 65.296875 
C 13.90625 65.296875 5.90625 59.828125 5.90625 52.015625 
C 5.90625 48.59375 8.5 48 9.796875 48 
C 11.90625 48 13.703125 49.296875 13.703125 51.890625 
C 13.703125 54.46875 11.90625 55.765625 9.796875 55.765625 
C 9.40625 55.765625 8.90625 55.765625 8.5 55.578125 
C 11.40625 61.859375 19.296875 63 22.796875 63 
C 26.296875 63 32.90625 61.328125 32.90625 51.875 
C 32.90625 49.109375 32.5 44.1875 29.09375 39.84375 
C 26.09375 36 22.703125 36 19.40625 35.6875 
C 18.90625 35.6875 16.59375 35.453125 16.203125 35.453125 
C 15.5 35.359375 15.09375 35.265625 15.09375 34.5 
C 15.09375 33.796875 15.203125 33.703125 17.203125 33.703125 
z
" id="CMR17-51"/>
       </defs>
       <use transform="scale(0.996264)" xlink:href="#CMR17-49"/>
       <use transform="translate(45.690477 0)scale(0.996264)" xlink:href="#CMR17-48"/>
       <use transform="translate(91.380954 36.153639)scale(0.697382)" xlink:href="#CMSY10-0"/>
       <use transform="translate(145.621947 36.153639)scale(0.697382)" xlink:href="#CMR17-51"/>
      </g>
     </g>
    </g>
    <g id="ytick_5">
     <g id="line2d_34">
      <g>
       <use style="stroke:#000000;stroke-width:0.8;" x="47.21625" xlink:href="#m66342a4f84" y="125.557633"/>
      </g>
     </g>
     <g id="text_9">
      <!-- $\mathdefault{10^{-2}}$ -->
      <g transform="translate(20.055677 129.016883)scale(0.1 -0.1)">
       <defs>
        <path d="M 41.703125 15.453125 
L 39.90625 15.453125 
C 38.90625 8.375 38.09375 7.171875 37.703125 6.5625 
C 37.203125 5.765625 30 5.765625 28.59375 5.765625 
L 9.40625 5.765625 
C 13 9.671875 20 16.75 28.5 24.953125 
C 34.59375 30.734375 41.703125 37.53125 41.703125 47.421875 
C 41.703125 59.21875 32.296875 66 21.796875 66 
C 10.796875 66 4.09375 56.3125 4.09375 47.34375 
C 4.09375 43.4375 7 42.9375 8.203125 42.9375 
C 9.203125 42.9375 12.203125 43.546875 12.203125 47.03125 
C 12.203125 50.109375 9.59375 51 8.203125 51 
C 7.59375 51 7 50.90625 6.59375 50.703125 
C 8.5 59.21875 14.296875 63.40625 20.40625 63.40625 
C 29.09375 63.40625 34.796875 56.515625 34.796875 47.421875 
C 34.796875 38.734375 29.703125 31.25 24 24.75 
L 4.09375 2.28125 
L 4.09375 0 
L 39.296875 0 
z
" id="CMR17-50"/>
       </defs>
       <use transform="scale(0.996264)" xlink:href="#CMR17-49"/>
       <use transform="translate(45.690477 0)scale(0.996264)" xlink:href="#CMR17-48"/>
       <use transform="translate(91.380954 36.153639)scale(0.697382)" xlink:href="#CMSY10-0"/>
       <use transform="translate(145.621947 36.153639)scale(0.697382)" xlink:href="#CMR17-50"/>
      </g>
     </g>
    </g>
    <g id="ytick_6">
     <g id="line2d_35">
      <g>
       <use style="stroke:#000000;stroke-width:0.8;" x="47.21625" xlink:href="#m66342a4f84" y="100.787042"/>
      </g>
     </g>
     <g id="text_10">
      <!-- $\mathdefault{10^{-1}}$ -->
      <g transform="translate(20.055677 104.246291)scale(0.1 -0.1)">
       <use transform="scale(0.996264)" xlink:href="#CMR17-49"/>
       <use transform="translate(45.690477 0)scale(0.996264)" xlink:href="#CMR17-48"/>
       <use transform="translate(91.380954 36.153639)scale(0.697382)" xlink:href="#CMSY10-0"/>
       <use transform="translate(145.621947 36.153639)scale(0.697382)" xlink:href="#CMR17-49"/>
      </g>
     </g>
    </g>
    <g id="ytick_7">
     <g id="line2d_36">
      <g>
       <use style="stroke:#000000;stroke-width:0.8;" x="47.21625" xlink:href="#m66342a4f84" y="76.01645"/>
      </g>
     </g>
     <g id="text_11">
      <!-- $\mathdefault{10^{0}}$ -->
      <g transform="translate(26.282342 79.475699)scale(0.1 -0.1)">
       <use transform="scale(0.996264)" xlink:href="#CMR17-49"/>
       <use transform="translate(45.690477 0)scale(0.996264)" xlink:href="#CMR17-48"/>
       <use transform="translate(91.380954 36.153639)scale(0.697382)" xlink:href="#CMR17-48"/>
      </g>
     </g>
    </g>
    <g id="ytick_8">
     <g id="line2d_37">
      <g>
       <use style="stroke:#000000;stroke-width:0.8;" x="47.21625" xlink:href="#m66342a4f84" y="51.245859"/>
      </g>
     </g>
     <g id="text_12">
      <!-- $\mathdefault{10^{1}}$ -->
      <g transform="translate(26.282342 54.705108)scale(0.1 -0.1)">
       <use transform="scale(0.996264)" xlink:href="#CMR17-49"/>
       <use transform="translate(45.690477 0)scale(0.996264)" xlink:href="#CMR17-48"/>
       <use transform="translate(91.380954 36.153639)scale(0.697382)" xlink:href="#CMR17-49"/>
      </g>
     </g>
    </g>
    <g id="ytick_9">
     <g id="line2d_38">
      <g>
       <use style="stroke:#000000;stroke-width:0.8;" x="47.21625" xlink:href="#m66342a4f84" y="26.475267"/>
      </g>
     </g>
     <g id="text_13">
      <!-- $\mathdefault{10^{2}}$ -->
      <g transform="translate(26.282342 29.934516)scale(0.1 -0.1)">
       <use transform="scale(0.996264)" xlink:href="#CMR17-49"/>
       <use transform="translate(45.690477 0)scale(0.996264)" xlink:href="#CMR17-48"/>
       <use transform="translate(91.380954 36.153639)scale(0.697382)" xlink:href="#CMR17-50"/>
      </g>
     </g>
    </g>
    <g id="ytick_10">
     <g id="line2d_39">
      <defs>
       <path d="M 0 0 
L -2 0 
" id="m3835d85ef6" style="stroke:#000000;stroke-width:0.6;"/>
      </defs>
      <g>
       <use style="stroke:#000000;stroke-width:0.6;" x="47.21625" xlink:href="#m3835d85ef6" y="217.183309"/>
      </g>
     </g>
    </g>
    <g id="ytick_11">
     <g id="line2d_40">
      <g>
       <use style="stroke:#000000;stroke-width:0.6;" x="47.21625" xlink:href="#m3835d85ef6" y="212.821424"/>
      </g>
     </g>
    </g>
    <g id="ytick_12">
     <g id="line2d_41">
      <g>
       <use style="stroke:#000000;stroke-width:0.6;" x="47.21625" xlink:href="#m3835d85ef6" y="209.726618"/>
      </g>
     </g>
    </g>
    <g id="ytick_13">
     <g id="line2d_42">
      <g>
       <use style="stroke:#000000;stroke-width:0.6;" x="47.21625" xlink:href="#m3835d85ef6" y="207.326099"/>
      </g>
     </g>
    </g>
    <g id="ytick_14">
     <g id="line2d_43">
      <g>
       <use style="stroke:#000000;stroke-width:0.6;" x="47.21625" xlink:href="#m3835d85ef6" y="205.364733"/>
      </g>
     </g>
    </g>
    <g id="ytick_15">
     <g id="line2d_44">
      <g>
       <use style="stroke:#000000;stroke-width:0.6;" x="47.21625" xlink:href="#m3835d85ef6" y="203.706422"/>
      </g>
     </g>
    </g>
    <g id="ytick_16">
     <g id="line2d_45">
      <g>
       <use style="stroke:#000000;stroke-width:0.6;" x="47.21625" xlink:href="#m3835d85ef6" y="202.269927"/>
      </g>
     </g>
    </g>
    <g id="ytick_17">
     <g id="line2d_46">
      <g>
       <use style="stroke:#000000;stroke-width:0.6;" x="47.21625" xlink:href="#m3835d85ef6" y="201.002848"/>
      </g>
     </g>
    </g>
    <g id="ytick_18">
     <g id="line2d_47">
      <g>
       <use style="stroke:#000000;stroke-width:0.6;" x="47.21625" xlink:href="#m3835d85ef6" y="192.412717"/>
      </g>
     </g>
    </g>
    <g id="ytick_19">
     <g id="line2d_48">
      <g>
       <use style="stroke:#000000;stroke-width:0.6;" x="47.21625" xlink:href="#m3835d85ef6" y="188.050833"/>
      </g>
     </g>
    </g>
    <g id="ytick_20">
     <g id="line2d_49">
      <g>
       <use style="stroke:#000000;stroke-width:0.6;" x="47.21625" xlink:href="#m3835d85ef6" y="184.956026"/>
      </g>
     </g>
    </g>
    <g id="ytick_21">
     <g id="line2d_50">
      <g>
       <use style="stroke:#000000;stroke-width:0.6;" x="47.21625" xlink:href="#m3835d85ef6" y="182.555508"/>
      </g>
     </g>
    </g>
    <g id="ytick_22">
     <g id="line2d_51">
      <g>
       <use style="stroke:#000000;stroke-width:0.6;" x="47.21625" xlink:href="#m3835d85ef6" y="180.594141"/>
      </g>
     </g>
    </g>
    <g id="ytick_23">
     <g id="line2d_52">
      <g>
       <use style="stroke:#000000;stroke-width:0.6;" x="47.21625" xlink:href="#m3835d85ef6" y="178.93583"/>
      </g>
     </g>
    </g>
    <g id="ytick_24">
     <g id="line2d_53">
      <g>
       <use style="stroke:#000000;stroke-width:0.6;" x="47.21625" xlink:href="#m3835d85ef6" y="177.499335"/>
      </g>
     </g>
    </g>
    <g id="ytick_25">
     <g id="line2d_54">
      <g>
       <use style="stroke:#000000;stroke-width:0.6;" x="47.21625" xlink:href="#m3835d85ef6" y="176.232257"/>
      </g>
     </g>
    </g>
    <g id="ytick_26">
     <g id="line2d_55">
      <g>
       <use style="stroke:#000000;stroke-width:0.6;" x="47.21625" xlink:href="#m3835d85ef6" y="167.642126"/>
      </g>
     </g>
    </g>
    <g id="ytick_27">
     <g id="line2d_56">
      <g>
       <use style="stroke:#000000;stroke-width:0.6;" x="47.21625" xlink:href="#m3835d85ef6" y="163.280241"/>
      </g>
     </g>
    </g>
    <g id="ytick_28">
     <g id="line2d_57">
      <g>
       <use style="stroke:#000000;stroke-width:0.6;" x="47.21625" xlink:href="#m3835d85ef6" y="160.185435"/>
      </g>
     </g>
    </g>
    <g id="ytick_29">
     <g id="line2d_58">
      <g>
       <use style="stroke:#000000;stroke-width:0.6;" x="47.21625" xlink:href="#m3835d85ef6" y="157.784916"/>
      </g>
     </g>
    </g>
    <g id="ytick_30">
     <g id="line2d_59">
      <g>
       <use style="stroke:#000000;stroke-width:0.6;" x="47.21625" xlink:href="#m3835d85ef6" y="155.82355"/>
      </g>
     </g>
    </g>
    <g id="ytick_31">
     <g id="line2d_60">
      <g>
       <use style="stroke:#000000;stroke-width:0.6;" x="47.21625" xlink:href="#m3835d85ef6" y="154.165238"/>
      </g>
     </g>
    </g>
    <g id="ytick_32">
     <g id="line2d_61">
      <g>
       <use style="stroke:#000000;stroke-width:0.6;" x="47.21625" xlink:href="#m3835d85ef6" y="152.728743"/>
      </g>
     </g>
    </g>
    <g id="ytick_33">
     <g id="line2d_62">
      <g>
       <use style="stroke:#000000;stroke-width:0.6;" x="47.21625" xlink:href="#m3835d85ef6" y="151.461665"/>
      </g>
     </g>
    </g>
    <g id="ytick_34">
     <g id="line2d_63">
      <g>
       <use style="stroke:#000000;stroke-width:0.6;" x="47.21625" xlink:href="#m3835d85ef6" y="142.871534"/>
      </g>
     </g>
    </g>
    <g id="ytick_35">
     <g id="line2d_64">
      <g>
       <use style="stroke:#000000;stroke-width:0.6;" x="47.21625" xlink:href="#m3835d85ef6" y="138.509649"/>
      </g>
     </g>
    </g>
    <g id="ytick_36">
     <g id="line2d_65">
      <g>
       <use style="stroke:#000000;stroke-width:0.6;" x="47.21625" xlink:href="#m3835d85ef6" y="135.414843"/>
      </g>
     </g>
    </g>
    <g id="ytick_37">
     <g id="line2d_66">
      <g>
       <use style="stroke:#000000;stroke-width:0.6;" x="47.21625" xlink:href="#m3835d85ef6" y="133.014325"/>
      </g>
     </g>
    </g>
    <g id="ytick_38">
     <g id="line2d_67">
      <g>
       <use style="stroke:#000000;stroke-width:0.6;" x="47.21625" xlink:href="#m3835d85ef6" y="131.052958"/>
      </g>
     </g>
    </g>
    <g id="ytick_39">
     <g id="line2d_68">
      <g>
       <use style="stroke:#000000;stroke-width:0.6;" x="47.21625" xlink:href="#m3835d85ef6" y="129.394647"/>
      </g>
     </g>
    </g>
    <g id="ytick_40">
     <g id="line2d_69">
      <g>
       <use style="stroke:#000000;stroke-width:0.6;" x="47.21625" xlink:href="#m3835d85ef6" y="127.958152"/>
      </g>
     </g>
    </g>
    <g id="ytick_41">
     <g id="line2d_70">
      <g>
       <use style="stroke:#000000;stroke-width:0.6;" x="47.21625" xlink:href="#m3835d85ef6" y="126.691074"/>
      </g>
     </g>
    </g>
    <g id="ytick_42">
     <g id="line2d_71">
      <g>
       <use style="stroke:#000000;stroke-width:0.6;" x="47.21625" xlink:href="#m3835d85ef6" y="118.100942"/>
      </g>
     </g>
    </g>
    <g id="ytick_43">
     <g id="line2d_72">
      <g>
       <use style="stroke:#000000;stroke-width:0.6;" x="47.21625" xlink:href="#m3835d85ef6" y="113.739058"/>
      </g>
     </g>
    </g>
    <g id="ytick_44">
     <g id="line2d_73">
      <g>
       <use style="stroke:#000000;stroke-width:0.6;" x="47.21625" xlink:href="#m3835d85ef6" y="110.644251"/>
      </g>
     </g>
    </g>
    <g id="ytick_45">
     <g id="line2d_74">
      <g>
       <use style="stroke:#000000;stroke-width:0.6;" x="47.21625" xlink:href="#m3835d85ef6" y="108.243733"/>
      </g>
     </g>
    </g>
    <g id="ytick_46">
     <g id="line2d_75">
      <g>
       <use style="stroke:#000000;stroke-width:0.6;" x="47.21625" xlink:href="#m3835d85ef6" y="106.282367"/>
      </g>
     </g>
    </g>
    <g id="ytick_47">
     <g id="line2d_76">
      <g>
       <use style="stroke:#000000;stroke-width:0.6;" x="47.21625" xlink:href="#m3835d85ef6" y="104.624055"/>
      </g>
     </g>
    </g>
    <g id="ytick_48">
     <g id="line2d_77">
      <g>
       <use style="stroke:#000000;stroke-width:0.6;" x="47.21625" xlink:href="#m3835d85ef6" y="103.18756"/>
      </g>
     </g>
    </g>
    <g id="ytick_49">
     <g id="line2d_78">
      <g>
       <use style="stroke:#000000;stroke-width:0.6;" x="47.21625" xlink:href="#m3835d85ef6" y="101.920482"/>
      </g>
     </g>
    </g>
    <g id="ytick_50">
     <g id="line2d_79">
      <g>
       <use style="stroke:#000000;stroke-width:0.6;" x="47.21625" xlink:href="#m3835d85ef6" y="93.330351"/>
      </g>
     </g>
    </g>
    <g id="ytick_51">
     <g id="line2d_80">
      <g>
       <use style="stroke:#000000;stroke-width:0.6;" x="47.21625" xlink:href="#m3835d85ef6" y="88.968466"/>
      </g>
     </g>
    </g>
    <g id="ytick_52">
     <g id="line2d_81">
      <g>
       <use style="stroke:#000000;stroke-width:0.6;" x="47.21625" xlink:href="#m3835d85ef6" y="85.87366"/>
      </g>
     </g>
    </g>
    <g id="ytick_53">
     <g id="line2d_82">
      <g>
       <use style="stroke:#000000;stroke-width:0.6;" x="47.21625" xlink:href="#m3835d85ef6" y="83.473141"/>
      </g>
     </g>
    </g>
    <g id="ytick_54">
     <g id="line2d_83">
      <g>
       <use style="stroke:#000000;stroke-width:0.6;" x="47.21625" xlink:href="#m3835d85ef6" y="81.511775"/>
      </g>
     </g>
    </g>
    <g id="ytick_55">
     <g id="line2d_84">
      <g>
       <use style="stroke:#000000;stroke-width:0.6;" x="47.21625" xlink:href="#m3835d85ef6" y="79.853463"/>
      </g>
     </g>
    </g>
    <g id="ytick_56">
     <g id="line2d_85">
      <g>
       <use style="stroke:#000000;stroke-width:0.6;" x="47.21625" xlink:href="#m3835d85ef6" y="78.416969"/>
      </g>
     </g>
    </g>
    <g id="ytick_57">
     <g id="line2d_86">
      <g>
       <use style="stroke:#000000;stroke-width:0.6;" x="47.21625" xlink:href="#m3835d85ef6" y="77.14989"/>
      </g>
     </g>
    </g>
    <g id="ytick_58">
     <g id="line2d_87">
      <g>
       <use style="stroke:#000000;stroke-width:0.6;" x="47.21625" xlink:href="#m3835d85ef6" y="68.559759"/>
      </g>
     </g>
    </g>
    <g id="ytick_59">
     <g id="line2d_88">
      <g>
       <use style="stroke:#000000;stroke-width:0.6;" x="47.21625" xlink:href="#m3835d85ef6" y="64.197874"/>
      </g>
     </g>
    </g>
    <g id="ytick_60">
     <g id="line2d_89">
      <g>
       <use style="stroke:#000000;stroke-width:0.6;" x="47.21625" xlink:href="#m3835d85ef6" y="61.103068"/>
      </g>
     </g>
    </g>
    <g id="ytick_61">
     <g id="line2d_90">
      <g>
       <use style="stroke:#000000;stroke-width:0.6;" x="47.21625" xlink:href="#m3835d85ef6" y="58.70255"/>
      </g>
     </g>
    </g>
    <g id="ytick_62">
     <g id="line2d_91">
      <g>
       <use style="stroke:#000000;stroke-width:0.6;" x="47.21625" xlink:href="#m3835d85ef6" y="56.741183"/>
      </g>
     </g>
    </g>
    <g id="ytick_63">
     <g id="line2d_92">
      <g>
       <use style="stroke:#000000;stroke-width:0.6;" x="47.21625" xlink:href="#m3835d85ef6" y="55.082872"/>
      </g>
     </g>
    </g>
    <g id="ytick_64">
     <g id="line2d_93">
      <g>
       <use style="stroke:#000000;stroke-width:0.6;" x="47.21625" xlink:href="#m3835d85ef6" y="53.646377"/>
      </g>
     </g>
    </g>
    <g id="ytick_65">
     <g id="line2d_94">
      <g>
       <use style="stroke:#000000;stroke-width:0.6;" x="47.21625" xlink:href="#m3835d85ef6" y="52.379299"/>
      </g>
     </g>
    </g>
    <g id="ytick_66">
     <g id="line2d_95">
      <g>
       <use style="stroke:#000000;stroke-width:0.6;" x="47.21625" xlink:href="#m3835d85ef6" y="43.789167"/>
      </g>
     </g>
    </g>
    <g id="ytick_67">
     <g id="line2d_96">
      <g>
       <use style="stroke:#000000;stroke-width:0.6;" x="47.21625" xlink:href="#m3835d85ef6" y="39.427283"/>
      </g>
     </g>
    </g>
    <g id="ytick_68">
     <g id="line2d_97">
      <g>
       <use style="stroke:#000000;stroke-width:0.6;" x="47.21625" xlink:href="#m3835d85ef6" y="36.332476"/>
      </g>
     </g>
    </g>
    <g id="ytick_69">
     <g id="line2d_98">
      <g>
       <use style="stroke:#000000;stroke-width:0.6;" x="47.21625" xlink:href="#m3835d85ef6" y="33.931958"/>
      </g>
     </g>
    </g>
    <g id="ytick_70">
     <g id="line2d_99">
      <g>
       <use style="stroke:#000000;stroke-width:0.6;" x="47.21625" xlink:href="#m3835d85ef6" y="31.970592"/>
      </g>
     </g>
    </g>
    <g id="ytick_71">
     <g id="line2d_100">
      <g>
       <use style="stroke:#000000;stroke-width:0.6;" x="47.21625" xlink:href="#m3835d85ef6" y="30.31228"/>
      </g>
     </g>
    </g>
    <g id="ytick_72">
     <g id="line2d_101">
      <g>
       <use style="stroke:#000000;stroke-width:0.6;" x="47.21625" xlink:href="#m3835d85ef6" y="28.875785"/>
      </g>
     </g>
    </g>
    <g id="ytick_73">
     <g id="line2d_102">
      <g>
       <use style="stroke:#000000;stroke-width:0.6;" x="47.21625" xlink:href="#m3835d85ef6" y="27.608707"/>
      </g>
     </g>
    </g>
    <g id="ytick_74">
     <g id="line2d_103">
      <g>
       <use style="stroke:#000000;stroke-width:0.6;" x="47.21625" xlink:href="#m3835d85ef6" y="19.018576"/>
      </g>
     </g>
    </g>
    <g id="ytick_75">
     <g id="line2d_104">
      <g>
       <use style="stroke:#000000;stroke-width:0.6;" x="47.21625" xlink:href="#m3835d85ef6" y="14.656691"/>
      </g>
     </g>
    </g>
    <g id="ytick_76">
     <g id="line2d_105">
      <g>
       <use style="stroke:#000000;stroke-width:0.6;" x="47.21625" xlink:href="#m3835d85ef6" y="11.561885"/>
      </g>
     </g>
    </g>
    <g id="ytick_77">
     <g id="line2d_106">
      <g>
       <use style="stroke:#000000;stroke-width:0.6;" x="47.21625" xlink:href="#m3835d85ef6" y="9.161366"/>
      </g>
     </g>
    </g>
    <g id="ytick_78">
     <g id="line2d_107">
      <g>
       <use style="stroke:#000000;stroke-width:0.6;" x="47.21625" xlink:href="#m3835d85ef6" y="7.2"/>
      </g>
     </g>
    </g>
    <g id="text_14">
     <!-- PSD -->
     <g transform="translate(14.118498 125.467563)rotate(-90)scale(0.1 -0.1)">
      <defs>
       <path d="M 32.90625 29 
C 44.90625 29 54.703125 38.328125 54.703125 49.34375 
C 54.703125 60.15625 45.296875 69.578125 32.296875 69.578125 
L 8.90625 69.578125 
L 8.90625 0 
L 17.296875 0 
L 17.296875 29 
z
M 30.09375 64 
C 41.703125 64 46.796875 56.671875 46.796875 49.328125 
C 46.796875 42.5 42.09375 34.78125 30.09375 34.78125 
L 17.09375 34.78125 
L 17.09375 64 
z
" id="CMSS17-80"/>
       <path d="M 43.703125 65.140625 
C 39.296875 67.71875 34.5 70 26.40625 70 
C 13.5 70 5.203125 60.609375 5.203125 51.03125 
C 5.203125 47.265625 6.296875 43.015625 10.203125 38.671875 
C 14.09375 34.3125 18.5 33.140625 24.09375 31.765625 
C 26.40625 31.15625 30.296875 30.0625 31 29.78125 
C 36.59375 27.609375 39.296875 22.5625 39.296875 17.8125 
C 39.296875 11.59375 34.40625 4.96875 25.703125 4.96875 
C 22.703125 4.96875 13.90625 4.96875 5.59375 12.796875 
L 4.203125 4.96875 
C 12.40625 -1 21.296875 -2 25.796875 -2 
C 38.09375 -2 46.90625 7.625 46.90625 18.53125 
C 46.90625 22.5 45.703125 27.546875 41.5 32.203125 
C 37.40625 36.671875 33.796875 37.65625 25.59375 39.828125 
C 20.90625 41.03125 17.90625 41.828125 15.40625 44.890625 
C 13.703125 47.078125 12.796875 49.15625 12.796875 51.828125 
C 12.796875 57.390625 17.59375 63.4375 26.40625 63.4375 
C 30.796875 63.4375 36.5 62.53125 42.296875 57.1875 
z
" id="CMSS17-83"/>
       <path d="M 8.90625 69 
L 8.90625 0 
L 33.5 0 
C 49.90625 0 62.5 15.3125 62.5 33.90625 
C 62.5 53.09375 49.90625 69 33.5 69 
z
M 17.09375 5.578125 
L 17.09375 63.421875 
L 31.296875 63.421875 
C 44.703125 63.421875 54.296875 51.203125 54.296875 33.90625 
C 54.296875 17.296875 44.796875 5.578125 31.296875 5.578125 
z
" id="CMSS17-68"/>
      </defs>
      <use transform="scale(0.996264)" xlink:href="#CMSS17-80"/>
      <use transform="translate(59.735586 0)scale(0.996264)" xlink:href="#CMSS17-83"/>
      <use transform="translate(111.784102 0)scale(0.996264)" xlink:href="#CMSS17-68"/>
     </g>
    </g>
   </g>
   <g id="line2d_108">
    <path clip-path="url(#p3a1ac76186)" d="M 142.168382 224.64 
L 142.168382 7.2 
" style="fill:none;stroke:#000000;stroke-dasharray:1.5,2.475;stroke-dashoffset:0;stroke-width:1.5;"/>
   </g>
   <g id="line2d_109">
    <path clip-path="url(#p3a1ac76186)" d="M 177.295498 224.64 
L 177.295498 7.2 
" style="fill:none;stroke:#000000;stroke-dasharray:1.5,2.475;stroke-dashoffset:0;stroke-opacity:0.5;stroke-width:1.5;"/>
   </g>
   <g id="line2d_110">
    <path clip-path="url(#p3a1ac76186)" d="M 197.843544 224.64 
L 197.843544 7.2 
" style="fill:none;stroke:#000000;stroke-dasharray:1.5,2.475;stroke-dashoffset:0;stroke-opacity:0.5;stroke-width:1.5;"/>
   </g>
   <g id="patch_3">
    <path d="M 47.21625 224.64 
L 47.21625 7.2 
" style="fill:none;stroke:#000000;stroke-linecap:square;stroke-linejoin:miter;stroke-width:0.8;"/>
   </g>
   <g id="patch_4">
    <path d="M 382.01625 224.64 
L 382.01625 7.2 
" style="fill:none;stroke:#000000;stroke-linecap:square;stroke-linejoin:miter;stroke-width:0.8;"/>
   </g>
   <g id="patch_5">
    <path d="M 47.21625 224.64 
L 382.01625 224.64 
" style="fill:none;stroke:#000000;stroke-linecap:square;stroke-linejoin:miter;stroke-width:0.8;"/>
   </g>
   <g id="patch_6">
    <path d="M 47.21625 7.2 
L 382.01625 7.2 
" style="fill:none;stroke:#000000;stroke-linecap:square;stroke-linejoin:miter;stroke-width:0.8;"/>
   </g>
   <g id="text_15">
    <!-- $\bar{f}_b\approx 0.65$ -->
    <g transform="translate(137.064483 152.265403)rotate(-90)scale(0.1 -0.1)">
     <defs>
      <path d="M 23.09375 66.515625 
C 23.203125 66.921875 23.40625 67.515625 23.40625 68 
C 23.40625 69 22.40625 69 22.203125 69 
C 22.09375 69 18.5 68.640625 16.703125 68.390625 
C 15 68.390625 13.5 68.09375 11.703125 68.09375 
C 9.296875 67.890625 8.59375 67.796875 8.59375 66 
C 8.59375 65 9.59375 65 10.59375 65 
C 15.703125 65 15.703125 64.109375 15.703125 63.125 
C 15.703125 62.4375 14.90625 59.546875 14.5 57.75 
L 12.09375 48.203125 
C 11.09375 44.234375 5.40625 21.671875 5 19.875 
C 4.5 17.40625 4.5 15.703125 4.5 14.40625 
C 4.5 4.28125 10.203125 -1 16.703125 -1 
C 28.296875 -1 40.296875 13.875 40.296875 28.34375 
C 40.296875 37.515625 35.09375 44 27.59375 44 
C 22.40625 44 17.703125 39.71875 15.796875 37.71875 
z
M 16.796875 1 
C 13.59375 1 10.09375 3.390625 10.09375 11.171875 
C 10.09375 14.46875 10.40625 16.359375 12.203125 23.34375 
C 12.5 24.640625 14.09375 31.03125 14.5 32.328125 
C 14.703125 33.125 20.59375 42.015625 27.40625 42.015625 
C 31.796875 42.015625 33.796875 37.625 33.796875 32.4375 
C 33.796875 27.640625 31 16.359375 28.5 11.171875 
C 26 5.78125 21.40625 1 16.796875 1 
z
" id="CMMI12-98"/>
      <path d="M 72.21875 45.15625 
C 72.21875 47.234375 71.515625 48.140625 70.828125 48.140625 
C 70.421875 48.140625 69.515625 47.734375 69.421875 45.453125 
C 69.015625 38.578125 62.015625 34.5 55.515625 34.5 
C 49.71875 34.5 44.71875 37.578125 39.515625 41.0625 
C 34.109375 44.65625 28.703125 48.234375 22.203125 48.234375 
C 12.90625 48.234375 5.5 41.15625 5.5 31.984375 
C 5.5 29.796875 6.296875 29 6.90625 29 
C 7.90625 29 8.296875 30.890625 8.296875 31.28125 
C 8.796875 39.65625 17 42.640625 22.203125 42.640625 
C 28 42.640625 33.015625 39.546875 38.203125 36.0625 
C 43.609375 32.484375 49.015625 28.90625 55.515625 28.90625 
C 64.828125 28.90625 72.21875 35.984375 72.21875 45.15625 
z
M 72.21875 21.734375 
C 72.21875 24.640625 71.015625 24.84375 70.828125 24.84375 
C 70.421875 24.84375 69.515625 24.34375 69.421875 22.140625 
C 69.015625 15.234375 62.015625 11.140625 55.515625 11.140625 
C 49.71875 11.140625 44.71875 14.25 39.515625 17.765625 
C 34.109375 21.390625 28.703125 25 22.203125 25 
C 12.90625 25 5.5 17.890625 5.5 8.65625 
C 5.5 6.4375 6.296875 5.640625 6.90625 5.640625 
C 7.90625 5.640625 8.296875 7.546875 8.296875 7.953125 
C 8.796875 16.390625 17 19.40625 22.203125 19.40625 
C 28 19.40625 33.015625 16.28125 38.203125 12.765625 
C 43.609375 9.15625 49.015625 5.53125 55.515625 5.53125 
C 65.015625 5.53125 72.21875 12.9375 72.21875 21.734375 
z
" id="CMSY10-25"/>
      <path d="M 18.40625 4.796875 
C 18.40625 7.6875 16 9.671875 13.59375 9.671875 
C 10.703125 9.671875 8.703125 7.28125 8.703125 4.890625 
C 8.703125 2 11.09375 0 13.5 0 
C 16.40625 0 18.40625 2.390625 18.40625 4.796875 
z
" id="CMMI12-58"/>
     </defs>
     <use transform="translate(22.773228 26.296621)scale(0.996264)" xlink:href="#CMR17-22"/>
     <use transform="scale(0.996264)" xlink:href="#CMMI12-102"/>
     <use transform="translate(48.083238 -14.943915)scale(0.697382)" xlink:href="#CMMI12-98"/>
     <use transform="translate(105.288366 0)scale(0.996264)" xlink:href="#CMSY10-25"/>
     <use transform="translate(210.449842 0)scale(0.996264)" xlink:href="#CMR17-48"/>
     <use transform="translate(256.140319 0)scale(0.996264)" xlink:href="#CMMI12-58"/>
     <use transform="translate(283.237496 0)scale(0.996264)" xlink:href="#CMR17-54"/>
     <use transform="translate(328.927973 0)scale(0.996264)" xlink:href="#CMR17-53"/>
    </g>
   </g>
   <g id="text_16">
    <!-- $2\bar{f}_b$ -->
    <g transform="translate(172.191599 152.265403)rotate(-90)scale(0.1 -0.1)">
     <use transform="scale(0.996264)" xlink:href="#CMR17-50"/>
     <use transform="translate(68.463705 26.296621)scale(0.996264)" xlink:href="#CMR17-22"/>
     <use transform="translate(45.690477 0)scale(0.996264)" xlink:href="#CMMI12-102"/>
     <use transform="translate(93.773715 -14.943915)scale(0.697382)" xlink:href="#CMMI12-98"/>
    </g>
   </g>
   <g id="text_17">
    <!-- $3\bar{f}_b$ -->
    <g transform="translate(192.739644 152.265403)rotate(-90)scale(0.1 -0.1)">
     <use transform="scale(0.996264)" xlink:href="#CMR17-51"/>
     <use transform="translate(68.463705 26.296621)scale(0.996264)" xlink:href="#CMR17-22"/>
     <use transform="translate(45.690477 0)scale(0.996264)" xlink:href="#CMMI12-102"/>
     <use transform="translate(93.773715 -14.943915)scale(0.697382)" xlink:href="#CMMI12-98"/>
    </g>
   </g>
   <g id="text_18">
    <!-- $ 8\bar{f}_b$ -->
    <g transform="translate(243.697196 189.988011)rotate(-90)scale(0.1 -0.1)">
     <defs>
      <path d="M 27.203125 35.375 
C 33.5 38.546875 39.90625 43.328125 39.90625 50.984375 
C 39.90625 60.015625 31.09375 65.296875 23 65.296875 
C 13.90625 65.296875 5.90625 58.734375 5.90625 49.6875 
C 5.90625 47.203125 6.5 42.921875 10.40625 39.140625 
C 11.40625 38.15625 15.59375 35.171875 18.296875 33.28125 
C 13.796875 30.984375 3.296875 25.53125 3.296875 14.59375 
C 3.296875 4.359375 13.09375 -2 22.796875 -2 
C 33.5 -2 42.5 5.65625 42.5 15.78125 
C 42.5 24.84375 36.40625 29.015625 32.40625 31.703125 
z
M 14.09375 44.09375 
C 13.296875 44.59375 9.296875 47.671875 9.296875 52.359375 
C 9.296875 58.421875 15.59375 63 22.796875 63 
C 30.703125 63 36.5 57.4375 36.5 50.96875 
C 36.5 41.703125 26.09375 36.421875 25.59375 36.421875 
C 25.5 36.421875 25.40625 36.421875 24.59375 37.03125 
z
M 32.5 23.734375 
C 34 22.640625 38.796875 19.375 38.796875 13.296875 
C 38.796875 5.953125 31.40625 0.390625 23 0.390625 
C 13.90625 0.390625 7 6.84375 7 14.6875 
C 7 22.546875 13.09375 29.09375 20 32.1875 
z
" id="CMR17-56"/>
     </defs>
     <use transform="scale(0.996264)" xlink:href="#CMR17-56"/>
     <use transform="translate(68.463705 26.296621)scale(0.996264)" xlink:href="#CMR17-22"/>
     <use transform="translate(45.690477 0)scale(0.996264)" xlink:href="#CMMI12-102"/>
     <use transform="translate(93.773715 -14.943915)scale(0.697382)" xlink:href="#CMMI12-98"/>
    </g>
   </g>
   <g id="text_19">
    <!-- $25\bar{f}_b$ -->
    <g transform="translate(300.593567 189.988011)rotate(-90)scale(0.1 -0.1)">
     <use transform="scale(0.996264)" xlink:href="#CMR17-50"/>
     <use transform="translate(45.690477 0)scale(0.996264)" xlink:href="#CMR17-53"/>
     <use transform="translate(114.154182 26.296621)scale(0.996264)" xlink:href="#CMR17-22"/>
     <use transform="translate(91.380954 0)scale(0.996264)" xlink:href="#CMMI12-102"/>
     <use transform="translate(139.464192 -14.943915)scale(0.697382)" xlink:href="#CMMI12-98"/>
    </g>
   </g>
   <g id="text_20">
    <!-- vortex shedding -->
    <g transform="translate(242.836193 43.789167)scale(0.1 -0.1)">
     <defs>
      <path d="M 41.796875 43 
L 34 43 
L 27.296875 24.3125 
C 25.203125 18.203125 22.203125 9.796875 21.703125 5.5 
L 21.59375 5.5 
C 21.40625 7.3125 20.59375 9.90625 20.09375 11.703125 
C 19.5 13.90625 18.703125 16.5 18.09375 18.3125 
L 9.296875 43 
L 1.296875 43 
L 17.09375 0 
L 26 0 
z
" id="CMSS17-118"/>
      <path d="M 44.203125 21.1875 
C 44.203125 34 34.703125 44 23.5 44 
C 12 44 2.703125 33.703125 2.703125 21.1875 
C 2.703125 8.5 12.296875 -1 23.40625 -1 
C 34.796875 -1 44.203125 8.796875 44.203125 21.1875 
z
M 23.5 5.265625 
C 16.40625 5.265625 10.296875 11.078125 10.296875 22 
C 10.296875 33.609375 17.40625 37.921875 23.40625 37.921875 
C 29.90625 37.921875 36.59375 33.21875 36.59375 22 
C 36.59375 10.671875 30.09375 5.265625 23.5 5.265625 
z
" id="CMSS17-111"/>
      <path d="M 14.90625 21.296875 
C 14.90625 30.703125 21.796875 37 30.59375 37 
L 30.59375 43.578125 
C 24.203125 43.578125 18.203125 40.390625 14.59375 35.203125 
L 14.59375 43.09375 
L 7.5 43.09375 
L 7.5 0 
L 14.90625 0 
z
" id="CMSS17-114"/>
      <path d="M 16.703125 37 
L 29.703125 37 
L 29.703125 42.765625 
L 16.703125 42.765625 
L 16.703125 55 
L 9.59375 55 
L 9.59375 42.765625 
L 1.703125 42.765625 
L 1.703125 37 
L 9.40625 37 
L 9.40625 11.703125 
C 9.40625 6 10.703125 -1 17.296875 -1 
C 22.296875 -1 26.90625 0.390625 31.296875 2.6875 
L 29.703125 8.5625 
C 27.296875 6.46875 24.40625 5.265625 21.296875 5.265625 
C 16.90625 5.265625 16.703125 10.875 16.703125 13.375 
z
" id="CMSS17-116"/>
      <path d="M 39.09375 21.515625 
C 39.09375 24.84375 38.90625 31.296875 35.703125 36.640625 
C 32.203125 42.390625 26.5 44 22.203125 44 
C 11.796875 44 3 34.1875 3 21.484375 
C 3 9.09375 12.09375 -1 23.59375 -1 
C 28.09375 -1 33.59375 0.296875 38.59375 3.875 
C 38.59375 4.28125 38.40625 6.46875 38.296875 6.5625 
C 38.296875 6.765625 38 9.84375 38 10.25 
C 33.203125 6.359375 27.703125 5.078125 23.703125 5.078125 
C 17.296875 5.078125 10.40625 10.421875 10.09375 21.515625 
z
M 10.90625 27 
C 12.203125 32.5625 16.59375 37.828125 22.203125 37.828125 
C 23.703125 37.828125 30.703125 37.828125 32.5 27 
z
" id="CMSS17-101"/>
      <path d="M 24.796875 22.09375 
L 41.5 42.796875 
L 32.796875 42.796875 
L 21.296875 27.765625 
L 9.40625 42.796875 
L 0.5 42.796875 
L 17.796875 22.09375 
L 0 0 
L 8.796875 0 
L 21.296875 17.515625 
L 34.296875 0 
L 43.09375 0 
z
" id="CMSS17-120"/>
      <path d="M 32.203125 41.046875 
C 26.296875 43.859375 21.703125 43.859375 18.703125 43.859375 
C 11.59375 43.859375 3.09375 41.375 3.09375 31.296875 
C 3.09375 21.234375 14.09375 19.03125 17.09375 18.421875 
C 21.703125 17.53125 26.796875 16.53125 26.796875 11.5625 
C 26.796875 5.265625 19.59375 5.265625 18.296875 5.265625 
C 14.296875 5.265625 8.796875 6.359375 3.796875 9.96875 
L 2.59375 3.28125 
C 8.296875 0 13.796875 -1 18.40625 -1 
C 30.703125 -1 33.796875 6.5 33.796875 12.203125 
C 33.796875 17.09375 31 20.390625 29.09375 21.890625 
C 25.796875 24.5 24.59375 24.796875 16.40625 26.5 
C 15 26.703125 10.09375 27.796875 10.09375 32.28125 
C 10.09375 38 16.40625 38 17.796875 38 
C 24.296875 38 28.296875 35.984375 31 34.5 
z
" id="CMSS17-115"/>
      <path d="M 40.90625 29.546875 
C 40.90625 35.8125 39.40625 44.0625 28.09375 44.0625 
C 21.796875 44.0625 17.703125 40.984375 14.796875 37.609375 
L 14.796875 69.5 
L 7.40625 69.5 
L 7.40625 0.5 
L 15 0.5 
L 15 24.578125 
C 15 30.828125 17.40625 38 24.203125 38 
C 33 38 33.296875 32.125 33.296875 28.734375 
L 33.296875 0.5 
L 40.90625 0.5 
z
" id="CMSS17-104"/>
      <path d="M 40.796875 69 
L 33.40625 69 
L 33.40625 38.09375 
C 30.296875 40.671875 25.203125 43.0625 19.59375 43.0625 
C 10.5 43.0625 3.296875 33.296875 3.296875 21.046875 
C 3.296875 8.78125 10.40625 -1 19.296875 -1 
C 26.203125 -1 30.796875 2.6875 33.203125 4.78125 
L 33.203125 -0.203125 
L 40.796875 -0.203125 
z
M 33.203125 13.0625 
C 33.203125 11.671875 33.203125 10.203125 30.09375 7.53125 
C 28.09375 5.859375 25.703125 5.078125 23.40625 5.078125 
C 18 5.078125 10.90625 9 10.90625 20.9375 
C 10.90625 33.34375 18.90625 37 24.40625 37 
C 28.09375 37 31.09375 35.21875 33.203125 32.265625 
z
" id="CMSS17-100"/>
      <path d="M 15.296875 65.359375 
L 6.90625 65.359375 
L 6.90625 57 
L 15.296875 57 
z
M 14.796875 42.796875 
L 7.40625 42.796875 
L 7.40625 0 
L 14.796875 0 
z
" id="CMSS17-105"/>
      <path d="M 40.90625 29.328125 
C 40.90625 35.671875 39.40625 44 28.09375 44 
C 21.703125 44 17.5 40.71875 14.703125 37.328125 
L 14.703125 43.09375 
L 7.40625 43.09375 
L 7.40625 0 
L 15 0 
L 15 24.359375 
C 15 30.6875 17.40625 37.9375 24.203125 37.9375 
C 33 37.9375 33.296875 32 33.296875 28.578125 
L 33.296875 0 
L 40.90625 0 
z
" id="CMSS17-110"/>
      <path d="M 44.5 43.875 
C 38.796875 43.875 33.90625 42.78125 29.90625 40.890625 
C 26.59375 43.390625 23.203125 43.875 20.90625 43.875 
C 12.203125 43.875 5.59375 36.703125 5.59375 28.34375 
C 5.59375 22.9375 8.59375 18.859375 8.796875 18.671875 
C 7 16.171875 6 13.484375 6 10.5 
C 6 7 7.40625 4.515625 8.5 3.125 
C 3.296875 -0.046875 2.59375 -4.90625 2.59375 -6.796875 
C 2.59375 -14.03125 11.703125 -20 23.40625 -20 
C 35.203125 -20 44.296875 -14.03125 44.296875 -6.6875 
C 44.296875 7 29 7 24.796875 7 
L 16.703125 7 
C 15.203125 7 11.203125 7 11.203125 12.359375 
C 11.203125 14.390625 12.09375 15.6875 12.203125 15.78125 
C 13.703125 14.6875 16.796875 13 20.90625 13 
C 29.203125 13 36.09375 19.96875 36.09375 28.546875 
C 36.09375 33.3125 33.90625 36.796875 33 38 
L 33.296875 38 
C 33.59375 38 37.796875 38 39.296875 38 
C 42.5 38 42.796875 37.953125 45.59375 37.796875 
z
M 20.90625 18.46875 
C 17.5 18.46875 12.703125 20.546875 12.703125 28.484375 
C 12.703125 37.109375 18.203125 38.5 20.796875 38.5 
C 24.203125 38.5 29 36.421875 29 28.484375 
C 29 19.859375 23.5 18.46875 20.90625 18.46875 
z
M 24.703125 -0.15625 
C 27.09375 -0.15625 37.203125 -0.15625 37.203125 -6.90625 
C 37.203125 -11.15625 31 -14.515625 23.5 -14.515625 
C 15.90625 -14.515625 9.703125 -11.25 9.703125 -6.796875 
C 9.703125 -6.296875 9.703125 -0.15625 16.59375 -0.15625 
z
" id="CMSS17-103"/>
     </defs>
     <use transform="scale(0.996264)" xlink:href="#CMSS17-118"/>
     <use transform="translate(43.000142 0)scale(0.996264)" xlink:href="#CMSS17-111"/>
     <use transform="translate(87.241311 0)scale(0.996264)" xlink:href="#CMSS17-114"/>
     <use transform="translate(119.151084 0)scale(0.996264)" xlink:href="#CMSS17-116"/>
     <use transform="translate(152.982651 0)scale(0.996264)" xlink:href="#CMSS17-101"/>
     <use transform="translate(194.621473 0)scale(0.996264)" xlink:href="#CMSS17-120"/>
     <use transform="translate(268.850727 0)scale(0.996264)" xlink:href="#CMSS17-115"/>
     <use transform="translate(304.764269 0)scale(0.996264)" xlink:href="#CMSS17-104"/>
     <use transform="translate(352.969212 0)scale(0.996264)" xlink:href="#CMSS17-101"/>
     <use transform="translate(394.608034 0)scale(0.996264)" xlink:href="#CMSS17-100"/>
     <use transform="translate(442.812977 0)scale(0.996264)" xlink:href="#CMSS17-100"/>
     <use transform="translate(491.01792 0)scale(0.996264)" xlink:href="#CMSS17-105"/>
     <use transform="translate(513.198644 0)scale(0.996264)" xlink:href="#CMSS17-110"/>
     <use transform="translate(561.403587 0)scale(0.996264)" xlink:href="#CMSS17-103"/>
    </g>
   </g>
   <g id="legend_1">
    <g id="patch_7">
     <path d="M 54.21625 219.64 
L 273.310263 219.64 
Q 275.310263 219.64 275.310263 217.64 
L 275.310263 204.104384 
Q 275.310263 202.104384 273.310263 202.104384 
L 54.21625 202.104384 
Q 52.21625 202.104384 52.21625 204.104384 
L 52.21625 217.64 
Q 52.21625 219.64 54.21625 219.64 
z
" style="fill:#ffffff;opacity:0.8;stroke:#cccccc;stroke-linejoin:miter;"/>
    </g>
    <g id="line2d_111">
     <path d="M 56.21625 210.202822 
L 76.21625 210.202822 
" style="fill:none;stroke:#1f77b4;stroke-linecap:square;"/>
    </g>
    <g id="line2d_112"/>
    <g id="text_21">
     <!-- $U_0$ -->
     <g transform="translate(84.21625 213.702822)scale(0.1 -0.1)">
      <defs>
       <path d="M 50.59375 23.03125 
C 47.09375 9.078125 35.5 0.890625 26.09375 0.890625 
C 18.90625 0.890625 14 5.671875 14 13.921875 
C 14 14.3125 14 17.296875 15.09375 21.671875 
L 24.90625 60.734375 
C 25.796875 64.109375 26 65.109375 33.09375 65.109375 
C 34.90625 65.109375 35.90625 65.109375 35.90625 66.90625 
C 35.90625 68 35 68 34.40625 68 
C 32.59375 68 30.5 68 28.59375 68 
L 16.796875 68 
C 14.90625 68 12.796875 68 10.90625 68 
C 10.203125 68 9 68 9 66.109375 
C 9 65.109375 9.703125 65.109375 11.59375 65.109375 
C 17.59375 65.109375 17.59375 64.3125 17.59375 63.21875 
C 17.59375 62.625 16.90625 59.75 16.40625 58.046875 
L 7.703125 23.25 
C 7.40625 22.15625 6.796875 19.46875 6.796875 16.796875 
C 6.796875 5.84375 14.703125 -2 25.59375 -2 
C 35.703125 -2 46.90625 6 52 18.703125 
C 52.703125 20.390625 53.59375 23.90625 54.203125 26.59375 
C 55.203125 30.203125 57.296875 39 58 41.59375 
L 61.796875 56.609375 
C 63.09375 61.8125 63.90625 65.109375 72.703125 65.109375 
C 73.5 65.203125 73.90625 66 73.90625 66.90625 
C 73.90625 68 73 68 72.59375 68 
C 71.203125 68 69.40625 68 68 68 
L 63.296875 68 
C 57.09375 68 53.90625 68 53.796875 68 
C 53.203125 68 52 68 52 66.109375 
C 52 65.109375 52.796875 65.109375 53.5 65.109375 
C 59.5 65.109375 59.90625 62.8125 59.90625 61.015625 
C 59.90625 60.125 59.90625 59.8125 59.5 58.421875 
z
" id="CMMI12-85"/>
      </defs>
      <use transform="scale(0.996264)" xlink:href="#CMMI12-85"/>
      <use transform="translate(66.252119 -14.943915)scale(0.697382)" xlink:href="#CMR17-48"/>
     </g>
    </g>
    <g id="line2d_113">
     <path d="M 114.989753 210.202822 
L 134.989753 210.202822 
" style="fill:none;stroke:#ff7f0e;stroke-dasharray:3.7,1.6;stroke-dashoffset:0;"/>
    </g>
    <g id="line2d_114"/>
    <g id="text_22">
     <!-- $U_1$ -->
     <g transform="translate(142.989753 213.702822)scale(0.1 -0.1)">
      <use transform="scale(0.996264)" xlink:href="#CMMI12-85"/>
      <use transform="translate(66.252119 -14.943915)scale(0.697382)" xlink:href="#CMR17-49"/>
     </g>
    </g>
    <g id="line2d_115">
     <path d="M 173.763256 210.202822 
L 193.763256 210.202822 
" style="fill:none;stroke:#2ca02c;stroke-dasharray:6.4,1.6,1,1.6;stroke-dashoffset:0;"/>
    </g>
    <g id="line2d_116"/>
    <g id="text_23">
     <!-- $U_2$ -->
     <g transform="translate(201.763256 213.702822)scale(0.1 -0.1)">
      <use transform="scale(0.996264)" xlink:href="#CMMI12-85"/>
      <use transform="translate(66.252119 -14.943915)scale(0.697382)" xlink:href="#CMR17-50"/>
     </g>
    </g>
    <g id="line2d_117">
     <path d="M 232.53676 210.202822 
L 252.53676 210.202822 
" style="fill:none;stroke:#d62728;stroke-dasharray:1,1.65;stroke-dashoffset:0;"/>
    </g>
    <g id="line2d_118"/>
    <g id="text_24">
     <!-- $U_3$ -->
     <g transform="translate(260.53676 213.702822)scale(0.1 -0.1)">
      <use transform="scale(0.996264)" xlink:href="#CMMI12-85"/>
      <use transform="translate(66.252119 -14.943915)scale(0.697382)" xlink:href="#CMR17-51"/>
     </g>
    </g>
   </g>
  </g>
 </g>
 <defs>
  <clipPath id="p3a1ac76186">
   <rect height="217.44" width="334.8" x="47.21625" y="7.2"/>
  </clipPath>
 </defs>
</svg>
