<?xml version="1.0" encoding="utf-8" standalone="no"?>
<!DOCTYPE svg PUBLIC "-//W3C//DTD SVG 1.1//EN"
  "http://www.w3.org/Graphics/SVG/1.1/DTD/svg11.dtd">
<!-- Created with matplotlib (https://matplotlib.org/) -->
<svg height="260.551353pt" version="1.1" viewBox="0 0 390.682948 260.551353" width="390.682948pt" xmlns="http://www.w3.org/2000/svg" xmlns:xlink="http://www.w3.org/1999/xlink">
 <metadata>
  <rdf:RDF xmlns:cc="http://creativecommons.org/ns#" xmlns:dc="http://purl.org/dc/elements/1.1/" xmlns:rdf="http://www.w3.org/1999/02/22-rdf-syntax-ns#">
   <cc:Work>
    <dc:type rdf:resource="http://purl.org/dc/dcmitype/StillImage"/>
    <dc:date>2022-03-30T14:09:19.538727</dc:date>
    <dc:format>image/svg+xml</dc:format>
    <dc:creator>
     <cc:Agent>
      <dc:title>Matplotlib v3.3.3, https://matplotlib.org/</dc:title>
     </cc:Agent>
    </dc:creator>
   </cc:Work>
  </rdf:RDF>
 </metadata>
 <defs>
  <style type="text/css">*{stroke-linecap:butt;stroke-linejoin:round;}</style>
 </defs>
 <g id="figure_1">
  <g id="patch_1">
   <path d="M 0 260.551353 
L 390.682948 260.551353 
L 390.682948 0 
L 0 0 
z
" style="fill:none;"/>
  </g>
  <g id="axes_1">
   <g id="patch_2">
    <path d="M 48.682948 224.64 
L 383.482948 224.64 
L 383.482948 7.2 
L 48.682948 7.2 
z
" style="fill:#ffffff;"/>
   </g>
   <g id="matplotlib.axis_1">
    <g id="xtick_1">
     <g id="line2d_1">
      <defs>
       <path d="M 0 0 
L 0 3.5 
" id="m0ff595ccfa" style="stroke:#000000;stroke-width:0.8;"/>
      </defs>
      <g>
       <use style="stroke:#000000;stroke-width:0.8;" x="48.682948" xlink:href="#m0ff595ccfa" y="224.64"/>
      </g>
     </g>
     <g id="text_1">
      <!-- $\mathdefault{0}$ -->
      <g transform="translate(46.192281 238.558498)scale(0.1 -0.1)">
       <defs>
        <path d="M 42 31.640625 
C 42 37.75 41.90625 48.125 37.703125 56.109375 
C 34 63.109375 28.09375 65.59375 22.90625 65.59375 
C 18.09375 65.59375 12 63.40625 8.203125 56.203125 
C 4.203125 48.71875 3.796875 39.4375 3.796875 31.640625 
C 3.796875 25.953125 3.90625 17.28125 7 9.671875 
C 11.296875 -0.609375 19 -2 22.90625 -2 
C 27.5 -2 34.5 -0.109375 38.59375 9.375 
C 41.59375 16.28125 42 24.359375 42 31.640625 
z
M 22.90625 -0.40625 
C 16.5 -0.40625 12.703125 5.078125 11.296875 12.6875 
C 10.203125 18.5625 10.203125 27.15625 10.203125 32.75 
C 10.203125 40.4375 10.203125 46.828125 11.5 52.921875 
C 13.40625 61.390625 19 64 22.90625 64 
C 27 64 32.296875 61.296875 34.203125 53.125 
C 35.5 47.4375 35.59375 40.734375 35.59375 32.75 
C 35.59375 26.25 35.59375 18.265625 34.40625 12.375 
C 32.296875 1.484375 26.40625 -0.40625 22.90625 -0.40625 
z
" id="CMR17-48"/>
       </defs>
       <use transform="scale(0.996264)" xlink:href="#CMR17-48"/>
      </g>
     </g>
    </g>
    <g id="xtick_2">
     <g id="line2d_2">
      <g>
       <use style="stroke:#000000;stroke-width:0.8;" x="97.918243" xlink:href="#m0ff595ccfa" y="224.64"/>
      </g>
     </g>
     <g id="text_2">
      <!-- $\mathdefault{100}$ -->
      <g transform="translate(90.44624 238.558498)scale(0.1 -0.1)">
       <defs>
        <path d="M 26.59375 63.40625 
C 26.59375 65.5 26.5 65.5 25.09375 65.5 
C 21.203125 61.1875 15.296875 59.796875 9.703125 59.796875 
C 9.40625 59.796875 8.90625 59.796875 8.796875 59.5 
C 8.703125 59.296875 8.703125 59.09375 8.703125 57 
C 11.796875 57 17 57.59375 21 59.984375 
L 21 7.203125 
C 21 3.6875 20.796875 2.5 12.203125 2.5 
L 9.203125 2.5 
L 9.203125 0 
C 14 0 19 0 23.796875 0 
C 28.59375 0 33.59375 0 38.40625 0 
L 38.40625 2.5 
L 35.40625 2.5 
C 26.796875 2.5 26.59375 3.59375 26.59375 7.15625 
z
" id="CMR17-49"/>
       </defs>
       <use transform="scale(0.996264)" xlink:href="#CMR17-49"/>
       <use transform="translate(45.690477 0)scale(0.996264)" xlink:href="#CMR17-48"/>
       <use transform="translate(91.380954 0)scale(0.996264)" xlink:href="#CMR17-48"/>
      </g>
     </g>
    </g>
    <g id="xtick_3">
     <g id="line2d_3">
      <g>
       <use style="stroke:#000000;stroke-width:0.8;" x="147.153537" xlink:href="#m0ff595ccfa" y="224.64"/>
      </g>
     </g>
     <g id="text_3">
      <!-- $\mathdefault{200}$ -->
      <g transform="translate(139.681534 238.558498)scale(0.1 -0.1)">
       <defs>
        <path d="M 41.703125 15.453125 
L 39.90625 15.453125 
C 38.90625 8.375 38.09375 7.171875 37.703125 6.5625 
C 37.203125 5.765625 30 5.765625 28.59375 5.765625 
L 9.40625 5.765625 
C 13 9.671875 20 16.75 28.5 24.953125 
C 34.59375 30.734375 41.703125 37.53125 41.703125 47.421875 
C 41.703125 59.21875 32.296875 66 21.796875 66 
C 10.796875 66 4.09375 56.3125 4.09375 47.34375 
C 4.09375 43.4375 7 42.9375 8.203125 42.9375 
C 9.203125 42.9375 12.203125 43.546875 12.203125 47.03125 
C 12.203125 50.109375 9.59375 51 8.203125 51 
C 7.59375 51 7 50.90625 6.59375 50.703125 
C 8.5 59.21875 14.296875 63.40625 20.40625 63.40625 
C 29.09375 63.40625 34.796875 56.515625 34.796875 47.421875 
C 34.796875 38.734375 29.703125 31.25 24 24.75 
L 4.09375 2.28125 
L 4.09375 0 
L 39.296875 0 
z
" id="CMR17-50"/>
       </defs>
       <use transform="scale(0.996264)" xlink:href="#CMR17-50"/>
       <use transform="translate(45.690477 0)scale(0.996264)" xlink:href="#CMR17-48"/>
       <use transform="translate(91.380954 0)scale(0.996264)" xlink:href="#CMR17-48"/>
      </g>
     </g>
    </g>
    <g id="xtick_4">
     <g id="line2d_4">
      <g>
       <use style="stroke:#000000;stroke-width:0.8;" x="196.388831" xlink:href="#m0ff595ccfa" y="224.64"/>
      </g>
     </g>
     <g id="text_4">
      <!-- $\mathdefault{300}$ -->
      <g transform="translate(188.916828 238.558498)scale(0.1 -0.1)">
       <defs>
        <path d="M 22.09375 33.703125 
C 31 33.703125 34.90625 25.96875 34.90625 17.03125 
C 34.90625 5 28.5 0.390625 22.703125 0.390625 
C 17.40625 0.390625 8.796875 3.03125 6.09375 10.828125 
C 6.59375 10.625 7.09375 10.625 7.59375 10.625 
C 10 10.625 11.796875 12.21875 11.796875 14.8125 
C 11.796875 17.703125 9.59375 19 7.59375 19 
C 5.90625 19 3.296875 18.203125 3.296875 14.46875 
C 3.296875 5.234375 12.296875 -2 22.90625 -2 
C 34 -2 42.5 6.71875 42.5 16.953125 
C 42.5 26.671875 34.5 33.703125 25 34.796875 
C 32.59375 36.375 39.90625 43.0625 39.90625 52.015625 
C 39.90625 59.6875 32 65.296875 23 65.296875 
C 13.90625 65.296875 5.90625 59.828125 5.90625 52.015625 
C 5.90625 48.59375 8.5 48 9.796875 48 
C 11.90625 48 13.703125 49.296875 13.703125 51.890625 
C 13.703125 54.46875 11.90625 55.765625 9.796875 55.765625 
C 9.40625 55.765625 8.90625 55.765625 8.5 55.578125 
C 11.40625 61.859375 19.296875 63 22.796875 63 
C 26.296875 63 32.90625 61.328125 32.90625 51.875 
C 32.90625 49.109375 32.5 44.1875 29.09375 39.84375 
C 26.09375 36 22.703125 36 19.40625 35.6875 
C 18.90625 35.6875 16.59375 35.453125 16.203125 35.453125 
C 15.5 35.359375 15.09375 35.265625 15.09375 34.5 
C 15.09375 33.796875 15.203125 33.703125 17.203125 33.703125 
z
" id="CMR17-51"/>
       </defs>
       <use transform="scale(0.996264)" xlink:href="#CMR17-51"/>
       <use transform="translate(45.690477 0)scale(0.996264)" xlink:href="#CMR17-48"/>
       <use transform="translate(91.380954 0)scale(0.996264)" xlink:href="#CMR17-48"/>
      </g>
     </g>
    </g>
    <g id="xtick_5">
     <g id="line2d_5">
      <g>
       <use style="stroke:#000000;stroke-width:0.8;" x="245.624125" xlink:href="#m0ff595ccfa" y="224.64"/>
      </g>
     </g>
     <g id="text_5">
      <!-- $\mathdefault{400}$ -->
      <g transform="translate(238.152122 238.558498)scale(0.1 -0.1)">
       <defs>
        <path d="M 33.59375 64.40625 
C 33.59375 66.5 33.5 66.5 31.703125 66.5 
L 2 19.59375 
L 2 17 
L 27.796875 17 
L 27.796875 7.140625 
C 27.796875 3.5 27.59375 2.5 20.59375 2.5 
L 18.703125 2.5 
L 18.703125 0 
C 21.90625 0 27.296875 0 30.703125 0 
C 34.09375 0 39.5 0 42.703125 0 
L 42.703125 2.5 
L 40.796875 2.5 
C 33.796875 2.5 33.59375 3.5 33.59375 7.140625 
L 33.59375 17 
L 43.796875 17 
L 43.796875 19.59375 
L 33.59375 19.59375 
z
M 28.09375 57.859375 
L 28.09375 19.59375 
L 4 19.59375 
z
" id="CMR17-52"/>
       </defs>
       <use transform="scale(0.996264)" xlink:href="#CMR17-52"/>
       <use transform="translate(45.690477 0)scale(0.996264)" xlink:href="#CMR17-48"/>
       <use transform="translate(91.380954 0)scale(0.996264)" xlink:href="#CMR17-48"/>
      </g>
     </g>
    </g>
    <g id="xtick_6">
     <g id="line2d_6">
      <g>
       <use style="stroke:#000000;stroke-width:0.8;" x="294.859419" xlink:href="#m0ff595ccfa" y="224.64"/>
      </g>
     </g>
     <g id="text_6">
      <!-- $\mathdefault{500}$ -->
      <g transform="translate(287.387416 238.558498)scale(0.1 -0.1)">
       <defs>
        <path d="M 11.40625 57.6875 
C 12.40625 57.28125 16.5 56 20.703125 56 
C 30 56 35.09375 61.109375 38 64.0625 
C 38 64.953125 38 65.5 37.40625 65.5 
C 37.296875 65.5 37.09375 65.5 36.296875 65.046875 
C 32.796875 63.40625 28.703125 62.078125 23.703125 62.078125 
C 20.703125 62.078125 16.203125 62.484375 11.296875 64.671875 
C 10.203125 65.171875 10 65.171875 9.90625 65.171875 
C 9.40625 65.171875 9.296875 65.0625 9.296875 63.078125 
L 9.296875 34.421875 
C 9.296875 32.640625 9.296875 32.140625 10.296875 32.140625 
C 10.796875 32.140625 11 32.34375 11.5 33.03125 
C 14.703125 37.515625 19.09375 39.40625 24.09375 39.40625 
C 27.59375 39.40625 35.09375 37.21875 35.09375 20.140625 
C 35.09375 16.953125 35.09375 11.171875 32.09375 6.578125 
C 29.59375 2.484375 25.703125 0.390625 21.40625 0.390625 
C 14.796875 0.390625 8.09375 5 6.296875 12.71875 
C 6.703125 12.609375 7.5 12.421875 7.90625 12.421875 
C 9.203125 12.421875 11.703125 13.125 11.703125 16.21875 
C 11.703125 18.90625 9.796875 20 7.90625 20 
C 5.59375 20 4.09375 18.59375 4.09375 15.796875 
C 4.09375 7.09375 11 -2 21.59375 -2 
C 31.90625 -2 41.703125 6.875 41.703125 19.75 
C 41.703125 31.71875 33.90625 41 24.203125 41 
C 19.09375 41 14.796875 39.109375 11.40625 35.53125 
z
" id="CMR17-53"/>
       </defs>
       <use transform="scale(0.996264)" xlink:href="#CMR17-53"/>
       <use transform="translate(45.690477 0)scale(0.996264)" xlink:href="#CMR17-48"/>
       <use transform="translate(91.380954 0)scale(0.996264)" xlink:href="#CMR17-48"/>
      </g>
     </g>
    </g>
    <g id="xtick_7">
     <g id="line2d_7">
      <g>
       <use style="stroke:#000000;stroke-width:0.8;" x="344.094713" xlink:href="#m0ff595ccfa" y="224.64"/>
      </g>
     </g>
     <g id="text_7">
      <!-- $\mathdefault{600}$ -->
      <g transform="translate(336.62271 238.558498)scale(0.1 -0.1)">
       <defs>
        <path d="M 10.59375 34 
C 10.59375 57.65625 21.796875 63 28.296875 63 
C 30.40625 63 35.5 62.640625 37.5 59 
C 35.90625 59 32.90625 59 32.90625 55.515625 
C 32.90625 52.828125 35.09375 51.921875 36.5 51.921875 
C 37.40625 51.921875 40.09375 52.3125 40.09375 55.625 
C 40.09375 61.78125 35.09375 65.296875 28.203125 65.296875 
C 16.296875 65.296875 3.796875 52.96875 3.796875 31 
C 3.796875 3.953125 15.09375 -2 23.09375 -2 
C 32.796875 -2 42 6.671875 42 20.046875 
C 42 32.515625 33.90625 41.59375 23.703125 41.59375 
C 17.59375 41.59375 13.09375 37.609375 10.59375 30.625 
z
M 23.09375 0.390625 
C 10.796875 0.390625 10.796875 18.75 10.796875 22.4375 
C 10.796875 29.625 14.203125 40 23.5 40 
C 25.203125 40 30.09375 40 33.40625 33.125 
C 35.203125 29.21875 35.203125 25.140625 35.203125 20.140625 
C 35.203125 14.75 35.203125 10.78125 33.09375 6.78125 
C 30.90625 2.671875 27.703125 0.390625 23.09375 0.390625 
z
" id="CMR17-54"/>
       </defs>
       <use transform="scale(0.996264)" xlink:href="#CMR17-54"/>
       <use transform="translate(45.690477 0)scale(0.996264)" xlink:href="#CMR17-48"/>
       <use transform="translate(91.380954 0)scale(0.996264)" xlink:href="#CMR17-48"/>
      </g>
     </g>
    </g>
    <g id="text_8">
     <!-- $i$ -->
     <g transform="translate(214.366819 251.414175)scale(0.1 -0.1)">
      <defs>
       <path d="M 28.296875 14.265625 
C 28.296875 14.765625 27.90625 15.171875 27.296875 15.171875 
C 26.40625 15.171875 26.296875 14.875 25.796875 13.171875 
C 23.203125 4.09375 19.09375 1 15.796875 1 
C 14.59375 1 13.203125 1.296875 13.203125 4.296875 
C 13.203125 6.984375 14.40625 9.984375 15.5 12.96875 
L 22.5 31.53125 
C 22.796875 32.328125 23.5 34.125 23.5 36.015625 
C 23.5 40.21875 20.5 44 15.59375 44 
C 6.40625 44 2.703125 29.53125 2.703125 28.734375 
C 2.703125 28.34375 3.09375 27.84375 3.796875 27.84375 
C 4.703125 27.84375 4.796875 28.234375 5.203125 29.625 
C 7.59375 37.9375 11.40625 41.90625 15.296875 41.90625 
C 16.203125 41.90625 17.90625 41.90625 17.90625 38.71875 
C 17.90625 36.125 16.59375 32.828125 15.796875 30.640625 
L 8.796875 12.078125 
C 8.203125 10.484375 7.59375 8.875 7.59375 7.078125 
C 7.59375 2.59375 10.703125 -1 15.5 -1 
C 24.703125 -1 28.296875 13.578125 28.296875 14.265625 
z
M 27.5 62.703125 
C 27.5 64.203125 26.296875 66 24.09375 66 
C 21.796875 66 19.203125 63.796875 19.203125 61.203125 
C 19.203125 58.71875 21.296875 57.921875 22.5 57.921875 
C 25.203125 57.921875 27.5 60.515625 27.5 62.703125 
z
" id="CMMI12-105"/>
      </defs>
      <use transform="scale(0.996264)" xlink:href="#CMMI12-105"/>
     </g>
    </g>
   </g>
   <g id="matplotlib.axis_2">
    <g id="ytick_1">
     <g id="line2d_8">
      <defs>
       <path d="M 0 0 
L -3.5 0 
" id="me90c49f768" style="stroke:#000000;stroke-width:0.8;"/>
      </defs>
      <g>
       <use style="stroke:#000000;stroke-width:0.8;" x="48.682948" xlink:href="#me90c49f768" y="199.448434"/>
      </g>
     </g>
     <g id="text_9">
      <!-- $\mathdefault{10^{-3}}$ -->
      <g transform="translate(21.522375 202.907683)scale(0.1 -0.1)">
       <defs>
        <path d="M 65.90625 23 
C 67.59375 23 69.40625 23 69.40625 25 
C 69.40625 27 67.59375 27 65.90625 27 
L 11.796875 27 
C 10.09375 27 8.296875 27 8.296875 25 
C 8.296875 23 10.09375 23 11.796875 23 
z
" id="CMSY10-0"/>
       </defs>
       <use transform="scale(0.996264)" xlink:href="#CMR17-49"/>
       <use transform="translate(45.690477 0)scale(0.996264)" xlink:href="#CMR17-48"/>
       <use transform="translate(91.380954 36.153639)scale(0.697382)" xlink:href="#CMSY10-0"/>
       <use transform="translate(145.621947 36.153639)scale(0.697382)" xlink:href="#CMR17-51"/>
      </g>
     </g>
    </g>
    <g id="ytick_2">
     <g id="line2d_9">
      <g>
       <use style="stroke:#000000;stroke-width:0.8;" x="48.682948" xlink:href="#me90c49f768" y="139.581459"/>
      </g>
     </g>
     <g id="text_10">
      <!-- $\mathdefault{10^{-2}}$ -->
      <g transform="translate(21.522375 143.040708)scale(0.1 -0.1)">
       <use transform="scale(0.996264)" xlink:href="#CMR17-49"/>
       <use transform="translate(45.690477 0)scale(0.996264)" xlink:href="#CMR17-48"/>
       <use transform="translate(91.380954 36.153639)scale(0.697382)" xlink:href="#CMSY10-0"/>
       <use transform="translate(145.621947 36.153639)scale(0.697382)" xlink:href="#CMR17-50"/>
      </g>
     </g>
    </g>
    <g id="ytick_3">
     <g id="line2d_10">
      <g>
       <use style="stroke:#000000;stroke-width:0.8;" x="48.682948" xlink:href="#me90c49f768" y="79.714483"/>
      </g>
     </g>
     <g id="text_11">
      <!-- $\mathdefault{10^{-1}}$ -->
      <g transform="translate(21.522375 83.173733)scale(0.1 -0.1)">
       <use transform="scale(0.996264)" xlink:href="#CMR17-49"/>
       <use transform="translate(45.690477 0)scale(0.996264)" xlink:href="#CMR17-48"/>
       <use transform="translate(91.380954 36.153639)scale(0.697382)" xlink:href="#CMSY10-0"/>
       <use transform="translate(145.621947 36.153639)scale(0.697382)" xlink:href="#CMR17-49"/>
      </g>
     </g>
    </g>
    <g id="ytick_4">
     <g id="line2d_11">
      <g>
       <use style="stroke:#000000;stroke-width:0.8;" x="48.682948" xlink:href="#me90c49f768" y="19.847508"/>
      </g>
     </g>
     <g id="text_12">
      <!-- $\mathdefault{10^{0}}$ -->
      <g transform="translate(27.74904 23.306757)scale(0.1 -0.1)">
       <use transform="scale(0.996264)" xlink:href="#CMR17-49"/>
       <use transform="translate(45.690477 0)scale(0.996264)" xlink:href="#CMR17-48"/>
       <use transform="translate(91.380954 36.153639)scale(0.697382)" xlink:href="#CMR17-48"/>
      </g>
     </g>
    </g>
    <g id="ytick_5">
     <g id="line2d_12">
      <defs>
       <path d="M 0 0 
L -2 0 
" id="med1ff8679d" style="stroke:#000000;stroke-width:0.6;"/>
      </defs>
      <g>
       <use style="stroke:#000000;stroke-width:0.6;" x="48.682948" xlink:href="#med1ff8679d" y="223.271899"/>
      </g>
     </g>
    </g>
    <g id="ytick_6">
     <g id="line2d_13">
      <g>
       <use style="stroke:#000000;stroke-width:0.6;" x="48.682948" xlink:href="#med1ff8679d" y="217.470189"/>
      </g>
     </g>
    </g>
    <g id="ytick_7">
     <g id="line2d_14">
      <g>
       <use style="stroke:#000000;stroke-width:0.6;" x="48.682948" xlink:href="#med1ff8679d" y="212.729848"/>
      </g>
     </g>
    </g>
    <g id="ytick_8">
     <g id="line2d_15">
      <g>
       <use style="stroke:#000000;stroke-width:0.6;" x="48.682948" xlink:href="#med1ff8679d" y="208.721946"/>
      </g>
     </g>
    </g>
    <g id="ytick_9">
     <g id="line2d_16">
      <g>
       <use style="stroke:#000000;stroke-width:0.6;" x="48.682948" xlink:href="#med1ff8679d" y="205.250143"/>
      </g>
     </g>
    </g>
    <g id="ytick_10">
     <g id="line2d_17">
      <g>
       <use style="stroke:#000000;stroke-width:0.6;" x="48.682948" xlink:href="#med1ff8679d" y="202.187797"/>
      </g>
     </g>
    </g>
    <g id="ytick_11">
     <g id="line2d_18">
      <g>
       <use style="stroke:#000000;stroke-width:0.6;" x="48.682948" xlink:href="#med1ff8679d" y="181.426679"/>
      </g>
     </g>
    </g>
    <g id="ytick_12">
     <g id="line2d_19">
      <g>
       <use style="stroke:#000000;stroke-width:0.6;" x="48.682948" xlink:href="#med1ff8679d" y="170.884628"/>
      </g>
     </g>
    </g>
    <g id="ytick_13">
     <g id="line2d_20">
      <g>
       <use style="stroke:#000000;stroke-width:0.6;" x="48.682948" xlink:href="#med1ff8679d" y="163.404923"/>
      </g>
     </g>
    </g>
    <g id="ytick_14">
     <g id="line2d_21">
      <g>
       <use style="stroke:#000000;stroke-width:0.6;" x="48.682948" xlink:href="#med1ff8679d" y="157.603214"/>
      </g>
     </g>
    </g>
    <g id="ytick_15">
     <g id="line2d_22">
      <g>
       <use style="stroke:#000000;stroke-width:0.6;" x="48.682948" xlink:href="#med1ff8679d" y="152.862872"/>
      </g>
     </g>
    </g>
    <g id="ytick_16">
     <g id="line2d_23">
      <g>
       <use style="stroke:#000000;stroke-width:0.6;" x="48.682948" xlink:href="#med1ff8679d" y="148.854971"/>
      </g>
     </g>
    </g>
    <g id="ytick_17">
     <g id="line2d_24">
      <g>
       <use style="stroke:#000000;stroke-width:0.6;" x="48.682948" xlink:href="#med1ff8679d" y="145.383168"/>
      </g>
     </g>
    </g>
    <g id="ytick_18">
     <g id="line2d_25">
      <g>
       <use style="stroke:#000000;stroke-width:0.6;" x="48.682948" xlink:href="#med1ff8679d" y="142.320821"/>
      </g>
     </g>
    </g>
    <g id="ytick_19">
     <g id="line2d_26">
      <g>
       <use style="stroke:#000000;stroke-width:0.6;" x="48.682948" xlink:href="#med1ff8679d" y="121.559703"/>
      </g>
     </g>
    </g>
    <g id="ytick_20">
     <g id="line2d_27">
      <g>
       <use style="stroke:#000000;stroke-width:0.6;" x="48.682948" xlink:href="#med1ff8679d" y="111.017652"/>
      </g>
     </g>
    </g>
    <g id="ytick_21">
     <g id="line2d_28">
      <g>
       <use style="stroke:#000000;stroke-width:0.6;" x="48.682948" xlink:href="#med1ff8679d" y="103.537948"/>
      </g>
     </g>
    </g>
    <g id="ytick_22">
     <g id="line2d_29">
      <g>
       <use style="stroke:#000000;stroke-width:0.6;" x="48.682948" xlink:href="#med1ff8679d" y="97.736239"/>
      </g>
     </g>
    </g>
    <g id="ytick_23">
     <g id="line2d_30">
      <g>
       <use style="stroke:#000000;stroke-width:0.6;" x="48.682948" xlink:href="#med1ff8679d" y="92.995897"/>
      </g>
     </g>
    </g>
    <g id="ytick_24">
     <g id="line2d_31">
      <g>
       <use style="stroke:#000000;stroke-width:0.6;" x="48.682948" xlink:href="#med1ff8679d" y="88.987995"/>
      </g>
     </g>
    </g>
    <g id="ytick_25">
     <g id="line2d_32">
      <g>
       <use style="stroke:#000000;stroke-width:0.6;" x="48.682948" xlink:href="#med1ff8679d" y="85.516193"/>
      </g>
     </g>
    </g>
    <g id="ytick_26">
     <g id="line2d_33">
      <g>
       <use style="stroke:#000000;stroke-width:0.6;" x="48.682948" xlink:href="#med1ff8679d" y="82.453846"/>
      </g>
     </g>
    </g>
    <g id="ytick_27">
     <g id="line2d_34">
      <g>
       <use style="stroke:#000000;stroke-width:0.6;" x="48.682948" xlink:href="#med1ff8679d" y="61.692728"/>
      </g>
     </g>
    </g>
    <g id="ytick_28">
     <g id="line2d_35">
      <g>
       <use style="stroke:#000000;stroke-width:0.6;" x="48.682948" xlink:href="#med1ff8679d" y="51.150677"/>
      </g>
     </g>
    </g>
    <g id="ytick_29">
     <g id="line2d_36">
      <g>
       <use style="stroke:#000000;stroke-width:0.6;" x="48.682948" xlink:href="#med1ff8679d" y="43.670973"/>
      </g>
     </g>
    </g>
    <g id="ytick_30">
     <g id="line2d_37">
      <g>
       <use style="stroke:#000000;stroke-width:0.6;" x="48.682948" xlink:href="#med1ff8679d" y="37.869264"/>
      </g>
     </g>
    </g>
    <g id="ytick_31">
     <g id="line2d_38">
      <g>
       <use style="stroke:#000000;stroke-width:0.6;" x="48.682948" xlink:href="#med1ff8679d" y="33.128922"/>
      </g>
     </g>
    </g>
    <g id="ytick_32">
     <g id="line2d_39">
      <g>
       <use style="stroke:#000000;stroke-width:0.6;" x="48.682948" xlink:href="#med1ff8679d" y="29.12102"/>
      </g>
     </g>
    </g>
    <g id="ytick_33">
     <g id="line2d_40">
      <g>
       <use style="stroke:#000000;stroke-width:0.6;" x="48.682948" xlink:href="#med1ff8679d" y="25.649218"/>
      </g>
     </g>
    </g>
    <g id="ytick_34">
     <g id="line2d_41">
      <g>
       <use style="stroke:#000000;stroke-width:0.6;" x="48.682948" xlink:href="#med1ff8679d" y="22.586871"/>
      </g>
     </g>
    </g>
    <g id="text_13">
     <!-- $\sigma_{i,rel}$ in $\%$ -->
     <g transform="translate(14.67198 137.970216)rotate(-90)scale(0.1 -0.1)">
      <defs>
       <path d="M 50.796875 37.625 
C 52.09375 37.625 55.40625 37.625 55.40625 40.8125 
C 55.40625 43 53.5 43 51.703125 43 
L 29.59375 43 
C 14.59375 43 3.796875 26.34375 3.796875 14.5625 
C 3.796875 6.09375 9.296875 -1 18.296875 -1 
C 30.09375 -1 43 11.671875 43 26.640625 
C 43 30.53125 42.09375 34.3125 39.703125 37.625 
z
M 18.40625 1 
C 13.296875 1 9.59375 4.890625 9.59375 11.78125 
C 9.59375 17.765625 13.203125 37.625 27.90625 37.625 
C 32.203125 37.625 37 35.53125 37 27.828125 
C 37 24.34375 35.40625 15.953125 31.90625 10.1875 
C 28.296875 4.296875 22.90625 1 18.40625 1 
z
" id="CMMI12-27"/>
       <path d="M 19.5 -0.484375 
C 19.5 5.359375 17.59375 9.671875 13.5 9.671875 
C 10.296875 9.671875 8.703125 7.078125 8.703125 4.890625 
C 8.703125 2.6875 10.203125 0 13.59375 0 
C 14.90625 0 16 0.40625 16.90625 1.296875 
C 17.09375 1.5 17.203125 1.5 17.296875 1.5 
C 17.5 1.5 17.5 0.078125 17.5 -0.421875 
C 17.5 -3.75 16.90625 -10.296875 11.09375 -16.875 
C 10 -18.078125 10 -18.28125 10 -18.484375 
C 10 -19 10.5 -19.5 11 -19.5 
C 11.796875 -19.5 19.5 -12.046875 19.5 -0.484375 
z
" id="CMMI12-59"/>
       <path d="M 38.90625 40.8125 
C 35.796875 40.21875 34.203125 38.015625 34.203125 35.828125 
C 34.203125 33.421875 36.09375 32.625 37.5 32.625 
C 40.296875 32.625 42.59375 35.03125 42.59375 38.015625 
C 42.59375 41.21875 39.5 44 34.5 44 
C 30.5 44 25.90625 42.203125 21.703125 36.125 
C 21 41.40625 17 44 13 44 
C 9.09375 44 7.09375 41.015625 5.90625 38.8125 
C 4.203125 35.21875 2.703125 29.234375 2.703125 28.734375 
C 2.703125 28.34375 3.09375 27.84375 3.796875 27.84375 
C 4.59375 27.84375 4.703125 27.9375 5.296875 30.234375 
C 6.796875 36.21875 8.703125 42.015625 12.703125 42.015625 
C 15.09375 42.015625 15.796875 40.3125 15.796875 37.421875 
C 15.796875 35.21875 14.796875 31.328125 14.09375 28.234375 
L 11.296875 17.46875 
C 10.90625 15.5625 9.796875 11.078125 9.296875 9.28125 
C 8.59375 6.6875 7.5 2 7.5 1.5 
C 7.5 0.09375 8.59375 -1 10.09375 -1 
C 11.203125 -1 13.09375 -0.296875 13.703125 1.703125 
C 14 2.5 17.703125 17.5625 18.296875 19.859375 
C 18.796875 22.046875 19.40625 24.15625 19.90625 26.34375 
C 20.296875 27.734375 20.703125 29.34375 21 30.640625 
C 21.296875 31.53125 24 36.421875 26.5 38.625 
C 27.703125 39.71875 30.296875 42.015625 34.40625 42.015625 
C 36 42.015625 37.59375 41.71875 38.90625 40.8125 
z
" id="CMMI12-114"/>
       <path d="M 17.90625 23.109375 
C 20.59375 23.109375 27.40625 23.109375 32.203125 24.921875 
C 39.796875 27.859375 40.5 33.71875 40.5 35.53125 
C 40.5 39.96875 36.703125 44 30.09375 44 
C 19.59375 44 4.5 34.53125 4.5 16.765625 
C 4.5 6.28125 10.5 -1 19.59375 -1 
C 33.203125 -1 41.796875 9.515625 41.796875 10.8125 
C 41.796875 11.40625 41.203125 11.90625 40.796875 11.90625 
C 40.5 11.90625 40.40625 11.8125 39.5 10.921875 
C 33.09375 2.484375 23.59375 1 19.796875 1 
C 14.09375 1 11.09375 5.46875 11.09375 12.84375 
C 11.09375 14.234375 11.09375 16.734375 12.59375 23.109375 
z
M 13.09375 25 
C 17.40625 40.5 26.90625 42.015625 30.09375 42.015625 
C 34.5 42.015625 37.5 39.40625 37.5 35.578125 
C 37.5 25 21.5 25 17.296875 25 
z
" id="CMMI12-101"/>
       <path d="M 25.40625 66.515625 
C 25.5 66.90625 25.703125 67.5 25.703125 68 
C 25.703125 69 24.703125 69 24.5 69 
C 24.40625 69 20.796875 68.640625 19 68.390625 
C 17.296875 68.390625 15.796875 68.09375 14 68.09375 
C 11.59375 67.890625 10.90625 67.796875 10.90625 66 
C 10.90625 65 11.90625 65 12.90625 65 
C 18 65 18 64.09375 18 63.109375 
C 18 62.71875 18 62.515625 17.5 60.734375 
L 5.09375 11.421875 
C 4.796875 10.328125 4.59375 9.53125 4.59375 7.953125 
C 4.59375 2.984375 8.296875 -1 13.40625 -1 
C 16.703125 -1 18.90625 1.1875 20.5 4.28125 
C 22.203125 7.546875 23.59375 13.8125 23.59375 14.203125 
C 23.59375 14.703125 23.203125 15.109375 22.59375 15.109375 
C 21.703125 15.109375 21.59375 14.609375 21.203125 13.125 
C 19.40625 6.265625 17.59375 1 13.59375 1 
C 10.59375 1 10.59375 4.171875 10.59375 5.578125 
C 10.59375 5.96875 10.59375 8.046875 11.296875 10.84375 
z
" id="CMMI12-108"/>
       <path d="M 15.296875 65.359375 
L 6.90625 65.359375 
L 6.90625 57 
L 15.296875 57 
z
M 14.796875 42.796875 
L 7.40625 42.796875 
L 7.40625 0 
L 14.796875 0 
z
" id="CMSS17-105"/>
       <path d="M 40.90625 29.328125 
C 40.90625 35.671875 39.40625 44 28.09375 44 
C 21.703125 44 17.5 40.71875 14.703125 37.328125 
L 14.703125 43.09375 
L 7.40625 43.09375 
L 7.40625 0 
L 15 0 
L 15 24.359375 
C 15 30.6875 17.40625 37.9375 24.203125 37.9375 
C 33 37.9375 33.296875 32 33.296875 28.578125 
L 33.296875 0 
L 40.90625 0 
z
" id="CMSS17-110"/>
       <path d="M 72.5 14.984375 
C 72.5 26.53125 66.796875 35 60.09375 35 
C 53.296875 35 46.40625 27.125 46.40625 14.984375 
C 46.40625 2.859375 53.203125 -5 60.09375 -5 
C 66.796875 -5 72.5 3.359375 72.5 14.984375 
z
M 60.203125 -3.40625 
C 57.59375 -3.40625 51.09375 -1.03125 51.09375 14.984375 
C 51.09375 31.109375 57.59375 33.40625 60.203125 33.40625 
C 65.703125 33.40625 70.703125 25.53125 70.703125 14.984375 
C 70.703125 4.453125 65.703125 -3.40625 60.203125 -3.40625 
z
M 63.796875 71.515625 
C 64.5 72.609375 64.59375 72.703125 64.59375 73.203125 
C 64.59375 74.390625 63.703125 75 62.90625 75 
C 61.90625 75 61.5 74.3125 60.796875 73.53125 
C 55 65.46875 47 64.59375 42.90625 64.59375 
C 32.90625 64.59375 26.796875 70.21875 24.90625 71.984375 
C 23.59375 73.15625 21.703125 75 18.296875 75 
C 11.5 75 4.59375 67.125 4.59375 54.984375 
C 4.59375 42.859375 11.40625 35 18.296875 35 
C 25 35 30.703125 43.40625 30.703125 55.109375 
C 30.703125 62.015625 28.59375 66.71875 28.296875 67.3125 
C 34.40625 63.5 40.40625 63 43 63 
C 49.40625 63 54 65.359375 56.5 67.015625 
L 56.59375 66.921875 
L 13.40625 -1.3125 
C 12.5 -2.71875 12.5 -2.921875 12.5 -3.21875 
C 12.5 -4.3125 13.40625 -5 14.296875 -5 
C 15.203125 -5 15.5 -4.515625 16.203125 -3.40625 
z
M 18.40625 36.59375 
C 15.796875 36.59375 9.296875 38.96875 9.296875 54.984375 
C 9.296875 71.109375 15.796875 73.40625 18.40625 73.40625 
C 23.90625 73.40625 28.90625 65.53125 28.90625 54.984375 
C 28.90625 44.453125 23.90625 36.59375 18.40625 36.59375 
z
" id="CMR17-37"/>
      </defs>
      <use transform="scale(0.996264)" xlink:href="#CMMI12-27"/>
      <use transform="translate(55.445461 -14.943915)scale(0.697382)" xlink:href="#CMMI12-105"/>
      <use transform="translate(78.740368 -14.943915)scale(0.697382)" xlink:href="#CMMI12-59"/>
      <use transform="translate(97.708301 -14.943915)scale(0.697382)" xlink:href="#CMMI12-114"/>
      <use transform="translate(130.37757 -14.943915)scale(0.697382)" xlink:href="#CMMI12-101"/>
      <use transform="translate(162.025826 -14.943915)scale(0.697382)" xlink:href="#CMMI12-108"/>
      <use transform="translate(215.626855 0)scale(0.996264)" xlink:href="#CMSS17-105"/>
      <use transform="translate(237.807578 0)scale(0.996264)" xlink:href="#CMSS17-110"/>
      <use transform="translate(317.241634 0)scale(0.996264)" xlink:href="#CMR17-37"/>
     </g>
    </g>
   </g>
   <g id="line2d_42">
    <path clip-path="url(#pe0ebd6ae4e)" d="M 49.175301 17.083636 
L 49.667654 25.996954 
L 50.160007 41.843785 
L 50.65236 44.580066 
L 51.144713 49.217085 
L 51.637066 56.185441 
L 52.129419 56.404595 
L 52.621772 58.536786 
L 53.114125 59.923182 
L 53.606478 62.472732 
L 54.098831 63.509908 
L 54.591184 66.22546 
L 55.083537 68.208512 
L 55.57589 69.282881 
L 56.068243 70.069612 
L 56.560596 71.145121 
L 57.052948 71.864545 
L 57.545301 72.116269 
L 58.037654 73.655478 
L 58.530007 74.158789 
L 59.514713 76.677345 
L 60.007066 77.022212 
L 60.499419 77.573023 
L 60.991772 78.652008 
L 61.484125 79.283733 
L 61.976478 80.183277 
L 62.468831 80.340906 
L 62.961184 80.793182 
L 63.453537 81.646789 
L 63.94589 81.999482 
L 64.930596 83.189023 
L 65.422948 83.354687 
L 67.39236 86.196297 
L 67.884713 86.741854 
L 69.361772 87.477055 
L 69.854125 88.277202 
L 70.346478 88.398631 
L 70.838831 88.705106 
L 73.792948 92.085667 
L 74.285301 92.323299 
L 76.254713 94.233897 
L 76.747066 94.542722 
L 77.239419 95.052759 
L 77.731772 95.105145 
L 78.224125 95.68711 
L 80.193537 96.681303 
L 80.68589 97.15608 
L 81.178243 97.421557 
L 81.670596 98.583231 
L 83.147654 99.368908 
L 83.640007 99.916283 
L 84.13236 100.273547 
L 84.624713 100.418659 
L 86.594125 101.875524 
L 87.086478 102.013955 
L 88.071184 103.225211 
L 90.040596 104.190045 
L 90.532948 104.650566 
L 91.517654 105.020908 
L 92.010007 105.700497 
L 92.50236 105.867996 
L 92.994713 106.315388 
L 93.487066 106.374417 
L 93.979419 106.702286 
L 94.471772 106.874996 
L 94.964125 106.887949 
L 95.456478 107.080489 
L 96.441184 108.304104 
L 97.918243 108.832336 
L 98.410596 109.330792 
L 98.902948 109.397417 
L 99.395301 109.698998 
L 99.887654 109.762781 
L 100.380007 110.25016 
L 100.87236 110.358581 
L 102.349419 111.176557 
L 102.841772 111.257491 
L 103.334125 111.949418 
L 103.826478 112.035918 
L 104.318831 112.469269 
L 104.811184 112.570461 
L 105.303537 112.931899 
L 105.79589 113.47044 
L 106.288243 113.54987 
L 107.272948 114.190246 
L 107.765301 114.364637 
L 108.750007 115.158872 
L 109.24236 115.220426 
L 111.704125 116.455194 
L 112.196478 116.534848 
L 114.16589 117.57399 
L 114.658243 118.087033 
L 115.150596 118.173172 
L 115.642948 118.40025 
L 116.135301 118.805016 
L 116.627654 118.914068 
L 117.120007 119.246455 
L 118.104713 119.669689 
L 118.597066 119.987964 
L 119.089419 120.093002 
L 119.581772 120.361597 
L 120.074125 120.478502 
L 120.566478 120.7639 
L 121.551184 120.983575 
L 122.043537 121.282766 
L 122.53589 121.320591 
L 123.028243 122.084361 
L 123.520596 122.196587 
L 124.505301 122.81029 
L 124.997654 122.897495 
L 125.490007 123.369563 
L 126.967066 123.725005 
L 127.951772 124.300905 
L 128.936478 124.911184 
L 129.428831 124.934357 
L 129.921184 125.257842 
L 130.413537 125.277161 
L 130.90589 125.766701 
L 134.35236 126.970033 
L 135.337066 127.655456 
L 135.829419 127.798039 
L 136.321772 128.136238 
L 137.306478 128.307582 
L 138.783537 129.164055 
L 139.27589 129.345078 
L 139.768243 129.759346 
L 140.260596 129.849406 
L 141.245301 130.23896 
L 141.737654 130.259816 
L 143.707066 131.378365 
L 144.691772 131.697274 
L 145.676478 132.180279 
L 146.168831 132.277785 
L 146.661184 132.813439 
L 147.64589 133.085313 
L 148.630596 133.646087 
L 149.615301 133.884848 
L 150.600007 134.638026 
L 151.09236 134.661788 
L 151.584713 134.909562 
L 152.077066 135.300403 
L 153.061772 135.619138 
L 153.554125 135.883087 
L 154.046478 135.970019 
L 154.538831 136.293234 
L 156.01589 136.649335 
L 156.508243 137.054979 
L 157.000596 137.155047 
L 158.477654 137.863034 
L 158.970007 138.10479 
L 159.46236 138.208078 
L 159.954713 138.659195 
L 161.924125 139.34 
L 162.416478 139.431565 
L 162.908831 139.636627 
L 163.401184 140.065232 
L 164.38589 140.435362 
L 168.817066 142.34319 
L 169.309419 142.396678 
L 169.801772 142.732869 
L 171.278831 143.276683 
L 172.263537 143.576051 
L 172.75589 143.622687 
L 174.232948 144.374717 
L 175.710007 145.011033 
L 176.694713 145.547321 
L 178.171772 145.959472 
L 178.664125 145.972535 
L 179.156478 146.279781 
L 180.633537 146.722761 
L 181.12589 146.874611 
L 181.618243 147.314401 
L 186.049419 148.843649 
L 186.541772 148.953082 
L 187.034125 149.203164 
L 188.018831 149.374397 
L 188.511184 149.709962 
L 189.988243 150.161416 
L 190.480596 150.643357 
L 191.957654 151.033159 
L 193.927066 151.846941 
L 194.419419 151.911699 
L 194.911772 152.128292 
L 195.404125 152.156007 
L 195.896478 152.455332 
L 196.388831 152.496445 
L 196.881184 152.927856 
L 197.86589 153.015689 
L 199.342948 153.840007 
L 200.820007 154.058684 
L 201.31236 154.184186 
L 201.804713 154.698168 
L 202.297066 154.902724 
L 202.789419 154.94214 
L 203.281772 155.261789 
L 203.774125 155.31729 
L 204.266478 155.486238 
L 205.251184 156.216931 
L 205.743537 156.252509 
L 206.728243 156.612758 
L 207.712948 156.688712 
L 208.697654 156.995128 
L 209.68236 157.239312 
L 210.174713 157.691441 
L 211.159419 157.759773 
L 211.651772 158.164037 
L 212.636478 158.322078 
L 213.621184 158.606053 
L 214.113537 158.62433 
L 214.60589 159.133388 
L 216.082948 159.533338 
L 216.575301 159.71214 
L 217.560007 159.853029 
L 218.05236 160.25785 
L 218.544713 160.340816 
L 219.037066 160.544888 
L 219.529419 160.612967 
L 220.021772 160.953637 
L 221.006478 161.124441 
L 221.498831 161.440312 
L 221.991184 161.527882 
L 222.483537 161.757164 
L 224.452948 162.161932 
L 224.945301 162.545696 
L 226.914713 162.943619 
L 227.407066 163.154461 
L 228.391772 163.25339 
L 228.884125 163.544696 
L 229.868831 163.690913 
L 230.361184 164.146553 
L 231.34589 164.264936 
L 232.330596 164.341325 
L 232.822948 164.996215 
L 233.315301 165.06195 
L 233.807654 165.282437 
L 235.777066 165.571012 
L 236.269419 166.107334 
L 237.254125 166.39449 
L 237.746478 166.424939 
L 238.238831 166.597221 
L 238.731184 166.962263 
L 239.71589 167.177247 
L 240.208243 167.471967 
L 240.700596 167.555368 
L 241.192948 167.835214 
L 242.177654 167.92015 
L 248.578243 169.687544 
L 249.070596 170.108891 
L 249.562948 170.187082 
L 250.547654 170.506036 
L 251.53236 170.641114 
L 252.024713 170.873195 
L 253.009419 170.918723 
L 253.501772 171.214911 
L 253.994125 171.29801 
L 254.486478 171.597229 
L 255.471184 171.689027 
L 256.948243 172.235076 
L 259.410007 173.139235 
L 260.394713 173.250883 
L 261.871772 173.775455 
L 263.348831 174.081368 
L 263.841184 174.683899 
L 264.82589 174.763504 
L 265.810596 175.197418 
L 267.287654 175.47192 
L 267.780007 175.822428 
L 269.749419 176.041171 
L 270.241772 176.392844 
L 273.688243 177.284329 
L 274.672948 177.484114 
L 275.165301 177.715404 
L 277.134713 178.076882 
L 279.104125 178.696555 
L 281.56589 179.158341 
L 282.550596 179.62234 
L 283.042948 179.722191 
L 283.535301 179.982968 
L 286.489419 180.785766 
L 287.474125 181.081056 
L 287.966478 181.581638 
L 288.951184 181.766214 
L 289.443537 181.838619 
L 290.428243 182.10624 
L 290.920596 182.163004 
L 291.905301 182.583468 
L 293.38236 182.715115 
L 293.874713 182.813941 
L 294.367066 183.072757 
L 294.859419 183.158942 
L 296.336478 183.698093 
L 298.30589 183.994118 
L 298.798243 184.297386 
L 300.767654 184.811444 
L 302.244713 185.404909 
L 304.214125 185.941967 
L 305.691184 186.469656 
L 306.67589 186.7442 
L 309.630007 187.311026 
L 310.12236 187.681204 
L 311.107066 187.945851 
L 312.091772 188.097686 
L 314.061184 188.836695 
L 315.04589 188.94514 
L 316.030596 189.300972 
L 316.522948 189.34292 
L 317.015301 189.561759 
L 318.000007 189.796652 
L 318.49236 190.064151 
L 319.477066 190.21799 
L 319.969419 190.512262 
L 320.954125 190.684811 
L 323.41589 191.850803 
L 323.908243 191.889299 
L 324.892948 192.415013 
L 325.877654 192.524823 
L 326.86236 192.606132 
L 327.847066 192.870618 
L 329.324125 193.438829 
L 333.262948 194.599134 
L 334.247654 195.003084 
L 335.724713 195.344162 
L 336.709419 195.850665 
L 337.201772 195.956572 
L 337.694125 196.202214 
L 338.678831 196.30382 
L 339.663537 196.646508 
L 341.632948 197.343274 
L 343.60236 197.937026 
L 345.571772 198.405982 
L 346.064125 198.672327 
L 347.541184 199.0776 
L 348.033537 199.356671 
L 348.52589 199.415422 
L 351.480007 200.551146 
L 352.957066 200.978957 
L 353.449419 201.083618 
L 353.941772 201.464282 
L 359.357654 203.09611 
L 359.850007 203.387811 
L 360.834713 203.605036 
L 361.327066 203.855426 
L 362.311772 204.021563 
L 362.804125 204.458294 
L 363.296478 204.482292 
L 365.26589 205.651421 
L 365.758243 205.842703 
L 366.250596 205.85777 
L 366.742948 206.014258 
L 367.235301 206.323283 
L 368.220007 206.638584 
L 368.71236 206.812448 
L 369.697066 207.399799 
L 370.681772 207.759121 
L 371.174125 207.878592 
L 371.666478 208.327149 
L 374.128243 209.231558 
L 376.097654 210.657117 
L 376.590007 210.976933 
L 378.067066 211.419382 
L 378.559419 211.594418 
L 379.051772 212.063542 
L 380.036478 212.45433 
L 381.021184 213.442366 
L 381.513537 213.716278 
L 382.00589 214.291612 
L 382.498243 214.38363 
L 382.990596 214.756364 
L 382.990596 214.756364 
" style="fill:none;stroke:#1f77b4;stroke-linecap:square;stroke-width:1.5;"/>
   </g>
   <g id="line2d_43">
    <path clip-path="url(#pe0ebd6ae4e)" d="M 190.972948 224.64 
L 190.972948 7.2 
" style="fill:none;stroke:#000000;stroke-dasharray:5.55,2.4;stroke-dashoffset:0;stroke-width:1.5;"/>
   </g>
   <g id="patch_3">
    <path d="M 48.682948 224.64 
L 48.682948 7.2 
" style="fill:none;stroke:#000000;stroke-linecap:square;stroke-linejoin:miter;stroke-width:0.8;"/>
   </g>
   <g id="patch_4">
    <path d="M 383.482948 224.64 
L 383.482948 7.2 
" style="fill:none;stroke:#000000;stroke-linecap:square;stroke-linejoin:miter;stroke-width:0.8;"/>
   </g>
   <g id="patch_5">
    <path d="M 48.682948 224.64 
L 383.482948 224.64 
" style="fill:none;stroke:#000000;stroke-linecap:square;stroke-linejoin:miter;stroke-width:0.8;"/>
   </g>
   <g id="patch_6">
    <path d="M 48.682948 7.2 
L 383.482948 7.2 
" style="fill:none;stroke:#000000;stroke-linecap:square;stroke-linejoin:miter;stroke-width:0.8;"/>
   </g>
  </g>
 </g>
 <defs>
  <clipPath id="pe0ebd6ae4e">
   <rect height="217.44" width="334.8" x="48.682948" y="7.2"/>
  </clipPath>
 </defs>
</svg>
