<?xml version="1.0" encoding="utf-8" standalone="no"?>
<!DOCTYPE svg PUBLIC "-//W3C//DTD SVG 1.1//EN"
  "http://www.w3.org/Graphics/SVG/1.1/DTD/svg11.dtd">
<!-- Created with matplotlib (https://matplotlib.org/) -->
<svg height="206.191353pt" version="1.1" viewBox="0 0 310.815835 206.191353" width="310.815835pt" xmlns="http://www.w3.org/2000/svg" xmlns:xlink="http://www.w3.org/1999/xlink">
 <metadata>
  <rdf:RDF xmlns:cc="http://creativecommons.org/ns#" xmlns:dc="http://purl.org/dc/elements/1.1/" xmlns:rdf="http://www.w3.org/1999/02/22-rdf-syntax-ns#">
   <cc:Work>
    <dc:type rdf:resource="http://purl.org/dc/dcmitype/StillImage"/>
    <dc:date>2022-03-30T10:04:48.206352</dc:date>
    <dc:format>image/svg+xml</dc:format>
    <dc:creator>
     <cc:Agent>
      <dc:title>Matplotlib v3.3.3, https://matplotlib.org/</dc:title>
     </cc:Agent>
    </dc:creator>
   </cc:Work>
  </rdf:RDF>
 </metadata>
 <defs>
  <style type="text/css">*{stroke-linecap:butt;stroke-linejoin:round;}</style>
 </defs>
 <g id="figure_1">
  <g id="patch_1">
   <path d="M -0 206.191353 
L 310.815835 206.191353 
L 310.815835 0 
L -0 0 
z
" style="fill:none;"/>
  </g>
  <g id="axes_1">
   <g id="patch_2">
    <path d="M 52.515835 170.28 
L 303.615835 170.28 
L 303.615835 7.2 
L 52.515835 7.2 
z
" style="fill:#ffffff;"/>
   </g>
   <g id="matplotlib.axis_1">
    <g id="xtick_1">
     <g id="line2d_1">
      <defs>
       <path d="M 0 0 
L 0 3.5 
" id="m96280cdbca" style="stroke:#000000;stroke-width:0.8;"/>
      </defs>
      <g>
       <use style="stroke:#000000;stroke-width:0.8;" x="52.515835" xlink:href="#m96280cdbca" y="170.28"/>
      </g>
     </g>
     <g id="text_1">
      <!-- $\mathdefault{0}$ -->
      <g transform="translate(50.025167 184.198498)scale(0.1 -0.1)">
       <defs>
        <path d="M 42 31.640625 
C 42 37.75 41.90625 48.125 37.703125 56.109375 
C 34 63.109375 28.09375 65.59375 22.90625 65.59375 
C 18.09375 65.59375 12 63.40625 8.203125 56.203125 
C 4.203125 48.71875 3.796875 39.4375 3.796875 31.640625 
C 3.796875 25.953125 3.90625 17.28125 7 9.671875 
C 11.296875 -0.609375 19 -2 22.90625 -2 
C 27.5 -2 34.5 -0.109375 38.59375 9.375 
C 41.59375 16.28125 42 24.359375 42 31.640625 
z
M 22.90625 -0.40625 
C 16.5 -0.40625 12.703125 5.078125 11.296875 12.6875 
C 10.203125 18.5625 10.203125 27.15625 10.203125 32.75 
C 10.203125 40.4375 10.203125 46.828125 11.5 52.921875 
C 13.40625 61.390625 19 64 22.90625 64 
C 27 64 32.296875 61.296875 34.203125 53.125 
C 35.5 47.4375 35.59375 40.734375 35.59375 32.75 
C 35.59375 26.25 35.59375 18.265625 34.40625 12.375 
C 32.296875 1.484375 26.40625 -0.40625 22.90625 -0.40625 
z
" id="CMR17-48"/>
       </defs>
       <use transform="scale(0.996264)" xlink:href="#CMR17-48"/>
      </g>
     </g>
    </g>
    <g id="xtick_2">
     <g id="line2d_2">
      <g>
       <use style="stroke:#000000;stroke-width:0.8;" x="84.700924" xlink:href="#m96280cdbca" y="170.28"/>
      </g>
     </g>
     <g id="text_2">
      <!-- $\mathdefault{5}$ -->
      <g transform="translate(82.210256 184.198498)scale(0.1 -0.1)">
       <defs>
        <path d="M 11.40625 57.6875 
C 12.40625 57.28125 16.5 56 20.703125 56 
C 30 56 35.09375 61.109375 38 64.0625 
C 38 64.953125 38 65.5 37.40625 65.5 
C 37.296875 65.5 37.09375 65.5 36.296875 65.046875 
C 32.796875 63.40625 28.703125 62.078125 23.703125 62.078125 
C 20.703125 62.078125 16.203125 62.484375 11.296875 64.671875 
C 10.203125 65.171875 10 65.171875 9.90625 65.171875 
C 9.40625 65.171875 9.296875 65.0625 9.296875 63.078125 
L 9.296875 34.421875 
C 9.296875 32.640625 9.296875 32.140625 10.296875 32.140625 
C 10.796875 32.140625 11 32.34375 11.5 33.03125 
C 14.703125 37.515625 19.09375 39.40625 24.09375 39.40625 
C 27.59375 39.40625 35.09375 37.21875 35.09375 20.140625 
C 35.09375 16.953125 35.09375 11.171875 32.09375 6.578125 
C 29.59375 2.484375 25.703125 0.390625 21.40625 0.390625 
C 14.796875 0.390625 8.09375 5 6.296875 12.71875 
C 6.703125 12.609375 7.5 12.421875 7.90625 12.421875 
C 9.203125 12.421875 11.703125 13.125 11.703125 16.21875 
C 11.703125 18.90625 9.796875 20 7.90625 20 
C 5.59375 20 4.09375 18.59375 4.09375 15.796875 
C 4.09375 7.09375 11 -2 21.59375 -2 
C 31.90625 -2 41.703125 6.875 41.703125 19.75 
C 41.703125 31.71875 33.90625 41 24.203125 41 
C 19.09375 41 14.796875 39.109375 11.40625 35.53125 
z
" id="CMR17-53"/>
       </defs>
       <use transform="scale(0.996264)" xlink:href="#CMR17-53"/>
      </g>
     </g>
    </g>
    <g id="xtick_3">
     <g id="line2d_3">
      <g>
       <use style="stroke:#000000;stroke-width:0.8;" x="116.886013" xlink:href="#m96280cdbca" y="170.28"/>
      </g>
     </g>
     <g id="text_3">
      <!-- $\mathdefault{10}$ -->
      <g transform="translate(111.904678 184.198498)scale(0.1 -0.1)">
       <defs>
        <path d="M 26.59375 63.40625 
C 26.59375 65.5 26.5 65.5 25.09375 65.5 
C 21.203125 61.1875 15.296875 59.796875 9.703125 59.796875 
C 9.40625 59.796875 8.90625 59.796875 8.796875 59.5 
C 8.703125 59.296875 8.703125 59.09375 8.703125 57 
C 11.796875 57 17 57.59375 21 59.984375 
L 21 7.203125 
C 21 3.6875 20.796875 2.5 12.203125 2.5 
L 9.203125 2.5 
L 9.203125 0 
C 14 0 19 0 23.796875 0 
C 28.59375 0 33.59375 0 38.40625 0 
L 38.40625 2.5 
L 35.40625 2.5 
C 26.796875 2.5 26.59375 3.59375 26.59375 7.15625 
z
" id="CMR17-49"/>
       </defs>
       <use transform="scale(0.996264)" xlink:href="#CMR17-49"/>
       <use transform="translate(45.690477 0)scale(0.996264)" xlink:href="#CMR17-48"/>
      </g>
     </g>
    </g>
    <g id="xtick_4">
     <g id="line2d_4">
      <g>
       <use style="stroke:#000000;stroke-width:0.8;" x="149.071102" xlink:href="#m96280cdbca" y="170.28"/>
      </g>
     </g>
     <g id="text_4">
      <!-- $\mathdefault{15}$ -->
      <g transform="translate(144.089767 184.198498)scale(0.1 -0.1)">
       <use transform="scale(0.996264)" xlink:href="#CMR17-49"/>
       <use transform="translate(45.690477 0)scale(0.996264)" xlink:href="#CMR17-53"/>
      </g>
     </g>
    </g>
    <g id="xtick_5">
     <g id="line2d_5">
      <g>
       <use style="stroke:#000000;stroke-width:0.8;" x="181.256191" xlink:href="#m96280cdbca" y="170.28"/>
      </g>
     </g>
     <g id="text_5">
      <!-- $\mathdefault{20}$ -->
      <g transform="translate(176.274856 184.198498)scale(0.1 -0.1)">
       <defs>
        <path d="M 41.703125 15.453125 
L 39.90625 15.453125 
C 38.90625 8.375 38.09375 7.171875 37.703125 6.5625 
C 37.203125 5.765625 30 5.765625 28.59375 5.765625 
L 9.40625 5.765625 
C 13 9.671875 20 16.75 28.5 24.953125 
C 34.59375 30.734375 41.703125 37.53125 41.703125 47.421875 
C 41.703125 59.21875 32.296875 66 21.796875 66 
C 10.796875 66 4.09375 56.3125 4.09375 47.34375 
C 4.09375 43.4375 7 42.9375 8.203125 42.9375 
C 9.203125 42.9375 12.203125 43.546875 12.203125 47.03125 
C 12.203125 50.109375 9.59375 51 8.203125 51 
C 7.59375 51 7 50.90625 6.59375 50.703125 
C 8.5 59.21875 14.296875 63.40625 20.40625 63.40625 
C 29.09375 63.40625 34.796875 56.515625 34.796875 47.421875 
C 34.796875 38.734375 29.703125 31.25 24 24.75 
L 4.09375 2.28125 
L 4.09375 0 
L 39.296875 0 
z
" id="CMR17-50"/>
       </defs>
       <use transform="scale(0.996264)" xlink:href="#CMR17-50"/>
       <use transform="translate(45.690477 0)scale(0.996264)" xlink:href="#CMR17-48"/>
      </g>
     </g>
    </g>
    <g id="xtick_6">
     <g id="line2d_6">
      <g>
       <use style="stroke:#000000;stroke-width:0.8;" x="213.44128" xlink:href="#m96280cdbca" y="170.28"/>
      </g>
     </g>
     <g id="text_6">
      <!-- $\mathdefault{25}$ -->
      <g transform="translate(208.459945 184.198498)scale(0.1 -0.1)">
       <use transform="scale(0.996264)" xlink:href="#CMR17-50"/>
       <use transform="translate(45.690477 0)scale(0.996264)" xlink:href="#CMR17-53"/>
      </g>
     </g>
    </g>
    <g id="xtick_7">
     <g id="line2d_7">
      <g>
       <use style="stroke:#000000;stroke-width:0.8;" x="245.626369" xlink:href="#m96280cdbca" y="170.28"/>
      </g>
     </g>
     <g id="text_7">
      <!-- $\mathdefault{30}$ -->
      <g transform="translate(240.645034 184.198498)scale(0.1 -0.1)">
       <defs>
        <path d="M 22.09375 33.703125 
C 31 33.703125 34.90625 25.96875 34.90625 17.03125 
C 34.90625 5 28.5 0.390625 22.703125 0.390625 
C 17.40625 0.390625 8.796875 3.03125 6.09375 10.828125 
C 6.59375 10.625 7.09375 10.625 7.59375 10.625 
C 10 10.625 11.796875 12.21875 11.796875 14.8125 
C 11.796875 17.703125 9.59375 19 7.59375 19 
C 5.90625 19 3.296875 18.203125 3.296875 14.46875 
C 3.296875 5.234375 12.296875 -2 22.90625 -2 
C 34 -2 42.5 6.71875 42.5 16.953125 
C 42.5 26.671875 34.5 33.703125 25 34.796875 
C 32.59375 36.375 39.90625 43.0625 39.90625 52.015625 
C 39.90625 59.6875 32 65.296875 23 65.296875 
C 13.90625 65.296875 5.90625 59.828125 5.90625 52.015625 
C 5.90625 48.59375 8.5 48 9.796875 48 
C 11.90625 48 13.703125 49.296875 13.703125 51.890625 
C 13.703125 54.46875 11.90625 55.765625 9.796875 55.765625 
C 9.40625 55.765625 8.90625 55.765625 8.5 55.578125 
C 11.40625 61.859375 19.296875 63 22.796875 63 
C 26.296875 63 32.90625 61.328125 32.90625 51.875 
C 32.90625 49.109375 32.5 44.1875 29.09375 39.84375 
C 26.09375 36 22.703125 36 19.40625 35.6875 
C 18.90625 35.6875 16.59375 35.453125 16.203125 35.453125 
C 15.5 35.359375 15.09375 35.265625 15.09375 34.5 
C 15.09375 33.796875 15.203125 33.703125 17.203125 33.703125 
z
" id="CMR17-51"/>
       </defs>
       <use transform="scale(0.996264)" xlink:href="#CMR17-51"/>
       <use transform="translate(45.690477 0)scale(0.996264)" xlink:href="#CMR17-48"/>
      </g>
     </g>
    </g>
    <g id="xtick_8">
     <g id="line2d_8">
      <g>
       <use style="stroke:#000000;stroke-width:0.8;" x="277.811458" xlink:href="#m96280cdbca" y="170.28"/>
      </g>
     </g>
     <g id="text_8">
      <!-- $\mathdefault{35}$ -->
      <g transform="translate(272.830123 184.198498)scale(0.1 -0.1)">
       <use transform="scale(0.996264)" xlink:href="#CMR17-51"/>
       <use transform="translate(45.690477 0)scale(0.996264)" xlink:href="#CMR17-53"/>
      </g>
     </g>
    </g>
    <g id="text_9">
     <!-- $\tilde{t}$ -->
     <g transform="translate(175.505969 197.054175)scale(0.1 -0.1)">
      <defs>
       <path d="M 37.5 65.375 
C 34.09375 62.1875 32.203125 60.390625 29.09375 60.390625 
C 26.90625 60.390625 25.40625 61.4375 23.296875 62.875 
C 21.296875 64.234375 19.703125 65.375 17.5 65.375 
C 13.90625 65.375 11.40625 62.5625 7.203125 58.09375 
L 8.296875 57 
C 11.703125 60.15625 13.59375 62 16.703125 62 
C 18.90625 62 20.40625 60.9375 22.5 59.5 
C 24.5 58.15625 26.09375 57 28.296875 57 
C 31.90625 57 34.40625 59.8125 38.59375 64.28125 
z
" id="CMR17-126"/>
       <path d="M 20.09375 40.09375 
L 29.296875 40.09375 
C 31.203125 40.09375 32.203125 40.09375 32.203125 41.890625 
C 32.203125 43 31.59375 43 29.59375 43 
L 20.796875 43 
L 24.5 57.6875 
C 24.90625 59.078125 24.90625 59.28125 24.90625 60 
C 24.90625 61.609375 23.59375 62.5 22.296875 62.5 
C 21.5 62.5 19.203125 62.203125 18.40625 58.984375 
L 14.5 43 
L 5.09375 43 
C 3.09375 43 2.203125 43 2.203125 41.09375 
C 2.203125 40.09375 2.90625 40.09375 4.796875 40.09375 
L 13.703125 40.09375 
L 7.09375 13.765625 
C 6.296875 10.28125 6 9.28125 6 7.984375 
C 6 3.296875 9.296875 -1 14.90625 -1 
C 25 -1 30.40625 13.5625 30.40625 14.25 
C 30.40625 14.859375 30 15.15625 29.40625 15.15625 
C 29.203125 15.15625 28.796875 15.15625 28.59375 14.75 
C 28.5 14.65625 28.40625 14.546875 27.703125 12.953125 
C 25.59375 7.984375 21 1 15.203125 1 
C 12.203125 1 12 3.5 12 5.6875 
C 12 5.78125 12 7.6875 12.296875 8.875 
z
" id="CMMI12-116"/>
      </defs>
      <use transform="translate(2.89708 18.389976)scale(0.996264)" xlink:href="#CMR17-126"/>
      <use transform="scale(0.996264)" xlink:href="#CMMI12-116"/>
     </g>
    </g>
   </g>
   <g id="matplotlib.axis_2">
    <g id="ytick_1">
     <g id="line2d_9">
      <defs>
       <path d="M 0 0 
L -3.5 0 
" id="m80639eb767" style="stroke:#000000;stroke-width:0.8;"/>
      </defs>
      <g>
       <use style="stroke:#000000;stroke-width:0.8;" x="52.515835" xlink:href="#m80639eb767" y="163.138908"/>
      </g>
     </g>
     <g id="text_10">
      <!-- $\mathdefault{−0.06}$ -->
      <g transform="translate(20.055677 166.598157)scale(0.1 -0.1)">
       <defs>
        <path d="M 65.90625 23 
C 67.59375 23 69.40625 23 69.40625 25 
C 69.40625 27 67.59375 27 65.90625 27 
L 11.796875 27 
C 10.09375 27 8.296875 27 8.296875 25 
C 8.296875 23 10.09375 23 11.796875 23 
z
" id="CMSY10-0"/>
        <path d="M 18.40625 4.796875 
C 18.40625 7.6875 16 9.671875 13.59375 9.671875 
C 10.703125 9.671875 8.703125 7.28125 8.703125 4.890625 
C 8.703125 2 11.09375 0 13.5 0 
C 16.40625 0 18.40625 2.390625 18.40625 4.796875 
z
" id="CMMI12-58"/>
        <path d="M 10.59375 34 
C 10.59375 57.65625 21.796875 63 28.296875 63 
C 30.40625 63 35.5 62.640625 37.5 59 
C 35.90625 59 32.90625 59 32.90625 55.515625 
C 32.90625 52.828125 35.09375 51.921875 36.5 51.921875 
C 37.40625 51.921875 40.09375 52.3125 40.09375 55.625 
C 40.09375 61.78125 35.09375 65.296875 28.203125 65.296875 
C 16.296875 65.296875 3.796875 52.96875 3.796875 31 
C 3.796875 3.953125 15.09375 -2 23.09375 -2 
C 32.796875 -2 42 6.671875 42 20.046875 
C 42 32.515625 33.90625 41.59375 23.703125 41.59375 
C 17.59375 41.59375 13.09375 37.609375 10.59375 30.625 
z
M 23.09375 0.390625 
C 10.796875 0.390625 10.796875 18.75 10.796875 22.4375 
C 10.796875 29.625 14.203125 40 23.5 40 
C 25.203125 40 30.09375 40 33.40625 33.125 
C 35.203125 29.21875 35.203125 25.140625 35.203125 20.140625 
C 35.203125 14.75 35.203125 10.78125 33.09375 6.78125 
C 30.90625 2.671875 27.703125 0.390625 23.09375 0.390625 
z
" id="CMR17-54"/>
       </defs>
       <use transform="scale(0.996264)" xlink:href="#CMSY10-0"/>
       <use transform="translate(77.487468 0)scale(0.996264)" xlink:href="#CMR17-48"/>
       <use transform="translate(123.177945 0)scale(0.996264)" xlink:href="#CMMI12-58"/>
       <use transform="translate(150.275122 0)scale(0.996264)" xlink:href="#CMR17-48"/>
       <use transform="translate(195.965599 0)scale(0.996264)" xlink:href="#CMR17-54"/>
      </g>
     </g>
    </g>
    <g id="ytick_2">
     <g id="line2d_10">
      <g>
       <use style="stroke:#000000;stroke-width:0.8;" x="52.515835" xlink:href="#m80639eb767" y="139.277366"/>
      </g>
     </g>
     <g id="text_11">
      <!-- $\mathdefault{−0.04}$ -->
      <g transform="translate(20.055677 142.736616)scale(0.1 -0.1)">
       <defs>
        <path d="M 33.59375 64.40625 
C 33.59375 66.5 33.5 66.5 31.703125 66.5 
L 2 19.59375 
L 2 17 
L 27.796875 17 
L 27.796875 7.140625 
C 27.796875 3.5 27.59375 2.5 20.59375 2.5 
L 18.703125 2.5 
L 18.703125 0 
C 21.90625 0 27.296875 0 30.703125 0 
C 34.09375 0 39.5 0 42.703125 0 
L 42.703125 2.5 
L 40.796875 2.5 
C 33.796875 2.5 33.59375 3.5 33.59375 7.140625 
L 33.59375 17 
L 43.796875 17 
L 43.796875 19.59375 
L 33.59375 19.59375 
z
M 28.09375 57.859375 
L 28.09375 19.59375 
L 4 19.59375 
z
" id="CMR17-52"/>
       </defs>
       <use transform="scale(0.996264)" xlink:href="#CMSY10-0"/>
       <use transform="translate(77.487468 0)scale(0.996264)" xlink:href="#CMR17-48"/>
       <use transform="translate(123.177945 0)scale(0.996264)" xlink:href="#CMMI12-58"/>
       <use transform="translate(150.275122 0)scale(0.996264)" xlink:href="#CMR17-48"/>
       <use transform="translate(195.965599 0)scale(0.996264)" xlink:href="#CMR17-52"/>
      </g>
     </g>
    </g>
    <g id="ytick_3">
     <g id="line2d_11">
      <g>
       <use style="stroke:#000000;stroke-width:0.8;" x="52.515835" xlink:href="#m80639eb767" y="115.415825"/>
      </g>
     </g>
     <g id="text_12">
      <!-- $\mathdefault{−0.02}$ -->
      <g transform="translate(20.055677 118.875074)scale(0.1 -0.1)">
       <use transform="scale(0.996264)" xlink:href="#CMSY10-0"/>
       <use transform="translate(77.487468 0)scale(0.996264)" xlink:href="#CMR17-48"/>
       <use transform="translate(123.177945 0)scale(0.996264)" xlink:href="#CMMI12-58"/>
       <use transform="translate(150.275122 0)scale(0.996264)" xlink:href="#CMR17-48"/>
       <use transform="translate(195.965599 0)scale(0.996264)" xlink:href="#CMR17-50"/>
      </g>
     </g>
    </g>
    <g id="ytick_4">
     <g id="line2d_12">
      <g>
       <use style="stroke:#000000;stroke-width:0.8;" x="52.515835" xlink:href="#m80639eb767" y="91.554283"/>
      </g>
     </g>
     <g id="text_13">
      <!-- $\mathdefault{0.00}$ -->
      <g transform="translate(27.80442 95.013532)scale(0.1 -0.1)">
       <use transform="scale(0.996264)" xlink:href="#CMR17-48"/>
       <use transform="translate(45.690477 0)scale(0.996264)" xlink:href="#CMMI12-58"/>
       <use transform="translate(72.787654 0)scale(0.996264)" xlink:href="#CMR17-48"/>
       <use transform="translate(118.478131 0)scale(0.996264)" xlink:href="#CMR17-48"/>
      </g>
     </g>
    </g>
    <g id="ytick_5">
     <g id="line2d_13">
      <g>
       <use style="stroke:#000000;stroke-width:0.8;" x="52.515835" xlink:href="#m80639eb767" y="67.692742"/>
      </g>
     </g>
     <g id="text_14">
      <!-- $\mathdefault{0.02}$ -->
      <g transform="translate(27.80442 71.151991)scale(0.1 -0.1)">
       <use transform="scale(0.996264)" xlink:href="#CMR17-48"/>
       <use transform="translate(45.690477 0)scale(0.996264)" xlink:href="#CMMI12-58"/>
       <use transform="translate(72.787654 0)scale(0.996264)" xlink:href="#CMR17-48"/>
       <use transform="translate(118.478131 0)scale(0.996264)" xlink:href="#CMR17-50"/>
      </g>
     </g>
    </g>
    <g id="ytick_6">
     <g id="line2d_14">
      <g>
       <use style="stroke:#000000;stroke-width:0.8;" x="52.515835" xlink:href="#m80639eb767" y="43.8312"/>
      </g>
     </g>
     <g id="text_15">
      <!-- $\mathdefault{0.04}$ -->
      <g transform="translate(27.80442 47.290449)scale(0.1 -0.1)">
       <use transform="scale(0.996264)" xlink:href="#CMR17-48"/>
       <use transform="translate(45.690477 0)scale(0.996264)" xlink:href="#CMMI12-58"/>
       <use transform="translate(72.787654 0)scale(0.996264)" xlink:href="#CMR17-48"/>
       <use transform="translate(118.478131 0)scale(0.996264)" xlink:href="#CMR17-52"/>
      </g>
     </g>
    </g>
    <g id="ytick_7">
     <g id="line2d_15">
      <g>
       <use style="stroke:#000000;stroke-width:0.8;" x="52.515835" xlink:href="#m80639eb767" y="19.969659"/>
      </g>
     </g>
     <g id="text_16">
      <!-- $\mathdefault{0.06}$ -->
      <g transform="translate(27.80442 23.428908)scale(0.1 -0.1)">
       <use transform="scale(0.996264)" xlink:href="#CMR17-48"/>
       <use transform="translate(45.690477 0)scale(0.996264)" xlink:href="#CMMI12-58"/>
       <use transform="translate(72.787654 0)scale(0.996264)" xlink:href="#CMR17-48"/>
       <use transform="translate(118.478131 0)scale(0.996264)" xlink:href="#CMR17-54"/>
      </g>
     </g>
    </g>
    <g id="text_17">
     <!-- $\mathbf{v}_b$ -->
     <g transform="translate(14.118498 93.515131)rotate(-90)scale(0.1 -0.1)">
      <defs>
       <path d="M 49.5 37.53125 
C 50.203125 39.03125 50.59375 39.828125 56.90625 39.828125 
L 56.90625 44 
C 53.296875 44 53.09375 44 49 44 
C 46.296875 44 46.09375 44 40.40625 44 
L 40.40625 39.828125 
C 43.09375 39.828125 45.296875 39.328125 45.296875 38.625 
C 45.296875 38.53125 45.296875 38.4375 44.796875 37.4375 
L 33.09375 11.921875 
L 20.203125 39.828125 
L 25.703125 39.828125 
L 25.703125 44.09375 
C 23.40625 44 16.40625 44 13.703125 44 
C 10.796875 44 5 44 2.40625 44.09375 
L 2.40625 39.828125 
L 8.703125 39.828125 
L 26.296875 1.890625 
C 27.203125 0 27.40625 -0.5 29.703125 -0.5 
C 31.296875 -0.5 32.09375 -0.296875 33 1.6875 
z
" id="CMBX12-118"/>
       <path d="M 23.09375 66.515625 
C 23.203125 66.921875 23.40625 67.515625 23.40625 68 
C 23.40625 69 22.40625 69 22.203125 69 
C 22.09375 69 18.5 68.640625 16.703125 68.390625 
C 15 68.390625 13.5 68.09375 11.703125 68.09375 
C 9.296875 67.890625 8.59375 67.796875 8.59375 66 
C 8.59375 65 9.59375 65 10.59375 65 
C 15.703125 65 15.703125 64.109375 15.703125 63.125 
C 15.703125 62.4375 14.90625 59.546875 14.5 57.75 
L 12.09375 48.203125 
C 11.09375 44.234375 5.40625 21.671875 5 19.875 
C 4.5 17.40625 4.5 15.703125 4.5 14.40625 
C 4.5 4.28125 10.203125 -1 16.703125 -1 
C 28.296875 -1 40.296875 13.875 40.296875 28.34375 
C 40.296875 37.515625 35.09375 44 27.59375 44 
C 22.40625 44 17.703125 39.71875 15.796875 37.71875 
z
M 16.796875 1 
C 13.59375 1 10.09375 3.390625 10.09375 11.171875 
C 10.09375 14.46875 10.40625 16.359375 12.203125 23.34375 
C 12.5 24.640625 14.09375 31.03125 14.5 32.328125 
C 14.703125 33.125 20.59375 42.015625 27.40625 42.015625 
C 31.796875 42.015625 33.796875 37.625 33.796875 32.4375 
C 33.796875 27.640625 31 16.359375 28.5 11.171875 
C 26 5.78125 21.40625 1 16.796875 1 
z
" id="CMMI12-98"/>
      </defs>
      <use transform="scale(0.996264)" xlink:href="#CMBX12-118"/>
      <use transform="translate(59.153176 -14.943915)scale(0.697382)" xlink:href="#CMMI12-98"/>
     </g>
    </g>
   </g>
   <g id="line2d_16">
    <path clip-path="url(#p3f94e2b6a3)" d="M 52.515835 82.36771 
L 54.702478 98.000105 
L 56.524688 110.790712 
L 57.982451 118.942959 
L 61.991304 137.86696 
L 63.813515 145.029806 
L 64.90683 148.668051 
L 66.364606 152.593267 
L 67.45792 154.984484 
L 68.915684 157.611271 
L 70.737894 160.248232 
L 71.831222 161.349234 
L 73.288984 162.314747 
L 74.017866 162.493916 
L 74.746748 162.867273 
L 75.111196 162.834494 
L 75.840076 162.405803 
L 76.204512 162.342779 
L 76.933392 162.791849 
L 77.29784 162.746767 
L 78.02672 161.947209 
L 78.755601 160.817691 
L 79.484481 160.276695 
L 80.213364 159.62907 
L 81.306694 158.527735 
L 81.671141 158.322401 
L 82.035575 158.322454 
L 82.764455 158.722633 
L 83.128904 158.464831 
L 83.857785 157.244826 
L 85.315548 153.923466 
L 86.408875 152.733711 
L 87.137755 150.804874 
L 88.595519 146.087167 
L 89.324399 144.495295 
L 89.688849 143.437423 
L 90.417729 140.42251 
L 93.333254 126.405662 
L 94.791017 119.37591 
L 95.519898 116.228845 
L 96.977662 108.308798 
L 98.799869 96.445889 
L 100.622079 82.613341 
L 103.173175 66.621321 
L 103.537606 65.146426 
L 104.266486 63.411528 
L 104.630936 63.18294 
L 104.995367 63.50567 
L 105.359816 63.268987 
L 106.453146 61.214896 
L 106.817577 60.728886 
L 107.182026 60.74526 
L 107.546457 60.615792 
L 109.368673 58.409869 
L 110.097554 56.761415 
L 110.462003 56.553785 
L 111.190883 57.356333 
L 111.555314 57.82364 
L 111.919764 57.976871 
L 112.648644 56.362505 
L 113.377525 54.324202 
L 114.106405 51.313913 
L 115.199735 45.640679 
L 115.564166 44.713166 
L 115.928615 44.311458 
L 116.293052 44.437857 
L 116.657495 45.255793 
L 117.386382 47.943569 
L 117.750825 48.766257 
L 118.115262 49.143751 
L 118.479705 49.033668 
L 118.844142 48.636853 
L 119.208586 48.514721 
L 119.573023 48.593266 
L 120.301903 48.241661 
L 120.666353 48.636929 
L 121.395233 50.40977 
L 122.488556 53.609097 
L 122.852994 54.104256 
L 123.217437 54.17172 
L 124.31076 53.956799 
L 125.039641 54.270411 
L 125.404084 54.161973 
L 125.768533 53.897997 
L 126.132964 53.998164 
L 126.497414 54.473917 
L 126.861851 55.194202 
L 127.955174 58.02149 
L 128.684055 59.865373 
L 129.412935 62.928631 
L 131.599582 73.380878 
L 132.328463 75.40374 
L 133.057349 77.302379 
L 133.786242 80.376618 
L 134.879553 85.684501 
L 135.972883 90.386382 
L 136.701763 94.732955 
L 138.159524 105.551591 
L 138.88841 108.881571 
L 141.439495 118.609722 
L 142.168381 121.98954 
L 142.53283 123.16769 
L 142.897267 123.816882 
L 143.261705 124.095451 
L 144.355028 124.388475 
L 144.719478 124.791276 
L 145.083902 125.529602 
L 146.541688 129.845688 
L 147.999448 130.829886 
L 148.363873 130.865145 
L 149.09276 130.572769 
L 149.457209 130.757053 
L 150.550533 131.815063 
L 150.91497 131.75659 
L 152.73718 130.532697 
L 153.101617 130.003105 
L 153.830516 128.202186 
L 154.55939 125.895651 
L 156.017151 119.914613 
L 157.839361 112.071832 
L 159.297134 105.778694 
L 160.754894 98.175729 
L 161.848218 93.033532 
L 162.57708 91.009682 
L 164.39929 82.154215 
L 165.857063 79.125689 
L 166.221512 77.867158 
L 167.314823 72.537467 
L 167.679273 71.804894 
L 168.043722 71.734766 
L 168.408172 71.883939 
L 168.772584 71.654202 
L 169.137034 71.262605 
L 169.501483 71.248998 
L 169.865932 70.547404 
L 170.594794 68.234558 
L 170.959244 67.685218 
L 171.688142 67.158171 
L 172.052555 66.753109 
L 172.417004 66.825118 
L 172.781454 67.381501 
L 173.51034 67.969294 
L 173.874765 69.087018 
L 174.603664 72.140221 
L 174.968113 72.832994 
L 175.696975 73.285648 
L 176.425874 73.377827 
L 176.790286 73.754124 
L 177.154736 73.771089 
L 177.883635 73.048572 
L 178.612496 72.018364 
L 178.976946 71.740682 
L 180.070269 71.501484 
L 180.434719 71.073771 
L 180.799156 70.263684 
L 181.528042 67.298752 
L 183.35024 58.945773 
L 184.079139 53.927971 
L 184.808001 49.058331 
L 185.17245 47.509616 
L 185.5369 47.296086 
L 185.901337 47.529656 
L 186.265786 47.184496 
L 186.99466 45.205908 
L 187.723547 43.43772 
L 188.087972 42.5748 
L 189.545757 37.85643 
L 189.910182 37.40585 
L 190.274631 37.75773 
L 191.367942 40.250065 
L 191.732392 40.550655 
L 192.096841 40.406327 
L 192.825703 39.473205 
L 193.554602 39.942857 
L 194.647913 37.319176 
L 195.376812 34.503584 
L 196.105686 33.567902 
L 196.834573 32.923401 
L 197.563459 32.199072 
L 198.292333 32.142946 
L 199.021232 31.406745 
L 199.385657 30.757364 
L 200.114543 28.432228 
L 201.207867 24.142572 
L 201.936753 22.536513 
L 202.301203 22.141645 
L 203.394514 21.769422 
L 203.758963 21.974249 
L 204.123388 22.752545 
L 204.852275 25.635334 
L 205.945598 30.983601 
L 206.674485 32.095922 
L 207.038934 31.929923 
L 207.767796 29.471584 
L 208.496695 29.038973 
L 208.86112 29.048186 
L 209.590006 30.409088 
L 210.318905 32.298074 
L 211.047767 34.378954 
L 211.412216 34.975685 
L 211.776666 35.260226 
L 212.141091 35.333806 
L 212.50554 35.666987 
L 212.869989 36.479359 
L 213.234439 37.683999 
L 213.963301 41.40141 
L 214.692199 46.105188 
L 215.785511 56.0898 
L 219.429931 92.881277 
L 220.523242 101.595685 
L 224.167675 126.111939 
L 225.260986 131.106254 
L 228.176507 142.957851 
L 229.634305 147.651251 
L 231.092053 151.196458 
L 232.549826 154.583376 
L 234.007575 157.483161 
L 235.465347 159.778851 
L 236.558659 161.186976 
L 238.016432 162.37542 
L 238.380869 162.485236 
L 239.109768 162.424577 
L 240.203079 162.844397 
L 240.567541 162.698766 
L 241.660852 161.544643 
L 242.389751 160.642962 
L 243.1186 159.368063 
L 243.483062 158.972142 
L 243.847499 159.129546 
L 244.211912 159.580784 
L 244.576373 159.832977 
L 244.94081 159.621536 
L 245.305272 158.934874 
L 246.398583 156.207062 
L 250.407441 148.38687 
L 250.771878 147.898418 
L 251.136315 147.2068 
L 251.865214 145.20566 
L 252.958525 141.39454 
L 254.416298 134.742649 
L 255.509609 128.951283 
L 256.602945 121.458744 
L 258.789568 107.38286 
L 260.976239 93.595028 
L 262.069538 86.855515 
L 262.798437 83.728871 
L 263.162887 82.55889 
L 263.527311 82.087694 
L 263.891761 82.043392 
L 264.256186 81.536725 
L 265.349534 78.710849 
L 266.078432 75.059261 
L 266.807282 73.055274 
L 267.90063 68.253459 
L 269.358379 61.07563 
L 270.451702 54.74291 
L 271.909475 47.420071 
L 272.2739 46.515261 
L 272.638374 46.184315 
L 273.002774 44.754074 
L 273.367224 42.250227 
L 273.731673 40.685996 
L 274.460572 39.21551 
L 275.189421 37.176733 
L 275.91832 34.308708 
L 278.833842 19.623971 
L 279.198315 17.837717 
L 279.562716 16.991651 
L 279.92719 17.569479 
L 280.291615 18.473849 
L 280.656064 18.355388 
L 281.384938 16.975419 
L 281.749387 15.701991 
L 282.113837 14.867507 
L 282.478286 14.612727 
L 282.842711 14.643973 
L 283.207136 15.12426 
L 284.664909 19.381165 
L 285.029358 20.108362 
L 285.393808 21.251951 
L 286.122657 25.043644 
L 287.21603 27.384895 
L 287.58043 27.974234 
L 287.94488 28.83559 
L 288.309329 30.489241 
L 289.038179 35.558073 
L 289.767077 40.922313 
L 290.495976 43.145068 
L 290.860401 44.147938 
L 291.22485 45.595722 
L 291.953749 49.557308 
L 293.047073 53.875539 
L 296.691493 65.807043 
L 297.784792 70.686672 
L 298.513691 73.926298 
L 299.607014 80.701522 
L 300.335888 86.691224 
L 301.793686 100.323991 
L 302.886985 107.720615 
L 303.615835 111.633578 
L 303.615835 111.633578 
" style="fill:none;stroke:#1f77b4;stroke-linecap:square;stroke-width:1.5;"/>
   </g>
   <g id="patch_3">
    <path d="M 52.515835 170.28 
L 52.515835 7.2 
" style="fill:none;stroke:#000000;stroke-linecap:square;stroke-linejoin:miter;stroke-width:0.8;"/>
   </g>
   <g id="patch_4">
    <path d="M 303.615835 170.28 
L 303.615835 7.2 
" style="fill:none;stroke:#000000;stroke-linecap:square;stroke-linejoin:miter;stroke-width:0.8;"/>
   </g>
   <g id="patch_5">
    <path d="M 52.515835 170.28 
L 303.615835 170.28 
" style="fill:none;stroke:#000000;stroke-linecap:square;stroke-linejoin:miter;stroke-width:0.8;"/>
   </g>
   <g id="patch_6">
    <path d="M 52.515835 7.2 
L 303.615835 7.2 
" style="fill:none;stroke:#000000;stroke-linecap:square;stroke-linejoin:miter;stroke-width:0.8;"/>
   </g>
  </g>
 </g>
 <defs>
  <clipPath id="p3f94e2b6a3">
   <rect height="163.08" width="251.1" x="52.515835" y="7.2"/>
  </clipPath>
 </defs>
</svg>
