<?xml version="1.0" encoding="utf-8" standalone="no"?>
<!DOCTYPE svg PUBLIC "-//W3C//DTD SVG 1.1//EN"
  "http://www.w3.org/Graphics/SVG/1.1/DTD/svg11.dtd">
<!-- Created with matplotlib (https://matplotlib.org/) -->
<svg height="260.551353pt" version="1.1" viewBox="0 0 496.706631 260.551353" width="496.706631pt" xmlns="http://www.w3.org/2000/svg" xmlns:xlink="http://www.w3.org/1999/xlink">
 <metadata>
  <rdf:RDF xmlns:cc="http://creativecommons.org/ns#" xmlns:dc="http://purl.org/dc/elements/1.1/" xmlns:rdf="http://www.w3.org/1999/02/22-rdf-syntax-ns#">
   <cc:Work>
    <dc:type rdf:resource="http://purl.org/dc/dcmitype/StillImage"/>
    <dc:date>2022-03-30T11:55:35.499534</dc:date>
    <dc:format>image/svg+xml</dc:format>
    <dc:creator>
     <cc:Agent>
      <dc:title>Matplotlib v3.3.3, https://matplotlib.org/</dc:title>
     </cc:Agent>
    </dc:creator>
   </cc:Work>
  </rdf:RDF>
 </metadata>
 <defs>
  <style type="text/css">*{stroke-linecap:butt;stroke-linejoin:round;}</style>
 </defs>
 <g id="figure_1">
  <g id="patch_1">
   <path d="M 0 260.551353 
L 496.706631 260.551353 
L 496.706631 0 
L 0 0 
z
" style="fill:none;"/>
  </g>
  <g id="axes_1">
   <g id="patch_2">
    <path d="M 43.106631 71.152941 
L 489.506631 71.152941 
L 489.506631 7.2 
L 43.106631 7.2 
z
" style="fill:#ffffff;"/>
   </g>
   <g id="matplotlib.axis_1">
    <g id="xtick_1">
     <g id="line2d_1">
      <defs>
       <path d="M 0 0 
L 0 3.5 
" id="m5f2c4d2dfc" style="stroke:#000000;stroke-width:0.8;"/>
      </defs>
      <g>
       <use style="stroke:#000000;stroke-width:0.8;" x="43.106631" xlink:href="#m5f2c4d2dfc" y="71.152941"/>
      </g>
     </g>
    </g>
    <g id="xtick_2">
     <g id="line2d_2">
      <g>
       <use style="stroke:#000000;stroke-width:0.8;" x="100.324567" xlink:href="#m5f2c4d2dfc" y="71.152941"/>
      </g>
     </g>
    </g>
    <g id="xtick_3">
     <g id="line2d_3">
      <g>
       <use style="stroke:#000000;stroke-width:0.8;" x="157.542503" xlink:href="#m5f2c4d2dfc" y="71.152941"/>
      </g>
     </g>
    </g>
    <g id="xtick_4">
     <g id="line2d_4">
      <g>
       <use style="stroke:#000000;stroke-width:0.8;" x="214.760439" xlink:href="#m5f2c4d2dfc" y="71.152941"/>
      </g>
     </g>
    </g>
    <g id="xtick_5">
     <g id="line2d_5">
      <g>
       <use style="stroke:#000000;stroke-width:0.8;" x="271.978375" xlink:href="#m5f2c4d2dfc" y="71.152941"/>
      </g>
     </g>
    </g>
    <g id="xtick_6">
     <g id="line2d_6">
      <g>
       <use style="stroke:#000000;stroke-width:0.8;" x="329.196311" xlink:href="#m5f2c4d2dfc" y="71.152941"/>
      </g>
     </g>
    </g>
    <g id="xtick_7">
     <g id="line2d_7">
      <g>
       <use style="stroke:#000000;stroke-width:0.8;" x="386.414247" xlink:href="#m5f2c4d2dfc" y="71.152941"/>
      </g>
     </g>
    </g>
    <g id="xtick_8">
     <g id="line2d_8">
      <g>
       <use style="stroke:#000000;stroke-width:0.8;" x="443.632184" xlink:href="#m5f2c4d2dfc" y="71.152941"/>
      </g>
     </g>
    </g>
   </g>
   <g id="matplotlib.axis_2">
    <g id="ytick_1">
     <g id="line2d_9">
      <defs>
       <path d="M 0 0 
L -3.5 0 
" id="m40826a6c66" style="stroke:#000000;stroke-width:0.8;"/>
      </defs>
      <g>
       <use style="stroke:#000000;stroke-width:0.8;" x="43.106631" xlink:href="#m40826a6c66" y="61.072027"/>
      </g>
     </g>
     <g id="text_1">
      <!-- -0.1 -->
      <g transform="translate(20.055677 64.531277)scale(0.1 -0.1)">
       <defs>
        <path d="M 26 19 
L 26 24.765625 
L 1 24.765625 
L 1 19 
z
" id="CMSS17-45"/>
        <path d="M 43.09375 31.9375 
C 43.09375 37.578125 43 48.078125 38.90625 56.1875 
C 34.796875 64 28.203125 66.078125 23.5 66.078125 
C 16.703125 66.078125 10.90625 62.109375 7.90625 55.78125 
C 4.703125 49.15625 3.796875 42.328125 3.796875 31.9375 
C 3.796875 24.828125 4.09375 16.109375 7.703125 8.484375 
C 11.796875 0.078125 18.703125 -2 23.40625 -2 
C 29.59375 -2 35.59375 1.265625 39 8.09375 
C 42.5 15.21875 43.09375 23.03125 43.09375 31.9375 
z
M 23.40625 4.078125 
C 15.796875 4.078125 13.5 12.671875 12.796875 15.546875 
C 11.59375 20.46875 11.40625 25.21875 11.40625 33.03125 
C 11.40625 39.15625 11.40625 46.0625 13.296875 51.515625 
C 15.59375 57.828125 19.59375 60 23.40625 60 
C 30.796875 60 33.203125 52.6875 34 50.125 
C 35.5 44.890625 35.5 38.765625 35.5 33.03125 
C 35.5 23.84375 35.5 4.078125 23.40625 4.078125 
z
" id="CMSS17-48"/>
        <path d="M 17 7.96875 
L 9 7.96875 
L 9 0 
L 17 0 
z
" id="CMSS17-46"/>
        <path d="M 28.40625 67 
L 26.5 67 
C 21.09375 61.5625 14.796875 60.78125 8.40625 60.78125 
L 8.40625 55 
C 11.296875 55 16 55 20.703125 57.296875 
L 20.703125 5.765625 
L 8.90625 5.765625 
L 8.90625 0 
L 40.203125 0 
L 40.203125 5.765625 
L 28.40625 5.765625 
z
" id="CMSS17-49"/>
       </defs>
       <use transform="scale(0.996264)" xlink:href="#CMSS17-45"/>
       <use transform="translate(31.229113 0)scale(0.996264)" xlink:href="#CMSS17-48"/>
       <use transform="translate(78.072736 0)scale(0.996264)" xlink:href="#CMSS17-46"/>
       <use transform="translate(104.096941 0)scale(0.996264)" xlink:href="#CMSS17-49"/>
      </g>
     </g>
    </g>
    <g id="ytick_2">
     <g id="line2d_10">
      <g>
       <use style="stroke:#000000;stroke-width:0.8;" x="43.106631" xlink:href="#m40826a6c66" y="36.257924"/>
      </g>
     </g>
     <g id="text_2">
      <!-- 0.0 -->
      <g transform="translate(23.376552 39.717174)scale(0.1 -0.1)">
       <use transform="scale(0.996264)" xlink:href="#CMSS17-48"/>
       <use transform="translate(46.843624 0)scale(0.996264)" xlink:href="#CMSS17-46"/>
       <use transform="translate(72.867828 0)scale(0.996264)" xlink:href="#CMSS17-48"/>
      </g>
     </g>
    </g>
    <g id="ytick_3">
     <g id="line2d_11">
      <g>
       <use style="stroke:#000000;stroke-width:0.8;" x="43.106631" xlink:href="#m40826a6c66" y="11.443821"/>
      </g>
     </g>
     <g id="text_3">
      <!-- 0.1 -->
      <g transform="translate(23.376552 14.90307)scale(0.1 -0.1)">
       <use transform="scale(0.996264)" xlink:href="#CMSS17-48"/>
       <use transform="translate(46.843624 0)scale(0.996264)" xlink:href="#CMSS17-46"/>
       <use transform="translate(72.867828 0)scale(0.996264)" xlink:href="#CMSS17-49"/>
      </g>
     </g>
    </g>
    <g id="text_4">
     <!-- $\mathbf{ v }_1$ -->
     <g transform="translate(14.118498 44.185458)rotate(-90)scale(0.1 -0.1)">
      <defs>
       <path d="M 49.5 37.53125 
C 50.203125 39.03125 50.59375 39.828125 56.90625 39.828125 
L 56.90625 44 
C 53.296875 44 53.09375 44 49 44 
C 46.296875 44 46.09375 44 40.40625 44 
L 40.40625 39.828125 
C 43.09375 39.828125 45.296875 39.328125 45.296875 38.625 
C 45.296875 38.53125 45.296875 38.4375 44.796875 37.4375 
L 33.09375 11.921875 
L 20.203125 39.828125 
L 25.703125 39.828125 
L 25.703125 44.09375 
C 23.40625 44 16.40625 44 13.703125 44 
C 10.796875 44 5 44 2.40625 44.09375 
L 2.40625 39.828125 
L 8.703125 39.828125 
L 26.296875 1.890625 
C 27.203125 0 27.40625 -0.5 29.703125 -0.5 
C 31.296875 -0.5 32.09375 -0.296875 33 1.6875 
z
" id="CMBX12-118"/>
       <path d="M 26.59375 63.40625 
C 26.59375 65.5 26.5 65.5 25.09375 65.5 
C 21.203125 61.1875 15.296875 59.796875 9.703125 59.796875 
C 9.40625 59.796875 8.90625 59.796875 8.796875 59.5 
C 8.703125 59.296875 8.703125 59.09375 8.703125 57 
C 11.796875 57 17 57.59375 21 59.984375 
L 21 7.203125 
C 21 3.6875 20.796875 2.5 12.203125 2.5 
L 9.203125 2.5 
L 9.203125 0 
C 14 0 19 0 23.796875 0 
C 28.59375 0 33.59375 0 38.40625 0 
L 38.40625 2.5 
L 35.40625 2.5 
C 26.796875 2.5 26.59375 3.59375 26.59375 7.15625 
z
" id="CMR17-49"/>
      </defs>
      <use transform="scale(0.996264)" xlink:href="#CMBX12-118"/>
      <use transform="translate(59.153176 -14.943915)scale(0.697382)" xlink:href="#CMR17-49"/>
     </g>
    </g>
   </g>
   <g id="line2d_12">
    <path clip-path="url(#p27bc6a97e6)" d="M 43.106631 33.370365 
L 45.050326 35.314581 
L 46.346115 36.319301 
L 46.993997 36.791743 
L 48.289786 38.14858 
L 48.937693 38.803398 
L 49.585575 39.251911 
L 52.82506 40.335044 
L 54.120848 40.221517 
L 54.768754 40.534242 
L 56.064544 41.732452 
L 56.712426 42.029245 
L 58.656122 42.076127 
L 59.95191 42.851799 
L 61.2477 43.527176 
L 62.543489 44.154353 
L 63.839279 44.790355 
L 64.487184 44.977627 
L 66.430878 45.079594 
L 68.374551 45.647981 
L 70.318248 45.745395 
L 71.614035 46.126225 
L 72.261918 46.173486 
L 73.557733 45.960937 
L 77.445097 46.809182 
L 78.09298 46.583866 
L 78.740887 46.486808 
L 80.036675 47.220699 
L 80.684585 46.875776 
L 81.332465 46.120483 
L 81.980375 46.361418 
L 82.628255 47.337222 
L 83.276162 47.898184 
L 83.924042 47.740477 
L 84.571949 46.982844 
L 85.219835 45.779001 
L 85.867736 46.151206 
L 86.515622 47.707568 
L 87.163529 48.401857 
L 88.459316 48.892074 
L 89.107226 48.559647 
L 89.755104 47.809646 
L 90.403014 47.831972 
L 91.050891 48.349381 
L 91.698801 48.004818 
L 92.346684 47.379455 
L 94.290381 46.187695 
L 95.586168 44.276949 
L 96.234073 44.878618 
L 97.529866 48.024557 
L 98.177743 48.27933 
L 98.825653 48.079357 
L 99.473536 48.150833 
L 100.12144 47.552517 
L 101.417233 43.697157 
L 102.065132 43.927401 
L 102.71302 45.81417 
L 103.360925 47.133588 
L 104.008807 47.815572 
L 104.656712 48.074415 
L 105.304595 48.018588 
L 105.952499 47.373272 
L 107.248292 44.145716 
L 107.896175 44.865744 
L 108.544079 46.650985 
L 109.191989 47.680778 
L 109.839872 47.519021 
L 111.135659 47.685927 
L 113.079351 47.059719 
L 113.727239 47.015213 
L 114.375144 47.163504 
L 115.023027 47.43138 
L 115.670931 47.355381 
L 116.318841 46.855222 
L 117.614628 45.370241 
L 118.262511 45.356664 
L 119.558298 46.69069 
L 120.854091 47.321447 
L 121.501996 47.494502 
L 122.149878 47.447694 
L 124.74148 46.608309 
L 125.389358 46.214868 
L 126.685145 45.128186 
L 127.333055 44.704502 
L 129.27673 42.851594 
L 131.220428 40.769001 
L 131.868327 39.855615 
L 132.516215 38.664146 
L 133.812002 34.964767 
L 135.107789 30.963172 
L 135.755699 29.521918 
L 136.403577 29.208759 
L 137.699397 31.582414 
L 138.347274 31.998553 
L 138.995184 31.347238 
L 140.290971 29.593457 
L 140.938849 29.215787 
L 141.586759 29.02883 
L 142.234647 29.143663 
L 142.882546 29.06537 
L 143.530434 28.442382 
L 144.826243 26.705324 
L 145.474131 25.524347 
L 146.122041 24.856446 
L 147.417829 26.353866 
L 148.065706 26.40531 
L 148.713616 27.498348 
L 149.361493 28.194291 
L 150.009403 28.198895 
L 150.65728 27.574034 
L 151.30519 26.747549 
L 151.9531 26.827881 
L 152.600978 27.507541 
L 153.248888 27.891831 
L 154.544675 27.25407 
L 155.192552 26.704362 
L 155.840462 25.858508 
L 156.48835 24.68347 
L 157.13625 23.213166 
L 157.784138 22.562447 
L 158.432048 23.280001 
L 159.079947 24.594054 
L 160.375734 28.214878 
L 161.023622 28.203705 
L 161.671521 28.81698 
L 162.31941 29.190434 
L 162.96732 28.962246 
L 163.615197 29.038643 
L 164.910984 30.59013 
L 165.558894 30.998839 
L 166.206793 30.643825 
L 166.854681 29.704852 
L 167.502581 29.452654 
L 168.150469 30.209724 
L 168.798368 31.352359 
L 169.446256 32.245424 
L 170.094166 32.757412 
L 170.742054 32.934018 
L 172.037841 32.670423 
L 172.685741 32.453517 
L 173.333651 32.01177 
L 173.981528 31.388722 
L 174.629438 30.958285 
L 175.277326 30.726238 
L 177.221012 31.382056 
L 177.868901 31.148311 
L 178.5168 30.617626 
L 179.164688 30.363054 
L 181.108374 31.167479 
L 182.404172 31.991284 
L 183.052072 32.508122 
L 183.69996 32.777667 
L 185.643657 32.739137 
L 186.291545 32.400329 
L 186.939444 32.190893 
L 188.235232 32.765705 
L 190.178929 34.642679 
L 190.826806 35.106691 
L 191.474716 35.125093 
L 192.122593 34.616213 
L 192.770503 34.514494 
L 193.418392 35.19215 
L 197.305786 37.328958 
L 199.249451 38.996389 
L 200.545238 39.094419 
L 201.193137 39.427136 
L 203.136845 41.468509 
L 204.432622 41.457262 
L 205.08051 41.458475 
L 205.72842 41.338687 
L 206.376308 40.777537 
L 207.024218 39.757978 
L 207.672084 38.996461 
L 208.319994 39.530378 
L 208.967904 41.285474 
L 209.615793 42.161969 
L 210.263703 41.871907 
L 210.911569 41.370389 
L 211.559479 41.457928 
L 212.207367 42.315208 
L 213.503144 42.171755 
L 214.151054 42.900838 
L 215.446852 42.648442 
L 216.094762 43.062315 
L 216.742628 43.739275 
L 217.390538 44.113703 
L 218.038426 44.180983 
L 219.334224 44.844422 
L 219.982134 45.669054 
L 220.630001 46.69016 
L 221.277911 47.443408 
L 221.925799 47.883241 
L 224.517395 48.752133 
L 225.165284 48.697533 
L 228.404768 47.850319 
L 230.348455 47.590433 
L 231.644253 47.430422 
L 232.940051 47.335588 
L 233.587917 47.05674 
L 234.883715 46.14955 
L 236.179492 45.907097 
L 238.123222 44.949326 
L 238.771066 44.822151 
L 239.418976 44.492274 
L 240.714796 43.308769 
L 242.010551 40.844106 
L 242.658461 40.330353 
L 243.954281 40.044975 
L 244.602147 39.735004 
L 245.250057 38.981283 
L 246.545856 36.348458 
L 247.193722 35.477635 
L 247.841632 35.248046 
L 248.489542 35.456058 
L 249.785296 34.375818 
L 250.433206 34.278802 
L 251.729026 34.956404 
L 252.376937 34.924672 
L 253.024781 34.472382 
L 253.672691 33.492941 
L 254.968511 31.146411 
L 256.264266 28.927058 
L 256.912176 28.630247 
L 257.560086 29.103414 
L 258.207974 30.626195 
L 258.85584 32.447949 
L 260.15166 32.035839 
L 260.79957 33.561828 
L 261.447415 32.815684 
L 262.743235 30.120241 
L 263.391145 29.636104 
L 264.038989 30.203438 
L 264.686899 31.163305 
L 265.334809 31.827757 
L 265.982719 32.017409 
L 266.630629 32.476114 
L 267.278474 32.662084 
L 269.222204 32.903344 
L 270.51798 33.627094 
L 271.165868 33.66111 
L 271.813778 33.298989 
L 273.109555 31.937113 
L 273.757465 31.585809 
L 275.053263 31.426868 
L 275.701129 31.146519 
L 276.349039 30.523244 
L 276.996949 29.397303 
L 278.940614 25.178962 
L 279.588524 25.453524 
L 280.884322 28.591854 
L 281.532188 29.286967 
L 282.828008 28.731248 
L 283.475897 28.24618 
L 284.123763 28.024178 
L 284.771673 28.200163 
L 285.419583 28.103543 
L 286.715381 27.441081 
L 287.363248 26.264179 
L 288.011158 24.829482 
L 288.659046 23.01653 
L 289.306956 21.930571 
L 289.954822 22.089131 
L 290.602732 23.576038 
L 291.89853 28.684014 
L 292.546397 29.155665 
L 293.194307 27.82809 
L 294.490105 26.654177 
L 295.785881 27.414284 
L 296.433791 27.259887 
L 297.729589 26.125143 
L 298.377478 26.288975 
L 299.025388 26.128127 
L 299.673276 25.63397 
L 300.969074 25.092713 
L 301.616962 25.132493 
L 302.91276 25.898154 
L 303.56067 26.487029 
L 304.208537 26.831471 
L 304.856425 26.532487 
L 305.504335 25.806369 
L 306.800111 23.700976 
L 307.448021 23.036696 
L 308.09591 22.539251 
L 309.39173 21.029402 
L 310.039596 20.569113 
L 310.687484 20.353407 
L 311.335394 20.441833 
L 313.27908 21.702923 
L 313.926969 22.996535 
L 314.574879 24.8836 
L 315.222789 26.331893 
L 315.870655 25.811192 
L 317.166453 22.459527 
L 317.814363 22.224504 
L 319.110118 23.275759 
L 319.758028 23.826267 
L 320.405938 23.955072 
L 321.701714 23.353479 
L 322.997512 22.221803 
L 323.645422 22.038127 
L 324.941177 22.599066 
L 326.236997 23.860943 
L 326.884863 24.133078 
L 328.180683 22.775321 
L 328.828593 22.814141 
L 329.476482 23.131796 
L 331.420168 25.165574 
L 332.715922 25.533188 
L 333.363832 26.151682 
L 339.842802 35.954325 
L 340.490712 36.68709 
L 341.138556 37.17133 
L 344.378041 38.935879 
L 345.673861 39.811666 
L 346.969615 40.754658 
L 348.265457 41.397583 
L 348.913345 41.590772 
L 351.504942 41.918982 
L 354.744426 43.408773 
L 357.983911 44.622002 
L 358.631755 44.628443 
L 359.927575 44.236188 
L 360.575464 44.393833 
L 361.87124 45.113516 
L 363.814904 45.413919 
L 364.462836 45.724985 
L 365.110724 45.873657 
L 366.406544 45.624803 
L 367.702321 46.290949 
L 368.350209 46.199239 
L 368.998097 45.885205 
L 369.645985 46.15244 
L 370.293874 46.744827 
L 370.941805 46.904488 
L 371.589694 46.355971 
L 372.237625 46.019306 
L 373.533358 47.365532 
L 374.18129 47.341566 
L 374.829178 46.969017 
L 376.124955 46.601631 
L 376.772843 46.986596 
L 377.420775 47.806879 
L 378.068619 48.085557 
L 379.364439 48.266155 
L 381.308104 48.886052 
L 381.955992 48.39627 
L 382.603924 46.988192 
L 383.251812 46.728202 
L 383.899656 48.371683 
L 385.195476 49.413134 
L 385.843408 49.757418 
L 387.787073 49.31959 
L 389.730737 50.060347 
L 390.378626 49.75733 
L 391.026557 48.526432 
L 391.674446 47.614822 
L 392.322334 48.233339 
L 392.970222 49.467982 
L 393.618154 49.398717 
L 394.266042 47.062082 
L 394.91393 45.639818 
L 395.561818 46.676704 
L 396.209706 48.592496 
L 396.857638 49.73159 
L 397.505526 50.113144 
L 398.801303 50.477323 
L 400.745011 50.538763 
L 403.336607 50.652381 
L 403.984452 50.541806 
L 405.280272 49.985273 
L 406.576005 49.357881 
L 407.871825 48.343976 
L 409.815489 46.789171 
L 410.463399 46.47885 
L 412.407086 44.589791 
L 413.702906 43.098328 
L 414.350772 41.906939 
L 415.646548 39.204019 
L 416.294458 38.455591 
L 416.942368 37.2867 
L 417.590278 35.373183 
L 418.238145 34.083915 
L 418.886055 33.783024 
L 419.533921 34.139729 
L 420.181875 34.724459 
L 420.829741 34.958991 
L 421.477651 34.377426 
L 422.125518 32.903435 
L 423.421338 29.60991 
L 424.069204 29.48036 
L 424.717114 30.176899 
L 425.365024 30.517584 
L 426.012934 30.345215 
L 427.308667 29.258872 
L 429.900263 28.055987 
L 430.548173 27.371305 
L 431.196083 26.223847 
L 431.843993 24.034562 
L 433.139769 18.197483 
L 433.787636 16.814518 
L 434.435589 17.679844 
L 435.083412 19.15582 
L 435.731322 21.206445 
L 436.379232 24.26077 
L 437.027142 26.649488 
L 437.675052 27.624237 
L 438.322919 28.26625 
L 438.970785 28.227614 
L 439.618739 27.857003 
L 442.210291 25.337368 
L 442.858201 25.136956 
L 443.506111 25.0878 
L 444.153934 24.70473 
L 444.801888 23.702259 
L 445.449754 21.640624 
L 446.74553 15.078159 
L 447.393484 14.187994 
L 448.04135 14.723851 
L 448.68926 16.385895 
L 449.985037 21.790284 
L 450.632947 23.467062 
L 451.280857 23.658655 
L 451.928767 22.330658 
L 452.576633 20.011594 
L 453.872453 12.577694 
L 454.52032 11.786558 
L 455.168186 11.979308 
L 455.816096 12.969934 
L 456.464006 16.111774 
L 457.111916 18.378297 
L 457.759826 20.181992 
L 458.407649 22.401942 
L 459.055602 23.6991 
L 460.351422 24.882224 
L 460.999245 24.799583 
L 461.647155 24.115368 
L 462.295065 22.99496 
L 462.942975 21.624352 
L 463.590798 20.562171 
L 464.238751 20.585519 
L 464.886618 21.705389 
L 466.182438 25.956246 
L 466.830304 28.042862 
L 467.478214 29.456365 
L 468.126124 30.169308 
L 468.774034 29.836638 
L 470.069767 27.043906 
L 470.717721 26.617635 
L 471.365587 27.359983 
L 472.661363 29.429747 
L 473.309273 30.256116 
L 473.957183 30.670371 
L 474.605093 30.579149 
L 475.25296 30.126997 
L 476.54878 28.677095 
L 477.19669 28.225773 
L 477.844512 28.296041 
L 479.140332 29.492214 
L 479.788286 30.085945 
L 480.436152 30.213758 
L 481.084019 29.503234 
L 481.731929 28.328308 
L 482.379839 27.7323 
L 483.027749 28.15107 
L 483.675615 29.274055 
L 484.971435 32.640398 
L 485.619302 33.78924 
L 486.915078 35.463907 
L 487.562988 36.245265 
L 488.210898 36.740643 
L 488.858808 36.982237 
L 489.506631 37.070487 
L 489.506631 37.070487 
" style="fill:none;stroke:#1f77b4;stroke-linecap:square;stroke-width:1.5;"/>
   </g>
   <g id="line2d_13">
    <path clip-path="url(#p27bc6a97e6)" d="M 43.106631 34.347263 
L 46.346115 37.056395 
L 50.233482 40.258795 
L 52.82506 41.954333 
L 59.95191 45.890224 
L 63.191396 47.379981 
L 65.782974 48.356504 
L 69.022458 49.296342 
L 72.909825 50.112083 
L 76.79719 50.708798 
L 80.684585 50.992386 
L 83.924042 51.03966 
L 85.219835 50.980804 
L 87.163529 51.064827 
L 89.107226 50.778129 
L 90.403014 50.592 
L 92.994588 50.331238 
L 94.938286 50.144629 
L 98.177743 50.06458 
L 100.12144 49.548883 
L 101.417233 49.229721 
L 103.360925 48.982271 
L 104.656712 48.581104 
L 107.896175 47.434734 
L 109.191989 47.048791 
L 111.135659 46.067129 
L 122.149878 39.742596 
L 125.389358 37.275301 
L 128.628842 34.398351 
L 133.164125 31.072265 
L 133.812002 30.765511 
L 135.755699 30.357137 
L 136.403577 30.42426 
L 137.699397 30.227403 
L 139.643061 29.846733 
L 140.938849 29.823211 
L 144.826243 29.195438 
L 145.474131 29.021562 
L 146.122041 28.978378 
L 148.713616 29.274357 
L 150.65728 28.747286 
L 151.9531 28.235039 
L 153.248888 27.478582 
L 154.544675 26.708626 
L 155.840462 26.432169 
L 156.48835 26.458458 
L 157.784138 26.907039 
L 159.079947 27.358696 
L 160.375734 27.414314 
L 161.671521 27.306381 
L 164.263107 27.331798 
L 166.206793 27.929661 
L 167.502581 28.36593 
L 168.798368 28.482947 
L 173.981528 28.44685 
L 175.277326 28.695606 
L 179.164688 29.957849 
L 184.347859 32.720336 
L 186.291545 33.293755 
L 187.587354 33.933148 
L 189.531019 35.037103 
L 191.474716 36.015019 
L 192.770503 36.919037 
L 195.362078 39.169142 
L 196.657876 39.861724 
L 201.193137 41.885025 
L 202.488935 42.587973 
L 203.784733 42.968031 
L 205.72842 43.053349 
L 207.024218 43.17069 
L 208.319994 43.568044 
L 209.615793 44.079766 
L 210.911569 44.272173 
L 214.151054 44.404997 
L 215.446852 44.411476 
L 218.038426 44.619364 
L 221.925799 44.254667 
L 223.869485 43.652099 
L 225.813194 42.798033 
L 232.940051 39.216375 
L 236.179492 37.242504 
L 237.475312 36.565585 
L 238.771066 36.144656 
L 242.010551 34.30286 
L 244.602147 33.672975 
L 245.897946 33.037335 
L 247.193722 32.302729 
L 247.841632 32.150366 
L 251.081116 32.034748 
L 251.729026 31.888828 
L 253.024781 31.407793 
L 254.320601 31.239608 
L 256.264266 31.114652 
L 258.85584 31.585091 
L 260.15166 32.220109 
L 261.447415 32.413186 
L 264.686899 32.559303 
L 271.165868 31.829819 
L 272.461667 31.21316 
L 275.701129 29.475874 
L 276.996949 28.432251 
L 278.292704 27.419443 
L 278.940614 27.097335 
L 281.532188 26.850284 
L 283.475897 26.250446 
L 284.771673 25.824936 
L 286.715381 25.089626 
L 287.363248 24.995913 
L 288.659046 25.231479 
L 289.954822 25.587464 
L 291.250642 25.619964 
L 292.546397 25.42589 
L 293.842217 25.52357 
L 295.785881 24.977886 
L 297.081701 24.392288 
L 299.025388 24.113865 
L 304.208537 23.613133 
L 306.152245 22.831618 
L 307.448021 22.237362 
L 308.74382 21.903327 
L 310.687484 21.768844 
L 311.983304 21.786385 
L 312.63117 21.948259 
L 313.926969 22.547833 
L 315.870655 23.660187 
L 317.166453 23.891532 
L 317.814363 23.857007 
L 319.110118 23.345712 
L 321.053804 23.257652 
L 322.997512 23.716208 
L 325.589087 24.490477 
L 328.180683 24.803217 
L 329.476482 25.41764 
L 330.772258 26.266274 
L 332.068078 27.453893 
L 334.011742 29.663315 
L 339.842802 36.533918 
L 341.138556 37.80629 
L 346.969615 42.579098 
L 348.913345 43.822703 
L 352.800674 45.760214 
L 356.040159 47.212558 
L 358.631755 48.124144 
L 365.110724 49.838649 
L 369.645985 50.654706 
L 372.88547 50.987593 
L 377.420775 51.054844 
L 380.660259 50.627269 
L 382.603924 50.279765 
L 385.195476 50.414829 
L 387.139141 49.881754 
L 391.674446 48.741629 
L 396.209706 47.832761 
L 398.153371 47.177082 
L 400.097123 46.301861 
L 403.984452 44.035905 
L 405.92816 42.477576 
L 409.815489 39.550016 
L 413.702906 36.682367 
L 415.646548 35.280655 
L 416.942368 34.630363 
L 417.590278 34.387026 
L 420.829741 33.819285 
L 421.477651 33.586695 
L 422.773471 32.827222 
L 424.069204 32.410425 
L 426.6608 31.057528 
L 432.491816 27.401889 
L 433.139769 27.078711 
L 433.787636 26.890525 
L 434.435589 26.821694 
L 435.083412 26.524226 
L 435.731322 26.003466 
L 436.379232 25.678131 
L 438.322919 25.175487 
L 439.618739 24.684032 
L 441.562381 23.601918 
L 446.097708 20.926053 
L 446.74553 20.750084 
L 448.68926 21.03372 
L 449.985037 20.746708 
L 451.280857 20.308296 
L 452.576633 20.261805 
L 453.2245 20.361697 
L 457.759826 22.035666 
L 458.407649 22.424771 
L 462.295065 23.557368 
L 463.590798 24.611605 
L 464.238751 25.248259 
L 464.886618 25.727281 
L 466.182438 26.189579 
L 467.478214 26.699276 
L 468.774034 27.523222 
L 471.365587 28.662854 
L 476.54878 30.572671 
L 480.436152 32.591584 
L 482.379839 34.000723 
L 483.675615 35.246485 
L 486.267255 38.081884 
L 488.210898 39.620264 
L 489.506631 40.434098 
L 489.506631 40.434098 
" style="fill:none;stroke:#ff7f0e;stroke-dasharray:5.55,2.4;stroke-dashoffset:0;stroke-width:1.5;"/>
   </g>
   <g id="patch_3">
    <path d="M 43.106631 71.152941 
L 43.106631 7.2 
" style="fill:none;stroke:#000000;stroke-linecap:square;stroke-linejoin:miter;stroke-width:0.8;"/>
   </g>
   <g id="patch_4">
    <path d="M 489.506631 71.152941 
L 489.506631 7.2 
" style="fill:none;stroke:#000000;stroke-linecap:square;stroke-linejoin:miter;stroke-width:0.8;"/>
   </g>
   <g id="patch_5">
    <path d="M 43.106631 71.152941 
L 489.506631 71.152941 
" style="fill:none;stroke:#000000;stroke-linecap:square;stroke-linejoin:miter;stroke-width:0.8;"/>
   </g>
   <g id="patch_6">
    <path d="M 43.106631 7.2 
L 489.506631 7.2 
" style="fill:none;stroke:#000000;stroke-linecap:square;stroke-linejoin:miter;stroke-width:0.8;"/>
   </g>
   <g id="legend_1">
    <g id="patch_7">
     <path d="M 199.791446 66.152941 
L 332.821815 66.152941 
Q 334.821815 66.152941 334.821815 64.152941 
L 334.821815 50.617325 
Q 334.821815 48.617325 332.821815 48.617325 
L 199.791446 48.617325 
Q 197.791446 48.617325 197.791446 50.617325 
L 197.791446 64.152941 
Q 197.791446 66.152941 199.791446 66.152941 
z
" style="fill:#ffffff;opacity:0.8;stroke:#cccccc;stroke-linejoin:miter;"/>
    </g>
    <g id="line2d_14">
     <path d="M 201.791446 56.715763 
L 221.791446 56.715763 
" style="fill:none;stroke:#1f77b4;stroke-linecap:square;stroke-width:1.5;"/>
    </g>
    <g id="line2d_15"/>
    <g id="text_5">
     <!-- $\rho$ -->
     <g transform="translate(229.791446 60.215763)scale(0.1 -0.1)">
      <defs>
       <path d="M 3.09375 -17.296875 
C 3 -17.796875 2.796875 -18.390625 2.796875 -19 
C 2.796875 -20.5 4 -21.5 5.5 -21.5 
C 7 -21.5 8.40625 -20.5 9 -19.09375 
C 9.40625 -18.1875 12.203125 -6.203125 15.40625 6.09375 
C 17.40625 1.09375 21.09375 -1 25 -1 
C 36.296875 -1 49.09375 12.96875 49.09375 28.046875 
C 49.09375 38.71875 42.59375 44 35.703125 44 
C 26.90625 44 16.203125 34.921875 12.90625 21.640625 
z
M 24.90625 1 
C 18.09375 1 16.40625 8.890625 16.40625 10.078125 
C 16.40625 10.6875 18.90625 20.234375 19.203125 21.734375 
C 24.296875 41.71875 34.09375 41.71875 35.59375 41.71875 
C 40.09375 41.71875 42.59375 37.65625 42.59375 31.8125 
C 42.59375 26.75 39.90625 16.9375 38.203125 12.796875 
C 35.203125 5.953125 30 1 24.90625 1 
z
" id="CMMI12-26"/>
      </defs>
      <use transform="scale(0.996264)" xlink:href="#CMMI12-26"/>
     </g>
    </g>
    <g id="line2d_16">
     <path d="M 254.942281 56.715763 
L 274.942281 56.715763 
" style="fill:none;stroke:#ff7f0e;stroke-dasharray:5.55,2.4;stroke-dashoffset:0;stroke-width:1.5;"/>
    </g>
    <g id="line2d_17"/>
    <g id="text_6">
     <!-- $\rho$, weighted -->
     <g transform="translate(282.942281 60.215763)scale(0.1 -0.1)">
      <defs>
       <path d="M 17 0.09375 
L 17 7.96875 
L 9 7.96875 
L 9 0 
L 11.5 0 
L 8.90625 -12.5 
L 12.90625 -12.5 
z
" id="CMSS17-44"/>
       <path d="M 62.703125 43 
L 55.09375 43 
L 49.796875 25.015625 
C 48.703125 21.21875 45.59375 10.703125 45.203125 5.796875 
L 45.09375 5.796875 
C 44.90625 8.8125 43.203125 16 40.40625 25.515625 
L 35.296875 43 
L 28.40625 43 
L 23.40625 25.90625 
C 20.90625 17.203125 19 9.796875 18.796875 5.796875 
L 18.703125 5.796875 
C 18.296875 11.703125 14.203125 25.515625 13.59375 27.703125 
L 9.09375 43 
L 1.296875 43 
L 14.296875 0 
L 21.90625 0 
C 27.09375 17.125 31.09375 30.359375 31.40625 37.03125 
C 31.59375 33.75 33.296875 26.671875 34.296875 23.1875 
L 40.90625 0 
L 49.703125 0 
z
" id="CMSS17-119"/>
       <path d="M 39.09375 21.515625 
C 39.09375 24.84375 38.90625 31.296875 35.703125 36.640625 
C 32.203125 42.390625 26.5 44 22.203125 44 
C 11.796875 44 3 34.1875 3 21.484375 
C 3 9.09375 12.09375 -1 23.59375 -1 
C 28.09375 -1 33.59375 0.296875 38.59375 3.875 
C 38.59375 4.28125 38.40625 6.46875 38.296875 6.5625 
C 38.296875 6.765625 38 9.84375 38 10.25 
C 33.203125 6.359375 27.703125 5.078125 23.703125 5.078125 
C 17.296875 5.078125 10.40625 10.421875 10.09375 21.515625 
z
M 10.90625 27 
C 12.203125 32.5625 16.59375 37.828125 22.203125 37.828125 
C 23.703125 37.828125 30.703125 37.828125 32.5 27 
z
" id="CMSS17-101"/>
       <path d="M 15.296875 65.359375 
L 6.90625 65.359375 
L 6.90625 57 
L 15.296875 57 
z
M 14.796875 42.796875 
L 7.40625 42.796875 
L 7.40625 0 
L 14.796875 0 
z
" id="CMSS17-105"/>
       <path d="M 44.5 43.875 
C 38.796875 43.875 33.90625 42.78125 29.90625 40.890625 
C 26.59375 43.390625 23.203125 43.875 20.90625 43.875 
C 12.203125 43.875 5.59375 36.703125 5.59375 28.34375 
C 5.59375 22.9375 8.59375 18.859375 8.796875 18.671875 
C 7 16.171875 6 13.484375 6 10.5 
C 6 7 7.40625 4.515625 8.5 3.125 
C 3.296875 -0.046875 2.59375 -4.90625 2.59375 -6.796875 
C 2.59375 -14.03125 11.703125 -20 23.40625 -20 
C 35.203125 -20 44.296875 -14.03125 44.296875 -6.6875 
C 44.296875 7 29 7 24.796875 7 
L 16.703125 7 
C 15.203125 7 11.203125 7 11.203125 12.359375 
C 11.203125 14.390625 12.09375 15.6875 12.203125 15.78125 
C 13.703125 14.6875 16.796875 13 20.90625 13 
C 29.203125 13 36.09375 19.96875 36.09375 28.546875 
C 36.09375 33.3125 33.90625 36.796875 33 38 
L 33.296875 38 
C 33.59375 38 37.796875 38 39.296875 38 
C 42.5 38 42.796875 37.953125 45.59375 37.796875 
z
M 20.90625 18.46875 
C 17.5 18.46875 12.703125 20.546875 12.703125 28.484375 
C 12.703125 37.109375 18.203125 38.5 20.796875 38.5 
C 24.203125 38.5 29 36.421875 29 28.484375 
C 29 19.859375 23.5 18.46875 20.90625 18.46875 
z
M 24.703125 -0.15625 
C 27.09375 -0.15625 37.203125 -0.15625 37.203125 -6.90625 
C 37.203125 -11.15625 31 -14.515625 23.5 -14.515625 
C 15.90625 -14.515625 9.703125 -11.25 9.703125 -6.796875 
C 9.703125 -6.296875 9.703125 -0.15625 16.59375 -0.15625 
z
" id="CMSS17-103"/>
       <path d="M 40.90625 29.546875 
C 40.90625 35.8125 39.40625 44.0625 28.09375 44.0625 
C 21.796875 44.0625 17.703125 40.984375 14.796875 37.609375 
L 14.796875 69.5 
L 7.40625 69.5 
L 7.40625 0.5 
L 15 0.5 
L 15 24.578125 
C 15 30.828125 17.40625 38 24.203125 38 
C 33 38 33.296875 32.125 33.296875 28.734375 
L 33.296875 0.5 
L 40.90625 0.5 
z
" id="CMSS17-104"/>
       <path d="M 16.703125 37 
L 29.703125 37 
L 29.703125 42.765625 
L 16.703125 42.765625 
L 16.703125 55 
L 9.59375 55 
L 9.59375 42.765625 
L 1.703125 42.765625 
L 1.703125 37 
L 9.40625 37 
L 9.40625 11.703125 
C 9.40625 6 10.703125 -1 17.296875 -1 
C 22.296875 -1 26.90625 0.390625 31.296875 2.6875 
L 29.703125 8.5625 
C 27.296875 6.46875 24.40625 5.265625 21.296875 5.265625 
C 16.90625 5.265625 16.703125 10.875 16.703125 13.375 
z
" id="CMSS17-116"/>
       <path d="M 40.796875 69 
L 33.40625 69 
L 33.40625 38.09375 
C 30.296875 40.671875 25.203125 43.0625 19.59375 43.0625 
C 10.5 43.0625 3.296875 33.296875 3.296875 21.046875 
C 3.296875 8.78125 10.40625 -1 19.296875 -1 
C 26.203125 -1 30.796875 2.6875 33.203125 4.78125 
L 33.203125 -0.203125 
L 40.796875 -0.203125 
z
M 33.203125 13.0625 
C 33.203125 11.671875 33.203125 10.203125 30.09375 7.53125 
C 28.09375 5.859375 25.703125 5.078125 23.40625 5.078125 
C 18 5.078125 10.90625 9 10.90625 20.9375 
C 10.90625 33.34375 18.90625 37 24.40625 37 
C 28.09375 37 31.09375 35.21875 33.203125 32.265625 
z
" id="CMSS17-100"/>
      </defs>
      <use transform="scale(0.996264)" xlink:href="#CMMI12-26"/>
      <use transform="translate(50.314373 0)scale(0.996264)" xlink:href="#CMSS17-44"/>
      <use transform="translate(107.56769 0)scale(0.996264)" xlink:href="#CMSS17-119"/>
      <use transform="translate(168.784782 0)scale(0.996264)" xlink:href="#CMSS17-101"/>
      <use transform="translate(210.423604 0)scale(0.996264)" xlink:href="#CMSS17-105"/>
      <use transform="translate(232.604327 0)scale(0.996264)" xlink:href="#CMSS17-103"/>
      <use transform="translate(279.44795 0)scale(0.996264)" xlink:href="#CMSS17-104"/>
      <use transform="translate(327.652893 0)scale(0.996264)" xlink:href="#CMSS17-116"/>
      <use transform="translate(361.48446 0)scale(0.996264)" xlink:href="#CMSS17-101"/>
      <use transform="translate(403.123282 0)scale(0.996264)" xlink:href="#CMSS17-100"/>
     </g>
    </g>
   </g>
  </g>
  <g id="axes_2">
   <g id="patch_8">
    <path d="M 43.106631 147.896471 
L 489.506631 147.896471 
L 489.506631 83.943529 
L 43.106631 83.943529 
z
" style="fill:#ffffff;"/>
   </g>
   <g id="matplotlib.axis_3">
    <g id="xtick_9">
     <g id="line2d_18">
      <g>
       <use style="stroke:#000000;stroke-width:0.8;" x="43.106631" xlink:href="#m5f2c4d2dfc" y="147.896471"/>
      </g>
     </g>
    </g>
    <g id="xtick_10">
     <g id="line2d_19">
      <g>
       <use style="stroke:#000000;stroke-width:0.8;" x="100.324567" xlink:href="#m5f2c4d2dfc" y="147.896471"/>
      </g>
     </g>
    </g>
    <g id="xtick_11">
     <g id="line2d_20">
      <g>
       <use style="stroke:#000000;stroke-width:0.8;" x="157.542503" xlink:href="#m5f2c4d2dfc" y="147.896471"/>
      </g>
     </g>
    </g>
    <g id="xtick_12">
     <g id="line2d_21">
      <g>
       <use style="stroke:#000000;stroke-width:0.8;" x="214.760439" xlink:href="#m5f2c4d2dfc" y="147.896471"/>
      </g>
     </g>
    </g>
    <g id="xtick_13">
     <g id="line2d_22">
      <g>
       <use style="stroke:#000000;stroke-width:0.8;" x="271.978375" xlink:href="#m5f2c4d2dfc" y="147.896471"/>
      </g>
     </g>
    </g>
    <g id="xtick_14">
     <g id="line2d_23">
      <g>
       <use style="stroke:#000000;stroke-width:0.8;" x="329.196311" xlink:href="#m5f2c4d2dfc" y="147.896471"/>
      </g>
     </g>
    </g>
    <g id="xtick_15">
     <g id="line2d_24">
      <g>
       <use style="stroke:#000000;stroke-width:0.8;" x="386.414247" xlink:href="#m5f2c4d2dfc" y="147.896471"/>
      </g>
     </g>
    </g>
    <g id="xtick_16">
     <g id="line2d_25">
      <g>
       <use style="stroke:#000000;stroke-width:0.8;" x="443.632184" xlink:href="#m5f2c4d2dfc" y="147.896471"/>
      </g>
     </g>
    </g>
   </g>
   <g id="matplotlib.axis_4">
    <g id="ytick_4">
     <g id="line2d_26">
      <g>
       <use style="stroke:#000000;stroke-width:0.8;" x="43.106631" xlink:href="#m40826a6c66" y="137.815557"/>
      </g>
     </g>
     <g id="text_7">
      <!-- -0.1 -->
      <g transform="translate(20.055677 141.274806)scale(0.1 -0.1)">
       <use transform="scale(0.996264)" xlink:href="#CMSS17-45"/>
       <use transform="translate(31.229113 0)scale(0.996264)" xlink:href="#CMSS17-48"/>
       <use transform="translate(78.072736 0)scale(0.996264)" xlink:href="#CMSS17-46"/>
       <use transform="translate(104.096941 0)scale(0.996264)" xlink:href="#CMSS17-49"/>
      </g>
     </g>
    </g>
    <g id="ytick_5">
     <g id="line2d_27">
      <g>
       <use style="stroke:#000000;stroke-width:0.8;" x="43.106631" xlink:href="#m40826a6c66" y="113.001454"/>
      </g>
     </g>
     <g id="text_8">
      <!-- 0.0 -->
      <g transform="translate(23.376552 116.460703)scale(0.1 -0.1)">
       <use transform="scale(0.996264)" xlink:href="#CMSS17-48"/>
       <use transform="translate(46.843624 0)scale(0.996264)" xlink:href="#CMSS17-46"/>
       <use transform="translate(72.867828 0)scale(0.996264)" xlink:href="#CMSS17-48"/>
      </g>
     </g>
    </g>
    <g id="ytick_6">
     <g id="line2d_28">
      <g>
       <use style="stroke:#000000;stroke-width:0.8;" x="43.106631" xlink:href="#m40826a6c66" y="88.187351"/>
      </g>
     </g>
     <g id="text_9">
      <!-- 0.1 -->
      <g transform="translate(23.376552 91.6466)scale(0.1 -0.1)">
       <use transform="scale(0.996264)" xlink:href="#CMSS17-48"/>
       <use transform="translate(46.843624 0)scale(0.996264)" xlink:href="#CMSS17-46"/>
       <use transform="translate(72.867828 0)scale(0.996264)" xlink:href="#CMSS17-49"/>
      </g>
     </g>
    </g>
    <g id="text_10">
     <!-- $\mathbf{ v }_2$ -->
     <g transform="translate(14.118498 120.928987)rotate(-90)scale(0.1 -0.1)">
      <defs>
       <path d="M 41.703125 15.453125 
L 39.90625 15.453125 
C 38.90625 8.375 38.09375 7.171875 37.703125 6.5625 
C 37.203125 5.765625 30 5.765625 28.59375 5.765625 
L 9.40625 5.765625 
C 13 9.671875 20 16.75 28.5 24.953125 
C 34.59375 30.734375 41.703125 37.53125 41.703125 47.421875 
C 41.703125 59.21875 32.296875 66 21.796875 66 
C 10.796875 66 4.09375 56.3125 4.09375 47.34375 
C 4.09375 43.4375 7 42.9375 8.203125 42.9375 
C 9.203125 42.9375 12.203125 43.546875 12.203125 47.03125 
C 12.203125 50.109375 9.59375 51 8.203125 51 
C 7.59375 51 7 50.90625 6.59375 50.703125 
C 8.5 59.21875 14.296875 63.40625 20.40625 63.40625 
C 29.09375 63.40625 34.796875 56.515625 34.796875 47.421875 
C 34.796875 38.734375 29.703125 31.25 24 24.75 
L 4.09375 2.28125 
L 4.09375 0 
L 39.296875 0 
z
" id="CMR17-50"/>
      </defs>
      <use transform="scale(0.996264)" xlink:href="#CMBX12-118"/>
      <use transform="translate(59.153176 -14.943915)scale(0.697382)" xlink:href="#CMR17-50"/>
     </g>
    </g>
   </g>
   <g id="line2d_29">
    <path clip-path="url(#p5976b60b70)" d="M 43.106631 103.509925 
L 45.050326 103.412543 
L 47.641904 103.114031 
L 48.937693 103.345166 
L 49.585575 103.271507 
L 52.82506 101.812972 
L 54.120848 100.725682 
L 54.768754 100.550759 
L 56.064544 100.791351 
L 56.712426 100.645583 
L 58.656122 99.503574 
L 59.304029 99.4601 
L 60.599818 99.644611 
L 61.895608 99.68512 
L 64.487184 100.030895 
L 66.430878 99.714111 
L 68.374551 99.965288 
L 70.318248 99.858793 
L 71.614035 100.153044 
L 72.261918 100.175372 
L 73.557733 99.915152 
L 76.14931 100.499845 
L 76.79719 100.711667 
L 77.445097 100.803168 
L 78.09298 100.625796 
L 78.740887 100.610018 
L 80.036675 101.492529 
L 80.684585 101.247637 
L 81.332465 100.629758 
L 81.980375 101.019448 
L 82.628255 102.127575 
L 83.276162 102.848123 
L 83.924042 102.891025 
L 84.571949 102.333327 
L 85.219835 101.292709 
L 85.867736 101.811404 
L 86.515622 103.490124 
L 87.163529 104.32366 
L 88.459316 105.372955 
L 89.107226 105.342687 
L 89.755104 104.843935 
L 90.403014 105.022566 
L 91.050891 105.601033 
L 91.698801 105.305905 
L 92.346684 104.75013 
L 94.290381 103.898502 
L 95.586168 102.079213 
L 96.234073 102.775432 
L 97.529866 106.3711 
L 98.177743 106.990578 
L 98.825653 107.241205 
L 99.473536 107.810081 
L 100.12144 107.735363 
L 101.417233 104.78688 
L 102.065132 105.458648 
L 102.71302 107.821374 
L 103.360925 109.682294 
L 104.008807 111.009375 
L 104.656712 111.947809 
L 105.304595 112.576684 
L 105.952499 112.590034 
L 107.248292 110.542206 
L 107.896175 111.849943 
L 108.544079 114.226703 
L 109.191989 115.863367 
L 109.839872 116.372481 
L 111.135659 117.952084 
L 113.079351 119.271419 
L 113.727239 119.811428 
L 115.670931 121.983395 
L 116.318841 122.120059 
L 117.614628 122.061537 
L 118.262511 122.756603 
L 120.206208 126.864583 
L 121.501996 129.190126 
L 123.445693 131.678594 
L 124.74148 133.061626 
L 125.389358 133.700863 
L 126.037268 134.132534 
L 126.685145 134.170451 
L 127.333055 134.341687 
L 127.980938 134.651563 
L 128.628842 134.685916 
L 129.27673 134.402 
L 130.572539 134.111405 
L 131.220428 133.489529 
L 132.516215 131.368657 
L 133.164125 129.820931 
L 133.812002 127.183593 
L 135.107789 121.011547 
L 135.755699 118.808615 
L 136.403577 117.967858 
L 137.699397 119.457618 
L 138.347274 119.45362 
L 140.290971 116.952735 
L 140.938849 116.616163 
L 142.882546 116.097333 
L 143.530434 115.273533 
L 145.474131 111.880274 
L 146.122041 111.229988 
L 147.417829 112.813466 
L 148.065706 112.979423 
L 149.361493 115.541131 
L 150.009403 116.051108 
L 150.65728 115.850711 
L 151.30519 115.411155 
L 151.9531 115.83432 
L 152.600978 116.765851 
L 153.248888 117.221506 
L 153.896765 116.731513 
L 154.544675 115.775682 
L 155.840462 113.171764 
L 157.13625 109.929651 
L 157.784138 109.156675 
L 158.432048 109.817251 
L 159.079947 111.178856 
L 160.375734 115.337377 
L 161.023622 115.766418 
L 161.671521 116.810915 
L 162.31941 117.628125 
L 163.615197 118.252599 
L 164.910984 119.551873 
L 165.558894 119.676319 
L 166.206793 118.886634 
L 166.854681 117.583617 
L 167.502581 117.140414 
L 168.150469 117.953656 
L 168.798368 119.349713 
L 169.446256 120.285207 
L 170.094166 120.661596 
L 170.742054 120.658656 
L 173.333651 119.329428 
L 175.277326 117.144689 
L 176.573113 116.515331 
L 177.221012 115.983996 
L 177.868901 115.118004 
L 178.5168 114.012558 
L 179.164688 113.245084 
L 180.460497 112.820065 
L 181.756284 112.77792 
L 183.052072 112.954317 
L 183.69996 112.78075 
L 184.995747 111.700274 
L 185.643657 111.080005 
L 186.939444 109.244538 
L 188.235232 108.586169 
L 189.531019 108.541391 
L 190.826806 107.938871 
L 191.474716 107.275214 
L 192.122593 106.051506 
L 192.770503 105.257029 
L 193.418392 105.26386 
L 194.714201 104.591306 
L 196.657876 104.490207 
L 197.305786 104.650977 
L 197.953653 104.945 
L 198.601563 105.393879 
L 199.249451 105.707194 
L 201.193137 105.710268 
L 203.136845 107.161426 
L 205.08051 106.765829 
L 205.72842 106.542064 
L 206.376308 105.844483 
L 207.672084 103.735007 
L 208.319994 104.063891 
L 208.967904 105.615078 
L 209.615793 106.383572 
L 210.911569 105.890074 
L 211.559479 106.227197 
L 212.207367 107.290603 
L 213.503144 107.69777 
L 214.151054 108.93296 
L 215.446852 109.463375 
L 216.742628 110.862178 
L 217.390538 111.243972 
L 218.038426 111.424671 
L 219.334224 112.702955 
L 219.982134 113.989154 
L 221.277911 117.028926 
L 223.221619 120.610867 
L 223.869485 121.706535 
L 224.517395 122.571941 
L 229.700545 127.83753 
L 230.996343 128.611578 
L 234.235827 131.34724 
L 236.827402 133.028913 
L 238.123222 132.563407 
L 239.418976 132.464151 
L 240.066886 132.537561 
L 240.714796 132.322749 
L 241.362663 131.469209 
L 242.010551 130.199174 
L 242.658461 129.55366 
L 243.954281 128.681805 
L 244.602147 128.119895 
L 245.250057 127.339018 
L 246.545856 125.114114 
L 247.193722 124.267379 
L 248.489542 122.864687 
L 249.137452 121.575434 
L 249.785296 121.078881 
L 251.729026 121.891795 
L 252.376937 121.759551 
L 253.024781 121.185667 
L 253.672691 119.800207 
L 254.968511 116.428785 
L 256.264266 113.228276 
L 256.912176 112.399762 
L 257.560086 112.496084 
L 258.85584 114.997061 
L 260.15166 114.095767 
L 260.79957 115.786842 
L 261.447415 115.3247 
L 262.743235 113.05051 
L 263.391145 112.877864 
L 264.038989 113.679988 
L 264.686899 114.913867 
L 265.334809 115.831078 
L 265.982719 116.172174 
L 267.278474 117.349252 
L 268.574294 118.395081 
L 269.222204 119.154749 
L 270.51798 120.904492 
L 271.165868 121.449776 
L 271.813778 121.740635 
L 274.405353 121.618334 
L 275.701129 121.82701 
L 276.349039 121.78792 
L 276.996949 121.340196 
L 277.644838 120.533778 
L 278.940614 117.953435 
L 279.588524 117.709605 
L 280.236412 118.871539 
L 280.884322 120.533897 
L 281.532188 121.295991 
L 284.123763 120.304436 
L 284.771673 120.576301 
L 285.419583 120.374596 
L 286.715381 119.092526 
L 288.011158 115.709477 
L 288.659046 113.541191 
L 289.306956 112.012623 
L 289.954822 111.882787 
L 290.602732 113.338457 
L 291.89853 118.857847 
L 292.546397 119.454038 
L 293.194307 118.101559 
L 293.842217 117.701973 
L 294.490105 117.69138 
L 295.785881 119.274573 
L 296.433791 119.52846 
L 297.729589 118.73004 
L 298.377478 118.923206 
L 299.025388 118.823333 
L 299.673276 118.314638 
L 300.969074 117.713872 
L 301.616962 117.649613 
L 302.26485 117.974318 
L 302.91276 118.460881 
L 304.208537 119.705471 
L 304.856425 119.690896 
L 305.504335 119.11068 
L 308.74382 114.013179 
L 310.039596 111.30969 
L 310.687484 110.477024 
L 311.335394 110.088757 
L 312.63117 109.976377 
L 313.27908 110.245924 
L 313.926969 111.721901 
L 314.574879 113.888778 
L 315.222789 115.622559 
L 315.870655 115.408248 
L 317.166453 112.530958 
L 317.814363 112.540294 
L 319.110118 114.277894 
L 319.758028 114.777354 
L 320.405938 114.786419 
L 321.053804 114.301376 
L 321.701714 113.664013 
L 322.349602 112.82898 
L 322.997512 111.801399 
L 323.645422 111.187763 
L 324.941177 110.781922 
L 326.236997 111.031183 
L 326.884863 110.817242 
L 328.828593 107.264546 
L 329.476482 106.479362 
L 330.772258 105.460557 
L 331.420168 104.687756 
L 332.715922 102.316588 
L 333.363832 101.621192 
L 334.659652 101.011625 
L 336.603317 100.895796 
L 337.899137 101.168621 
L 339.194892 101.821512 
L 339.842802 102.163468 
L 340.490712 102.320331 
L 341.786466 102.149919 
L 345.673861 101.522105 
L 346.969615 101.52291 
L 348.265457 101.290231 
L 349.561212 100.753814 
L 350.85701 100.020317 
L 352.15283 99.808563 
L 353.448606 99.688414 
L 358.631755 99.971032 
L 359.927575 99.343283 
L 360.575464 99.400987 
L 361.87124 99.908421 
L 363.16706 99.957746 
L 365.110724 100.594224 
L 366.406544 100.437749 
L 367.702321 101.1671 
L 368.350209 101.164568 
L 368.998097 100.983243 
L 369.645985 101.370557 
L 370.293874 102.049204 
L 370.941805 102.322581 
L 371.589694 101.949565 
L 372.237625 101.841929 
L 373.533358 103.637734 
L 374.18129 103.826615 
L 374.829178 103.68466 
L 375.477023 103.699677 
L 376.124955 103.842709 
L 376.772843 104.526957 
L 377.420775 105.664096 
L 378.068619 106.247112 
L 379.364439 107.083809 
L 381.308104 108.810793 
L 381.955992 108.623957 
L 382.603924 107.461997 
L 383.251812 107.395279 
L 383.899656 109.260131 
L 385.195476 111.008718 
L 385.843408 111.930953 
L 386.491296 112.285173 
L 387.139141 112.456864 
L 387.787073 112.780016 
L 389.730737 114.294661 
L 390.378626 114.30386 
L 391.026557 113.40762 
L 391.674446 112.820115 
L 392.322334 113.78737 
L 392.970222 115.340576 
L 393.618154 115.601251 
L 394.266042 113.597993 
L 394.91393 112.576353 
L 395.561818 114.199279 
L 396.209706 116.799748 
L 396.857638 118.66314 
L 398.153371 120.832568 
L 403.984452 129.658971 
L 405.280272 131.175936 
L 406.576005 132.333372 
L 409.815489 134.413119 
L 410.463399 134.554202 
L 411.111309 134.188218 
L 412.407086 132.104664 
L 413.702906 130.421297 
L 414.350772 129.30808 
L 415.646548 126.545746 
L 416.294458 125.596658 
L 416.942368 124.18388 
L 417.590278 122.21243 
L 418.238145 120.813127 
L 418.886055 120.320551 
L 419.533921 120.804503 
L 420.181875 121.583736 
L 420.829741 121.711265 
L 421.477651 121.051563 
L 423.421338 117.329967 
L 424.069204 117.285469 
L 425.365024 118.787818 
L 426.012934 118.986413 
L 429.25244 118.319726 
L 429.900263 117.876896 
L 430.548173 116.990743 
L 431.196083 115.688415 
L 431.843993 113.277911 
L 433.139769 107.000567 
L 433.787636 105.430714 
L 434.435589 106.163406 
L 435.083412 107.816092 
L 435.731322 110.543851 
L 436.379232 114.475223 
L 437.027142 117.607226 
L 438.322919 120.939706 
L 438.970785 121.673991 
L 439.618739 121.925475 
L 440.914471 121.920539 
L 443.506111 120.728185 
L 444.153934 119.991405 
L 444.801888 118.722284 
L 445.449754 116.422251 
L 446.74553 109.387654 
L 447.393484 108.146481 
L 448.04135 108.445906 
L 448.68926 110.076054 
L 449.985037 115.331173 
L 450.632947 116.954415 
L 451.280857 116.941264 
L 451.928767 115.231253 
L 452.576633 112.550842 
L 453.872453 104.281985 
L 454.52032 103.204628 
L 455.168186 103.336335 
L 455.816096 104.305497 
L 456.464006 107.386255 
L 457.111916 109.530942 
L 457.759826 111.220786 
L 458.407649 113.356515 
L 459.055602 114.484349 
L 459.703469 114.779716 
L 460.351422 114.905203 
L 460.999245 114.260043 
L 461.647155 112.820926 
L 463.590798 106.757075 
L 464.238751 105.889653 
L 464.886618 106.306979 
L 465.534571 107.775053 
L 466.830304 111.604598 
L 467.478214 112.884242 
L 468.126124 113.442754 
L 468.774034 112.976228 
L 470.069767 109.717406 
L 470.717721 109.016154 
L 471.365587 109.580812 
L 472.661363 111.388874 
L 473.309273 112.038522 
L 473.957183 112.221248 
L 474.605093 111.818792 
L 475.25296 111.01381 
L 475.90087 109.913171 
L 477.19669 107.302003 
L 477.844512 106.39841 
L 478.492466 105.945753 
L 479.788286 105.438245 
L 480.436152 104.592513 
L 481.084019 102.703603 
L 481.731929 100.295286 
L 482.379839 98.500804 
L 483.027749 97.73239 
L 483.675615 97.748586 
L 484.971435 99.323163 
L 485.619302 99.759659 
L 487.562988 100.434297 
L 488.210898 100.419855 
L 488.858808 100.186193 
L 489.506631 99.793386 
L 489.506631 99.793386 
" style="fill:none;stroke:#1f77b4;stroke-linecap:square;stroke-width:1.5;"/>
   </g>
   <g id="line2d_30">
    <path clip-path="url(#p5976b60b70)" d="M 43.106631 126.158989 
L 45.050326 126.202198 
L 46.346115 126.131206 
L 47.641904 125.842101 
L 50.233482 124.918359 
L 52.82506 124.041203 
L 54.768754 123.715462 
L 58.656122 123.224557 
L 64.487184 121.88204 
L 70.966128 120.086379 
L 76.14931 118.927524 
L 80.684585 117.918218 
L 85.867736 116.431358 
L 87.163529 116.115307 
L 88.459316 115.91691 
L 89.755104 115.52896 
L 91.050891 115.059663 
L 92.346684 114.823347 
L 94.938286 114.476356 
L 98.825653 113.645824 
L 100.12144 113.152486 
L 101.417233 112.348854 
L 105.304595 109.487924 
L 106.600387 108.175117 
L 109.191989 105.322145 
L 115.670931 99.571331 
L 119.558298 96.856428 
L 122.149878 95.686792 
L 124.09357 95.07867 
L 125.389358 94.930805 
L 126.037268 94.916211 
L 127.980938 95.210465 
L 129.27673 95.811891 
L 131.220428 96.831209 
L 132.516215 97.716927 
L 133.164125 98.061926 
L 133.812002 98.573906 
L 135.755699 100.753418 
L 137.051487 101.99173 
L 138.995184 104.496732 
L 139.643061 105.118118 
L 142.882546 107.16808 
L 146.122041 109.586516 
L 147.417829 110.396805 
L 148.713616 110.782146 
L 150.009403 110.958844 
L 151.9531 111.083901 
L 152.600978 111.351902 
L 153.248888 111.897594 
L 155.192552 114.171584 
L 155.840462 114.725702 
L 156.48835 115.092204 
L 157.13625 115.231788 
L 157.784138 115.116331 
L 159.079947 114.663567 
L 160.375734 114.525653 
L 161.671521 114.660137 
L 162.96732 114.318862 
L 164.263107 113.916782 
L 166.854681 112.958713 
L 168.150469 112.267198 
L 168.798368 112.116567 
L 169.446256 112.166329 
L 173.333651 113.426221 
L 174.629438 114.050549 
L 177.221012 115.420907 
L 179.164688 116.678856 
L 180.460497 117.044215 
L 182.404172 117.327727 
L 184.347859 117.57348 
L 186.939444 118.414574 
L 188.235232 118.641434 
L 188.883142 118.879151 
L 190.178929 119.755759 
L 191.474716 120.668081 
L 192.122593 120.993054 
L 192.770503 121.13722 
L 194.066291 120.921181 
L 196.009988 120.405679 
L 199.897361 119.926387 
L 201.193137 119.347218 
L 203.136845 118.438194 
L 205.08051 118.099662 
L 207.024218 117.824248 
L 208.967904 117.326725 
L 211.559479 116.638415 
L 214.798942 114.925222 
L 216.094762 114.043379 
L 218.038426 112.235417 
L 219.334224 110.914819 
L 222.573709 107.07623 
L 224.517395 104.877966 
L 227.756858 101.699062 
L 229.700545 100.032522 
L 232.940051 97.75199 
L 234.883715 96.678171 
L 236.179492 96.270348 
L 236.827402 96.306656 
L 238.123222 96.65857 
L 240.066886 96.838501 
L 241.362663 97.18652 
L 242.658461 97.372793 
L 244.602147 98.15763 
L 247.193722 99.60161 
L 248.489542 100.834247 
L 249.137452 101.234032 
L 251.081116 101.895353 
L 251.729026 102.323616 
L 253.672691 104.182252 
L 254.968511 105.295947 
L 258.207974 107.973608 
L 258.85584 108.572348 
L 259.50375 109.018968 
L 260.79957 109.416267 
L 262.095325 109.337607 
L 263.391145 109.017492 
L 264.038989 108.768421 
L 264.686899 108.695131 
L 265.982719 109.013379 
L 266.630629 109.22019 
L 267.278474 109.235509 
L 267.926384 109.003307 
L 269.222204 108.100986 
L 270.51798 107.19741 
L 271.813778 106.652277 
L 272.461667 106.541439 
L 273.757465 106.63309 
L 275.053263 106.780354 
L 276.349039 106.676408 
L 277.644838 106.892404 
L 278.292704 107.117642 
L 279.588524 107.851409 
L 280.884322 108.291586 
L 285.419583 110.317358 
L 287.363248 111.802951 
L 288.659046 112.306353 
L 291.250642 113.150752 
L 292.546397 113.802625 
L 293.194307 113.934424 
L 295.785881 113.196961 
L 297.081701 113.371744 
L 300.969074 113.918733 
L 302.91276 113.998065 
L 306.152245 114.594659 
L 307.448021 115.432531 
L 308.74382 116.611168 
L 311.983304 120.20346 
L 312.63117 120.918702 
L 313.27908 121.369644 
L 313.926969 121.434921 
L 314.574879 121.056613 
L 315.870655 119.938201 
L 317.166453 119.102333 
L 317.814363 118.947178 
L 319.758028 119.518446 
L 323.645422 121.277724 
L 324.293289 121.497621 
L 325.589087 122.395063 
L 326.884863 123.66652 
L 328.828593 125.678654 
L 332.715922 129.23465 
L 334.011742 130.203382 
L 335.307497 130.987376 
L 335.955407 131.235682 
L 336.603317 131.352883 
L 337.899137 131.221481 
L 339.194892 130.788765 
L 341.786466 129.473655 
L 343.730196 128.38616 
L 346.969615 126.197566 
L 348.913345 125.303315 
L 350.85701 124.709154 
L 353.448606 124.212282 
L 356.040159 123.703031 
L 359.279643 122.795606 
L 368.350209 119.950213 
L 372.237625 118.375021 
L 380.012327 114.383095 
L 383.251812 112.288616 
L 385.195476 110.70212 
L 387.139141 109.366306 
L 389.730737 107.411333 
L 391.674446 105.938607 
L 396.209706 102.0012 
L 399.449191 99.349154 
L 401.392856 97.65364 
L 403.984452 95.746909 
L 405.92816 94.512072 
L 407.223937 94.058501 
L 410.463399 93.566485 
L 411.111309 93.672379 
L 413.054996 94.67843 
L 414.998726 96.32959 
L 416.942368 97.695269 
L 418.238145 98.249864 
L 420.181875 98.845722 
L 421.477651 99.630137 
L 422.773471 100.420544 
L 426.012934 101.771497 
L 429.25244 104.086325 
L 431.196083 105.8676 
L 432.491816 107.301565 
L 433.787636 108.30048 
L 434.435589 108.633414 
L 435.731322 109.705134 
L 436.379232 109.934494 
L 437.675052 110.101536 
L 438.322919 109.826847 
L 439.618739 109.04705 
L 440.914471 108.636561 
L 441.562381 108.685802 
L 442.858201 109.220705 
L 443.506111 109.73219 
L 445.449754 112.030405 
L 446.097708 112.825295 
L 446.74553 113.436468 
L 448.04135 114.098941 
L 448.68926 114.753483 
L 451.280857 118.245598 
L 451.928767 118.797184 
L 453.2245 119.486238 
L 455.168186 119.831952 
L 457.111916 120.854188 
L 459.703469 120.906957 
L 460.999245 121.068419 
L 462.942975 121.649476 
L 464.238751 122.051288 
L 464.886618 122.480139 
L 466.182438 123.694261 
L 466.830304 124.095707 
L 467.478214 124.213507 
L 470.717721 123.319426 
L 473.309273 123.102503 
L 475.90087 122.737061 
L 477.19669 122.680282 
L 477.844512 122.786547 
L 478.492466 123.044869 
L 479.788286 123.985491 
L 481.731929 125.414509 
L 483.027749 126.068165 
L 484.323482 126.430436 
L 486.915078 126.871146 
L 489.506631 126.740617 
L 489.506631 126.740617 
" style="fill:none;stroke:#ff7f0e;stroke-dasharray:5.55,2.4;stroke-dashoffset:0;stroke-width:1.5;"/>
   </g>
   <g id="patch_9">
    <path d="M 43.106631 147.896471 
L 43.106631 83.943529 
" style="fill:none;stroke:#000000;stroke-linecap:square;stroke-linejoin:miter;stroke-width:0.8;"/>
   </g>
   <g id="patch_10">
    <path d="M 489.506631 147.896471 
L 489.506631 83.943529 
" style="fill:none;stroke:#000000;stroke-linecap:square;stroke-linejoin:miter;stroke-width:0.8;"/>
   </g>
   <g id="patch_11">
    <path d="M 43.106631 147.896471 
L 489.506631 147.896471 
" style="fill:none;stroke:#000000;stroke-linecap:square;stroke-linejoin:miter;stroke-width:0.8;"/>
   </g>
   <g id="patch_12">
    <path d="M 43.106631 83.943529 
L 489.506631 83.943529 
" style="fill:none;stroke:#000000;stroke-linecap:square;stroke-linejoin:miter;stroke-width:0.8;"/>
   </g>
  </g>
  <g id="axes_3">
   <g id="patch_13">
    <path d="M 43.106631 224.64 
L 489.506631 224.64 
L 489.506631 160.687059 
L 43.106631 160.687059 
z
" style="fill:#ffffff;"/>
   </g>
   <g id="matplotlib.axis_5">
    <g id="xtick_17">
     <g id="line2d_31">
      <g>
       <use style="stroke:#000000;stroke-width:0.8;" x="43.106631" xlink:href="#m5f2c4d2dfc" y="224.64"/>
      </g>
     </g>
     <g id="text_11">
      <!-- $\mathdefault{0}$ -->
      <g transform="translate(40.615963 238.558498)scale(0.1 -0.1)">
       <defs>
        <path d="M 42 31.640625 
C 42 37.75 41.90625 48.125 37.703125 56.109375 
C 34 63.109375 28.09375 65.59375 22.90625 65.59375 
C 18.09375 65.59375 12 63.40625 8.203125 56.203125 
C 4.203125 48.71875 3.796875 39.4375 3.796875 31.640625 
C 3.796875 25.953125 3.90625 17.28125 7 9.671875 
C 11.296875 -0.609375 19 -2 22.90625 -2 
C 27.5 -2 34.5 -0.109375 38.59375 9.375 
C 41.59375 16.28125 42 24.359375 42 31.640625 
z
M 22.90625 -0.40625 
C 16.5 -0.40625 12.703125 5.078125 11.296875 12.6875 
C 10.203125 18.5625 10.203125 27.15625 10.203125 32.75 
C 10.203125 40.4375 10.203125 46.828125 11.5 52.921875 
C 13.40625 61.390625 19 64 22.90625 64 
C 27 64 32.296875 61.296875 34.203125 53.125 
C 35.5 47.4375 35.59375 40.734375 35.59375 32.75 
C 35.59375 26.25 35.59375 18.265625 34.40625 12.375 
C 32.296875 1.484375 26.40625 -0.40625 22.90625 -0.40625 
z
" id="CMR17-48"/>
       </defs>
       <use transform="scale(0.996264)" xlink:href="#CMR17-48"/>
      </g>
     </g>
    </g>
    <g id="xtick_18">
     <g id="line2d_32">
      <g>
       <use style="stroke:#000000;stroke-width:0.8;" x="100.324567" xlink:href="#m5f2c4d2dfc" y="224.64"/>
      </g>
     </g>
     <g id="text_12">
      <!-- $\mathdefault{5}$ -->
      <g transform="translate(97.833899 238.558498)scale(0.1 -0.1)">
       <defs>
        <path d="M 11.40625 57.6875 
C 12.40625 57.28125 16.5 56 20.703125 56 
C 30 56 35.09375 61.109375 38 64.0625 
C 38 64.953125 38 65.5 37.40625 65.5 
C 37.296875 65.5 37.09375 65.5 36.296875 65.046875 
C 32.796875 63.40625 28.703125 62.078125 23.703125 62.078125 
C 20.703125 62.078125 16.203125 62.484375 11.296875 64.671875 
C 10.203125 65.171875 10 65.171875 9.90625 65.171875 
C 9.40625 65.171875 9.296875 65.0625 9.296875 63.078125 
L 9.296875 34.421875 
C 9.296875 32.640625 9.296875 32.140625 10.296875 32.140625 
C 10.796875 32.140625 11 32.34375 11.5 33.03125 
C 14.703125 37.515625 19.09375 39.40625 24.09375 39.40625 
C 27.59375 39.40625 35.09375 37.21875 35.09375 20.140625 
C 35.09375 16.953125 35.09375 11.171875 32.09375 6.578125 
C 29.59375 2.484375 25.703125 0.390625 21.40625 0.390625 
C 14.796875 0.390625 8.09375 5 6.296875 12.71875 
C 6.703125 12.609375 7.5 12.421875 7.90625 12.421875 
C 9.203125 12.421875 11.703125 13.125 11.703125 16.21875 
C 11.703125 18.90625 9.796875 20 7.90625 20 
C 5.59375 20 4.09375 18.59375 4.09375 15.796875 
C 4.09375 7.09375 11 -2 21.59375 -2 
C 31.90625 -2 41.703125 6.875 41.703125 19.75 
C 41.703125 31.71875 33.90625 41 24.203125 41 
C 19.09375 41 14.796875 39.109375 11.40625 35.53125 
z
" id="CMR17-53"/>
       </defs>
       <use transform="scale(0.996264)" xlink:href="#CMR17-53"/>
      </g>
     </g>
    </g>
    <g id="xtick_19">
     <g id="line2d_33">
      <g>
       <use style="stroke:#000000;stroke-width:0.8;" x="157.542503" xlink:href="#m5f2c4d2dfc" y="224.64"/>
      </g>
     </g>
     <g id="text_13">
      <!-- $\mathdefault{10}$ -->
      <g transform="translate(152.561168 238.558498)scale(0.1 -0.1)">
       <use transform="scale(0.996264)" xlink:href="#CMR17-49"/>
       <use transform="translate(45.690477 0)scale(0.996264)" xlink:href="#CMR17-48"/>
      </g>
     </g>
    </g>
    <g id="xtick_20">
     <g id="line2d_34">
      <g>
       <use style="stroke:#000000;stroke-width:0.8;" x="214.760439" xlink:href="#m5f2c4d2dfc" y="224.64"/>
      </g>
     </g>
     <g id="text_14">
      <!-- $\mathdefault{15}$ -->
      <g transform="translate(209.779104 238.558498)scale(0.1 -0.1)">
       <use transform="scale(0.996264)" xlink:href="#CMR17-49"/>
       <use transform="translate(45.690477 0)scale(0.996264)" xlink:href="#CMR17-53"/>
      </g>
     </g>
    </g>
    <g id="xtick_21">
     <g id="line2d_35">
      <g>
       <use style="stroke:#000000;stroke-width:0.8;" x="271.978375" xlink:href="#m5f2c4d2dfc" y="224.64"/>
      </g>
     </g>
     <g id="text_15">
      <!-- $\mathdefault{20}$ -->
      <g transform="translate(266.99704 238.558498)scale(0.1 -0.1)">
       <use transform="scale(0.996264)" xlink:href="#CMR17-50"/>
       <use transform="translate(45.690477 0)scale(0.996264)" xlink:href="#CMR17-48"/>
      </g>
     </g>
    </g>
    <g id="xtick_22">
     <g id="line2d_36">
      <g>
       <use style="stroke:#000000;stroke-width:0.8;" x="329.196311" xlink:href="#m5f2c4d2dfc" y="224.64"/>
      </g>
     </g>
     <g id="text_16">
      <!-- $\mathdefault{25}$ -->
      <g transform="translate(324.214976 238.558498)scale(0.1 -0.1)">
       <use transform="scale(0.996264)" xlink:href="#CMR17-50"/>
       <use transform="translate(45.690477 0)scale(0.996264)" xlink:href="#CMR17-53"/>
      </g>
     </g>
    </g>
    <g id="xtick_23">
     <g id="line2d_37">
      <g>
       <use style="stroke:#000000;stroke-width:0.8;" x="386.414247" xlink:href="#m5f2c4d2dfc" y="224.64"/>
      </g>
     </g>
     <g id="text_17">
      <!-- $\mathdefault{30}$ -->
      <g transform="translate(381.432912 238.558498)scale(0.1 -0.1)">
       <defs>
        <path d="M 22.09375 33.703125 
C 31 33.703125 34.90625 25.96875 34.90625 17.03125 
C 34.90625 5 28.5 0.390625 22.703125 0.390625 
C 17.40625 0.390625 8.796875 3.03125 6.09375 10.828125 
C 6.59375 10.625 7.09375 10.625 7.59375 10.625 
C 10 10.625 11.796875 12.21875 11.796875 14.8125 
C 11.796875 17.703125 9.59375 19 7.59375 19 
C 5.90625 19 3.296875 18.203125 3.296875 14.46875 
C 3.296875 5.234375 12.296875 -2 22.90625 -2 
C 34 -2 42.5 6.71875 42.5 16.953125 
C 42.5 26.671875 34.5 33.703125 25 34.796875 
C 32.59375 36.375 39.90625 43.0625 39.90625 52.015625 
C 39.90625 59.6875 32 65.296875 23 65.296875 
C 13.90625 65.296875 5.90625 59.828125 5.90625 52.015625 
C 5.90625 48.59375 8.5 48 9.796875 48 
C 11.90625 48 13.703125 49.296875 13.703125 51.890625 
C 13.703125 54.46875 11.90625 55.765625 9.796875 55.765625 
C 9.40625 55.765625 8.90625 55.765625 8.5 55.578125 
C 11.40625 61.859375 19.296875 63 22.796875 63 
C 26.296875 63 32.90625 61.328125 32.90625 51.875 
C 32.90625 49.109375 32.5 44.1875 29.09375 39.84375 
C 26.09375 36 22.703125 36 19.40625 35.6875 
C 18.90625 35.6875 16.59375 35.453125 16.203125 35.453125 
C 15.5 35.359375 15.09375 35.265625 15.09375 34.5 
C 15.09375 33.796875 15.203125 33.703125 17.203125 33.703125 
z
" id="CMR17-51"/>
       </defs>
       <use transform="scale(0.996264)" xlink:href="#CMR17-51"/>
       <use transform="translate(45.690477 0)scale(0.996264)" xlink:href="#CMR17-48"/>
      </g>
     </g>
    </g>
    <g id="xtick_24">
     <g id="line2d_38">
      <g>
       <use style="stroke:#000000;stroke-width:0.8;" x="443.632184" xlink:href="#m5f2c4d2dfc" y="224.64"/>
      </g>
     </g>
     <g id="text_18">
      <!-- $\mathdefault{35}$ -->
      <g transform="translate(438.650848 238.558498)scale(0.1 -0.1)">
       <use transform="scale(0.996264)" xlink:href="#CMR17-51"/>
       <use transform="translate(45.690477 0)scale(0.996264)" xlink:href="#CMR17-53"/>
      </g>
     </g>
    </g>
    <g id="text_19">
     <!-- $\tilde{t}$ -->
     <g transform="translate(263.746765 251.414175)scale(0.1 -0.1)">
      <defs>
       <path d="M 37.5 65.375 
C 34.09375 62.1875 32.203125 60.390625 29.09375 60.390625 
C 26.90625 60.390625 25.40625 61.4375 23.296875 62.875 
C 21.296875 64.234375 19.703125 65.375 17.5 65.375 
C 13.90625 65.375 11.40625 62.5625 7.203125 58.09375 
L 8.296875 57 
C 11.703125 60.15625 13.59375 62 16.703125 62 
C 18.90625 62 20.40625 60.9375 22.5 59.5 
C 24.5 58.15625 26.09375 57 28.296875 57 
C 31.90625 57 34.40625 59.8125 38.59375 64.28125 
z
" id="CMR17-126"/>
       <path d="M 20.09375 40.09375 
L 29.296875 40.09375 
C 31.203125 40.09375 32.203125 40.09375 32.203125 41.890625 
C 32.203125 43 31.59375 43 29.59375 43 
L 20.796875 43 
L 24.5 57.6875 
C 24.90625 59.078125 24.90625 59.28125 24.90625 60 
C 24.90625 61.609375 23.59375 62.5 22.296875 62.5 
C 21.5 62.5 19.203125 62.203125 18.40625 58.984375 
L 14.5 43 
L 5.09375 43 
C 3.09375 43 2.203125 43 2.203125 41.09375 
C 2.203125 40.09375 2.90625 40.09375 4.796875 40.09375 
L 13.703125 40.09375 
L 7.09375 13.765625 
C 6.296875 10.28125 6 9.28125 6 7.984375 
C 6 3.296875 9.296875 -1 14.90625 -1 
C 25 -1 30.40625 13.5625 30.40625 14.25 
C 30.40625 14.859375 30 15.15625 29.40625 15.15625 
C 29.203125 15.15625 28.796875 15.15625 28.59375 14.75 
C 28.5 14.65625 28.40625 14.546875 27.703125 12.953125 
C 25.59375 7.984375 21 1 15.203125 1 
C 12.203125 1 12 3.5 12 5.6875 
C 12 5.78125 12 7.6875 12.296875 8.875 
z
" id="CMMI12-116"/>
      </defs>
      <use transform="translate(2.89708 18.389976)scale(0.996264)" xlink:href="#CMR17-126"/>
      <use transform="scale(0.996264)" xlink:href="#CMMI12-116"/>
     </g>
    </g>
   </g>
   <g id="matplotlib.axis_6">
    <g id="ytick_7">
     <g id="line2d_39">
      <g>
       <use style="stroke:#000000;stroke-width:0.8;" x="43.106631" xlink:href="#m40826a6c66" y="214.559086"/>
      </g>
     </g>
     <g id="text_20">
      <!-- -0.1 -->
      <g transform="translate(20.055677 218.018335)scale(0.1 -0.1)">
       <use transform="scale(0.996264)" xlink:href="#CMSS17-45"/>
       <use transform="translate(31.229113 0)scale(0.996264)" xlink:href="#CMSS17-48"/>
       <use transform="translate(78.072736 0)scale(0.996264)" xlink:href="#CMSS17-46"/>
       <use transform="translate(104.096941 0)scale(0.996264)" xlink:href="#CMSS17-49"/>
      </g>
     </g>
    </g>
    <g id="ytick_8">
     <g id="line2d_40">
      <g>
       <use style="stroke:#000000;stroke-width:0.8;" x="43.106631" xlink:href="#m40826a6c66" y="189.744983"/>
      </g>
     </g>
     <g id="text_21">
      <!-- 0.0 -->
      <g transform="translate(23.376552 193.204232)scale(0.1 -0.1)">
       <use transform="scale(0.996264)" xlink:href="#CMSS17-48"/>
       <use transform="translate(46.843624 0)scale(0.996264)" xlink:href="#CMSS17-46"/>
       <use transform="translate(72.867828 0)scale(0.996264)" xlink:href="#CMSS17-48"/>
      </g>
     </g>
    </g>
    <g id="ytick_9">
     <g id="line2d_41">
      <g>
       <use style="stroke:#000000;stroke-width:0.8;" x="43.106631" xlink:href="#m40826a6c66" y="164.93088"/>
      </g>
     </g>
     <g id="text_22">
      <!-- 0.1 -->
      <g transform="translate(23.376552 168.390129)scale(0.1 -0.1)">
       <use transform="scale(0.996264)" xlink:href="#CMSS17-48"/>
       <use transform="translate(46.843624 0)scale(0.996264)" xlink:href="#CMSS17-46"/>
       <use transform="translate(72.867828 0)scale(0.996264)" xlink:href="#CMSS17-49"/>
      </g>
     </g>
    </g>
    <g id="text_23">
     <!-- $\mathbf{ v }_3$ -->
     <g transform="translate(14.118498 197.672517)rotate(-90)scale(0.1 -0.1)">
      <use transform="scale(0.996264)" xlink:href="#CMBX12-118"/>
      <use transform="translate(59.153176 -14.943915)scale(0.697382)" xlink:href="#CMR17-51"/>
     </g>
    </g>
   </g>
   <g id="line2d_42">
    <path clip-path="url(#p7aead6eeae)" d="M 43.106631 189.633003 
L 44.40242 188.848257 
L 45.698208 188.421456 
L 46.346115 188.391868 
L 46.993997 188.223521 
L 47.641904 187.669689 
L 48.937693 185.913733 
L 49.585575 185.438347 
L 50.233482 185.432582 
L 50.881364 185.708762 
L 51.52927 185.78841 
L 52.177178 185.748798 
L 52.82506 186.070349 
L 54.120848 187.764276 
L 54.768754 187.652826 
L 56.064544 185.781523 
L 56.712426 185.606411 
L 57.360333 186.186705 
L 58.008216 187.017632 
L 58.656122 187.498439 
L 59.304029 187.357101 
L 60.599818 186.418491 
L 61.895608 186.118078 
L 63.839279 185.104671 
L 64.487184 185.049014 
L 65.135066 185.381947 
L 65.782974 185.862077 
L 66.430878 186.063444 
L 67.726668 185.710153 
L 68.374551 185.751032 
L 70.318248 186.464894 
L 71.614035 186.111299 
L 72.261918 186.253237 
L 73.557733 187.365462 
L 74.205613 187.296752 
L 74.85352 187.000836 
L 76.14931 186.834779 
L 76.79719 186.498286 
L 77.445097 186.480738 
L 78.09298 187.191582 
L 78.740887 187.525886 
L 80.036675 185.810182 
L 80.684585 186.64525 
L 81.332465 188.459793 
L 81.980375 187.91242 
L 82.628255 185.449211 
L 83.276162 183.70508 
L 83.924042 183.780258 
L 84.571949 185.524848 
L 85.219835 188.337478 
L 85.867736 187.569421 
L 86.515622 183.869142 
L 87.163529 181.623373 
L 88.459316 179.32205 
L 89.107226 179.715545 
L 89.755104 181.280801 
L 90.403014 181.423829 
L 91.050891 180.669906 
L 91.698801 181.809111 
L 92.346684 183.402181 
L 93.642471 185.806035 
L 94.290381 187.355212 
L 95.586168 192.806977 
L 96.234073 191.777113 
L 97.529866 184.087973 
L 98.177743 183.085863 
L 98.825653 183.558621 
L 99.473536 183.744066 
L 100.12144 185.612223 
L 101.417233 196.292356 
L 102.065132 196.829522 
L 102.71302 193.397145 
L 103.360925 191.072405 
L 104.008807 190.390715 
L 104.656712 191.156598 
L 105.304595 192.910811 
L 105.952499 196.233472 
L 107.248292 207.447788 
L 107.896175 207.406985 
L 108.544079 204.548527 
L 109.191989 203.023544 
L 109.839872 204.051226 
L 110.487777 204.544763 
L 111.135659 204.888349 
L 111.783564 206.160058 
L 112.431452 207.772714 
L 113.727239 210.117808 
L 114.375144 210.945547 
L 115.023027 211.533972 
L 115.670931 212.792249 
L 116.318841 214.927307 
L 117.614628 220.262559 
L 118.262511 220.964903 
L 118.910416 219.332573 
L 120.854091 212.394684 
L 122.797783 203.656017 
L 124.09357 196.41399 
L 125.389358 188.243075 
L 126.685145 179.747495 
L 127.980938 173.892139 
L 129.27673 168.52477 
L 129.924629 166.281581 
L 130.572539 164.441496 
L 131.220428 163.594011 
L 131.868327 164.155817 
L 132.516215 166.315782 
L 133.164125 169.883662 
L 133.812002 175.103607 
L 135.107789 187.261429 
L 135.755699 191.140912 
L 136.403577 191.30115 
L 137.699397 181.45835 
L 138.347274 178.574104 
L 138.995184 178.264048 
L 139.643061 178.532063 
L 140.290971 179.475967 
L 140.938849 179.892948 
L 141.586759 179.951096 
L 142.234647 179.794773 
L 142.882546 180.011583 
L 143.530434 181.994218 
L 144.826243 189.019474 
L 145.474131 193.017294 
L 146.122041 195.623936 
L 147.417829 192.279224 
L 148.065706 192.354252 
L 149.361493 188.728001 
L 150.009403 187.976002 
L 150.65728 188.135897 
L 151.30519 187.587769 
L 151.9531 184.389081 
L 152.600978 179.58169 
L 153.248888 176.059571 
L 153.896765 176.036744 
L 154.544675 179.077682 
L 155.192552 184.393164 
L 156.48835 198.001872 
L 157.13625 205.39254 
L 157.784138 209.978126 
L 158.432048 210.316837 
L 159.079947 208.243791 
L 159.727835 203.990623 
L 160.375734 198.416296 
L 161.023622 195.76758 
L 161.671521 192.213613 
L 162.31941 190.357898 
L 163.615197 190.888457 
L 164.263107 190.814426 
L 164.910984 191.512145 
L 165.558894 193.620959 
L 166.854681 201.370955 
L 167.502581 202.637013 
L 168.150469 199.987552 
L 169.446256 190.428926 
L 170.094166 187.480318 
L 170.742054 186.206072 
L 171.389953 186.330558 
L 172.037841 186.610084 
L 172.685741 186.683095 
L 173.333651 187.055526 
L 173.981528 187.835533 
L 174.629438 187.977301 
L 175.277326 187.567399 
L 175.925225 186.61476 
L 176.573113 186.149352 
L 177.221012 186.753346 
L 177.868901 188.63791 
L 178.5168 191.16026 
L 179.164688 192.738098 
L 179.812587 192.860355 
L 180.460497 192.385914 
L 181.108374 190.995458 
L 181.756284 188.800813 
L 183.052072 183.713607 
L 183.69996 182.196777 
L 184.347859 181.72712 
L 184.995747 182.002046 
L 185.643657 182.946977 
L 186.939444 186.905509 
L 187.587354 187.483117 
L 188.235232 187.713821 
L 188.883142 186.744436 
L 189.531019 185.16718 
L 190.178929 184.525145 
L 190.826806 184.337007 
L 191.474716 185.66943 
L 192.122593 188.658474 
L 192.770503 190.739306 
L 194.714201 190.437366 
L 196.009988 189.596347 
L 197.305786 189.244146 
L 197.953653 188.951454 
L 198.601563 188.480146 
L 199.249451 188.3984 
L 200.545238 189.465738 
L 201.193137 188.795989 
L 201.841047 186.683592 
L 202.488935 183.957048 
L 203.136845 181.850994 
L 203.784733 181.166121 
L 204.432622 181.287479 
L 205.08051 181.785926 
L 205.72842 183.212421 
L 206.376308 186.267065 
L 207.024218 190.439502 
L 207.672084 193.743429 
L 208.319994 193.775486 
L 208.967904 190.498722 
L 209.615793 188.683664 
L 210.263703 189.436561 
L 210.911569 190.972432 
L 211.559479 191.252381 
L 212.207367 189.90137 
L 213.503144 190.99696 
L 214.151054 189.477044 
L 216.742628 192.025756 
L 217.390538 194.596094 
L 218.686336 201.629015 
L 219.334224 204.303684 
L 219.982134 205.181944 
L 220.630001 204.777822 
L 221.925799 203.553358 
L 222.573709 203.127256 
L 224.517395 201.235811 
L 225.165284 200.944731 
L 226.46106 200.888571 
L 227.10897 200.785107 
L 227.756858 200.818161 
L 229.052635 200.612873 
L 229.700545 200.814123 
L 230.996343 201.865562 
L 231.644253 202.002084 
L 232.292141 201.840547 
L 232.940051 201.360461 
L 233.587917 200.635785 
L 234.235827 199.619215 
L 234.883715 197.736788 
L 235.531625 195.313873 
L 236.179492 192.383878 
L 237.475312 185.731916 
L 238.123222 184.199569 
L 238.771066 183.489421 
L 239.418976 183.050647 
L 240.714796 179.708928 
L 241.362663 179.843004 
L 242.010551 181.902642 
L 242.658461 182.468483 
L 243.954281 180.85493 
L 245.897946 178.477862 
L 246.545856 177.86946 
L 247.193722 176.734719 
L 247.841632 175.340801 
L 248.489542 175.675206 
L 249.137452 178.726853 
L 249.785296 179.021464 
L 251.081116 174.280415 
L 251.729026 172.222162 
L 252.376937 171.273115 
L 253.024781 171.313354 
L 253.672691 173.573041 
L 254.968511 183.197597 
L 256.264266 193.819976 
L 256.912176 196.610064 
L 257.560086 196.42243 
L 258.207974 193.509441 
L 258.85584 189.37393 
L 259.50375 189.601563 
L 260.15166 190.575497 
L 260.79957 186.913384 
L 261.447415 187.969402 
L 262.743235 192.937305 
L 263.391145 193.585022 
L 264.038989 192.13002 
L 264.686899 189.619078 
L 265.334809 188.425919 
L 266.630629 189.832124 
L 267.278474 191.03103 
L 267.926384 192.477792 
L 268.574294 193.541018 
L 269.222204 193.403683 
L 269.87007 192.109345 
L 270.51798 190.242508 
L 272.461667 183.883868 
L 274.405353 178.990935 
L 275.053263 178.70754 
L 275.701129 179.467321 
L 276.349039 181.100369 
L 276.996949 183.794385 
L 278.940614 194.136774 
L 279.588524 195.550361 
L 280.236412 193.234835 
L 280.884322 188.911454 
L 281.532188 186.983981 
L 282.180098 187.398172 
L 283.475897 187.713218 
L 284.123763 187.313584 
L 284.771673 186.062095 
L 285.419583 185.563683 
L 286.067471 185.60258 
L 286.715381 186.175114 
L 287.363248 190.012727 
L 289.306956 205.142955 
L 289.954822 206.105598 
L 290.602732 203.313535 
L 291.89853 190.323766 
L 292.546397 187.980505 
L 293.194307 192.042131 
L 293.842217 194.398531 
L 294.490105 195.142558 
L 295.138015 193.491177 
L 295.785881 190.881639 
L 296.433791 189.236913 
L 297.081701 189.397636 
L 297.729589 190.140941 
L 298.377478 189.729684 
L 299.025388 189.964965 
L 299.673276 191.153452 
L 300.321164 191.652036 
L 300.969074 191.99836 
L 301.616962 191.693781 
L 302.26485 189.870257 
L 303.56067 183.396951 
L 304.208537 180.263971 
L 304.856425 178.733361 
L 305.504335 179.046178 
L 306.152245 180.52188 
L 308.09591 185.686829 
L 308.74382 188.51817 
L 309.39173 191.860789 
L 310.687484 196.911161 
L 311.983304 200.558436 
L 312.63117 202.429565 
L 313.27908 203.045875 
L 313.926969 199.794779 
L 314.574879 194.913139 
L 315.222789 191.368575 
L 315.870655 191.831488 
L 317.166453 197.176488 
L 317.814363 195.785998 
L 318.46223 191.872325 
L 319.110118 188.757633 
L 319.758028 187.538631 
L 320.405938 188.058336 
L 321.053804 190.053541 
L 322.349602 194.565745 
L 322.997512 196.44689 
L 323.645422 196.747971 
L 324.293289 195.206653 
L 324.941177 192.900062 
L 326.884863 183.827081 
L 327.532773 183.604816 
L 328.180683 184.361014 
L 328.828593 184.289706 
L 330.124348 184.577628 
L 330.772258 184.864676 
L 331.420168 185.673469 
L 332.715922 189.20116 
L 333.363832 190.107069 
L 334.659652 190.902278 
L 335.307497 190.985616 
L 336.603317 191.783443 
L 337.251227 191.544815 
L 337.899137 190.689629 
L 338.546982 189.344011 
L 339.842802 186.154113 
L 340.490712 185.267908 
L 341.138556 184.866062 
L 342.434376 184.773628 
L 345.025951 185.103932 
L 345.673861 184.885957 
L 346.969615 184.265857 
L 348.265457 184.128242 
L 348.913345 184.298584 
L 349.561212 184.795262 
L 350.85701 186.107376 
L 351.504942 186.308033 
L 353.448606 186.017181 
L 355.392271 184.960452 
L 356.040159 184.826164 
L 356.688091 184.487466 
L 357.335979 183.985523 
L 357.983911 183.733469 
L 358.631755 184.090459 
L 359.927575 185.970209 
L 360.575464 186.001467 
L 361.87124 184.904695 
L 363.16706 185.083001 
L 363.814904 184.837338 
L 364.462836 184.338707 
L 365.110724 184.216254 
L 366.406544 185.310157 
L 367.702321 184.318644 
L 368.350209 184.824717 
L 368.998097 185.798483 
L 369.645985 185.329143 
L 370.293874 184.086384 
L 370.941805 183.895275 
L 371.589694 185.506388 
L 372.237625 186.527409 
L 372.88547 185.082769 
L 373.533358 183.312804 
L 374.18129 183.339807 
L 374.829178 184.506644 
L 375.477023 185.407732 
L 376.124955 185.764387 
L 376.772843 184.575731 
L 377.420775 182.246066 
L 378.068619 181.254278 
L 378.716507 181.228776 
L 380.660259 182.009485 
L 381.308104 182.856844 
L 381.955992 185.34432 
L 382.603924 189.909742 
L 383.251812 191.851147 
L 383.899656 189.34613 
L 384.547588 188.623522 
L 385.195476 187.690496 
L 385.843408 186.991329 
L 386.491296 187.600553 
L 389.082893 193.184352 
L 389.730737 194.823086 
L 390.378626 197.536101 
L 391.674446 206.175324 
L 392.322334 206.920303 
L 392.970222 206.546608 
L 393.618154 209.011369 
L 394.266042 216.407404 
L 394.91393 221.733048 
L 395.561818 221.172479 
L 396.209706 217.92699 
L 396.857638 215.731284 
L 397.505526 214.929432 
L 399.449191 213.273511 
L 400.097123 212.241918 
L 402.040787 207.810605 
L 403.336607 203.603809 
L 403.984452 201.287895 
L 406.576005 190.465382 
L 407.223937 188.156952 
L 408.519757 182.650747 
L 409.167645 180.307211 
L 409.815489 179.068813 
L 410.463399 178.165947 
L 411.111309 176.006723 
L 413.702906 170.177918 
L 414.350772 170.011127 
L 414.998726 171.937925 
L 415.646548 174.704958 
L 416.294458 176.925045 
L 416.942368 179.924513 
L 417.590278 183.719747 
L 418.238145 185.890467 
L 418.886055 185.972405 
L 419.533921 183.661501 
L 420.181875 180.652518 
L 420.829741 179.466231 
L 421.477651 180.37174 
L 422.125518 182.369924 
L 423.421338 187.500158 
L 424.069204 188.57158 
L 424.717114 187.695554 
L 425.365024 186.43127 
L 426.6608 184.724284 
L 427.308667 183.476027 
L 429.25244 178.361248 
L 429.900263 178.775219 
L 430.548173 180.790763 
L 431.196083 184.174602 
L 431.843993 190.666933 
L 433.139769 208.500494 
L 433.787636 214.054183 
L 434.435589 214.363534 
L 435.083412 212.129567 
L 435.731322 206.740003 
L 436.379232 197.723756 
L 437.027142 190.972274 
L 437.675052 187.992798 
L 438.322919 185.86426 
L 438.970785 185.588267 
L 439.618739 185.033787 
L 442.210291 178.024561 
L 442.858201 176.653932 
L 443.506111 176.212022 
L 444.153934 177.462843 
L 444.801888 180.628219 
L 445.449754 186.578141 
L 446.74553 202.908912 
L 447.393484 205.202754 
L 448.04135 202.54094 
L 448.68926 196.206048 
L 449.985037 181.457074 
L 450.632947 177.121852 
L 451.280857 178.043778 
L 451.928767 183.377316 
L 452.576633 190.732276 
L 453.872453 214.20043 
L 454.52032 218.26149 
L 455.168186 217.820154 
L 455.816096 214.246914 
L 456.464006 204.854187 
L 457.111916 197.617619 
L 458.407649 185.748847 
L 459.055602 182.219869 
L 459.703469 181.713359 
L 460.351422 182.784632 
L 460.999245 186.074521 
L 462.942975 202.516835 
L 463.590798 205.967726 
L 464.238751 205.813034 
L 464.886618 202.311252 
L 466.182438 192.31014 
L 466.830304 188.719649 
L 467.478214 187.284652 
L 468.126124 187.733475 
L 468.774034 189.872305 
L 470.069767 197.472706 
L 470.717721 198.579712 
L 471.365587 196.290452 
L 473.309273 186.077933 
L 473.957183 184.427301 
L 474.605093 184.336553 
L 475.25296 185.258215 
L 477.19669 189.489457 
L 477.844512 189.688966 
L 478.492466 188.640861 
L 479.788286 185.251554 
L 480.436152 185.48193 
L 481.084019 188.715276 
L 482.379839 198.075747 
L 483.027749 199.961566 
L 483.675615 199.510643 
L 484.971435 193.11729 
L 485.619302 190.695957 
L 486.267255 189.023874 
L 487.562988 186.763158 
L 488.210898 186.271834 
L 488.858808 186.41928 
L 489.506631 187.275924 
L 489.506631 187.275924 
" style="fill:none;stroke:#1f77b4;stroke-linecap:square;stroke-width:1.5;"/>
   </g>
   <g id="line2d_43">
    <path clip-path="url(#p7aead6eeae)" d="M 43.106631 184.417254 
L 44.40242 183.743919 
L 46.346115 182.82422 
L 47.641904 182.167247 
L 48.937693 181.828598 
L 49.585575 181.897027 
L 50.881364 182.600013 
L 52.82506 184.010554 
L 54.120848 184.906915 
L 54.768754 185.17163 
L 56.064544 185.482087 
L 57.360333 186.109984 
L 59.95191 187.453144 
L 64.487184 189.8969 
L 67.078761 191.743842 
L 69.022458 193.019048 
L 70.318248 193.884734 
L 74.205613 196.004693 
L 77.445097 197.284841 
L 81.332465 198.848677 
L 82.628255 199.233026 
L 83.924042 199.900612 
L 85.219835 200.509265 
L 87.163529 200.873398 
L 87.811431 201.263808 
L 90.403014 203.427072 
L 91.698801 203.99989 
L 93.642471 204.396923 
L 94.290381 204.370201 
L 94.938286 204.197167 
L 96.881956 203.033401 
L 97.529866 202.884294 
L 98.825653 202.810409 
L 100.12144 202.452167 
L 100.769323 201.97332 
L 101.417233 201.127371 
L 102.71302 198.85947 
L 105.304595 193.709534 
L 106.600387 190.619742 
L 109.191989 183.111267 
L 110.487777 180.293554 
L 113.079351 176.024976 
L 116.966718 169.833809 
L 118.910416 167.10336 
L 119.558298 166.488221 
L 120.206208 166.123147 
L 120.854091 166.164159 
L 121.501996 166.732425 
L 122.149878 167.756393 
L 123.445693 170.495166 
L 124.09357 172.19489 
L 125.389358 176.697896 
L 129.27673 192.584547 
L 130.572539 197.023284 
L 132.516215 202.256983 
L 133.164125 203.552759 
L 133.812002 204.463336 
L 134.459912 204.878319 
L 135.107789 205.026267 
L 136.403577 204.479222 
L 137.051487 204.763847 
L 137.699397 205.320053 
L 138.347274 205.665389 
L 138.995184 205.870175 
L 139.643061 205.956907 
L 140.938849 205.697479 
L 142.234647 205.729041 
L 142.882546 205.942927 
L 143.530434 205.925058 
L 144.826243 204.995556 
L 145.474131 204.17051 
L 146.122041 202.69004 
L 148.713616 195.749962 
L 149.361493 194.652463 
L 150.009403 193.931765 
L 150.65728 193.615173 
L 151.30519 194.082908 
L 151.9531 195.426742 
L 153.896765 200.897102 
L 154.544675 201.487217 
L 155.192552 200.824541 
L 155.840462 198.892304 
L 156.48835 195.855638 
L 158.432048 184.858827 
L 159.079947 182.122952 
L 159.727835 180.225665 
L 160.375734 179.419342 
L 161.023622 179.518411 
L 161.671521 180.005743 
L 162.31941 180.688037 
L 162.96732 181.191692 
L 163.615197 181.058033 
L 164.263107 180.193414 
L 164.910984 178.741688 
L 166.206793 175.280045 
L 166.854681 174.061949 
L 167.502581 173.832967 
L 168.150469 174.502726 
L 168.798368 175.742296 
L 170.742054 180.379907 
L 171.389953 181.312524 
L 172.685741 182.614076 
L 173.981528 184.008111 
L 176.573113 186.275632 
L 177.221012 186.663037 
L 177.868901 186.728399 
L 178.5168 186.451824 
L 180.460497 185.131778 
L 181.108374 185.22833 
L 181.756284 185.863323 
L 182.404172 186.936927 
L 183.052072 188.283183 
L 185.643657 194.563518 
L 186.291545 195.204888 
L 186.939444 195.290614 
L 188.883142 195.080141 
L 190.178929 195.239097 
L 190.826806 195.002017 
L 191.474716 194.409501 
L 192.122593 193.343213 
L 193.418392 190.713698 
L 194.066291 189.735313 
L 194.714201 189.183194 
L 195.362078 188.994017 
L 197.305786 189.397028 
L 197.953653 189.230002 
L 198.601563 188.855433 
L 201.193137 186.760023 
L 201.841047 186.659579 
L 202.488935 187.06779 
L 203.136845 188.014676 
L 204.432622 190.491325 
L 205.08051 191.482631 
L 205.72842 192.025175 
L 206.376308 191.987861 
L 207.024218 191.46487 
L 209.615793 188.293515 
L 210.263703 187.945775 
L 211.559479 187.539869 
L 213.503144 186.68088 
L 214.151054 186.519617 
L 214.798942 186.165428 
L 216.094762 184.493844 
L 217.390538 182.490054 
L 218.686336 179.766994 
L 221.277911 173.270464 
L 221.925799 172.052772 
L 222.573709 171.120763 
L 223.221619 170.521846 
L 223.869485 170.264381 
L 224.517395 170.308053 
L 227.10897 170.993912 
L 228.404768 171.035228 
L 229.700545 170.747909 
L 230.996343 170.450752 
L 231.644253 170.382961 
L 232.292141 170.452986 
L 232.940051 170.775659 
L 233.587917 171.299525 
L 234.235827 172.023716 
L 234.883715 173.013775 
L 235.531625 174.22282 
L 236.179492 175.953969 
L 237.475312 180.414619 
L 238.123222 181.891282 
L 239.418976 184.104857 
L 240.714796 187.324587 
L 241.362663 188.914272 
L 242.010551 189.887747 
L 243.306371 191.287588 
L 243.954281 192.311571 
L 245.250057 195.212293 
L 247.193722 200.896768 
L 247.841632 201.987528 
L 248.489542 202.250729 
L 249.137452 202.067019 
L 249.785296 202.28227 
L 250.433206 203.073454 
L 251.081116 204.042997 
L 252.376937 207.265651 
L 253.024781 208.453912 
L 253.672691 209.053137 
L 254.320601 208.95287 
L 254.968511 208.629005 
L 255.616356 208.093343 
L 256.264266 206.742845 
L 257.560086 203.516869 
L 258.85584 200.362732 
L 260.15166 197.040508 
L 260.79957 196.158844 
L 262.095325 194.957649 
L 263.391145 194.568662 
L 264.686899 194.154194 
L 265.334809 193.73429 
L 265.982719 192.828996 
L 266.630629 191.511542 
L 267.926384 188.043894 
L 269.222204 184.794104 
L 269.87007 183.820178 
L 270.51798 183.554919 
L 271.165868 184.091481 
L 271.813778 185.397963 
L 273.757465 190.764963 
L 274.405353 191.972528 
L 275.053263 192.729105 
L 276.349039 193.872246 
L 276.996949 194.242379 
L 277.644838 194.210713 
L 278.292704 194.035061 
L 278.940614 193.446772 
L 280.236412 190.861981 
L 280.884322 190.171945 
L 281.532188 189.81644 
L 283.475897 189.329271 
L 284.123763 189.49756 
L 286.715381 190.847142 
L 287.363248 190.571959 
L 288.011158 189.562034 
L 289.954822 185.990891 
L 290.602732 184.952518 
L 291.250642 184.237361 
L 291.89853 183.821059 
L 292.546397 183.213282 
L 293.194307 182.041887 
L 293.842217 181.547867 
L 294.490105 182.094887 
L 295.138015 182.79192 
L 296.433791 185.086831 
L 297.081701 185.841334 
L 297.729589 186.115354 
L 302.26485 186.201169 
L 302.91276 186.623873 
L 303.56067 187.31139 
L 304.208537 188.450017 
L 306.800111 194.05981 
L 307.448021 195.049827 
L 308.09591 195.679957 
L 308.74382 195.857325 
L 309.39173 195.691465 
L 310.039596 195.333185 
L 310.687484 194.705605 
L 311.335394 193.504778 
L 311.983304 191.524635 
L 313.27908 186.307453 
L 313.926969 184.487181 
L 315.222789 181.761467 
L 315.870655 181.123175 
L 316.518543 181.319204 
L 317.166453 182.035536 
L 317.814363 183.397558 
L 319.110118 186.908054 
L 319.758028 187.603789 
L 320.405938 187.537801 
L 321.053804 186.919368 
L 322.997512 183.948979 
L 323.645422 183.39771 
L 324.293289 183.34738 
L 324.941177 183.786335 
L 325.589087 184.645568 
L 326.884863 187.495457 
L 328.828593 192.141048 
L 329.476482 193.252532 
L 330.124348 193.92097 
L 330.772258 194.16363 
L 331.420168 193.935665 
L 332.715922 192.815046 
L 333.363832 192.100521 
L 334.659652 189.777364 
L 335.955407 186.924286 
L 337.251227 183.921577 
L 337.899137 182.805784 
L 338.546982 181.950731 
L 339.194892 181.382571 
L 339.842802 181.070855 
L 340.490712 180.910799 
L 341.786466 181.080117 
L 343.082286 181.131618 
L 345.025951 180.972704 
L 346.321771 181.005509 
L 347.617525 181.426144 
L 348.913345 182.17136 
L 350.85701 183.485263 
L 354.744426 185.478742 
L 356.040159 186.47594 
L 357.983911 188.269371 
L 359.927575 190.290075 
L 365.110724 194.688495 
L 366.406544 195.765208 
L 368.998097 197.489171 
L 372.237625 199.186467 
L 373.533358 199.691154 
L 374.829178 200.228975 
L 377.420775 200.710317 
L 379.364439 201.628677 
L 380.012327 201.785122 
L 380.660259 201.799621 
L 381.308104 201.659259 
L 381.955992 201.297723 
L 382.603924 200.593214 
L 383.899656 198.470809 
L 384.547588 197.708904 
L 385.195476 197.149965 
L 385.843408 196.829938 
L 387.139141 196.380153 
L 387.787073 195.844263 
L 388.434961 194.959359 
L 389.730737 192.553265 
L 391.026557 189.768167 
L 394.266042 181.763669 
L 396.209706 176.831107 
L 396.857638 175.494449 
L 398.153371 173.54721 
L 398.801303 172.877066 
L 399.449191 172.505865 
L 400.097123 172.396869 
L 401.392856 172.607822 
L 402.040787 172.760305 
L 402.688676 173.077409 
L 403.336607 173.640225 
L 403.984452 174.389492 
L 404.63234 175.375564 
L 405.92816 177.967804 
L 407.223937 181.199552 
L 408.519757 184.801713 
L 409.815489 187.704186 
L 410.463399 189.057403 
L 412.407086 194.867017 
L 414.998726 203.218767 
L 415.646548 203.857492 
L 416.294458 204.034407 
L 416.942368 203.93253 
L 417.590278 203.58878 
L 418.238145 202.964329 
L 418.886055 202.569619 
L 419.533921 202.889266 
L 420.181875 203.612249 
L 421.477651 204.593263 
L 422.125518 205.305124 
L 422.773471 205.80634 
L 423.421338 205.772375 
L 424.717114 205.108347 
L 425.365024 205.036646 
L 426.6608 204.535949 
L 427.308667 204.803565 
L 427.95662 205.523716 
L 429.900263 208.378987 
L 430.548173 208.83003 
L 431.196083 208.777159 
L 431.843993 207.967477 
L 432.491816 206.546998 
L 433.139769 204.677805 
L 435.731322 195.34107 
L 436.379232 193.498796 
L 437.675052 188.46336 
L 438.322919 187.15888 
L 438.970785 186.463816 
L 439.618739 186.458302 
L 440.266605 187.300525 
L 440.914471 188.523558 
L 442.210291 191.721519 
L 442.858201 193.356965 
L 443.506111 194.589514 
L 444.153934 195.37053 
L 444.801888 195.808307 
L 445.449754 195.802489 
L 446.097708 195.442057 
L 447.393484 194.443472 
L 448.04135 194.582775 
L 448.68926 195.286056 
L 450.632947 196.155939 
L 451.280857 196.178649 
L 451.928767 196.081314 
L 452.576633 195.729738 
L 453.2245 194.495318 
L 455.816096 186.608037 
L 456.464006 185.22001 
L 457.111916 184.216162 
L 457.759826 183.808092 
L 458.407649 184.447577 
L 459.703469 187.120754 
L 460.351422 187.999927 
L 460.999245 188.258778 
L 461.647155 187.633699 
L 462.295065 186.321006 
L 463.590798 183.016654 
L 464.238751 181.853149 
L 464.886618 181.402614 
L 465.534571 181.124609 
L 466.182438 180.703631 
L 466.830304 180.065456 
L 468.126124 178.340549 
L 468.774034 178.00914 
L 470.069767 177.930936 
L 470.717721 178.077832 
L 471.365587 178.52205 
L 472.013541 179.145015 
L 472.661363 179.944136 
L 473.957183 182.108507 
L 475.90087 185.920009 
L 477.19669 188.399756 
L 479.788286 192.636172 
L 480.436152 193.361258 
L 481.084019 193.71312 
L 481.731929 193.72579 
L 482.379839 193.398115 
L 483.027749 192.60411 
L 485.619302 187.765716 
L 486.267255 187.123134 
L 486.915078 186.916153 
L 487.562988 187.039918 
L 488.858808 187.605443 
L 489.506631 187.631945 
L 489.506631 187.631945 
" style="fill:none;stroke:#ff7f0e;stroke-dasharray:5.55,2.4;stroke-dashoffset:0;stroke-width:1.5;"/>
   </g>
   <g id="patch_14">
    <path d="M 43.106631 224.64 
L 43.106631 160.687059 
" style="fill:none;stroke:#000000;stroke-linecap:square;stroke-linejoin:miter;stroke-width:0.8;"/>
   </g>
   <g id="patch_15">
    <path d="M 489.506631 224.64 
L 489.506631 160.687059 
" style="fill:none;stroke:#000000;stroke-linecap:square;stroke-linejoin:miter;stroke-width:0.8;"/>
   </g>
   <g id="patch_16">
    <path d="M 43.106631 224.64 
L 489.506631 224.64 
" style="fill:none;stroke:#000000;stroke-linecap:square;stroke-linejoin:miter;stroke-width:0.8;"/>
   </g>
   <g id="patch_17">
    <path d="M 43.106631 160.687059 
L 489.506631 160.687059 
" style="fill:none;stroke:#000000;stroke-linecap:square;stroke-linejoin:miter;stroke-width:0.8;"/>
   </g>
  </g>
 </g>
 <defs>
  <clipPath id="p27bc6a97e6">
   <rect height="63.952941" width="446.4" x="43.106631" y="7.2"/>
  </clipPath>
  <clipPath id="p5976b60b70">
   <rect height="63.952941" width="446.4" x="43.106631" y="83.943529"/>
  </clipPath>
  <clipPath id="p7aead6eeae">
   <rect height="63.952941" width="446.4" x="43.106631" y="160.687059"/>
  </clipPath>
 </defs>
</svg>
